<?xml version="1.0" encoding="utf-8"?>
<!-- Generator: Adobe Illustrator 19.2.0, SVG Export Plug-In . SVG Version: 6.00 Build 0)  -->
<svg version="1.1" id="Layer_1" xmlns:svg="http://www.w3.org/2000/svg"
	 xmlns="http://www.w3.org/2000/svg" xmlns:xlink="http://www.w3.org/1999/xlink" x="0px" y="0px" viewBox="0 0 612 612"
	 style="enable-background:new 0 0 612 612;" xml:space="preserve">
<style type="text/css">
	.st0{fill:#FFFF00;stroke:#0F0202;stroke-width:5;}
	.st1{fill:none;stroke:#0F0202;stroke-width:5;}
	.st2{fill:none;stroke:#000000;stroke-width:5;}
</style>
<title>Layer 1</title>
<g>
	<path id="svg_1" class="st0" d="M284.6,265.6c-2.2,0.8-3,1.2-4,1.5c-0.6,0.2-1.4,0.4-2.3,0.8c-0.7,0.3-1.6,0.8-2,1.1
		c-1.2,0.8-1.7,1.2-2.6,1.9c-0.5,0.4-1,0.7-1.8,1.4c-1,0.8-1.7,1.2-2.3,1.9c-0.5,0.7-0.8,1.6-1.5,2.2c-0.6,0.6-1.4,1.1-2,1.7
		s-1.2,1.3-1.9,1.9c-0.7,0.6-1.2,1.2-1.6,1.8c-0.5,0.8-1.3,1.4-1.7,2.1c-0.5,0.8-0.8,1.5-1.2,2.3c-0.3,0.7-0.9,1.4-1.4,2.2
		c-0.5,0.8-0.7,1.7-1.1,2.5c-0.5,0.8-0.7,1.5-1.1,2.5c-0.3,0.8-0.8,1.5-1.1,2.4c-0.3,0.8-0.5,1.8-0.8,2.5c-0.4,0.8-0.9,1.6-1.2,2.5
		c-0.3,0.7-0.4,1.4-0.7,2.6c-0.2,0.7-0.5,1.5-0.8,2.4c-0.2,0.8-0.3,1.8-0.4,2.7c-0.1,0.8-0.3,1.8-0.6,2.6c-0.3,0.8-0.5,1.4-0.8,2.3
		c-0.3,1-0.4,2-0.5,2.9c-0.2,1-0.2,1.8-0.4,2.7c-0.2,0.8-0.5,1.6-0.7,2.5c-0.1,0.8-0.1,1.7-0.2,2.6c-0.1,0.9-0.2,1.8-0.2,2.7
		c0,0.8,0,1.8,0,2.6c0,0.8,0,1.8,0,2.6c0,1,0,2,0,2.8s0,1.7-0.2,2.7c-0.1,0.9-0.3,1.5-0.5,2.7c-0.1,0.6-0.1,1.4-0.1,2.5
		c0,0.8-0.1,1.8,0,2.6c0.1,1,0.5,1.8,0.8,2.4c0.5,0.9,1,1.6,1.5,2.4c0.4,0.7,0.9,1.5,1.4,2.2c0.6,0.8,1.2,1.4,1.8,2
		c0.7,0.7,1.1,1.3,1.7,1.9c0.8,0.8,1.4,1.1,2.2,1.6c0.6,0.3,1.7,0.9,2.4,1.3c0.7,0.4,1.5,1,2.1,1.6c0.6,0.7,1.2,1.4,1.7,1.9
		c0.7,0.7,1.3,1.3,1.9,1.9c0.8,0.8,1.3,1.4,1.7,2.2c0.4,0.8,1.1,1.4,1.9,1.8c0.7,0.3,1.5,0.6,2.6,0.9c0.6,0.2,1.4,0.3,2.6,0.5
		c0.5,0.1,1.6,0.2,2.2,0.3c0.6,0.1,1.9,0.2,2.5,0.3c1.2,0.1,2.2,0.2,3.1,0.2c0.4,0,1.4,0.1,2.9,0.2c0.6,0.1,1.2,0.1,1.9,0.2
		c1.4,0.2,2,0.3,2.7,0.4c0.6,0.1,2.4,0.4,2.8,0.4c0.8,0.1,1.9,0.3,3,0.4c0.8,0.1,1.5,0.1,2.6,0.1c0.7,0,1.7,0,2.4,0
		c1.1,0,2,0.1,2.6,0.1s1.8,0.1,2.5,0.2c1.4,0.1,2.2,0.1,2.9,0.2c0.8,0,1.5,0.1,2.3,0.1c0.7,0,1.5,0.1,3.4,0.3
		c0.5,0.1,1.5,0.2,2.3,0.3c0.7,0.1,1.8,0.3,2.6,0.4c0.8,0.1,1.6,0.1,2.4,0.1c1.3,0,2.1,0,3.1,0c0.9,0,1.9-0.1,2.6-0.3
		c0.9-0.2,1.8-0.4,2.6-0.5c1-0.1,1.9-0.1,2.8-0.4s1.6-0.6,2.3-0.9c1-0.5,1.6-0.9,2.2-1.3c0.8-0.6,1.8-1.4,2.2-1.6
		c0.8-0.6,1.3-0.8,2.3-1.4c0.5-0.3,1.1-0.6,2.2-1.3c1.2-0.7,1.8-1,2.4-1.4s1.2-0.7,1.8-1.1c1.5-1,2-1.4,2.6-2.2
		c0.6-0.7,0.9-1.1,1.2-1.8c0.6-1.2,0.8-2.1,1-2.5c0.3-1,0.4-1.6,0.6-2.2c0.3-1.4,0.4-2.1,0.6-2.9s0.3-1.7,0.5-2.6s0.3-1.7,0.5-2.5
		c0.3-1.5,0.4-2.1,0.7-3.2c0.3-0.9,0.5-1.7,1-2.7c0.3-0.6,0.6-1.3,1-1.9c0.7-1.4,0.9-1.8,1.3-2.6c0.4-0.9,0.6-1.4,1-2.3
		c0.4-1,0.8-2.1,1.1-2.7c0.2-0.6,0.6-1.7,0.8-2.2c0.2-0.6,0.8-2.1,1-2.7c0.4-1,0.5-1.5,0.8-2.4c0.4-1.3,0.7-2.1,0.9-2.9
		c0.2-0.7,0.3-1.4,0.6-2.6c0.2-0.8,0.3-1.5,0.5-2.5c0.1-0.8,0.3-1.6,0.4-2.6c0.2-1,0.3-2,0.3-2.7s0-1.8-0.1-2.9
		c-0.1-0.8-0.2-1.5-0.4-2.3c-0.2-0.7-0.5-1.8-0.7-2.5c-0.4-1.1-0.6-1.8-1-2.9c-0.3-0.8-0.5-1.6-0.8-2.3c-0.4-1.1-0.6-1.7-0.9-2.3
		c-0.4-0.9-0.8-1.8-1.1-2.8c-0.3-0.8-0.4-1.2-0.7-2c-0.5-1.5-0.8-2-1-2.6c-0.4-1.1-0.7-1.7-0.9-2.2c-0.6-1.6-0.8-2-1.1-2.9
		c-0.3-0.8-0.6-1.5-1.1-2.8c-0.2-0.6-0.6-1.5-0.8-2c-0.3-1.1-0.4-2.2-0.8-2.8c-0.6-0.9-1.1-1.3-1.6-1.8c-0.6-0.6-1.7-1.5-2.1-1.7
		c-0.9-0.6-1.3-0.9-2.2-1.5c-0.4-0.3-1.5-1.1-2.1-1.6c-0.8-0.7-1.2-1.2-2.1-1.8c-0.8-0.5-1.7-0.9-2.2-1.6c-0.5-0.8-0.6-1.7-1-2.5
		c-0.3-0.8-1-1.5-1.8-1.9s-1.5-0.8-2.5-1.3c-0.5-0.3-1.3-0.8-1.8-1.1c-1.1-0.6-1.9-1-2.7-1.3c-0.9-0.4-1.7-0.9-2.4-1.3
		c-0.8-0.5-1.8-0.8-2.5-1.1c-0.6-0.2-1.5-0.6-2.6-0.9c-0.7-0.2-1.3-0.4-2.3-0.6c-1.2-0.2-2-0.2-2.6-0.3c-1.2-0.1-2.1-0.2-2.7-0.2
		c-1.1-0.1-2-0.4-2.8-0.5c-1.1-0.1-1.7-0.1-2.8-0.1c-0.7,0-1.7,0-2.6,0c-0.8,0-1.6,0-2.7,0.2c-0.8,0.1-1.8,0.4-2.6,0.5
		c-0.9,0.2-1.7,0.5-2.6,0.7c-0.8,0.2-1.4,0.2-2.5,0.4c-0.8,0.1-1.7,0.3-2.6,0.4c-0.8,0.1-2,0.3-2.8,0.3c-0.7,0.1-1.7,0.2-2.6,0.4
		c-0.8,0.2-1.6,0.7-2,1.4c-0.5,0.7-1.1,1.4-1.5,2c-0.4,0.7-0.8,1.6-1.2,2.5c-0.4,0.9-1.1,1.3-1.5,2c-0.5,0.8-0.9,1.6-1.4,2.4
		l-0.4,0.8"/>
	<line id="svg_2" class="st1" x1="284" y1="291.6" x2="277.6" y2="299.2"/>
	<path id="svg_3" class="st2" d="M284.7,300.8c-4,5.6-4.3,6.5-4.4,7.4c-0.1,0.8-0.1,1.7-0.1,2.6s0,1.8,0,2.7c0,0.9,0.5,1.5,1.4,1.5
		s1.8,0,2.7,0c0.8,0,1.7,0,2.7,0c0.8,0,1.7-0.1,2.2-0.8c0.6-0.7,1.1-1.4,1.5-2c0.5-0.7,0.7-1.6,0.7-2.5s0-1.7,0-2.6c0-1,0-1.8,0-2.5
		c0.1-1.2,0.6-1.8,0.7-2.8c0.1-0.8-0.2-1.8-1-1.8c-0.9,0-1.8,0-2.7,0c-0.8,0-1.8,0-2.3,0.5l-0.9,0.2h-0.9l-0.5,0.6"/>
	<path id="svg_4" class="st2" d="M325.2,302.3c-1.4-0.5-2.3-0.7-3-0.7c-1.3,0-2.1,0-2.5,0c-0.9,0-1.8,0-3.1,0c-0.8,0-1.5,0-2.3,0
		c-1.1,0-1.8,0.4-2,1.3c-0.2,0.7-0.4,1.7-0.9,2.4c-0.4,0.6-0.4,1.6-0.4,2.4c0,0.9-0.4,1.9,0.1,2.6c0.5,0.8,1.2,1.2,1.9,1.8
		c0.5,0.5,1.7,0.3,2.5,0.7c0.7,0.3,1.4,1,2.1,1.6s1.4,0.7,2.4,0.7c0.7,0,1.7,0,2.5,0c0.9,0,1.8,0,2-0.6c0.2-0.8,0.4-1.8,0.6-2.4
		c0.2-0.7,0.4-1.4,0.6-2.2c0.2-0.8,0.4-1.6,0.7-2.4l0.6-2l0.1-0.5l0.3-1.1"/>
	<path id="svg_5" class="st2" d="M304.2,255.8c-1.2-1.5-1.5-1.9-2.2-2.9c-0.4-0.5-0.8-1.1-1.2-1.7c-0.4-0.6-1.2-1.7-1.7-2.8
		c-0.3-0.5-0.7-1.4-1.1-2.3c-0.5-1-0.9-1.6-1.5-2.2c-0.5-0.5-1.5-1.2-1.9-2V241"/>
	<path id="svg_6" class="st2" d="M316.2,258.8c0.2-1.6,0.8-2.3,0.6-3.3c-0.1-0.7-0.4-1.4-0.6-2.4c-0.2-0.9-0.3-1.6-0.5-2.6
		s-0.2-1.9-0.2-2.7s-0.1-1.5-0.6-2.7c-0.3-0.7-0.7-1.3-1.2-2.4c-0.3-0.7-0.4-1.6-1-2.2l-0.1-0.9v-0.7V238"/>
	<path id="svg_7" class="st2" d="M323,237.8c0.3,0.2,0.6,0.3,0.7,0.3c0.1,0.1,0.1,0.1,0.1,0.2c0,0.1-0.1,0.2,0,0.2
		c0.1,0.1,0.6,0.1,0.7,0.2c0.1,0.1,0,0.1,0,0.2c0,0.1,0.1,0.1,0.3,0.2l0.1,0.1l0.1,0.1"/>
	<path id="svg_8" class="st1" d="M322.2,264c1.6,0,2.6-0.1,3.2-0.5c0.9-0.6,1.7-0.9,2.1-1.9c0.3-0.8,0.5-1.6,0.7-2.4
		c0.2-0.9,0.1-1.8,0.6-2.5c0.5-0.8,0.7-1.7,1-2.5c0.2-0.7,0.7-1.4,0.7-2.3c0-0.9,0.1-1.7,0.6-2.3c0.6-0.6,0.9-1.6,0.9-2.4
		c0-0.9,0.6-1.6,0.7-2.6c0.2-0.9,0-1.8,0-2.6v-0.9"/>
	<path id="svg_9" class="st1" d="M335.7,276.8c1.8,0,2.5,0,3.7,0c0.9,0,1.8,0,2.5,0c1,0,1.9,0,2.8,0s1.8-0.1,2.4-0.3
		c1.1-0.3,1.8-0.4,2.6-0.6c0.8-0.2,1.7-0.6,2.5-1c0.9-0.3,1.5-0.8,1.9-1.6c0.4-0.8,1.1-1.4,1.7-2c0.7-0.6,1.4-1.2,1.5-2.1
		c0.2-0.8,0-1.8,0.2-2.6c0.2-0.7,0.7-1.7,1.2-2.4c0.4-0.6,0.9-1.5,1.1-2.3l0.6-0.4v-0.9"/>
	<path id="svg_10" class="st1" d="M293,262.5c-2.2,0-3-0.3-3.9-0.6c-0.7-0.3-1.7,0.3-2.5-0.2c-0.8-0.4-1.2-1.2-1.9-1.8l-0.4-0.7
		l-0.2-0.9v-0.9"/>
	<path id="svg_11" class="st1" d="M283.2,340.5c0.5-1.2,0.9-2,1.4-2.6c0.6-0.9,1.5-0.8,2.3-1.3c0.6-0.4,1.3-0.7,2.1-1.1
		c0.8-0.4,1.8-0.3,2.5-0.6c0.7-0.4,1.6-0.3,2.4-0.6c0.8-0.4,1.6-0.5,2.4-0.5c0.7,0,1.6,0,2.4,0c1.1,0,2,0.2,2.9-0.1
		c1-0.2,1.8-0.7,2.4-0.7s1.7-0.1,3.5-0.1c1.1,0,2.4-0.1,3.8-0.1c1.5-0.1,3-0.1,4.5-0.1s2.9-0.1,5.2-0.1c0.9,0,1.6,0,2.2,0.1
		c0.4,0,0.7,0.1,0.9,0.2c0.1,0.1,0.2,0.2,0.2,0.4v0.1v0.1v0.5"/>
	<path id="svg_12" class="st1" d="M284,342c0,0.4,0,1.3,0.7,1.6c0.8,0.4,1.6,0.8,2.2,1.2c1,0.6,1.7,1.3,2.4,1.6
		c0.8,0.3,1.6,0.5,2.3,0.9c0.8,0.4,1.6,0.4,2.6,0.6s1.9,0.1,2.7,0.1c0.9,0,1.8,0,2.7,0c1,0,1.8,0,2.5,0c1.1,0,1.9,0,2.8,0
		s1.7-0.4,2.5-0.7c0.8-0.3,1.8-0.3,2.6-0.5c1-0.2,1.7-0.3,2.6-0.5c0.8-0.2,1.9-0.5,2.7-0.6c0.8-0.1,1.7-0.5,2.5-0.9
		c0.7-0.3,1.6-0.8,2.2-1.1c0.7-0.3,1.7-0.6,2.7-0.9c0.9-0.2,1.4-0.8,2-1.3s1.1-1.2,1.6-2.1c0.4-0.8,0.5-1.8,1.1-2.2v-0.9v-1v-0.8"/>
	<path id="svg_13" class="st1" d="M318.5,287.3c1,0.2,1.5,0.7,2.3,1.2c0.7,0.5,1.5,0.7,1.9,1.4l0.8,0.4l0.6,0.6l0.5,0.8"/>
</g>
</svg>
