<svg width="640" height="480" xmlns="http://www.w3.org/2000/svg" xmlns:svg="http://www.w3.org/2000/svg"> <!-- Created with SVG-edit - http://svg-edit.googlecode.com/ --> <g> <title>Layer 1</title> <path d="m100,77c-1.8,0 -2.70012,0.03722 -3.32133,0.66434c-0.56944,0.57484 -1.0407,1.383 -1.512,2.169c-0.43677,0.72841 -0.86565,1.57117 -1.22133,2.27733c-0.44741,0.88829 -0.71895,1.41344 -1.29884,2.62784c-0.31721,0.66429 -0.63389,1.36221 -0.9345,2.0895c-0.30521,0.73842 -0.62328,1.48037 -1.04533,3.00533c-0.20461,0.73933 -0.33887,1.48218 -0.4425,2.2185c-0.103,0.73189 -0.16689,1.46863 -0.2175,2.2095c-0.05111,0.74816 -0.07722,1.50855 -0.17333,3.07201c-0.04978,0.80981 -0.11581,1.63612 -0.186,2.47649c-0.07113,0.85163 -0.14841,1.71091 -0.222,2.5755c-0.07375,0.86641 -0.15411,1.73118 -0.25867,3.44801c-0.05145,0.8448 -0.08474,1.68122 -0.1095,2.5095c-0.02454,0.82108 -0.03831,1.63631 -0.0465,2.4465c-0.00814,0.80615 -0.00999,1.60934 -0.01067,3.21067c-0.00034,0.80016 0,1.60133 0,2.4045c0,0.80617 0,1.61633 0,2.4315c0,0.82117 -0.00033,1.64934 0,3.33067c0.00017,0.85534 -0.00022,1.72269 0.009,2.604c0.00939,0.89737 0.02715,1.81287 0.063,2.748c0.0367,0.95756 0.07458,1.94073 0.26134,3.98133c0.09759,1.06622 0.23232,2.16127 0.3945,3.285c0.16689,1.15637 0.36672,2.34181 0.60149,3.55499c0.24131,1.24696 0.49936,2.52747 1.17067,5.16c0.34865,1.36722 0.74603,2.7475 1.1625,4.1355c0.41688,1.38937 0.85291,2.76212 1.2975,4.10851c0.43388,1.31392 0.86036,2.58199 1.70667,4.92267c0.38445,1.06331 0.7586,2.05092 1.119,2.9715c0.33851,0.86467 0.66915,1.67581 0.993,2.44049c0.30899,0.72961 0.61208,1.42834 1.22134,2.75467c0.29697,0.64648 0.59813,1.28157 0.9045,1.905c0.303,0.61658 0.61189,1.22238 0.9315,1.815c0.31678,0.58739 0.63243,1.17046 1.33067,2.28c0.34653,0.55066 0.71539,1.08498 1.0905,1.614c0.37557,0.52968 0.76287,1.05327 1.1535,1.578c0.39302,0.52794 0.79626,1.05457 1.58933,2.14134c0.40386,0.55342 0.8066,1.125 1.227,1.7085c0.43556,0.60454 0.89352,1.23241 1.389,1.8795c0.5223,0.68211 1.07652,1.40468 2.384,2.912c0.71776,0.82745 1.50064,1.67107 2.325,2.5305c0.84222,0.87807 1.7101,1.74715 2.595,2.59349c0.87192,0.83392 1.71903,1.6503 3.41334,3.04266c0.76826,0.63135 1.51723,1.17914 2.2335,1.6665c0.67228,0.45744 1.3256,0.86014 1.9545,1.22549c0.6003,0.34874 1.1898,0.66205 2.312,1.27467c0.54571,0.2979 1.07828,0.59669 1.60049,0.88651c0.50845,0.28218 1.00163,0.55489 1.4835,0.8055c0.46191,0.24023 0.89919,0.48036 1.74934,0.808c0.38539,0.14853 0.75938,0.25253 1.1145,0.32851c0.33453,0.07156 0.65582,0.11452 0.96149,0.1395c0.29079,0.02376 0.56932,0.03 1.09067,0.032c0.24518,0.00095 0.48134,0 0.7095,0c0.22118,0 0.43634,0 0.6465,0c0.20616,0 0.40933,0.00084 0.81067,0c0.20084,-0.00043 0.87651,0.01765 1.68584,-0.28583c1.19046,-0.44641 1.62585,-0.8136 2.1355,-1.13817c1.12697,-0.71771 1.70206,-1.13492 2.28799,-1.55734c0.5871,-0.42326 1.16924,-0.83792 2.224,-1.68533c0.93599,-0.752 1.35674,-1.10977 2.0625,-1.85416c0.33691,-0.35536 0.96825,-1.1019 1.68283,-2.444c0.25751,-0.48363 0.48196,-1.01041 0.92134,-2.13934c0.23239,-0.59712 0.45335,-1.22342 0.68401,-1.8705c0.48412,-1.35814 0.737,-2.06789 0.99866,-2.79199c0.26532,-0.73424 0.53748,-1.47141 1.056,-2.94667c0.2542,-0.72322 0.50597,-1.42892 0.92801,-2.78667c0.19702,-0.63383 0.3726,-1.24443 0.672,-2.41333c0.14467,-0.56479 0.27303,-1.12738 0.54399,-2.25334c0.28093,-1.1674 0.43221,-1.77779 0.77451,-3.03867c0.17545,-0.64626 0.36127,-1.29536 0.5535,-1.944c0.19145,-0.64603 0.37529,-1.28778 0.98917,-3.10783c0.19398,-0.57516 0.39915,-1.13177 0.77934,-2.222c0.18654,-0.5349 0.55667,-1.5975 0.85416,-2.6875c0.30302,-1.11031 0.41315,-1.68073 0.53067,-2.248c0.23256,-1.12253 0.32341,-1.67708 0.636,-3.252c0.09749,-0.49117 0.29958,-1.42809 0.5,-2.33333c0.09979,-0.45071 0.31192,-1.36563 0.59984,-2.84334c0.1031,-0.52919 0.20662,-1.07832 0.37933,-2.23999c0.09058,-0.60918 0.19472,-1.2373 0.35416,-3.25c0.05611,-0.70822 0.08487,-1.43188 0.10951,-2.16301c0.0247,-0.73289 0.03825,-1.46196 0.04649,-2.181c0.00806,-0.70299 0.0112,-2.65599 0.0105,-3.23717c-0.00066,-0.54816 -0.00198,-1.57376 -0.03583,-2.55083c-0.01691,-0.48834 -0.1255,-2.0352 -0.18567,-2.59917c-0.12891,-1.20824 -0.22127,-1.84406 -0.32001,-2.498c-0.10117,-0.67009 -0.21126,-1.35264 -0.345,-2.0415c-0.40788,-2.10085 -0.59448,-2.79237 -0.76149,-3.48251c-0.16501,-0.68186 -0.33426,-1.35021 -0.49051,-2.0055c-0.29819,-1.25053 -0.53656,-2.40662 -0.61867,-2.944c-0.15335,-1.00368 -0.23943,-1.96436 -0.29332,-2.43999c-0.11069,-0.97678 -0.26555,-2.02766 -0.52135,-3.18134c-0.13763,-0.62077 -0.30634,-1.26251 -0.49049,-1.926c-0.19038,-0.68591 -0.39719,-1.38937 -0.6255,-2.106c-0.71298,-2.23787 -0.99295,-2.98994 -1.26016,-3.74534c-0.2648,-0.7486 -0.53033,-1.48224 -0.7905,-2.196c-0.25085,-0.68823 -0.49516,-1.34285 -0.92801,-2.536c-0.36533,-1.00703 -0.53134,-1.44791 -0.91199,-2.616c-0.22603,-0.69364 -0.52185,-1.73836 -0.72134,-2.4655c-0.2005,-0.73086 -0.35733,-1.45628 -0.80017,-2.70917c-0.28349,-0.80206 -0.65485,-1.54906 -1.0665,-2.376c-0.31567,-0.63416 -0.64326,-1.31487 -1.18066,-2.30416c-0.47256,-0.86993 -1.00377,-1.42389 -1.48599,-2.3625c-0.36835,-0.71699 -0.7193,-1.49928 -1.35201,-2.17467c-0.6317,-0.67432 -1.19743,-1.22594 -1.86934,-1.79466c-0.69664,-0.58965 -1.31319,-1.05199 -2.02866,-1.55151c-0.77867,-0.54363 -1.18839,-0.8282 -2.53867,-1.558c-0.46158,-0.24947 -1.44525,-0.70815 -1.96133,-0.942c-0.53456,-0.24222 -1.67673,-0.74254 -2.91667,-1.3125c-0.66565,-0.30598 -1.35294,-0.63416 -2.0625,-0.9675c-0.72377,-0.34001 -1.45645,-0.68251 -2.19749,-1.0125c-0.73732,-0.32833 -1.46269,-0.66175 -2.90667,-1.18667c-0.68472,-0.24891 -1.3503,-0.46448 -2.608,-0.78133c-0.57706,-0.14538 -1.12083,-0.26885 -2.096,-0.42933c-1.39861,-0.23016 -2.17596,-0.284 -3.12933,-0.28934c-0.89999,-0.00504 -1.8045,0 -2.66666,0c-0.875,0 -1.52,0 -2.52,0c-0.855,0 -1.80001,-0.00593 -2.83483,0.00034c-0.7357,0.00446 -1.50333,0.00665 -2.283,0.114c-1.20404,0.16578 -2.00071,0.44112 -2.7955,0.747c-0.80553,0.31002 -1.59437,0.67063 -2.4,0.972c-0.79074,0.2958 -1.57365,0.51312 -2.6285,0.86217c-0.87643,0.29 -1.62109,0.8175 -2.53816,1.13783c-0.80231,0.28024 -1.81184,0.388 -2.42267,0.74133l-0.81067,0.4l-0.8955,0.3825" id="svg_15" stroke-linecap="null" stroke-linejoin="null" stroke-dasharray="null" stroke-width="5" stroke="#000000" fill="none"/> <path d="m111,151c1.02084,-0.97917 1.97867,-1 2.75267,-1c0.89999,0 1.76333,0 2.74733,0c0.98534,0 1.71075,-0.0127 2.7,0.00017c0.8002,0.01041 1.81385,0.12842 2.60001,0.43584c0.61219,0.2394 1.58215,0.8046 2.39999,1.12799c0.78498,0.31041 1.77943,0.40619 2.63334,0.436c0.79234,0.02766 1.63688,0.31865 2.514,0.64734c0.88303,0.3309 1.75267,0.35266 2.65266,0.35266c0.8,0 1.7,0 2.60001,0c0.89999,0 1.79999,0.00067 2.7,0c0.89999,-0.00067 1.82404,-0.19307 2.39999,-0.7045c0.73227,-0.65021 1.47218,-1.00648 2.3,-1.46217c0.73425,-0.40419 0.98958,-1.33315 1,-2.23332c0.01041,-0.89995 0,-1.8 0,-2.70001c0,-0.89999 -0.20856,-1.64337 -1,-2.06667c-0.74878,-0.40047 -1.53207,-0.76805 -2.3,-1.18599c-0.84096,-0.45769 -1.55423,-0.657 -2.3,-1.25801c-0.76248,-0.61449 -1.56223,-0.96002 -2.23332,-1.556c-0.60629,-0.53842 -0.95226,-1.27528 -1.45201,-2.032c-0.40215,-0.60892 -1.41464,-0.79907 -2.31467,-0.80133c-0.89999,-0.00224 -1.80814,-0.11647 -2.7,0.0045c-0.8215,0.11142 -1.43535,0.71822 -2.35266,0.94283c-0.84901,0.20789 -1.62546,0.66988 -2.54733,0.96735c-0.86053,0.27766 -1.69415,0.14658 -2.45267,0.43799c-0.87437,0.33592 -1.86493,0.56874 -2.64734,1c-0.74365,0.4099 -1.51044,0.54642 -2.336,0.68333c-0.87288,0.14478 -1.55495,0.61244 -2.564,0.84267c-0.78888,0.17999 -1.80875,0.26271 -2.58933,0.54668c-0.73432,0.26714 -1.76401,0.59999 -2.20617,1.27916l-0.0045,0.81633l0,0.96317l0,0.86334" id="svg_16" stroke-linecap="null" stroke-linejoin="null" stroke-dasharray="null" stroke-width="5" stroke="#000000" fill="none"/> <path d="m100,103c0.16666,-1.83334 0.77368,-2.27007 1.22134,-3.1c0.34933,-0.64764 0.71603,-1.65269 1.48316,-1.8955c0.82034,-0.25965 1.34411,-0.83623 2.09683,-1.00317c0.93491,-0.20734 1.83978,-0.38288 2.54601,-0.64867c0.88256,-0.33215 1.85266,-0.35267 2.75266,-0.35267c0.9,0 1.65717,0 2.55717,0c0.74734,0 1.7415,0 2.68567,0l0.9,0l0.9585,0" id="svg_17" stroke-linecap="null" stroke-linejoin="null" stroke-dasharray="null" stroke-width="5" stroke="#000000" fill="none"/> <path d="m132,101c1.8,0 2.7,0 3.60001,0c0.89999,0 1.79999,0 2.7,0c0.89999,0 1.74251,-0.18574 2.5,0.08533c0.90111,0.32246 1.27489,1.31561 2.2,1.748c0.74007,0.3459 1.64284,0.22383 2.16667,1l0.71199,0.388l0.474,0.726l0.61134,0.48866" id="svg_18" stroke-linecap="null" stroke-linejoin="null" stroke-dasharray="null" stroke-width="5" stroke="#000000" fill="none"/> <path d="m86,95c0,-2.62534 -0.06754,-3.49638 0.072,-4.24667c0.17487,-0.94028 0.6604,-1.76028 1.01134,-2.52417c0.2156,-0.4693 0.45065,-1.01556 0.68999,-1.6545c0.58627,-1.56508 0.87506,-2.52883 1.192,-3.58267c0.33746,-1.12208 0.66866,-2.29472 0.993,-3.492c0.32365,-1.19475 0.62994,-2.36604 0.903,-3.492c0.48616,-2.00462 0.6584,-2.84772 0.79733,-3.57467c0.11752,-0.61493 0.20114,-1.12613 0.258,-1.5375c0.04359,-0.31544 -0.06328,-0.68826 0.078,-0.6825c0.64881,0.02644 0.00548,1.29733 0.00533,2.08134c-0.00025,1.32733 0.01733,1.79551 -0.032,2.77333c-0.05308,1.05207 -0.12513,1.61028 -0.224,2.18933c-0.21314,1.24833 -0.59368,2.60152 -0.8245,3.31417c-0.23954,0.73957 -0.5155,1.49423 -0.8235,2.2605c-0.3155,0.7849 -0.64725,1.58334 -1.42934,3.168c-0.39751,0.80544 -0.82968,1.59878 -1.272,2.3865c-0.44039,0.78429 -0.89214,1.55251 -1.344,2.3055c-0.44286,0.73798 -0.88293,1.45183 -1.71733,2.808c-0.39013,0.63409 -0.75684,1.23532 -1.11,1.7925c-0.32708,0.51602 -0.62569,0.98886 -0.93,1.3875c-0.49724,0.65136 -1.60226,1.01591 -1.92717,0.12683c-0.34109,-0.93335 -0.29969,-1.68179 -0.34533,-2.68183c-0.03325,-0.7285 0.00401,-0.32204 -0.021,0.73217c-0.01798,0.75813 0.22915,2.2878 -0.71584,2.48817c-0.3543,0.07512 -0.29283,-1.41683 -0.24133,-2.17067c0.03191,-0.46701 0.1753,-1.61881 0.29867,-2.31734c0.29943,-1.69544 0.53944,-2.69256 0.79467,-3.77733c0.26986,-1.14698 0.56354,-2.32712 0.864,-3.5175c0.2969,-1.17628 0.59051,-2.31136 0.864,-3.3825c0.47137,-1.84615 0.65037,-2.57616 0.792,-3.164c0.10686,-0.44353 0.09444,-0.79874 0.219,-0.891c0.00831,-0.00615 -0.00967,0.15233 -0.20834,1.54166c-0.11079,0.77482 -0.23544,1.68008 -0.3765,2.68501c-0.1509,1.07508 -0.30856,2.19035 -0.4755,3.31499c-0.16409,1.10536 -0.30961,2.16399 -0.648,4c-0.13477,0.73119 -0.26954,1.31596 -0.369,1.7565c-0.0658,0.29147 -0.0802,0.43546 0.17166,-0.0925c0.55081,-1.15461 0.91998,-1.99522 1.39067,-2.96133c0.52394,-1.0754 1.09609,-2.22331 1.7025,-3.411c0.61356,-1.20169 1.22389,-2.38336 1.8375,-3.501c1.08055,-1.96814 1.56,-2.74587 2.00266,-3.39734c0.39261,-0.5778 0.79156,-1.08604 1.2015,-1.56c0.42064,-0.48632 0.90127,-0.98668 1.42651,-1.56c1.31171,-1.43177 2.10432,-2.36119 3.00533,-3.40134c0.98255,-1.13428 2.0278,-2.33925 3.1515,-3.5595c1.14684,-1.24538 2.31133,-2.48548 3.5565,-3.6045c2.35631,-2.11758 3.58944,-2.91143 4.77467,-3.57733c1.11133,-0.62438 2.21363,-1.10094 3.27299,-1.464c0.99006,-0.33931 1.93784,-0.57665 2.82301,-0.744c1.54559,-0.29221 2.21225,-0.35595 2.80267,-0.412c0.52453,-0.0498 0.99613,-0.07217 1.416,-0.0315c0.38355,0.03716 0.74509,0.11837 1.056,0.2835c0.64665,0.34346 0.92043,0.66883 1.208,0.996c0.30466,0.34663 0.58928,0.73874 0.861,1.158c0.27789,0.42878 0.53733,0.8768 0.771,1.338c0.45712,0.90224 0.63437,1.35375 0.796,1.788c0.15372,0.413 0.27998,0.80964 0.37051,1.1865c0.08347,0.34753 0.14719,0.67018 0.1455,0.96149c-0.00277,0.47779 -0.08784,0.67094 -0.20267,0.8c-0.11205,0.12594 -0.28474,0.21136 -0.4845,0.2385c-0.79234,0.10765 -1.9406,-0.11211 -2.87383,-0.25301c-0.50343,-0.07601 -1.5516,-0.25014 -2.084,-0.34733c-1.56483,-0.28565 -2.05371,-0.39127 -2.9685,-0.591c-0.82448,-0.18001 -2.87139,0.68915 -2.82784,-0.61916c0.01748,-0.52505 1.09999,-0.0822 1.92,-0.084c2.48,-0.00546 4.18533,-0.00134 6.16267,-0.00134c2.19134,0 4.53867,0 6.984,0c2.48534,0 4.95267,0 7.344,0c4.32266,0 6.1505,0 7.74533,0c1.37883,0 2.55867,0 3.5565,0c0.83284,0 1.51767,0 2.0715,0c0.78267,0 1.04269,-0.0021 1.22267,0.00134c0.10002,0.00191 0.12027,0.01113 0.06,0.0195c-0.13948,0.01936 -0.36005,0.0359 -0.66,0.0645c-0.84012,0.08011 -1.38103,0.13745 -2.00934,0.19866c-0.722,0.07034 -1.54501,0.14542 -2.4765,0.216c-1.04582,0.07925 -2.21388,0.15636 -3.51149,0.216c-3.00845,0.13828 -4.72807,0.16705 -6.56,0.19866c-1.90776,0.03291 -3.85466,0.05173 -5.8035,0.0645c-1.91382,0.01254 -3.75567,0.01753 -5.4885,0.0195c-2.99067,0.0034 -4.19,0.00134 -5.22533,0.00134c-0.92733,0 -1.80267,0 -2.682,0c-0.93933,0 -1.99467,0 -3.222,0c-3.19466,0 -5.25367,0 -7.58667,0c-2.541,0 -5.224,0 -7.98299,0c-2.769,0 -5.482,0 -8.07301,0c-4.55199,0 -6.39683,0 -7.95066,0c-1.29184,0 -2.35067,0 -3.20551,0c-0.67983,0 -1.21366,0 -1.6305,0c-0.59866,0 -0.82962,0.0043 -1.00533,-0.00267c-0.09597,-0.00381 -0.08706,-0.02161 0.05251,-0.03899c0.29346,-0.03655 0.76821,-0.07419 1.44749,-0.12901c2.07297,-0.16729 3.50489,-0.27338 5.16667,-0.396c1.84155,-0.13589 3.8131,-0.27678 5.865,-0.4125c2.08144,-0.13767 4.14272,-0.27016 6.135,-0.3675c3.57236,-0.17454 5.06747,-0.20847 6.36533,-0.18934c1.1264,0.0166 2.10895,0.07594 2.958,0.2235c0.75951,0.132 1.44987,0.32951 2.058,0.6285c1.2333,0.60638 1.80917,1.10169 2.42267,1.59067c0.63667,0.50744 1.26065,1.06021 1.8735,1.63499c0.60986,0.57198 1.19227,1.15032 1.7385,1.72501c1.00291,1.05515 1.42044,1.54368 1.796,1.99066c0.34143,0.40636 0.64119,0.78511 0.903,1.1385c0.23922,0.3229 0.44926,0.62644 0.633,0.9135c0.3325,0.51948 0.46735,0.77115 0.61333,1.00134c0.14022,0.22111 0.28577,0.43108 0.46201,0.606c0.17632,0.175 0.38739,0.33221 0.642,0.426c0.58932,0.21708 0.98245,0.20687 1.40266,0.196c0.46304,-0.01198 0.96524,-0.07589 1.497,-0.1845c0.56744,-0.1159 1.16191,-0.27567 1.767,-0.4995c1.29163,-0.47778 1.93436,-0.83135 2.59334,-1.19334c0.67694,-0.37184 1.3522,-0.7815 2.0355,-1.203c0.69139,-0.42648 1.37997,-0.86804 2.0805,-1.293c1.39142,-0.84406 2.09465,-1.2287 2.79467,-1.592c0.68711,-0.35661 1.36945,-0.68555 2.0415,-0.99c0.65207,-0.2954 1.28827,-0.56683 1.90649,-0.81001c1.15106,-0.45276 1.68982,-0.63425 2.19734,-0.80133c0.47691,-0.15701 0.92824,-0.29327 1.35449,-0.4095c0.39919,-0.10886 0.77518,-0.20179 1.1295,-0.2745c0.63939,-0.13121 0.93211,-0.17799 1.21468,-0.19067c0.28137,-0.01263 0.57819,0.01704 0.88499,0.111c0.3483,0.10667 0.73381,0.2934 1.155,0.561c1.08203,0.68745 1.69615,1.21703 2.39334,1.79333c0.75832,0.62684 1.54501,1.31309 2.34749,2.0415c0.81766,0.74219 1.62531,1.49726 2.3925,2.2665c1.43958,1.44341 2.04393,2.1361 2.588,2.784c0.50137,0.59706 0.94084,1.16576 1.332,1.6995c0.36049,0.49191 0.677,0.95702 0.972,1.38451c0.52621,0.76256 0.77077,1.099 1.00934,1.408c0.22591,0.29259 0.44963,0.56643 0.66451,0.8325c0.21045,0.2606 0.42119,0.51802 0.61949,0.78751c0.41156,0.55928 0.60477,0.87425 0.80133,1.20399c0.2036,0.34155 0.40207,0.70023 0.60001,1.071c0.2021,0.37856 0.401,0.76682 0.60001,1.161c0.40202,0.79631 0.59932,1.1991 0.80666,1.60533c0.21426,0.4198 0.44356,0.85771 0.69751,1.317c0.27251,0.49285 0.57603,1.02141 0.9225,1.587c0.79384,1.29594 1.27748,2.01778 1.79466,2.792c0.54369,0.81389 1.1143,1.64917 1.69949,2.496c0.58681,0.84917 1.17131,1.6852 1.74451,2.496c1.06483,1.50623 1.54778,2.17535 1.992,2.79066c0.40884,0.56631 0.78781,1.0868 1.13849,1.5675c0.32533,0.44596 0.62987,0.86104 0.9135,1.2525c0.52563,0.72549 0.77109,1.07028 1.00267,1.408c0.22401,0.32668 0.43513,0.64661 0.6255,0.9645c0.1842,0.30759 0.35486,0.61117 0.49049,0.9195c0.26051,0.5922 0.33815,0.89911 0.39867,1.2c0.05936,0.29511 0.0901,0.59049 0.09001,0.8805c-0.00009,0.28501 -0.02415,0.56706 -0.09001,0.8355c-0.12932,0.52715 -0.26091,0.76878 -0.39867,0.99866c-0.13809,0.23046 -0.30409,0.44595 -0.49049,0.645c-0.18842,0.20122 -0.39696,0.38885 -0.6255,0.555c-0.46571,0.33857 -0.73073,0.4713 -1,0.6c-0.27515,0.13151 -0.56715,0.24657 -0.8745,0.345c-0.31804,0.10185 -0.65446,0.18937 -1.00951,0.255c-0.75789,0.1401 -1.1701,0.17824 -1.59599,0.18667c-0.4373,0.00865 -0.88948,-0.02577 -1.332,-0.15c-0.45816,-0.12862 -0.92883,-0.33963 -1.332,-0.69c-0.92281,-0.80196 -1.24739,-1.48531 -1.59866,-2.2c-0.38419,-0.78168 -0.71921,-1.6627 -1.04851,-2.61c-0.34737,-0.99929 -0.67108,-2.05602 -1.00349,-3.15c-0.68834,-2.26535 -1.0376,-3.42068 -1.39734,-4.57733c-0.3586,-1.15301 -0.71678,-2.29362 -1.0575,-3.4185c-0.33252,-1.09782 -0.65218,-2.16193 -0.9225,-3.1935c-0.49898,-1.90413 -0.66618,-2.77961 -0.79866,-3.59867c-0.1241,-0.76723 -0.20638,-1.49526 -0.25801,-2.187c-0.0493,-0.66042 -0.07028,-1.29791 -0.07799,-1.917c-0.01503,-1.20792 -0.00534,-1.80817 -0.00534,-2.40933c0,-0.60316 0,-1.20934 0,-1.8195c0,-0.61517 0,-1.23633 0,-1.86449c0,-1.28133 0.00084,-1.93533 -0.00133,-2.59334c-0.00217,-0.65601 -0.00659,-1.30405 -0.0195,-1.938c-0.01251,-0.61407 -0.02766,-1.20251 -0.0645,-1.758c-0.06586,-0.99314 -0.09354,-1.42706 -0.27184,-2.135c-0.20518,-0.81471 -0.85307,-2.31058 -1.29868,-1.90316c-0.48943,0.44749 0.5161,1.31504 0.765,1.731c1.00566,1.68063 1.53612,2.33675 2.09218,3.0805c0.60611,0.81068 1.27748,1.66817 2.00699,2.568c0.76891,0.94843 1.58661,1.92896 2.457,2.928c1.81796,2.08667 2.79385,3.12955 3.78134,4.18134c0.98918,1.05357 1.98427,2.08767 2.97,3.099c0.961,0.98595 1.89545,1.93055 2.78999,2.829c1.62445,1.63154 2.34334,2.344 2.99066,2.99599c0.58556,0.58978 1.11147,1.12337 1.5735,1.6125c0.41364,0.4379 0.78006,0.8326 1.07851,1.2075c0.50307,0.63194 0.67691,0.93139 0.808,1.21333c0.12122,0.2607 0.20052,0.52456 0.23849,0.78751c0.03816,0.26431 0.03827,0.5423 0.0135,0.8325c-0.05536,0.64876 -0.12753,1.0118 -0.19733,1.40266c-0.07431,0.41621 -0.16408,0.85326 -0.27451,1.3065c-0.11472,0.47086 -0.24121,0.95598 -0.4095,1.4415c-0.52437,1.51281 -0.78972,1.99915 -1.04233,2.4915c-0.50949,0.99303 -0.7939,1.47664 -1.38834,2.41917c-0.58455,0.92686 -1.19028,1.79881 -1.49283,2.21017c-0.57295,0.77901 -1.06711,1.53452 -1.93784,2.2085c-0.66542,0.51508 -1.42732,0.6478 -2.5,0.66666c-0.97636,0.01717 -1.68867,-0.00212 -2.4185,-0.05717c-1.08395,-0.08176 -2.11168,-0.27626 -2.74817,-0.547c-0.67258,-0.28609 -1.69456,-1.03445 -2.38133,-1.74517c-0.37831,-0.39151 -0.76805,-0.82986 -1.42134,-1.90933c-0.35568,-0.58772 -0.70343,-1.23733 -1.19733,-2.74133c-0.26886,-0.81874 -0.45761,-1.70921 -0.62399,-2.643c-0.1729,-0.97035 -0.30267,-1.98094 -0.408,-3.021c-0.10756,-1.06201 -0.19496,-2.14314 -0.30133,-4.336c-0.05334,-1.0998 -0.08487,-2.20125 -0.10951,-3.3045c-0.0247,-1.10609 -0.03835,-2.21632 -0.04649,-3.3315c-0.00819,-1.12115 -0.00999,-2.24933 -0.01067,-4.53066c-0.00034,-1.153 0,-2.304 0,-3.441c0,-1.111 0,-2.184 0,-3.207c0,-0.961 0.00043,-1.848 0,-3.352c-0.00017,-0.59734 0.00151,-1.09875 -0.009,-1.51801c-0.00882,-0.35144 -0.02451,-0.64977 -0.063,-0.906c-0.03494,-0.23256 -0.08672,-0.45508 -0.26132,-0.90933c-0.10242,-0.26643 -0.23256,-0.5503 -0.37201,-0.849c-0.14317,-0.30668 -0.24817,-0.63592 -0.58932,-1.17867c-0.49471,-0.78704 -0.30161,0.0527 -0.10533,0.529c0.5515,1.33836 0.94724,2.19876 1.39066,3.17733c0.48434,1.06887 1.00584,2.19835 1.55101,3.363c0.55081,1.1767 1.09937,2.33757 1.64099,3.453c0.97571,2.00939 1.40309,2.85049 1.79201,3.57733c0.33803,0.63174 0.6447,1.17135 0.942,1.6155c0.25642,0.38309 0.49931,0.70641 0.76199,0.9405c0.45811,0.40825 0.73795,0.52026 1.00667,0.62c0.54198,0.20116 1.45743,0.32303 2.31467,0.752c0.94231,0.47153 1.46825,1.01013 1.98567,1.49917c0.88855,0.8398 1.64064,1.3674 1.929,2.20083c0.29565,0.8545 0.08533,1.68533 0.08533,2.636c0,0.76534 0,1.773 0,2.67834c0,0.819 0.00989,1.79662 -0.04167,2.5065c-0.05321,0.73267 -0.24304,1.83195 -0.66367,2.813c-0.26471,0.61739 -0.69647,1.40928 -1.18483,2.34734c-0.38005,0.73 -0.96083,0.39566 -1.42317,-0.2065c-0.7261,-0.94566 -1.11995,-1.62891 -1.59332,-2.39333c-0.52385,-0.84595 -1.07147,-1.76789 -1.63501,-2.748c-0.58331,-1.01449 -1.16631,-2.0535 -1.72499,-3.108c-1.08549,-2.04881 -1.55336,-3.03601 -1.992,-3.98c-0.41844,-0.90051 -0.79945,-1.76842 -1.158,-2.59949c-0.3427,-0.7943 -0.66068,-1.55836 -0.978,-2.2845c-0.59659,-1.36519 -0.90024,-1.99896 -1.20399,-2.60267c-0.29211,-0.58057 -0.58716,-1.13129 -0.88051,-1.6545c-0.28148,-0.50206 -0.56091,-0.97799 -0.83549,-1.4295c-0.51355,-0.84446 -0.76245,-1.23267 -1.00133,-1.604c-0.22984,-0.3573 -0.44826,-0.70601 -0.90933,-1.34933c-0.44865,-0.62598 -1.45731,-1.82257 -1.72734,-2.12134c-0.54457,-0.60251 -1.11694,-1.18102 -1.88066,-2.1c-0.74055,-0.89112 -1.18761,-1.54159 -1.42801,-1.872c-0.50822,-0.6985 -1.37929,-1.87267 -1.70934,-2.29733c-0.69632,-0.89591 -1.06812,-1.35387 -1.45065,-1.816c-0.77551,-0.93685 -1.57323,-1.85297 -1.97934,-2.29317c-0.80663,-0.87433 -1.23312,-1.29514 -1.68266,-1.70066c-0.92744,-0.83662 -1.4399,-1.24557 -2.58334,-2.02084c-0.61031,-0.4138 -1.27214,-0.80663 -1.97099,-1.191c-0.72243,-0.39734 -1.4827,-0.77742 -2.27701,-1.137c-0.81303,-0.36805 -1.64926,-0.73566 -3.41866,-1.33867c-0.90318,-0.3078 -1.82981,-0.56953 -2.763,-0.8145c-0.93089,-0.24437 -1.86089,-0.4614 -2.781,-0.6615c-0.90193,-0.19614 -1.78284,-0.3754 -3.456,-0.69067c-0.78197,-0.14734 -1.53857,-0.28564 -2.2875,-0.3915c-0.7512,-0.10619 -1.52424,-0.1856 -2.3325,-0.2205c-0.85698,-0.037 -1.78289,-0.05384 -3.88,0.112c-1.20364,0.09518 -2.49322,0.26451 -3.85049,0.4575c-1.40683,0.20004 -2.83808,0.43209 -4.27351,0.6825c-1.42159,0.24799 -2.8074,0.49657 -5.376,1.02666c-1.1524,0.23783 -2.20872,0.47423 -3.1725,0.714c-0.88278,0.21962 -1.68544,0.44085 -2.40749,0.678c-0.65946,0.21659 -1.26987,0.413 -2.25333,0.94133c-0.43689,0.23471 -0.81353,0.50589 -1.14301,0.7815c-0.3076,0.25731 -0.57088,0.52607 -0.80099,0.7905c-0.21495,0.247 -0.39515,0.49364 -0.72267,0.928c-0.1447,0.19189 -0.28497,0.36963 -0.423,0.5415c-0.13931,0.17346 -0.2869,0.3531 -0.441,0.5505c-0.36103,0.46247 -1.07069,1.44592 -1.35467,1.86667c-0.63305,0.93796 -0.95629,1.45306 -1.272,1.992c-0.64099,1.09423 -1.19058,2.20993 -1.41167,2.7615c-0.42571,1.06207 -0.57415,1.60448 -0.72267,2.14201c-0.29982,1.0851 -0.41268,1.65109 -0.86317,3.42233c-0.16017,0.62978 -0.33489,1.27587 -0.5145,1.9395c-0.18405,0.68005 -0.37492,1.3746 -0.5685,2.0835c-0.19709,0.72177 -0.59773,2.19991 -0.79517,2.95451c-0.39582,1.51283 -0.58148,2.26139 -0.75867,2.99599c-0.17208,0.71342 -0.33623,1.40012 -0.471,2.05801c-0.3509,1.71291 -0.42213,2.19366 -0.49866,3.02399c-0.08871,0.96248 -0.072,2.03333 -0.072,2.80667c0,0.96533 0,1.73633 0,2.59733c0,0.89717 0,1.78667 0,2.64017c0,1.0355 0,1.9155 0,2.93517c0,0.36734 -0.05045,-0.49919 0.02133,-1.42733c0.05471,-0.7075 0.3109,-1.88423 0.42133,-2.42167c0.12409,-0.60393 0.40899,-1.95279 0.55733,-2.67066c0.15033,-0.72746 0.29954,-1.4504 0.432,-2.15701c0.24364,-1.29968 0.38461,-2.39487 0.53867,-3.30666c0.1361,-0.80551 0.32508,-1.57705 0.696,-2.328c0.42545,-0.86135 0.74549,-1.28503 1.39584,-2.1875c0.33799,-0.46902 1.05829,-1.39589 1.77084,-2.3125c0.34505,-0.44386 0.98451,-1.29178 1.58333,-2.02083c0.49791,-0.6062 1.40785,-1.23494 1.5,-0.70834c0.14601,0.83442 -0.00124,1.45074 -0.08333,3.0625c-0.05199,1.02083 -0.11734,2.1655 -0.195,3.408c-0.08218,1.31484 -0.17479,2.67574 -0.285,4.056c-0.1098,1.3751 -0.20543,2.72147 -0.52,5.20267c-0.13923,1.09821 -0.30669,2.0911 -0.4815,2.9865c-0.1581,0.80985 -0.32646,1.53546 -0.4905,2.1855c-0.14743,0.58421 -0.30388,1.10226 -0.528,1.99467c-0.09541,0.37993 -0.16821,0.72841 -0.219,1.0515c-0.04754,0.3024 -0.07671,0.59407 -0.093,0.8805c-0.01639,0.28796 -0.02133,1.23466 -0.02133,1.98133c0,0.78667 1.16729,2.6423 -0.00017,2.70233c-0.5542,0.0285 -0.21583,-1.81428 -0.357,-2.616c-0.07587,-0.43087 -0.24884,-1.32998 -0.44416,-2.25166c-0.19405,-0.91566 -0.38331,-1.79461 -0.59867,-2.60267c-0.28011,-1.051 -0.59083,-2.1848 -1.3,-2.46067c-0.88148,-0.3429 -1.33112,-0.72302 -1.3,-1.618c0.0336,-0.9661 0.72832,-1.48696 1.51733,-1.31333c0.97786,0.21519 1.57215,0.85561 2.64933,1.57999c0.47994,0.32275 1.02089,0.67003 1.60201,1.044c0.6082,0.3914 1.2325,0.78751 2.46266,1.57867c0.58122,0.3738 1.60531,1.03917 2.37267,1.56799c0.77437,0.53365 1.56267,0.97601 2.396,1.12183l0.97833,0.02067l0.855,-0.1665l0.16666,-0.83334" id="svg_19" stroke-linecap="null" stroke-linejoin="null" stroke-dasharray="null" stroke-width="5" stroke="#000000" fill="none"/> <path d="m84,114c-1.7,0 -2.60545,-0.08253 -3.54166,0.02084c-1.01491,0.11205 -1.72522,0.39933 -2.51017,0.68366c-1.03423,0.37463 -1.68459,0.72758 -2.4615,1.01017c-0.92768,0.33742 -1.48133,0.89595 -1.48666,1.80617c-0.00469,0.80081 -0.00262,1.72583 0,2.64583c0.00225,0.79051 -0.0154,1.65078 0.16666,2.83334c0.09267,0.60191 0.30476,1.47815 0.63467,2.22933c0.4353,0.99116 0.93864,1.49368 1.49867,2.42783c0.32372,0.53996 0.82334,1.53165 1.17916,2.32201c0.37959,0.84317 0.51223,1.69151 1.09017,2.50616c0.40528,0.57127 0.99142,1.08528 1.54533,1.91466c0.51664,0.77356 0.8716,1.60712 1.28533,2.38934c0.38727,0.73221 0.92239,1.6877 1.7,2.08932c0.83958,0.43364 1.5,0.696 2.4,1.10051l0.9,0.02083l0.9,0l0.89867,0.00133" id="svg_20" stroke-linecap="null" stroke-linejoin="null" stroke-dasharray="null" stroke-width="5" stroke="#000000" fill="none"/> <path d="m159,118c1.8,0 2.70001,-0.00584 3.60001,0c0.82138,0.00533 1.73949,0.14613 2.40533,0.35717c0.99951,0.3168 1.88731,0.69478 2.47383,1.16367c0.73677,0.589 1.34616,1.3045 1.86816,1.8265c0.76733,0.76733 1.3958,1.30435 1.94817,1.95267c0.64206,0.75359 0.70383,1.58533 0.7045,2.52533c0.00049,0.69067 0,1.764 0,2.67467c0,0.89999 0,1.8045 0,2.66667c0,0.83333 0,1.81183 0,2.63199c0,0.83734 0.00365,1.85402 0,2.54868c-0.00534,1.01671 -0.25908,1.87628 -0.80133,2.45267c-0.66766,0.70967 -1.53964,1.0885 -2.17334,1.62534c-0.59349,0.50278 -1.42532,0.57466 -2.32533,0.57466l-0.89999,0l-0.90001,0" id="svg_21" stroke-linecap="null" stroke-linejoin="null" stroke-dasharray="null" stroke-width="5" stroke="#000000" fill="none"/> <polyline id="svg_22" points="111,104 109.164,104 108.39866666666667,104 " stroke-linecap="round" stroke-linejoin="null" stroke-dasharray="null" stroke-width="5" stroke="#000000" fill="none"/> </g> </svg>