<svg width="640" height="480" xmlns="http://www.w3.org/2000/svg" xmlns:svg="http://www.w3.org/2000/svg"> <!-- Created with SVG-edit - http://svg-edit.googlecode.com/ --> <g> <title>Layer 1</title> <path d="m282.07407,269.03705c-0.90179,-3.7926 -1.36676,-4.43466 -1.92999,-5.05679c-0.29089,-0.32132 -1.23703,-1.25778 -1.85837,-1.8963c-0.60907,-0.62589 -1.20157,-1.23141 -1.63083,-1.8963c-0.58597,-0.90765 -0.75552,-1.91788 -1.09564,-2.41461c-0.68347,-0.99823 -1.60101,-1.11792 -2.49469,-1.33163c-0.4718,-0.11282 -1.53934,-0.2052 -2.57895,-1.09984c-0.3403,-0.29286 -0.73901,-1.18117 -0.98764,-2.17284c-0.12933,-0.51591 -0.26019,-1.58943 -0.59259,-2.5679c-0.30988,-0.9122 -0.81342,-1.67987 -1.05353,-2.04115c-0.45786,-0.68896 -1.24658,-1.9481 -1.39957,-2.59424c-0.22107,-0.93365 -0.17856,-1.58026 -0.18066,-2.84445c-0.00104,-0.6321 0,-1.58025 0,-2.5284c0,-0.94815 0,-1.58025 0,-2.5284c0,-0.94815 0,-1.89629 0,-2.5284c0,-1.26419 0,-1.89629 0,-2.84444c0,-0.94815 0,-1.8963 0,-2.84445c0,-0.6321 0,-1.89629 0,-2.5284c0,-0.94814 0,-1.58025 0,-2.84444c0,-0.6321 0,-1.58025 0,-2.21234c0,-1.26421 0,-1.8963 0,-2.84445c0,-0.94815 0,-1.91052 0,-2.59424c0,-0.74693 0,-2.04115 0,-3.04408c0,-0.53307 0,-1.63081 0,-2.18285c0,-1.07878 0,-2.08171 0,-2.97087c0,-0.78801 0,-1.50017 0,-2.79808c0,-0.6321 0,-1.58025 0,-2.5284c0,-0.94815 0,-1.8963 0,-2.5284c0,-1.26419 0,-1.8963 0,-2.84445c0,-0.6321 0,-1.89629 0,-2.52838c0,-0.94815 0,-1.58025 0,-2.84445c0,-0.6321 0,-1.58025 0,-2.5284c0,-0.94815 0,-1.8963 0,-2.5284c0,-1.26419 0,-1.89629 0,-2.84444c0,-0.94815 0,-1.8963 0,-2.5284c0,-0.94815 -0.12564,-1.91391 0.06741,-2.81073c0.1796,-0.8343 0.97025,-1.45352 1.72775,-1.66454c0.87894,-0.24484 1.8428,-0.3201 2.29663,-0.43193c1.19394,-0.29424 1.85226,-0.9657 2.27554,-1.64978c0.6113,-0.98796 1.35577,-1.13837 1.99954,-1.51071c0.96997,-0.561 0.95721,-1.49838 1.38007,-2.09647c0.64685,-0.91495 1.70953,-0.76559 2.36829,-1.42433c0.65872,-0.65872 0.52029,-1.68433 1.22626,-2.25026c0.74951,-0.60083 1.74475,-0.51083 2.19128,-1.28528c0.38547,-0.66853 0.2403,-1.63124 0.2739,-2.89079c0.01688,-0.63255 0.08881,-1.61702 0.52255,-2.5284c0.3143,-0.66039 0.81998,-1.2636 1.40326,-1.78252c0.57382,-0.5105 1.85977,-1.1223 2.49469,-1.29791c0.94418,-0.26117 1.91788,-0.57259 2.52838,-0.98186c0.65735,-0.44067 1.27066,-1.02148 1.8963,-1.63081c0.95819,-0.93321 1.25119,-1.26968 1.8963,-1.85837c0.6199,-0.56567 1.21185,-1.14507 2.52838,-1.66454c0.61276,-0.24178 1.31253,-0.22707 2.52841,-0.79222c0.66455,-0.30888 1.25806,-0.82584 1.89627,-1.28949c0.62619,-0.45493 1.56253,-1.03287 2.52841,-1.23048c0.62421,-0.12772 1.8963,-0.11377 2.52838,-0.11377c0.94815,0 1.8963,0 2.84445,0c0.94815,0 1.58026,0 2.84445,0c0.63208,0 1.58023,0 2.21234,0c1.26471,0 1.91052,0 2.95822,0c0.78802,0 1.67715,0 2.68433,0c0.54306,0 1.69244,0 2.29239,0c0.61261,0 2.49469,0 3.12625,0c0.62842,0 1.25052,0 2.4631,0c0.58414,0 1.69244,0 2.69958,0c0.88913,0 1.67715,0 2.38931,0c1.29791,0 1.93423,0 2.944,0c0.74695,0 2.04117,0 2.53,0c1.04715,0 1.59286,0 2.69693,0c0.54572,0 2.08173,0 2.97089,0c0.78799,0 1.50018,0 2.16177,0c1.2684,0 1.90051,-0.0002 2.84866,0c1.26367,0.00026 1.91052,-0.12584 2.73065,0.11377c0.90814,0.26532 1.29651,1.26048 1.34427,1.81624c0.10541,1.22643 0.03372,2.17863 0.03372,2.81073c0,0.94815 -0.06577,1.90059 0.03369,2.81073c0.08847,0.80972 0.65839,1.56412 1.54654,1.93001c0.67728,0.27901 1.38507,0.8853 1.5144,1.64609c0.14893,0.8761 0.02325,1.83295 0.09955,2.77861c0.05124,0.63509 0.46664,1.91254 0.86389,2.52838c0.41956,0.65044 0.95694,1.23882 1.36533,1.8963c0.56894,0.916 0.81528,1.89311 0.86386,2.5284c0.09647,1.26096 0.03372,2.21234 0.03372,2.84444c0,0.94815 0,1.8963 0,2.84445c0,0.6321 -0.01968,1.89674 0.00421,2.52419c0.03381,0.88802 0.14227,1.80278 1.11038,2.36615c0.64276,0.37404 1.65448,0.63997 1.93213,1.54443c0.1637,0.53325 0.11377,1.78252 0.11377,2.73067c0,0.6321 0,1.58025 0,2.5284c0,0.94814 0,1.58025 0,2.84444c0,0.6321 0,1.58025 0,2.21234c0,1.26421 0,1.8963 0,2.84445c0,0.6321 0,1.8963 0,2.84444c0,0.63211 -0.02567,1.89742 0.01422,2.5284c0.06015,0.95146 0.1875,1.61407 0.6853,2.52893c0.36691,0.67432 0.93063,1.30061 1.34637,2.07645c0.67136,1.25293 0.76727,1.77658 0.93393,2.83022c0.08591,0.54305 0.15417,1.64957 0.16644,2.1955c0.03455,1.53568 0.01422,1.9948 0.01422,2.83022c0,1.09511 0,1.75671 0,3.02934c0,0.66159 0,1.37375 0,2.16177c0,1.37849 0,1.89629 0,3.00458c0,0.58417 0,1.18413 0,2.41882c0,1.25999 0,1.89156 0,3.14206c0,0.61261 0,1.21259 0,2.36194c0,0.54309 0,2.00903 0,2.84445c0,0.74693 0,1.43065 0,2.70908c0,0.6321 0,1.58025 0,2.21234c0,1.26419 0,1.89629 0,2.84444c0,1.26421 0,1.8963 0,2.84445c0,0.6321 0,1.89629 0,2.5284c0,0.94815 0,1.89629 0,2.84444c0,0.6321 0.01633,1.5804 -0.00052,2.5284c-0.01688,0.94858 0.01987,1.63181 -0.52625,2.84445c-0.30093,0.6682 -0.82581,1.25807 -1.28946,1.89629c-0.45493,0.62621 -0.97076,1.57648 -1.26422,2.49469c-0.25519,0.79846 -0.74924,1.65948 -1.72614,1.86417c-0.57037,0.11951 -1.83047,0.06583 -2.46255,0.06583c-0.94815,0 -1.58026,0 -2.84445,0c-0.63211,0 -1.58023,0 -2.52838,0c-0.94815,0 -1.8963,-0.00107 -2.52841,0c-1.25998,0.00214 -1.92542,-0.1633 -2.66376,0.18069c-1.02014,0.47531 -1.05914,1.51614 -1.664,2.08224c-0.7341,0.68707 -1.70645,0.73148 -2.18707,0.78378c-1.02109,0.11115 -1.55017,0.10666 -3.07199,0.1138c-0.88916,0.00415 -1.67719,0 -2.38934,0c-1.29791,0 -1.92999,0 -2.87814,0c-0.63211,0 -1.8963,0 -2.84445,0c-0.63211,0 -1.8963,0 -2.52838,0c-0.94815,0 -1.58035,-0.01343 -2.84445,0.00052c-0.63223,0.00699 -1.59723,0.05591 -2.21234,0.26917c-0.98358,0.341 -1.57773,0.84836 -2.21234,1.31055c-0.94443,0.68784 -1.88226,1.24658 -2.52841,1.39957c-0.93365,0.22107 -1.58023,0.17856 -2.84445,0.18069c-0.63208,0.00107 -1.58026,-0.00711 -2.52838,0c-0.94824,0.00711 -1.60742,-0.03421 -2.52841,0.26968c-0.98859,0.3262 -1.58023,0.84491 -2.21234,1.31055c-0.63208,0.46564 -1.55423,1.13538 -2.52838,1.39957c-0.62006,0.16818 -1.58026,0.17859 -2.52841,0.18069c-0.94815,0.00211 -1.89627,0 -2.84442,0c-0.94815,0 -1.58026,0 -2.52841,0c-0.94815,0 -1.8963,0 -2.52838,0c-1.26419,0 -1.8963,0 -2.84445,0l-0.63211,0" id="svg_1" stroke-width="5" stroke="#000000" fill="none"/> <path d="m354.76544,190.02469c3.47601,-3.47655 4.11267,-4.09235 4.6749,-4.74074c0.5351,-0.6171 1.16116,-1.56516 1.47961,-2.51418c0.19211,-0.57251 0.27689,-1.56813 1.29529,-2.04588c0.73743,-0.34595 1.40378,-0.17857 2.66376,-0.18068c0.63211,-0.00105 1.58026,0 2.84445,0c0.63211,0 1.58026,0 2.21234,0c1.26422,0 1.8963,0 2.84445,0c0.94815,0 1.91055,-0.12584 2.73068,0.11377c0.90814,0.26532 1.25937,1.00612 1.34424,1.81624c0.12827,1.22424 -0.04935,1.86879 0.09958,2.74489c0.1293,0.76079 1.07101,1.42361 1.75037,1.72615c0.85104,0.379 1.26282,1.29419 1.31058,1.84995c0.10538,1.22643 0.03369,2.17863 0.03369,2.81073c0,0.94815 -0.04254,1.89879 0.03372,2.84445c0.05124,0.63509 0.46661,1.91254 0.86386,2.5284c0.41953,0.65044 0.95694,1.2388 1.36533,1.89629c0.56894,0.916 0.81531,1.8931 0.86389,2.5284c0.09644,1.26097 0.03369,1.90051 0.03369,2.91029c0,0.74693 0,2.04115 0,2.52997c0,1.04718 0,1.5929 0,2.69696c0,0.54572 0,2.08171 0,2.54051c0,0.83542 0.0011,1.93053 0,2.59213c-0.00211,1.26419 0.24118,1.972 -0.26968,2.895c-0.43289,0.78214 -1.37488,0.86476 -2.26291,0.89758c-0.9433,0.03485 -1.89209,0.00421 -2.5242,0.00421c-1.26419,0 -1.8963,0 -2.84442,0c-0.63211,0 -1.8963,0 -2.52841,0c-0.94815,0 -2.21234,0 -2.84445,0c-0.94815,0 -1.58023,0 -2.84442,0c-0.63211,0 -1.58026,0 -2.21237,0l-1.26419,0l-0.63208,0l-0.94815,0" id="svg_2" stroke-width="5" stroke="#000000" fill="none"/> <path stroke="#000000" d="m266.27161,208.98766c-2.99405,-1.11461 -2.99982,-2.02411 -3.86002,-2.77702c-0.53619,-0.46931 -1.54865,-0.3661 -2.1955,-1.28105c-0.42285,-0.59808 -0.4101,-1.53546 -1.38007,-2.09647c-0.64377,-0.37234 -1.58685,-0.6597 -1.96585,-1.51071c-0.30255,-0.67935 -0.74924,-1.54568 -1.72615,-1.75038c-0.57037,-0.11952 -1.83127,-0.03714 -2.44832,-0.08008c-0.85236,-0.05931 -1.87636,-0.67065 -2.14651,-1.33003c-0.28195,-0.68816 -0.96536,-1.62106 -1.72615,-1.75038c-0.8761,-0.14891 -1.83044,-0.06586 -2.77859,-0.06586c-0.63211,0 -1.89674,-0.01967 -2.52419,0.00423c-0.88802,0.03383 -1.87431,0.10971 -2.35193,1.1246c-0.34685,0.73701 -0.17857,1.40378 -0.18068,2.66377c-0.00105,0.6321 0,1.58025 0,2.5284c0,0.96237 0,1.64609 0,2.39302c0,1.29422 0,2.29715 0,2.83022c0,0.54572 0,1.64978 0,2.1955c0,1.536 0,2.42516 0,3.21317c0,0.71216 0,2.01007 0,2.64217c0,0.94815 0,1.58025 0,2.84445c0,0.6321 -0.00105,1.58025 0,2.21234c0.00211,1.25998 -0.11801,2.22354 0.2697,2.89081c0.4491,0.77292 1.37489,0.86375 2.26291,0.89757c1.25909,0.04793 1.91103,-0.05423 2.84023,0.18489c0.97749,0.25156 1.58615,0.70866 2.21236,1.16359c0.63821,0.46365 1.20311,1.06067 2.5284,1.54654c0.61125,0.22411 1.58017,0.26259 2.52838,0.2697c0.94812,0.00711 1.58025,0 2.5284,0c0.94815,0 1.8963,0 2.52841,0c1.26419,0 1.89627,0 2.84442,0c0.63211,0 1.8963,0 2.52841,0l0.94815,0" id="svg_3" stroke-width="5" fill="none"/> <path stroke="#000000" d="m285.23456,186.8642c3.79681,0 4.4584,0 5.55353,0c0.40506,0 1.78326,0.01132 2.83023,-0.01422c0.54587,-0.01332 1.10178,-0.01807 2.19547,-0.16646c0.53555,-0.07266 2.01578,-0.4791 2.83023,-0.93391c0.76849,-0.42915 1.38623,-1.01115 2.39304,-1.51915c0.60919,-0.30737 1.57883,-0.483 2.21234,-0.51253c1.26291,-0.05887 1.90536,0.03632 2.84445,-0.12801c0.6413,-0.11221 1.58023,-0.58627 2.21234,-1.01505l0.63208,-0.51726l0.63211,-0.58047" id="svg_4" stroke-linecap="null" stroke-linejoin="null" stroke-dasharray="null" stroke-width="5" fill="none"/> <path d="m329.48148,180.54321c0,-3.7926 -0.00012,-4.74074 0,-5.37285c0.00027,-1.26367 -0.15894,-1.92093 0.11377,-2.73067c0.36832,-1.09364 1.26025,-1.30739 2.11279,-1.36374c0.93201,-0.06161 1.88208,-0.01424 2.51419,-0.01424c0.94815,0 1.8963,0 2.84445,0c0.63208,0 1.89627,0 2.52838,0c0.94815,0 1.58026,0 2.84497,0c0.64578,0 1.69351,0 2.48151,0c0.88916,0 1.89209,0 2.42517,0l1.09775,0l0.55203,0l1.07877,0" id="svg_5" stroke-linecap="null" stroke-linejoin="null" stroke-dasharray="null" stroke-width="5" stroke="#000000" fill="none"/> <path d="m301.03705,196.34567c-3.7926,0 -4.74075,0 -5.37286,0c-1.26419,0 -1.89627,0 -2.84442,0c-0.63211,0 -1.90051,0 -2.5621,0c-0.71219,0 -1.50018,0 -2.87711,0c-0.50674,0 -1.52652,0 -2.47046,0c-0.76694,0 -1.05826,0 -0.29498,0c1.25156,0 1.88367,0 2.83179,0c0.94815,0 1.8963,0 2.52841,0l0.94815,0" id="svg_6" stroke-linecap="null" stroke-linejoin="null" stroke-dasharray="null" stroke-width="5" stroke="#000000" fill="none"/> <path d="m335.80246,180.54321c0,3.7968 0,4.4584 0,5.55351c0,0.40508 0.01175,1.78275 -0.01422,2.81599c-0.01321,0.52643 -0.05215,1.55928 -0.16644,2.02904c-0.36975,1.51985 -0.91348,2.00381 -1.74933,2.17601c-1.207,0.24867 -1.86258,0.06741 -2.81073,0.06741c-0.63211,0 -1.89526,0 -2.49997,0l-1.06931,0l0.54047,0l0.82489,0" id="svg_7" stroke-linecap="null" stroke-linejoin="null" stroke-dasharray="null" stroke-width="5" stroke="#000000" fill="none"/> <path d="m310.51852,224.79013c1.12881,0 1.92999,0 3.16049,0c0.62787,0 1.5144,0 2.63373,0c0.79224,0 1.65558,0 2.45676,0c0.6026,0 1.86261,0 2.81076,0c0.63208,0 1.89627,0 2.52838,0c0.94815,0 1.58026,0 2.84445,0c0.63208,0 1.58026,0.00723 2.52838,0c0.93402,-0.00713 1.94177,0.11844 2.63376,-0.52675c0.50793,-0.47357 0.50989,-1.40291 0.52673,-2.63376c0.00864,-0.63203 -0.00012,-1.58025 0,-2.21234c0.00027,-1.26419 -0.05054,-1.90535 0.1138,-2.84444c0.11221,-0.64131 0.75369,-1.92087 1.26419,-2.49469c0.51892,-0.58327 1.10266,-1.13701 2.09857,-1.54601c0.91199,-0.37454 1.57983,-0.37135 2.84442,-0.384c0.63208,-0.00632 1.59232,0.01251 2.21237,0.18068c0.97412,0.26419 1.91275,0.91563 2.46252,1.46541c0.54977,0.54977 1.17538,1.49442 1.3764,2.1465c0.28568,0.92679 0.26257,1.58018 0.26968,2.84445c0.00354,0.63208 0.00107,1.58025 0,2.21234c-0.00211,1.25998 0.11804,2.22356 -0.26968,2.89081c-0.4491,0.77292 -1.37488,0.86475 -2.26291,0.89757c-0.9433,0.03487 -1.89209,0.00423 -2.52417,0.00423c-1.26422,0 -2.21567,-0.01674 -2.84445,0.06584c-0.63699,0.08366 -1.90771,0.61679 -2.52841,1.04875c-0.64441,0.44846 -1.20901,1.0314 -2.21234,1.51915c-0.90775,0.44128 -1.5788,0.48958 -2.52838,0.52252c-0.9476,0.03287 -1.8963,0.00423 -2.52841,0.00423c-1.26419,0 -1.89627,0 -2.84442,0c-0.63211,0 -1.8963,0 -2.52841,0c-0.94815,0 -1.58023,0 -2.84445,0c-0.63208,0 -1.58023,0 -2.84442,0c-0.63211,0 -1.58026,0 -2.21237,0c-1.26419,0 -1.89627,0 -2.84442,0c-0.94815,0 -1.8963,0 -2.52841,0c-0.94815,0 -1.89523,0 -2.77701,0c-0.87967,0 0,0 0.57309,0c1.25577,0 1.88788,0 2.83603,0c0.94815,0 1.8963,0 2.52838,0c0.94815,0 1.8963,0 2.84445,0c0.94815,0 1.8963,0 2.84445,0c0.63208,0 1.58023,0 2.52838,0c0.94815,0 1.58026,0 2.84445,0c0.63211,0 1.58026,0 2.21234,0l1.26419,0l0.63211,0l0.94815,0" id="svg_8" stroke-linecap="null" stroke-linejoin="null" stroke-dasharray="null" stroke-width="5" stroke="#000000" fill="none"/> <path d="m282.07407,246.91357c-2.99402,1.12883 -3.20105,1.9436 -3.42596,2.53261c-0.37061,0.9706 -0.85257,1.57352 -1.31476,2.20815c-0.68781,0.94441 -1.24149,1.88428 -1.3996,2.54262c-0.1619,0.67412 -0.17084,1.4306 -0.18066,2.72487c-0.00763,1.0029 0.00754,1.53726 -0.06583,2.63373c-0.03699,0.55289 -0.13226,1.65195 -0.46091,2.63376c-0.30582,0.91357 -0.81445,1.6792 -1.28949,2.38934c-0.44382,0.66351 -0.98508,1.60614 -1.17783,2.24603c-0.28256,0.93805 -0.35468,1.61963 -0.86649,2.52841c-0.37482,0.66553 -0.93506,1.27444 -1.52652,1.8963c-0.91721,0.96436 -1.57126,1.57138 -2.16443,2.21234c-0.28854,0.3118 -0.94525,0.87366 -1.54599,2.21234c-0.27185,0.6058 -0.36292,1.5798 -0.37979,2.21234c-0.0336,1.25955 0.16107,1.92633 -0.18488,2.66379c-0.47775,1.0184 -1.4769,1.09305 -2.0459,1.29526c-1.28021,0.45493 -1.89856,0.92987 -2.44833,1.47964c-0.54977,0.54977 -1.16122,1.4993 -1.47964,2.44833c-0.19208,0.57251 -0.27686,1.56815 -1.29526,2.0459c-0.73746,0.34595 -1.40381,0.17856 -2.668,0.18066c-0.66159,0.0011 -1.37376,-0.00015 -2.16177,0c-1.37746,0.00027 -2.41144,0.00345 -2.93715,0.03372c-1.02542,0.05905 -1.5985,-0.08859 -2.69275,0.49304c-0.81145,0.4313 -0.84752,1.52271 -1.75354,2.24973c-0.56921,0.45676 -1.52644,0.37689 -2.46045,0.384c-0.94812,0.00723 -1.58025,0 -2.5284,0c-0.94815,0 -1.8963,0 -2.5284,0c-1.26419,0 -1.89629,0 -2.84444,0c-0.6321,0 -1.89879,-0.04254 -2.84445,0.03372c-0.63509,0.05124 -1.26419,0.23596 -2.51996,0.86386l-0.5731,0.44669l-0.47197,0.47195" id="svg_9" stroke-linecap="null" stroke-linejoin="null" stroke-dasharray="null" stroke-width="5" stroke="#000000" fill="none"/> <path d="m316.83951,171.06172c0,3.7926 0,4.74075 0,5.37285c0,1.26419 0,1.8963 0,2.84444c0,0.63211 0,1.8963 0,2.5284c0,0.94815 0,1.8963 0,2.84445c0,0.6321 0,1.58025 0,2.5284c0,0.94814 -0.00711,1.89632 0,2.84444c0.00711,0.94823 -0.03418,1.60742 0.26968,2.5284c0.32617,0.98862 0.84491,1.58025 1.31055,2.21234c0.46567,0.63211 1.13541,1.55424 1.3996,2.5284c0.16815,0.62004 0.16162,1.58043 0.18118,2.52788c0.01889,0.91537 -0.01187,1.89668 0.69952,2.46097c0.57175,0.45352 1.52646,0.37689 2.77649,0.384c0.63211,0.0036 1.58026,0 2.21237,0l1.25998,0.00421l0.88651,0.06163l0.74429,0.20384" id="svg_10" stroke-linecap="null" stroke-linejoin="null" stroke-dasharray="null" stroke-width="5" stroke="#000000" fill="none"/> <path d="m354.76544,259.55554c3.47601,3.47656 4.11267,4.09235 4.6749,4.74075c0.5351,0.6171 1.20663,1.55322 1.46539,2.54263c0.17542,0.67075 0.17288,1.43057 0.18069,2.72485c0.00293,0.48831 0.00342,1.52231 0.03369,2.048c0.05905,1.02542 -0.0069,2.08624 0.66635,2.97824c0.52228,0.69199 1.52634,0.74677 2.46045,0.76801c0.948,0.02155 1.60751,-0.03452 2.52838,0.26968c0.98825,0.32645 1.59674,0.82663 2.14651,1.3764c0.54977,0.54977 1.16122,1.4993 1.47964,2.44833c0.19208,0.57251 0.64325,1.80676 1.29526,2.0459c0.76471,0.28049 2.03207,0.16226 2.66379,0.18488c0.94955,0.034 1.62064,0.08124 2.52838,0.52252c1.00333,0.48773 1.56216,1.07913 2.21234,1.51917c0.92389,0.62527 1.569,0.90704 2.52841,1.04874c0.62738,0.09265 1.8963,0.06586 2.52838,0.06586l0.94815,0l0.63211,0" id="svg_11" stroke-linecap="null" stroke-linejoin="null" stroke-dasharray="null" stroke-width="5" stroke="#000000" fill="none"/> <path d="m269.4321,193.18518c-4.17606,0 -5.22324,0 -5.76895,0c-1.10406,0 -1.64978,0.00087 -3.18579,0c-0.4588,-0.00026 -1.30392,0.06255 -2.38931,-0.11377c-0.67096,-0.10899 -1.64938,-0.54047 -2.23184,-1.02927c-0.62259,-0.52246 -1.19836,-1.22154 -1.69983,-2.5442c-0.18057,-0.47629 -0.36383,-1.53545 -0.44667,-2.08171c-0.16728,-1.10301 -0.14723,-1.67651 -0.60683,-3.18578c-0.14301,-0.46964 -0.5834,-1.32083 -1.11934,-2.10699c-0.27452,-0.40269 -0.90437,-1.20135 -1.5144,-2.10699c-0.3257,-0.48352 -0.95451,-1.56107 -1.26419,-2.14914c-0.32272,-0.61284 -0.63792,-1.26151 -0.94815,-1.94371c-0.32213,-0.70837 -0.95367,-2.22598 -1.26367,-3.03302c-0.31805,-0.82799 -0.62503,-1.67703 -0.91496,-2.54103c-0.29057,-0.86589 -0.56073,-1.73369 -0.80118,-2.59793c-0.23558,-0.84679 -0.6122,-2.48235 -0.74536,-3.25899c-0.1277,-0.74481 -0.21902,-1.46729 -0.30341,-2.16652c-0.08203,-0.67981 -0.15323,-1.34521 -0.24652,-1.99585c-0.09222,-0.64311 -0.32928,-1.92006 -0.73112,-3.1705c-0.20158,-0.62727 -0.44363,-1.23592 -0.68266,-1.83467c-0.45979,-1.15173 -0.75526,-1.66899 -1.19624,-3.15839c-0.24409,-0.82443 -0.34015,-1.58104 -0.36978,-2.26608c-0.05528,-1.27783 -0.01422,-1.92473 -0.01422,-2.60846c0,-0.74692 0,-2.04115 0,-3.04829c0,-0.54308 0,-1.69244 0,-2.2924c0,-0.61261 0,-1.23471 0,-3.12627c0,-0.6284 0,-1.25049 0,-2.46307c0,-0.58417 0,-1.14937 0,-2.69958c0,-0.88916 0,-1.67717 0,-2.38933c0,-1.29791 0,-1.93001 0,-2.87816c0,-0.6321 -0.02568,-1.89742 0.01422,-2.5284c0.06015,-0.95146 0.13062,-1.65107 0.88757,-2.84023c0.41243,-0.6479 0.9906,-1.20656 1.63081,-1.63081c0.89746,-0.59473 1.56862,-0.78164 2.52419,-0.86808c1.25949,-0.11394 1.89629,-0.03371 2.84444,-0.03371c0.6321,0 1.8963,0 2.5284,0c0.94815,0 1.58025,0 2.84866,0c0.66159,0 1.37376,0 2.16179,0c1.37796,0 1.89206,0 2.97086,0c0.55203,0 1.64978,0 2.18283,0c1.46173,0 2.29715,0 3.0441,0c1.00977,0 1.96463,0.04256 2.91028,-0.03371c0.6351,-0.05123 1.92206,-0.45295 2.5242,-0.86808c0.63232,-0.43594 1.20627,-0.99078 1.6308,-1.63081c0.5954,-0.89764 0.81427,-1.9093 1.09564,-2.52419c0.29892,-0.65323 1.19516,-1.59409 1.60553,-1.89629c0.9007,-0.66327 1.42633,-0.9492 1.94687,-1.2642c1.048,-0.63421 2.06555,-1.24033 2.93292,-1.89629c0.40353,-0.30518 1.14151,-0.90563 1.65927,-1.58025c0.68851,-0.89709 0.88492,-1.57822 1.14304,-2.5284c0.17136,-0.6308 0.68265,-1.90771 1.11459,-2.5284c0.44846,-0.64442 1.00931,-1.22008 1.51917,-2.21235c0.31082,-0.60489 0.34344,-1.60826 0.79224,-2.2587c0.64404,-0.93343 1.4014,-0.84023 2.26712,-1.16727c0.97211,-0.36725 1.59103,-0.84553 2.20813,-1.38061c0.64841,-0.56223 1.57626,-1.51843 2.21234,-2.14229c0.31409,-0.30804 0.91037,-0.93647 1.58026,-1.40379c1.2034,-0.8395 1.88977,-0.99914 2.84442,-1.09512c0.62964,-0.0633 1.8963,-0.03371 2.52841,-0.03371c0.94815,0 1.8963,0 2.84445,0c0.63208,0 1.58023,0 2.52838,0c0.94815,0 1.58026,0 2.84445,0c0.63208,0 1.58023,-0.00013 2.21234,0c1.26419,0.00027 2.21805,-0.00275 2.84445,0.11378c0.64005,0.11906 1.90216,0.77557 2.52838,1.23048c0.63824,0.46365 1.22031,1.00949 2.21234,1.43275c0.91565,0.39068 1.59961,0.40718 2.21234,0.64896c1.31656,0.51948 1.90164,1.10632 2.21237,1.38061c0.6434,0.56792 1.5741,1.52063 2.21655,2.14651c0.6554,0.6385 0.99734,0.9631 1.75671,1.58025c0.39871,0.32403 1.78052,1.26832 2.29715,1.58025c0.53052,0.3203 1.63159,0.94678 2.18283,1.2642c0.54651,0.31469 2.08728,1.25626 2.54053,1.57972c0.84604,0.60378 1.20865,0.92771 1.93051,1.467c0.65305,0.48787 1.6051,1.02384 2.56213,1.29791c0.62686,0.17951 1.92203,0.56673 2.52417,0.98186c0.63232,0.43594 1.20642,0.99069 1.6308,1.63081c0.59506,0.89754 0.793,1.90007 0.98187,2.52419c0.38837,1.2833 0.79919,1.9139 1.29791,2.52839c0.52884,0.65163 0.845,0.9517 1.7825,1.8963c0.6297,0.63449 1.26422,1.26421 1.8963,1.89629c0.31607,0.31606 1.27075,1.25778 1.89209,1.89629c0.60907,0.62589 1.20172,1.23134 1.63083,1.8963c0.58566,0.90754 0.74762,1.88971 0.98184,2.41461c0.47745,1.06998 1.32318,1.17015 1.96582,1.54443c0.97815,0.5697 1.05692,1.28286 1.30847,1.99111c0.32666,0.91975 0.85049,2.06129 1.20572,2.71855c0.38983,0.72133 0.8403,1.4781 1.32266,2.27081c0.50043,0.82239 1.02444,1.65582 1.55023,2.49837c0.5235,0.83884 1.52554,2.4677 1.98056,3.24425c0.43396,0.74062 0.83588,1.45357 1.21838,2.13333c0.36444,0.64766 0.70874,1.26617 1.0477,1.84889c0.32281,0.55498 0.95657,1.56848 1.27789,2.02324c0.30685,0.4343 0.92233,1.21271 1.46698,1.93054c0.25262,0.33295 1.0062,1.61061 1.22577,2.26027c0.22977,0.67987 0.42569,1.47369 1.20572,2.72488c0.31671,0.50798 0.73734,1.0065 1.17569,1.536c0.45486,0.54945 1.40775,1.64604 1.86261,2.1955c0.43835,0.5295 1.24255,1.50055 1.68979,2.42514c0.36905,0.76292 0.49924,1.49832 0.53098,2.16179c0.06058,1.26698 0.00842,2.21655 0.00842,2.84865c0,1.26421 0,1.8963 0,2.84445c0,0.6321 0,1.90051 0,2.5621c0,0.71217 0,1.50018 0,2.87816c0,0.5141 0,1.5929 0,2.14493c0,1.09773 0,1.63081 -0.00052,3.09201l-0.0137,0.82173l-0.09955,0.99554" id="svg_12" stroke-linecap="null" stroke-linejoin="null" stroke-dasharray="null" stroke-width="5" stroke="#000000" fill="none"/> </g> </svg>