<svg width="640" height="480" xmlns="http://www.w3.org/2000/svg" xmlns:svg="http://www.w3.org/2000/svg"> <!-- Created with SVG-edit - http://svg-edit.googlecode.com/ --> <defs> <pattern height="100" width="100" y="0" x="0" patternUnits="userSpaceOnUse" id="gridpattern"> <image height="100" width="100" y="0" x="0"></image> </pattern> </defs> <g> <title>Layer 1</title> <path d="m296,289.33337c-1.86667,-1.85245 -2.74426,-2.28067 -3.41867,-2.70047c-0.65741,-0.40921 -0.84439,-1.45938 -1.30356,-1.99399c-0.78079,-0.90903 -1.26709,-1.27246 -1.91666,-1.97223c-0.42291,-0.4556 -1.09384,-1.50305 -1.42532,-2.26065c-0.36713,-0.83911 -0.92072,-1.46838 -1.40247,-2.46313c-0.29523,-0.60962 -0.5311,-1.30484 -0.79999,-2.01199c-0.3967,-1.04324 -0.79187,-2.00479 -1.12222,-2.59753c-0.34302,-0.61548 -1.043,-1.56635 -1.6351,-2.24356c-0.6304,-0.72104 -0.97162,-1.06628 -1.63556,-1.74335c-0.89017,-0.90778 -1.42056,-1.35068 -2.112,-2.16599c-0.59888,-0.70615 -0.97202,-1.38455 -1.36179,-2.12802c-0.54782,-1.04495 -0.81213,-1.57742 -1.17221,-2.358c-0.32672,-0.70825 -0.64502,-1.84653 -0.69446,-2.69443c-0.04666,-0.80011 -0.53961,-1.69949 -0.8631,-2.3429c-0.46335,-0.92163 -0.12735,-1.79712 -0.76535,-2.66667c-0.46704,-0.63657 -1.03513,-1.26309 -1.03821,-2.19044c-0.00311,-0.93332 -0.02768,-1.75893 -0.47021,-2.53932c-0.35526,-0.62646 -0.75537,-1.57379 -0.86313,-2.28845c-0.11661,-0.77332 -0.36816,-1.84109 -0.66666,-2.61111c-0.27826,-0.71783 -0.64117,-1.8595 -0.66489,-2.53976c-0.03568,-1.02428 0.04425,-1.72189 -0.00201,-2.79245c-0.03812,-0.88246 -1.00677,-1.25777 -1.30533,-2.05667c-0.31714,-0.84865 -0.02777,-1.70555 -0.02777,-2.63889c0,-0.93333 0,-1.73334 0,-2.66667c0,-0.93333 0.2894,-1.79022 -0.02777,-2.63889c-0.29855,-0.79889 -1.26743,-1.16814 -1.30557,-2.02777c-0.03546,-0.79921 0,-1.73933 0,-2.51378c0,-1.02312 0,-1.71912 0,-2.79089c0,-0.81444 0,-1.76199 0,-2.69533c0,-0.8 0,-1.73334 0,-2.66667c0,-0.8 0,-1.74533 0,-2.62756c0,-1.06488 0,-1.72089 0,-2.41956c0,-0.70932 0,-2.03732 0,-2.89732c0,-0.74001 0,-1.87422 0,-2.72223c0,-0.8 0,-1.73933 0,-2.51378c0,-1.0231 0,-1.7191 0,-2.79088c0,-0.81445 0,-1.76201 0,-2.69534c0,-0.8 0,-1.73933 0,-2.51378c0,-1.0231 0,-1.7191 0,-2.79088c0,-0.81445 0,-1.76201 0,-2.69534c0,-0.84799 0,-1.76178 0,-2.66666c0,-0.688 0,-1.8329 0,-2.51201c0,-1.03088 0,-1.76889 0,-2.82133c0,-0.8 0,-1.59999 0,-2.66666c0,-0.8 0,-1.60001 0,-2.66667c0,-0.79401 0,-1.552 0,-2.638c0,-0.81445 0,-1.76801 0,-2.54245c0,-1.02911 0,-1.76711 0,-2.81955c0,-0.79401 0,-1.552 0,-2.63823c0,-0.86221 0,-1.79022 0,-2.6951c0,-0.688 0,-1.8329 0,-2.51201c0,-1.02489 0,-1.72089 0,-2.79311c0,-0.91 0,-1.806 0,-2.70201c0,-0.65955 0.02896,-1.63599 -0.00177,-2.70221c-0.0238,-0.82584 -0.21176,-1.73758 -0.46844,-2.63112c-0.19,-0.66144 -0.44843,-1.30563 -0.70111,-2.46889c-0.17255,-0.7944 -0.16199,-1.79066 -0.16199,-2.59067c0,-0.93333 0,-1.86667 0,-2.66667c0,-0.93333 0,-1.86665 0,-2.66666c0,-0.93333 0,-1.86667 0,-2.66667c0,-0.93333 0,-1.86667 0,-2.66667c0,-0.93333 0,-1.86665 0,-2.66666c0,-0.96112 0,-1.82222 0,-2.71468c0,-0.758 0,-1.81844 0,-2.60444c0,-0.96711 -0.37976,-2.18846 0.29532,-2.78555c0.5914,-0.52307 1.60568,-0.09532 2.59357,-0.38422c0.66592,-0.19475 1.32062,-0.61224 2.41577,-0.94933c0.80054,-0.24641 1.58313,-0.61028 2.29532,-1.02489c0.91278,-0.53139 1.69644,-0.57358 2.77335,-0.85067c0.75714,-0.19482 1.207,-0.32779 2.30554,-0.55889c0.65277,-0.13733 2.20935,-0.39861 3.12091,-0.52756c0.98883,-0.13988 2.04315,-0.27202 3.146,-0.41399c1.1376,-0.14645 2.29584,-0.2952 3.45801,-0.46201c1.1543,-0.16568 3.37613,-0.53543 4.41422,-0.75222c0.99039,-0.20683 1.92773,-0.43433 2.814,-0.672c0.84213,-0.22583 1.63501,-0.46181 2.38199,-0.696c0.70541,-0.22115 1.98596,-0.64822 2.56622,-0.84134c0.5415,-0.18021 1.04547,-0.34763 1.51401,-0.5c0.43326,-0.1409 0.83319,-0.26861 1.202,-0.38c0.33704,-0.10178 0.91934,-0.2962 1.61801,-0.406c0.66919,-0.10517 1.61911,-0.07623 2.55243,-0.07623c0.80002,0 1.73746,-0.08727 2.66669,0.00044c0.8107,0.07653 1.43924,0.78619 1.94998,1.36067c0.62018,0.69757 1.59109,1.30281 2.39401,1.62333c0.41873,0.16715 1.28287,0.44109 2.12,0.63334c1.32251,0.30372 2.03207,0.31525 2.95822,0.60444c0.90063,0.28122 1.55673,0.69544 2.59732,0.99911c0.76373,0.22288 1.54623,0.65234 2.19,0.97511c0.92307,0.46281 1.65686,0.45633 2.76822,0.47022c0.86105,0.01077 1.82401,0 2.56512,0c0.96912,0 1.6571,0 2.76822,0c0.73599,0 1.51468,0 2.58133,0c0.65601,0 1.71002,0 2.75201,0c0.94,0 1.5,0 2.66666,0c0.86111,0 1.82401,0 2.56512,0c0.96912,0 1.6571,0 2.76822,0c0.88889,0 1.77887,0.03188 2.65601,-0.01423c0.69778,-0.03668 1.70117,-0.40126 2.39999,-0.752c0.90524,-0.45433 1.6185,-0.50588 2.37222,-0.63733c1.0679,-0.18624 1.83954,-0.51469 2.58444,-0.79289c1.02026,-0.38104 1.80356,-0.46722 2.75711,-0.47022c1.008,-0.00317 1.88623,0 2.58221,0c1.0231,0 1.79755,0 2.75113,0c1.008,0 1.8862,0 2.58221,0c1.0231,0 1.79755,0 2.73688,0c0.93335,0 1.73334,0 2.66669,0c0.93332,0 1.73331,0 2.66666,0c0.93356,0 1.80954,0 2.77866,0c0.68802,0 1.81143,-0.11994 2.66022,0.02778c0.85699,0.14915 1.44498,0.83927 2.29446,1.19356c0.76675,0.31977 1.61536,0.67705 2.13333,1.18044c0.81055,0.78772 1.25427,1.43436 1.49155,2.24533c0.27969,0.95595 0.35403,1.56538 1.24445,2.55112c0.51529,0.57045 1.18643,0.99309 1.728,1.488c0.83517,0.76324 1.12677,1.53254 1.35822,2.42489c0.2334,0.89992 0.46039,1.55099 0.73245,2.53156c0.23044,0.83058 0.37033,1.74744 0.49066,2.54222c0.1713,1.13162 0.26984,1.60301 0.45511,2.67378c0.10132,0.58548 0.21735,1.19566 0.38757,2.48178c0.17523,1.32387 0.22086,1.99258 0.26666,2.65955c0.04575,0.66641 0.11069,2.00006 0.14578,2.66667c0.03513,0.66673 0.05496,1.33545 0.18845,2.66666c0.13324,1.32877 0.245,1.97647 0.34488,2.60979c0.09665,0.6129 0.29892,1.75148 0.38754,2.26845c0.27399,1.59846 0.36478,2.34367 0.37869,3.25577c0.01236,0.80991 0,1.86601 0,2.60201c0,0.832 -0.00009,1.696 0,2.528c0.00012,1.05089 -0.0108,1.8513 0.0762,2.62289c0.11346,1.0062 0.30118,1.89468 0.49091,2.91489c0.09888,0.53168 0.29895,1.58347 0.38754,2.08356c0.22418,1.26558 0.35464,2.13617 0.37866,3.33688c0.01331,0.66586 0,1.48801 0,2.14044c0,1.16068 0,2.03845 0,2.94289c0,0.87778 0,2.02779 0,2.61978c0,0.99001 0,1.826 0,2.57001c0,1.19044 0,1.994 0,2.89355c0,0.47244 0,1.43599 0,2.84866c0,0.44511 0,1.286 0,2.40401c0,0.91399 0,1.83844 0,2.50844c0,1.202 0,1.994 0,2.85001c0,0.85599 0.00397,2.00003 -0.00177,2.64355c-0.00735,0.82495 -0.02515,1.41202 -0.04623,2.17244c-0.0271,0.97647 -0.06439,2.21159 -0.17419,5.62845c-0.07224,2.24759 -0.15646,4.80717 -0.25403,7.60399c-0.10324,2.95963 -0.21426,6.00728 -0.33798,9.06801c-0.12125,2.99971 -0.2218,5.86493 -0.5191,10.88356c-0.12003,2.02637 -0.25281,3.7256 -0.39401,5.12999c-0.11526,1.14659 -0.23434,2.06618 -0.358,2.79001c-0.09686,0.56702 -0.20493,1.00345 -0.3591,1.63556c-0.06186,0.25362 -0.11197,0.48473 -0.146,0.698c-0.03149,0.19751 -0.05106,0.38515 -0.06201,0.56599c-0.01077,0.17786 -0.01315,0.35733 -0.01422,0.73601c-0.00058,0.20599 0.00018,0.42137 -0.00601,0.642c-0.00623,0.22206 -0.01709,0.44183 -0.04199,0.65399c-0.02377,0.20258 -0.03317,0.40254 -0.17422,0.70401c-0.05975,0.12769 -0.15164,0.22455 -0.24799,0.29799c-0.09265,0.07062 -0.19617,0.11925 -0.29602,0.166c-0.09659,0.04524 -0.20432,0.07129 -0.34488,0.20267c-0.06921,0.06468 -0.11383,0.15628 -0.146,0.254c-0.03403,0.10338 -0.05386,0.21774 -0.06201,0.33801c-0.05319,0.78416 -0.20425,1.62787 -0.95465,2.25844c-0.56561,0.47531 -1.36438,1.11983 -1.64444,2.02777c-0.20963,0.67955 -0.41211,1.75655 -0.896,2.35201c-0.5946,0.73174 -1.39636,1.28648 -1.74045,2.15111c-0.23758,0.59702 -0.40317,1.78781 -0.58224,2.40356c-0.1922,0.6608 -0.49734,1.63239 -0.7511,2.6969c-0.19202,0.80551 -0.99982,1.24237 -1.44534,1.99042c-0.42303,0.71027 -0.79077,1.42615 -1.26309,2.36624c-0.38568,0.76767 -1.15881,1.17276 -1.48535,1.80154c-0.4762,0.91702 -1.06219,1.56339 -1.45065,2.03735c-0.70789,0.86368 -0.94012,1.88419 -1.61044,2.36353c-0.73666,0.52676 -1.53061,0.75763 -2.19046,1.40356c-0.53897,0.52762 -1.31448,1.35339 -1.88089,1.86667c-0.61328,0.55576 -1.44696,1.03885 -2.09131,1.46667c-0.94427,0.62698 -1.24274,1.47775 -1.95157,1.83823c-0.7019,0.35696 -1.88513,0.32727 -2.57578,0.7431c-0.71597,0.43109 -1.47125,1.04501 -2.25046,1.41867c-0.599,0.28723 -1.6908,0.67853 -2.53888,0.93155c-0.8941,0.26675 -1.3472,0.38556 -2.22778,0.59222c-1.14655,0.2691 -1.98572,0.43634 -2.87799,0.47446c-0.93781,0.04004 -1.8851,-0.07092 -2.6149,0.078c-0.99472,0.203 -1.64209,0.62936 -2.34509,0.87842c-1.11041,0.3934 -2.112,0.37869 -2.91202,0.37869c-0.93332,0 -1.86667,0 -2.66666,0c-0.93335,0 -1.86667,0 -2.66669,0c-0.93332,0 -1.86667,-0.0061 -2.66666,0c-0.93341,0.00711 -1.72778,0.23065 -2.39999,0.66666c-0.79355,0.51471 -1.60001,0.66367 -2.53333,0.66666c-0.93356,0.00299 -1.80957,0 -2.77869,0c-0.68799,0 -1.82022,-0.14548 -2.50665,0.02844c-0.91562,0.23196 -1.32458,1.14838 -1.78134,1.69778c-0.71786,0.86346 -1.73334,0.94046 -2.53333,0.94046c-0.93335,0 -1.86667,0 -2.66666,0c-0.93335,0 -1.86667,0 -2.66669,0c-0.93332,0 -1.86667,-0.00256 -2.66666,0c-0.93335,0.00299 -1.59705,0.11914 -2.41422,0.56711c-1.00443,0.5506 -1.65414,0.7218 -2.58224,0.76022c-0.84085,0.03482 -1.79755,0.00598 -2.73688,0.00598c-0.93335,0 -1.73334,0 -2.66666,0c-0.93356,0 -1.64801,0 -2.5618,0c-0.90488,0 -1.5929,0 -2.72354,0c-0.98135,0 -1.78134,0 -2.58734,0c-0.77444,0 -1.79755,-0.00012 -2.72379,0c-0.84131,0.00012 -1.64117,0.14417 -2.23734,0.76624c-0.59009,0.61572 -1.56622,0.56711 -2.36621,0.56711l-0.97067,0l0.44089,0l0.92978,0" id="svg_1" stroke-width="5" stroke="#000000" fill="none"></path> <path d="m389.33334,162.66669c2.81955,-6.48 3.15692,-7.01878 3.59399,-7.65222c0.68039,-0.98605 0.98929,-1.71797 1.47269,-2.25533c0.69495,-0.77251 1.73331,-0.75911 2.53333,-0.75911c0.93332,0 1.86667,0 2.66666,0c0.93335,0 1.86667,-0.00287 2.66666,0c0.83603,0.00301 1.79169,0.06764 3.06668,0.22221c0.57138,0.06926 1.2074,0.1562 1.89401,0.254c0.72318,0.103 1.46762,0.21497 2.21799,0.338c0.74344,0.12189 2.78018,0.50577 3.34512,0.65289c0.98004,0.25522 1.79892,0.57599 2.16776,0.76222c0.74005,0.37366 1.90015,1.1588 2.33246,1.46133c0.91333,0.63914 1.37415,0.97864 2.30222,1.63556c0.44885,0.31772 1.68698,1.14395 2.38199,1.59999c0.61209,0.40163 1.24481,0.72949 1.99625,1.79756c0.41006,0.58286 0.67456,1.2932 0.88,2.01199c0.38641,1.35199 0.40628,1.99467 0.51599,2.89801c0.07434,0.61205 0.34378,1.94696 0.53333,2.68089c0.19797,0.76653 0.42621,1.54741 0.60446,2.75177c0.11703,0.79086 0.14301,1.57445 0.23199,2.32401c0.12555,1.05748 0.40265,2.00514 0.59644,2.60956c0.29199,0.91072 0.5239,1.89305 0.59045,2.60355c0.06821,0.7282 0.07532,1.81778 0.0762,2.83444c0.00079,0.914 0,1.75601 0,2.82845c0,0.78601 0,1.524 0,2.55312c0,0.77444 0.0083,1.72803 0,2.73599c-0.00711,0.86411 0.25443,1.81934 -0.58133,2.34845c-0.86447,0.5473 -1.8327,-0.03993 -2.75198,0.12378c-0.83051,0.1479 -1.48245,0.77071 -2.13312,1.43889c-0.63464,0.6517 -0.97046,1.52606 -1.34668,2.13333c-0.4762,0.76866 -1.49255,1.08519 -2.07578,1.73334c-0.59106,0.65685 -1.17203,1.27194 -1.74399,1.90044c-0.57751,0.6346 -1.36713,0.76624 -2.16711,0.76624c-0.93335,0 -1.86667,0 -2.66666,0c-0.93933,0 -1.71378,0 -2.73691,0c-0.69598,0 -1.76776,0 -2.58221,0c-0.94757,0 -1.88089,0 -2.68088,0l-0.93335,0" id="svg_2" stroke-width="5" stroke="#000000" fill="none"></path> <path d="m266.66669,173.33336c-0.048,-2.08534 -0.75537,-2.54066 -1.46667,-2.96222c-0.75272,-0.44611 -1.21024,-1.2538 -1.60001,-1.908c-0.41089,-0.68964 -1.07541,-1.76115 -1.45245,-2.28178c-0.6066,-0.8376 -0.75284,-1.59158 -1.25867,-2.40355c-0.43091,-0.69171 -1.06949,-1.3866 -2,-2c-0.65329,-0.43065 -1.14154,-1.07628 -1.85089,-1.61578c-0.62842,-0.47795 -1.70465,-0.16199 -2.63977,-0.16199c-0.7411,0 -1.71022,0 -2.39822,0c-1.1111,0 -2,0 -2.88889,0c-0.87822,0 -1.57422,0 -2.59734,0c-0.912,0 -2.09152,-0.17917 -2.46577,0.59555c-0.41811,0.86549 -0.06046,1.6331 0,2.496c0.05042,0.71945 0.24423,2.06068 0.33067,2.57599c0.18237,1.08727 0.28859,1.63789 0.48444,2.71223c0.09183,0.50372 0.26407,1.78003 0.43645,2.62822c0.20404,1.00398 0.76305,1.71802 0.98845,2.39999c0.30397,0.91966 0.30844,1.73601 0.37866,2.59201c0.07022,0.85599 0.15776,2.02168 0.47021,2.84399c0.2466,0.649 0.75082,1.57845 0.83534,2.48933c0.06361,0.68555 -0.05318,1.67876 0.14156,2.51199c0.24823,1.06216 0.67947,1.75989 0.84088,2.28978c0.31923,1.04808 0.37157,2.08347 0.37868,2.976c0.00687,0.86108 0,1.82401 0,2.56511c0,0.96912 0,1.89001 0,2.76823c0,0.8611 -0.07272,1.8353 0.07622,2.56511c0.20299,0.99469 0.63055,1.64165 0.87845,2.34511c0.39607,1.12393 0.34988,1.82457 0.38466,2.84889c0.02367,0.69687 0.29861,1.76299 0.66068,2.4631c0.45651,0.88275 0.45125,1.80701 0.77866,2.57423c0.369,0.86472 1.06134,1.34918 1.22134,2.12021c0.22472,1.08282 0.5932,1.79675 1.06844,2.48422c0.54533,0.78888 0.85652,1.5175 1.33156,2.06223c0.70117,0.80403 1.62085,1.41486 2.00601,2.17578c0.30518,0.60292 0.51465,1.30995 1.14954,2.13889c0.57379,0.74919 1.31067,1.25465 2.22223,1.55556c0.83832,0.27672 1.82224,0.22223 2.62222,0.22223c0.93335,0 1.86667,0 2.66666,0l0.93335,0" id="svg_3" stroke-width="5" stroke="#000000" fill="none"></path> <path d="m404,178.66669c-2.08533,-0.048 -2.65277,-0.69412 -2.66666,-1.59999c-0.01227,-0.79991 0,-1.76112 0,-2.62222c0,-0.87823 0,-1.57423 0,-2.59734c0,-0.912 -0.14423,-1.8589 0.00354,-2.77867c0.11478,-0.7144 1.14395,-1.03978 1.79889,-1.06244c1.18732,-0.04108 1.98819,-0.30139 2.83646,0.02177c0.80545,0.30685 0.95294,1.46927 1.50867,2.10556c0.61353,0.70244 1.28577,1.12833 1.69067,2c0.35089,0.75543 0.72705,1.55409 1.11646,2.38043c0.35947,0.76282 0.30029,1.5298 0.60086,2.81956c0.12589,0.54013 0.43323,1.32738 0.84622,2.01955c0.60376,1.01192 1.23706,1.61534 1.48447,2.62578c0.16489,0.67346 0.11377,1.79912 0.11377,2.50667l0,0.98134l0,0.8" id="svg_4" stroke-width="5" stroke="#000000" fill="none"></path> <path d="m262.66669,177.33336c-1.86667,-0.58133 -2.68674,-1.31448 -3.20001,-1.88089c-0.55576,-0.61328 -1.06668,-1.43111 -1.46667,-2.11911c-0.39999,-0.688 -1.04501,-2.32791 -1.77777,-2c-0.68269,0.3055 -0.22223,1.77777 -0.22223,2.48534c0,0.98132 0,1.78133 0,2.7431c0,0.73245 0,1.79556 0,2.43912c0,0.992 0,1.888 0,2.784l0,1.104l0,0.66l0,0.78" id="svg_5" stroke-width="5" stroke="#000000" fill="none"></path> <path d="m290.66669,170.66669c0.38043,-3.58044 0.57477,-4.3167 0.81421,-5.08089c0.24744,-0.7897 0.65082,-1.9861 0.9191,-2.77977c0.13254,-0.39206 0.51578,-1.53662 0.93335,-2.58379c0.25766,-0.64616 0.50867,-1.26341 1.00955,-2.08289c0.50769,-0.83064 1.18723,-1.60623 1.6571,-2.11156c0.4566,-0.49103 1.32986,-1.30934 1.97223,-2.02777c0.44394,-0.49652 0.91776,-1.3382 1.49445,-2.18489c0.49719,-0.72998 1.33298,-1.13423 2.1351,-1.14845c0.91187,-0.01617 1.71201,0 2.67911,0c1.05246,0 1.84647,0 2.60446,0c1.086,0 1.91583,-0.16367 2.84198,0.006c0.81598,0.14948 1.13895,1.20386 1.87869,1.32133c0.90201,0.14325 1.46149,0.6356 2.10776,1.22911c0.56396,0.5179 1.35602,1.05472 1.7529,1.69067c0.53757,0.86137 1.13852,1.53792 1.48621,2.26489c0.36407,0.76126 0.29984,1.75349 0.60269,2.59911c0.32672,0.91229 0.94931,1.68866 1.18134,2.41266l0.69598,0.51001l0.56711,0.63289" id="svg_6" stroke-width="5" stroke="#000000" fill="none"></path> <path d="m340,164.00003c1.86667,-1.86667 2.39999,-2.40001 3.06668,-3.06668c0.53333,-0.53333 1.40225,-1.27655 1.79044,-1.86665c0.56058,-0.85222 1.11398,-1.46001 1.69757,-2.112c0.53696,-0.59988 1.09222,-0.95279 1.85132,-1.43089c0.64371,-0.40543 1.57962,-1.10966 2.23288,-1.52377c0.61047,-0.38699 1.13574,-1.39883 1.95157,-1.83823c0.6933,-0.3734 1.89972,-0.30542 2.56155,-0.74312c0.63147,-0.41762 1.17108,-1.25331 1.91467,-1.70488c0.74048,-0.44968 1.73334,-0.38045 2.53333,-0.38045c0.93335,0 1.8667,-0.00609 2.66666,0c0.93344,0.00711 1.89709,0.25844 2.53336,0.81422c0.70251,0.61366 1.19998,1.18578 1.86667,1.85245c0.66666,0.66666 1.37042,1.29956 1.85245,1.86665c0.64453,0.7583 0.76172,1.64299 1.19287,2.40001c0.40784,0.71609 0.90668,1.59999 0.9549,2.53333l0.04776,0.66667" id="svg_7" stroke-width="5" stroke="#000000" fill="none"></path> <path d="m297.33334,178.66669c0.02777,-2 0.35596,-2.95421 0.81421,-3.46666c0.7475,-0.83589 1.31912,-1.33334 1.98578,-2c0.53336,-0.53334 1.29193,-1.38071 1.86667,-1.8389c0.75143,-0.59908 1.61053,-0.82024 2.53333,-0.68022c0.96368,0.14621 1.56973,0.8098 2.39822,1.20712c0.82037,0.39343 1.01813,1.23758 0.25424,1.43111c-0.89108,0.22575 -1.85245,0.01422 -2.65247,0.01422c-0.93332,0 -1.86664,0 -2.66666,0l-0.93332,0" id="svg_8" stroke-width="5" stroke="#000000" fill="none"></path> <path d="m352,164.00003c2,0 2.93335,0 3.73334,0c0.93335,0 1.86667,0 2.66666,0c0.93335,0 1.86688,-0.01883 2.66669,0c1.0195,0.024 1.58609,0.69412 1.60001,1.59999c0.01227,0.79991 0.05148,1.77913 -0.56711,2.36623c-0.62585,0.59399 -0.9968,1.36163 -1.43289,2.03378c-0.5148,0.79344 -0.71317,1.79129 -1.4809,1.98576c-0.89108,0.22572 -1.85245,0.01682 -2.65244,0.01424c-0.93335,-0.00301 -1.95303,-0.12357 -2.50558,-0.69446c-0.6524,-0.67409 -0.76465,-1.57222 -1.16464,-2.37222l-0.48447,-0.66666l-0.35089,-0.93333" id="svg_9" stroke-width="5" stroke="#000000" fill="none"></path> <path d="m330.66669,158.66669c0,2.20355 0,3.12978 0,4.15289c0,0.77444 0,1.71378 0,2.64734c0,0.71443 0,1.62822 0,2.53311c0,0.68799 0,1.81866 0,2.79999c0,0.8 0,1.73334 0,2.6669c0,0.71443 0,1.62822 0,2.53311c0,0.68799 0,1.81866 0,2.79999c0,0.8 0,1.73334 0,2.6669c0,0.71443 0,1.62822 0,2.53311c0,0.68799 0,1.83289 0,2.51199c0,1.02489 0,1.95111 0,2.976c0,0.67911 0,1.60712 0,2.51201c0,0.68799 0,1.81866 0,2.79999c0,0.8 -0.12637,1.78384 0.2222,2.53334c0.34451,0.74078 1.24445,1.46666 1.7778,2c0.66666,0.66666 1.31592,1.11842 1.77777,2c0.36865,0.70366 0.91635,1.31944 1.8222,1.33333c0.79993,0.01227 1.73334,0 2.66669,0c0.79999,0 1.76111,0 2.62222,0c0.89243,0 1.65042,0 2.71088,0c0.78601,0 1.75311,0 2.724,0l0.74112,0l0.93512,0" id="svg_10" stroke-width="5" stroke="#000000" fill="none"></path> <path d="m318.66669,222.66669c2.35733,-0.75732 2.99893,-1.1375 3.66577,-1.53244c0.64169,-0.38005 1.70593,-0.91652 2.48709,-1.15378c0.93933,-0.28529 1.83487,-0.67838 2.53513,-0.9351c0.96024,-0.35204 1.8345,-0.461 2.62399,-0.75734c0.6983,-0.26212 1.78564,-0.80125 2.50668,-0.90666c0.97217,-0.14211 1.78131,-0.048 2.71466,-0.048c0.93332,0 1.73889,-0.08911 2.68088,0.01422c1.0231,0.11223 1.65012,0.47023 2.35202,0.752c1.06329,0.42685 1.88611,0.56 2.70044,0.56711c0.79996,0.00699 1.81866,0.048 2.39999,0.66667c0.58133,0.61867 1.46667,0.66667 2.26666,0.66667c0.93335,0 1.8667,-0.006 2.66666,0c0.94766,0.00711 1.96021,0.21039 2.60358,0.47021c0.70129,0.28322 1.75848,0.7675 2.58221,0.84889c0.81039,0.08006 1.61423,0.01422 2.57532,0.01422c1.06735,0 1.73935,0 2.66025,0c0.96909,0 1.71021,0 2.64532,0c0.93332,0 1.73334,-0.00528 2.66666,0c1.06073,0.006 1.84528,0.43111 1.952,1.14844c0.12891,0.86636 0.048,1.84801 0.048,2.6969c0,1.02489 0.03323,1.72141 -0.00021,2.79243c-0.02399,0.76779 -0.69391,1.34834 -1.59979,1.36223c-0.7999,0.01227 -1.73563,-0.06398 -2.66666,0.00177c-0.80579,0.0569 -1.51895,0.70976 -2.39999,1.10934c-0.75278,0.3414 -1.73383,0.19247 -2.66666,0.22221c-0.75317,0.02402 -1.22302,0.67836 -2,1.55556c-0.41986,0.47403 -1.04633,0.8817 -1.68002,1.34401c-0.62857,0.45857 -1.70764,1.23598 -2.26443,1.73933c-0.74323,0.67192 -1.24112,1.26376 -1.90268,1.76111c-0.76733,0.57686 -1.50128,0.90848 -2.17419,1.33333c-0.99884,0.63062 -1.62915,1.22922 -2.40714,1.73334c-0.65631,0.42526 -1.38559,0.77315 -2.20978,1.33311c-0.71103,0.48309 -1.57419,1.03789 -2.46222,1.15222c-0.69153,0.08904 -1.75845,-0.12587 -2.6311,0.16177c-0.87479,0.28833 -1.58252,1.08334 -2.26843,1.19177c-0.9223,0.1458 -1.73334,0.02779 -2.66669,0.02779c-0.93332,0 -1.82581,-0.37878 -2.75198,0.04799c-0.77103,0.35527 -1.27139,1.38297 -1.84445,0.81512c-0.62329,-0.61761 -1.22437,-1.01903 -1.79755,-1.80957c-0.42737,-0.58945 -0.73206,-1.70424 -0.93933,-2.3591c-0.31174,-0.98488 -1.01962,-1.56822 -1.25711,-2.42778c-0.24939,-0.90263 -0.00702,-1.79286 -0.4567,-2.53334c-0.45154,-0.74355 -1.21985,-1.33302 -1.75287,-1.86665c-0.79868,-0.79956 -1.40546,-1.2742 -1.75467,-2.13512c-0.28687,-0.70723 -0.46866,-1.72159 -0.80646,-2.39822c-0.34976,-0.70062 -1.5466,-1.5099 -1.478,-2.28444c0.07617,-0.86029 0.83612,-1.39777 0.83911,-2.3609c0.00214,-0.68799 -0.00009,-1.7991 0,-2.50667c0.00012,-0.98111 0.05545,-1.97414 0.93933,-2.17532c0.90442,-0.20587 1.72736,-0.22823 2.39401,-0.67267l0.79999,-0.50467l0.80002,-0.15599l0.93332,-0.00601" id="svg_11" stroke-width="5" stroke="#000000" fill="none"></path> <path d="m354.66669,216.00003c0,4.24754 0,5.06311 0,6c0,0.93689 0,1.75244 0,2.72356c0,0.944 0,1.60889 0,2.25244l0,1.27155l0,0.81557" id="svg_12" stroke-width="5" stroke="#000000" fill="none"></path> <path d="m328,221.33336c0,2 0,2.93333 0,3.73334c0,0.93333 0,1.86844 0,2.78044l0.00177,0.79822l0.04623,0.9209" id="svg_13" stroke-width="5" stroke="#000000" fill="none"></path> <path d="m342.66669,220.00003c-3.15201,0 -4.13333,0 -4.93335,0c-0.93332,0 -2.00949,-0.36261 -2.68622,0.11377c-0.64633,0.45497 -0.38043,1.61955 -0.38043,2.55289c0,0.8 0,1.73334 0,2.66667c0,0.8 0,1.73334 0,2.66667l0,0.79999l0,0.93333" id="svg_14" stroke-width="5" stroke="#000000" fill="none"></path> <path d="m285.33334,288.00003c-2,0 -2.93335,0 -3.73334,0c-0.93332,0 -1.87683,-0.05151 -2.68579,0.07623c-0.98318,0.15524 -1.60764,0.34726 -2.53198,0.78598c-0.59668,0.2832 -1.40796,1.11407 -1.74335,1.94333c-0.28174,0.69662 -0.85242,2.08798 -1.15332,2.64157c-0.32947,0.60611 -0.71088,1.23816 -1.13,1.888c-0.43182,0.66949 -0.89041,1.33514 -1.37,1.98401c-0.47171,0.63824 -1.41638,1.80466 -1.88977,2.2991c-0.85043,0.88828 -1.26276,1.25891 -2.05225,1.82889c-0.66241,0.47824 -1.73135,1.07721 -2.48175,1.1911c-0.95151,0.14441 -1.88956,0.25912 -2.5618,0.69513c-0.79355,0.51468 -1.60001,0.66364 -2.54755,0.66666c-1.008,0.0032 -1.65601,0 -2.58221,0c-1.02312,0 -1.79756,0 -2.73691,0c-0.93332,0 -1.73332,0 -2.66666,0l-0.93333,0l-0.8,0" id="svg_15" stroke-width="5" stroke="#000000" fill="none"></path> <path d="m377.33334,277.33337c1.86667,0.58133 2.66666,1.33328 3.20001,1.86664c0.53336,0.53336 1.21198,1.21201 1.88577,1.8858c0.69199,0.69199 1.27155,1.27155 1.9151,1.9151c0.33246,0.33246 0.992,0.992 1.888,1.888c0.698,0.698 1.26401,1.26401 2,2c0.42313,0.4231 1.11108,1.11115 1.57422,1.57422c0.84149,0.8414 1.26028,1.49252 2.20355,1.98132c0.74579,0.38647 1.61313,0.59644 2.27734,1.13245c0.4696,0.37897 1.40961,1.14539 2.20599,1.77557c0.43295,0.34259 0.88708,0.69211 1.78223,1.45956c0.45032,0.38608 1.3092,1.17035 2.03845,1.98267c0.67047,0.74686 0.92657,1.13815 1.47443,1.77664c0.83084,0.96829 1.72739,1.33502 2.48822,1.80911c0.58347,0.36359 1.28497,1.2767 1.86667,1.7049c0.74628,0.54929 1.60001,0.58044 2.53336,0.58133c0.93509,0.00089 1.84711,0 2.64532,0c0.9209,0 1.99289,0 2.68799,0c1.09534,0 1.78134,0 2.53934,0c1.06046,0 1.84644,0 2.81357,0l0.97089,0l0.74112,0l0.93509,0" id="svg_16" stroke-width="5" stroke="#000000" fill="none"></path> <path d="m345.33334,220.00003c0,2 0,2.93333 0,3.73332c0,0.96112 0,2.02846 0,2.70045l0,0.92088l-0.00601,0.96312" id="svg_17" stroke-width="5" stroke="#000000" fill="none"></path> <path d="m262.66669,164.00003c-1.22311,-2.74135 -1.26062,-3.16289 -1.36111,-4.08334c-0.10944,-1.00238 -0.13272,-1.53835 -0.56268,-3.11644c-0.14667,-0.53827 -0.34238,-1.06641 -0.77066,-2.10577c-0.21262,-0.51595 -0.67273,-1.50935 -1.08334,-2.47223c-0.38708,-0.90773 -0.72311,-1.80217 -0.88889,-2.25c-0.33966,-0.91765 -0.88736,-2.41725 -1.09509,-2.96201c-0.2153,-0.56461 -0.43497,-1.14143 -0.90491,-2.28799c-0.22955,-0.56004 -0.66638,-1.61453 -1.1111,-2.5c-0.35623,-0.70929 -1.04123,-1.58913 -1.39378,-2.35533c-0.36128,-0.78516 -1.04289,-1.11588 -1.89511,-1.67645c-0.59012,-0.38817 -1.2,-1.12376 -1.86667,-1.79044c-0.67023,-0.67023 -1.12225,-1.12219 -1.69421,-1.69423c-0.76294,-0.76306 -1.38983,-1.38744 -2.06689,-2.09467c-0.35492,-0.37073 -1.07671,-1.13553 -1.75,-1.94444c-0.65451,-0.78636 -0.95197,-1.18553 -1.5,-1.97221c-0.5181,-0.74373 -1.1759,-1.80027 -1.54001,-2.44556c-0.32838,-0.582 -0.70465,-1.36501 -1.07022,-2.4c-0.33853,-0.95848 -1.09583,-1.36663 -1.33154,-2.32c-0.13957,-0.56451 -0.09126,-1.52798 -0.11401,-2.67155c-0.01596,-0.80209 -0.32866,-1.6347 -0.76599,-2.324c-0.49261,-0.77644 -0.56622,-1.6 -0.56711,-2.53333c-0.00089,-0.93333 0,-1.73334 0,-2.72222c0,-1.05556 0,-1.63512 0,-2.61111c0,-0.65955 -0.06012,-1.81385 0.02777,-2.66666c0.11563,-1.12206 0.34735,-1.69584 0.55356,-2.36267c0.22707,-0.73428 0.48428,-1.5085 0.88533,-2.70355c0.2648,-0.78907 0.50969,-1.55432 0.8,-2.248c0.49348,-1.17915 1.03574,-1.72282 1.51111,-2.68578c0.3383,-0.68531 0.65324,-1.78528 0.98134,-2.35734c0.37421,-0.65246 0.80841,-1.31753 1.26399,-1.952c0.77478,-1.079 1.26617,-1.65112 1.9769,-2.35734c0.54947,-0.54599 1.27939,-1.0963 2.05666,-1.46667c0.91393,-0.43549 1.65196,-0.51679 2.61,-1.2c0.60805,-0.43361 1.10284,-1.09211 2,-1.55556c0.72585,-0.37495 1.29959,-1.14821 1.86667,-1.63022c0.75832,-0.64455 1.6582,-0.73651 2.39999,-1.19467c0.74014,-0.45715 1.29584,-1.27187 1.96268,-1.75288c0.83578,-0.60286 1.45291,-0.82097 2.43735,-1.17223c0.6543,-0.23347 1.81161,-0.52271 2.45154,-0.66067c1.10785,-0.23883 1.76294,-0.49943 2.496,-0.848c1.05981,-0.50394 1.58081,-0.80922 2.46912,-1.18578c0.67133,-0.28458 1.91525,-0.67185 2.40201,-0.8c1.05576,-0.27795 1.61642,-0.39819 2.74664,-0.66666c0.55756,-0.13244 1.1095,-0.22923 2.54846,-0.66644c0.79138,-0.24046 1.70963,-0.67371 2.664,-0.978c0.72382,-0.23079 1.51944,-0.31573 2.58133,-0.60088c0.65918,-0.17702 1.34918,-0.40955 2.064,-0.576c1.32089,-0.30759 2.21909,-0.35628 2.7709,-0.44888c1.08063,-0.18135 1.85153,-0.51469 2.59644,-0.79289c1.02026,-0.38104 1.95526,-0.33322 2.87622,-0.498c0.83029,-0.14856 1.41183,-0.85271 2.26843,-1.19356c0.70911,-0.28216 1.70795,-0.49615 2.39822,-0.77866c1.10754,-0.45329 1.83218,-0.63776 2.88889,-0.66666c0.6478,-0.01772 1.60593,0.02156 2.41602,-0.29511c0.73407,-0.28696 1.57419,-0.87589 2.46222,-0.99023c0.69153,-0.08904 1.89032,-0.02601 2.6311,-0.048c0.93637,-0.02779 1.74368,-0.58403 2.1351,-1.13422c0.54544,-0.76666 1.20642,-1.40604 2.09424,-1.64267c0.75827,-0.2021 1.70508,-0.46225 2.37155,-0.656c1.22031,-0.35474 2.09723,-0.17511 2.77866,-0.78933c0.59802,-0.53903 1.08072,-1.06183 1.95557,-1.58133c0.70856,-0.42077 1.52087,-0.70391 2.39999,-1.15822c0.72522,-0.37479 1.50293,-0.8233 2.26666,-1.15022c0.87061,-0.37266 1.27026,-0.90965 2.0289,-1.64978c0.69458,-0.67762 1.21179,-1.167 1.82001,-1.59289c0.94803,-0.66381 1.67917,-0.9756 2.38998,-1.28422c0.67868,-0.29466 1.84128,-0.82104 2.63889,-1.33333c0.72604,-0.46633 1.5683,-0.63685 2.32401,-1.07489c0.62631,-0.36303 1.48294,-1.10579 2.19379,-1.48622c0.52573,-0.28136 1.75638,-0.80969 2.44977,-1.06489c0.71817,-0.26431 1.44745,-0.51331 2.17603,-0.688c1.31921,-0.3163 2.2049,-0.30616 2.92975,-0.49244c1.00394,-0.258 1.51447,-0.93164 2.51556,-1.17333c0.90891,-0.21943 1.69601,-0.048 2.57779,-0.048c0.896,0 1.55554,0 2.53156,0c1.06488,0 1.84354,0 2.78598,0c0.93246,0 1.70706,-0.03278 2.77136,0.00356c0.80121,0.02735 1.63574,0.15371 2.39975,0.58667c0.83163,0.47129 1.22675,1.02596 2.17801,1.632c0.81729,0.52068 1.70148,1.02665 2.11734,1.62133c0.34445,0.49257 0.70419,1.0965 1.49533,2.05156c0.60168,0.72635 1.30212,1.44001 1.65668,1.80444c0.70566,0.72536 1.39731,1.41155 2.03732,2.05156c0.58667,0.58666 1.12247,1.11752 2.02667,2.02667c0.54749,0.5505 1.17725,1.20681 1.68887,1.98378c0.42349,0.64314 0.69235,1.41553 1.60001,2.098c0.60727,0.4566 1.33646,1.08494 1.73334,1.72089c0.53757,0.86137 1.16916,1.50105 1.64444,2.41956c0.3392,0.65552 0.64395,1.57382 1.16867,2.20355c0.39795,0.47757 1.091,1.13708 1.87134,1.94933c0.59787,0.62233 1.01755,1.47507 1.31201,2.07645c0.45401,0.92718 0.99777,1.47602 1.6142,2.11911c0.68372,0.7133 1.05484,1.07615 2.25601,2.096c0.39343,0.33404 1.18488,0.94422 1.94446,1.5c0.35806,0.262 1.06921,0.68798 2.09286,1.54178c0.71689,0.59794 1.10532,1.47381 1.36624,2.11378c0.39706,0.97382 1.0719,1.21129 1.90198,1.73334c0.77893,0.48988 1.00095,1.32086 1.58002,2.05688c0.50333,0.63975 1.13889,1.27966 1.78,1.936c0.31064,0.31802 1.4104,1.35126 1.94556,2.00711c0.48712,0.59698 0.85663,1.39007 1.26978,2.34844c0.30109,0.6984 0.58096,1.43956 1.21423,2.42267c0.40933,0.63545 0.89539,1.18217 1.36798,1.68c0.82526,0.86931 1.51382,1.51645 2.20355,2.21555c0.52271,0.52982 1.125,1.32904 1.33334,2.02778c0.31656,1.06168 0.58435,1.76646 0.81421,2.30111c0.52609,1.2237 0.79813,1.91349 1.03824,2.65244c0.2475,0.76163 0.47375,1.54716 0.65244,2.75201c0.1181,0.79651 0.14639,1.60149 0.23199,2.39999c0.12891,1.20271 0.298,1.99905 0.49689,2.77156c0.18924,0.73506 0.43658,1.39017 0.69601,2.694c0.12845,0.64561 0.28421,1.73626 0.45065,2.47222c0.19147,0.84663 0.4278,1.74392 0.5589,2.19444c0.37689,1.29511 0.67032,2.0378 1.0329,3.04c0.22531,0.6228 0.50925,1.57882 0.61823,2.62534c0.07349,0.70584 0.07321,1.38931 0.0762,2.5451c0.0025,0.96222 0,1.79245 0,2.70445c0,0.8 0,1.76711 0,2.81955c0,0.8 0,1.60001 0,2.66667c0,0.79399 0,1.552 0,2.638c0,0.81444 -0.01794,1.76216 0,2.69533c0.01392,0.72263 0.21548,1.77965 0.37866,2.35733c0.27661,0.97929 0.54315,1.62141 0.79269,2.78557c0.17609,0.82146 0.16199,1.74599 0.16199,2.62422c0,0.696 0,1.7191 0,2.49355c0,0.93933 0.01068,1.87274 0,2.67267c-0.01389,1.03917 -0.47403,1.69521 -1.46667,1.73334c-0.79941,0.03072 -1.73334,0 -2.66666,0c-0.79999,0 -1.73334,0 -2.66666,0l-0.80002,0l-0.93332,0" id="svg_18" stroke-width="5" stroke="#000000" fill="none"></path> <path d="m350.66669,74.66669c-1.86667,1.86667 -2.40002,2.4 -3.06668,3.06667c-0.53333,0.53333 -1.33932,1.33932 -1.78134,1.78133c-0.70755,0.70755 -1.35556,1.35555 -1.81866,1.81866c-0.68799,0.688 -1.48627,1.48618 -2.11911,2.11912c-0.68073,0.68082 -1.29434,1.15205 -1.71933,2.01444c-0.33362,0.67699 -0.73376,1.64376 -1.31,2.30022c-0.41907,0.47744 -1.31653,1.32462 -1.84201,1.90199c-0.48141,0.52895 -1.03604,1.43082 -1.40353,2.33801c-0.26416,0.65208 -0.50952,1.30742 -0.77756,2.46933c-0.19601,0.84971 -0.25256,1.48641 -0.54047,2.54756c-0.1756,0.64718 -0.51819,1.62689 -0.73242,2.53156c-0.20712,0.87463 -0.22223,1.91111 -0.22223,2.71111l0,0.93333l0,0.93333l0,0.8" id="svg_19" stroke-width="5" stroke="#000000" fill="none"></path> <path d="m372,93.33335c0,2 0,2.93333 0,3.73334c0,0.98889 0,2.04444 0,2.62933c0,1.054 0,1.85889 0,2.288c0,1.37733 0,2.34089 0,2.82133c0,0.93156 0,1.78844 0,3.12c0,0.832 -0.01157,1.67475 0,2.47467c0.01392,0.96141 0.28922,2.03085 0.56711,2.70044c0.28992,0.69857 0.65247,1.71912 0.76022,2.49356l0.00601,0.93933" id="svg_20" stroke-width="5" stroke="#000000" fill="none"></path> <path d="m293.33334,86.66669c-2,0 -2.93335,0 -3.73334,0c-0.93332,0 -1.90701,-0.16096 -2.66666,0.11378c-0.88519,0.32015 -1.36261,1.16753 -1.73355,1.94334c-0.45016,0.94154 -0.68561,1.67091 -1.04691,2.366c-0.5394,1.0377 -1.00803,1.64697 -1.51401,2.188c-0.49176,0.52586 -1.56479,1.37127 -2.09955,1.71266c-0.74823,0.47766 -1.67795,0.97527 -2.38644,1.57133c-0.59024,0.49656 -1.26401,1.216 -1.84534,1.79733c-0.65601,0.656 -1.00198,1.002 -1.70999,1.71c-0.354,0.354 -1.37311,1.36409 -1.97601,1.982c-0.54242,0.55592 -1.1922,1.3 -1.72733,2.10178l-0.224,0.912" id="svg_21" stroke-width="5" stroke="#000000" fill="none"></path> </g> </svg>