<svg width="640" height="480" xmlns="http://www.w3.org/2000/svg" xmlns:svg="http://www.w3.org/2000/svg"> <!-- Created with SVG-edit - http://svg-edit.googlecode.com/ --> <g> <title>Layer 1</title> <path d="m95.09088,147.09088c1.6,-0.61067 2.21837,-1.42308 3,-1.83333c0.6586,-0.34569 1.76499,-0.60876 2.376,-0.87651c0.70772,-0.31012 1.48383,-0.67223 2.79066,-1.12349c0.45084,-0.15569 1.37585,-0.41399 2.29167,-0.64584c0.44378,-0.11235 1.3016,-0.27161 2.68433,-0.7195c0.7832,-0.25369 1.35174,-0.58621 2.44067,-0.80133c0.63519,-0.12549 1.62363,-0.22046 2.4845,-0.35266c0.95315,-0.14638 1.44031,-0.2303 2.3975,-0.36334c1.24705,-0.17332 2.17949,-0.26227 2.8595,-0.2795c1.03884,-0.02631 1.97517,-0.00441 2.87516,-0.0045c0.89983,-0.00009 1.41854,-0.66046 2.15717,-0.93834c0.81583,-0.30693 1.66912,0.70079 2.34283,0.99101c0.84179,0.36263 1.65948,0.76044 2.40001,1.16882c0.67448,0.37196 1.26021,1.19852 1.81732,1.97717c0.50006,0.69891 1.26801,0.82666 2.19734,1.08533l0.68399,0.43201l0.90134,0.33667l0.8,0.44733" id="svg_2" stroke-width="5" stroke="#000000" fill="none"/> <path d="m151.09088,144.09088c1.8,0 2.4724,-0.24107 3.16933,-0.716c0.7365,-0.50189 1.94994,0.04817 2.664,-0.45067c0.71646,-0.5005 1.37541,-0.62086 2.08534,-1.11867c0.75429,-0.5289 1.13596,-1.04651 1.87733,-1.27866c1.02275,-0.32025 2.04025,-0.15425 2.87067,-0.60268c0.82957,-0.44797 1.39963,-0.6886 2.31183,-1.05466c0.77402,-0.31061 1.45506,-0.93367 2.07417,-1.42601c0.64728,-0.51474 1.64732,-0.35266 2.54733,-0.35266c0.89999,0 1.79999,0 2.7045,0c0.86217,0 1.6955,0 2.674,0c0.82016,0 1.78941,0.07759 2.46434,-0.44267c0.63591,-0.49019 1.34821,-1.35165 2.05716,-1.51566c0.96085,-0.22227 1.71066,-0.04167 2.69983,-0.04167c0.77934,0 1.77885,-0.00513 2.68417,0c0.94138,0.00534 1.79269,-0.16231 2.57433,0.52083c0.6916,0.60445 1.12363,1.33621 1.89351,1.53185c0.91118,0.23154 1.63885,0.83479 2.44817,0.946c0.83699,0.11501 1.43774,0.72562 2.00133,1.17065c0.71181,0.56209 1.25346,1.42012 1.89867,1.936c0.66025,0.52792 0.98642,1.34622 1.584,2.18001c0.5251,0.73265 0.91803,1.4705 1.716,1.88133c0.67181,0.34587 1.48534,0.748 2.21066,0.82266l0.98917,0.01067l0.96417,0" id="svg_4" stroke-width="5" stroke="#000000" fill="none"/> <path d="m98.09088,159.09088c1.81467,-0.01067 2.52427,-0.49059 3.28667,-0.91467c0.77264,-0.42978 1.7851,-0.08363 2.48534,-0.256c0.88557,-0.21799 1.86834,-0.67921 2.54133,-0.97867c0.63365,-0.28194 1.88661,-0.48842 2.66134,-0.86133c0.67342,-0.32414 1.192,-1.23077 1.78249,-1.68933c0.85432,-0.66344 1.64479,-1.00511 2.44267,-1.39984c0.77688,-0.38434 1.62238,-0.81206 2.49567,-0.89566c0.90039,-0.0862 1.812,0.11075 2.69383,-0.0045c0.85399,-0.1116 1.47658,-0.80482 2.26783,-0.94284c0.93175,-0.16252 1.93833,-0.05902 2.68567,-0.05716c0.90001,0.00226 1.80516,0.3674 2.45717,0.716c0.84739,0.45306 1.59378,0.72662 2.30017,1.384c0.65132,0.60614 1.36183,1.14366 2.07449,1.46399c0.91551,0.4115 1.96223,0.47227 2.46817,1.1405c0.52637,0.69521 0.59222,1.79504 1.457,2.174c0.81589,0.35751 1.32997,1.12714 0.72949,1.83617c-0.48987,0.57841 -1.52637,0.32893 -2.51334,0.57068c-0.82491,0.20206 -1.63419,0.51051 -2.63199,0.91333c-0.68553,0.27675 -1.35782,0.57645 -2.36934,0.716c-0.83012,0.11453 -1.716,0.08466 -2.91467,0.08533c-0.6,0.00034 -1.50001,-0.00432 -2.69967,0.00017c-0.59135,0.00221 -1.47445,-0.14803 -2.55733,0.22133c-0.77602,0.26469 -1.25095,1.10936 -1.943,1.49316c-0.82449,0.45726 -1.836,0.28534 -2.684,0.28534c-0.86333,0 -1.88,0 -2.716,0c-0.9,0 -1.8,0 -2.716,0c-0.7885,0 -1.72,0 -2.56934,0c-0.91917,0 -1.91333,0 -2.67867,0c-0.95067,0 -1.836,0 -2.636,0l-0.89999,0" id="svg_5" stroke-width="5" stroke="#000000" fill="none"/> <path d="m164.09088,157.09088c0.02083,-3.45833 0.25908,-4.22362 0.80133,-4.8c0.66766,-0.70967 1.57224,-0.99393 2.39734,-1.48399c0.72168,-0.42863 1.51117,-0.716 2.31866,-0.716c0.84666,0 1.78267,0 2.68401,0c0.96533,0 1.81949,0 2.79866,0c0.78934,0 1.51466,0 2.47917,0c0.92082,0 1.82533,0 2.84233,0c0.69933,0 1.6785,0 2.4785,0c0.8,0 1.7955,0 2.71466,0c0.86,0 1.80667,0 2.66,0c0.94,0 1.82533,0 2.62534,0c0.89999,0 1.81961,-0.00195 2.59999,0.42534c0.82257,0.45038 1.70001,0.57466 2.60001,0.57466c0.8,0 1.77744,-0.08968 2.44267,0.44284c0.62683,0.50177 1.37175,1.34531 1.536,2.1465c0.16495,0.80466 -0.08798,1.81741 -0.6245,2.41066c-0.5659,0.62576 -1.77896,0.99091 -2.25951,1.11333c-1.05066,0.26767 -1.61447,0.35129 -2.17867,0.44c-1.09547,0.17224 -2.50946,0.32263 -3.24817,0.3985c-0.64726,0.06648 -1.60832,0.19403 -2.75299,0.49101c-0.452,0.11728 -1.40863,0.40924 -2.3775,0.74249c-0.47107,0.16202 -1.71188,0.63174 -2.5605,1.05299c-0.77617,0.38528 -1.52147,0.62489 -2.45601,0.76167c-1.02344,0.1498 -1.46585,0.71867 -2.23067,1.2955c-0.58276,0.43953 -1.66431,0.68649 -2.6115,0.7045c-0.67854,0.01289 -1.65717,0 -2.47733,0c-0.90134,0 -1.80135,0 -2.72217,0c-0.96317,0 -1.65384,0 -2.722,0c-0.85735,0 -1.64867,0.09669 -2.57184,-0.01067c-0.95934,-0.11156 -1.35201,-0.98933 -1.83267,-1.68933l-0.33183,-0.8l-0.03149,-0.89999" id="svg_6" stroke-width="5" stroke="#000000" fill="none"/> <path d="m81.09088,163.09088c0,-1.7 0,-2.60001 0,-3.52083c0,-0.96317 0,-1.65384 0,-2.7265c0,-0.91934 0,-1.75267 0,-2.73134c0,-0.774 0,-1.674 0,-2.53734c0,-0.96317 0,-1.784 0,-2.68533c0,-0.96533 0,-1.84033 0,-2.48532c0,-0.99734 0,-1.81334 0,-2.62933c0,-1.22234 0,-2.02234 0,-2.92683c0,-0.85718 0,-1.75717 0,-2.6425c0,-0.94 0,-1.63068 0,-2.6355c0,-1.02184 0,-1.72984 0,-2.47383c0,-1.19101 0,-2.00534 0,-2.80534c0,-0.89999 0,-1.8 0,-2.7c0,-0.9 0,-1.8 0,-2.7c0,-0.90017 0,-1.68533 0,-2.62534c0,-1.008 -0.00057,-1.87017 0,-2.6955c0.00067,-0.96183 -0.17695,-2.05777 0.61066,-2.45783c0.81236,-0.41264 1.70395,-0.26061 2.41017,-0.52133c0.97034,-0.35822 1.78778,-0.42381 2.57916,-0.584c1.01062,-0.20456 1.71272,-0.68012 2.64733,-0.85883c0.90472,-0.173 1.75267,-0.05717 2.73117,-0.05717c0.82017,0 1.72156,0.01041 2.6215,0c0.90018,-0.01042 1.6033,-0.5432 2.5,-0.8785c0.85064,-0.31808 1.51285,-0.46429 2.1215,-1.00017c0.70767,-0.62306 1.18935,-0.97296 1.80383,-1.68533c0.52557,-0.60929 1.57468,-0.43073 2.47467,-0.436c0.91071,-0.00533 1.81851,-0.22832 2.5,-0.5c0.97456,-0.38853 1.90982,-0.1344 2.64283,-0.55717c0.81115,-0.46784 1.35717,-0.94283 2.15717,-0.94283c0.89999,0 1.8,0 2.7,0c0.9,0 1.82433,0.07848 2.66666,-0.16666c0.86178,-0.25081 1.70061,-0.56122 2.52884,-0.886c0.74667,-0.2928 1.32452,-1.15144 2.00449,-1.59016c0.7522,-0.48532 1.77689,-0.6587 2.47467,-0.93184c0.93241,-0.36499 1.71825,-0.48567 2.65067,-0.85066c0.69778,-0.27314 1.65366,-0.56358 2.564,-0.57467c0.89595,-0.01092 1.64478,-0.33118 2.41068,-0.716c0.78592,-0.39487 1.68399,-0.284 2.54733,-0.284c1.01666,0 1.86525,0.1498 2.7525,-0.00017c0.85202,-0.144 1.29918,-0.72043 2.19566,-1.00433c0.77036,-0.24397 1.27237,-0.94805 2.11349,-0.991c0.98708,-0.0504 1.89751,-0.03059 2.57018,-0.5045c0.65309,-0.46012 1.55554,-0.44714 2.32083,-0.85267c0.84604,-0.44833 1.58533,-0.64666 2.51466,-0.64733c0.94267,-0.00068 1.75467,0 2.53717,0c1.01216,0 1.94817,0 2.8495,0c0.96533,0 1.63466,0 2.39999,0c1.188,0 1.91333,0 2.87784,0c0.92082,0 1.84044,-0.05223 2.85416,0.16666c0.68579,0.14809 1.44167,0.4543 2.5,0.66667c0.69951,0.14037 1.505,0.16441 2.53067,0.16666c0.94051,0.00207 1.80267,0 2.65683,0c0.97917,0 1.77917,0 2.57918,0c0.9955,0 1.74283,0 2.76399,0c0.936,0 1.8933,0.1637 2.73601,-0.22134c0.6693,-0.30579 1.42065,-0.76824 2.38266,-0.77866c0.80745,-0.00874 1.8252,0.20028 2.716,-0.00134c0.80847,-0.18298 0.99347,-1.33401 1.688,-1.71333c0.70145,-0.3831 1.62933,-0.28466 2.5925,-0.28533c0.91016,-0.00063 1.86403,0.08334 2.5625,-0.04166c0.98607,-0.17648 1.7272,-0.83579 2.30116,-1.25301c0.87091,-0.63307 1.75734,-0.70533 2.5425,-0.70533c0.94,0 1.96925,-0.11028 2.67717,0.08334c0.61011,0.16686 1.42746,0.79608 2.15266,1.33183c0.8107,0.59891 1.21346,0.92758 2.03416,1.53416c1.07817,0.79687 1.6759,1.17719 2.38268,1.61867c0.84814,0.52979 1.49599,1.06532 2.1895,1.7535c0.51648,0.5125 1.08299,1.083 1.87866,1.87866c0.6105,0.6105 1.03464,1.03703 1.96651,1.9665c0.51668,0.51534 1.03641,1.063 1.608,1.536c1.02106,0.84495 1.77245,1.09941 2.56366,1.341c0.9115,0.27831 1.41753,0.9855 1.71434,1.65633c0.37505,0.84765 1.14925,1.49809 1.64732,2c0.69202,0.69735 1.17506,1.50465 1.30017,2.4c0.12665,0.90647 0.65475,1.46512 0.9745,2.31067c0.33372,0.88253 0.47377,1.63597 1.12534,2.56783c0.45233,0.64692 1.14075,1.18871 1.59999,1.77866c0.66212,0.8506 0.97345,1.60809 1.49867,2.35751c0.49174,0.70164 0.76718,1.64043 1.23734,2.28533c0.56831,0.77954 1.36017,1.25514 1.55333,2.2c0.17621,0.86192 0.70615,1.04517 1.48984,1.42083c0.70325,0.33708 0.48677,1.51668 0.80482,2.46451c0.24858,0.7408 0.59697,1.50833 0.68001,2.31467c0.08202,0.79654 0.036,1.81349 0.036,2.7715c0,0.9285 0,1.68317 0,2.52583c0,0.89867 0,1.82133 0,2.73599c0,0.87868 0,1.70934 0,2.48401c0,1.34933 0,2.16833 0,2.86133c0,1.0215 0,1.84216 0,2.50667c0,1.00133 0,1.85634 0,2.80133c0,1.035 0,1.77501 0,2.55501c0,0.81999 0,2.125 0,3.04233c0,0.46867 0,1.416 0,2.36333c0,0.46867 0,1.83118 0,2.69551c0,0.83633 0,1.65266 0,2.85716c0,0.79866 0,1.58934 0,2.364c0,0.75067 0,2.15201 0,2.81067c0,0.65067 0,1.992 0,2.70799c0,0.73201 0,1.45601 0,2.78401c0,0.8235 0,1.54799 0,2.75499c0,0.54001 0,1.425 0,2.74501c0,0.71733 0,1.45866 0,2.20799c0,0.74133 0.00682,2.14151 -0.01067,2.8c-0.01729,0.65092 -0.14729,1.99348 -0.27333,2.71066c-0.13222,0.75233 -0.30736,1.52252 -0.43201,2.31601c-0.18771,1.19496 -0.23683,1.99826 -0.26317,2.79866c-0.02632,0.79974 -0.02083,2 -0.02083,2.80133c0,0.80934 0,1.63467 0,2.48401c0,1.33583 0,1.79733 0,2.72932c0,0.924 0,1.81601 0,3.0425c0,0.733 0,1.42201 0,2.091c0,1.37317 0,2.10451 0,2.85184c0,0.74733 0,1.83333 0,2.83833c0,0.91499 0.05264,1.47652 -0.009,2.709c-0.03401,0.68007 -0.30865,1.62691 -0.69633,2.40984c-0.42691,0.86217 -0.81635,1.41805 -1.12534,2.64549c-0.15332,0.60902 -0.19766,1.61395 -0.336,2.73067c-0.10381,0.83797 -0.18274,1.27792 -0.35416,2.1875c-0.17574,0.93253 -0.27448,1.39784 -0.57901,2.75734c-0.19186,0.85652 -0.39195,1.65666 -0.543,2.403c-0.2574,1.27182 -0.30983,2.06026 -0.40984,2.767c-0.13835,0.97778 -0.38304,1.7636 -0.59467,2.54201c-0.28116,1.03416 -0.3429,2.00529 -0.70982,2.71967c-0.42107,0.81978 -1.04724,1.47791 -1.3575,2.17416c-0.40056,0.8989 -0.28467,1.71733 -0.28534,2.716c-0.00053,0.79999 0.00006,1.79999 0,2.59999c-0.00009,0.99983 0.17119,1.83791 -0.2215,2.7785c-0.33307,0.79778 -1.0692,1.37653 -1.76434,1.77867c-0.81473,0.47133 -1.63538,0.73451 -2.57283,1.06816c-0.50238,0.1788 -1.54832,0.52573 -2.07733,0.69067c-1.5177,0.47321 -1.9919,0.60391 -2.892,0.84799c-0.84933,0.2303 -1.66963,0.43347 -2.87167,0.73601c-0.79152,0.19922 -1.56157,0.38966 -2.286,0.59999c-0.98517,0.28603 -1.82253,0.56105 -2.493,0.93599c-0.85347,0.47729 -1.38605,1.04987 -2.16417,1.65417c-0.7442,0.57797 -1.68999,0.83585 -2.29317,1.35651c-0.72844,0.62878 -1.22252,1.19983 -1.82567,1.87216c-0.71936,0.80185 -1.22374,1.44806 -1.76366,2.13184c-0.27539,0.34879 -0.80136,1.06107 -1.608,2.01599c-0.70088,0.82971 -1.14305,1.33395 -1.936,1.84534c-0.83241,0.53683 -1.54591,0.7312 -2.2515,1.02966c-0.73692,0.31171 -1.83823,0.92807 -2.49117,1.509c-0.65796,0.58539 -1.18817,1.25305 -1.716,1.81201c-0.77678,0.82257 -1.54674,1.16107 -2.07201,1.85165c-0.48529,0.638 -0.88448,1.69495 -1.22083,2.28568c-0.34737,0.61008 -1.09673,1.62753 -1.65384,2.12799c-0.75945,0.68222 -1.58731,0.91745 -2.12984,1.58633c-0.52231,0.64395 -1.00261,1.49796 -1.52083,2.07501c-0.50835,0.56607 -1.23909,1.39499 -1.9845,1.90616c-0.69046,0.47348 -1.4528,0.70108 -2.242,1.00452c-1.02838,0.39539 -1.69102,0.74994 -2.54683,1.01465c-0.98212,0.30377 -1.81404,0.28857 -2.804,0.56934c-0.64894,0.18405 -1.36011,0.48746 -2.56534,0.63068c-0.67966,0.08075 -1.3813,0.07999 -2.69867,0.08533c-0.819,0.00333 -1.51199,0 -2.53333,0c-0.8,0 -1.80421,-0.07224 -2.77917,0.02084c-0.86259,0.08237 -1.59309,0.59045 -2.42082,0.95383c-0.78539,0.34479 -1.58755,0.93546 -2.35718,1.02084c-0.89008,0.09875 -1.83076,-0.04919 -2.60683,0.44049c-0.83842,0.52902 -1.27803,1.22839 -2.17867,1.4425c-0.69382,0.16495 -1.68933,0.12082 -2.64301,0.12149c-0.91451,0.00064 -1.69966,0 -2.63966,0c-1.008,0 -1.76401,0 -2.6955,0c-0.96451,0 -1.68991,0.01239 -2.67934,-0.00015c-0.82086,-0.01041 -1.97,-0.15219 -2.48384,-0.28519c-0.8222,-0.2128 -1.65359,-0.466 -2.62933,-0.91733c-0.66133,-0.30591 -1.55432,-1.11096 -1.93399,-1.81168c-0.27855,-0.5141 -0.6091,-1.40231 -1.07401,-2.28549c-0.47621,-0.90466 -0.8687,-1.45486 -1.512,-2.53351c-0.41961,-0.70358 -0.75371,-1.35715 -1.16666,-2.16666c-0.3978,-0.77979 -1.00111,-1.66483 -1.636,-2.05066c-0.84949,-0.51624 -1.37709,-0.95697 -2.19733,-1.78268c-0.55025,-0.55392 -0.94614,-1.01721 -1.488,-1.93082c-0.3489,-0.58826 -0.85498,-1.595 -1.19466,-2.26917c-0.46475,-0.92239 -0.80915,-1.70654 -1.28267,-2.47867c-0.46854,-0.76401 -0.98269,-1.28003 -1.68533,-2.25867c-0.35373,-0.49268 -0.8903,-1.32416 -1.34933,-2.22934c-0.29918,-0.58994 -0.63898,-1.48181 -0.96533,-2.31467c-0.39311,-1.00327 -0.69646,-1.66687 -1.00134,-2.284c-0.49216,-0.99625 -0.93611,-1.64844 -1.67916,-2.38049c-0.57562,-0.56711 -1.24234,-0.9823 -1.81634,-1.73068c-0.44423,-0.57919 -0.52292,-1.67258 -0.7135,-2.59467c-0.18645,-0.90208 -0.84526,-1.52757 -1.34283,-2.04283c-0.75096,-0.77765 -1.20063,-1.39493 -1.669,-2.15266c-0.46715,-0.75575 -1.37469,-1.11436 -1.87383,-1.8045c-0.5669,-0.78383 -0.95157,-1.56467 -1.5715,-2.04283c-0.90637,-0.69913 -1.51427,-0.83376 -2.2365,-1.278c-0.99157,-0.60992 -1.12511,-1.4568 -1.63067,-2.20799c-0.41797,-0.62105 -1.17028,-0.9855 -2.03066,-1.556c-0.82596,-0.54767 -1.62258,-0.74968 -2.40533,-1.18001c-0.76826,-0.42236 -1.27346,-0.79755 -2.309,-1.40916c-0.6693,-0.39531 -1.52149,-0.71687 -2.29633,-1.45351c-0.58377,-0.55499 -0.951,-1.33002 -1.2825,-1.935c-0.36831,-0.67215 -0.73273,-1.39754 -1.34283,-2.46632c-0.39202,-0.68674 -1.00583,-1.65674 -1.45717,-2.26218c-0.68707,-0.92165 -1.22776,-1.5025 -1.7575,-2.10449c-0.52626,-0.59802 -1.06932,-1.16513 -1.64233,-2.09967c-0.52127,-0.85016 -0.67531,-1.45055 -1.143,-2.367c-0.43694,-0.85622 -0.87896,-1.6613 -0.964,-2.584c-0.06834,-0.74152 0.0093,-1.78714 -0.09317,-2.61183c-0.11307,-0.90997 -0.30271,-1.51204 -0.44283,-2.22083c-0.15534,-0.7858 -0.34989,-2.08203 -0.41467,-3.00067c-0.0663,-0.94029 -0.07113,-1.41591 -0.08083,-2.36333c-0.0142,-1.38594 -0.0045,-2.26868 -0.0045,-2.70001c0,-0.85266 0,-1.70532 0,-3.01933c0,-0.91466 0,-1.377 0,-2.29166c0,-0.87466 0,-2.04167 0,-2.97467c0,-0.771 0,-1.73367 0,-2.53767c0,-0.948 0,-1.68666 0,-2.99333c0,-0.48799 0,-1.51199 0,-2.036c0,-1.04201 0,-1.548 0,-2.93584c0,-0.80167 0,-1.90416 0,-2.63083c0,-1.17599 0,-2.03867 0,-2.48399c0,-0.89868 0,-1.78134 0,-3.00618c0,-0.72433 0,-1.68582 0,-2.77649c0,-0.714 0,-1.61934 0,-2.58784c0,-0.79349 0,-1.569 0,-2.7645c0,-0.81433 0,-1.61433 0,-2.51433c0,-0.936 0,-1.784 0,-2.64734c0,-1.01666 0,-1.85266 0,-2.75267c0,-0.89999 0,-1.7 0,-2.59999c0,-0.90001 0,-1.864 0,-2.74667l0.00017,-0.8745l0.03584,-0.8175" id="svg_7" stroke-width="5" stroke="#000000" fill="none"/> <path d="m80.09088,112.09088c0,-2.55334 -0.05124,-3.46393 0.22134,-4.3215c0.22803,-0.71744 0.61015,-1.67883 0.75333,-2.46783c0.18954,-1.04445 0.53551,-1.70001 1.22533,-2.41066c0.59101,-0.60886 1.2953,-1.13955 1.716,-2c0.4174,-0.8537 0.79845,-1.42204 1.60484,-1.82084c0.81121,-0.40118 1.45899,-1.04058 2.0805,-1.41116c0.94183,-0.56158 1.83575,-0.54382 2.51334,-1.136c0.70046,-0.61218 1.28323,-1.39464 2.18533,-1.432c0.90189,-0.03735 1.68682,-0.13982 2.46933,-0.56934c0.76854,-0.42184 1.26991,-0.80361 2.309,-1.409c0.6672,-0.38872 1.44654,-0.69946 2.4425,-1.0425c0.82307,-0.28349 1.4903,-0.69447 2.3005,-1.1645c0.57906,-0.33593 1.46478,-0.82738 2.368,-1.168c0.84195,-0.31751 1.89387,-0.49825 2.564,-0.632c0.76683,-0.15306 1.59527,-0.89724 1.99934,-1.3665c0.68892,-0.80007 1.40804,-1.23993 2.36466,-1.5655c0.84111,-0.28625 1.65077,-0.65889 2.44517,-1.1035c0.60077,-0.33624 1.5983,-0.82786 2.31883,-1.09383c0.71717,-0.26474 1.44972,-0.39971 2.61867,-0.88533c0.83701,-0.34772 1.44668,-0.84314 2.27333,-1.2c0.79304,-0.34235 1.4458,-0.51601 2.56001,-0.8c0.8317,-0.21199 1.71752,-0.39915 2.616,-0.6c0.44543,-0.09957 1.71847,-0.3957 2.48,-0.59867c1.03056,-0.27468 1.65382,-0.48866 2.871,-0.68016c0.60558,-0.09528 1.57625,-0.15611 2.27032,-0.2905c1.1812,-0.22873 2.02675,-0.5328 2.45866,-0.68134c0.85019,-0.29238 1.61295,-0.64425 2.83467,-0.98c0.82668,-0.22718 1.80347,-0.33155 2.476,-0.45467c0.79431,-0.14542 1.66748,-0.32151 2.58,-0.516c0.91415,-0.19484 1.79076,-0.39697 2.612,-0.58801c0.7494,-0.17432 1.97133,-0.42623 2.77068,-0.58533c0.86804,-0.17278 1.69414,-0.60669 2.69733,-0.85867c0.77597,-0.19491 1.54411,0.03459 2.5,-0.20833c0.88599,-0.22515 1.47983,-1.01975 2.10133,-1.39034c0.94183,-0.56158 1.81366,-0.56976 2.51601,-1.136c0.61981,-0.49971 1.41878,-1.21886 2.16533,-1.38133c0.57018,-0.12408 1.8918,-0.36156 2.60266,-0.62133c0.75977,-0.27763 1.52768,-0.64583 2.31601,-1.03201c0.80109,-0.39243 1.59946,-0.79064 2.37733,-1.19733c0.75273,-0.39355 1.47499,-0.76392 2.37833,-1.39983c0.79361,-0.55868 1.19179,-1.00259 2.043,-1.6335c0.76413,-0.56636 1.53151,-0.94156 2.24733,-1.46666c0.65274,-0.47884 1.64998,-0.99503 2.18333,-1.5c0.71925,-0.68098 0.90485,-1.7691 1.66934,-2.0785c0.84183,-0.3407 1.79312,-0.34272 2.60799,0.1305c0.42397,0.24621 1.06256,1.29577 1.35201,1.752c0.69341,1.09295 1.06642,1.74516 1.48,2.45066c0.44655,0.76176 0.91945,1.58167 1.96001,3.37867c0.56352,0.97318 1.15034,1.98418 1.75349,3.021c0.61151,1.05119 1.22536,2.10419 1.8345,3.147c0.59651,1.02118 1.17332,2.00878 2.24533,3.832c0.4799,0.81618 0.92337,1.56705 1.33351,2.2575c0.3779,0.63618 0.72816,1.22216 1.05449,1.7625c0.30273,0.50129 0.58527,0.96836 1.112,1.81333c0.24391,0.39129 0.48134,0.764 0.7095,1.1235c0.22118,0.3485 0.43733,0.68837 0.6465,1.0245c0.20715,0.33289 0.41992,0.66193 1.011,1.707c0.41617,0.7358 0.83324,1.52472 1.314,2.34c0.25211,0.42752 1.12534,1.76134 1.45233,2.21967c0.33131,0.46438 1.01259,1.37695 1.34668,1.82133c0.63347,0.84257 1.43681,1.92339 1.81516,2.52583c0.45749,0.72851 0.84196,1.5874 1.2715,2.35017c0.37479,0.66553 1.11324,1.37623 1.68401,1.93734c0.67169,0.66032 1.07474,1.45383 1.34134,2.10933c0.2823,0.69412 0.44377,1.72424 0.93182,2.47467c0.51816,0.79671 1.22885,1.29249 2.04283,1.67467c0.88145,0.41386 1.11775,1.23862 1.76668,1.85867c0.55121,0.52669 1.65866,0.592 2.34933,0.88267l0.96317,0.26316l0.92082,0.02084l0.89551,0" id="svg_8" stroke-width="5" stroke="#000000" fill="none"/> <path d="m231.09088,160.09088c-0.97917,-1 -1,-2.02083 -1,-2.86c0,-0.765 0,-1.425 0,-2.64c0,-0.94934 0,-1.44901 0,-2.45833c0,-0.96935 0,-2.20834 0,-2.815c0,-0.90417 -0.00195,-1.84628 0.42534,-2.62666c0.45038,-0.82257 0.46941,-1.70619 0.57466,-2.60001c0.08592,-0.72972 1.12164,-1.12956 1.979,-0.55701c0.49753,0.33226 1.04332,1.20035 1.785,1.75684c0.57089,0.42834 1.24332,0.76659 2.18399,1.31483c1.004,0.58516 1.60066,1.07922 2.452,1.46001c0.78273,0.3501 1.41319,0.89168 1.56401,1.87199c0.09363,0.60866 0.05334,1.83971 0.01466,2.38933c-0.06134,0.87132 -0.40439,2.07161 -0.68401,2.6595c-0.41896,0.88087 -0.82147,1.38649 -1.12534,2.42184c-0.27084,0.92284 -0.32922,2.01729 -0.45332,2.65067c-0.13405,0.68413 -0.38806,1.72226 -0.54933,2.69867c-0.13475,0.81584 -0.15077,1.74258 -0.45067,2.73199c-0.23747,0.78348 -0.65379,1.57332 -0.71468,2.39999c-0.06413,0.87099 -0.00133,1.744 -0.00133,2.70134c0,0.73199 0,1.828 0,2.7c0,0.90001 0,1.8 0,2.60001c0,0.89999 0,1.8 0,2.72083c0,0.96451 0,1.68983 0,2.67934c0,0.82066 0,1.48517 0,2.748c0,0.7905 0,1.71851 0,2.53101c0,1.00482 0,1.6955 0,2.76816c0,0.91934 -0.02083,1.73184 -0.284,2.58334l-0.66333,0.52199" id="svg_9" stroke-width="5" stroke="#000000" fill="none"/> <path d="m76.09088,169.09088c0,-1.7 0.14431,-2.61761 -0.04166,-3.54167c-0.16647,-0.82709 -0.65616,-1.4792 -1.17967,-2.24367c-0.36983,-0.54005 -1.16623,-1.53816 -1.75783,-2.17299c-0.52579,-0.56421 -1.39107,-1.19736 -1.85417,-2.04167c-0.36421,-0.66402 -1.16666,-1 -1.96667,-1c-0.89999,0 -1.8027,-0.03322 -2.5215,0.66451c-0.59118,0.57384 -0.89201,1.16557 -1.27983,1.7395c-0.80458,1.19069 -1.18889,1.79225 -1.59867,2.36c-0.78157,1.08286 -1.21449,1.53654 -1.75833,2.21516c-0.48666,0.60727 -0.97655,1.61104 -1.03267,2.36366c-0.07593,1.01837 -0.009,1.85851 -0.009,2.82384c0,0.83333 0,1.81183 0,2.63199c0,0.90134 -0.14076,1.81573 0.01067,2.60133c0.18253,0.94698 0.98957,1.59976 1.48933,2.10001c0.699,0.69966 1.19967,1.30612 1.56133,2.172c0.36657,0.87762 0.81136,1.61026 1.16,2.18533c0.38208,0.63022 0.9886,1.6584 1.36967,2.39084c0.37759,0.72575 0.75324,1.42113 1.07566,2.4185c0.33383,1.03268 0.31931,1.89159 0.76933,2.70799c0.46937,0.85152 0.96989,1.45827 1.264,2.02983c0.5089,0.98897 0.98886,1.72238 1.21467,2.71017c0.1982,0.86707 0.44207,1.49759 1.00134,2.17067c0.55601,0.66916 0.73133,1.41466 1.07333,2.31467l0.0315,0.89999l0.33633,0.7955l0.74266,0.58316" id="svg_10" stroke-width="5" stroke="#000000" fill="none"/> <path d="m81.09088,101.09088c-0.01067,1.82533 -0.088,2.88319 -0.52084,3.47916c-0.58145,0.80061 -1.32098,1.28933 -1.4685,2.15684c-0.16971,0.99802 -0.11826,1.89154 -0.872,2.31333c-0.91202,0.51036 -1.56351,0.87756 -1.852,1.568c-0.38693,0.92606 -0.77605,1.70796 -1.16534,2.58283c-0.32993,0.74148 -0.52518,1.5327 -0.83733,2.41583c-0.29785,0.84267 -0.284,1.8055 -0.284,2.69466c0,0.98917 0,1.7685 0,2.76801c0,0.774 0,1.6785 0,2.42583c0,0.99416 0,1.7595 0,2.83833c0,0.85716 0,1.75716 0,2.64249c0,0.94 0,1.63068 0,2.61467c0,0.98534 -0.019,1.71085 0.00017,2.69966c0.018,0.92886 0.48662,1.56792 0.9745,2.23634c0.55843,0.76508 0.77928,1.4397 1,2.38933c0.23231,0.99948 0.65348,1.627 0.90383,2.496c0.23821,0.82687 -0.07898,1.85626 0.28816,2.67867c0.35986,0.80608 1.34285,1.18146 1.71184,2.10001c0.33852,0.84271 0.1215,1.7 0.1215,2.536c0,1.02116 0,1.76849 0,2.76399c0,0.8 0,1.79984 0,2.57918c0,0.99933 0,1.81949 0,2.72083l0,0.864" id="svg_11" stroke-width="5" stroke="#000000" fill="none"/> <path d="m139.09088,176.09088c0,2.62267 0,3.07233 0,4.04167c0,0.50366 0,1.50899 0,2.89349c0,0.78433 0,1.76083 0,2.73151c0,0.79166 0,1.73332 0,2.63783c0,0.86217 0,1.6955 0,2.67416c0,0.774 0,1.683 0,2.483c0,0.95966 0,1.76366 0,2.58566c0,1.03101 0,1.911 0,2.93117c0,0.82016 0.0251,1.65791 -0.00133,2.50684c-0.02864,0.92041 -0.28487,1.91251 -0.57333,2.67867c-0.30634,0.81363 -0.54192,1.6156 -1,2.436c-0.4314,0.77261 -0.81474,1.51387 -1.47801,2.04733c-0.57584,0.46313 -1.5672,0.35025 -2.34732,0.778c-0.82291,0.4512 -1.72997,0.76114 -2.3,1.27916c-0.73033,0.66368 -1.19702,1.45351 -1.27917,2.2955c-0.09505,0.97409 -0.49367,1.85555 0.03633,2.64284c0.46065,0.68427 1.64284,0.35716 2.46367,0.35716c0.96451,0 1.68983,0 2.679,0c0.96417,0 1.91484,0 2.80017,0c0.87866,0 1.68474,-0.01265 2.48534,-0.56799c0.56534,-0.39215 1.50085,-1.1393 2.10567,-1.32217c0.82333,-0.24895 1.34863,-1.02895 1.92982,-1.589c0.65289,-0.62915 1.79512,-0.71799 2.47917,-0.1875c0.65852,0.51068 1.07504,1.54405 1.97467,1.66667c0.81909,0.11165 1.72533,0 2.54616,0c0.96317,0 1.82651,0.00063 2.722,0c0.95584,-0.00067 1.49506,-0.61021 2.19318,-0.964c0.77136,-0.3909 1.74695,0.76151 2.528,0.37868c0.19781,-0.09697 0.0988,-1.17468 0.02699,-2.06734c-0.05634,-0.70035 -0.71896,-1.57245 -1.34283,-2.10001c-0.64607,-0.54633 -1.18623,-1.2168 -1.52682,-2.22583c-0.27039,-0.80107 -0.827,-1.44244 -1.08534,-2.42149c-0.22981,-0.87091 -0.036,-1.8 -0.036,-2.70001c0,-0.89999 -0.07848,-1.63727 -0.70534,-2.2045c-0.68979,-0.62418 -1.22946,-1.34737 -1.28566,-2.09999c-0.07404,-0.99146 -0.009,-1.93834 -0.009,-2.84283c0,-0.91934 0,-1.79434 0,-2.43933c0,-0.996 0,-1.79251 0,-2.98001c0,-0.8125 0,-1.65466 0,-2.508c0,-0.94 0,-1.92534 0,-2.82533c0,-0.75717 0,-1.65266 0,-2.51601c0,-0.96317 0.20935,-1.9511 -0.17067,-2.65332c-0.46175,-0.85326 -1.34352,-1.07143 -1.715,-2.078c-0.32076,-0.86913 -0.11433,-1.7735 -0.11433,-2.75267c0,-0.8 0.03523,-1.6008 -0.0045,-2.591c-0.02792,-0.69609 -0.60617,-1.45966 -1.291,-2.11433l-0.41916,-0.72667l-0.28534,-0.90132l0,-0.85201" id="svg_12" stroke-width="5" stroke="#000000" fill="none"/> <path d="m120.09088,237.09088c1.82533,-0.436 2.49055,-0.84033 3.37466,-1.38933c0.77135,-0.47899 1.62517,-0.60025 2.604,-0.61067c0.77396,-0.00824 1.69739,0.06981 2.483,-0.11433c0.98782,-0.23154 1.48936,-0.61285 2.38499,-1.035c0.63287,-0.29829 1.6705,-0.63329 2.40601,-0.74083c1.117,-0.16333 1.86823,-0.1591 2.92616,-0.33116c0.6768,-0.11008 1.6786,-0.37445 2.3905,-0.49467c1.1683,-0.19731 2.04482,-0.23131 2.50267,-0.248c0.94904,-0.03461 1.93066,-0.03532 2.92799,-0.036c0.99733,-0.00066 1.97867,0 2.45833,0c0.92734,0 2.20834,0 2.97234,0c0.70801,0 1.7175,0 2.73601,0c0.71599,0 1.448,0 2.5235,0c0.9765,0 1.7955,0 2.70084,0c1.00899,0 1.80899,0 2.80882,0c0.77934,0 1.77884,0 2.55284,0c0.89999,0 1.76334,0 2.7265,0c0.92082,0 1.81633,0 2.6875,0c0.72,0 1.65866,0 2.66666,0c0.86217,0 1.6875,0 2.65067,0c0.69067,0 2.03235,-0.2126 2.42934,0.57066c0.29471,0.58147 -0.07933,1.65282 -0.43416,2.40851c-0.41624,0.88652 -1.00093,1.47952 -1.67784,2.22083c-0.53362,0.58438 -0.62137,1.57195 -1.23734,2.22534c-0.62207,0.65987 -1.38461,0.91393 -1.89732,1.74133c-0.44905,0.72467 -1.05418,1.21097 -1.64517,2.03316c-0.41112,0.57195 -0.71732,1.40105 -1.45351,2.17484c-0.55521,0.58356 -1.32414,0.96132 -2.24399,1.44c-0.64268,0.33444 -1.22946,0.74791 -2.457,1.071c-0.7317,0.19258 -1.71367,0.11377 -2.55367,0.11433c-1,0.00067 -1.85611,0.00534 -2.47501,0.05716c-1.00743,0.08435 -2.09515,0.29732 -2.85916,0.44284c-0.78333,0.1492 -1.97771,0.34924 -2.77917,0.41467c-0.79886,0.06522 -1.59995,0.07889 -2.39999,0.084c-1.19997,0.00766 -2,0.00133 -2.8,0.00133c-0.8,0 -2,0 -2.79866,0c-0.79068,0 -1.56534,0 -2.31601,0c-1.06383,0 -2.04933,0 -2.67467,0c-1.21066,0 -2.10616,0 -2.68983,0c-0.83549,0 -2.05916,0 -2.85916,0c-0.909,0 -1.82834,0 -2.66167,0c-0.9785,0 -1.79866,0 -2.7,0c-0.9,0 -1.8,0.00008 -2.71067,0c-0.91084,-0.00009 -1.62595,0.0612 -2.58933,-0.16667c-0.80833,-0.19119 -1.48969,-0.66943 -2.47916,-0.8125c-0.98992,-0.14314 -1.84219,-0.21344 -2.54167,-0.52083c-0.94299,-0.41438 -1.78635,-0.53308 -2.46183,-1.07066c-0.72295,-0.57536 -1.27403,-1.40503 -1.44534,-2.21867c-0.15012,-0.713 -0.072,-1.8 -0.072,-2.62132c0,-0.91051 -0.011,-1.72807 0,-2.69467c0.01042,-0.91568 0.16265,-1.91624 0.64667,-2.52c0.6063,-0.7563 1.18933,-1.18933 1.75784,-1.66483l0.99416,-0.53917l0.76534,-0.14934l0.952,-0.02266" id="svg_13" stroke-width="5" stroke="#000000" fill="none"/> <path d="m120.09088,241.09088c4.19217,0.87849 4.95721,0.91866 5.7785,0.94284c0.86005,0.02533 1.74231,0.03828 2.6295,0.04649c0.87515,0.00809 1.72133,0.00999 3.25867,0.01067c0.66167,0.00029 1.25333,0 1.78499,0c0.92334,0 1.72667,0 2.88167,0c0.83334,0 1.70667,0 2.58,0c0.83334,0 1.92216,0 2.77867,0c0.6945,0 1.70799,0 2.508,0c0.99983,0 1.964,0 2.91467,0c0.88533,0 1.68533,0 2.58533,0c0.90001,0 1.8,0 2.71066,0c0.91084,0 1.61017,0 2.58934,0c0.97917,0 1.86493,0.18108 2.6955,-0.05716c0.90033,-0.25824 1.62119,-0.86406 2.32533,-0.92201c0.97609,-0.08034 1.95834,-0.02083 2.8125,-0.02083c0.86217,0 1.81815,0.01184 2.65067,-0.284c0.70609,-0.25092 1.63068,-0.63068 2.51601,-0.716c0.88533,-0.08533 1.64816,-0.35716 2.43066,-0.80133l0.54851,-0.69867l0.37349,-0.8l0.526,-0.8" id="svg_14" stroke-width="5" stroke="#000000" fill="none"/> <path d="m178.09088,270.09088c0,1.79999 0,2.5625 0,3.5c0,0.87149 0,1.5625 0,2.31351c0,1.18649 -0.01091,1.98273 0.01067,2.75449c0.02966,1.06113 0.11461,2.22021 0.55183,2.91116c0.34045,0.53802 1.20766,1.29611 1.73083,1.8035c0.59639,0.5784 1.27386,1.21228 2.03999,1.884c0.82678,0.72488 1.26851,1.08481 1.70667,1.45868c0.87537,0.74695 1.32332,1.09503 2.46001,2.20801c0.34435,0.33716 0.9357,1.02405 1.54167,1.64581c0.61548,0.6315 1.78593,1.53009 2.26582,1.82101c0.51323,0.31116 1.07333,0.61432 2.29668,1.22067c0.64656,0.32047 1.31958,0.63373 2.0025,0.96448c1.3959,0.67606 2.09402,1.03549 2.79733,1.39734c0.70969,0.36514 1.42555,0.73694 2.15849,1.0965c0.74306,0.36453 1.50229,0.7269 2.2935,1.05151c1.63081,0.66907 2.50612,0.93463 3.39999,1.20267c0.91313,0.27383 1.85211,0.52628 2.8065,0.78751c0.9696,0.26541 1.95512,0.52795 2.9415,0.83249c2.00478,0.61896 2.99896,1.00189 3.992,1.39868c0.99405,0.39719 1.97322,0.8212 2.9415,1.24799c0.95572,0.42126 1.88843,0.84787 2.8065,1.24799c1.75116,0.76321 2.58812,1.09442 3.39467,1.39334c0.7693,0.2851 1.50858,0.53598 2.2155,0.75452c0.66791,0.20648 1.30136,0.38562 1.9005,0.52948c1.07477,0.25809 1.55904,0.33688 2.008,0.40533c0.42146,0.06424 0.8251,0.11023 1.21651,0.1485c0.38594,0.03772 0.77454,0.06665 1.17149,0.10352c0.84982,0.07895 1.80316,0.19928 2.31183,0.27451c1.0594,0.15665 1.59888,0.24591 2.67084,0.44415c1.03471,0.19138 1.99838,0.39877 2.46133,0.49417c0.90477,0.18646 1.80681,0.37891 3.23866,0.53784c0.50806,0.0564 1.56735,0.11371 2.10667,0.13065c1.0731,0.03369 1.5975,0.03375 3.06,0.03601c0.84933,0.00131 1.63467,0 2.412,0c0.82533,0 1.75467,0 2.82399,0c0.57468,0 1.76401,0 2.36267,0c0.59067,0 2.23468,0 2.71552,0c0.86166,0 1.97916,-0.00012 2.66583,0c1.04132,0.00018 1.77585,-0.03372 2.89465,0.07199c0.74457,0.07034 1.81302,0.34933 2.47266,0.63785c0.66241,0.2897 1.28015,0.70029 2.67419,1.26865c0.72385,0.29514 1.49722,0.50848 2.28299,0.71701c1.19241,0.31641 1.59622,0.40036 2.38651,0.60449c1.13855,0.29407 1.84555,0.47845 2.76599,0.79984c0.77753,0.27148 1.63022,0.66376 2.64301,0.8475c0.79395,0.14404 1.80569,0.32684 2.42084,0.57352c0.66946,0.26843 1.66687,0.6777 2.52081,1c0.62076,0.23431 1.62729,0.64069 2.33969,0.96182c0.72501,0.32681 1.75165,0.8075 2.61865,1.18399l0.80267,0.26135" id="svg_15" stroke-width="5" stroke="#000000" fill="none"/> <path d="m124.09088,275.09088c-0.01067,1.81467 -0.31248,2.65131 -1,3.33334c-0.49752,0.49356 -0.7945,1.20316 -1.54266,2.30914c-0.45087,0.6665 -0.70339,1.00098 -1.20667,1.67084c-0.47831,0.63663 -1.26413,1.64767 -1.86533,2.29068c-0.68812,0.73593 -1.22472,1.26959 -1.96133,1.80051c-0.89178,0.64276 -1.67474,1.00143 -2.091,1.18649c-0.86686,0.38541 -1.78494,0.70966 -2.25166,0.83832c-1.34855,0.37173 -2.22433,0.46405 -3.0605,0.57068c-0.8165,0.1041 -2.029,0.30731 -2.8235,0.57068c-0.82805,0.27448 -1.2383,0.47263 -2.11166,0.83832c-1.41788,0.59369 -1.9268,0.79492 -2.45367,0.98969c-1.0796,0.39908 -1.62998,0.58664 -2.72667,0.94415c-0.53636,0.17487 -2.06107,0.63818 -2.53067,0.77051c-0.86928,0.24496 -1.63978,0.46561 -2.87466,0.72c-0.82066,0.16907 -1.56273,0.31012 -2.55334,0.73599c-0.6407,0.27545 -1.30759,0.61414 -1.98,0.948c-1.19899,0.59534 -1.95261,0.97052 -2.64933,1.36667c-0.74615,0.42426 -1.53163,0.95016 -2.092,1.25467c-1.03947,0.56485 -1.7887,0.65204 -2.73867,0.944c-0.91657,0.28171 -1.34624,0.74545 -2.25083,1.45999c-0.59353,0.46881 -1.25102,0.96518 -1.935,1.452c-0.95971,0.68307 -1.51918,1.05392 -2.25917,1.46368c-1.02711,0.56876 -1.66513,0.80698 -2.44167,1.29883c-0.82687,0.52371 -1.39627,1.06091 -1.94283,1.59015c-0.78189,0.75708 -1.37256,1.32886 -2.0465,2.04202c-0.61875,0.65479 -0.61066,1.52533 -0.61066,2.24832c0,1.02899 0,1.89835 0,2.86368c0,0.49866 0,1.48798 0,2.832c0,0.72531 0,1.58331 0,2.26132l0,1.19467l0,0.72534l0,0.96448" id="svg_16" stroke-width="5" stroke="#000000" fill="none"/> </g> </svg>