<svg width="640" height="480" xmlns="http://www.w3.org/2000/svg" xmlns:svg="http://www.w3.org/2000/svg"> <!-- Created with SVG-edit - http://svg-edit.googlecode.com/ --> <g> <title>Layer 1</title> <path d="m225,118c0,1.8 0.10863,2.71217 -0.04167,3.5625c-0.17088,0.96684 -0.51964,1.4987 -0.84099,2.1455c-0.36272,0.73006 -0.7876,1.50706 -1.539,2.69267c-0.25894,0.40857 -0.8271,1.24062 -1.12001,1.68266c-0.62445,0.9424 -0.95795,1.45029 -1.625,2.58334c-0.36191,0.61473 -0.71994,1.26996 -1.0905,1.9485c-0.38014,0.69611 -0.76169,1.40674 -1.15349,2.11949c-0.39188,0.71292 -0.76601,1.42957 -1.58934,2.76534c-0.77568,1.25845 -1.19255,1.83058 -1.58934,2.392c-0.38698,0.54753 -0.77954,1.07246 -1.52533,2.104c-0.7234,1.00058 -1.06702,1.50169 -1.39999,2.00267c-0.65565,0.9865 -0.9635,1.48114 -1.58084,2.44417c-0.30267,0.47215 -1.20236,1.83629 -1.50049,2.26782c-0.56889,0.82349 -0.8559,1.19623 -1.3325,1.91333c-0.72932,1.09734 -1.04024,1.85381 -1.0715,2.91901c-0.02139,0.72868 0,1.56599 0,2.757c0,0.59999 0,1.5 0,2.7c0,0.60266 0,1.54167 0,2.21434c0,1.11899 0,1.95499 0,2.847c0,0.924 -0.00104,1.39049 0,2.77199c0.00067,0.88268 0.00227,1.74162 0.036,2.59201c0.01695,0.42751 0.12067,1.74268 0.248,2.65866c0.13106,0.94281 0.22591,1.41451 0.36334,2.36333c0.20047,1.38399 0.23758,1.83037 0.29999,2.68651c0.05855,0.80325 0.07828,1.90471 0.27434,2.82367c0.1739,0.81509 0.54358,1.60347 0.94501,2.5425c0.32152,0.75211 0.66479,1.58862 1.04399,2.46001c0.19154,0.44017 0.77718,1.71315 1.18933,2.47066c0.38864,0.71431 0.80537,1.38081 1.20001,2.052c0.60797,1.034 1.01123,1.76509 1.35832,2.53816c0.34785,0.77478 0.53217,1.16544 0.79884,2.379c0.17314,0.7879 0.19998,1.58157 0.3255,2.71484c0.11815,1.06665 0.26591,1.73936 0.528,2.74666c0.18463,0.70961 0.4921,1.88191 0.59067,2.31601c0.21498,0.94673 0.32153,1.46808 0.55583,2.61749c0.12929,0.63428 0.41022,2.03836 0.564,2.81233c0.16226,0.81668 0.3299,1.66913 0.4935,2.5515c0.16748,0.90329 0.32944,1.82181 0.47549,2.74951c0.14594,0.92699 0.38318,2.75784 0.46735,3.64883c0.08235,0.87173 0.14124,1.72868 0.2025,2.571c0.06039,0.83035 0.11893,1.65143 0.2025,2.463c0.08313,0.80716 0.32419,2.41185 0.50217,3.209c0.17931,0.8031 0.40135,1.60309 0.65399,2.39999c0.25465,0.80325 0.54239,1.60266 0.85201,2.40001c0.31171,0.80272 0.99207,2.40175 1.35083,3.19983c0.35989,0.80061 0.73245,1.5972 1.1145,2.3895c0.38162,0.7914 0.77205,1.576 1.1685,2.3535c0.39424,0.77316 1.19354,2.29155 1.59517,3.035c0.39574,0.73253 0.78966,1.44792 1.179,2.14349c0.37805,0.6754 0.74782,1.32487 1.10699,1.94551c0.34222,0.59134 0.97937,1.66748 1.2715,2.14732c0.27199,0.44676 0.53123,0.86279 0.78149,1.2525c0.23883,0.37192 0.4695,0.73116 0.944,1.41333c0.72906,1.04814 1.26709,1.77779 1.85901,2.49918c0.29906,0.36446 0.89693,1.10817 1.97983,1.97783c0.70634,0.56726 1.10567,0.78654 1.88916,1.22166c0.78217,0.43437 1.99023,1.01939 2.388,1.22267c0.79283,0.40515 1.58052,0.81021 2.31601,1.284c1.08762,0.70062 1.73357,1.26627 2.38533,1.81467c0.32579,0.27411 0.9601,0.84964 2.02133,1.57867c0.71596,0.49185 1.48225,0.91547 2.226,1.37399c0.37048,0.22842 1.44246,0.95602 2.10901,1.51349c0.69687,0.58282 1.03918,0.91849 1.79832,1.60583c0.84334,0.76358 1.79675,1.59668 2.30333,2.03336c0.51741,0.44601 1.04228,0.89432 1.56601,1.34399c0.51826,0.44498 1.97838,1.71466 2.41133,2.10748c0.79306,0.71951 1.14966,1.0567 1.79666,1.68585c0.582,0.56595 1.58682,1.56409 2.01068,2.01065c0.54739,0.57669 1.06207,1.55661 1.51065,2.13068c0.70105,0.89719 1.36322,1.17126 2.03168,1.57767c1.20029,0.72974 1.67749,0.9635 2.17099,1.22232c1.04776,0.54953 1.60425,0.82077 2.17599,1.09067c1.16745,0.55109 2.36658,1.06219 2.96768,1.30383c0.59625,0.23969 1.77878,0.68607 2.35867,0.90067c0.56946,0.21072 1.67548,0.60812 2.70831,1.02084c0.97101,0.38803 1.42932,0.60318 2.35419,0.97916c0.46426,0.18872 1.42401,0.56482 2.47916,0.85419c1.14767,0.31476 1.771,0.41663 2.40799,0.54132c0.65399,0.12802 1.32578,0.24146 2.69601,0.50934c1.39786,0.27328 2.09601,0.43436 2.79065,0.59866c0.68802,0.16272 1.36255,0.33249 2.022,0.49649c1.25443,0.31195 1.83191,0.50418 3.39734,0.7775c0.85278,0.1489 1.60983,0.22525 2.26801,0.12003c1.24359,-0.19882 1.83975,-0.57187 2.418,-0.98083c0.62546,-0.44238 1.50464,-1.39212 2.11066,-2.15051c0.32788,-0.41031 1.04538,-1.29709 1.47736,-1.74133c0.45831,-0.47131 0.95529,-0.9791 2.24533,-1.83734c0.71799,-0.47766 1.54233,-0.89429 2.41949,-1.314c0.91873,-0.43961 1.89142,-0.85641 2.89648,-1.27798c1.02792,-0.43118 2.08218,-0.84412 4.18402,-1.74133c1.04776,-0.44727 2.07892,-0.91254 3.09598,-1.3815c1.00427,-0.46307 1.98782,-0.92996 2.95203,-1.3905c0.94315,-0.4505 1.85904,-0.89685 3.61865,-1.728c0.83344,-0.39365 1.64081,-0.76102 2.40149,-1.146c0.73126,-0.37009 1.4252,-0.74942 2.05051,-1.18201c0.60593,-0.41919 1.22559,-0.8425 2.048,-2.00534c0.42191,-0.59656 0.71375,-1.30716 0.957,-2.05649c0.25424,-0.78317 0.43274,-1.62845 0.57901,-2.5155c0.15237,-0.9241 0.26425,-1.89117 0.46399,-3.92801c0.10434,-1.0639 0.20078,-2.1546 0.29999,-3.267c0.1008,-1.13028 0.20026,-2.27466 0.30002,-3.429c0.10025,-1.16032 0.1991,-2.32274 0.39999,-4.63733c0.0994,-1.1452 0.19986,-2.28123 0.2955,-3.4095c0.09503,-1.12106 0.18649,-2.23613 0.26849,-3.34651c0.08167,-1.10596 0.16513,-2.20859 0.26935,-4.41066c0.05206,-1.09969 0.08514,-2.19989 0.10049,-3.3c0.01532,-1.09991 0.01166,-2.20018 -0.01651,-3.3c-0.02817,-1.10022 -0.06061,-2.20229 -0.25067,-4.39999c-0.09528,-1.10152 -0.23065,-2.20222 -0.38098,-3.3045c-0.15097,-1.10709 -0.32394,-2.21687 -0.50702,-3.3315c-0.18423,-1.12173 -0.38232,-2.24916 -0.77866,-4.53067c-0.2005,-1.15424 -0.39984,-2.3147 -0.60001,-3.47699c-0.19983,-1.16037 -0.3988,-2.31488 -0.60001,-3.459c-0.19882,-1.13055 -0.39218,-2.24414 -0.79999,-4.39734c-0.19626,-1.03622 -0.39792,-2.04443 -0.60001,-3.0285c-0.19794,-0.96391 -0.39877,-1.90926 -0.60001,-2.83949c-0.19876,-0.91876 -0.3996,-1.82809 -0.79999,-3.632c-0.19962,-0.89938 -0.39883,-1.79463 -0.59549,-2.68201c-0.194,-0.87529 -0.38403,-1.73459 -0.56851,-2.57399c-0.17917,-0.81526 -0.35269,-1.60225 -0.66934,-3.07733c-0.14624,-0.6813 -0.28329,-1.33186 -0.414,-1.96051c-0.12796,-0.61536 -0.25305,-1.22691 -0.37799,-1.84349c-0.12775,-0.63042 -0.25897,-1.28394 -0.54132,-2.696c-0.15469,-0.77364 -0.3179,-1.58897 -0.48151,-2.43901c-0.16846,-0.87527 -0.33505,-1.76863 -0.49051,-2.67299c-0.15555,-0.90498 -0.31509,-1.80238 -0.52798,-3.55467c-0.10135,-0.83423 -0.1691,-1.64357 -0.21902,-2.4285c-0.04855,-0.76314 -0.07657,-1.50891 -0.09299,-2.2395c-0.01614,-0.71843 -0.01999,-1.42799 -0.02133,-2.832c-0.00067,-0.7 0,-1.39999 0,-2.10001c0,-0.7 0,-1.39999 0,-2.09999c0,-0.7 0,-1.40001 0,-2.8c0,-0.69983 0,-1.39867 0,-2.0955c0,-0.69383 0,-1.38367 0,-2.0685c0,-0.67883 0.00034,-1.35066 0,-2.66933c-0.00018,-0.64568 0.00031,-1.28537 -0.009,-1.923c-0.00934,-0.63971 -0.02713,-1.28561 -0.06299,-1.94099c-0.03668,-0.67001 -0.07617,-1.36006 -0.26135,-2.80267c-0.09839,-0.76646 -0.23297,-1.56058 -0.39899,-2.38049c-0.1723,-0.85094 -0.38113,-1.72684 -0.633,-2.6235c-0.26047,-0.92725 -0.53793,-1.88618 -1.30133,-3.82933c-0.4003,-1.01894 -0.87146,-2.05321 -1.4205,-3.099c-0.57425,-1.09377 -1.24329,-2.20877 -2.0235,-3.33301c-0.82578,-1.18989 -1.73621,-2.44086 -4.056,-4.90133c-1.27634,-1.35373 -2.72565,-2.68571 -4.272,-4.03951c-1.60263,-1.40305 -3.29932,-2.78836 -5.064,-4.15649c-1.78665,-1.38517 -3.59888,-2.7601 -7.33069,-5.304c-1.82901,-1.2468 -3.66272,-2.41062 -5.46899,-3.525c-1.75928,-1.08539 -3.48566,-2.1063 -5.16299,-3.075c-1.61218,-0.93107 -3.16391,-1.80259 -6.03467,-3.39999c-1.30536,-0.72634 -2.52634,-1.40441 -3.672,-2.0295c-1.07043,-0.58405 -2.07452,-1.12309 -3.02402,-1.6065c-0.88879,-0.45251 -1.72098,-0.88502 -3.30399,-1.53067c-0.72879,-0.29724 -1.43967,-0.53513 -2.12399,-0.738c-0.65463,-0.19408 -1.29135,-0.35118 -1.90802,-0.486c-0.5961,-0.13033 -1.17862,-0.23746 -2.30133,-0.44267c-0.54565,-0.09973 -1.08481,-0.20041 -1.62299,-0.291c-0.53915,-0.09075 -1.08453,-0.17397 -1.64099,-0.237c-0.56894,-0.06445 -1.15683,-0.12937 -2.40268,-0.13866c-0.66388,-0.00495 -1.35141,0.03052 -2.0535,0.09c-0.71271,0.06038 -1.42743,0.14922 -2.13451,0.27c-0.69873,0.11936 -1.38812,0.23549 -2.64532,0.64c-0.58769,0.18909 -1.13094,0.42587 -1.638,0.681c-0.49033,0.24671 -0.94957,0.52077 -1.386,0.807c-0.42891,0.28129 -0.83916,0.5789 -1.64267,1.17867c-0.40073,0.29912 -0.80067,0.60007 -1.1955,0.909c-0.39589,0.30975 -0.78792,0.62779 -1.1685,0.96301c-0.38316,0.33748 -0.77199,0.67913 -1.46933,1.46133c-0.35703,0.40047 -0.69048,0.8385 -1.02751,1.29449c-0.34979,0.47326 -0.70114,0.97671 -1.07249,1.5015c-0.39029,0.55155 -0.79317,1.13953 -1.73334,2.37067c-0.51187,0.6703 -1.07175,1.35863 -1.6575,2.076c-0.60751,0.74402 -1.23973,1.5062 -1.88249,2.292c-0.65561,0.80151 -1.32813,1.60986 -2.62666,3.29867c-0.65215,0.84814 -1.28003,1.70873 -1.89601,2.5635c-0.6053,0.83994 -1.18712,1.66582 -1.752,2.4645c-0.54247,0.76698 -1.04797,1.50452 -2.01866,2.80534c-0.42914,0.57508 -0.83704,1.08775 -1.215,1.548c-0.34233,0.41688 -0.65968,0.78562 -0.94501,1.116c-0.2547,0.29491 -0.49356,0.54671 -0.84,1.00266c-0.14133,0.186 -0.24895,0.35932 -0.33299,0.5145c-0.07285,0.1345 -0.12534,0.25633 -0.17101,0.3615l-0.03967,0.09117l-0.03766,0.07816" id="svg_1" stroke-width="5" stroke="#000000" fill="none"/> <path d="m234,169c1.836,0 2.60133,0 3.60451,0c0.85266,0 1.81715,0 2.64217,0c0.91499,0 1.92001,-0.00366 2.64265,0.00133c0.7787,0.00539 1.63004,0.02277 2.56801,0.084c1.04361,0.06812 2.19368,0.19713 2.79616,0.27184c0.6122,0.07591 1.22708,0.15471 2.43134,0.34734c0.57854,0.09254 2.12883,0.39534 2.97751,0.591l0.71266,0.18367l0.849,0.23549" id="svg_2" stroke-width="5" stroke="#000000" fill="none"/> <path d="m270,166c3.83334,0 4.86282,0.0007 6.02933,-0.00133c1.27051,-0.00221 2.612,-0.00934 3.99152,-0.0195l1.38449,-0.01517l1.35651,-0.02116l1.2955,-0.02817" id="svg_3" stroke-width="5" stroke="#000000" fill="none"/> <path d="m274,177c0.42532,0.32266 0.72525,0.98651 0.91467,2.032c0.13864,0.76509 0.08533,1.74533 0.08533,2.61383c0,0.74901 0,2.1875 0,2.76134c0,0.61684 0,1.26967 0,2.65533c0,0.71883 0,1.44566 0,2.17349c0,1.43068 0.00168,2.121 -0.00134,2.79333c-0.00583,1.29869 -0.01639,1.92909 -0.03467,2.54935c-0.01807,0.61241 -0.12643,2.42172 -0.18533,3.02049c-0.05847,0.59459 -0.20163,1.74782 -0.27866,2.29666c-0.14301,1.01897 -0.32288,2.27231 -0.44733,3.12283c-0.1261,0.86162 -0.37045,1.65514 -0.75717,2.32867c-0.53799,0.937 -1.07449,1.60861 -1.21017,2.422c-0.12411,0.74397 -0.08533,2.064 -0.08533,2.769c0,0.8 0,1.847 0,2.795c0,0.6765 0,1.45201 0,2.5c0,0.92 0.49371,1.86491 -0.108,2.72c-0.47842,0.67986 -1.47791,0.44151 -2.38132,0.36c-1.03696,-0.09357 -1.78107,-0.25427 -2.55234,-0.49666c-0.83063,-0.26105 -1.2735,-0.42267 -2.5795,-1.18134c-0.47253,-0.27451 -1.39932,-0.94676 -1.858,-1.31866c-0.46548,-0.37741 -1.37454,-1.18462 -2.1875,-2.08334c-0.40182,-0.44423 -1.12143,-1.37659 -1.45068,-1.84799c-0.63889,-0.91467 -0.91412,-1.377 -1.716,-2.65201c-0.47855,-0.76089 -0.91153,-1.44571 -1.31999,-2.03999c-0.66635,-0.96953 -1.36705,-1.33458 -1.67999,-2.29333c-0.25858,-0.79219 0.69882,-0.74876 1.37599,0.10667c0.49857,0.62984 0.95538,1.39464 1.20667,1.76666c0.47897,0.70917 1.29413,2.42723 1.78934,2.052c0.91949,-0.69672 -0.43088,-1.47467 -0.48151,-2.4165c-0.02899,-0.53914 -0.04803,-1.71149 -0.05267,-2.326c-0.0047,-0.62148 -0.00449,-2.44034 -0.00449,-3.01616c0,-1.12668 0,-1.6875 0,-2.25334c0,-1.16666 -0.00049,-2.41333 0.00015,-3.07716c0.00067,-0.68683 -0.00275,-1.38976 0.02069,-2.81534c0.01166,-0.70889 0.02872,-1.40601 0.06448,-2.0835c0.06711,-1.27148 0.20267,-2.39333 0.28085,-2.89966l0.19632,-0.91267l0.25635,-0.79266" id="svg_4" stroke-width="5" stroke="#000000" fill="none"/> <path d="m250,237c-0.07066,0.85066 0.48785,1.4062 1.64284,1.75717c0.65074,0.19774 1.37897,0.21228 2.10899,0.291c1.42935,0.15414 2.10368,0.30838 2.78983,0.45183c0.72449,0.15146 1.95721,0.34819 2.91833,0.41467c0.52451,0.03629 1.66498,0.06664 2.28,0.07466c0.64499,0.00841 1.32001,0.00999 2.76001,0.01067c0.76633,0.00035 1.57068,0 2.42099,0c0.90436,0 1.87067,0 2.90701,0c1.11432,0 2.31467,0 5.00534,0c1.50049,0 3.08398,0 4.72348,0c1.66852,0 3.33902,0 4.9845,0c1.59351,0 3.108,0 5.79202,0c1.1225,0 2.09998,0 2.94748,0c0.73251,0 1.36502,0 1.91251,0c0.47751,0 0.89999,0 1.64001,0c0.34482,0 0.67865,0 1.00049,0c0.30884,0 0.60367,0 0.88351,0c0.26382,0 0.51065,0 0.94931,0c0.19034,0 0.36267,0 0.51901,0c0.14233,0 1.08365,-0.18889 1.91434,0.2215c0.69058,0.34116 1.48502,1.08015 1.81467,1.97984c0.23709,0.64706 0.09912,1.63478 0.08533,2.39999c-0.01801,0.99916 -0.40903,1.87613 -1.33334,2.39867c-0.41934,0.23706 -1.50934,0.60797 -2.12265,0.81067c-0.64697,0.21382 -1.32224,0.42261 -2.00851,0.6465c-0.69104,0.22543 -2.67331,0.95889 -3.28082,1.22417c-0.58978,0.25754 -1.15198,0.53468 -2.25867,1.02133c-0.53714,0.23619 -1.0549,0.52518 -2.71735,0.93283c-0.55652,0.13647 -1.70343,0.26398 -2.27866,0.302c-0.57422,0.03796 -1.716,0.06119 -2.83334,0.0625c-1.07733,0.00127 -1.59625,0.0071 -2.58331,-0.02083c-0.90771,-0.02568 -2.08896,-0.11841 -2.72736,-0.26317c-0.802,-0.18187 -1.85281,-0.56894 -2.66666,-0.69067c-0.87177,-0.1304 -1.87854,-0.29326 -2.68933,-0.54616c-0.55115,-0.17191 -1.58521,-0.56436 -2.47916,-0.97917c-0.62439,-0.28973 -1.62595,-0.82019 -2.32886,-1.10001c-0.54196,-0.21574 -1.55579,-0.50163 -2.35449,-0.7045c-0.85794,-0.2179 -1.75467,-0.40065 -3.00415,-0.86217c-0.77652,-0.28682 -1.47638,-0.66154 -2.14801,-1.04399c-0.67245,-0.38293 -1.70355,-0.99466 -2.4335,-1.38484c-0.72806,-0.38918 -1.44177,-0.74776 -2.41849,-1.23782c-0.56387,-0.28291 -1.3125,-0.66667 -2.01601,-1.05067l-1,-0.59999l-0.532,-0.34134l-0.77551,-0.522" id="svg_5" stroke-width="5" stroke="#000000" fill="none"/> <path d="m243,181c-1.7,0 -2.623,-0.18237 -3.5,0.02083c-0.96556,0.22372 -1.50266,0.97653 -2.10001,1.57918c-0.60268,0.608 -1.03351,1.27776 -1.2,1.88266c-0.37686,1.36926 -0.40248,1.99011 -0.4955,2.64317c-0.09784,0.68694 -0.19041,1.39423 -0.34734,2.81c-0.07506,0.67714 -0.19939,1.89679 -0.27184,2.86816c-0.05624,0.75418 -0.09625,1.62172 -0.08499,2.617c0.00887,0.78322 -0.02756,1.94858 0.71849,2.4075c0.65062,0.40022 1.96518,0.17149 2.78117,0.17149c0.54733,0 1.81334,0 2.65334,0c0.96133,0 1.84666,0 2.64667,0c0.89999,0 1.90768,0.03432 2.39867,-0.57066c0.59784,-0.73666 0.68095,-1.62936 0.80133,-2.45016c0.16801,-1.14565 0.35692,-1.93524 0.5,-2.5c0.22266,-0.87885 0.4288,-2.07819 0.464,-2.67917c0.05266,-0.89902 0.036,-2.09984 0.036,-2.6955c0,-0.86852 0,-1.93784 0,-2.86852c0,-0.63148 0.00237,-1.63466 0,-2.57883c-0.00226,-0.90001 -0.22133,-1.757 -0.83333,-2.49049l-0.20267,-0.74133" id="svg_6" stroke-width="5" stroke="#000000" fill="none"/> <path d="m292,171c-3.31317,0.2215 -4.03882,0.28362 -4.82217,0.35716c-0.82068,0.07704 -1.65735,0.1602 -2.48849,0.25351c-0.80591,0.09047 -1.57187,0.14496 -2.85599,0.38933c-0.90402,0.17204 -1.69595,0.53636 -2.16669,1.5c-0.26642,0.54539 -0.54288,1.22746 -0.888,2.004c-0.38605,0.86859 -0.78787,1.82584 -1.17599,2.86133c-0.19839,0.52927 -0.56589,1.59143 -0.73065,2.11201c-0.31055,0.98112 -0.64191,1.84087 -0.74417,2.8985c-0.07867,0.81369 0.34439,1.81123 0.73083,2.30817c0.44034,0.56627 1.01886,1.12518 1.716,1.63199c1.12839,0.82031 2.0354,1.23161 2.49731,1.43733c0.94107,0.4191 1.42789,0.61343 2.92801,1.08c0.49667,0.15446 1.48532,0.41014 1.96799,0.52c0.92181,0.20982 1.7706,0.40192 3.17468,0.56134c0.7717,0.08762 1.75116,0.31825 2.44666,0.01332c0.87454,-0.38344 1.14044,-1.26093 1.70618,-2.18433c0.367,-0.59904 0.60831,-1.50583 0.66849,-2.43033c0.04376,-0.67239 0.04221,-1.98006 0.03467,-2.548c-0.01071,-0.80717 -0.07123,-1.70558 -0.22,-2.85083c-0.12094,-0.93108 -0.20602,-1.42621 -0.35333,-2.44917c-0.07367,-0.51167 -0.25867,-1.96533 -0.34131,-2.80667l-0.05869,-0.72932l-0.078,-0.9015" id="svg_7" stroke-width="5" stroke="#000000" fill="none"/> <path d="m222,106c-0.33333,6 -0.44331,7.5116 -0.56534,9.21333c-0.13205,1.84159 -0.26866,3.77303 -0.39299,5.745c-0.12366,1.96137 -0.24136,3.86256 -0.30301,5.655c-0.10498,3.05238 -0.11145,4.23107 0.028,5.13599c0.10246,0.66487 0.34952,1.17157 0.71251,1.209c0.45604,0.04703 1.05296,-0.41484 1.7475,-1.041c2.02583,-1.8264 3.18582,-3.22424 4.57199,-4.74266c1.51849,-1.66335 3.1098,-3.45226 4.74301,-5.3205c1.65489,-1.89304 3.28357,-3.78059 4.83299,-5.6355c2.81314,-3.36778 3.96811,-4.84421 4.96667,-6.15334c0.86794,-1.13786 1.58923,-2.13139 2.17949,-2.98199c0.4873,-0.70224 0.86087,-1.27722 1.1445,-1.722c0.33611,-0.52708 0.40976,-0.62057 0.40401,-0.59334c-0.03651,0.17288 -0.23209,0.4641 -0.48601,0.9195c-0.34781,0.62381 -0.8069,1.42188 -1.386,2.4045c-1.52078,2.5805 -2.49501,4.17809 -3.57333,5.95733c-1.16028,1.91447 -2.37976,3.918 -3.62399,5.9715c-1.24644,2.05716 -2.46916,4.07378 -3.62399,6.01649c-2.05428,3.4558 -2.88023,4.90673 -3.57867,6.16c-0.59273,1.06355 -1.07343,1.96059 -1.464,2.6985c-0.31313,0.59158 -0.54042,1.0614 -0.74399,1.39351c-0.2383,0.38876 -0.36543,0.45689 -0.39734,0.40266c-0.06844,-0.11632 0.03746,-0.38763 0.183,-0.7545c0.20409,-0.51445 0.53067,-1.1698 0.993,-1.9695c1.25063,-2.16318 2.16585,-3.48018 3.18668,-4.97067c1.1144,-1.62711 2.32892,-3.33711 3.612,-5.10149c1.30881,-1.79976 2.6356,-3.59048 3.972,-5.3265c2.50488,-3.25392 3.67877,-4.67428 4.76666,-5.96133c0.98863,-1.16964 1.90314,-2.20425 2.74049,-3.108c0.73827,-0.79681 1.3938,-1.47555 1.97551,-2.028c0.86426,-0.82078 1.17157,-1.07793 1.41066,-1.21333c0.14644,-0.08294 0.26443,-0.06184 0.2805,0.033c0.02661,0.15699 -0.05173,0.38232 -0.1245,0.663c-0.1848,0.71284 -0.29225,1.12934 -0.384,1.57867c-0.09544,0.46735 -0.1788,0.94573 -0.2415,1.425c-0.06116,0.46751 -0.11177,0.91641 -0.10651,1.335c0.00891,0.70798 0.06296,1.01289 0.22267,1.15733c0.13901,0.12572 0.42839,0.06188 0.73801,-0.159c0.45679,-0.32588 0.98851,-0.90251 1.638,-1.689c1.83597,-2.22322 2.9146,-3.79532 4.17198,-5.556c1.37158,-1.92057 2.7962,-3.96468 4.2525,-6.0675c1.45703,-2.10385 2.86792,-4.16196 4.20752,-6.1125c2.31256,-3.36719 3.22165,-4.68867 3.97598,-5.75733c0.60025,-0.85038 1.06757,-1.50349 1.4415,-1.9635c0.26025,-0.32016 0.43854,-0.57183 0.58652,-0.5685c0.16827,0.00378 0.19675,0.21156 0.22131,0.39867c0.03522,0.26825 0.03586,0.64541 0.02551,1.149c-0.01343,0.65384 -0.05258,1.47954 -0.1095,2.499c-0.15134,2.70992 -0.26923,4.43111 -0.39734,6.36266c-0.13873,2.09178 -0.28989,4.29349 -0.45151,6.555c-0.16235,2.27182 -0.32504,4.5038 -0.49649,6.645c-0.30542,3.81419 -0.45505,5.39423 -0.59332,6.736c-0.11404,1.10682 -0.21338,1.97977 -0.306,2.619c-0.05957,0.41111 -0.1178,0.59578 -0.12601,0.549c-0.13129,-0.74709 0.10229,-1.46309 0.20267,-2.35867c0.11865,-1.0589 0.27109,-2.25064 0.465,-3.5445c0.20557,-1.37161 0.43494,-2.79137 0.73499,-4.2195c0.59085,-2.81212 0.98517,-4.12198 1.39069,-5.35867c0.38516,-1.17461 0.80197,-2.26661 1.22849,-3.276c0.39709,-0.93973 0.79547,-1.79243 1.1835,-2.556c0.65363,-1.28616 0.93582,-1.79035 1.19467,-2.18401c0.19806,-0.30118 0.38464,-0.53928 0.53851,-0.50999c0.15561,0.02961 0.25192,0.33924 0.31348,0.75c0.19849,1.32429 0.17456,2.27216 0.20535,3.36533c0.03412,1.21085 0.05185,2.50397 0.06448,3.84299c0.01273,1.34898 0.01755,2.672 0.0195,3.93301c0.00342,2.19199 -0.01743,3.05782 0.02002,3.752c0.02838,0.5261 0.06732,0.95457 0.27298,1.06499c0.18753,0.1007 0.52634,-0.11968 0.90302,-0.465c1.19818,-1.09842 1.90671,-1.98737 2.78265,-2.95734c0.96732,-1.07114 1.98911,-2.22037 3.04352,-3.411c1.06158,-1.1987 2.09894,-2.37739 3.0885,-3.501c1.72391,-1.95743 2.39532,-2.74717 2.98532,-3.35201c0.4632,-0.47485 0.84589,-0.85086 1.19699,-0.897c0.27759,-0.03648 0.55957,0.22546 0.74701,0.633c0.5864,1.27495 0.73187,2.26347 1.01334,3.364c0.31329,1.225 0.62778,2.54979 0.948,3.94051c0.32788,1.42394 0.64594,2.85281 0.948,4.2555c0.5593,2.59711 0.78595,3.73956 0.99866,4.76266c0.18918,0.90985 0.3555,1.71078 0.5325,2.3985c0.15134,0.58804 0.27664,1.09174 0.48752,1.4535c0.30579,0.52459 0.57932,0.63027 0.81467,0.6c0.27963,-0.03597 0.58908,-0.25262 0.927,-0.5535c0.41803,-0.37222 0.86777,-0.88081 1.37698,-1.4985c1.27277,-1.54392 1.98428,-2.51936 2.78534,-3.56133c0.84521,-1.0994 1.71295,-2.22807 2.60849,-3.33601c0.87402,-1.0813 1.70682,-2.11112 2.56351,-2.976c1.40152,-1.41491 2.0379,-1.85108 2.59735,-1.96267c0.4635,-0.09245 0.94162,0.1214 1.29749,0.522c0.43912,0.49432 0.78482,1.24606 1.16251,2.142c0.95026,2.25413 1.42682,3.64856 2.00266,5.14267c0.60776,1.57691 1.2348,3.19753 1.8765,4.8195c0.62906,1.59 1.23203,3.10963 1.83151,4.5045c0.99677,2.3193 1.40561,3.16595 1.79599,3.76667c0.28308,0.43561 0.57333,0.65067 0.81,0.708l0.21667,-0.10267l0.20667,-0.24866l0.20667,-0.38067" id="svg_8" stroke-width="5" stroke="#000000" fill="none"/> <path d="m237,258c-0.16667,4 -0.21985,5.08459 -0.28667,6.31601c-0.07301,1.34561 -0.15556,2.77231 -0.255,4.24649c-0.10051,1.48981 -0.20485,2.9624 -0.345,4.3815c-0.25272,2.55884 -0.42223,3.63736 -0.59732,4.58932c-0.1575,0.85632 -0.33841,1.63403 -0.51601,2.36252c-0.17184,0.70486 -0.36028,1.40546 -0.51601,2.13748c-0.34621,1.62744 -0.4689,2.5799 -0.60133,3.612c-0.14096,1.09851 -0.26666,2.25082 -0.40349,3.43802c-0.13916,1.20749 -0.27412,2.42075 -0.4485,3.61798c-0.33543,2.30301 -0.56244,3.3718 -0.79733,4.384c-0.22397,0.96512 -0.47043,1.87814 -0.71251,2.74802c-0.23138,0.83145 -0.46899,1.6225 -0.6675,2.388c-0.37347,1.44025 -0.49892,2.13327 -0.59734,2.80133c-0.09416,0.63916 -0.14799,1.25198 -0.1935,1.83148l-0.0305,0.54453l-0.01849,0.5065l-0.00951,0.46548" id="svg_9" stroke-width="5" stroke="#000000" fill="none"/> <path d="m321,269c1.5,8.33334 1.76495,10.15421 2.05334,12.18134c0.31,2.17886 0.63019,4.45645 0.9675,6.77701c0.336,2.31146 0.66302,4.56046 1.01248,6.68698c0.60681,3.69247 0.90588,5.15723 1.19467,6.36935c0.23865,1.00174 0.47464,1.81445 0.7095,2.46448c0.19318,0.53467 0.39722,0.96591 0.57449,1.33951c0.32297,0.68057 0.47241,1.04407 0.60535,1.43866c0.14041,0.41672 0.26801,0.86133 0.4035,1.32602l0.1405,0.48465l0.1485,0.50269l0.15948,0.51865" id="svg_10" stroke-width="5" stroke="#000000" fill="none"/> <path d="m225,301c-2.42816,0.664 -3.42043,1.0582 -3.96266,1.276c-0.55809,0.22418 -1.67532,0.6745 -2.21867,0.87201c-1.40382,0.51028 -2.15297,0.67603 -2.77699,0.87283c-0.90176,0.28439 -1.91121,0.85751 -2.71767,1.39883c-0.44539,0.29895 -0.8999,0.63321 -1.89467,1.284c-0.51489,0.33685 -1.58514,0.98505 -2.71333,1.52698c-0.56345,0.27066 -1.14035,0.51041 -1.716,0.7485c-1.14539,0.47375 -1.72591,0.68127 -2.83333,1.1875c-1.09018,0.49832 -1.61008,0.78604 -2.12001,1.08002c-1.01033,0.58243 -1.50972,0.88153 -2.87999,1.91998c-0.45346,0.34366 -0.88589,0.70929 -1.72,1.448c-0.4079,0.36124 -1.18138,1.07953 -1.56,1.41602c-1.05487,0.9375 -1.7205,1.4505 -2.32417,1.90683l-0.7905,0.57449" id="svg_11" stroke-width="5" stroke="#000000" fill="none"/> <path d="m182,322c5.83333,0.83334 6.83517,0.88339 7.92934,0.91467c1.16786,0.03339 2.39197,0.05191 3.65399,0.06448c1.28197,0.01279 2.56601,0.01758 3.834,0.0195c2.416,0.00366 3.53554,0.00476 4.612,-0.004c1.06055,-0.00864 2.13234,-0.02902 3.2415,-0.078c1.17493,-0.05188 2.44214,-0.13214 3.82651,-0.258c3.23894,-0.29446 5.1317,-0.53775 7.19467,-0.79999c2.20277,-0.28 4.5116,-0.59616 6.89549,-0.94202c2.43082,-0.35266 4.87564,-0.72253 7.30051,-1.12198c4.68257,-0.77133 6.87515,-1.1842 8.95467,-1.59335c1.96744,-0.38708 3.81473,-0.77875 5.5365,-1.18048c1.60213,-0.37381 3.07777,-0.74008 4.4115,-1.1355c2.28833,-0.67844 3.21581,-1.04694 4.01733,-1.39868c0.70728,-0.31036 1.3152,-0.62994 1.842,-0.94501c0.47818,-0.28598 0.89938,-0.58286 1.302,-0.85498c0.77762,-0.52557 1.18713,-0.77289 1.62134,-1c0.4458,-0.23318 0.91687,-0.44763 1.41,-0.64502c0.5069,-0.20288 1.03668,-0.39072 1.59,-0.55499c1.15356,-0.34247 1.76834,-0.47128 2.39734,-0.60001c0.64236,-0.13144 1.30048,-0.24557 1.97098,-0.345c0.67886,-0.10068 1.36655,-0.18765 2.061,-0.255c1.39594,-0.13541 2.09811,-0.16937 2.80533,-0.20132c0.71884,-0.03247 1.45596,-0.052 2.21701,-0.06448c0.79095,-0.01297 1.61801,-0.01761 2.487,-0.0195c1.888,-0.00409 2.91583,-0.00134 3.99066,-0.00134c1.10883,0 2.23868,0 3.3765,0c1.13284,0 2.24768,0 3.33151,0c2.02267,0 2.93884,0 3.79199,0c0.79718,0 1.54535,0 2.2515,0c0.67117,0 1.31433,0 1.93652,0c1.20932,0 1.81049,-0.00079 2.41864,0.00134c0.62219,0.00217 1.26538,0.0072 1.93652,0.0195c0.70618,0.01294 1.45447,0.03207 2.2515,0.06448c1.76971,0.07193 2.75192,0.13428 3.78934,0.19867c1.07761,0.06686 2.17999,0.14117 3.29248,0.216c1.10751,0.07452 2.19485,0.14984 3.2475,0.216c1.93973,0.12195 2.80096,0.16415 3.58801,0.19998c0.71893,0.03271 1.37607,0.05753 1.97699,0.08401c0.55109,0.02429 1.05853,0.04553 1.52701,0.08401c0.84915,0.06973 1.23895,0.13272 1.60934,0.19998c0.35397,0.06427 0.68973,0.13959 1.00949,0.216c0.30557,0.07303 0.59564,0.15021 0.87451,0.216c0.52008,0.12271 0.76736,0.16699 1.01465,0.19867c0.25613,0.03281 0.5332,0.0524 0.84,0.06448c0.34656,0.01364 0.74335,0.01767 1.20001,0.0195c1.13333,0.00458 1.82584,0.00064 2.59332,0.00269c0.82751,0.00223 1.70004,0.00696 2.60251,0.0195c0.91754,0.01276 1.83527,0.02884 2.73749,0.06448c1.70062,0.0672 2.47147,0.12955 3.18668,0.20001c0.66647,0.06567 1.28748,0.14542 1.86749,0.2355c0.54663,0.0849 1.0625,0.17963 1.55252,0.28049c0.92825,0.19107 1.37271,0.29788 1.81332,0.39999c0.44104,0.10223 0.88681,0.20874 1.3425,0.31952c0.47098,0.1145 0.96173,0.23602 1.47751,0.3645c1.1268,0.28067 1.74579,0.43686 2.40134,0.59866c0.6871,0.16959 1.40213,0.34351 2.142,0.51599c0.75882,0.17688 1.53345,0.35306 2.32199,0.51599c1.59232,0.32898 2.39243,0.46762 3.18399,0.59467c0.77383,0.12418 1.52444,0.22934 2.24402,0.306c0.67789,0.0722 1.30902,0.12958 1.884,0.12601c0.95026,-0.00589 1.32175,-0.07883 1.59732,-0.20401c0.23102,-0.10495 0.4021,-0.27789 0.47699,-0.4845c0.08035,-0.22165 0.07401,-0.49841 0.02701,-0.7995c-0.11368,-0.72833 -0.25357,-1.14362 -0.39999,-1.59598c-0.15884,-0.49075 -0.36044,-1.01019 -0.62701,-1.54202c-0.28461,-0.56784 -0.62903,-1.1564 -1.077,-1.72198c-0.98672,-1.24576 -1.67203,-1.81326 -2.40399,-2.39069c-0.77466,-0.61111 -1.6405,-1.19119 -2.58151,-1.74149c-0.98288,-0.5748 -2.03766,-1.12088 -3.1665,-1.60651c-2.36969,-1.01944 -3.66306,-1.4061 -4.96933,-1.79599c-1.30722,-0.39017 -2.61121,-0.72867 -3.88498,-1.035c-1.2197,-0.29333 -2.37241,-0.54456 -3.435,-0.76501c-1.77179,-0.36758 -2.45135,-0.49484 -2.996,-0.60532c-0.42896,-0.08701 -0.75934,-0.15442 -1.0065,-0.21301c-0.18335,-0.04349 -0.31946,-0.08075 -0.42151,-0.12299c-0.18628,-0.07712 -0.29236,-0.1405 -0.42133,-0.20401c-0.14667,-0.0722 -0.3103,-0.15146 -0.49051,-0.2355c-0.19443,-0.09067 -0.40277,-0.18567 -0.62549,-0.28049c-0.47684,-0.203 -0.73334,-0.29929 -0.99734,-0.39999c-0.27164,-0.10364 -0.55945,-0.18805 -1.41916,-0.55585c-0.90533,-0.3873 -1.7865,-0.89099 -2.35385,-1.22198l-0.771,-0.45151" id="svg_12" stroke-width="5" stroke="#000000" fill="none"/> </g> </svg>