<svg xmlns="http://www.w3.org/2000/svg" xmlns:svg="http://www.w3.org/2000/svg" width="640" height="480">
 <!-- Created with SVG-edit - http://svg-edit.googlecode.com/ -->
 <g>
  <title>Layer 1</title>
  <path d="m197,118.5c-1.814667,-0.010666 -2.87738,-0.196793 -3,-1.099998c-0.121063,-0.891823 -0.029404,-1.657791 0.004501,-2.557167c0.028214,-0.748657 0.228455,-1.765953 0.606171,-2.506836c0.431564,-0.846527 1.088196,-1.532623 1.689331,-2.136002c0.698685,-0.701302 1.168808,-1.357346 1.674667,-2.089333c0.465775,-0.673981 1.311325,-0.993134 1.91066,-1.411995c0.913483,-0.638412 1.630432,-0.999023 2.357498,-1.494171c0.856903,-0.58358 1.536713,-0.823547 2.357178,-1.279167c0.781937,-0.434219 1.545776,-0.813385 2.285324,-1.141335c0.881851,-0.39106 1.762756,-0.647545 2.367996,-1c0.733688,-0.427269 1.578644,-0.278664 2.746674,-0.283997c0.890991,-0.004066 1.727997,0 2.666672,0c0.833328,0 1.877441,0.021675 2.615997,-0.021332c0.575912,-0.033531 1.89032,-0.293541 2.599991,-0.546669c0.73909,-0.263618 1.446793,-0.605034 2.14801,-0.863998c1.185791,-0.43792 1.948013,-0.543785 3.136002,-0.568001c0.790344,-0.016113 1.358002,0.019203 2.234665,-0.085335c1.206467,-0.14386 1.793243,-0.363243 2.698669,-0.561996c1.193481,-0.261986 1.794678,-0.314407 2.664001,-0.342003c1.068832,-0.033928 1.783325,-0.010666 2.68866,-0.010666c0.968826,0 1.783325,0 2.65184,0c1.195496,0 1.795486,0 2.695496,0c1.199997,0 1.801331,0 2.720825,0c0.636337,0 2.000336,0 2.727341,0c0.731003,0 1.442001,0 2.708664,0c0.760498,0 1.555161,0 2.543167,0c0.983994,0 1.847336,0 2.760834,0c0.66333,0 1.724838,0 2.458832,0c0.821991,0 1.68399,0 2.946991,0c0.761353,0 1.450684,0 2.367188,0c1.044495,0 1.9245,0 2.944824,0c0.773987,0 1.696503,0 2.376007,0c1.311981,0 2.179993,0 2.651489,0c0.972992,0 1.925995,0 2.372498,0c1.409332,0 2.246338,0 2.927673,0c1.527008,0 2.22934,-0.000687 3.025665,0.001335c0.874329,0.00222 1.810699,0.007057 2.792999,0.019501c1.01236,0.012825 2.038879,0.029373 3.062988,0.064499c1.979187,0.067886 2.904846,0.131393 3.785339,0.198662c0.841187,0.06427 1.64679,0.140099 2.422516,0.216003c0.750946,0.073479 1.481232,0.151779 2.197479,0.216003c1.405914,0.126068 2.105835,0.166328 2.801331,0.198662c0.687195,0.031952 1.36261,0.051674 2.022003,0.064499c0.639313,0.012436 1.254669,0.017555 1.84201,0.019501c1.074677,0.003563 1.99765,-0.012047 2.776001,0.012001c0.933716,0.028854 1.977264,0.306953 2.656342,0.636665c0.811127,0.393822 1.813141,0.628273 2.49649,0.977669c0.682861,0.349144 1.098541,0.599464 2.145844,1.208336c0.638733,0.371346 1.340454,0.787209 2.092499,1.234497c0.787994,0.468674 1.595459,0.952248 2.407501,1.441498c0.802948,0.483757 1.582001,0.952736 3,1.824005c0.616699,0.378914 1.166626,0.722694 1.657501,1.028999c0.821625,0.512711 1.431702,0.970268 2.539825,1.469666c0.700012,0.315468 1.438416,0.754204 2.143982,1.317329c0.787567,0.628578 1.500885,0.95414 1.909363,1.652c0.483276,0.82563 1.165253,1.359749 1.715973,2.084c0.552094,0.726036 0.94278,1.359329 1.679169,2.093834c0.532837,0.531487 0.519409,1.504837 0.520844,2.195503c0.002258,1.07267 0.16861,1.991249 0.425323,2.661331c0.292908,0.764488 0.542053,1.762764 0.57019,2.564003c0.035065,0.998062 0.004486,1.764 0.004486,2.847328c0,0.919334 0,1.75267 0,2.585999c0,0.919342 0,1.823837 0,2.571167c0,0.995499 0,1.795502 0,2.79567c0,0.820663 0,1.485168 0,2.752502c0,0.547333 0,1.363327 0,2.594666c0,0.677994 0,1.874329 0,2.699341c0,0.599991 0,1.919998 0,2.637329c0,0.741333 0,1.490662 0,2.231995c0,1.397339 0,2.037338 0,2.922333c0,1.040176 0,1.940842 0,2.96167c0,0.810669 0,1.457169 0,2.421341c0,0.803986 0,1.625992 0,2.656998c0,0.87999 0,1.90033 0,2.674332c0,0.899994 0,1.763336 0,2.768158c0,1.022171 0,1.751175 0,2.588165c0,0.891006 0.015045,1.796371 -0.036011,2.727005c-0.035675,0.650223 -0.169556,1.688324 -0.321167,2.41217c-0.229492,1.095795 -0.420197,1.790573 -0.742645,2.708664c-0.269653,0.767761 -0.646393,1.546768 -0.900177,2.563995c-0.253235,1.014954 -0.437744,1.761322 -0.610657,2.336502c-0.39328,1.308167 -0.592255,2.027237 -0.789337,2.778671c-0.202972,0.77388 -0.403137,1.56456 -0.699829,2.763992c-0.197754,0.799484 -0.397095,1.596573 -0.542999,2.400009c-0.217072,1.19548 -0.276093,1.997116 -0.331848,2.778656c-0.053467,0.749146 -0.036011,1.465225 -0.309326,2.650681c-0.170807,0.740875 -0.564972,1.768051 -0.690674,2.570663c-0.124939,0.797714 -0.283386,1.611633 -0.635986,2.399994c-0.454529,1.01622 -0.841736,1.577179 -1.104004,2.400009c-0.314758,0.987549 -0.289978,1.688171 -0.618683,2.733322c-0.202911,0.645187 -0.678497,1.663391 -1.075653,2.304169c-0.550812,0.888702 -1.225525,1.450073 -1.718994,1.966507c-0.777252,0.813431 -0.746826,1.633942 -1.392853,2.395996c-0.574402,0.677567 -1.082306,1.264038 -1.8125,1.833328c-0.625488,0.48764 -1.481781,0.737869 -2.5,1.333344c-0.498627,0.291611 -1.139923,0.870804 -1.850647,1.349335c-0.967743,0.651581 -1.546051,0.864044 -2.420502,1.179489c-0.88974,0.320953 -1.795593,0.615509 -2.416351,0.783676c-0.958282,0.259598 -1.999908,0.408401 -2.736328,0.468155c-0.76297,0.061905 -1.550751,0.073898 -2.742828,0.219345c-0.800171,0.097626 -1.583679,0.249161 -2.328003,0.444c-1.348694,0.353027 -2.16452,0.673935 -2.850677,0.989334c-0.830048,0.381546 -1.600281,0.846741 -2.421326,1.114655c-0.785156,0.25621 -1.636017,0.272354 -2.82132,0.285507c-0.804047,0.008926 -1.37326,-0.071854 -2.657013,0.221329c-0.690491,0.157684 -1.427216,0.591614 -2.178009,1.078506c-0.790314,0.512527 -1.501495,0.820007 -2.419647,1.089325c-0.644012,0.188904 -1.817474,0.494659 -2.637329,0.574677c-1.015839,0.099152 -1.710724,0.024734 -2.580017,0.071991c-0.680786,0.037003 -1.850128,0.179169 -2.707489,0.316666c-0.879364,0.141022 -1.733734,0.314026 -2.89917,0.480667c-0.64389,0.092056 -1.45816,0.155121 -2.181335,0.165344c-1.002563,0.014175 -1.818665,0.001328 -2.634674,0.001328c-1.226837,0 -1.873322,0 -2.88382,0c-0.964172,0 -1.914825,0 -2.800171,0c-0.799988,0 -1.700073,-0.010666 -2.600006,0c-0.879333,0.010422 -1.388763,0.809494 -2.082672,0.989334c-1.050659,0.272293 -1.817322,0.010666 -2.549316,0.010666c-1.096008,0 -1.969345,0 -2.934677,0c-0.833328,0 -1.811996,0 -2.585999,0c-0.904495,0 -1.651825,0 -2.647324,0c-0.800003,0 -1.799835,0 -2.579178,0c-0.999496,0 -1.904831,0 -2.846161,0c-0.690674,0 -1.716339,0 -2.674667,0c-0.862503,0 -1.520828,0.000275 -2.53334,0c-0.924332,-0.000259 -1.749268,0.027542 -2.586319,-0.171494c-1.067581,-0.253845 -1.916519,-0.677094 -2.386505,-0.886505c-0.976181,-0.434937 -1.452133,-0.675552 -2.372498,-1.089996c-1.108688,-0.499237 -1.882568,-0.662033 -2.822678,-1.136002c-0.722382,-0.364197 -1.462799,-0.645996 -2.26033,-0.768677c-0.962952,-0.148132 -1.785858,-0.322845 -2.528503,-0.709c-0.915359,-0.475967 -1.335327,-1.349579 -2.109665,-1.995499c-0.645096,-0.538101 -1.28244,-1.026428 -1.900162,-1.576157c-0.622528,-0.554001 -1.37767,-1.132462 -1.878494,-1.888168c-0.489929,-0.739273 0.120651,-1.872314 -0.292175,-2.578506c-0.457657,-0.782898 -1.327377,-0.955856 -1.843994,-1.800003c-0.474365,-0.775101 -0.882355,-1.557999 -0.964508,-2.399994c-0.095047,-0.974091 0.088669,-1.810608 -0.056824,-2.636002c-0.185074,-1.050003 -0.640396,-1.730179 -1.162674,-2.478668c-0.49028,-0.702652 -0.79599,-1.485291 -0.801331,-2.38533c-0.005325,-0.899979 0.053085,-1.819794 -0.166672,-2.833328c-0.147751,-0.681442 -0.479935,-1.398743 -0.711823,-2.524002c-0.161682,-0.784561 -0.121506,-1.685501 -0.121506,-2.404007c0,-0.790497 0.051392,-2.055756 -0.020828,-2.696991c-0.116348,-1.033157 -0.779343,-1.690033 -0.958344,-2.541672c-0.185181,-0.880981 -0.020828,-1.804504 -0.020828,-2.821335c0,-0.678665 0,-1.657333 0,-2.562668c0,-0.94133 0.172409,-1.651352 -0.020828,-2.595169c-0.178421,-0.87146 -0.87619,-1.678833 -0.958344,-2.520828c-0.095047,-0.974091 0.094421,-1.707031 -0.056824,-2.636002c-0.141968,-0.872025 -0.663651,-1.502472 -0.878677,-2.478668c-0.212753,-0.965881 -0.297913,-1.856552 -0.659988,-2.485336c-0.448761,-0.779327 -0.425339,-1.721329 -0.425339,-2.574661c0,-0.940002 0,-1.925339 0,-2.825333c0,-0.800003 -0.002701,-1.680542 -0.567993,-2.483994c-0.387253,-0.550385 -1.242264,-1.305008 -1.410675,-2.105347c-0.187576,-0.891388 -0.021332,-1.810654 -0.021332,-2.710663c0,-0.899994 0.092834,-1.815918 -0.085327,-2.585327c-0.22551,-0.973831 -0.572632,-1.649719 -0.914673,-2.593842c-0.30632,-0.84552 -0.848297,-1.377869 -1.295502,-2.173492c-0.470245,-0.836609 -0.686493,-1.710815 -0.704498,-2.647339c-0.017288,-0.899826 0.033905,-1.800644 0,-2.699997c-0.028595,-0.758789 -0.387482,-1.638901 -0.647339,-2.347336c-0.366699,-0.99971 -0.352661,-1.852661 -0.352661,-2.75267c0,-0.899994 0,-1.699997 0,-2.599991c0,-0.900009 0.097931,-1.806442 -0.010666,-2.710663c-0.11145,-0.928055 -0.570129,-1.561813 -0.867996,-2.568176c-0.240967,-0.814102 -0.405334,-1.789169 -0.621338,-2.521164c-0.216003,-0.732002 -0.359924,-1.874603 -0.721329,-2.599998c-0.382233,-0.767204 -0.773331,-1.499954 -0.778671,-2.400002c-0.005325,-0.899986 0,-1.804497 0,-2.821335l0,-0.678665l0,-0.9785l0,-0.820168" id="svg_1" stroke-width="5" stroke="#000000" fill="none"/>
  <path d="m227,156.5c0.010666,-1.814667 0.197998,-2.818802 0.972,-3.082672c0.777145,-0.264938 1.766327,-0.534744 2.694672,-0.750656c0.784058,-0.182343 1.733322,-0.166672 2.637833,-0.166672c0.862167,0 1.695496,0 2.673996,0c0.82016,0 1.721497,0 2.621506,0c0.899994,0 1.810654,0 2.721329,0c0.678665,0 2.136993,0.346329 2.136993,0c0,-0.858322 -1.758331,0 -2.658325,0c-0.900009,0 -1.8004,-0.02536 -2.600006,0c-0.901352,0.028595 -1.622345,0.686234 -2.5,0.942841c-0.866852,0.253448 -1.866669,0.057159 -2.699997,0.057159c-0.833328,0 -1.511139,0.315735 -2.333328,0.833328c-0.581558,0.366104 -1.776474,0.81337 -1.188004,1.130676c0.585251,0.315567 1.860001,0.035995 2.643997,0.035995c0.848007,0 1.712006,0 2.544006,0c1.110001,0 1.75,0 2.559998,0l1.231659,0l0.841675,0" id="svg_2" stroke-width="5" stroke="#000000" fill="none"/>
  <path d="m296,150.5c1.799988,0 3.5,0.799988 3.5,0c0,-0.731995 -1.700165,0 -2.520844,0c-1.145813,0 -1.931824,0 -2.753815,0c-1.058685,0 -1.763672,0 -2.56369,0c-1.036316,0 -1.982666,0 -2.764313,0c-0.007996,0 0.777832,0 1.73584,0c1.033478,0 1.902832,0 2.377502,0c0.989319,0 1.978638,0 2.453308,0c1.593353,0 2.181335,0 3.045349,0c0.926147,0 0.258606,0.010986 -0.710175,-0.000168c-0.903503,-0.010406 -1.486328,-0.043777 -2.632507,-0.166504c-0.989258,-0.105927 -1.534424,-0.186508 -2.6875,-0.333328c-0.58847,-0.074921 -1.170898,-0.166794 -2.8125,-0.333328c-0.922943,-0.093628 -1.713501,-0.123901 -2.388,-0.192001c-1.115265,-0.112595 -1.811432,-0.342834 -2.617004,-0.622009c-0.903137,-0.312988 -1.842865,-0.486343 -2.640808,-0.331833c-0.945129,0.183014 -0.831787,1.320206 -0.134186,1.693832c0.849579,0.455017 1.759949,0.469299 2.275848,1.047012c0.665741,0.745514 1.360199,1.235779 1.83667,1.585663c1.035583,0.760468 1.571167,1.340225 2.484833,1.567337c0.841492,0.209167 1.75882,0.089828 2.615997,0.306656l0.699982,0.494675l0.900024,0.33667" id="svg_3" stroke-width="5" stroke="#000000" fill="none"/>
  <path d="m239,139.5c-1.825333,0 -2.833328,0 -3.695496,0c-0.825333,0 -1.788498,0 -2.65184,0c-0.895493,0 -1.854004,0 -2.819336,0c-0.658661,0 -1.666656,0 -2.528824,0c-0.867004,0 -1.804504,0 -2.671509,0c-0.674667,0 -1.389328,0 -2.811157,0c-0.65567,0 -1.539169,0 -2.48851,0l-0.947998,0.035995" id="svg_4" stroke-width="5" stroke="#000000" fill="none"/>
  <path d="m272,140.5c2.589325,0 3.520844,0 4.323181,0c0.905975,0 1.652985,0 2.1315,0c1.211975,0 1.958496,0 2.783997,0c0.883484,0 1.803986,0 2.740479,0c0.931519,0 1.837006,0 2.695496,0c1.492004,0 2.088837,0 2.996521,0c0.811493,0 1.849823,-0.015411 2.650482,0.000168c0.925537,0.018021 1.848022,0.154175 2.631012,0.352493c0.825378,0.209061 1.876526,0.511917 2.585663,0.590179c0.796906,0.087952 1.859039,-0.018677 2.666992,0.342499c0.763245,0.341187 1.779999,0.814499 2.505341,1.010162l0.789337,0.18367l0.789337,0.163666" id="svg_5" stroke-width="5" stroke="#000000" fill="none"/>
  <path d="m260,165.5c0,1.825333 -0.316711,2.923126 0.057159,3.638336c0.391998,0.749908 0.897308,1.383347 0.942993,2.340332c0.037018,0.775208 0.38501,1.661087 0.647186,2.368668c0.374603,1.011047 0.519318,1.819336 0.852661,2.652664c0.333344,0.833328 0.458038,1.626266 0.504486,2.652664c0.031494,0.695953 0.422363,1.719574 0.995514,2.347336c0.555237,0.608124 1.041687,1.332184 1.574677,2.02533c0.48703,0.633377 0.483826,1.674133 1.282654,1.889343c0.703766,0.189606 1.631989,0.087631 2.664001,0.085159c0.731323,-0.001755 1.481598,0.018295 2.594666,-0.085159c1.06662,-0.099136 1.726837,-0.276337 2.67334,-0.56134l0.609344,-0.240005" id="svg_6" stroke-width="5" stroke="#000000" fill="none"/>
  <path d="m251,197.5c1,1 1.810394,0.899734 2.636002,1.035995c0.872986,0.144073 1.551498,0.62822 2.564346,0.842499c0.828949,0.175369 1.570343,0.113312 2.767639,0.122833c0.682709,0.005432 1.392151,-0.04776 2.698669,0.165344c0.824585,0.134491 1.442261,0.527008 2.447998,0.748001c0.868713,0.190887 1.685333,0.085327 2.642517,0.085327c0.908997,0 1.761658,0 2.576172,0c0.967499,0 1.645813,0 2.613312,0c1.001343,0 1.911346,0 2.817505,0c0.922516,0 1.595825,0 2.269165,0c1.194672,0 2.109344,0 3.081329,0c0.885345,0 1.691467,0.073242 2.557343,-0.035995c0.883179,-0.11142 1.822388,-0.484024 2.559998,-0.680008c0.95163,-0.252853 1.938538,-0.230286 2.604004,-0.305328c0.774841,-0.087372 1.787537,-0.700607 2.268158,-1.061996c0.582947,-0.438324 1.725739,-1.255341 2.202332,-1.559006c1.044922,-0.665787 1.609497,-0.987 2.172668,-1.315994l0.558167,-0.319l1.057343,-0.584" id="svg_7" stroke-width="5" stroke="#000000" fill="none"/>
  <path d="m198,136.5c-1.835999,0.942673 -2.652512,0.913757 -3.600006,0.290161c-0.639481,-0.420883 -1.388412,-1.140869 -1.995499,-1.53299c-0.733948,-0.47406 -1.535995,-0.938507 -2.203156,-1.557175c-0.617371,-0.572495 -1.417496,-1.389511 -2.301178,-1.199661c-0.875946,0.188187 -0.88858,1.103653 -0.898834,1.858337c-0.013657,1.006073 -0.001328,1.821823 -0.001328,2.745499c0,0.499832 -0.000153,1.570496 0,2.729156c0.000092,0.609344 0.002533,1.872025 0.010666,2.517334c0.008179,0.649368 0.007797,1.299469 0.074661,2.581345c0.064453,1.235657 0.120987,1.826599 0.271835,2.944656c0.07164,0.531021 0.237961,1.533356 0.444168,2.449997c0.277802,1.234894 0.482162,1.955414 0.698669,2.590012c0.278915,0.817505 0.673019,1.935608 1.5,2.416656c0.72467,0.421524 1.528503,0.7005 2.166672,1.333344c0.666794,0.661224 1.224274,1.205093 1.811829,2.033493c0.417709,0.588928 0.825134,1.483154 1.121826,2.221329c0.326492,0.812317 0.668884,1.710739 1.233002,2.578506c0.402222,0.618713 0.915741,1.170929 1.604172,1.985672c0.570068,0.674667 1.041672,1.472656 1.631836,2.212997l0.615997,0.365326l0.932007,0.350677l0.85199,0.084" id="svg_8" stroke-width="5" stroke="#000000" fill="none"/>
  <path d="m333,150.5c0,-2.58934 0,-3.5 0,-4.399994c0,-0.900009 0,-1.800003 0,-2.70018c0,-0.785156 0,-1.725159 0,-2.415833c0,-1.073334 -0.011292,-1.98407 0,-2.883987c0.011261,-0.895721 0.830902,-1.453568 1.421326,-1.514679c0.713898,-0.073883 1.487976,-0.079987 2.912018,-0.085327c0.737976,-0.002762 1.666656,0 2.466644,0c0.900024,0 1.899475,0.058487 2.114685,0.85733c0.189606,0.703766 0.084656,1.632004 0.085327,2.663666c0.000458,0.722672 0,1.781677 0,2.424332c0,1.187668 0,2.221344 0,2.912003c0,0.914673 0.01239,1.785721 -0.010681,2.804001c-0.016418,0.724258 -0.03186,1.462372 -0.210663,2.51683c-0.164825,0.97197 -0.478333,1.790848 -0.657166,2.678833c-0.16626,0.825592 -0.11908,1.762878 -0.546814,2.542999c-0.451202,0.822906 -0.881439,1.652115 -1.222015,2.357178c-0.408936,0.846542 -0.356049,1.757599 -0.999329,2.293488c-0.75589,0.629715 -1.443481,0.887985 -2.019989,1.782669c-0.482513,0.748825 -1.037842,1.276505 -1.633331,1.872009l-0.5,0.726669l-0.720856,0.547165" id="svg_9" stroke-width="5" stroke="#000000" fill="none"/>
  <polyline id="svg_10" points="197,111.5 198.79999999999998,111.5 199.7,111.5 " stroke-linecap="round" stroke-width="5" stroke="#000000" fill="none"/></g></svg>