<svg width="640" height="480" xmlns="http://www.w3.org/2000/svg" xmlns:svg="http://www.w3.org/2000/svg"> <!-- Created with SVG-edit - http://svg-edit.googlecode.com/ --> <g> <title>Layer 1</title> <path d="m596.51563,44.91799c0.41846,-1.08285 0.85858,-1.71528 1.61664,-2.54011c0.40106,-0.43639 1.09393,-1.14095 1.75836,-1.94231c0.44446,-0.53606 0.85583,-1.11106 1.50391,-2.0144c0.71118,-0.99128 0.9704,-1.34618 1.52869,-2.10109c0.61261,-0.82839 0.94299,-1.27279 1.28229,-1.7453c1.12604,-1.56812 1.521,-2.15906 1.93903,-2.7733c0.43488,-0.63902 0.88214,-1.30287 1.34644,-1.98529c0.47687,-0.70093 0.96558,-1.41793 1.47461,-2.14191c1.0423,-1.48245 1.59161,-2.22405 2.1499,-2.97084c0.56396,-0.75438 1.14148,-1.51006 1.72803,-2.27006c0.59174,-0.76678 1.19305,-1.53665 1.79926,-2.31277c1.2262,-1.56995 1.84546,-2.36294 2.46375,-3.16153c0.61871,-0.79916 1.23364,-1.5983 1.841,-2.3963c0.60217,-0.79121 1.19458,-1.57518 1.76984,-2.35359c1.11688,-1.51132 1.64075,-2.24994 2.14862,-2.96831c0.49194,-0.6959 0.96191,-1.37145 1.41431,-2.02136c0.43353,-0.62289 0.84515,-1.21877 1.24347,-1.77931c0.72894,-1.02585 1.07025,-1.48006 1.39264,-1.89844c0.29932,-0.38845 0.58368,-0.74328 0.85095,-1.06835c0.24707,-0.30049 0.47968,-0.57418 0.69434,-0.82629c0.37988,-0.44613 0.96875,-1.16318 1.42804,-1.74698c0.67413,-0.8569 1.37341,-1.45647 2.05664,-1.88035c0.75812,-0.47033 1.25531,-1.2005 1.97186,-1.69842c0.79309,-0.5511 0.35205,-0.2881 -0.48853,-0.0772c-0.82007,0.20576 -1.52344,0.41785 -2.61096,0.78347c-0.61108,0.20545 -1.55621,0.54705 -2.17645,0.78295c-1.14172,0.43425 -1.89893,0.75872 -2.65363,1.03823c-1.07025,0.3964 -1.65564,0.56287 -2.5285,0.85472c-1.10858,0.37066 -1.85498,0.67848 -2.59961,0.93113c-1.03784,0.35213 -1.60938,0.47461 -2.45465,0.67917l-1.00745,0.2565l-0.90308,0.30981" id="svg_1" stroke-width="5" stroke="#000000" fill="none"/> <path d="m570.25391,23.08595c-1.21289,0.31641 -2.09131,0.44145 -2.90039,0.84375c-0.64923,0.32284 -1.37476,1.12959 -1.99884,1.58709c-0.78772,0.57745 -1.60474,1.07557 -2.05493,1.81575c-0.4743,0.77977 -0.70337,1.71599 -0.81805,2.39667c-0.16711,0.99172 -0.1615,2.00592 -0.12781,2.69874c0.04175,0.85748 0.24774,1.93219 0.4071,2.53505c0.24884,0.94119 0.55487,1.84747 0.93402,2.6412c0.36658,0.7674 0.67932,1.26302 1.38672,2.3306c0.38342,0.5787 0.78058,1.16011 1.58624,2.241c0.36224,0.486 1.02271,1.33796 1.6875,2.00391c0.604,0.60504 1.21423,1.05963 1.95245,1.61494c0.79254,0.59617 1.48157,1.20174 2.08063,1.63313c0.86035,0.61956 1.61627,0.87668 2.46991,1.17719c0.75098,0.26436 1.72308,0.55337 2.51923,0.89543c0.80029,0.34384 1.68414,0.52617 2.5625,0.47867c0.83923,-0.04538 1.68921,-0.2509 2.51227,-0.57612c0.95203,-0.37617 1.64337,-0.64372 2.45728,-0.89743c0.78827,-0.24574 1.77368,-0.58826 2.54932,-1.08933c0.79779,-0.51538 1.44122,-1.21061 2.10919,-1.65602c0.7226,-0.48186 1.40186,-0.99197 1.88489,-1.79798c0.46576,-0.77714 0.85254,-1.45414 1.19897,-2.35886c0.362,-0.94529 0.63324,-1.65634 0.85107,-2.54544c0.20898,-0.85291 0.22797,-1.73726 0.14673,-2.60149c-0.08276,-0.88076 -0.26129,-1.81725 -0.78656,-2.59922c-0.40289,-0.59977 -1.08167,-1.27584 -1.42377,-1.96272c-0.50757,-1.01907 -0.77789,-1.81853 -1.43665,-2.48695c-0.5611,-0.56933 -1.2334,-1.11328 -1.76331,-1.60824c-0.86432,-0.8074 -1.51074,-1.35031 -2.2536,-1.92212c-0.67291,-0.51797 -1.36462,-1.0031 -2.11865,-1.45088c-0.8562,-0.50844 -1.51099,-0.82619 -2.36786,-1.3337c-0.73621,-0.43604 -1.44385,-1.02955 -2.31494,-1.38401c-0.82086,-0.33404 -1.70361,-0.41719 -2.44897,-0.77414c-0.83148,-0.39819 -1.76721,-0.37969 -2.62152,-0.37969l-0.85431,0.16479l-0.63281,0.61963l-0.79102,0.42847" id="svg_2" stroke-width="5" stroke="#000000" fill="none"/> <path d="m575.63281,32.26173c-0.98083,-0.59437 -1.88837,-0.3955 -2.69409,-0.65981c-0.86487,-0.28371 -1.58185,-0.7561 -2.48358,-0.91083c-0.88446,-0.15177 -1.68835,-0.32709 -2.57428,-0.3278c-0.88593,-0.00071 -1.80353,0 -2.68945,0l-0.81128,0.19322" id="svg_3" stroke-width="5" stroke="#000000" fill="none"/> <path d="m583.22656,30.6797c-0.79102,0.63281 -0.98962,0.3308 -0.2215,-0.0935c0.76294,-0.42142 1.50537,-0.84614 2.17859,-1.36197c0.69965,-0.53609 1.5246,-0.85966 2.30975,-1.16564c0.82227,-0.32045 1.54706,-0.81365 2.31104,-1.16775c0.81439,-0.37746 1.44531,-0.93915 2.34479,-0.95723l0.70746,-0.30502" id="svg_4" stroke-width="5" stroke="#000000" fill="none"/> <path d="m570.25391,24.35158c-0.81647,-0.57407 -1.59167,-1.06251 -2.42578,-1.47656c-0.75238,-0.37348 -1.48492,-0.84105 -2.38019,-1.16648c-0.83954,-0.3052 -1.40125,-0.20581 -0.9845,0.42488c0.59503,0.90045 1.23328,1.44916 1.65265,1.87439c0.8739,0.88607 1.30792,1.32593 1.94067,1.93213c0.86157,0.82545 1.67065,1.79415 2.18573,1.28967c0.62561,-0.61275 0.02094,-1.61874 -0.12994,-2.57175c-0.11218,-0.70849 -0.3858,-1.75492 -0.55811,-2.49075c-0.25385,-1.08411 -0.44305,-1.95378 -0.55298,-2.52867c-0.23773,-1.24332 -1.151,-2.54616 -0.32916,-2.94263c0.61322,-0.29583 1.13452,0.8399 1.91614,1.42246c0.69275,0.5163 1.67163,0.77449 2.39099,1.27248c0.74152,0.5133 1.466,0.68071 1.16034,-0.11475c-0.23938,-0.62297 -0.70557,-1.57591 -0.96692,-2.29163c-0.33331,-0.9127 -0.70898,-1.76134 -1.05676,-2.60381c-0.36243,-0.87792 -0.72803,-1.14116 -0.30713,-0.43073c0.42328,0.71442 0.97949,1.507 1.45367,2.09213c0.60559,0.74727 1.27185,1.28354 2.00165,1.96789c0.65955,0.61849 1.3811,1.2447 1.27222,0.51142c-0.13312,-0.8964 -0.61481,-1.48305 -0.94165,-2.20894c-0.45245,-1.00478 -0.73895,-1.76884 -1.06439,-2.50172c-0.4248,-0.95667 -0.91003,-1.83863 -1.37616,-2.64262c-0.41028,-0.70771 -0.57123,-2.61564 -1.40759,-2.27417c-0.70288,0.28698 0.45898,1.55131 0.88702,2.53025c0.23029,0.52657 0.58832,1.33016 1.04791,2.38064c0.32074,0.73315 0.61725,1.42834 1.00195,2.32031c0.37805,0.87652 0.59906,1.53457 1.23114,2.53457c0.38519,0.60944 0.94257,0.4335 0.63257,-0.31662c-0.36603,-0.8857 -0.75848,-0.95442 -0.28168,-0.16131c0.44403,0.73859 0.82782,1.32016 1.24255,1.95644c0.65155,0.99953 1.09918,1.65725 1.54858,2.31715c0.4585,0.67323 0.93683,1.36866 1.68341,2.49249c0.26062,0.39229 0.77771,1.18367 1.27435,1.94985c0.45502,0.70198 0.57385,2.26468 1.54535,2.37052c0.25415,0.02769 -0.17078,-1.04944 -0.53766,-1.647c-0.66003,-1.07507 -1.0658,-1.59616 -1.48779,-2.18194c-0.43939,-0.60991 -0.87573,-1.2168 -1.70734,-2.2815c-0.52887,-0.67708 -1.03314,-1.26849 -1.66174,-2.03259c-0.60394,-0.73413 -1.01489,-1.48411 -1.55695,-2.11285c-0.55225,-0.64054 -0.11633,0.1018 0.30145,0.87507c0.35193,0.65138 0.80896,1.60296 1.2674,2.24944c0.46796,0.65993 1.18524,1.55897 1.57813,2.14587c0.57928,0.8653 0.65387,2.19962 1.53802,2.35923c0.3891,0.07024 0.31598,-1.18512 0.20642,-1.95824c-0.09863,-0.69582 -0.33551,-1.78478 -0.5708,-2.70211c-0.1604,-0.62536 -0.48523,-1.79972 -0.72186,-2.53441c-0.25671,-0.79704 -1.64337,-1.79499 -1.039,-2.47029c0.27606,-0.30848 0.90924,0.87749 1.289,1.64784c0.4151,0.84212 0.7807,2.43914 1.49719,2.06851c0.77979,-0.40336 -1.23102,-1.87536 -0.60529,-2.55551c0.34619,-0.37627 0.80103,0.92294 1.45563,1.78427c0.38666,0.50878 1.09961,1.09663 1.97565,1.80689c0.61938,0.50216 1.19385,1.52013 2.07831,1.50878c0.57776,-0.00742 0.4812,-1.24585 0.4812,-2.15172c0,-0.87908 0.05621,-0.37372 0.2229,0.37716c0.22131,0.99714 0.33118,1.88904 0.41791,2.68397c0.09747,0.89297 -0.32764,2.43904 0.44849,2.62733c0.77423,0.18782 1.047,-1.74438 0.38727,-2.36999c-0.60645,-0.57504 -1.74023,-0.05273 -2.52832,-0.05273c-0.95209,0 -1.78802,0 -2.72009,0c-0.72241,0 -1.6535,0.0282 -2.66162,-0.00285c-0.87073,-0.02682 -1.75928,-0.18835 -2.47253,-0.46106c-0.89349,-0.34163 -1.69623,-0.82472 -2.39349,-1.39699c-0.64459,-0.52905 -1.41925,-1.22197 -2.19543,-1.42636c-0.95471,-0.25139 -1.85077,-0.19322 -2.73669,-0.19322c-0.87158,0 -1.75623,0.07037 -2.5625,-0.027c-0.96338,-0.11634 -1.79755,-0.33998 -2.71698,-0.49423c-0.85413,-0.14329 -1.15936,0.41741 -0.74725,1.25065c0.41583,0.84079 0.91705,1.71975 0.68408,1.73981c-0.86462,0.07446 -1.33105,-0.85286 -1.52338,-0.03291c-0.17084,0.72832 -1.08569,0.36415 -1.79846,-0.05822c-0.76825,-0.45525 -1.79987,-0.88045 -1.99841,-0.21853c-0.25494,0.84979 -0.62091,0.45487 -0.2146,1.24638c0.33881,0.65999 0.74695,1.47791 1.42749,2.13116c0.68652,0.65899 1.38782,0.8416 1.29138,0.0308c-0.10297,-0.86569 -1.13159,-2.24043 -0.28937,-2.75179c0.50104,-0.30422 0.97681,1.01419 0.80908,0.49254c-0.26587,-0.82683 -0.4928,-1.68138 -0.79437,-2.47588l0.45984,0.58446" id="svg_5" stroke-width="5" stroke="#000000" fill="none"/> <path d="m561.07813,33.52736c0,1.1707 0.01581,2.05147 0.27795,2.8793c0.25897,0.81784 0.4635,1.63293 1.04041,2.1832c0.60797,0.57985 1.29944,1.13079 2.0105,1.57544c0.69739,0.4361 0.78442,1.27222 0.78442,2.0683c0,0.94415 -0.3512,1.89982 -0.00043,2.74725c0.13715,0.3313 0.94165,-0.19744 1.28412,-0.89907l0.60815,-0.58762l0.00659,-0.88594" id="svg_6" stroke-width="5" stroke="#000000" fill="none"/> <path d="m591.76953,32.26173c0.03619,-1.1707 0.51086,-1.8498 1.04413,-2.51601c0.55005,-0.68721 1.16223,-1.40484 1.99335,-1.5939c0.86395,-0.19652 1.61511,-0.31907 2.50623,-0.31978c0.8996,-0.00072 1.78705,0.0316 2.52466,0.47461c0.77759,0.46702 1.06244,1.26738 1.10742,2.1832c0.04309,0.87687 0.1875,1.82883 -0.01807,2.64426c-0.22644,0.89818 -0.73969,1.66434 -1.45215,2.15372c-0.68713,0.47198 -1.49677,0.81693 -2.35828,1.04873c-0.82581,0.2222 -1.77191,0.03844 -2.65277,0.03844l-0.80408,-0.18183l-0.67755,-0.39825" id="svg_7" stroke-width="5" stroke="#000000" fill="none"/> <path d="m585.75781,31.62892c-1.0509,1.0125 -1.74677,1.61269 -2.21484,2.37964c-0.45599,0.7471 -0.58417,1.8807 0.06329,2.42932c0.65674,0.55649 1.75317,0.26982 2.41522,-0.32653c0.66229,-0.59656 1.02106,-1.35304 1.32977,-2.14101c0.32007,-0.81691 0.30499,-1.7086 0.12317,-2.53125l-0.51428,-0.73237" id="svg_8" stroke-width="5" stroke="#000000" fill="none"/> <path d="m572.46875,34.47658c-1.10742,-0.1582 -1.94965,-0.44697 -2.78436,-0.63281c-0.79755,-0.17757 -1.62573,-0.47114 -2.37305,-0.63281c-0.89642,-0.19393 -1.31451,0.71137 -1.17065,1.57523c0.14087,0.84594 0.31952,1.73586 0.75592,2.48279c0.4129,0.70665 1.00189,1.28852 1.89044,1.45547c0.83893,0.15763 1.75757,0.40826 2.62115,0.1804c0.79651,-0.21016 0.85571,-1.24754 1.06055,-2.02357l0,-0.88594" id="svg_9" stroke-width="5" stroke="#000000" fill="none"/> <path d="m579.74609,33.52736c1.10742,0.16479 1.60858,0.88594 2.15619,1.52677l0.48663,0.783l0.40967,0.75937" id="svg_10" stroke-width="5" stroke="#000000" fill="none"/> <path d="m575.31641,36.05861c0,0.69609 0,1.58203 0,2.4646l0,0.88931" id="svg_11" stroke-width="5" stroke="#000000" fill="none"/> <path d="m582.27734,35.10939c0,1.1707 0.10992,2.16692 -0.5379,2.73465c-0.6355,0.55691 -1.68585,0.13419 -2.43634,0.56399c-0.69739,0.39939 -1.07617,1.18463 -1.70856,1.76302l-0.9176,0.00084l-0.88593,0l-0.88593,-0.00142" id="svg_12" stroke-width="5" stroke="#000000" fill="none"/> <path d="m589.87109,38.58986c-0.73444,0.98086 -1.35748,1.64751 -1.93512,2.25155c-0.58264,0.60927 -1.18903,1.23359 -2.01996,1.809c-0.61743,0.42756 -1.50281,0.7247 -2.30975,1.00195c-0.77277,0.2655 -1.64532,0.31641 -2.5177,0.31641c-0.89612,0 -1.79437,-0.12755 -2.703,0c-0.81482,0.11438 -1.73199,0.33834 -2.25452,0.9412c-0.52026,0.60028 -0.42627,1.63383 -0.58807,2.46586c-0.17505,0.90003 -0.00366,1.65639 0.88745,1.65544c0.8996,-0.00097 1.65247,-0.4967 2.25317,-0.94753c0.79041,-0.59318 1.37878,-1.11141 2.10663,-1.67722c0.68976,-0.5362 1.4646,-0.82262 2.21021,-1.14513c0.73895,-0.31963 1.43671,-0.75256 2.12457,-1.23989c0.68036,-0.48201 1.28571,-1.02836 1.8457,-1.6875c0.52179,-0.61414 0.96356,-1.28292 1.42993,-1.94062l0.51465,-0.70269l0.32257,-0.72156l0.01184,-0.87413" id="svg_13" stroke-width="5" stroke="#000000" fill="none"/> <path d="m569.62109,46.50002c0.36914,0.58008 0.77795,1.3412 1.07239,2.1368c0.31897,0.86184 0.63934,1.64664 1.00787,2.49413c0.33307,0.76601 0.61426,1.61711 1.05725,2.36588c0.41882,0.70795 1.26013,1.09621 2.08319,1.22977c0.88928,0.14431 1.79474,0.05556 2.65277,0c0.86334,-0.05591 1.76495,-0.23529 2.57452,-0.47461c0.8053,-0.23805 1.54187,-0.68155 2.26691,-1.11544c0.80811,-0.48363 1.62335,-0.84865 2.31439,-1.2642c0.77374,-0.46526 1.50177,-0.94613 2.31781,-1.39699c0.7746,-0.42795 1.41119,-0.98494 2.11188,-1.44408c0.65271,-0.4277 1.28925,-0.95724 1.42383,-1.77188l0,-0.88594l0,-0.91758l-0.30981,-0.70268" id="svg_14" stroke-width="5" stroke="#000000" fill="none"/> <path d="m564.875,46.50002c-0.20483,1.39361 -0.29712,2.27833 -0.31641,3.16406c-0.01813,0.83232 -0.34314,1.72257 -0.52734,2.63672c-0.17828,0.88488 -0.10522,1.74023 -0.10547,2.6422c-0.00024,0.83236 -0.05975,1.70394 -0.31641,2.62443c-0.21088,0.75634 -0.31641,1.62048 -0.61475,2.33466l-0.17627,0.8428l-0.1582,0.88989l-0.30499,0.81211" id="svg_15" stroke-width="5" stroke="#000000" fill="none"/> <path d="m589.55469,47.13283c1.01294,0.40668 1.64288,0.93473 2.48273,1.39219c0.72083,0.39263 1.59344,0.73282 2.42157,1.1918c0.62823,0.34818 1.35089,0.7081 2.3183,1.06966c0.6228,0.23277 1.63562,0.51676 2.56226,0.76106c0.66888,0.17635 1.35217,0.34611 2.65405,0.67257c0.85107,0.21341 1.58173,0.38072 2.48956,0.64515c0.867,0.25253 1.62195,0.52463 2.34204,0.76048c0.77582,0.25409 1.78979,0.55731 2.7196,0.85572c0.89606,0.28758 1.76904,0.64661 2.42499,0.87481c1.02539,0.35673 1.82092,0.45905 2.63068,0.80758c0.86627,0.37284 1.73047,0.67694 2.53802,0.84765c0.93811,0.19831 1.74384,0.62196 2.56964,0.91077c0.80304,0.28084 1.62061,0.56278 2.60132,0.67131l0.68628,0.17086" id="svg_16" stroke-width="5" stroke="#000000" fill="none"/> </g> </svg>