<svg width="640" height="480" xmlns="http://www.w3.org/2000/svg" xmlns:svg="http://www.w3.org/2000/svg"> <!-- Created with SVG-edit - http://svg-edit.googlecode.com/ --> <g> <title>Layer 1</title> <path d="m148.21016,124c0,2.58933 0.0058,3.42135 0,4.33333c-0.00586,0.91739 0.0966,1.70428 -0.31123,2.696c-0.29065,0.70674 -0.77882,1.57063 -0.78468,2.4915c-0.00612,0.96449 0,1.68983 0,2.679c0,0.77934 0.16928,1.81812 -0.12531,2.55284c-0.32404,0.80821 -1.30385,1.32568 -1.80022,2.22583c-0.42099,0.76344 -0.26622,1.7215 -0.26631,2.56317c-0.00009,1.00099 0.05115,1.71481 -0.06264,2.45299c-0.16171,1.04921 -0.92599,1.72118 -1.45995,2.42668c-0.63168,0.83464 -0.63251,1.58302 -0.66431,2.57332c-0.02768,0.86198 -0.04306,1.83661 -0.62138,2.56784c-0.41127,0.52 -1.08507,1.19386 -1.83841,2.11349c-0.52654,0.64275 -1.0778,1.22925 -1.52934,2.05968c-0.45288,0.83293 -0.31813,1.75739 -0.4621,2.66882c-0.15947,1.00958 -0.45552,1.60408 -1.14268,2.57417c-0.47354,0.66852 -0.93005,1.5025 -0.97481,2.196c-0.06883,1.06636 0.06288,1.92792 -0.01169,2.82533c-0.05936,0.71413 -0.72209,1.76744 -1.15948,2.358c-0.47829,0.6458 -1.0274,1.2515 -1.58031,2.142c-0.48256,0.77721 -0.5473,1.82133 -0.54796,2.67467c-0.00073,0.94 -0.24471,1.79053 -0.62978,2.42534c-0.53378,0.87994 -0.46548,1.72133 -0.46614,2.57466c-0.00073,0.94 -0.26904,1.77728 -0.70943,2.52533c-0.45917,0.77995 -0.29689,1.79323 -0.42593,2.47467c-0.20815,1.09911 -0.93846,1.54626 -1.5816,2.32533c-0.61227,0.74167 -0.4901,1.67178 -0.5936,2.5c-0.12404,0.9924 -0.84876,1.6494 -1.05027,2.5c-0.21098,0.89064 -0.28506,1.81462 -0.57079,2.52083c-0.39259,0.97034 -0.51369,1.7683 -0.5465,2.49384c-0.04858,1.07442 -0.6471,1.80327 -0.96421,2.58534c-0.34534,0.85173 -0.13316,1.7 -0.13316,2.60799c0,1.05602 0,1.65001 0,2.61601c0,0.62399 0,1.80449 0,2.77617c0,0.78516 0,1.72516 0,2.73315c0,0.75601 0.00008,1.66667 0,2.57733c-0.0001,0.91084 0.04844,1.81847 -0.24274,2.78917c-0.1815,0.60506 -0.6779,1.2896 -1.27985,2.17484c-0.52461,0.77153 -0.65782,1.62517 -0.66924,2.60384c-0.00957,0.82011 -0.1256,1.73299 0.03945,2.6575c0.15566,0.87202 0.72739,1.50244 0.96295,2.47867c0.23308,0.96588 0.09144,1.88533 0.09351,2.6425c0.00247,0.90001 -0.01222,1.66542 0.31123,2.64149c0.25968,0.78363 0.73653,1.71393 0.78323,2.48534c0.05689,0.9399 0.00146,1.94933 0.00146,2.70534c0,0.91066 0,1.832 0,2.74399c0,0.91734 0,1.66133 0,2.696c0,0.76801 0,1.72784 0,2.62334c0,0.69467 -0.15115,1.72223 0.00493,2.64734c0.15736,0.93269 0.83739,1.5714 1.03326,2.35266c0.21363,0.85208 0.51507,1.72864 1.26324,2.44734c0.64044,0.6152 1.50156,1.11763 1.89958,2.06667c0.33136,0.79012 0.18016,1.66666 0.18265,2.58598c0.00249,0.909 0.01959,1.71658 0.24257,2.66852c0.18765,0.80121 0.48836,1.56412 0.76129,2.60815c0.19992,0.76471 0.80501,1.43991 1.09447,2.45599c0.20103,0.70572 0.09351,1.71451 0.09351,2.49384c0,0.99933 -0.11093,1.83005 0.03944,2.65683c0.1586,0.87198 0.67619,1.74716 1.27565,2.47867c0.50298,0.6138 1.3344,1.26816 2.08206,1.98535c0.61124,0.58633 0.86771,1.40726 0.9982,2.31067c0.13383,0.92673 0.49782,1.62408 1.08421,2.42267c0.49823,0.67853 1.43843,1.2851 1.87914,1.96664c0.49666,0.76813 0.65723,1.67389 0.94247,2.41068c0.37773,0.97568 0.45471,1.76834 0.46614,2.76816c0.00948,0.83099 0,1.78918 0,2.52118c0,1.16666 -0.08449,1.88614 0.3653,2.83334c0.33562,0.70679 0.92101,1.42419 1.29758,1.89865c0.77429,0.97559 1.35257,1.5173 2.15529,2.25201c0.56462,0.51678 1.55865,1.28983 2.04863,1.91199c0.48006,0.60956 0.63104,1.65503 0.66925,2.28c0.05901,0.96503 0.02969,2.05957 0.03944,2.892c0.01143,0.97382 0.14308,1.77716 0.50121,2.71466c0.22266,0.58289 0.53,1.22311 1.18924,2.23834c0.47807,0.73621 1.03439,1.43253 1.52881,2.112c0.6265,0.86099 1.03786,1.84045 1.47565,2.56702c0.51239,0.85037 0.7822,1.55716 0.78468,2.45267c0.00237,0.86331 -0.03987,1.77069 0.28055,2.40198c0.53542,1.0549 1.12312,1.62564 1.64825,2.26935c0.51253,0.62827 1.40736,1.60925 1.86122,2.13434c0.73003,0.84457 1.1606,1.57553 1.47037,2.22833c0.46736,0.98495 0.72537,1.80884 1.09592,2.54398c0.49362,0.97937 1.13156,1.53647 1.75345,2.18002c0.69954,0.72394 1.20349,1.37344 1.57082,2.42267c0.25742,0.73529 0.14159,1.70441 0.42522,2.48798c0.31743,0.87698 0.7852,1.65063 0.8519,2.47736c0.07253,0.8989 0.00145,1.87332 0.00145,2.74481c0,0.7605 0,1.38583 0,2.95651c0,0.46365 0,1.44901 0,1.95468c0,0.99731 -0.01358,1.9227 0.00018,3.03799c0.01141,0.92416 0.25005,1.82581 0.54778,2.50732c0.42581,0.97473 0.54549,1.75266 0.54796,2.65268c0.00237,0.86331 0,1.86816 0,2.68066c0,0.91733 -0.05504,1.6626 0.00145,2.69733c0.04669,0.85507 0.35004,1.65845 0.89592,2.431c0.5183,0.73352 1.29478,1.49127 1.84242,2.01749c0.53671,0.51572 1.48715,1.37784 2.14616,1.97919c0.70374,0.64215 1.36952,1.24966 2.23749,2.04166c0.60495,0.552 0.94029,0.858 1.64388,1.5c0.70358,0.642 1.64388,1.5 2.33759,2.133c0.51617,0.47101 1.30229,1.18832 2.04607,1.867c0.56551,0.51599 1.43643,1.21146 1.85812,1.867c0.54587,0.8486 0.76825,1.81009 0.99127,2.457c0.21548,0.62506 0.68864,1.87604 1.26816,2.36249c0.8916,0.74838 1.71298,0.98267 2.30159,1.28418c1.10631,0.56668 1.9706,1.03143 2.87331,1.52933c0.44911,0.24771 1.31865,0.70294 2.3396,1.35699c0.89957,0.57629 1.54317,1.34387 2.28607,1.78583c0.80431,0.47849 1.772,0.70544 2.39494,1.24384c0.8652,0.7478 1.4198,1.32541 2.31749,1.94669c0.63106,0.43674 1.5208,0.8002 2.45795,1.46664c0.64626,0.45956 1.27795,1.11243 2.10837,1.86667c0.53633,0.48715 1.10011,1.06009 2.22818,1.81183c0.62338,0.41544 1.45552,0.80127 2.25868,1.33051c0.74088,0.48819 1.53754,1.02881 2.2742,1.45901c0.83521,0.48773 1.71474,0.97818 2.14069,1.22665c1.45952,0.85144 2.11052,1.41751 2.83916,1.71735c1.00357,0.41299 1.75943,0.33591 2.78525,0.73065c0.91991,0.354 1.48509,0.79333 2.82584,1.224c0.64867,0.20834 1.73691,0.32278 2.552,0.43869c1.46974,0.20898 2.03656,0.32971 3.26309,0.59998c0.64165,0.14139 1.28487,0.297 2.5491,0.58936c0.59862,0.13843 2.14592,0.47632 2.94417,0.59549c0.94409,0.14093 2.02771,0.26727 2.89159,0.46249c0.93813,0.21201 1.57475,0.41348 2.89777,0.56201c0.66495,0.07465 1.70506,0.08307 2.8114,0.08533c1.18523,0.00241 1.98634,-0.00003 2.76553,0c1.38852,0.00009 2.24857,-0.02533 3.02254,0.05716c1.0741,0.1145 1.93268,0.37878 2.78581,0.59018c1.13618,0.28152 2.07401,0.35199 2.93758,0.35266c0.99217,0.00076 2.00481,-0.00348 2.83334,0.00134c0.93373,0.00543 1.94675,0.02753 2.474,0.05582c1.63071,0.08746 2.72119,0.22327 3.25818,0.2955c1.04333,0.14038 2.01559,0.3132 3.30252,0.48068c0.70282,0.09146 1.78848,0.16132 2.86545,0.16666c0.97025,0.00482 1.84698,0.00009 2.80261,0c0.95493,-0.00009 1.77841,0.01181 2.79605,-0.05716c1.21902,-0.08261 2.13297,-0.22507 3.11023,-0.36816c0.50372,-0.07376 1.52023,-0.24866 3.03787,-0.40802c0.961,-0.10089 1.42929,-0.08389 2.72223,-0.228c0.78201,-0.08716 1.82443,-0.33792 2.65359,-0.79999c0.80676,-0.44955 1.83307,-1.13806 2.42142,-1.37701c0.85199,-0.34601 2.08682,-0.68997 3.00116,-0.75098c0.88904,-0.05933 1.83655,-0.01068 2.55804,-0.01068c1.10962,0 2.42178,0 3.24207,0c0.771,0 1.87274,0 2.83115,0c0.71927,0 1.94067,0.00381 2.85248,-0.00134c0.9469,-0.00537 1.88016,0.00601 2.73541,-0.08398c1.3204,-0.13892 2.16528,-0.67142 2.47821,-1.40134c0.32376,-0.75513 1.16223,-1.70386 1.95364,-2.19467c0.44513,-0.27606 1.43811,-0.78333 1.94928,-1.02133c0.97672,-0.4548 2.2482,-0.83649 3.19113,-1.27649c0.82275,-0.38394 1.13901,-1.11786 1.94064,-1.85419c0.65332,-0.60007 1.47177,-0.97458 2.40814,-1.556c0.80084,-0.49728 1.6767,-0.67117 2.50818,-0.96332c0.95792,-0.33658 2.01874,-0.4939 2.90616,-0.65634c0.98978,-0.18118 1.69611,-0.8382 2.23877,-1.39999c0.73337,-0.75928 1.23911,-1.60565 1.68405,-2.19101c0.62457,-0.82169 1.24567,-1.38284 1.78851,-2c0.68542,-0.77924 1.18094,-1.59784 1.62637,-2.39999c0.45483,-0.81912 0.82895,-1.51474 1.27853,-2.33334c0.53165,-0.96796 0.90332,-1.6507 1.29391,-2.30417c0.5195,-0.86914 1.20584,-1.63211 1.49704,-2.32916c0.41772,-0.99988 0.25217,-1.8566 0.67947,-2.86667c0.31619,-0.74734 0.99915,-1.30234 1.46121,-2.16666c0.40765,-0.76257 0.47031,-1.64044 0.98776,-2.39868c0.55676,-0.81583 1.36246,-1.39206 1.54599,-2.22665c0.22153,-1.00748 0.02075,-1.72198 0.02338,-2.73868c0.00247,-0.94049 0.13919,-1.82028 0.47781,-2.46133c0.54965,-1.0405 1.10721,-1.5163 1.71402,-2.34131c0.46729,-0.63535 0.99149,-1.65591 1.0842,-2.45868c0.09879,-0.85535 -0.03979,-1.63849 0.49683,-2.57449c0.36423,-0.63525 1.20218,-1.25995 1.6395,-2.17484c0.43286,-0.90558 0.68634,-1.60263 1.03015,-2.60382c0.24179,-0.70407 0.72134,-1.5018 1.18103,-2.33051c0.35925,-0.64758 0.97458,-1.46606 1.45792,-1.94168c0.76764,-0.75537 1.51239,-1.41599 2.23715,-2.07733c0.73645,-0.672 1.44165,-1.23175 2.05157,-1.87601c0.59747,-0.6311 0.99402,-1.55768 1.20547,-2.15399c0.34128,-0.9624 0.36884,-1.6745 1.10577,-2.77499c0.45294,-0.67636 1.34991,-1.19101 2.12793,-1.69235c0.54501,-0.3512 1.57724,-0.98029 2.27658,-1.53867c0.87967,-0.70239 1.39401,-1.23599 2.16608,-1.94049c0.63654,-0.58084 1.26971,-1.20361 2.08899,-1.87015c0.84097,-0.68417 1.52628,-1.05542 2.33667,-1.52084c0.85522,-0.49118 1.48364,-1.00339 2.25449,-1.7045c0.76837,-0.69888 1.31509,-1.20001 2.08221,-1.89999c0.76715,-0.70001 1.31512,-1.20001 2.08228,-1.90002c0.6575,-0.59998 1.3284,-1.18802 2.08221,-1.90015c0.55801,-0.52713 1.1936,-1.39026 1.64389,-2.07449c0.53409,-0.81165 1.12866,-1.42319 2.0647,-2.02936c0.56152,-0.36365 1.50275,-1.28531 1.78998,-1.85065c0.32101,-0.63171 0.55972,-1.35645 0.93372,-2.064c0.57361,-1.08521 1.12372,-1.72836 1.67749,-2.33969c0.78586,-0.86752 1.5112,-1.60577 2.01501,-2.31631c0.47153,-0.66504 1.0705,-1.65024 1.44006,-2.17352c0.56232,-0.79626 1.27121,-1.7355 1.74265,-2.23749c0.79294,-0.84433 1.43768,-1.29697 2.03513,-2.13565c0.46439,-0.65189 0.82126,-1.50864 1.01428,-2.37601c0.23654,-1.06305 0.34647,-1.67102 0.56583,-2.32352c0.34378,-1.02261 0.80655,-1.96686 1.40683,-2.6965c0.53146,-0.64603 1.38791,-1.17599 1.89374,-1.90799c0.54449,-0.78802 0.36823,-1.72937 0.49442,-2.61749c0.12463,-0.87735 0.81595,-1.61023 1.20038,-2.52118c0.24634,-0.58362 0.52267,-1.55704 0.67383,-2.18399c0.28659,-1.1889 0.40128,-1.9212 0.79782,-2.81616c0.41434,-0.93518 0.80273,-1.58557 1.08423,-2.26917c0.48645,-1.1813 0.57901,-1.94885 0.71307,-2.64935c0.19263,-1.00638 0.45901,-1.82422 0.7876,-2.63333c0.4093,-1.00784 0.83163,-1.63855 1.13101,-2.68399c0.22214,-0.77585 0.21481,-1.54013 0.73059,-2.47916c0.40836,-0.74347 0.5383,-1.62106 0.54794,-2.40619c0.01172,-0.95084 0.09686,-1.76483 0.77298,-2.71014c0.43207,-0.60406 1.20209,-1.36801 1.43494,-2.06586c0.28897,-0.86597 0.55157,-1.83359 0.76859,-2.57065c0.27905,-0.94772 0.66061,-1.81859 1.02069,-2.58234c0.42908,-0.91014 0.32254,-1.69475 0.47855,-2.41766c0.20981,-0.97212 0.93088,-1.86172 1.00238,-2.65334c0.08557,-0.94753 0.01285,-1.73959 0.39291,-2.71017c0.22952,-0.58615 1.02539,-1.46423 1.40894,-2.15717c0.46942,-0.84808 0.40628,-1.79523 0.85757,-2.61133c0.42667,-0.77168 0.43958,-1.67426 0.7233,-2.436c0.33069,-0.88792 0.98193,-1.59946 1.00241,-2.5c0.02054,-0.90379 0.02667,-1.57835 0.31415,-2.75333c0.15594,-0.63754 0.3508,-1.32227 0.65753,-1.98001c0.57346,-1.22957 1.26498,-1.88554 1.69211,-2.564c0.59882,-0.95122 0.53506,-1.74945 0.62888,-2.64999c0.09677,-0.92935 0.52344,-1.59386 0.77975,-2.52467c0.23657,-0.85919 0.27945,-1.88959 0.33899,-2.61333c0.06024,-0.7323 0.19064,-1.79776 0.43835,-2.75734c0.1492,-0.57794 0.55295,-1.70874 0.6181,-2.472c0.08871,-1.0394 0.01169,-1.78983 0.01169,-2.784c0,-0.76534 -0.11972,-1.74081 0.18265,-2.76801c0.20401,-0.69301 0.62228,-1.43048 0.8605,-2.43333c0.1893,-0.79694 0.51337,-1.61632 1.14868,-2.37917c0.45624,-0.54781 0.99161,-1.50475 1.10083,-2.32533c0.11597,-0.87088 0.63348,-1.66705 0.90836,-2.52882c0.26868,-0.84233 0.18265,-1.80267 0.18265,-2.65067c0,-0.86334 0,-1.75883 0,-2.716c0,-0.90018 0,-1.68533 0,-2.636c0,-0.76534 0,-1.75951 0,-2.50684c0,-1.03183 0,-1.9785 0,-2.83183c0,-0.94 0,-1.82533 0,-2.63966c0,-0.95367 0.00388,-1.68568 0,-2.41766c-0.00586,-1.10672 -0.26224,-2.08263 -0.54794,-2.78883c-0.39258,-0.97034 -0.52701,-1.7679 -0.54651,-2.49384c-0.02884,-1.07436 -0.0014,-1.98534 -0.00146,-2.78984c-0.00009,-1.017 0.06711,-1.7321 -0.18265,-2.6955c-0.20953,-0.80833 -0.73352,-1.49072 -0.89041,-2.52083c-0.1543,-1.01282 -0.02286,-1.76184 -0.02286,-2.64534c0,-1.0005 0,-1.71783 0,-2.45917c0,-0.74933 0,-2.20799 0,-2.88933c0,-0.64934 0,-1.58084 0,-2.785c0,-0.59134 0,-1.42833 0,-2.55733c0,-0.834 0,-1.77901 0,-2.63234c0,-0.82933 0,-2.01067 0,-2.76134c0,-0.81467 0,-1.63733 0,-2.412c0,-1.2 0,-2.00266 0,-2.83733c0,-0.858 0,-1.5 0,-2.448c0,-1.1805 0,-2.052 0,-2.85201c0,-0.95717 -0.00052,-1.85716 0,-2.60449c0.00073,-0.99684 -0.00708,-1.83846 0.18265,-2.76218c0.16394,-0.79819 0.47003,-1.63939 0.60205,-2.23466c0.26376,-1.18959 0.29785,-2.07768 0.30975,-2.91333c0.01425,-0.99992 -0.04242,-1.89162 0.24405,-2.88517c0.17395,-0.60326 0.75031,-1.6226 0.84161,-2.4255c0.0972,-0.85414 0.01172,-1.722 0.01172,-2.6175c0,-0.95716 0,-1.8575 0,-2.5715c0,-0.95367 0,-1.68567 0,-2.85233c0,-0.79167 0,-1.744 0,-2.65533c0,-0.76134 0,-1.53533 0,-2.54183c0,-0.78967 0,-1.61533 0,-2.42101c0,-1.32916 0,-2.13183 0,-3.01517c0,-0.90266 0,-1.67066 0,-2.70533c0,-0.744 0,-1.66133 0,-2.64533c0,-0.89217 0,-1.61066 0,-2.40117c0,-1.02683 0,-1.94817 0,-2.63216l0,-0.99866l0,-1.05601" id="svg_1" stroke-width="5" stroke="#000000" fill="none"/> <path d="m159,120c0,-1.82533 -0.174,-2.86295 0.05716,-3.6955c0.21518,-0.77505 0.86514,-1.62077 0.92201,-2.3045c0.09241,-1.11102 0.02083,-2 0.02083,-2.8c0,-0.89999 -0.05257,-1.74403 0.28534,-2.68533c0.26859,-0.74821 0.72917,-1.50768 1.10399,-2.30399c0.33855,-0.71926 0.59526,-1.75224 0.61067,-2.71067c0.01387,-0.86244 -0.00848,-1.5281 0.11433,-2.19917c0.23405,-1.27891 0.75137,-2.03039 1.035,-2.5155c0.54688,-0.93534 0.77512,-1.7299 0.82933,-2.524c0.0762,-1.11627 0.02251,-1.91994 0.24266,-2.80399c0.24094,-0.96752 0.577,-1.67345 0.72151,-2.64301c0.13509,-0.90627 0.05716,-1.69966 0.05716,-2.63966c0,-1.008 -0.08093,-1.83308 0.436,-2.57467c0.55193,-0.79179 1.22066,-1.25594 2.10666,-1.92133c0.45503,-0.34174 1.21861,-0.837 2.12401,-1.512c0.68121,-0.50787 1.49165,-1.0531 2.15866,-1.13066c1.00189,-0.11651 1.92648,-0.06871 2.57466,0.39999c0.78185,0.56536 1.33374,1.28731 2.25267,1.51134c0.68262,0.16642 1.62686,0.36897 2.34734,1.05267c0.63425,0.60187 1.06532,1.34422 1.52083,2c0.60147,0.86591 1.31381,1.34956 1.99518,1.79867c0.73721,0.48592 1.48352,1.20181 1.98399,1.70133c0.69933,0.698 1.52736,1.22072 2.136,0.87867c0.89497,-0.50297 1.56247,-0.94228 2.3425,-1.4785c0.74118,-0.50951 1.56534,-0.94066 2.343,-0.6785c0.72878,0.24567 1.68626,0.93555 2.274,1.42651c0.57625,0.48135 1.35756,1.22256 2.15717,1.34283c0.89,0.13387 1.83543,0.06296 2.61133,-0.42699c0.83823,-0.52932 1.30733,-1.20442 1.5145,-2.10667c0.21542,-0.9382 0.12167,-1.68934 0.12151,-2.78534c-0.00014,-0.87333 -0.15874,-1.84183 -0.42534,-2.49733c-0.2823,-0.69412 -0.55368,-1.78854 -1,-2.57467c-0.41165,-0.72507 -0.62859,-1.94681 0.12984,-2.18567c0.83817,-0.26397 1.35217,0.64367 2.05951,1.34967c0.59456,0.59344 1.23599,1.236 1.87799,1.878c0.306,0.306 1.302,1.302 1.92599,1.926c0.632,0.632 1.23201,1.23201 1.84267,1.84267c0.75601,0.756 1.20107,1.28484 1.93668,1.8795c0.72992,0.59006 1.66006,0.86581 2.23599,1.27233c0.56546,0.39914 1.3976,0.98779 2.13634,1.44283c0.81683,0.50315 1.24228,0.75998 2.11501,1.22667c1.2103,0.6472 1.93529,0.96661 2.582,1.2055c0.80226,0.29635 1.95509,0.52972 2.722,0.6465c0.84796,0.12912 1.57199,0.26867 2.36133,0.416c0.78934,0.14733 2.11037,0.42059 2.95833,0.47916c1.08195,0.07473 1.79234,0.02084 2.53633,0.02084c1.03467,0 2.00534,0.0019 2.76251,0c0.89551,-0.00225 1.88286,0.1255 2.59616,-0.436c0.74495,-0.5864 0.4485,-1.72459 0.81334,-2.564c0.29753,-0.68455 1.23898,-1.23913 1.54799,-1.88533c0.42517,-0.88915 0.28741,-1.74223 0.6425,-2.71017c0.28383,-0.77369 0.71333,-1.68446 1.44283,-2.11784c0.85794,-0.50965 1.88129,-0.30983 2.55469,-0.17867c0.59515,0.11593 1.73419,0.54745 2.65149,0.95c0.48651,0.21349 1.45538,0.6684 1.92599,0.884c1.23166,0.56429 2.07486,0.93443 3.06784,1.058c0.75351,0.09377 1.63892,0.38749 2.34732,0.64733c0.99973,0.36671 1.85406,0.34061 2.81934,0.35267c0.83353,0.01042 1.64752,0.20622 2.45868,0.57467c0.84085,0.38194 1.73526,0.57045 2.62201,0.41633c0.96045,-0.16693 1.61258,-0.81218 2.04282,-1.34283c0.67651,-0.83441 1.01486,-1.69678 1.35718,-2.34817c0.46356,-0.88213 0.30423,-1.78944 0.38867,-2.51067c0.11703,-0.99958 0.43777,-1.79665 0.96399,-2.62267c0.4411,-0.69243 0.92831,-1.483 0.98932,-2.34133c0.06665,-0.93771 0.01523,-2.14996 0.82953,-2.35384c0.939,-0.2351 1.70358,0.56751 2.23297,0.88483c1.02997,0.61736 1.73883,1.00445 2.40085,1.4535c0.7327,0.497 1.50027,1.19044 2.02649,1.69017c0.51572,0.48975 1.37784,1.35699 1.97919,1.95834c0.64166,0.64165 1.26346,1.22078 1.84164,1.84616c0.52026,0.56275 1.06683,1.55276 1.45718,2.04284c0.65906,0.82744 1.45349,1.242 2.24283,1.65266c0.78934,0.41067 1.56918,0.83527 2.116,1.48534c0.57053,0.67825 1.02252,1.53896 1.53668,2.10567c0.6601,0.72757 1.44745,1.39651 2.44781,1.40866c0.77933,0.00947 1.66739,-0.43401 2.25751,-0.7095c0.64639,-0.30177 1.63544,-0.7377 2.586,-1.40617c0.65887,-0.46333 1.15335,-1.20691 1.556,-1.884c0.49673,-0.83529 1.01556,-1.50516 1.66666,-2.16666c0.65344,-0.66389 1.16193,-1.19993 1.948,-1.94667c0.56766,-0.53924 1.38516,-0.87624 2.28534,-0.88667c0.89993,-0.01041 1.80533,-0.00006 2.52869,0c1.05682,0.00008 1.78674,-0.00504 2.59216,0.02084c0.82602,0.02654 1.99783,0.07187 2.90765,0.34083c0.76001,0.22467 1.58014,0.79452 2.17151,1.291c0.6091,0.51137 1.38422,1.20509 2.21066,1.722c0.63492,0.39712 1.6105,0.9465 2.13751,1.27351c0.7905,0.49049 1.68472,1.1355 2.51016,1.31017c0.84274,0.17834 1.48532,0.18221 2.52716,0.70567c0.74097,0.3723 1.53354,0.83937 1.94916,1.06c0.81119,0.43061 1.88199,0.98409 2.74667,1.168c0.81757,0.17388 1.86536,0.09898 2.81866,0.27467c0.8634,0.15912 1.49835,0.34075 2.142,0.48067c1.29883,0.28233 2.04449,0.35051 3.03,0.35267c0.87067,0.00191 1.59155,0.08987 2.56,-0.08533c0.97705,-0.17677 1.62955,-0.76363 2.06351,-1.57633c0.4108,-0.76934 0.59293,-1.75856 0.67917,-2.56367c0.08795,-0.82099 0.21982,-1.86224 0.46133,-2.54933c0.24182,-0.68797 0.67734,-1.6417 0.95334,-2.44c0.2666,-0.77109 0.38879,-1.87027 0.78,-2.668c0.41052,-0.83712 1.02759,-1.54387 2.03082,-1.43117c0.91525,0.10281 1.26144,0.78447 2.22101,1.735c0.52948,0.52451 1.05798,1.05799 1.569,1.569c0.86682,0.86683 1.46817,1.46817 2.11017,2.11017c0.57166,0.57166 1.233,1.23301 1.90948,1.9095c0.51102,0.51101 1.03952,1.04449 1.82352,1.8235c0.70728,0.70276 1.05954,1.24331 2.16666,1.83333c0.56131,0.29915 1.53848,0.3616 2.396,0.76933c0.68021,0.32344 1.65567,0.76944 2.29068,0.964c0.67157,0.20576 1.98593,0.58397 2.54266,0.8c0.96039,0.37266 1.77777,0.78628 2.56,1.2c0.73221,0.38728 1.44669,0.90743 2.21066,1.6c0.55759,0.50547 1.49448,1.01604 2.052,1.19867c0.93948,0.30777 1.58496,0.46886 2.68365,0.68c0.86481,0.16619 1.73459,0.43998 2.61166,0.76866c0.88303,0.33091 1.75269,0.35267 2.65268,0.35267c0.79999,0 1.80252,-0.02762 2.2955,-0.71433c0.45291,-0.63091 0.65164,-1.68473 0.69382,-2.52167c0.04681,-0.92955 -0.0195,-1.71873 0.04669,-2.53867c0.08585,-1.06324 0.24829,-2.07381 0.76532,-2.65334c0.64581,-0.7239 1.69867,-0.572 2.59866,-0.572c0.80267,0 1.57068,0 2.60535,0c0.74399,0 1.88409,-0.18016 2.68567,0.05717c0.78955,0.23377 1.20667,0.9057 1.793,1.71083c0.52722,0.72396 1.02097,1.47237 1.62933,2.26134c0.51578,0.66888 0.70657,1.57933 1.24384,2.26617c0.58182,0.74378 1.55301,0.67849 2.46817,0.2685c0.71304,-0.31944 1.59344,-0.74831 2.05331,-1.66417c0.36417,-0.72527 0.5163,-1.54168 0.76868,-2.30434c0.32394,-0.9789 0.27039,-1.82281 0.57449,-2.79533c0.25385,-0.81177 0.68918,-1.40636 1.55151,-1.91483c0.76514,-0.45115 1.44507,-0.59937 2.56,-0.88533c0.82858,-0.21251 1.69485,-0.39497 2.54398,-0.564c0.78302,-0.15587 1.73215,-0.36457 2.68002,-0.42533c0.96158,-0.06164 1.92667,-0.01067 2.61731,-0.01067c1.06818,0 1.9425,-0.09812 2.71069,0.08533c0.96609,0.23073 1.60767,0.67393 2.12933,1.51466c0.48169,0.77632 1.01657,1.54916 1.37466,2.22533c0.3573,0.67468 0.52591,1.65815 0.62134,2.596c0.09369,0.92049 0.35034,1.58156 0.564,2.328c0.31604,1.10419 0.46207,2.00608 -0.09552,2.75066c-0.58408,0.77994 -1.15271,1.31721 -1.50449,2.1c-0.36859,0.82024 -1.18185,1.41804 -1.61749,2.1c-0.49222,0.77053 -0.49609,1.64194 -0.79318,2.55067c-0.24579,0.75182 -0.65189,1.61465 -1.164,2.36401c-0.48837,0.71461 -1.00021,1.34428 -1.2785,2.36383c-0.21829,0.79967 -0.12155,1.7215 -0.12149,2.56316c0.00009,1.00117 -0.02878,1.72298 0.05716,2.51017c0.11282,1.03343 0.41116,1.93739 0.94284,2.78151c0.43756,0.69467 0.9212,1.48334 0.97916,2.1875c0.08032,0.97607 0.02084,1.76849 0.02084,2.8125c0,0.79199 0.01801,1.81955 0,2.51399c-0.02667,1.02837 -0.3959,1.59103 -1.42133,2.13533c-0.69711,0.37003 -1.48273,0.67007 -2.24402,0.948c-0.94244,0.34406 -2.01208,0.40289 -2.724,1.00534c-0.62955,0.53276 -0.61066,1.564 -0.61066,2.364c0,0.87199 -0.04257,1.7457 0.04166,2.74167c0.04819,0.56992 0.37411,1.77098 0.66818,2.34933c0.43628,0.85808 1.13177,1.76932 1.5285,2.29466c0.60782,0.80482 0.76099,1.61433 0.76166,2.51433c0.00067,0.90001 0,1.82083 0,2.784c0,0.69067 0.10031,1.76479 -0.00049,2.61633c-0.0863,0.72911 -0.65027,1.45435 -1.28616,2.15034c-0.46375,0.5076 -1.39749,1.39925 -1.8945,1.935c-0.55081,0.59375 -0.87323,1.51337 -1.31885,2.31433c-0.44455,0.79906 -0.41937,1.73114 -0.67151,2.37151c-0.3735,0.94868 -0.88904,1.49237 -1.34933,2.14932c-0.47629,0.67978 -1.17181,1.62999 -1.66031,2.46034c-0.38223,0.64973 -0.75357,1.63179 -0.81885,2.51883c-0.05203,0.707 -0.21887,1.76456 -0.35266,2.358c-0.21799,0.96692 -0.44312,1.57747 -0.59018,2.77499c-0.12619,1.02754 -0.05716,1.69234 -0.05716,2.70033c0,0.86217 -0.00357,1.76097 -0.33334,2.83334c-0.20822,0.67711 -0.52228,1.42696 -0.74399,2.23199c-0.20898,0.7589 -0.29819,2.05135 0.16068,2.51801c0.76178,0.77473 1.49112,0.92824 2.25949,1.22617c0.99811,0.38699 1.95715,0.35716 2.86118,0.35716c0.66748,0 1.84824,-0.009 2.47198,0.01067c0.96664,0.03049 1.96039,-0.0872 2.74066,0.51016c0.66873,0.51195 0.54013,1.58022 0.58334,2.47917c0.04272,0.88841 0.40237,1.63339 0.716,2.51601c0.29584,0.8325 0.284,1.793 0.284,2.81732c0,0.67201 0,1.416 0,2.52383c0,0.75751 -0.00101,1.8 0,2.54733c0.00134,0.99284 -0.17752,2.04459 0.70984,2.47667c0.72653,0.35378 1.68146,-0.30928 2.17416,-0.76784c0.80133,-0.74583 1.33826,-1.34996 1.71732,-1.79999c0.82446,-0.97884 1.20755,-1.55418 1.59869,-2.16c0.40936,-0.63405 1.00281,-1.67271 1.39548,-2.397c0.3866,-0.71307 0.87186,-1.73145 1.38318,-2.49167c0.47879,-0.71187 1.36099,-1.07056 2.23199,-1.326c1.01733,-0.29836 1.59244,-0.78488 2.13217,-1.2905c0.79129,-0.74126 1.4494,-1.29817 1.64648,-2.24817c0.16696,-0.80482 0.33316,-1.73946 0.716,-2.40533c0.43185,-0.7511 1.08472,-1.62627 1.25302,-2.45299c0.17081,-0.83899 0.04166,-1.59767 0.04166,-2.59634c0,-0.64265 0,-1.70166 0,-2.77866c0,-0.68134 -0.00012,-1.64584 0,-2.26218c0.00024,-1.20467 -0.01944,-2.12358 0.108,-2.74049c0.28064,-1.35854 0.73767,-2.05205 0.95898,-2.41217c0.45636,-0.74257 0.97223,-1.45587 1.76636,-2.4185c0.47,-0.56972 1.12033,-1.27538 1.67999,-1.84532c0.72351,-0.73677 1.39807,-1.19507 1.96582,-2.00883c0.51196,-0.7338 0.5155,-1.68979 0.52084,-2.67934c0.00443,-0.82065 0,-1.48517 0,-2.48384c0,-0.81599 0,-1.63199 0,-2.63199c0,-0.90933 0,-1.85068 0,-2.64117c0,-0.8535 -0.0061,-2.04288 0.00134,-2.64017c0.01071,-0.86115 0.09421,-2.10242 0.43466,-2.74133c0.47113,-0.88416 0.93304,-1.50554 1.36398,-2.17734c0.56088,-0.87436 1.30347,-1.41022 1.67917,-2.04649c0.50955,-0.86296 0.46606,-1.79567 0.52084,-2.4375c0.08093,-0.94827 0.34534,-1.91557 0.716,-2.79601c0.3295,-0.78265 0.284,-1.74567 0.284,-2.74683c0,-0.71851 -0.01172,-1.50906 0.00015,-2.53568c0.01041,-0.90085 0.13748,-1.93156 0.36151,-2.53049c0.25284,-0.67593 0.80649,-1.72359 1.121,-2.35768c0.33359,-0.67255 0.84262,-1.65633 1.18399,-2.53333c0.30374,-0.78036 0.74222,-1.62729 1.16669,-2.5c0.32083,-0.65967 0.79587,-1.47168 1.04517,-2.32133c0.24228,-0.82568 0.12149,-1.79733 0.12149,-2.54566c0,-0.897 0,-1.80901 0,-2.457c0,-1.176 0,-2.13434 0,-2.99751c0,-0.88917 0.00006,-1.87833 0,-2.65766c-0.00009,-0.99967 0.00424,-1.69161 -0.22168,-2.56384c-0.19128,-0.73856 -0.50784,-1.58131 -0.94498,-2.457c-0.45331,-0.90808 -0.81323,-1.47218 -1.34933,-2.22933c-0.57739,-0.81548 -1.24017,-1.40701 -1.87335,-2.17067c-0.54507,-0.65739 -0.46017,-1.63866 -0.72498,-2.35716c-0.29709,-0.80606 -1.14838,-1.43439 -1.55234,-2.4095c-0.31064,-0.74982 -0.32266,-1.57182 -0.33334,-2.5c-0.01047,-0.91194 0.035,-1.76367 -0.16666,-2.66667c-0.15198,-0.6805 -0.51837,-1.6521 -0.71201,-2.52416c-0.18253,-0.82202 -0.33334,-1.90875 -0.47852,-2.5005c-0.23798,-0.96993 -0.35648,-1.62968 -0.84283,-2.58733c-0.42654,-0.83988 -0.98529,-1.5474 -1.39999,-2.22933c-0.58096,-0.95534 -1.05817,-1.46985 -1.72116,-2.36816c-0.33853,-0.4587 -0.90375,-1.20333 -1.34549,-2.2905c-0.28,-0.68916 -0.31915,-1.5789 -0.61734,-2.56533c-0.17923,-0.59289 -0.53482,-1.60145 -0.81332,-2.29867c-0.3331,-0.83395 -0.95392,-1.66457 -1.42352,-2.28183c-0.46729,-0.61423 -1.08563,-1.44247 -1.9375,-1.95834c-0.70276,-0.42558 -1.33545,-0.8087 -2.31232,-1.26383c-0.7565,-0.35246 -1.35663,-0.51876 -2.52899,-1.11983c-0.60132,-0.30829 -1.4137,-0.84425 -1.92969,-1.1095c-1.10239,-0.56671 -1.82788,-0.63371 -2.82266,-0.85467c-0.62665,-0.13919 -1.62476,-0.33381 -2.68365,-0.81467c-0.75208,-0.34153 -1.43396,-0.89527 -2.11102,-1.32133c-0.61771,-0.38871 -1.56973,-1.12768 -2.11948,-1.5795c-0.59061,-0.4854 -1.20615,-1.04035 -2.36719,-1.49917c-0.80637,-0.31865 -1.69485,-0.40426 -2.125,-0.4375c-1.20084,-0.0928 -2.15616,-0.0625 -3.02081,-0.0625c-1.02084,0 -1.87885,0 -2.52084,0c-0.948,0 -1.944,0 -2.79599,0c-0.96118,0 -1.86752,0.05329 -2.60852,-0.05717c-1.00888,-0.15038 -1.78018,-0.52059 -2.57416,-1.04267c-0.6651,-0.43733 -1.50415,-0.85189 -2.42584,-0.89566c-0.99573,-0.04729 -1.65018,0.06399 -2.76215,-0.33783c-0.81403,-0.29416 -1.29617,-0.69639 -2.064,-1.09867c-0.93655,-0.49067 -1.86935,-0.568 -2.76935,-0.568c-0.75717,0 -1.65268,0 -2.51599,0c-0.98401,0 -1.98123,0.01495 -2.67151,-0.04167c-0.67599,-0.05545 -2.14633,-0.2889 -2.78384,-0.40133c-0.70654,-0.12461 -1.46851,-0.26868 -2.27399,-0.429c-0.83856,-0.16691 -1.69675,-0.34605 -2.56201,-0.537c-0.86273,-0.19039 -2.52719,-0.58644 -3.306,-0.79083c-0.74115,-0.1945 -1.44113,-0.39188 -2.10001,-0.5895c-0.62106,-0.18628 -1.20486,-0.36048 -2.23999,-0.72533c-1.26688,-0.44655 -1.92511,-0.71249 -2.70398,-1.07467c-1.0527,-0.48951 -1.61911,-0.86536 -2.44269,-1.12534c-0.97394,-0.30744 -1.74976,-0.17566 -2.77466,-0.296c-0.96356,-0.11314 -1.66278,-0.52008 -2.31201,-0.79067c-0.98981,-0.41254 -1.78436,-0.70549 -2.54398,-0.91333c-1.09775,-0.30037 -1.94958,-0.42105 -2.61603,-0.732c-0.85931,-0.40094 -1.57294,-0.87703 -2.36798,-1.368c-0.77399,-0.47797 -1.63232,-0.97691 -2.436,-1.2c-0.88226,-0.2449 -1.59601,-0.42452 -2.34399,-0.63267c-1.02954,-0.2865 -2.00534,-0.35266 -2.81967,-0.35266c-0.95367,0 -1.68594,0.02463 -2.85233,0c-0.75787,-0.016 -1.54251,-0.15739 -2.83334,-0.5c-0.59412,-0.15769 -1.25903,-0.35208 -1.983,-0.5625c-0.76672,-0.22284 -1.5589,-0.4575 -2.36099,-0.6975c-0.79657,-0.23835 -1.57135,-0.4711 -2.98935,-0.90667c-0.61646,-0.18936 -1.66733,-0.51647 -2.52081,-0.79166c-0.71503,-0.23055 -1.6431,-0.55014 -2.54135,-0.83717c-0.86594,-0.27669 -1.41159,-0.4637 -2.65182,-0.65183c-0.67477,-0.10236 -1.62155,-0.21011 -2.40982,-0.40533c-0.85605,-0.21201 -2.0426,-0.4823 -2.64285,-0.566c-0.89966,-0.12545 -1.83694,-0.26297 -2.69965,-0.7455c-0.62225,-0.34805 -1.17197,-0.84256 -1.92969,-1.56917c-0.81454,-0.7811 -1.33347,-1.36166 -1.97198,-1.96667c-0.54272,-0.51423 -1.46228,-1.08158 -2.146,-1.5c-0.78311,-0.47925 -1.4357,-1.05536 -2.42068,-1.49867c-0.71484,-0.32172 -1.45572,-0.5536 -2.43115,-0.74866c-0.84827,-0.16962 -1.85507,-0.33856 -2.49817,-0.478c-0.69821,-0.1514 -1.41571,-0.33504 -2.81467,-0.48933c-0.62878,-0.06935 -1.46918,-0.08308 -2.67368,-0.08533c-0.81433,-0.00152 -1.61432,0 -2.5715,0c-0.91348,0 -1.56149,0 -2.74283,0c-0.75067,0 -1.56534,0 -2.388,0c-0.77466,0 -1.97083,-0.01614 -2.79401,0c-0.91852,0.01801 -1.7103,0.44421 -2.418,1.09983c-0.59363,0.54996 -1.39981,0.88975 -2.29999,0.90017c-0.90894,0.01052 -1.93335,0 -2.60535,0c-0.74399,0 -1.85165,0 -2.68567,0c-0.98099,0 -1.85165,0 -2.55966,0c-0.98132,0 -1.935,0 -2.84933,0c-0.89999,0 -1.6701,0.02051 -2.55267,0.35267c-0.70621,0.26578 -1.74478,0.54699 -2.66864,0.86883c-0.70047,0.24403 -1.53879,0.74617 -2.19952,1.32016c-0.46854,0.40701 -1.24716,1.22633 -1.72983,1.709c-0.74399,0.744 -1.41599,1.416 -2.07733,2.07733c-0.672,0.672 -1.25586,1.26688 -1.9765,1.62383c-0.84485,0.41848 -1.52777,0.9022 -2.04285,1.4c-0.77798,0.75195 -1.34814,1.34367 -2.05264,2.04817c-0.60001,0.6 -1.20001,1.2 -1.91351,1.9135c-0.55801,0.558 -1.18475,1.18825 -1.73849,1.73717c-0.62207,0.61663 -1.25694,1.25412 -1.896,1.812c-0.77039,0.67255 -1.57622,1.07243 -2.552,1.63733c-0.5672,0.32837 -1.1803,0.78082 -1.82401,1.26c-0.62825,0.46767 -1.63565,1.25205 -2.24399,1.81867c-0.64922,0.60469 -1.22856,1.30896 -1.74551,2.083c-0.39188,0.58675 -1.17212,1.5209 -1.74249,2.02233c-0.63646,0.55952 -0.99445,0.83293 -1.75751,1.36333c-1.16862,0.81232 -1.98106,1.26851 -2.37299,1.491c-0.74829,0.4248 -1.47372,0.74803 -2.54901,1.44017c-0.72504,0.46669 -1.27866,1.24669 -2.02167,1.66434c-0.84689,0.47603 -1.60942,0.45924 -2.1855,0.69716c-1.1701,0.48325 -1.59618,0.78899 -2.54799,1.36134c-0.49069,0.29507 -1.43695,0.89553 -1.888,1.16267c-1.38113,0.81797 -2.16721,1.11466 -3.032,1.136c-0.91057,0.02247 -1.61017,0 -2.78951,0c-0.6105,0 -1.48517,0 -2.4825,0c-0.79651,0 -1.548,0 -2.688,0c-0.76801,0 -1.61484,0 -2.74133,0c-0.82266,0 -1.2345,0 -2.7235,0c-0.85651,0 -1.55101,0 -2.5645,0c-0.8,0 -1.80446,-0.06648 -2.57918,0.02083c-1.01399,0.11428 -1.63097,0.54484 -2.41682,0.7805c-1.23425,0.37014 -1.79248,0.40266 -2.37717,0.49417c-1.24594,0.19501 -1.88522,0.27072 -2.51534,0.34733c-0.60858,0.07399 -2.18111,0.25614 -3.2955,0.32117c-0.78828,0.046 -1.62572,-0.04131 -2.45767,0.0985c-0.7438,0.125 -1.60847,0.589 -2.25916,0.9955c-0.68666,0.42897 -1.61101,1.1515 -2.43484,1.57767c-0.83777,0.43338 -1.75574,0.63645 -2.47499,0.975c-0.79633,0.37483 -1.631,0.79082 -2.30367,1.26083c-0.84625,0.59129 -1.45708,1.17542 -2.12567,1.8045c-0.34161,0.32142 -1.00014,0.96334 -1.86,1.824c-0.63495,0.63554 -1.25974,1.28859 -1.82133,2.04266c-0.51909,0.69701 -0.82904,1.22462 -1.51199,2.124c-0.51279,0.67529 -1.2578,1.25919 -1.73067,1.93333c-0.52185,0.74398 -0.66426,1.71853 -0.936,2.4c-0.38863,0.97459 -0.48524,1.87488 -1.0625,2.52084c-0.67009,0.74984 -1.44316,1.13137 -1.9375,1.47916c-0.73247,0.51533 -1.79155,1.15527 -2.21201,1.79867c-0.49632,0.75949 -0.8553,1.69086 -1.32967,2.243c-0.55707,0.64839 -1.17195,1.36974 -1.74767,2.18367c-0.38397,0.54286 -1.05002,1.60454 -1.45799,2.322c-0.38371,0.67479 -0.91978,1.61906 -1.23534,2.13667c-0.49721,0.81557 -0.90109,1.32587 -1.27451,2.39433c-0.29942,0.85676 -0.32364,1.81249 -0.8535,2.511c-0.59647,0.78631 -1.21022,1.41479 -1.45067,2.11867c-0.36299,1.06256 -0.63763,1.65807 -0.98033,2.292c-0.35175,0.65067 -1.12135,1.77727 -1.74767,2.292c-0.52512,0.43156 -1.47469,0.98575 -2.21066,1.708c-0.5153,0.5057 -1.09735,1.32291 -1.5,2c-0.49673,0.83529 -1.03496,1.44691 -1.69867,2.20133c-0.46997,0.53419 -0.71532,1.4613 -0.854,2.20317c-0.18787,1.00491 -0.558,1.79549 -0.94733,2.5955c-0.38933,0.8 -0.7924,1.58533 -0.94284,2.59549c-0.11035,0.74103 -0.05716,1.65634 -0.05716,2.73785c0,0.672 0,1.41599 0,2.52432c0,0.86499 0,1.80901 0,2.47833c0,0.76534 0,1.56267 0,2.99733c0,0.74251 0,1.54668 0,2.492c0,1.008 0,1.76401 0,2.67467c0,0.92134 0,1.83333 0,2.50983c0,1.04201 0,2.06868 0,2.75418c0,0.83466 0,1.8315 0,2.57883c0,1.02116 0,1.96617 0,2.99049c0,0.681 -0.00391,1.48801 0,2.66667c0.002,0.60268 0.02072,1.54979 0.17149,2.21434c0.25803,1.13731 0.67549,1.95476 0.88651,2.38649c0.43178,0.88341 0.9337,1.7141 1.442,2.89917c0.27098,0.63177 0.46873,1.4153 0.5,2.479c0.0211,0.71802 0,1.785 0,2.379c0,0.966 -0.00058,2.142 0,2.93401c0.00067,0.90933 0.06134,1.60234 0.42534,2.53333c0.27286,0.69789 0.464,1.66124 0.58533,2.58533c0.12169,0.92693 0.57483,1.58511 0.82266,2.58934c0.20178,0.81767 0.16441,1.57149 0.16667,2.5c0.00182,0.752 0,1.576 0,2.424c0,0.82401 0.00133,2.21867 0.02083,2.99268l0.14584,0.91666l0.40799,0.79201" id="svg_2" stroke-width="5" stroke="#000000" fill="none"/> <path d="m141,192c-1.7,-0.9955 -2.65773,-0.97141 -3.48399,-1.28534c-0.71368,-0.27116 -1.65062,-0.90091 -2.21333,-1.42265c-0.8269,-0.76668 -1.35352,-1.34384 -1.66068,-1.64551c-0.63959,-0.62813 -1.23581,-1.29047 -2.142,-1.97983c-0.75523,-0.57452 -1.70267,-0.66833 -2.47067,-0.66667c-1.03917,0.00226 -1.82574,-0.03381 -2.86266,0.16667c-0.71586,0.13841 -1.49707,0.50569 -2.423,0.78516c-0.79214,0.23909 -1.79951,0.60942 -2.41967,0.9095c-0.65215,0.31555 -1.84615,0.93987 -2.4525,1.3815c-0.58079,0.42302 -1.46899,1.05418 -1.78616,1.95717c-0.2996,0.85295 -0.08533,1.8 -0.08533,2.61433c0,0.95367 0,1.68567 0,2.41766c0,1.09601 0,2.07701 0,2.73868c0,1.03467 0,1.77866 0,2.88632c0,0.834 0,1.66383 0,2.627c0,0.86334 0,1.75883 0,2.716c0,0.90018 0,1.68533 0,2.62534c0,0.69067 0,1.76401 0,2.67467c0,0.91066 0,1.82133 0,2.5c0,1.11467 0.16328,2.03484 -0.08533,2.8c-0.25697,0.79089 -0.84302,1.51633 -0.904,2.37466c-0.067,0.94302 -0.04887,1.75261 -0.23233,2.81084c-0.12691,0.73206 -0.28828,1.54443 -0.54,2.36099c-0.36015,1.16829 -0.71178,1.80444 -1.053,2.35617c-0.46311,0.74881 -0.99472,1.709 -1.11333,2.51199c-0.1137,0.76971 0.072,2.01532 -0.23866,2.78534c-0.28271,0.70074 -0.78648,1.48125 -0.82883,2.34734c-0.05019,1.02611 0.03664,1.97661 -0.02534,2.67349c-0.08769,0.98608 -0.43414,1.75732 -0.69517,2.49384c-0.34454,0.97217 -0.73206,1.80261 -1.13467,2.32133c-0.58929,0.75923 -0.98884,1.56201 -1.16399,2.364c-0.21786,0.99748 -0.45913,1.80733 -0.98534,2.63333c-0.44112,0.69244 -0.92893,1.48296 -0.98933,2.34134c-0.06599,0.93774 -0.01067,1.92534 -0.01067,2.82533c0,0.81433 -0.02107,1.76895 0.02084,2.5c0.04205,0.73363 0.39925,1.86127 0.86583,2.38266c0.72218,0.80704 1.37736,1.20956 1.8705,2.09601c0.40199,0.7226 0.59154,1.70428 0.9615,2.34c0.32004,0.54993 1.04214,1.54776 1.63934,2.33932c0.31631,0.41928 0.96865,1.26401 1.284,1.68402c0.86533,1.15253 1.34908,1.77301 1.77467,2.57465c0.47217,0.88937 0.55643,1.673 0.58334,2.58334c0.02661,0.9006 0.6539,1.53506 1.42416,1.7955c0.62923,0.21274 1.32957,0.3949 2.75401,0.58301c0.65314,0.08624 1.53912,0.11615 2.48849,0.12149c0.91199,0.00513 1.83334,0 2.744,0c0.91067,0 1.76543,0.05057 2.70533,-0.00134c0.77141,-0.0426 1.73143,-0.39563 2.40001,-0.79999c0.75423,-0.45615 1.40985,-1.28979 2.084,-1.76266c0.74397,-0.52185 1.7382,-0.62183 2.39999,-0.95685c0.85764,-0.43417 1.4715,-1.02026 2.32133,-1.57916c0.65819,-0.43286 1.54033,-0.86539 2.15784,-1.39999c0.65276,-0.56512 1.18442,-1.23901 1.93149,-1.89999c0.72285,-0.63956 1.40401,-1 2.02,-1.39999l0.548,-0.80002l0.04216,-0.92084" id="svg_3" stroke-width="5" stroke="#000000" fill="none"/> <path d="m413,200c1.05267,-1.7 1.48935,-2.60432 2.3215,-2.87866c0.85587,-0.28215 1.87848,-0.34317 2.48917,-0.54668c0.87442,-0.2914 1.87054,-0.5112 2.66849,-0.55383c0.75067,-0.0401 1.72452,-0.02083 2.65952,-0.02083c0.84665,0 1.57199,0 2.36133,0c0.78934,0 2.11401,0 3.05734,0c0.85333,0 1.76416,0 2.4635,0c1.17899,0 1.9592,-0.03871 2.8125,0c0.79443,0.03604 1.66302,0.55559 2.16666,1.02083c0.85495,0.78975 1.29175,1.45863 2.20001,1.89517c0.75558,0.36316 1.55582,0.81531 1.74283,1.73666c0.13858,0.68274 0.05716,1.71133 0.05716,2.64734c0,0.90134 0.04517,1.86896 -0.01068,2.52533c-0.08646,1.01633 -0.52634,1.63896 -1.18799,2.37466c-0.52917,0.58841 -0.76746,1.55795 -0.80582,2.45267c-0.02985,0.69603 -0.51312,1.66193 -0.87418,2.44734c-0.39468,0.85858 -0.67694,1.50993 -0.83734,2.21199c-0.25119,1.09944 -0.2312,2.10385 -0.24799,2.64c-0.03427,1.09576 -0.03375,1.632 -0.03601,3.048c-0.0011,0.688 0,1.673 0,2.60001c0,0.81065 0,1.72133 0,2.57466c0,0.94 -0.06738,1.92786 0,2.82533c0.05731,0.76361 0.57144,1.48357 1.02084,2.02083c0.81635,0.97597 1.28043,1.55603 1.5325,2.21516c0.43912,1.14822 0.38242,1.72232 0.47198,2.57468c0.12518,1.19113 0.32565,2.08525 0.47467,2.6685c0.21362,0.83611 0.44669,1.83194 0.48932,2.67416c0.04865,0.9615 0.17929,2.01259 0.436,2.68266c0.29291,0.7645 0.5499,1.75793 0.57019,2.50684c0.02826,1.04225 -0.30978,2.00159 -0.70984,2.66699c-0.31268,0.5201 -0.86856,1.32346 -1.4855,2.06851c-0.57156,0.69025 -1.14188,1.26112 -1.91483,2.03633c-0.57999,0.58168 -1.1907,1.18898 -1.77069,1.77066c-0.76846,0.77071 -1.32608,1.29607 -1.948,2.11467c-0.44098,0.58044 -0.74823,1.23193 -1.48782,2.19983c-0.4668,0.61087 -1.07098,1.08279 -1.569,2.043c-0.42303,0.81564 -0.92825,1.431 -1.70984,1.7825c-0.82013,0.36884 -1.46762,1.11197 -2.03598,1.57468c-0.8056,0.65585 -1.57269,0.94904 -2.3425,1.5c-0.64191,0.45944 -1.3215,1.19998 -1.8215,1.69998c-0.70001,0.70001 -1.37012,1.43707 -1.95718,1.90002c-0.69415,0.54742 -1.47891,0.89999 -2.24283,1.46664c-0.61734,0.45792 -1.3345,1.18915 -1.97849,1.81168c-0.60315,0.58307 -1.5213,1.01349 -2.42151,1.02167c-0.89996,0.00818 -1.72604,-0.19083 -2.30002,-0.7045c-0.74655,-0.66812 -1.19559,-1.17078 -1.95267,-1.95267c-0.52924,-0.54657 -1.20148,-1.32922 -1.71133,-2.13217c-0.34583,-0.54465 -0.93695,-1.47873 -1.50748,-2.07767c-0.61523,-0.6459 -1.18051,-1.185 -1.8045,-1.80899c-0.64801,-0.64801 -0.966,-0.966 -2.05951,-2.05951l-0.55649,-0.55649l-0.70801,-0.70801l-0.5,-0.5" id="svg_4" stroke-width="5" stroke="#000000" fill="none"/> <path d="m415,226c0,1.82533 0,2.83333 0,3.66133c0,0.88133 0,1.83867 0,2.57066c0,0.95367 0.02271,1.96962 0,2.93468c-0.01602,0.68056 -0.20572,1.55025 -0.66367,2.25433c-0.53488,0.82236 -1.9422,1.2406 -1.51099,2.323c0.27396,0.68764 1.67499,0.28001 2.65866,0.25467c0.69128,-0.01781 1.63065,-0.28534 2.21149,-0.76035l0.60001,-0.89099l0.34732,-0.69467l0.30002,-0.89999" id="svg_5" stroke-width="5" stroke="#000000" fill="none"/> <path d="m126,214c1.97916,2.5 2.17157,3.34592 2.61067,4.17467c0.44061,0.8316 1.08304,1.40852 1.304,2.30933c0.20657,0.84215 0.08533,1.76334 0.08533,2.68268c0,0.875 0,1.51999 0,2.51599l0,0.79651l0,1.1875l-0.02083,0.79166" id="svg_6" stroke-width="5" stroke="#000000" fill="none"/> <path d="m123,241c-0.94283,2.60001 -1.01874,3.40019 -0.99866,4.39999c0.01607,0.8006 0.16468,1.82349 0.5195,2.57918c0.41624,0.88652 0.9739,1.50514 1.67916,2.22083c0.5956,0.60439 1.20891,1.21243 1.96667,1.96667c0.48487,0.48262 0.87918,1.19551 1.94801,1.66266c0.82617,0.3611 1.6425,0.22783 2.53799,0.52333l0.69467,0.29468" id="svg_7" stroke-width="5" stroke="#000000" fill="none"/> <path d="m231,374c1.66167,-1.65268 2.20844,-2.23163 3.16667,-2.83334c0.49925,-0.31351 1.35391,-0.62567 2.14932,-1.05066c1.02657,-0.54852 1.45232,-0.9252 2.19734,-1.63199c0.7494,-0.71094 1.20665,-1.23178 2.14833,-1.784c0.56714,-0.33258 1.50444,-0.70148 2.2865,-1c0.78993,-0.30151 1.73839,-0.66907 2.53101,-1.20001c0.70627,-0.47311 1.35301,-0.90738 2.12216,-1.29999c0.79613,-0.40637 1.61723,-0.83383 2.56534,-1.03336c0.80711,-0.16986 1.47905,-0.15283 2.28082,-0.16217c1.55241,-0.01807 2.18034,-0.00449 2.85518,-0.00449c0.70883,0 1.43866,0 2.17648,0c0.73285,0 2.1315,0 3.35419,0l0.97064,0l0.75467,0l0.867,0" id="svg_8" stroke-width="5" stroke="#000000" fill="none"/> <path d="m279,357.00006c8.91083,0 9.78357,0 11.53217,0c0.86343,0 2.53726,0 3.33524,0c2.16479,0 3.38644,0 4.90741,0c1.51184,0 2.76047,0.09338 3.66129,0.49469c1.3439,0.59869 3.30252,1.78784 4.56467,2.54742c1.42529,0.85785 2.97153,1.81506 4.59793,2.85129c1.66837,1.06293 3.3353,2.16818 4.96237,3.26367l1.54617,1.07254" id="svg_9" stroke-width="5" stroke="#000000" fill="none"/> <polyline id="svg_10" points="181,337 181.5,339.5 181.87849999999997,340.3213333333333 181.98933333333332,341.17466666666667 181.99866666666665,342.1213333333333 181.964,342.7693333333333 181.83333333333331,343.8333333333333 181.71466666666666,344.61999999999995 181.564,345.52666666666664 181.47916666666666,346 181.29549999999998,346.9366666666666 181,348.16666666666663 180.7045,349.01866666666666 180.35716666666667,349.7346666666666 180.05266666666665,350.6571666666667 179.94733333333332,351.4045 179.716,352.3986666666666 179.4253333333333,353.164 179.08399999999997,354.11466666666666 178.83333333333331,355 178.35266666666666,355.69999999999993 178.01466666666664,356.4213333333333 177.66666666666666,357.3333333333333 177.29016666666666,358.00533333333334 176.81466666666665,358.7493333333333 176.16666666666666,359.66666666666663 175.76166666666666,360.19016666666664 175.28666666666666,360.88266666666664 175.02533333333332,361.82533333333333 174.83333333333331,362.8333333333333 174.5,363.5208333333333 174.16666666666666,364.3333333333333 174.02533333333332,365.26133333333337 173.94733333333332,366.0518333333333 173.77816666666666,367.0788333333333 173.54266666666666,367.7853333333333 173.18116666666666,368.50983333333335 172.66666666666666,369.3333333333333 172.232,369.9666666666667 171.74933333333334,370.64 171.25066666666663,371.31333333333333 170.76799999999997,371.9466666666666 169.97199999999998,372.944 169.45733333333334,373.568 169.02533333333332,374.4213333333333 168.83333333333331,375.3333333333333 168.63833333333332,376.00983333333335 168.35333333333332,376.7853333333333 167.83333333333331,377.8333333333333 167.34733333333332,378.5428333333333 166.82533333333333,379.1893333333333 166.16666666666666,380 165.75716666666665,380.59549999999996 165.3045,381.34283333333326 164.80133333333333,382.11466666666666 164.2853333333333,382.79866666666663 164.0045,383.69999999999993 163.97916666666666,384.54166666666663 163.77866666666665,385.5426666666666 163.57466666666664,386.25066666666663 163.35266666666666,386.9946666666666 163.08533333333332,388.0293333333333 163.00133333333332,388.7973333333333 162.94283333333334,389.69999999999993 162.47916666666666,390.5 161.80133333333333,391.19999999999993 161.2853333333333,391.8 160.97916666666666,392.5625 160.66666666666666,393.5 160.29016666666666,394.3625 159.97916666666666,395.0208333333333 159.64816666666667,395.69916666666666 159.16666666666666,396.66666666666663 158.76166666666666,397.4811666666667 158.44666666666666,398.1426666666667 158.08266666666665,399.116 157.83066666666667,399.884 157.29466666666667,400.6526666666667 156.70533333333333,401.34733333333327 156.16933333333333,402.116 155.91733333333332,402.884 155.64283333333333,403.6571666666667 155.2955,404.4045 154.80133333333333,405.3986666666666 154.43599999999998,406.164 154.12133333333333,406.9785 153.916,407.79866666666663 153.42533333333333,408.59999999999997 153.036,409.41066666666666 152.99966666666666,410.3216666666666 152.95833333333331,411.04166666666663 152.66666666666666,412.16666666666663 152.43066666666664,412.68266666666665 151.97916666666666,413.47916666666663 151.48266666666666,414.23066666666665 150.88666666666666,415.0293333333333 150.36166666666665,415.69100000000003 150.01066666666665,416.59999999999997 150.196,417.19866666666667 150.6615,417.2955 151.56799999999998,417.3893333333333 153.0625,417.47916666666663 155.29199999999997,417.56399999999996 158.40349999999998,417.64283333333333 162.54399999999998,417.71466666666663 174.5,417.8333333333333 182.5403333333333,417.87766666666664 191.78266666666664,417.90799999999996 201.95899999999997,417.9203333333333 212.80133333333333,417.91066666666666 224.04166666666666,417.875 235.41199999999998,417.80933333333337 246.64433333333332,417.70966666666664 257.47066666666666,417.57199999999995 276.8333333333333,417.16666666666663 284.8948333333333,416.8931666666666 291.8453333333333,416.57866666666666 297.7838333333333,416.23216666666667 302.8093333333333,415.86266666666666 307.0208333333333,415.47916666666663 310.51733333333334,415.0906666666666 313.3978333333333,414.70616666666666 315.7613333333333,414.33466666666664 319.3333333333333,413.66666666666663 320.727,413.38616666666667 321.92266666666666,413.1426666666667 322.9423333333333,412.9331666666667 323.808,412.7546666666666 324.54166666666663,412.60416666666663 325.1653333333333,412.47866666666664 325.70099999999996,412.3751666666667 326.17066666666665,412.29066666666665 327,412.16666666666663 327.4001666666667,412.1213333333333 327.80133333333333,412.08399999999995 328.2045,412.0526666666666 328.61066666666665,412.0253333333333 329.0208333333333,412 329.436,411.9746666666666 329.85716666666667,411.94733333333335 330.2853333333333,411.916 331.16666666666663,411.8333333333333 331.62166666666667,411.7781666666666 332.08666666666664,411.712 332.5616666666666,411.6338333333333 333.0466666666666,411.5426666666666 333.54166666666663,411.4375 334.0466666666666,411.3173333333333 334.5616666666666,411.1811666666666 335.08666666666664,411.028 336.16666666666663,410.66666666666663 336.7208333333333,410.4566666666666 337.28,410.2266666666667 337.83916666666664,409.9766666666667 338.3933333333333,409.7066666666666 338.9375,409.41666666666663 339.46666666666664,409.1066666666666 339.9758333333333,408.77666666666664 340.46,408.4266666666666 341.3333333333333,407.66666666666663 341.71366666666665,407.2575 342.0559999999999,406.8333333333333 342.3623333333333,406.39916666666664 342.63466666666665,405.96000000000004 342.875,405.5208333333333 343.0853333333333,405.08666666666664 343.2676666666667,404.66249999999997 343.424,404.25333333333333 343.66666666666663,403.5 343.7573333333333,403.1645 343.832,402.856 343.89466666666664,402.5715 343.9493333333333,402.308 344,402.0625 344.05066666666664,401.832 344.1053333333333,401.6135 344.16799999999995,401.404 344.3333333333333,401 344.443,400.8 344.5706666666666,400.59999999999997 344.71433333333334,400.4 344.87199999999996,400.19999999999993 345.04166666666663,400 345.2213333333333,399.8 345.409,399.59999999999997 345.60266666666666,399.4 346,399 346.20033333333333,398.79949999999997 346.4026666666667,398.596 346.609,398.38649999999996 346.8213333333333,398.16799999999995 347.04166666666663,397.9375 347.272,397.692 347.5143333333333,397.4285 347.7706666666666,397.144 348.3333333333333,396.5 348.6425,396.13616666666667 348.9666666666667,395.7493333333333 349.3008333333333,395.3465 349.64,394.93466666666666 349.97916666666663,394.5208333333333 350.31333333333333,394.11199999999997 350.63749999999993,393.7151666666667 350.9466666666666,393.3373333333333 351.5,392.66666666666663 351.7355,392.3858333333333 351.944,392.14 352.12850000000003,391.9241666666667 352.292,391.73333333333335 352.4375,391.5625 352.568,391.40666666666664 352.6865,391.2608333333333 352.79599999999994,391.11999999999995 353,390.8333333333333 353.0998333333333,390.6786666666667 353.19866666666667,390.51599999999996 353.2955,390.34733333333327 353.3893333333333,390.1746666666666 353.47916666666663,390 353.56399999999996,389.82533333333333 353.64283333333333,389.6526666666667 353.71466666666663,389.484 353.8333333333333,389.16666666666663 353.8788333333333,389.02116666666666 353.9173333333333,388.88266666666664 353.9518333333333,388.74816666666663 353.9853333333333,388.61466666666666 354.0208333333333,388.47916666666663 354.0613333333333,388.33866666666665 354.1098333333333,388.19016666666664 354.1693333333333,388.03066666666666 354.3333333333333,387.66666666666663 354.44283333333334,387.45733333333334 354.56933333333336,387.23199999999997 354.70983333333334,386.9946666666666 354.86133333333333,386.7493333333333 355.0208333333333,386.5 355.18533333333335,386.25066666666663 355.3518333333333,386.00533333333334 355.5173333333333,385.76800000000003 355.8333333333333,385.3333333333333 355.9783333333333,385.14300000000003 356.1133333333333,384.97066666666666 356.2383333333333,384.8143333333333 356.3533333333333,384.672 356.4583333333333,384.54166666666663 356.55333333333334,384.4213333333333 356.6383333333333,384.30899999999997 356.71333333333337,384.20266666666663 356.8333333333333,384 356.8786666666666,383.9 356.916,383.8 356.94733333333335,383.69999999999993 356.9746666666666,383.59999999999997 357,383.5 357.0253333333333,383.4 357.0526666666666,383.3 357.08399999999995,383.19999999999993 357.16666666666663,383 357.2215,382.8998333333333 357.2853333333333,382.79866666666663 357.35716666666667,382.6954999999999 357.436,382.58933333333334 357.5208333333333,382.47916666666663 357.6106666666667,382.36400000000003 357.70449999999994,382.2428333333333 357.80133333333333,382.11466666666666 358,381.8333333333333 358.1003333333333,381.678 358.20266666666663,381.5106666666666 358.30899999999997,381.32933333333335 358.4213333333333,381.13199999999995 358.54166666666663,380.91666666666663 358.672,380.6813333333333 358.8143333333333,380.424 358.97066666666666,380.1426666666667 359.3333333333333,379.5 359.5426666666666,379.13599999999997 359.76800000000003,378.74799999999993 360.00533333333334,378.342 360.25066666666663,377.924 360.5,377.5 360.7493333333333,377.076 360.9946666666666,376.65799999999996 361.23199999999997,376.252 361.66666666666663,375.5 361.85699999999997,375.1646666666666 362.0293333333333,374.85733333333326 362.18566666666663,374.576 362.328,374.3186666666666 362.4583333333333,374.0833333333333 362.57866666666666,373.868 362.69100000000003,373.67066666666665 362.7973333333333,373.4893333333333 363,373.16666666666663 363.1006666666666,373.0208333333333 363.20533333333333,372.88 363.318,372.7391666666666 363.44266666666664,372.5933333333333 363.5833333333333,372.4375 363.74399999999997,372.26666666666665 363.9286666666667,372.0758333333333 364.1413333333333,371.85999999999996 364.66666666666663,371.3333333333333 364.98516666666666,371.0146666666667 365.33466666666664,370.664 365.70616666666666,370.2893333333333 366.0906666666666,369.8986666666666 366.47916666666663,369.5 366.86266666666666,369.10133333333334 367.23216666666667,368.71066666666667 367.57866666666666,368.336 368.16666666666663,367.66666666666663 368.3925,367.3858333333333 368.5733333333333,367.14 368.71416666666664,366.9241666666667 368.82,366.73333333333335 368.8958333333333,366.5625 368.9466666666666,366.40666666666664 368.97749999999996,366.2608333333333 368.99333333333334,366.11999999999995 369,365.8333333333333 369,365.6786666666667 369,365.51599999999996 369,365.34733333333327 369,365.1746666666666 369,365 369,364.82533333333333 369,364.6526666666667 369,364.484 369,364.16666666666663 369,364.02149999999995 369,363.8853333333333 369,363.75716666666665 369,363.63599999999997 369,363.5208333333333 369,363.41066666666666 369,363.3045 369,363.2013333333333 369,363 369,362.8995 369,362.79599999999994 369,362.6865 369,362.568 369,362.4375 369,362.292 369,362.12850000000003 369,361.944 369,361.5 369,361.2358333333333 369,360.9466666666666 369,360.63749999999993 369,360.31333333333333 369,359.97916666666663 369,359.64 369,359.3008333333333 369,358.9666666666667 369,358.3333333333333 368.9998333333333,358.0428333333333 368.9986666666667,357.7693333333333 368.9955,357.50983333333335 368.9893333333333,357.26133333333337 368.97916666666663,357.0208333333333 368.964,356.7853333333333 368.94283333333334,356.5518333333333 368.9146666666666,356.3173333333333 368.8333333333333,355.8333333333333 368.77866666666665,355.5788333333333 368.71599999999995,355.3173333333333 368.64733333333334,355.0518333333333 368.57466666666664,354.7853333333333 368.5,354.5208333333333 368.42533333333336,354.26133333333337 368.35266666666666,354.00983333333335 368.284,353.7693333333333 368.16666666666663,353.3333333333333 368.12149999999997,353.1426666666667 368.0853333333333,352.96799999999996 368.0571666666666,352.8053333333333 368.03599999999994,352.65066666666667 368.0208333333333,352.5 368.0106666666666,352.34933333333333 368.0045,352.19466666666665 368.00133333333326,352.032 368,351.66666666666663 367.9998333333333,351.45716666666664 367.9986666666667,351.23066666666665 367.9955,350.9901666666666 367.9893333333333,350.73866666666663 367.97916666666663,350.47916666666663 367.9146666666666,349.68266666666665 367.71466666666663,348.6866666666666 367.3893333333333,347.84666666666664 366.9001666666666,347.02133333333336 366.436,346.37466666666666 366.0853333333333,345.51599999999996 366.0045,344.6526666666667 365.9955,343.75716666666665 365.77866666666665,342.9003333333333 365.12149999999997,342.34299999999996 365,343.19999999999993 365,344.1005 365,344.87149999999997 365,345.7643333333333 365,346.69733333333335 365,347.396 365,348.1186666666666 365.00133333333326,349.5133333333333 365.0106666666666,350.1533333333333 365.0571666666666,351.0383333333333 365.2213333333333,352.07833333333326 365.42533333333336,352.75333333333333 365.8333333333333,353.8333333333333 365.9893333333333,354.6253333333333 366,355.4853333333333 366,356.21066666666667 366,357.2011666666666 366,358.1458333333333 366,358.80016666666666 366,360.16666666666663 366,360.7491666666666 366,361.38666666666666 366,362.06416666666667 366,363.47916666666663 366,364.1866666666666 366,364.8741666666666 366,365.52666666666664 365.9998333333333,367.128 365.9955,367.8426666666667 365.9146666666666,368.7893333333333 365.47916666666663,369.54166666666663 365,370.3333333333333 364.70449999999994,371.00983333333335 364.436,371.7853333333333 364.16666666666663,372.8333333333333 364.03599999999994,373.76399999999995 364.00133333333326,374.59866666666665 364,375.59549999999996 364,376.34283333333326 363.9955,377.2428333333333 363.71466666666663,378.2013333333333 363.2955,378.75716666666665 362.69999999999993,379.6571666666667 362.4,380.21066666666667 361.9,381.19983333333334 361.5,381.97916666666663 361,382.8333333333333 360.5208333333333,383.47916666666663 360.08399999999995,384.19999999999993 359.77866666666665,385.10016666666667 359.35266666666666,385.75716666666665 " opacity="0.5" stroke-linecap="round" stroke-linejoin="null" stroke-dasharray="null" stroke-width="5" stroke="#000000" fill="none"/> <path d="m218,330c2.68266,2.68134 3.20216,3.2175 3.73866,3.70267c0.90746,0.82065 1.61234,1.19391 2.59467,1.46399c0.67767,0.18631 1.46025,0.42249 2.5,0.83334c0.71094,0.28091 1.49236,0.68359 2.414,0.94733c0.90868,0.26004 1.55261,0.54739 2.586,0.88602c0.74123,0.24289 1.57545,0.59344 2.16667,1.16666c0.60921,0.59067 1.27621,1.35794 1.87151,1.70001c0.84807,0.4873 1.81232,0.70068 2.48849,0.86398c0.67072,0.16199 1.8689,0.37631 2.61917,0.41516c1.1861,0.06143 2.00499,0.02084 2.66666,0.02084c0.80167,0 2.35417,0 2.98184,0c0.67366,0 1.37933,0 2.103,0c0.72766,0 1.44533,0 2.79466,0c1.14134,0 1.99333,0 2.82884,0c1.12982,0 1.82072,-0.02029 2.77251,0.00134c0.7872,0.01788 1.44037,0.08008 2.96533,0.22c0.66415,0.06094 1.38199,0.1312 2.13599,0.20398c0.772,0.07452 1.54398,0.14963 2.298,0.22202c0.71796,0.06894 2.48004,0.23901 3.26401,0.2955c0.74951,0.05399 1.69531,0.05716 2.6145,0.05716c1.00482,0 1.74133,0 2.39566,0c1.36649,0 1.94901,0 2.58649,0c1.38,0 2.0925,0 2.80002,0c0.6875,0 1.34,0 2.94131,0c0.71469,0 1.87201,0 2.54401,0c1.104,0 1.64267,0 2.66568,0c1.32898,0 1.84766,0 2.39832,0c1.16534,0 1.76401,0 2.36267,0c1.16534,0 2.23468,0 3.15735,0c1.11899,0 1.71167,0 2.92966,0c0.91434,0 1.81433,0 2.5715,0c0.89551,0 1.75882,0 2.72198,0c0.92084,0 1.73041,0.01834 2.56384,-0.05716c0.95932,-0.08688 1.86139,-0.22549 2.37299,-0.30002c1.08487,-0.15799 1.63712,-0.22726 2.68002,-0.44415c1.28207,-0.26663 1.92163,-0.40909 2.69598,-0.99866c0.70383,-0.53589 1.25204,-1.10571 2.26001,-1.68402c0.61691,-0.35394 1.27914,-0.67792 1.896,-1.03198c1.00946,-0.57941 1.78946,-1.24304 2.37384,-1.80533c0.52994,-0.50989 1.15778,-1.10159 2.32083,-1.65717c0.64377,-0.30753 1.35822,-0.49786 2.052,-0.71701c1.26379,-0.3992 2.00851,-0.7309 2.81732,-1.01917c0.83911,-0.29907 1.70734,-0.5517 2.24518,-1.047c0.75308,-0.69354 1.15625,-1.33856 2.07617,-1.905c0.73663,-0.45358 1.66025,-0.60788 2.44931,-0.98001c0.49295,-0.23248 1.68848,-0.83264 2.36801,-1.18933c0.70197,-0.36847 1.38135,-0.76532 2.30618,-1.36383l0.7605,-0.58951l0.61649,-0.5535" id="svg_11" stroke-linecap="null" stroke-linejoin="null" stroke-dasharray="null" stroke-width="5" stroke="#000000" fill="none"/> <path d="m221,321c2.68266,-1.48267 3.46902,-1.99646 3.99017,-2.29016c1.02043,-0.57504 2.00035,-0.89142 2.5515,-1.23068c0.98497,-0.60629 1.71967,-0.87915 2.24367,-1.07916c1.04799,-0.39999 2.01634,-0.76645 2.61015,-1.21432c0.86639,-0.65347 1.19955,-1.19504 1.8045,-1.935c0.39677,-0.48532 1.19231,-1.29202 2,-1.86533c0.7926,-0.56259 1.38042,-1.05154 1.964,-1.52402c0.79489,-0.64352 1.58864,-0.85681 2.66133,-0.86133c0.69067,-0.0029 1.70515,0.02328 2.71733,-0.22134c0.71619,-0.1731 1.44376,-0.46005 2.48801,-0.69464c0.71265,-0.1601 1.62477,-0.46912 2.252,-0.65869c1.03575,-0.31308 2.02222,-0.37814 2.71733,-0.40448c0.69437,-0.02631 1.95683,-0.02084 2.71733,-0.02084c1.116,0 1.82434,0 2.78267,0c0.88049,0 1.60416,0 2.42783,0c1.40552,0 1.91452,0 2.96851,0c0.53299,0 1.58099,0 2.08401,0c1.353,0 2.39099,0 3.17697,0c0.84268,0 1.82184,0 2.67603,0c0.86215,0 1.76666,0 2.6875,0c0.96582,0 1.72583,0 2.64581,0c0.78601,0 1.60803,-0.00659 2.66669,0c0.72302,0.00452 1.74219,0.08069 2.66666,0.33334c0.75867,0.20734 1.56558,0.51663 2.388,0.81598c0.7749,0.28204 1.70825,0.7056 2.66934,0.82935c0.83603,0.10764 1.75616,0.02133 2.49866,0.02133c1.00134,0 1.66266,0 2.41199,0c0.82135,0 2.15317,0 3.08017,0c0.46652,0 1.3905,0 2.2825,0c1.22601,0 1.94601,0 2.87601,0c1.15085,0 1.81418,0 2.79333,0c0.858,0 1.5,-0.0018 2.448,0c1.18051,0.00226 2.08392,0.1265 2.65201,0.61066c0.75018,0.63931 1.2543,1.24146 2.06616,1.68933c0.82468,0.45493 1.66693,0.70084 2.63916,1.00452c0.69449,0.21692 1.41962,0.38718 2.36133,0.86215c0.85031,0.42889 1.48566,1.0423 2.33334,1.66669c0.58286,0.42932 1.38504,0.86206 2.20001,1.04532c0.78943,0.17752 1.80875,0.2627 2.58932,0.54666c0.73434,0.26715 1.75601,0.53809 2.54401,0.90802c0.69727,0.32736 1.42068,0.8454 2.33331,1.5c0.57147,0.40991 1.2988,0.82089 2.06934,1.05066c1.08591,0.32382 1.79782,0.44138 2.58801,0.59866c0.85443,0.17007 1.75467,0.332 2.67599,0.49649l0.92133,0.15952l0.89935,0.15149l0.85532,0.1405" id="svg_12" stroke-linecap="null" stroke-linejoin="null" stroke-dasharray="null" stroke-width="5" stroke="#000000" fill="none"/> <path d="m264,263c-0.86133,1.39999 -1.52881,1.78394 -2.37466,2.39999c-0.80316,0.58496 -1.50433,0.9408 -2.14133,1.48535c-0.80338,0.6868 -1.01151,1.33249 -1.68402,2.22931c-0.45981,0.61316 -1.31543,1.23495 -1.63333,2.052c-0.32448,0.83395 -0.27029,1.54898 -0.73599,2.51602c-0.39723,0.82489 -0.75862,1.32526 -1.40933,2.17465c-0.50325,0.65692 -1.19283,1.47256 -1.674,2.14801c-0.52731,0.74023 -0.86334,1.22665 -1.58566,2.18481l-0.47501,0.6925l-0.24001,0.95334l0.04001,0.76532" id="svg_13" stroke-linecap="null" stroke-linejoin="null" stroke-dasharray="null" stroke-width="5" stroke="#000000" fill="none"/> <path d="m306,272c1.38934,2.36401 1.95612,3.19925 1.99866,3.97067c0.05698,1.03311 0.00134,1.77866 0.00134,2.69598l0,0.98401" id="svg_14" stroke-linecap="null" stroke-linejoin="null" stroke-dasharray="null" stroke-width="5" stroke="#000000" fill="none"/> <path d="m270,286c1.70801,0 2.76401,0 3.358,0c0.966,0 1.59375,-0.08987 2.77499,0.00449c1.04297,0.08331 1.69235,0.42084 2.70035,0.82886l0.75598,0.15598" id="svg_15" stroke-linecap="null" stroke-linejoin="null" stroke-dasharray="null" stroke-width="5" stroke="#000000" fill="none"/> <path d="m295,289c3.60132,0 4.52084,0 5.15717,0c1.36401,0 2.091,0 2.82199,0c0.711,0 1.97852,0 2.7915,0c0.849,0 1.896,0.0022 2.76535,-0.00134c0.47467,-0.00195 1.46448,-0.00833 2.45331,-0.05582c0.47495,-0.0228 1.74664,-0.08435 2.65601,-0.37885c0.89246,-0.289 1.6225,-0.83786 2.35468,-1.564c0.58469,-0.57986 0.96399,-1.39999 1,-2.32251l0,-0.66333" id="svg_16" stroke-linecap="null" stroke-linejoin="null" stroke-dasharray="null" stroke-width="5" stroke="#000000" fill="none"/> <path d="m294,189c-0.01068,2.78934 -0.05548,3.52707 -0.42532,4.37466c-0.41995,0.96243 -0.55728,1.69011 -0.65869,2.39734c-0.17194,1.19923 -0.33078,1.87386 -0.52664,2.54134c-0.35162,1.19838 -0.78061,1.78233 -1.104,2.65332c-0.28738,0.77397 -0.36038,1.80698 -0.11868,2.70001c0.2244,0.82915 0.80365,1.64059 0.832,2.304c0.04419,1.03372 -0.02252,1.77892 0.0015,2.88683c0.01801,0.82974 0.16132,1.64365 0.35251,2.5005c0.14346,0.64288 0.42154,1.58014 0.56201,2.586c0.14655,1.04926 0.10257,1.8808 0.37198,2.82666c0.22244,0.78102 0.43964,1.35559 1.03452,2.52934c0.3089,0.6095 0.7113,1.17517 1.1095,2.09999c0.37848,0.87907 0.47296,1.78421 0.61749,2.58568c0.19012,1.05428 0.71198,1.73329 0.89468,2.67149c0.14322,0.73537 0.05716,1.7415 0.05716,2.50684c0,0.952 0,2.00267 0,2.672c0,0.76534 0,1.75951 0,2.67867c0,1.00616 -0.02191,1.81917 0.01068,2.74667c0.0278,0.79137 0.20221,1.81985 0.41464,2.51334c0.2796,0.9128 0.5043,1.91087 0.53867,2.472c0.05594,0.91382 0.03601,1.92 0.03601,2.99699l0,0.71466l0,0.67467" id="svg_17" stroke-linecap="null" stroke-linejoin="null" stroke-dasharray="null" stroke-width="5" stroke="#000000" fill="none"/> <path d="m301,176c3.02933,-3.94267 3.6683,-4.68506 4.52084,-5c0.94348,-0.34854 1.69089,-0.60854 2.47916,-1c0.80106,-0.39783 1.38834,-0.72414 2.40268,-1.19867c0.63208,-0.29572 1.36069,-0.56581 2.56799,-0.71733c0.6983,-0.08763 1.45197,-0.09395 2.23199,-0.168c1.19946,-0.11388 1.99152,-0.25891 2.75568,-0.43683c0.73062,-0.1701 2.00702,-0.55853 2.76965,-0.87917c0.67084,-0.28204 1.67749,-0.79344 2.29285,-1.12083c0.6691,-0.35597 1.6637,-0.9623 2.2045,-1.3045c0.82285,-0.52068 1.84317,-1.17128 2.52798,-1.528c0.57715,-0.30063 1.65524,-0.52057 2.44669,-0.93066c0.86163,-0.44646 1.56177,-0.67632 2.29999,-1.23683c0.77756,-0.59038 1.23831,-1.20773 1.98401,-1.67917c0.67462,-0.4265 1.57083,-1.09041 2.21149,-1.44284c0.87817,-0.48309 1.79117,-0.3571 2.55118,-0.35716c1.17499,-0.00009 1.71643,0.02341 2.60001,-0.036c1.32346,-0.08897 2.0379,-0.24492 2.77866,-0.38934c0.74994,-0.14621 1.48676,-0.31873 2.55283,-0.45332c0.96164,-0.12141 1.85876,0.00307 2.85117,-0.40668c0.724,-0.29892 1.2496,-1.03638 1.97067,-1.71466c0.52676,-0.4955 1.54077,-0.90529 2.29333,-0.964c0.59872,-0.04671 2.04001,-0.036 2.87332,-0.036c0.43417,0 1.3125,0 2.17084,0c1.16251,0 2.091,0 2.83051,0c1.03183,0 1.81116,0 2.81067,0c0.90533,0 1.86801,0 2.483,0c1.22232,0 1.76367,0 2.58566,0c1.26733,0 1.93185,-0.0069 2.95267,0c0.7894,0.00534 1.97583,-0.0074 2.55334,0.61067c0.61728,0.66064 0.65228,1.71785 0.9675,2.41016c0.26715,0.58676 0.77924,1.57913 1.17917,2.37917c0.3999,0.79996 0.85645,1.57591 1.13333,2.60001c0.15939,0.58957 0.11618,1.42995 0.45331,2.39867c0.27798,0.7988 1.03143,1.58452 1.54935,1.98666c0.76038,0.59042 1.37985,1.14456 1.96399,1.87601c0.41138,0.51514 1.20001,1.57199 1.59869,2.052l0.58047,0.64499" id="svg_18" stroke-linecap="null" stroke-linejoin="null" stroke-dasharray="null" stroke-width="5" stroke="#000000" fill="none"/> <path d="m275,172c-3.31332,-1.48399 -3.96014,-1.99812 -4.83334,-2.83333c-0.54245,-0.51884 -1.32486,-1.06348 -2.1875,-1.14584c-0.97495,-0.09308 -1.78983,-0.02083 -2.43631,-0.02083c-0.96402,0 -1.75751,0.0024 -2.7735,0c-0.95502,-0.00226 -1.85352,-0.24641 -2.44135,-0.61067c-0.84903,-0.52612 -1.57932,-0.81224 -2.37982,-1.03217c-1.01599,-0.27913 -1.96284,-0.32178 -2.63219,-0.52649c-1.02827,-0.31448 -1.78812,-0.84326 -2.30617,-1.12534c-1.03107,-0.5614 -1.73441,-0.70859 -2.6765,-0.87201c-1.05078,-0.18228 -1.85623,-0.36716 -2.26799,-0.48c-0.81908,-0.22447 -2.22354,-0.82066 -2.77867,-1.18933c-0.53842,-0.35757 -1.61101,-1.17873 -2.256,-1.56267c-0.68285,-0.40648 -1.40999,-0.77817 -2.14801,-1.116c-1.05324,-0.48213 -1.72632,-0.75031 -2.40349,-0.94366c-1.0376,-0.29628 -2.22095,-0.42767 -3.0755,-0.489c-0.43275,-0.03105 -1.28551,-0.03427 -2.065,-0.13667c-1.43629,-0.18867 -1.98296,-0.58092 -3.10283,-0.79449c-0.59114,-0.11273 -1.59579,-0.11476 -2.26918,-0.12018c-1.19463,-0.00961 -2.1427,0.07568 -2.946,-0.22299c-0.84082,-0.31262 -1.23499,-0.69075 -2.22733,-1.0995c-0.84785,-0.34923 -1.79227,-0.66119 -2.26666,-0.8175c-0.90469,-0.2981 -2.00568,-0.69673 -2.94334,-0.81966c-0.89844,-0.11778 -1.65146,-0.01976 -2.91666,-0.20834c-0.64226,-0.09573 -1.34775,-0.26715 -2.12401,-0.40799c-0.82906,-0.15042 -2.16325,-0.3096 -2.62399,-0.34001c-0.92198,-0.06087 -1.8213,-0.07881 -2.664,-0.084c-1.09015,-0.0067 -1.94667,-0.00133 -2.85066,-0.00133c-1.022,0 -1.748,0 -3.07068,0c-0.41849,0 -1.33949,0 -2.3125,0c-0.48349,0 -1.39949,0 -2.79416,0c-0.77333,0 -1.77594,-0.01567 -2.56,0.16667c-0.92834,0.21591 -1.65633,0.50073 -2.696,0.74933c-0.76462,0.18283 -1.48409,0.65497 -2.304,1.084c-0.65207,0.3412 -1.46037,0.51152 -2.52367,1.10001c-0.6319,0.34973 -1.34677,1.09625 -1.843,1.59999c-0.7054,0.71606 -1.12511,1.25887 -1.60451,2.30983c-0.35002,0.76733 -0.53073,1.33928 -1.17816,2.30484c-0.46196,0.68896 -1.06866,1.237 -1.4075,2.28534c-0.25078,0.77592 -0.34282,1.82309 -0.7205,2.564c-0.43159,0.84668 -1.01337,1.44467 -1.4895,2.15733c-0.44356,0.66393 -1.0388,1.54854 -1.75716,2.064c-0.6386,0.45822 -1.47876,0.944 -2.10933,1.38133c-0.67633,0.46907 -1.34668,0.94667 -1.98001,1.38l-0.99733,0.59734l-0.85201,0.252" id="svg_19" stroke-linecap="null" stroke-linejoin="null" stroke-dasharray="null" stroke-width="5" stroke="#000000" fill="none"/> <path d="m302,200c1.0386,-3.35603 1.83896,-4.77408 2.49884,-5.58022c1.18512,-1.44781 2.06955,-1.90501 3.08942,-2.01079c1.20877,-0.12537 2.2049,0.18596 3.21869,-0.69463c0.87656,-0.76138 1.4487,-2.23311 2.3858,-3.37569c0.90994,-1.10948 1.95697,-1.52263 2.79944,-1.72774c1.37042,-0.33368 2.17145,-0.57483 3.40131,-1.00014c0.76996,-0.26627 2.2149,-0.74646 3.02283,-0.79944c1.17587,-0.07713 2.09012,-0.00583 3.05801,-0.00856c1.51108,-0.00429 2.45108,-0.04704 3.18704,-0.16209c1.39484,-0.218 2.52176,-0.50795 3.12549,-0.6459c1.24271,-0.28392 1.86148,-0.46439 3.63101,-0.77502c1.02075,-0.1792 1.90826,-0.2718 3.00418,-0.30807c1.47433,-0.04881 2.42084,-0.44267 3.23706,-1.1002c0.98688,-0.79506 2.07959,-0.8037 3.20062,-0.808c0.93411,-0.00356 2.10248,0 3.20428,0c0.62985,0 1.98682,0 2.68961,0c1.39343,0 2.68967,0 3.81088,0c0.94623,0 2.08002,0 3.37012,0c0.93329,0 1.99628,-0.02449 3.33289,0.00253c0.96085,0.01941 1.70068,0.03136 3.34079,0.41792c0.8877,0.20923 1.76965,0.54541 2.63574,0.80927c1.53601,0.46796 2.48285,0.55217 3.28204,0.76999c1.23843,0.33759 2.15454,1.12839 3.14429,2.41002l0.60843,1.28923l0.63293,1.58302l0.49905,1.00809" id="svg_20" stroke-linecap="null" stroke-linejoin="null" stroke-dasharray="null" stroke-width="5" stroke="#000000" fill="none"/> <path d="m300,209c2.00983,-0.94284 2.78528,-1.00075 3.83334,-1c0.92004,0.00066 1.70428,0.0295 2.56265,0.436c0.68073,0.32237 1.6564,0.77136 2.30133,0.96399c0.69635,0.20799 1.42615,0.38359 2.81601,0.8c0.6423,0.19243 1.53281,0.48026 2.565,0.89984c0.68039,0.27658 1.4216,0.66565 2.31766,0.87483c1.09125,0.25473 1.66171,0.30902 2.32266,0.46133c0.74976,0.17279 1.56943,0.37096 2.90335,0.66417c0.94778,0.20834 1.44629,0.30902 2.49664,0.53583c0.55753,0.12039 1.14026,0.2424 3.04468,0.68517c0.68393,0.15901 1.37674,0.3268 2.07001,0.4935c0.68338,0.16431 1.34552,0.32875 2.57333,0.616c1.02576,0.23997 1.78729,0.47372 2.86182,0.56033c0.87039,0.07014 1.87418,0.009 2.58218,0.009c0.74399,0 1.935,0 2.74933,0c0.81433,0 1.76801,0 2.5,0c1.16666,0 1.86639,0.03052 3,-0.16667c0.55853,-0.09715 1.53937,-0.34489 2.25635,-0.48067c1.07385,-0.20335 1.75851,-0.26663 2.72281,-0.35266c0.91971,-0.08206 1.82733,-0.1956 2.71017,-0.436c0.57953,-0.15781 1.6572,-0.53494 2.35352,-0.8685c0.87064,-0.41705 1.65271,-1.02214 2.25714,-1.51016c0.59564,-0.48093 1.58878,-1.08029 2.36401,-1.164c0.94675,-0.10222 1.72525,0.05956 2.672,-0.04266c0.77524,-0.08371 1.76654,-0.68532 2.36401,-1.164c0.80344,-0.64372 1.40927,-1.0737 2.108,-1.476c0.54477,-0.31364 1.55682,-0.87993 2.34998,-1.34401c0.8429,-0.49318 1.26404,-0.74738 2.09,-1.22665c1.08478,-0.62946 1.67603,-0.95367 2.58136,-1.459l0.78665,-0.51035l0.63666,-0.55583" id="svg_21" stroke-linecap="null" stroke-linejoin="null" stroke-dasharray="null" stroke-width="5" stroke="#000000" fill="none"/> <path d="m242.87117,207c1.1158,-5.39445 1.16895,-7.10709 1.12746,-9.00313c-0.04063,-1.8569 -0.44357,-3.99628 -0.98309,-5.11909c-0.55289,-1.15071 -1.72543,-2.26149 -2.54099,-2.50105c-0.69264,-0.20345 -2.11491,-0.38681 -2.71019,-0.50449c-1.34036,-0.265 -2.05716,-0.42502 -2.78799,-0.58057c-0.73082,-0.15555 -2.13742,-0.46704 -3.3835,-0.69443c-1.0038,-0.18321 -2.16148,-0.32283 -3.1158,-0.34447c-0.99263,-0.02251 -1.74493,-0.00278 -2.95792,-0.00278c-0.82559,0 -2.02238,0 -3.13387,0c-0.70528,0 -2.07071,0 -3.08572,0c-0.67673,0 -1.69176,0 -3.04216,0c-0.65562,0 -1.56697,0.09544 -2.93442,-0.00937c-0.74983,-0.05748 -1.76561,-0.44565 -2.79344,-0.87675c-0.73137,-0.30676 -2.06267,-0.7971 -2.96245,-1.14444c-1.15712,-0.44667 -1.94733,-1.03845 -2.85414,-2.13609c-0.75862,-0.91826 -1.65248,-2.12502 -2.67221,-2.08057c-0.87109,0.03795 -1.77022,0.63383 -2.75548,1.03889c-0.84038,0.34552 -2.46666,0.70613 -3.11357,0.78853c-0.68999,0.08786 -1.41219,0.15065 -2.90154,0.20975c-0.74219,0.02943 -1.46654,0.03868 -3.40697,0.0434c-0.53139,0.00127 -1.79851,-0.00017 -2.74081,0c-1.11769,0.00018 -2.01927,-0.1024 -2.88725,0.11908c-1.18977,0.30359 -1.95772,1.39154 -3.00284,1.85451c-0.77058,0.34135 -1.80669,0.85542 -2.61281,1.95697c-0.90427,1.23572 -1.45102,1.9402 -2.28423,3.04306c-0.97957,1.29665 -1.76312,2.60222 -2.7128,3.39027c-0.88293,0.73265 -1.5072,1.87721 -2.41544,3.17776c-0.83464,1.19514 -1.65559,1.64513 -2.48987,2.29169c-1.0408,0.80658 -1.92746,1.87498 -2.65117,3.125l-0.6767,1.24998l-0.78946,1.45831" id="svg_22" stroke-linecap="null" stroke-linejoin="null" stroke-dasharray="null" stroke-width="5" stroke="#000000" fill="none"/> <path d="m160,217c2.364,2.364 3.05132,2.95679 3.5,3.54167c0.5699,0.74292 0.88116,1.71687 1.2,2.45299c0.37778,0.87222 0.87962,1.57626 1.28534,2.416c0.36206,0.74937 0.87938,1.4323 1.42366,1.99384c0.7807,0.80545 1.37102,1.40733 1.991,1.93834c0.77588,0.66454 1.35529,1.08936 2.11467,1.3705c1.01378,0.37534 1.62537,0.27937 2.82133,0.28799c0.76537,0.00552 1.56609,-0.00354 2.328,0.084c1.20576,0.13855 1.93912,0.58408 2.879,0.79317c0.71649,0.15939 1.56599,0.11925 2.75766,0.12151c0.61734,0.00116 1.64334,0 2.44067,0c0.92534,0 1.99733,0 2.57834,0c0.603,0 1.851,0 2.48399,0c0.631,0 1.86301,0 3.02167,0c0.54683,0 1.5705,0 2.49417,0c1.1805,0 1.82584,0 2.88449,0c0.96268,0 1.74417,0 2.53467,0c1.11833,0 1.84,0 2.80301,0c1.00099,0 1.709,0 2.45299,0c1.04001,0 1.925,0 2.99068,0c0.72533,0 1.51466,0 2.304,0c1.04399,0 1.98799,0 3.04399,0c0.67201,0 1.416,0 2.52367,0c0.834,0 1.74301,0 2.66383,0c0.96451,0 1.68991,0.01207 2.6795,-0.00017c0.84152,-0.01041 1.57451,-0.06142 2.76767,-0.28383c0.68533,-0.12775 1.3788,-0.30351 2.064,-0.43201c1.19334,-0.22379 2.18953,-0.23976 2.968,-0.61732c0.86246,-0.41829 1.37161,-1.05655 2.2,-1.64517c0.58136,-0.41309 1.4059,-0.80867 2.20267,-1.22417c0.87599,-0.4568 1.37726,-0.75414 2.23984,-1.34c0.66563,-0.45209 1.34196,-0.95036 1.995,-1.452c1.10712,-0.85045 1.58649,-1.43617 2.46268,-1.88417c0.62007,-0.31705 1.41208,-0.66577 2.11049,-1.37851c0.40695,-0.41531 1.19475,-1.42636 1.60001,-1.98933c0.42967,-0.59689 0.87004,-1.2433 1.6105,-2.27449c0.52373,-0.72935 1.05928,-1.45708 1.31749,-1.8175c0.49448,-0.69023 1.30685,-1.88138 1.71967,-2.61966c0.35303,-0.63136 0.77513,-1.42468 1.10567,-2.20567c0.39578,-0.93515 0.5661,-1.74902 1.15034,-2.49767c0.47627,-0.61028 1.29674,-1.49666 1.683,-2.021c0.57782,-0.78438 0.88832,-1.30751 1.43333,-2.34666l0.252,-0.76801" id="svg_23" stroke-linecap="null" stroke-linejoin="null" stroke-dasharray="null" stroke-width="5" stroke="#000000" fill="none"/> <path d="m242,324c2.96617,0 3.5625,-0.00003 4.21883,0c1.52518,0.00009 1.9599,-0.00314 2.91718,0.01068c0.53072,0.00766 1.71619,0.04242 2.37866,0.07465c1.48581,0.07227 2.31305,0.13339 3.18533,0.20001c0.90273,0.06897 1.8203,0.14746 2.7375,0.2355c0.9028,0.08667 1.77594,0.1759 2.60251,0.28049c1.46179,0.18497 2.06842,0.28946 2.59332,0.39734c0.85648,0.17599 1.49234,0.42761 2.53333,0.63467c0.79147,0.15744 1.71597,0.16025 2.40533,0.16531c1.17047,0.00861 2.02884,0.00134 2.90717,0.00134c0.43417,0 1.26752,0 2.66751,0c0.83249,0 1.62,0 2.82001,0c0.67334,0 1.34668,-0.00778 2.53333,0c0.81339,0.00534 1.83493,0.16107 2.56833,0.37067c0.72491,0.20718 1.18387,0.35196 2.35834,0.68668c1.57184,0.44797 2.52924,0.70764 3.58267,0.99466c1.12689,0.30704 2.30518,0.6246 3.51151,0.948c1.211,0.32462 2.40414,0.64273 3.55649,0.948c2.08896,0.55334 2.98584,0.78925 3.78534,0.99466c0.71255,0.18304 1.35101,0.34299 1.92899,0.474c0.52612,0.11926 1.01456,0.22144 1.479,0.29401c0.89352,0.13959 1.35004,0.17188 1.81067,0.20401c0.46207,0.03223 0.92261,0.0517 1.37701,0.06448c0.44427,0.01248 1.28699,0.0195 2.68698,0.02084l0.81302,0l0.72299,0" id="svg_24" stroke-linecap="null" stroke-linejoin="null" stroke-dasharray="null" stroke-width="5" stroke="#000000" fill="none"/> <path d="m203,203c-5.776,-3.65733 -6.63155,-3.98833 -7.543,-3.77834c-0.74347,0.17128 -1.57912,0.51231 -2.457,0.94501c-0.60564,0.29851 -1.48706,0.77155 -2.144,1.34933c-0.75679,0.6656 -0.97359,1.40515 -1.56584,2.13666c-0.59521,0.73515 -1.30626,1.29645 -1.83183,1.97234c-0.35123,0.45168 -0.9624,1.53947 -1.22217,2.02451c-0.59911,1.11865 -0.9045,1.73701 -1.21533,2.37132c-0.31184,0.63637 -0.6452,1.25092 -1.35416,2.97917c-0.19145,0.46672 -0.5126,1.24448 -0.62401,2.136c-0.132,1.05647 -0.14368,1.84834 -0.04216,2.84283c0.08615,0.84402 0.63829,1.58772 1.29683,2.26117c0.4807,0.49158 0.94766,1.05142 2.01601,1.504c0.80049,0.33911 1.952,0.256 2.668,0.256c0.85199,0 1.64,0 2.556,0c0.972,0 1.4565,0 2.79599,0c1.03801,0 1.82404,0.00859 2.86717,-0.00017c0.63156,-0.00529 1.37573,-0.02335 2.66367,-0.22166c0.80183,-0.12347 1.23059,-0.20619 2.09584,-0.46083c0.88258,-0.25974 2.11433,-0.83318 2.81667,-1.31818c0.65747,-0.45403 1.13513,-1.02736 2.08032,-1.63483c0.68159,-0.43805 1.58743,-0.75645 2.24284,-1.46466c0.50017,-0.54045 0.80878,-1.43935 0.86417,-2.15034c0.07628,-0.97897 -0.06078,-1.96182 0.20267,-2.916c0.18834,-0.68211 0.73996,-1.65517 0.82266,-2.42267c0.10204,-0.94691 0.07559,-1.7485 -0.02133,-2.672c-0.08379,-0.79832 -0.59552,-1.85426 -1.05301,-2.27699c-0.50244,-0.46426 -1.17647,-0.86223 -2.41499,-1.295c-0.94318,-0.32957 -1.47755,-0.42393 -2.60417,-0.64584c-0.59836,-0.11786 -1.2231,-0.21989 -1.8705,-0.31949c-1.35753,-0.20883 -2.06746,-0.3078 -3.53966,-0.49684c-0.75725,-0.09723 -1.52734,-0.18367 -2.30701,-0.26849l-0.78766,-0.07884l-0.79367,-0.07182" id="svg_25" stroke-linecap="null" stroke-linejoin="null" stroke-dasharray="null" stroke-width="5" stroke="#000000" fill="none"/> <path d="m344,193c-1.70001,-0.9955 -2.672,-1 -3.54266,-1c-0.70801,0 -1.69275,-0.07649 -2.64749,0.0045c-0.98633,0.08368 -1.78564,0.24271 -2.4765,0.9955c-0.53903,0.58736 -0.86249,1.4921 -1.43335,2.10017c-0.60898,0.64868 -1.14426,1.36156 -1.46399,2.07449c-0.41104,0.91658 -0.436,1.992 -0.436,2.66133c0,0.76534 -0.01941,1.7597 0,2.67867c0.02084,0.98599 0.39969,1.85016 0.89334,2.3c0.5834,0.53163 1.74451,0.96794 2.4075,1.0755c1.00693,0.16336 1.69373,0.03368 2.82767,0.46249c0.71085,0.26881 1.56442,0.66405 2.41434,1.09001c0.73865,0.37019 1.19922,0.80557 2.2905,1.224c0.90259,0.34608 1.56213,0.32883 2.56665,0.33333c0.80002,0.00359 1.80228,0.04141 2.62085,-0.02083c1.15173,-0.08757 1.93152,-0.33298 2.47916,-0.47917c0.81555,-0.21771 2.05283,-0.36807 2.83835,-0.55267c0.92633,-0.2177 1.48206,-0.81178 1.62564,-1.77266c0.14905,-0.99756 0.03601,-1.8 0.03601,-2.66c0,-0.91916 0.08841,-1.92784 -0.07199,-2.71466c-0.16812,-0.82465 -0.63293,-1.42528 -1.22134,-2.07201c-0.46579,-0.51195 -1.34625,-1.37326 -2.00751,-2.02434c-0.67538,-0.66499 -1.01248,-0.98099 -1.64581,-1.56499l-0.99734,-0.79733l-0.85199,-0.336l-0.80817,-0.00534" id="svg_26" stroke-linecap="null" stroke-linejoin="null" stroke-dasharray="null" stroke-width="5" stroke="#000000" fill="none"/> <path d="m164,121c-4.86,3.03067 -5.60583,3.60202 -6.32133,4.32166c-0.51312,0.51609 -1.08315,1.10477 -1.65717,2.0995c-0.29468,0.51065 -0.54393,1.35009 -1.0215,2.24551c-0.44064,0.82617 -1.10225,1.43111 -1.7,2.03333c-0.60226,0.60677 -1.12778,1.25734 -1.50267,2.07333c-0.36658,0.7979 -0.58733,1.4617 -1.13066,2.56c-0.41623,0.84138 -0.6631,1.26817 -1.16667,2.125c-0.4861,0.82709 -1.14903,1.88763 -1.53067,2.40167c-0.55882,0.7527 -1.28276,1.46971 -1.80533,1.96533c-0.56,0.53111 -1.34778,1.18135 -1.996,1.54933c-0.72224,0.41 -1.668,0.79201 -2.42,1.10933l-0.82401,0.34134l-0.84799,0.34933l-0.82401,0.34134" id="svg_27" stroke-linecap="null" stroke-linejoin="null" stroke-dasharray="null" stroke-width="5" stroke="#000000" fill="none"/> <path d="m226,68c-0.62933,2.96933 -0.54224,3.66441 -0.37866,4.38533c0.16687,0.73544 0.56718,2.13042 0.77866,2.75734c0.28465,0.84383 0.8616,1.84851 1.24284,2.54833c0.43219,0.79335 0.57283,1.63311 0.87799,2.35066c0.27527,0.64725 0.67238,1.64683 1,2.47917c0.23064,0.58595 0.78464,1.78832 1.13634,2.37466c0.52974,0.88319 0.94417,1.41917 1.54266,2.18283l0.58951,0.675l0.5535,0.585" id="svg_28" stroke-linecap="null" stroke-linejoin="null" stroke-dasharray="null" stroke-width="5" stroke="#000000" fill="none"/> <path d="m255,47c3.88666,0.57733 4.65588,0.90956 5.04166,1.14583c0.84152,0.51542 1.27966,0.84714 2.125,1.6875c0.95554,0.94991 1.38318,1.53413 1.83734,2.11467c0.46063,0.5888 0.90335,1.19403 1.32901,1.803c0.41693,0.59647 1.17679,1.74301 1.80966,2.789c0.2858,0.47234 0.77069,1.33685 1.18668,2.075c0.50003,0.88725 1.02399,1.68766 1.504,2.55167l0.14133,0.66933l0.10934,0.76534" id="svg_29" stroke-linecap="null" stroke-linejoin="null" stroke-dasharray="null" stroke-width="5" stroke="#000000" fill="none"/> <path d="m306,52c2.91333,2.37467 3.43811,3.32644 3.89334,3.87867c0.39548,0.47975 0.89532,1.05251 1.74915,2.20667c0.33017,0.4463 0.99924,1.41484 1.33667,1.91467c0.33588,0.49752 0.97507,1.45924 1.52084,2.33333c0.45297,0.72544 0.97861,1.64614 1.30084,2.22017c0.53162,0.94701 0.96625,1.70118 1.46048,2.53317c0.25833,0.43488 0.78882,1.31354 1.056,1.74667c0.75659,1.22645 1.23001,1.94783 1.68268,2.60416l0.45267,0.59634" id="svg_30" stroke-linecap="null" stroke-linejoin="null" stroke-dasharray="null" stroke-width="5" stroke="#000000" fill="none"/> <path d="m383,61c2.20667,1.10717 3.06659,1.77289 3.52667,2.15867c0.47675,0.39977 0.97125,0.79729 1.85333,1.67733c0.80991,0.80802 1.43277,1.56776 1.82932,2.28133c0.33719,0.60677 0.61838,1.71693 0.776,2.668c0.12021,0.72523 0.45752,1.85717 0.72452,2.5155l0.311,0.67833l0.33099,0.65833" id="svg_31" stroke-linecap="null" stroke-linejoin="null" stroke-dasharray="null" stroke-width="5" stroke="#000000" fill="none"/> <path d="m133,119c0.98933,2.58933 1,3.42133 1,4.33334c0,0.93867 0.00293,1.488 0,2.66666c-0.00226,0.90451 0.00989,1.52338 -0.08533,2.48534c-0.10291,1.03964 -0.26598,1.76311 -0.41467,2.49384c-0.21405,1.0519 -0.41344,1.97493 -0.47917,2.97916c-0.04175,0.63794 -0.02083,1.63718 -0.02083,2.55634c0,0.96451 0,1.92801 0,2.62666c0,0.84435 0,1.98134 0,2.40034c0,0.862 0,2.125 0,2.88632c0,1.00951 0.03969,1.88495 -0.004,2.88934c-0.03069,0.70525 -0.20595,1.47504 -0.66017,2.32516c-0.36261,0.67867 -0.84534,1.34505 -1.33499,1.995c-0.83853,1.11302 -1.42899,1.62064 -1.71284,2.32916c-0.39571,0.9877 -0.28265,1.78262 -0.28799,2.89084c-0.00398,0.82915 0,1.6425 0,2.51401c0,0.69099 0,1.442 0,2.62849c0,0.79733 0,1.95833 0,2.68567c0,0.981 0,1.8045 0,2.7625c0,0.97366 0,1.80917 0,2.43449c0,0.68935 0,1.85968 0,2.71367c0,0.862 0,1.68401 0,3.01767l0,0.80267l0,0.89684l0,0.74249" id="svg_32" stroke-linecap="null" stroke-linejoin="null" stroke-dasharray="null" stroke-width="5" stroke="#000000" fill="none"/> <polyline id="svg_33" points="253,310 251.29999999999998,311.05266666666665 250.52083333333331,311.5208333333333 " stroke-linecap="round" stroke-linejoin="null" stroke-dasharray="null" stroke-width="5" stroke="#000000" fill="none"/> <path d="m279,311c-1.05267,1.70001 -1.68555,2.42255 -1.94284,3.29999c-0.25378,0.86548 -0.27866,1.79984 -0.76166,2.34283l-0.89551,0.38251l-0.79999,0.42133" id="svg_34" stroke-linecap="null" stroke-linejoin="null" stroke-dasharray="null" stroke-width="5" stroke="#000000" fill="none"/> <path d="m308,314c-2.47916,0.52084 -3.30484,1.13107 -3.64282,1.75717c-0.452,0.83734 -0.2955,1.7045 -0.13583,2.664l0.20398,0.79349l0.22202,0.77551" id="svg_35" stroke-linecap="null" stroke-linejoin="null" stroke-dasharray="null" stroke-width="5" stroke="#000000" fill="none"/> <path d="m255,325c-1.81467,0.436 -2.82082,0.94751 -2.991,1.70001c-0.18108,0.80066 -0.009,1.78531 -0.009,2.51065c0,0.98917 0,1.95334 0.00133,2.90533l0.084,0.76801l0.26733,0.77316l0.29468,0.74734" id="svg_36" stroke-linecap="null" stroke-linejoin="null" stroke-dasharray="null" stroke-width="5" stroke="#000000" fill="none"/> <path d="m276,332c1.82535,-0.10266 2.36865,0.33536 3.11334,1.11465c0.54092,0.56604 0.88132,1.48529 0.88666,2.38535c0.00534,0.89996 0,1.8045 0,2.66666l-0.02084,0.83334" id="svg_37" stroke-linecap="null" stroke-linejoin="null" stroke-dasharray="null" stroke-width="5" stroke="#000000" fill="none"/> <path d="m309,334" id="svg_38" stroke-linecap="null" stroke-linejoin="null" stroke-dasharray="null" stroke-width="5" stroke="#000000" fill="none"/> </g> </svg>