 <svg width="640" height="480" xmlns="http://www.w3.org/2000/svg" xmlns:svg="http://www.w3.org/2000/svg"> <!-- Created with SVG-edit - http://svg-edit.googlecode.com/ --> <g> <title>Layer 1</title> <path d="m184,163c0,1.8 0,2.7 0,3.60001c0,0.81065 0.0006,1.72133 0,2.57466c-0.00067,0.94 -0.24214,1.77911 -0.64734,2.52533c-0.4133,0.76112 -0.35266,1.7 -0.35266,2.60001c0,0.89999 -0.04779,1.80127 0,2.7c0.04272,0.80341 0.74489,1.53769 0.964,2.39999c0.22299,0.87753 0.15335,1.78941 0.55682,2.60001c0.42834,0.86055 1.12965,1.40034 1.39384,2.2c0.28362,0.85843 0.31564,1.76031 0.73267,2.5c0.42004,0.74503 1.1669,1.2881 1.34816,2.0045c0.21965,0.86816 0.16428,1.81172 -0.00616,2.6955c-0.18184,0.94283 -0.97978,1.48926 -1.78934,1.59868c-0.89377,0.1208 -1.731,0.49165 -2.39867,1.20132c-0.54225,0.57639 -0.95982,1.31496 -1.51733,1.884c-0.65904,0.67268 -1.25533,1.27171 -1.284,2.116c-0.03055,0.89932 -0.54666,1.47032 -0.94284,2.15717c-0.46985,0.81458 -0.72769,1.44969 -1.03633,2.16367c-0.34895,0.80722 0.17622,1.80135 -0.02216,2.67784c-0.18298,0.80847 -1.33557,0.97833 -1.71333,1.60266c-0.48741,0.80554 -0.38757,1.8067 -0.26451,2.7195c0.11026,0.81784 0.67416,1.61867 0.89384,2.59384c0.19547,0.86769 0.08533,1.68533 0.08533,2.58533c0,0.90001 0,1.8 0,2.7c0,0.90001 0,1.80135 0,2.48534c0,0.94 0,1.948 0,2.81017c0,0.82533 0,1.7885 0,2.65184c0,0.89549 0,1.85266 0,2.75267c0,0.89999 -0.04218,1.69757 0.36166,2.54816c0.32442,0.68332 1.11192,1.25311 1.98567,1.34283c1.00093,0.10278 1.52658,0.73459 2.26334,0.99834c0.83736,0.29976 1.8002,0.03052 2.71049,0.0105c0.81808,-0.01799 1.37967,-0.59818 1.96283,-1.19716c0.52747,-0.54178 0.716,0.49733 0.716,1.39732c0,0.90001 0,1.8 0,2.60001c0,0.89999 -0.16522,1.8192 0.02083,2.7c0.17899,0.8474 0.87025,1.5984 0.97917,2.5c0.0965,0.79874 0.74489,1.53769 0.964,2.39999c0.22299,0.87753 0.19925,1.76804 0.46133,2.42534c0.40276,1.0101 0.56932,1.79996 0.57466,2.65866c0.00536,0.86333 -0.11057,1.97318 0.44267,2.61633c0.46361,0.53896 1.29527,1.21382 1.44299,1.90501c0.20793,0.97295 -0.04732,2.05995 0.19966,2.79199c0.26996,0.80017 1.05669,1.50208 1.39384,2.20267c0.45837,0.95245 0.47884,1.75381 0.52533,2.65268c0.04478,0.86594 0.51312,1.66193 0.87416,2.44733c0.39468,0.85858 0.77498,1.46042 1.41684,2.19998c0.57861,0.66669 0.50415,1.53564 0.76166,2.40002c0.26917,0.9035 1.04019,1.62289 1.44284,2.29999c0.49672,0.8353 1.00249,1.45432 1.7955,1.94733c0.6539,0.40652 0.88069,1.40137 1.7045,1.88602c0.65277,0.38403 1.28394,0.91556 2.10001,1.38815c0.66653,0.38602 1.08144,1.28802 2,1.65701c0.84271,0.33853 1.71042,0.02106 2.536,0.1575c0.87169,0.14404 1.6813,0.7262 2.60683,0.90683c0.84349,0.16461 1.73482,0.11649 2.52518,0.3425c0.73932,0.21143 1.48903,0.47037 2.42667,1.01465c0.79643,0.46231 1.56595,0.91879 2.30533,1.17917c0.72528,0.2554 1.8275,0.50284 2.8,0.52084c0.89984,0.01666 1.80064,-0.03391 2.7,0c0.75879,0.02859 1.64172,0.39529 2.4045,0.64734c0.97751,0.323 1.75946,0.34732 2.71284,0.35266c0.85197,0.00476 1.65067,0 2.63199,0c0.91734,0 1.72984,0 2.73466,0c0.86334,0 1.75883,0.00009 2.716,0c0.89984,-0.00009 1.53362,-0.32697 2.13333,-1c0.5544,-0.62216 1.20807,-1.27231 1.83334,-1.83334c0.52722,-0.47305 1.60558,-0.73114 2.09467,-1.02798c0.7953,-0.48267 1.80331,-1.14352 2.50267,-1.492c0.6201,-0.30899 1.68475,-0.37161 2.52165,-0.69934c0.77914,-0.30511 1.11057,-1.39581 1.81418,-1.82599c0.778,-0.47565 1.091,-1.24738 1.60466,-1.82135c0.65802,-0.73532 1.39632,-1.3992 1.89551,-1.89999c0.70113,-0.70337 1.22128,-1.27188 1.69998,-2.05267c0.41898,-0.68338 0.98987,-1.59946 1.5,-2.146c0.66614,-0.71371 1.01312,-1.56079 1.42151,-2.30133c0.37195,-0.6745 1.37601,-1.19702 1.69318,-2.10001c0.29959,-0.85294 0.08533,-1.79999 0.08533,-2.61432c0,-0.95502 0,-1.70651 0,-2.50299c0,-0.99602 0,-1.83601 0,-2.79735c0,-0.9855 0,-1.77066 0,-2.71066c0,-0.69067 0,-1.76401 0,-2.67467c0,-0.89999 0,-1.8 0,-2.70134c0,-0.96533 0,-1.62399 0,-2.63199c0,-0.86217 0,-1.76668 0,-2.66667c0,-0.89999 0,-1.8 0,-2.7c0,-0.90001 0,-1.8 0,-2.60001c0,-0.89999 -0.14664,-1.92332 0.436,-2.58932c0.6105,-0.69785 1.74728,-0.81239 2.36398,-0.44c0.77631,0.46878 1.31577,1.34743 1.84283,1.8775c0.61545,0.61897 0.83267,1.61052 1.33185,2.34116c0.46219,0.67647 1.23477,1.13785 2.12534,1.48917c0.66068,0.26064 1.2684,0.25342 0.60083,0.826c-0.70026,0.60063 -0.15912,1.46581 0.70984,1.27417c0.9798,-0.21608 1.48074,-0.77557 2.01999,-1.496c0.58841,-0.78612 0.47849,-1.7874 0.57068,-2.68266c0.08368,-0.81261 0.79883,-1.45261 0.97781,-2.3c0.18604,-0.8808 0.15741,-1.85664 -0.26315,-2.7c-0.32993,-0.66165 -0.71375,-1.49998 -0.716,-2.40001c-0.00229,-0.92082 0.06998,-1.89128 -0.03601,-2.57466c-0.1492,-0.96194 -0.78091,-1.68861 -0.92798,-2.66133c-0.11453,-0.75751 -0.03546,-1.76401 -0.03601,-2.564c-0.00067,-1 0.03568,-1.81598 -0.22134,-2.8c-0.16016,-0.61316 -0.57175,-1.38553 -0.7215,-2.39551c-0.10989,-0.74109 -0.05716,-1.77916 -0.05716,-2.726c0,-0.88916 0,-1.87833 0,-2.65767c0,-0.85416 0,-1.71632 0,-2.62083c0,-0.92082 0,-1.88399 0,-2.57466c0,-1.06816 0.09439,-1.9303 0,-2.82533c-0.08582,-0.81349 -0.95416,-1.30661 -1.43201,-1.88533c-0.6799,-0.82344 -0.51266,-1.70245 -1.004,-2.47867c-0.53012,-0.83746 -1.18506,-1.34637 -1.58484,-2.15683c-0.4003,-0.81148 -1.03195,-1.43921 -1.41116,-1.99518c-0.61847,-0.90677 -0.48907,-1.92017 -0.78949,-2.80516c-0.23236,-0.68454 -1.1561,-1.14465 -1.65701,-1.90033c-0.48993,-0.73909 -0.4035,-1.73578 -1.2215,-1.7785c-0.89877,-0.04694 -1.65182,0.31297 -2.18399,0.916c-0.56644,0.64183 -0.71594,1.384 -0.716,2.284c-0.00009,0.90001 -0.12375,1.83426 -0.61066,2.40001c-0.63669,0.73979 -1.53888,1.12796 -2.08936,0.69099c-0.78221,-0.62091 -1.15247,-1.23814 -1.59549,-2.29634c-0.30545,-0.7296 -0.60207,-1.6526 -0.68367,-2.49466c-0.10065,-1.03851 -0.02083,-1.78267 -0.02083,-2.66617c0,-1.0005 0.00981,-1.71672 -0.01067,-2.4485c-0.03012,-1.07608 -0.12517,-2.05957 -0.342,-2.8755c-0.19461,-0.73232 -0.51219,-1.67273 -0.59018,-2.45799c-0.07826,-0.78798 -0.05716,-1.909 -0.05716,-2.8c0,-0.9045 0,-1.76784 0,-2.731c0,-0.82083 -0.08212,-1.72459 0.00017,-2.62083c0.08368,-0.91144 0.80002,-1.5526 0.979,-2.39999c0.18605,-0.8808 0.02083,-1.8 0.02083,-2.7c0,-0.90001 0,-1.8 0,-2.55717c0,-0.89549 0,-1.75883 0,-2.722c0,-0.92082 0.20207,-1.91396 -0.28534,-2.7195c-0.37776,-0.62433 -1.21443,-1.06805 -1.88133,-1.63466c-0.68399,-0.58113 -1.48593,-0.96686 -2.33333,-1.14584c-0.8808,-0.18605 -1.8,-0.02092 -2.7,-0.02083c-0.89984,0.00009 -1.47105,0.54541 -2.15717,0.94284c-0.73106,0.42348 -1.6795,0.38329 -2.44284,0.77316c-0.75288,0.38454 -1.7,0.284 -2.59999,0.284c-0.90001,0 -1.80267,0 -2.57068,0c-1.04816,0 -1.88666,0 -2.51733,0c-1.03349,0 -1.76917,0 -2.53282,0c-1.18051,0 -2.37923,0.00583 -3.17917,-0.0045c-0.80011,-0.01033 -1.60069,-0.04413 -2,-0.08083c-1.20279,-0.11053 -2.00603,-0.26437 -2.82083,-0.4355c-0.83798,-0.17601 -2.14471,-0.4845 -3.06584,-0.67784c-0.47443,-0.09958 -1.45407,-0.28619 -1.95999,-0.36533c-1.03824,-0.16238 -2.11931,-0.2793 -3.23201,-0.35201c-0.55569,-0.03632 -1.63817,-0.0807 -2.15199,-0.10933c-0.94435,-0.05261 -2.35692,-0.2213 -2.96516,-0.47467c-0.92938,-0.38716 -1.80417,-0.5 -2.70418,-0.5c-0.89999,0 -1.7,0 -2.57199,0c-0.87117,0 -1.61067,0 -2.49417,0c-1.0005,0 -2.0865,0 -2.83383,0c-0.74733,0 -1.83333,0 -2.83383,0c-0.60367,0 -1.39417,0 -2.6245,0c-0.84167,0 -1.74167,0 -2.64168,0c-0.89999,0 -1.67743,0.12428 -2.5,0.57466c-0.78038,0.42729 -1.77676,0.24188 -2.49983,0.64684c-0.73735,0.41295 -0.89925,1.56862 -1.70149,1.77718c-0.8716,0.22659 -1.71851,0.50229 -2.29851,1.10133c-0.5629,0.58138 -0.8895,1.5 -0.90016,2.39999c-0.01067,0.89999 -0.284,1.7 -0.83333,2.5l-0.16534,0.8l-0.00133,0.89999" id="svg_1" stroke-width="5" stroke="#000000" fill="none"/> <path stroke="#000000" d="m200,195c1.29193,0 1.8802,0.00069 2.44032,-0.14812c0.59039,-0.15683 1.22107,-0.18347 1.86613,-0.20012c0.57663,-0.01486 1.10329,-0.2601 1.72256,-0.33568c0.62695,-0.07654 1.29195,-0.01254 1.93791,-0.01254c0.64597,0 1.24489,0.06824 1.86613,-0.01991c0.62991,-0.08936 1.14742,-0.31836 1.79434,-0.32831c0.64565,-0.00995 1.29195,0 1.86613,0c0.64597,0 1.30605,-0.05827 1.93791,0.00725c0.60912,0.06316 1.07661,0.34097 1.43549,0.51509l0.50241,0.24376l0.43065,0.20894" id="svg_2" stroke-width="5" fill="none"/> <path d="m230,197c0.05716,-1.7 0.49033,-2.53101 1.2,-3.19867c0.57639,-0.54225 1.49998,-0.79907 2.40001,-0.80133c0.89999,-0.00224 1.7045,0 2.72133,0c0.67867,0 1.65733,0 2.56267,0c0.94133,0 1.74962,-0.44511 2.66933,0.036c0.73936,0.38676 0.9675,1.44318 1.74217,1.91133l0.64734,0.40984l0.06166,0.93834l0.42084,0.67917" id="svg_3" stroke-linecap="null" stroke-linejoin="null" stroke-dasharray="null" stroke-width="5" stroke="#000000" fill="none"/> <path d="m215,200c-3.54733,0 -4.22533,0 -5.42133,0c-0.804,0 -1.62601,0 -2.65718,0c-0.6855,0 -1.52016,0 -2.517,0c-0.91916,0 -2.11368,-0.1319 -2.39383,0.61067c-0.31395,0.83214 0.21951,1.90027 1.08934,2.26782c0.83653,0.35349 1.59999,0.17867 2.39999,0.62151c0.8,0.44284 1.7,0.5 2.60001,0.5c0.89999,0 1.7,0 2.59999,0c0.90001,0 1.8,0 2.7,0c0.90001,0 1.79868,-0.00133 2.54285,-0.35716l0.06166,-0.94284" id="svg_4" stroke-linecap="null" stroke-linejoin="null" stroke-dasharray="null" stroke-width="5" stroke="#000000" fill="none"/> <path d="m242,199c-1.7,0.9955 -2.60001,1 -3.5,1c-0.89999,0 -1.8,0 -2.7,0c-0.90001,0 -1.8004,0.02536 -2.60001,0c-0.90135,-0.02859 -1.58722,-0.93896 -2.4955,-0.93834c-0.75168,0.00052 -0.03015,0.85945 0.6955,1.37434c0.67159,0.47652 1.19325,1.2581 2.084,1.47867c0.84169,0.20842 1.75883,0.08533 2.716,0.08533c0.90001,0 1.8,0 2.60001,0l0.89999,0l0.90001,0" id="svg_5" stroke-linecap="null" stroke-linejoin="null" stroke-dasharray="null" stroke-width="5" stroke="#000000" fill="none"/> <path d="m220,207c-1.38933,0.86133 -1.90643,1.82187 -1.98933,2.58934c-0.09781,0.90546 -0.01067,1.81065 -0.01067,2.71066c0,0.89999 0,1.8 0,2.7c0,0.8 -0.05716,1.7 -0.5,2.5c-0.44284,0.8 -0.5,1.7 -0.5,2.60001c0,0.89999 0.19595,1.73444 -0.05716,2.59999c-0.25664,0.87764 -0.98271,1.49687 -0.94267,2.40001c0.04053,0.91437 0.66275,1.45245 1.29533,2.2c0.63948,0.75569 1.02721,1.59825 1.72533,1.67917c0.95152,0.11029 1.77783,0.02083 2.67917,0.02083c0.90001,0 1.8,0 2.7,0c0.90001,0 2.05399,0.19588 2.54733,-0.35716c0.60368,-0.67673 1.24136,-1.18193 1.76733,-1.72684c0.66631,-0.69029 0.28534,-1.716 0.28534,-2.616l0,-0.90001" id="svg_6" stroke-linecap="null" stroke-linejoin="null" stroke-dasharray="null" stroke-width="5" stroke="#000000" fill="none"/> <path d="m207,243c0,-1.7 -0.03435,-2.71523 0.70984,-3.2955c0.57562,-0.44884 1.70332,-0.56961 2.49016,-0.98849c0.65263,-0.34744 1.49998,-0.71375 2.40001,-0.716c0.89999,-0.00224 1.79999,0 2.7,0c0.89999,0 1.85347,-0.18134 2.7,0.16667c0.67108,0.27589 1.53204,0.76811 2.3,1.18599c0.84091,0.45758 1.5,0.64667 2.39999,0.64734c0.90001,0.00067 1.8,0 2.7,0c0.90001,0 1.8,0 2.70001,0c0.89999,0 1.7,0 2.59999,0c0.90001,0 1.8,0.00224 2.7,0c0.90002,-0.00226 1.81551,-0.26785 2.40001,-0.80133c0.71971,-0.65688 1.50053,-1.26125 2.39999,-1.19734c0.81485,0.05789 1.59781,0.65425 1.77917,1.49867c0.18904,0.88016 0.21573,1.82169 0.0195,2.69867c-0.18057,0.80704 -0.82706,1.42744 -1.35583,2.09683c-0.58531,0.74098 -1.25032,1.18718 -1.92818,1.61917c-0.7748,0.49377 -1.76549,0.38617 -2.41466,0.73267c-0.84938,0.45335 -1.79866,0.35487 -2.36134,0.96333c-0.52817,0.57114 -1.33008,1.10223 -2.13849,1.26782c-0.95079,0.19475 -1.91547,0.08817 -2.80017,0.12151c-0.75879,0.02859 -1.64015,0.38411 -2.34734,0.64734c-1.00096,0.37259 -1.79102,0.73874 -2.45267,1.06866c-0.84335,0.42055 -1.8,0.284 -2.7,0.284c-0.89999,0 -1.8,0 -2.7,0c-0.90001,0 -1.8,0 -2.60001,0c-0.89999,0 -1.81961,0.00195 -2.59999,-0.42534c-0.82257,-0.45038 -1.82664,-0.31604 -2.47867,-0.79599c-0.69826,-0.51398 -1.08534,-1.21468 -1.12134,-2.07867l-0.0045,-0.9955l-0.42084,-0.67917l-0.55383,-0.54616" id="svg_7" stroke-linecap="null" stroke-linejoin="null" stroke-dasharray="null" stroke-width="5" stroke="#000000" fill="none"/> <path stroke="#000000" d="m257,159.0502c-0.08533,0.75433 -0.46429,1.54002 -0.716,2.1405c-0.33728,0.80464 -0.76961,1.4691 -1.11732,2.25505c-0.2373,0.53638 -0.34071,1.41455 -0.74133,2.06108c-0.37511,0.60535 -0.42522,1.4735 -0.42534,2.05086c-0.00017,0.83261 -0.0598,1.52365 -0.70534,2.25676c-0.41087,0.4666 -1.16934,1.10614 -1.29199,1.8257c-0.12935,0.75888 -0.16789,1.54883 0.01816,2.29817c0.17899,0.72092 0.67117,1.43175 1.14584,2.12688c0.39941,0.58493 1.5071,0.46507 1.77617,-0.25906c0.26044,-0.7009 0.05716,-1.44244 0.05716,-2.2749c0,-0.69775 0,-1.5132 0,-2.27504c0,-0.59099 0,-1.45592 0,-2.25223c0,-0.76567 0,-1.53134 0,-2.29701c0,-0.6806 0,-1.42245 0,-2.16318c0,-0.81445 0,-1.43719 0,-2.36963c0,-0.74184 0,-1.50752 0,-2.27319c0,-0.64417 0.07051,-1.41786 -0.08533,-2.21309c-0.1356,-0.69199 -0.5392,-1.38585 -0.91467,-2.18245c-0.31157,-0.66101 -0.53418,-1.36395 -1,-2.12688c-0.35207,-0.57663 -1.29729,-0.93619 -1.916,-1.37595c-0.65695,-0.46692 -1.384,-0.60913 -2.284,-0.60913c-0.90001,0 -1.81255,-0.07784 -2.55717,0.04863c-0.92474,0.15706 -1.55783,0.61581 -2.60683,0.7715c-0.91852,0.13631 -1.62048,0.38496 -2.136,0.88136c-0.56357,0.54268 -1.20448,0.84883 -2.10001,0.85075c-0.89999,0.00192 -1.81059,-0.11342 -2.7,0.00383c-0.93167,0.12282 -1.4227,0.75467 -2.2,1.25458c-0.73761,0.47438 -1.60686,0.3488 -2.5,0.44308c-0.89874,0.09488 -0.56258,0.79079 0.22133,0.84167c0.97589,0.06337 1.77867,0.00908 2.77867,0.00908c0.81067,0 1.68533,0 2.68666,0c0.85501,0 1.47501,0 2.48001,0c1.0815,0 1.8125,0 2.5235,0c1.267,0 2.04849,0 2.758,0c0.97318,0 1.77716,0 2.59917,0c1.03117,0 1.93184,0 2.95267,0c0.8,0 1.60001,-0.002 2.5865,0c0.94202,0.00192 0.13159,0.3407 -0.55717,0.68173c-0.77148,0.38199 -1.55338,0.58723 -2.34666,0.84962c-1.00151,0.33127 -1.66238,0.59457 -2.68266,1.02089c-0.60033,0.25084 -1.37999,0.6226 -2.40134,0.77817c-0.82487,0.12563 -1.76534,0.07259 -2.55583,0.07259c-0.8535,0 -1.44417,0 -2.64417,0c-0.91949,0 -1.55583,-0.00334 -2.92017,0.00014c-0.73569,0.00189 -1.50035,0.00259 -2.283,0.04849c-1.19766,0.07025 -1.99312,0.18565 -2.76349,0.31323c-0.72563,0.12015 -1.92543,0.38902 -2.72401,0.45827c-0.90402,0.07838 -1.80817,0.03062 -2.59332,0.03062c-0.94,0 -1.63068,0 -2.70401,0c-0.91066,0 -1.81065,0 -2.71516,0c-0.86217,0 -1.69608,0.02843 -2.67433,-0.00015c-0.83246,-0.02431 -1.79385,-0.24065 -2.58366,-0.44295c-0.6042,-0.15477 -1.6019,-0.41484 -2.32417,-0.57668c-0.75771,-0.16977 -1.55615,-0.33061 -2.39999,-0.43898c-1.32962,-0.17075 -2.26584,-0.19775 -2.73866,-0.21213c-0.94907,-0.02884 -1.89067,-0.02946 -2.808,-0.03062c-0.88,-0.0011 -1.72054,0.00221 -2.52,-0.03062c-0.76071,-0.03123 -2.1651,-0.19495 -2.8,-0.3403c-0.89305,-0.20445 -1.9249,-0.56496 -2.59999,-0.81104c-0.7599,-0.27701 -1.72569,-0.50871 -2.64667,-0.51953c-0.89993,-0.01057 -1.83865,-0.08765 -2.31467,-0.68173c-0.51079,-0.6375 -1.54958,-1.3546 -1,-1.79793c0.59547,-0.48036 1.63866,-0.07259 2.28265,-0.07259c1.52467,0 2.19334,0 2.92401,0c0.77866,0 1.59132,0 2.424,0c0.83867,0 1.66933,-0.00032 3.25067,0c0.72633,0.00014 1.41074,-0.00238 2.06099,0.00766c1.2309,0.01898 1.82816,0.04181 2.42134,0.0896c1.85561,0.14952 2.51563,0.2757 3.20166,0.38596c0.70367,0.11311 1.41478,0.24005 2.12851,0.36752c0.70894,0.12663 1.39957,0.27911 3.35416,0.56718c0.5787,0.08528 1.62842,0.19231 2.10133,0.22231c0.84982,0.05392 2.23201,0.06126 3.04651,0.06126c0.6615,0 1.76616,0 2.6855,0c0.66933,0 1.83333,0 2.62267,0c0.72533,0 1.61732,0 2.35066,0c1.196,0 1.96133,0 2.75867,0c0.76534,0 1.96001,0 2.78334,0c0.918,0 2.27586,0.10463 2.23532,-0.51953c-0.05263,-0.81021 -1.28085,-0.9059 -1.86133,-1.15701c-1.13817,-0.49236 -1.59077,-0.68413 -2.57866,-1.07988c-0.51701,-0.20712 -1.57455,-0.60805 -2.11201,-0.77135c-1.50562,-0.45749 -1.98949,-0.52939 -2.88266,-0.64316c-0.82236,-0.10477 -1.60036,-0.11963 -2.66133,-0.27112c-1.00266,-0.14314 -1.63762,-0.34512 -2.98801,-0.52065c-0.71495,-0.09293 -1.4691,-0.11806 -2.24399,-0.13272c-0.79054,-0.01497 -1.98907,-0.00391 -2.78033,-0.01291c-0.76744,-0.00874 -1.50764,0.02353 -2.76617,-0.18446c-0.79286,-0.13104 -1.47816,-0.41603 -2.46432,-0.55908c-0.80733,-0.11711 -1.68301,-0.10146 -2.87885,-0.10338c-0.60866,-0.00098 -1.57166,0 -2.27032,0c-1.172,0 -2.03467,0 -2.92934,0c-0.44934,0 -1.33202,0.0051 -2.55684,-0.00014c-1.06055,-0.00453 -1.69919,0.04095 -2.77649,-0.14166c-0.93726,-0.15886 -2.69762,0.10332 -2.58334,-0.69122c0.06331,-0.44019 1.19135,-0.01773 2.39801,-0.01773c0.776,0 1.22699,0 2.28499,0c0.619,0 2.067,0 2.90451,0c0.9025,0 1.855,0 2.8425,0c1.00749,0 2.02,0 3.02249,0c0.97751,0 2.7975,0 3.61301,0c0.7485,0 1.433,0 2.0565,0c0.56549,0 1.07599,0 1.5345,0c1.37466,0 2.04816,-0.00043 2.81082,0c1.00267,0.00058 1.97205,-0.00426 2.64851,0.04863c1.263,0.09877 2.01355,0.32451 2.63466,0.50211c1.05466,0.30156 0.30013,0.30164 -0.2485,0.26939c-1.42128,-0.08351 -1.82976,-0.15906 -2.74466,-0.26939c-0.5192,-0.06262 -1.72147,-0.19341 -2.42134,-0.2507c-0.77478,-0.06345 -2.58577,-0.16313 -3.63249,-0.19666c-1.12529,-0.03606 -2.30896,-0.05737 -3.5295,-0.07275c-1.23647,-0.01558 -2.468,-0.02277 -3.67351,-0.02679c-1.15849,-0.00386 -3.2505,-0.00383 -4.14717,-0.00383c-0.79666,0 -1.50333,0 -2.12999,0c-0.55667,0 -1.05334,0 -1.5,0c-0.40668,0 -1.14,0 -1.48517,0c-0.33617,0 -0.66434,0 -1.61084,0c-0.60933,0 -1.81122,0.01373 -2.71066,-0.01772c-0.6006,-0.02098 -1.80179,-0.16386 -2.39999,-0.2823c-0.90286,-0.17877 -2.09773,-0.42509 -2.70001,-0.47813c-0.89751,-0.07904 -1.8,-0.07652 -2.69966,-0.07245c-0.87904,0.00398 -1.73131,-0.08134 -2.72966,0.24147c-0.82368,0.26633 -1.57068,0.60001 -2.47067,0.60913c-0.88933,0.00903 -1.48958,0.46069 -1.5,1.26251c-0.00954,0.73445 -0.00035,1.49632 0,2.31064c0.00034,0.7661 0.09695,1.31113 0.66667,1.95673c0.43501,0.49295 1.03746,0.99829 1.63199,1.55177c0.56801,0.52878 1.51039,1.33681 1.68333,2.00989c0.19511,0.75938 0.01801,1.54283 0.01801,2.3085c0,0.76569 0.25455,1.75827 -0.44267,2.10844c-0.7355,0.3694 -1.51904,-0.32002 -1.55466,-1.01381c-0.04865,-0.94754 -0.0063,-1.35445 0.008,-2.25391c0.00755,-0.4749 0.03456,-1.42862 0.07466,-1.88754c0.1051,-1.20267 0.26265,-2.11029 0.67635,-2.67049c0.45967,-0.62245 1.25267,-0.99641 2.23833,-1.42899c0.59618,-0.26164 1.40665,-0.58444 2.19934,-0.93568c0.86414,-0.3829 0.66615,-0.9164 -0.17801,-0.57681c-0.75729,0.30466 -1.1927,1.22704 -1.508,1.80061c-0.36546,0.66484 -0.53116,1.03371 -0.97501,1.75681c-0.66954,1.09079 -0.94498,1.41544 -1.48199,2.02266c-0.50145,0.567 -1.11984,1.00035 -1.692,1.95432c-0.42599,0.71028 -0.54893,1.48506 -0.939,2.13623c-0.40833,0.68167 -0.1707,1.68411 -0.86134,2.02025c-0.75061,0.36531 -1.79573,0.13701 -2.73067,-0.11118c-0.68219,-0.18109 -1.38,-0.72467 -1.66266,-1.60622c-0.17111,-0.53365 -0.16139,-1.14102 -0.17067,-2.36394c-0.00443,-0.58304 0.00052,-1.15967 0.036,-1.75597c0.03836,-0.64484 0.17378,-1.75955 0.32567,-2.60002c0.07884,-0.43628 0.26909,-1.30884 0.40001,-1.72815c0.36145,-1.15771 0.65817,-1.80441 1.28,-2.49426c0.38145,-0.42319 1.37282,-1.09962 1.911,-1.42827c0.81192,-0.49582 1.33939,-0.81772 2.36467,-1.29129c0.6886,-0.31805 1.44383,-0.55869 2.65067,-0.68175c0.67958,-0.06929 1.38129,-0.07115 2.69867,-0.07259c0.81451,-0.0009 1.60883,-0.22479 2.44533,0.24275c0.75607,0.42259 0.12056,1.15894 -0.50133,1.79904c-0.54434,0.56027 -0.71883,1.20616 -1.46533,1.77296c-0.64104,0.48672 -1.18898,0.75238 -2.22385,1.27145c-0.67747,0.33981 -1.52351,0.69209 -2.32016,1.03918c-0.76863,0.33488 -1.60513,0.74066 -2.19067,1.19106c-0.73991,0.56912 -1.25162,1.33148 -1.38533,1.89319c-0.20366,0.85561 -0.58562,1.40224 -1.12534,2.12363c-0.43259,0.5782 -0.71361,1.08313 -1.1955,1.9346c-0.3575,0.6317 -0.6759,1.40038 -0.7045,2.21577c-0.02684,0.76534 0.43425,1.72906 -0.16667,2.2403c-0.60092,0.51123 -1.82318,0.54936 -2.54799,0.06921c-0.67081,-0.44438 -0.33925,-1.49712 -0.20001,-2.1405c0.18663,-0.86234 0.5639,-1.51428 1.11601,-2.13934c0.50774,-0.57481 1.29353,-1.15623 1.79866,-1.62053c0.52757,-0.48494 1.09067,-1.18935 1.52083,-1.68378c0.76654,-0.88109 1.24013,-1.2001 2,-1.70151c0.52531,-0.34663 1.55716,-1.02142 2.0265,-1.35738c0.67703,-0.48462 1.60747,-1.07271 2.13533,-1.29129c0.78049,-0.32317 1.52936,-0.59882 2.64534,-0.72371c0.96436,-0.10793 1.87199,-0.03062 2.772,-0.03062c0.89999,0 1.65717,0 2.56166,0c0.8,0 1.76035,0.01321 2.58501,-0.00906c0.91571,-0.02475 1.92215,-0.12221 2.63866,-0.23369c0.75316,-0.11717 1.52606,-0.27423 2.31601,-0.43898c1.19928,-0.25009 1.98424,-0.42361 2.73616,-0.57668c1.00531,-0.20462 2.00641,-0.40314 2.86333,-0.43925c0.97,-0.04088 1.76167,-0.00383 2.36534,-0.00383c1.355,0 2.082,0 2.813,0c0.711,0 1.978,0 2.75949,0c0.7095,0 1.944,0 2.74051,0c0.7515,0 1.7065,0 2.72083,0c0.90001,0 1.83888,-0.12852 2.55717,0.09727c0.80368,0.25262 1.32817,1.00058 2.22133,1.39749c0.6685,0.29709 1.65796,0.18401 2.50549,0.20786c0.86467,0.02434 1.68593,0.41895 2.51601,0.70782c0.71669,0.24944 1.65717,0.1418 2.60133,0.1418l0.99417,0l0.74733,0l1.02116,0" id="svg_8" stroke-linecap="null" stroke-linejoin="null" stroke-dasharray="null" stroke-width="5" fill="none"/> <path d="m206,242" id="svg_9" stroke-linecap="null" stroke-linejoin="null" stroke-dasharray="null" stroke-width="5" stroke="#000000" fill="none"/> <path d="m204,276c0,1.82535 0,2.83334 0,3.62534c0,1.02734 0,1.72198 0,2.73868c0,0.93597 0,1.836 0,2.73599c0,0.89999 0,1.69998 0,2.60001c0,0.89999 0,1.79999 0,2.69998c0,0.89999 0,1.80133 0,2.76666c0,0.65869 0.01715,1.66687 0,2.52884c-0.01801,0.90506 -0.436,1.69385 -1.2,2.21918l-0.90001,0.08533l-0.89999,0l-0.8,0" id="svg_10" stroke-linecap="null" stroke-linejoin="null" stroke-dasharray="null" stroke-width="5" stroke="#000000" fill="none"/> <path d="m245,276c0,1.79999 0,2.70001 0,3.60001c0,0.81067 0,1.72131 0,2.57465c0,0.94 0,1.92535 0,2.82535c0,0.79999 -0.006,1.70004 0,2.60001c0.00534,0.80005 0.44386,1.65659 0.716,2.28534c0.38615,0.89218 0.27284,1.94806 0.284,2.81015c0.01042,0.80472 0.46565,1.67996 0.87866,2.40433c0.45227,0.79318 1.14822,1.21475 1.62134,1.92102c0.53096,0.7926 0.97917,1.45831 1.44733,2.27914l0.27417,0.79984l0.57983,0.61484l0.84151,0.33801" id="svg_11" stroke-linecap="null" stroke-linejoin="null" stroke-dasharray="null" stroke-width="5" stroke="#000000" fill="none"/> <path stroke="#000000" d="m204,297.00439c-1.82593,0 -2.81624,-0.18872 -3.75926,0.02209c-1.03362,0.23105 -1.84569,0.71613 -2.68518,1.3912c-0.54997,0.44226 -1.22751,1.48557 -1.972,1.7016c-0.80247,0.23288 -1.91698,0.39078 -2.69254,0.8118c-0.86317,0.46854 -1.50586,1.22528 -2.20953,1.78589c-0.79955,0.63696 -1.53181,1.14645 -2.19829,1.69168c-0.81627,0.66779 -1.45404,0.97 -2.10284,1.38791c-1.01534,0.65396 -1.90019,0.59735 -3.04858,0.75238c-0.94096,0.12701 -1.56631,0.74078 -2.31696,1.47919c-0.64548,0.63495 -1.26253,1.29913 -2.04558,2.01395c-0.60428,0.55164 -1.46356,1.03442 -2.19415,1.48401c-0.979,0.60245 -1.59607,1.37796 -1.77025,2.11993l-0.00484,0.95398" id="svg_12" stroke-linecap="null" stroke-linejoin="null" stroke-dasharray="null" stroke-width="5" fill="none"/> <path d="m202,297c1.75717,0.05716 2.67261,0.31985 3.34734,0.7045c0.79451,0.45291 1.37955,1.03635 2.30983,1.59549c0.53961,0.32434 1.53165,0.82333 2.32201,1.17917c0.84317,0.37961 1.61023,0.5058 2.52083,0.52084c0.97926,0.01617 1.46011,0.68213 2.14667,1.02533c0.78389,0.39185 1.67062,0.73697 2.59616,0.91751c0.84319,0.16449 1.75717,0.05716 2.55717,0.05716c0.89999,0 1.86754,-0.0773 2.59999,0.436c0.79002,0.55365 1.25134,1.36176 2.10001,1.54315c0.88036,0.18817 1.8045,0.02084 2.8215,0.02084c0.69933,0 1.6785,0 2.46783,0c1.04399,0 1.8,0 2.71066,0c0.89999,0 1.864,0.11859 2.66667,-0.33334c0.72981,-0.41092 1.06894,-1.18262 2.07616,-1.55234c0.90508,-0.33224 1.88121,-0.3074 2.45717,-0.81882c0.73227,-0.65024 1.45055,-1.04822 2.3,-1.46216c0.65227,-0.31787 1.41026,-0.90781 2.02533,-1.40802c0.61987,-0.50412 1.59428,-0.42337 2.37466,-0.85065c0.82257,-0.45038 1.70128,-0.62247 2.60001,-0.57468c0.80341,0.04272 1.47722,0.52203 1.95183,1.29999c0.48883,0.80124 1.28989,1.20895 1.87885,1.89868c0.55103,0.64529 0.94385,1.26855 1.17833,2.10132c0.24666,0.87601 1.04306,1.1525 1.82433,1.70001c0.79039,0.55389 1.37123,1.1955 1.96666,1.79999c0.68445,0.69485 0.93155,1.48563 1.42151,2.29984c0.43576,0.72412 1.38696,0.7926 2.29935,0.92102c0.81714,0.11502 1.61865,0.67416 2.59381,0.89383c0.86771,0.19547 1.79608,-0.27902 2.52817,0.14249c0.81149,0.46725 1.35718,0.94284 2.15717,0.94284c0.90002,0 1.80002,0 2.70001,0l0.89999,0l0.89099,0" id="svg_13" stroke-linecap="null" stroke-linejoin="null" stroke-dasharray="null" stroke-width="5" stroke="#000000" fill="none"/> <path d="m255,308c0,1 -0.05286,1.82178 -0.57466,2.564c-0.5583,0.79413 -0.89598,1.48862 -1.42534,2.26935c-0.45836,0.67599 -1.30757,1.28806 -1.71466,1.96664c-0.4415,0.73596 -0.7354,1.56961 -1.48401,2.11734c-0.69348,0.50739 -0.84692,1.38254 -1.37599,2.09735c-0.47174,0.63736 -1.22667,1.06934 -1.92534,1.48532l-0.8,0.44284l-0.89999,0.05716l-0.89984,0.00015" id="svg_14" stroke-linecap="null" stroke-linejoin="null" stroke-dasharray="null" stroke-width="5" stroke="#000000" fill="none"/> <path d="m192,301c1,-1 1.7578,-1.02942 2.65717,-0.99551c0.74866,0.02823 1.76595,0.22849 2.50684,0.60617c0.84668,0.43161 1.44284,1.01669 2.31866,1.58936c0.64307,0.42047 1.26192,1.052 1.85066,1.96664c0.33426,0.51929 1.04919,1.21533 1.86633,1.81183c0.56184,0.41013 1.60652,0.9725 1.79134,1.72153c0.21587,0.87488 0.42673,1.71771 1.009,2.29999c0.58228,0.58228 1.54742,0.90814 2.3045,1.35718c0.62889,0.37299 1.34773,0.95215 2.09999,1.34283c0.98653,0.51233 1.68068,0.66599 2.42618,1.49866c0.5665,0.63272 1.2289,1.0863 1.86932,1.44867c0.82079,0.46442 1.2955,1.05716 1.336,1.95267l0.40001,0.79999" id="svg_15" stroke-linecap="null" stroke-linejoin="null" stroke-dasharray="null" stroke-width="5" stroke="#000000" fill="none"/> </g> </svg>