<svg width="640" height="480.00000000000017" xmlns="http://www.w3.org/2000/svg" xmlns:svg="http://www.w3.org/2000/svg"> <!-- Created with SVG-edit - http://svg-edit.googlecode.com/ --> <g> <title>Layer 1</title> <path fill="none" stroke="#000000" stroke-width="5" id="svg_6" d="m92.00002,209.25002c0,-1.728 0.00783,-2.46039 -0.00037,-3.72388c-0.00499,-0.7683 -0.00263,-1.19066 -0.08063,-2.10812c-0.08749,-1.02927 -0.28763,-2.16931 -0.41725,-2.78261c-0.13607,-0.64383 -0.47353,-2.00169 -0.658,-2.7135c-0.18951,-0.7312 -0.38973,-1.47728 -0.58276,-2.23987c-0.39362,-1.55511 -0.5729,-2.34709 -0.74699,-3.14302c-0.17416,-0.7961 -0.33807,-1.59178 -0.49837,-2.38275c-0.15869,-0.78304 -0.31055,-1.55634 -0.46461,-2.31525c-0.29774,-1.46667 -0.4494,-2.16823 -0.60101,-2.851c-0.14843,-0.66849 -0.29958,-1.3251 -0.6,-2.62001c-0.1498,-0.64566 -0.30466,-1.29395 -0.6,-2.62c-0.15228,-0.68373 -0.30421,-1.39299 -0.44662,-2.13977c-0.15089,-0.7912 -0.2951,-1.64041 -0.42638,-2.55823c-0.14211,-0.99365 -0.28622,-2.07588 -0.502,-4.552c-0.12257,-1.40654 -0.21564,-2.92096 -0.32063,-4.52588c-0.11004,-1.68208 -0.22014,-3.4277 -0.35438,-5.22113c-0.13689,-1.82884 -0.26105,-3.68196 -0.7,-7.37799c-0.21716,-1.8286 -0.4939,-3.62813 -0.77962,-5.40112c-0.28138,-1.74602 -0.58191,-3.45789 -0.86738,-5.13788c-0.27924,-1.64328 -0.57977,-3.24319 -0.978,-6.336c-0.1898,-1.47401 -0.31615,-2.9012 -0.41063,-4.27051c-0.09001,-1.30482 -0.14288,-2.54179 -0.17437,-3.70349c-0.0293,-1.08035 -0.03765,-2.07401 -0.04,-3.77602c-0.00098,-0.69925 -0.0005,-1.30402 0.00336,-1.82475c0.00333,-0.44727 0.00887,-0.83163 0.02364,-1.16325c0.01291,-0.28989 0.02547,-0.54966 0.098,-1.012c0.0354,-0.22569 0.08604,-0.44846 0.1395,-0.66825c0.05258,-0.21622 0.11002,-0.42563 0.1665,-0.62775c0.05404,-0.19337 0.11066,-0.37479 0.194,-0.70399c0.03601,-0.14225 0.06247,-0.2719 0.08549,-0.38924c0.02094,-0.10667 0.03809,-0.20481 0.05849,-0.29475c0.01918,-0.08456 0.03535,-0.16782 0.106,-0.316c0.03664,-0.07686 0.08535,-0.14909 0.1395,-0.21487c0.05204,-0.06323 0.10733,-0.118 0.1665,-0.15412c0.05206,-0.03177 0.23346,0.04255 0.41901,0.84c0.15936,0.68501 0.39771,1.65462 0.56438,2.25663c0.18803,0.6791 0.40414,1.42564 0.63563,2.23537c0.24729,0.865 0.50771,1.77824 0.77062,2.73487c0.27219,0.99036 0.8081,3.05122 1.06361,4.10948c0.25852,1.07072 0.5072,2.15695 0.76276,3.25462c0.25844,1.11006 0.52081,2.23228 0.80325,3.36264c0.28551,1.14267 0.91628,3.45293 1.273,4.61589c0.35924,1.17113 0.74566,2.33768 1.14975,3.49651c0.40195,1.15271 0.8193,2.28778 1.24426,3.40199c0.41714,1.09378 1.25513,3.18709 1.66637,4.18024c0.39784,0.9608 0.79162,1.88806 1.17339,2.78775c0.37099,0.87431 0.73354,1.72496 1.07887,2.55824c0.33762,0.81473 0.96938,2.40782 1.25687,3.194c0.28445,0.77785 0.55122,1.55646 0.80325,2.33774c0.25249,0.78276 0.49184,1.57489 0.72224,2.37825c0.23365,0.81465 0.68398,2.49919 0.90649,3.3719c0.22549,0.88431 0.44444,1.77251 0.65926,2.65387c0.21067,0.86441 0.41174,1.70305 0.60526,2.50537c0.1825,0.75667 0.50861,2.09418 0.6535,2.65715c0.12737,0.49498 0.24355,0.92685 0.35325,1.30048c0.0952,0.32425 0.18438,0.6033 0.27225,0.84152c0.07661,0.20769 0.22858,0.54619 0.30676,0.68712c0.07211,0.12999 0.14693,0.24556 0.22501,0.34538c0.07224,0.09235 0.14378,0.1765 0.225,0.23737c0.2812,0.21072 0.94357,-0.08527 1.33801,-1.01537c0.29834,-0.70352 0.52422,-1.6185 0.64751,-2.13751c0.13324,-0.56093 0.47704,-2.51825 0.5775,-3.2525c0.10442,-0.76328 0.19964,-1.55016 0.30264,-2.35123c0.104,-0.80893 0.20628,-1.61914 0.33636,-2.41876c0.25272,-1.55344 0.42242,-2.28751 0.60001,-2.99501c0.17289,-0.6888 0.36569,-1.35599 0.56362,-2.00812c0.19511,-0.64287 0.60838,-1.90355 0.98438,-3.17189c0.18969,-0.63989 0.36526,-1.29141 0.53888,-1.95299c0.35641,-1.35829 0.53049,-2.06143 0.71851,-2.77899c0.19296,-0.73645 0.61382,-2.26912 0.84988,-3.0659c0.24185,-0.81627 0.49966,-1.64348 0.77174,-2.47612c0.27341,-0.83664 0.55772,-1.66852 0.85275,-2.48961c0.29102,-0.80992 0.88853,-2.36331 1.19324,-3.097c0.29543,-0.71129 0.59715,-1.39754 0.89999,-2.06438c0.2972,-0.6544 0.59927,-1.29536 0.89999,-1.92938c0.29926,-0.63098 0.90083,-1.89522 1.20026,-2.53688c0.30258,-0.64839 0.60548,-1.30548 0.91575,-1.96875c0.31422,-0.67174 0.63525,-1.35132 0.96976,-2.03624c0.33948,-0.6951 1.06026,-2.10591 1.44624,-2.81923c0.38998,-0.7207 0.79359,-1.43748 1.206,-2.1465c0.40862,-0.70247 0.81732,-1.39014 1.23299,-2.05201c1.16048,-1.84776 1.54404,-2.38218 1.9,-2.89101c0.33743,-0.48235 0.98293,-1.36627 1.57938,-2.17812c0.284,-0.38659 1.0877,-1.51362 1.57838,-2.25674c0.46915,-0.71053 0.86572,-1.40578 1.49625,-2.26012c0.49902,-0.67615 1.2785,-0.82558 1.44276,-0.02937c0.19821,0.96078 0.13298,1.61423 0.151,2.35751c0.02066,0.85175 0.02643,1.81625 0.02925,2.89687c0.00655,2.52499 0.002,3.97211 0.002,5.52197c0,1.62788 0,3.30904 0,5.01866c0,1.71335 0,3.40575 0,5.05237c0,3.05702 0,4.424 0,5.683c0,1.16301 0,2.242 0,3.24902c0,0.94699 0,1.84598 0,2.709c0,1.666 0,2.49112 0,3.317c0,0.82738 0,1.657 0,2.48961c0,0.83638 0,1.67726 0,2.52338c0,1.71101 0,2.576 0,3.44099c0,0.8575 0,1.7 0,2.52c0,0.78998 0,1.5425 0,2.25c0,1.25 0,1.77974 0,2.248c0,0.41275 0,0.77599 0,1.09575c0,0.28224 0,0.53299 0,0.75826c0,0.39799 0,0.58061 0,0.74899c0,0.14737 0,0.267 0,0.35213c0,0.04387 0,0.03975 0,-0.01912c0,-0.30901 0,-0.90001 0,-1.737c0,-0.49388 0,-1.59863 0,-2.19601c0,-1.25098 0,-2.54198 0,-3.20061c0,-0.66838 0,-1.34723 0,-2.03737c0,-0.70213 -0.00183,-2.888 0.00063,-3.64514c0.0025,-0.7699 0.00891,-1.55049 0.03937,-2.33888c0.03073,-0.79494 0.08203,-1.59438 0.17439,-2.39287c0.09262,-0.80075 0.39351,-2.39081 0.61661,-3.1705c0.22485,-0.78574 0.50647,-1.56612 0.828,-2.34563c0.32877,-0.79703 0.70503,-1.59842 1.1115,-2.41312c0.41934,-0.8405 1.35057,-2.58406 1.854,-3.49689c0.52243,-0.94725 1.0764,-1.92482 1.6785,-2.925c0.62613,-1.0401 1.30272,-2.10759 2.043,-3.19501c0.77133,-1.13304 2.51741,-3.47438 3.49777,-4.67775c1.00937,-1.23901 2.0719,-2.46873 3.16124,-3.68327c1.08075,-1.20496 2.16342,-2.36431 3.22876,-3.46725c1.015,-1.0508 2.88454,-2.89394 3.71324,-3.6605c0.73807,-0.68272 1.40865,-1.26958 2.01601,-1.76627c0.53195,-0.435 1.00964,-0.79619 1.4355,-1.09124c0.36682,-0.25414 0.97313,-0.62504 1.22087,-0.75336c0.20795,-0.10773 0.38852,-0.19041 0.54561,-0.20139c0.13179,-0.00919 0.25752,0.04534 0.34312,0.14964c0.10368,0.12628 0.2466,0.56018 0.31726,0.85036c0.08321,0.34169 0.16078,0.74129 0.24863,1.19701c0.09904,0.51378 0.20541,1.08831 0.32962,1.7235c0.13664,0.69884 0.46873,2.29108 0.66937,3.1846c0.2132,0.94951 0.44521,1.93983 0.68401,2.95989c0.24269,1.03671 0.48793,2.07655 0.7245,3.10838c0.23137,1.0092 0.64838,2.91165 0.82001,3.78313c0.16005,0.81262 0.29596,1.57228 0.4095,2.28149c0.10565,0.65985 0.19174,1.27554 0.261,1.8495c0.06447,0.53409 0.15497,1.49834 0.187,1.93361c0.02986,0.40576 0.05145,0.78325 0.07202,1.13287c0.01898,0.32263 0.02806,0.61993 0.0585,0.88988c0.09558,0.8477 0.44896,1.68472 1.27837,1.78876c0.8934,0.11206 1.71298,-0.41522 2.08714,-0.63663c0.9861,-0.58359 1.57486,-1.01631 2.24301,-1.49701c0.73198,-0.52664 1.5038,-1.10533 2.30513,-1.72238c0.82579,-0.63588 1.65665,-1.28972 2.47388,-1.95862c1.58258,-1.29538 2.30383,-1.93167 2.995,-2.541c0.66779,-0.58873 1.31213,-1.17009 1.953,-1.73474c0.63715,-0.56136 1.27914,-1.1236 1.953,-1.66725c1.4059,-1.13425 2.18822,-1.68721 3.004,-2.24902c0.83817,-0.57721 1.70943,-1.14238 2.6055,-1.69312c0.90195,-0.55435 1.81525,-1.09106 2.74049,-1.59187c1.8091,-0.97923 2.71007,-1.39747 3.584,-1.795c0.84026,-0.38221 1.65186,-0.72533 2.42551,-1.035c0.72452,-0.29 1.40019,-0.54503 2.02051,-0.765c1.03903,-0.36846 1.45473,-0.49997 1.80499,-0.603c0.29228,-0.08598 0.53973,-0.14889 0.75262,-0.17888c0.18454,-0.02599 0.37131,-0.1003 1.0575,0.08987c0.71892,0.19924 1.48152,0.98563 1.70187,1.39301c0.55434,1.02489 0.70766,1.75259 0.89801,2.55199c0.21106,0.88647 0.38802,1.8648 0.56137,2.91825c0.18407,1.11856 0.35289,2.29782 0.52762,3.52574c0.36539,2.56766 0.55165,3.89075 0.752,5.22701c0.20137,1.343 0.40965,2.68353 0.62663,4.01286c0.21407,1.31169 0.43045,2.59657 0.66037,3.84413c0.43523,2.36159 0.66939,3.45494 0.896,4.489c0.21388,0.97589 0.42752,1.89035 0.63113,2.74501c0.18947,0.79532 0.37186,1.52913 0.52988,2.205c0.27321,1.16855 0.37332,1.66489 0.45,2.10599c0.06754,0.38852 0.11496,0.73158 0.14513,1.03276c0.02634,0.26291 0.03941,0.49341 0.04387,0.69525c0.00743,0.33594 0.00302,0.47887 0.00302,0.60898c0,0.11963 0,0.231 0,1.21652c0,0.8855 0.28766,1.16306 0.53899,0.64748c0.60968,-1.25072 0.77951,-1.70354 1.26324,-2.73912c0.28142,-0.60245 0.59961,-1.25946 0.96075,-1.96988c0.39249,-0.77205 0.8192,-1.60765 1.862,-3.42798c0.57852,-1.00989 1.2209,-2.06744 1.92712,-3.16464c0.74036,-1.15021 1.54355,-2.32967 2.41988,-3.52237c0.90561,-1.23256 1.84477,-2.50284 4.028,-4.93799c1.12694,-1.25699 2.34335,-2.46632 3.60114,-3.65175c1.26134,-1.18878 2.5596,-2.33032 3.87787,-3.42227c1.29779,-1.07498 2.57867,-2.11627 5.14601,-3.92598c1.2056,-0.84984 2.39806,-1.61108 3.56401,-2.31076c1.12645,-0.67596 2.24306,-1.29337 3.34798,-1.86524c1.0838,-0.56095 2.16455,-1.09236 4.33801,-2.07401c1.08983,-0.49223 2.20418,-0.97142 3.35701,-1.43549c1.1931,-0.48029 2.45116,-0.95197 3.78899,-1.40849c1.41754,-0.48374 2.93513,-0.98336 6.35399,-1.90601c1.89786,-0.51217 3.91663,-0.99229 6.01538,-1.46925c2.14426,-0.48729 4.31079,-0.9468 6.46762,-1.37475c2.11099,-0.41885 4.14651,-0.82449 7.892,-1.40601c1.64172,-0.25489 3.13373,-0.43926 4.48312,-0.57487c1.21582,-0.12218 2.31332,-0.19946 3.30188,-0.24413c0.89032,-0.04022 1.69501,-0.05251 3.09,-0.056c0.61188,-0.00153 1.17502,0 1.69315,0c0.4769,0 0.91623,0 1.32187,0c0.37561,0 0.7251,-0.00014 1.36008,0c0.29239,0.00007 0.569,-0.00028 0.8291,0.00338c0.24292,0.00343 0.46796,0.00918 0.67392,0.02362c0.18683,0.0131 0.35898,0.01495 0.62198,0.098c0.10471,0.03307 0.19089,0.08602 0.24637,0.15638c0.0564,0.07151 0.08725,0.17077 0.10458,0.28461c0.02042,0.13306 0.02246,0.29099 0.02405,0.68401c0.00092,0.23962 0,0.507 0,0.79988c0,0.31612 0,0.65324 0,1.00912c0,0.37238 0,0.759 0,1.56599c0,0.41663 0,0.84299 0,1.28138c0,0.45262 0,0.92175 0,1.40962c0,0.50887 0,1.04099 0,2.184c0,0.61538 0,1.263 0,1.94513c0,0.71887 0,1.47675 0,2.27587c0,0.84262 -0.00021,1.731 0,3.65401c0.00009,1.03561 -0.00027,2.10501 0.00665,3.18939c0.00702,1.08063 0.01904,2.13889 0.04727,3.15561c0.02658,0.95703 0.02411,1.84007 0.19598,3.28c0.06403,0.5363 0.14404,0.95689 0.29251,1.22624c0.10403,0.18874 0.27951,0.27489 0.42749,0.21376c0.19357,-0.07996 0.38287,-0.30511 0.78,-0.94c0.24695,-0.39478 0.48068,-0.85713 0.73914,-1.35451c0.27466,-0.52858 0.5549,-1.08447 0.85388,-1.65149c0.30374,-0.57603 0.59552,-1.16296 1.28198,-2.244c0.33026,-0.52011 0.69354,-1.01352 1.10025,-1.48387c0.42499,-0.49147 0.9213,-0.98018 1.49176,-1.47713c0.62979,-0.54863 1.35641,-1.13268 3.15799,-2.414c1.06244,-0.75565 2.23685,-1.53989 3.483,-2.34676c1.2778,-0.82736 2.57208,-1.63457 3.86102,-2.38725c1.23102,-0.71883 2.35718,-1.44202 4.40598,-2.26601c0.77084,-0.31001 1.43082,-0.46928 1.94626,-0.432c0.41016,0.02966 0.74469,0.21647 0.93375,0.486c0.19577,0.27911 0.28253,0.6512 0.37009,1.446c0.04559,0.415 0.06372,0.83888 0.08206,1.26788c0.01871,0.43402 0.02884,0.87273 0.03485,1.31512c0.00616,0.44536 0.00757,0.89302 0.00809,1.79201c0.00015,0.45038 0,0.903 0,1.36012c0,0.46387 0,0.93674 0,1.42087c0,0.49762 0,1.011 0,2.09401c0,0.57161 0,1.153 0,1.73137c0,0.56262 0,1.09677 0,1.58963c0,0.43887 0,0.81099 0,1.304c0,0.0995 0,0.106 0,0.03148c0,-0.14348 0,-0.34398 0,-0.58948c0,-0.27849 -0.06711,-0.58029 0.00702,-1.76999c0.0538,-0.86389 0.23938,-1.52536 0.86798,-2.67201c0.26517,-0.48366 0.60553,-0.98587 1.37396,-2.056c0.40082,-0.55806 0.81958,-1.10486 1.23523,-1.63913c0.40042,-0.51468 1.43274,-1.84186 2.00821,-2.448c0.642,-0.67625 1.49539,-1.18406 2.23651,-1.26101c0.77887,-0.08086 1.85843,0.18227 2.56711,0.90913c0.39279,0.40297 0.96875,1.61403 1.25491,2.343c0.32382,0.8246 0.4733,1.28992 0.79187,2.31937c0.17587,0.56819 0.53351,1.83224 0.72333,2.52864c0.19931,0.73161 0.40079,1.49127 0.61084,2.26799c0.21268,0.78627 0.42749,1.57301 0.65143,2.349c0.21924,0.75999 0.65576,2.19273 1.11862,3.45001c0.2106,0.57231 0.43002,1.10054 0.82196,2.058c0.34,0.83061 0.76428,1.86952 0.89993,2.73199c0.1351,0.85895 0.14136,1.84059 -0.08563,2.60387c-0.21622,0.7272 -1.06079,1.57515 -1.89331,1.69424c-0.68317,0.09772 -1.50806,-0.09172 -1.94995,-0.23813c-1.56299,-0.51768 -2.10013,-0.88956 -2.673,-1.24049c-0.60178,-0.36858 -1.20392,-0.79527 -1.79102,-1.2825c-0.60565,-0.50261 -1.22952,-1.03351 -2.276,-2.33998c-0.53949,-0.67354 -1.00592,-1.42032 -1.43661,-2.19377c-0.43262,-0.77689 -0.81256,-1.58127 -1.14636,-2.39624c-0.32886,-0.80289 -0.63638,-1.59807 -1.04202,-3.15999c-0.18982,-0.73088 -0.31708,-1.44527 -0.41061,-2.13864c-0.09119,-0.67589 -0.14661,-1.34523 -0.17438,-2.01038c-0.05585,-1.3383 -0.04001,-2.726 -0.04001,-3.44875c0,-0.73926 0,-1.48901 0,-2.24326c0,-0.75276 0,-1.498 0,-2.22977c0,-2.05424 -0.01404,-2.6747 0.01102,-3.26424c0.0477,-1.12164 0.09451,-1.68531 0.46063,-2.7625c0.19733,-0.5806 0.88647,-1.78949 1.35611,-2.43275c0.51123,-0.70026 1.117,-1.41005 1.79324,-2.13074c0.71036,-0.75706 1.48795,-1.50912 2.31976,-2.25224c0.85208,-0.76128 2.67462,-2.22498 3.63251,-2.91238c0.95831,-0.68772 1.94226,-1.33495 2.94974,-1.92937c0.99884,-0.58934 2.0144,-1.1256 3.04425,-1.59187c1.01276,-0.45855 3.05139,-1.17796 4.06714,-1.42426c0.99997,-0.24249 2.00919,-0.40591 3.0206,-0.52087c1.01511,-0.11539 2.04471,-0.17772 3.08813,-0.22388c1.06161,-0.04696 3.25696,-0.10645 4.3945,-0.15012c1.1535,-0.04429 2.30832,-0.09708 3.45038,-0.153c1.11517,-0.05461 2.18903,-0.11161 3.20737,-0.1665c0.94867,-0.05112 2.57916,-0.15128 3.23663,-0.17038c0.54883,-0.01595 1.01483,-0.02586 1.341,0.12489c0.27676,0.12791 0.45377,0.43105 0.49051,0.81339c0.04828,0.50233 -0.22372,1.97107 -0.46027,2.953c-0.27518,1.14191 -0.63382,2.40788 -1.10025,3.75864c-0.49628,1.43695 -1.08774,2.91541 -1.81573,4.37962c-0.73987,1.48809 -2.54846,4.30824 -3.681,5.51476c-1.14957,1.22462 -2.55923,2.31754 -4.24127,3.18262c-1.85843,0.95581 -4.12006,1.68163 -6.73874,2.22414c-2.99194,0.61983 -10.44952,1.2617 -14.94174,1.37175c-4.91238,0.12032 -10.1265,0.0553 -15.51151,-0.10687c-5.43677,-0.16373 -10.79813,-0.43254 -15.957,-0.78189c-4.83917,-0.32768 -13.04874,-1.09842 -16.19138,-1.56927c-2.5296,-0.37897 -4.51257,-0.77338 -5.96362,-1.28586c-1.07983,-0.3814 -1.84082,-0.82001 -2.19714,-1.3264c-0.28723,-0.40821 -0.31387,-1.34662 -0.31387,-1.79649c0,-0.44912 0,-0.89674 0,-1.34212c0,-0.44238 0,-0.881 0,-1.31512c0,-0.42887 -0.00113,-1.26787 0.0004,-1.67699c0.0015,-0.40388 0.00531,-0.80493 0.02362,-1.20489c0.0184,-0.40186 0.04987,-0.80788 0.10461,-1.21838c0.05612,-0.42065 0.237,-1.29528 0.37051,-1.74986c0.13916,-0.47372 0.31342,-0.95837 0.52988,-1.44675c0.22495,-0.50758 0.49445,-1.01968 0.81335,-1.52776c0.33176,-0.52853 1.14624,-1.5787 1.62827,-2.09163c0.49298,-0.52457 1.02139,-1.01942 1.56937,-1.47262c0.52884,-0.43736 1.0535,-0.82201 1.56937,-1.12162c0.461,-0.26773 1.27246,-0.56226 1.57001,-0.49725c0.25491,0.05569 0.45218,0.2732 0.54562,0.54786c0.10959,0.32217 0.1123,0.73016 0.07312,1.18237c-0.04382,0.50568 -0.28946,1.637 -0.46262,2.24924c-0.1824,0.64502 -0.40231,1.31187 -0.64349,2.00137c-0.24966,0.71384 -0.52246,1.4436 -0.80551,2.19038c-0.28891,0.76223 -0.88696,2.31847 -1.18674,3.10976c-0.30222,0.79771 -0.60468,1.60246 -0.91577,2.41088c-0.31339,0.81434 -0.63391,1.63267 -0.96973,2.45138c-0.33813,0.82433 -1.05896,2.4741 -1.44601,3.29574c-0.38693,0.8214 -0.78738,1.62881 -1.19025,2.41988c-0.39374,0.77315 -0.78479,1.51764 -1.16324,2.23087c-0.35959,0.67773 -1.01511,1.89996 -1.30063,2.43762c-0.26144,0.49234 -0.5015,0.94818 -0.73013,1.3725c-0.21719,0.40315 -0.43048,0.79144 -0.64914,1.17c-0.22034,0.38147 -0.70584,1.17262 -0.98422,1.59361c-0.29639,0.44824 -0.62439,0.91699 -0.99564,1.39839c-0.39468,0.51178 -0.83643,1.03883 -1.33313,1.57387c-0.52786,0.5686 -1.76315,1.73941 -2.47537,2.33525c-0.74554,0.62375 -1.54272,1.23578 -2.38049,1.82587c-0.84534,0.59541 -1.71292,1.15654 -2.5965,1.66388c-0.86288,0.49545 -2.56122,1.3022 -3.37952,1.584c-0.77277,0.26613 -1.52673,0.45181 -2.25,0.57713c-0.68732,0.11911 -1.34944,0.18056 -1.98001,0.21262c-0.59961,0.0305 -1.71002,0.03038 -2.22026,0.03038c-0.48175,0 -0.93651,0 -1.36574,0c-0.40527,0 -0.78801,0 -1.14975,0c-0.34224,0 -0.97427,0.00157 -1.26727,-0.00049c-0.28102,-0.00197 -0.5535,-0.00688 -0.819,-0.03148c-0.26363,-0.02443 -0.52826,-0.06715 -0.79198,-0.13951c-0.27467,-0.07535 -0.84976,-0.3217 -1.15289,-0.4926c-0.32228,-0.18173 -0.64583,-0.39421 -0.97313,-0.61987c-0.3315,-0.22855 -0.65538,-0.46648 -0.97313,-0.70087c-0.30725,-0.22662 -0.8705,-0.64207 -1.12349,-0.81688c-0.23015,-0.15904 -0.44432,-0.29869 -0.64238,-0.42526c-0.18373,-0.1174 -0.35765,-0.22499 -0.52086,-0.33075c-0.15776,-0.10225 -0.46173,-0.3152 -0.61012,-0.43338c-0.15166,-0.12079 -0.3011,-0.25052 -0.45,-0.38585c-0.15115,-0.13739 -0.30058,-0.28044 -0.45001,-0.42639c-0.15056,-0.14705 -0.45056,-0.44606 -0.59976,-0.59677c-0.14879,-0.1503 -0.29593,-0.30109 -0.43427,-0.45787c-0.13718,-0.15549 -0.2668,-0.31566 -0.38025,-0.48488c-0.11261,-0.16797 -0.29268,-0.5298 -0.3535,-0.72313c-0.06131,-0.1949 -0.101,-0.39783 -0.12825,-0.60298c-0.02727,-0.20544 -0.04021,-0.41191 -0.04723,-0.61652c-0.00694,-0.20143 -0.01028,-0.58955 -0.00563,-0.77351c0.00449,-0.17812 0.01691,-0.355 0.07088,-0.52199c0.05609,-0.17354 0.15994,-0.34793 0.31387,-0.5085c0.17812,-0.18582 0.73488,-0.5439 1.10825,-0.72624c0.41934,-0.20479 0.88795,-0.39664 1.38487,-0.58725c0.50981,-0.19554 1.02606,-0.37686 1.5334,-0.54674c0.48372,-0.162 1.33672,-0.42839 1.68349,-0.52664c0.29039,-0.08226 0.53146,-0.14551 0.73013,-0.17662c0.15758,-0.02466 0.28621,-0.03157 0.37912,-0.00113c0.07689,0.02519 0.17525,0.15213 0.20351,0.23636c0.03149,0.09393 0.04686,0.20332 0.04837,0.32176c0.00162,0.12729 -0.01358,0.26317 -0.04613,0.40277c-0.03421,0.14667 -0.18031,0.67653 -0.73286,1.04323c-0.60483,0.4014 -1.71819,0.63243 -3.30301,0.90001c-1.00958,0.17047 -2.1622,0.30516 -3.43011,0.44325c-1.36304,0.14844 -2.80376,0.28133 -4.30089,0.40274c-1.53215,0.12424 -3.07996,0.24474 -6.144,0.40401c-1.47755,0.07681 -2.91386,0.12683 -4.311,0.16426c-1.36087,0.03644 -2.68895,0.05739 -3.987,0.06975c-1.27097,0.01207 -2.51799,0.01605 -4.952,0.01602c-1.19513,-0.00003 -2.39116,0.00049 -3.60338,-0.02701c-1.24484,-0.02827 -2.53828,-0.0836 -3.89363,-0.18901c-1.43715,-0.11177 -2.9744,-0.24693 -6.37801,-0.78401c-1.90791,-0.30107 -3.91928,-0.69684 -6.00862,-1.1295c-2.13977,-0.44307 -4.29028,-0.92435 -6.42038,-1.4265c-2.08316,-0.49106 -4.08653,-0.96776 -7.696,-1.944c-1.56599,-0.42354 -2.96498,-0.83345 -4.21089,-1.23526c-1.12082,-0.36148 -2.12305,-0.7191 -3.01613,-1.08676c-0.81889,-0.33713 -1.57611,-0.66771 -2.89798,-1.42798c-0.63574,-0.36566 -1.23407,-0.76779 -1.80789,-1.17563c-0.55914,-0.3974 -1.08632,-0.80432 -1.58513,-1.20938c-0.47885,-0.38887 -0.92775,-0.76965 -1.73198,-1.49001c-0.36241,-0.3246 -0.69621,-0.63171 -0.99675,-0.9315c-0.28326,-0.28253 -0.54214,-0.56237 -0.76727,-0.8505c-0.21935,-0.28072 -0.43352,-0.56743 -0.73598,-1.21799c-0.15887,-0.34169 -0.2794,-0.71735 -0.39601,-1.11037c-0.12164,-0.40999 -0.22969,-0.84258 -0.34201,-1.29263c-0.1167,-0.4677 -0.22615,-0.95625 -0.51198,-1.972c-0.15042,-0.53452 -0.32597,-1.08112 -0.49388,-1.64925c-0.17317,-0.58586 -0.34451,-1.1921 -0.48712,-1.82475c-0.14696,-0.65195 -0.30829,-1.32946 -0.394,-2.776c-0.04509,-0.76105 -0.02217,-1.54884 0.16086,-2.31075c0.18445,-0.76785 0.54117,-1.5257 1.12613,-2.13525c0.63559,-0.66232 1.54535,-1.32735 4.08801,-1.804c1.60553,-0.30096 3.4688,-0.241 5.46526,-0.10461c2.10698,0.14394 4.2628,0.44741 6.39674,0.88763c2.09041,0.43124 4.14745,0.79022 7.388,2.342c1.33803,0.64074 2.38501,1.45937 3.12073,2.33999c0.66827,0.79989 1.09001,1.70652 1.32527,2.61c0.22983,0.88266 0.28615,1.78968 0.304,3.55c0.00864,0.85332 0.00072,1.69731 -0.03038,2.54362c-0.03172,0.8628 -0.09419,1.75516 -0.21263,2.68538c-0.12584,0.98844 -0.28177,2.05153 -0.88199,4.396c-0.34082,1.33125 -0.78497,2.73233 -1.27577,4.1895c-0.50488,1.49905 -1.05536,3.00293 -1.64023,4.48651c-0.57341,1.45445 -1.12112,2.86226 -2.334,5.32402c-0.52766,1.07094 -1.06213,2.00337 -1.58627,2.808c-0.46802,0.71849 -0.9301,1.32997 -1.38373,1.836c-0.40335,0.44992 -0.78407,0.83957 -1.53,1.356c-0.31628,0.21895 -0.62782,0.37671 -0.91801,0.49611c-0.2645,0.10884 -0.5183,0.18094 -0.756,0.23288c-0.222,0.04852 -0.43581,0.06923 -0.82599,0.14601c-0.18498,0.03639 -0.36256,0.08618 -0.53552,0.1395c-0.17105,0.05272 -0.33919,0.1114 -0.5085,0.1665c-0.17021,0.05539 -0.34142,0.11742 -0.70598,0.194c-0.18971,0.03986 -0.38676,0.06363 -0.58612,0.08212c-0.19966,0.01851 -0.39822,0.02869 -0.59288,0.03487c-0.18858,0.00601 -0.369,0.00749 -0.696,0.00801c-0.14288,0.0002 -0.27298,0 -0.39262,0c-0.11136,0 -0.21674,0 -0.31836,0c-0.10013,0 -0.201,0.00023 -0.414,0c-0.11626,-0.00014 -0.2401,-0.00003 -0.37125,-0.00676c-0.13887,-0.00714 -0.28558,-0.02084 -0.43875,-0.04724c-0.16197,-0.02791 -0.33592,-0.0578 -0.69,-0.196c-0.1944,-0.07588 -0.39816,-0.18254 -0.58275,-0.34988c-0.21033,-0.19069 -0.40541,-0.46878 -0.56926,-0.82912c-0.19659,-0.43231 -0.38576,-0.98021 -0.59799,-2.446c-0.13417,-0.92671 -0.19203,-1.98759 -0.2025,-3.15451c-0.01129,-1.25952 0.04707,-2.59854 0.2025,-3.9915c0.16106,-1.44336 0.32649,-2.94507 1.25,-5.85399c0.46762,-1.47299 1.12085,-2.88809 1.84724,-4.25587c0.72223,-1.35992 1.53519,-2.6513 2.40076,-3.87112c0.84435,-1.18996 1.69365,-2.32674 3.502,-4.248c0.82753,-0.8792 1.66728,-1.6463 2.49976,-2.31525c0.78691,-0.63232 1.58046,-1.1767 2.37825,-1.62675c0.76738,-0.43291 1.53639,-0.82841 3.12199,-1.308c0.7816,-0.2364 1.5847,-0.38152 2.38612,-0.49274c0.79787,-0.11074 1.59778,-0.17239 2.39287,-0.20925c0.78824,-0.03654 1.56897,-0.045 3.09599,-0.048c0.74225,-0.00146 1.46799,0 2.17574,0c0.68826,0 1.35551,0 2.00024,0c0.62076,0 1.216,-0.00027 2.32402,0c0.51038,0.00013 0.99303,-0.0005 1.45012,0.00675c0.43393,0.00688 0.84708,0.01933 1.24089,0.04725c0.37801,0.0268 0.74547,0.05092 1.43401,0.196c0.33604,0.07082 0.65956,0.17139 0.972,0.279c0.30357,0.10455 0.5912,0.2193 0.864,0.333c0.25769,0.10741 0.49434,0.216 0.914,0.388c0.17581,0.07206 0.34369,0.12775 0.468,0.23513c0.13223,0.11422 0.23465,0.30708 0.306,0.56587c0.09311,0.33772 0.15685,0.78957 0.226,2.074c0.04649,0.86356 0.06218,1.87487 0.00787,3.01725c-0.06021,1.26624 -0.20233,2.64614 -0.48488,4.11076c-0.30215,1.56605 -0.64085,3.25761 -2.14799,6.62199c-0.81531,1.82001 -1.91071,3.59723 -3.10275,5.36852c-1.2099,1.79779 -2.52997,3.52571 -3.89925,5.1795c-1.3351,1.61252 -2.644,3.14578 -5.248,5.702c-1.1326,1.11183 -2.21831,2.05426 -3.25575,2.84286c-0.95076,0.72272 -1.88597,1.32445 -2.81024,1.81012c-0.88756,0.4664 -1.79128,0.86728 -3.68401,1.472c-0.98972,0.31621 -2.03311,0.58064 -3.11063,0.84262c-1.10748,0.26926 -2.24812,0.51973 -3.41438,0.76837c-1.18747,0.25317 -2.39622,0.49509 -4.85001,1.01401c-1.24191,0.26263 -2.48947,0.53755 -3.74626,0.80438c-1.2632,0.26819 -2.53351,0.53165 -3.81375,0.77063c-1.28481,0.23981 -2.57454,0.48758 -5.18999,0.79999c-1.31387,0.15695 -2.63937,0.25464 -3.97125,0.32849c-1.33821,0.0742 -2.68489,0.11507 -4.03876,0.13951c-1.36116,0.02458 -2.73001,0.03 -5.48999,0.032c-1.39151,0.00102 -2.79202,0 -4.203,0c-1.42299,0 -2.8595,0 -4.31099,0c-1.468,0 -2.95399,0 -5.98599,0c-1.54776,0 -3.11201,0 -4.68674,0c-1.57925,0 -3.15701,0 -4.72726,0c-1.55676,0 -3.09399,0 -6.08601,0c-1.44437,0 -2.855,0 -4.23563,0c-1.35437,0 -2.68625,0 -3.99937,0c-1.29813,0 -2.58501,0.00038 -5.14001,0c-1.27425,-0.0002 -2.54401,0.00044 -3.80476,-0.01013c-1.24728,-0.01047 -2.47673,-0.02945 -3.68325,-0.07088c-1.18002,-0.0405 -2.33167,-0.07152 -4.51199,-0.29399c-1.03033,-0.10512 -2.01859,-0.25601 -2.96774,-0.43875c-0.92297,-0.17769 -1.8171,-0.39212 -2.68425,-0.64125c-0.85648,-0.24608 -1.70359,-0.51033 -3.34801,-1.17c-0.83012,-0.33301 -1.64497,-0.7067 -2.44801,-1.09012c-0.79099,-0.3777 -1.55408,-0.76524 -2.286,-1.15086c-0.70002,-0.36882 -1.35746,-0.72488 -2.51601,-1.384c-0.49725,-0.2829 -0.93776,-0.54112 -1.32525,-0.77849c-0.34433,-0.21095 -0.64632,-0.40498 -0.90675,-0.58949c-0.23281,-0.16495 -0.44431,-0.31494 -0.76801,-0.63199c-0.14864,-0.1456 -0.28085,-0.30542 -0.38924,-0.48712c-0.11655,-0.19536 -0.21321,-0.43204 -0.29475,-0.70987c-0.09444,-0.32179 -0.17924,-0.70474 -0.31599,-1.67799c-0.08429,-0.59987 -0.15176,-1.26872 -0.22163,-1.98787c-0.07325,-0.75386 -0.13953,-1.5276 -0.20138,-2.3051c-0.06087,-0.76524 -0.11845,-1.50267 -0.202,-2.832c-0.03545,-0.56401 -0.06506,-1.06297 -0.06187,-1.50639c0.00285,-0.3978 0.02988,-0.76262 0.10686,-1.09462c0.07488,-0.32294 0.18317,-0.65015 0.58,-1.27399c0.22897,-0.35995 0.5275,-0.71965 0.85725,-1.09352c0.348,-0.39456 0.73114,-0.78708 1.14075,-1.1745c0.41687,-0.39427 0.84154,-0.78911 1.752,-1.48198c0.44311,-0.3372 0.9019,-0.64235 1.37363,-0.92476c0.47736,-0.28578 0.98203,-0.55171 1.51537,-0.80325c0.55737,-0.26288 1.15299,-0.52379 2.486,-1.02199c0.73405,-0.27435 1.51625,-0.54036 2.33325,-0.80438c0.83898,-0.27113 1.69609,-0.53052 2.56274,-0.77061c0.86141,-0.23865 1.70942,-0.47687 3.354,-0.79999c0.76685,-0.15068 1.50615,-0.25302 2.21738,-0.33525c0.68787,-0.07953 1.36065,-0.13478 2.02162,-0.18675c0.65478,-0.0515 1.31068,-0.08536 2.636,-0.228c0.68235,-0.07344 1.37151,-0.17268 2.06213,-0.27902c0.68639,-0.10567 1.35987,-0.22031 2.01488,-0.33298c0.62974,-0.10835 1.22552,-0.22129 2.298,-0.38802c0.46152,-0.07175 0.87663,-0.12547 1.24988,-0.16425c0.33582,-0.03488 0.64063,-0.05711 0.91912,-0.06976c0.25729,-0.01167 0.499,-0.015 0.956,-0.01601c0.22475,-0.0005 0.448,0 0.66825,0c0.21575,0 0.4255,0 0.62775,0c0.19325,0 0.37601,-0.00014 0.704,0c0.14314,0.00007 0.27503,-0.00019 0.39938,0.00338c0.12067,0.00346 0.24142,0.01048 0.36562,0.02361c0.1321,0.01399 0.27578,0.03288 0.61,0.09801c0.19849,0.03867 0.41434,0.08758 0.6435,0.14288c0.23887,0.05764 0.48206,0.12075 0.72449,0.19012c0.23907,0.06841 0.4725,0.13103 0.882,0.29202c0.17861,0.07021 0.33637,0.14615 0.468,0.23511c0.12238,0.08273 0.22696,0.18124 0.306,0.29588c0.08101,0.11748 0.15072,0.25684 0.226,0.59401c0.04385,0.19643 0.06413,0.41678 0.0855,0.65363c0.02276,0.25217 0.03908,0.51828 0.05849,0.79536c0.02007,0.28615 0.03419,0.58011 0.106,1.17601c0.03631,0.30138 0.08765,0.60643 0.14625,0.92023c0.06129,0.32823 0.13423,0.67369 0.21375,1.04176c0.08543,0.39542 0.18243,0.82149 0.39,1.78801c0.11725,0.54596 0.23877,1.12964 0.36113,1.74373c0.1267,0.63588 0.25116,1.287 0.36787,1.94626c0.11652,0.65823 0.23492,1.30786 0.396,2.56001c0.0752,0.58458 0.12659,1.14365 0.16425,1.6785c0.03615,0.5132 0.05738,1.00893 0.06976,1.4895c0.01205,0.46843 0.01511,0.92798 0.016,1.832c0.00043,0.44962 0.00016,0.89702 -0.00337,1.33986c-0.00348,0.43614 -0.00974,0.86334 -0.02363,1.27913c-0.01344,0.40248 -0.02254,0.79036 -0.098,1.50601c-0.03453,0.3275 -0.08511,0.63475 -0.14288,0.92473c-0.0554,0.27803 -0.19209,0.80269 -0.48212,1.82527c-0.22993,0.81067 -0.40089,1.66289 -0.875,2.625c-0.31572,0.64069 -0.88774,1.29152 -1.464,2.049c-0.4357,0.57271 -1.21906,1.22429 -1.918,1.466c-0.93702,0.32405 -1.9065,0.61551 -2.743,0.235c-0.76828,-0.3495 -1.09703,-0.96544 -1.36,-1.72c-0.35001,-1.0043 -0.45708,-2.38829 -0.508,-3.16412c-0.05363,-0.81725 -0.07626,-1.66269 -0.081,-2.51888c-0.00471,-0.85162 -0.00195,-1.68379 0.07401,-3.222c0.03358,-0.68007 0.07677,-1.29886 0.153,-1.85739c0.13303,-0.97473 0.28703,-1.82541 0.847,-2.76761c0.36012,-0.60594 1.12556,-1.34262 1.69225,-1.68962c1.01823,-0.62349 1.78624,-0.78836 2.60374,-0.80739c1.04097,-0.02423 1.88612,0.53403 2.18301,1.21001c0.29226,0.66542 0.41985,1.65994 0.518,2.93401c0.05585,0.72508 0.0779,1.49388 0.09676,2.29051c0.01921,0.81139 0.02634,1.62448 0.02925,2.42549c0.00549,1.51198 0.002,2.19887 0.002,2.83701c0,1.145 0,1.65939 0,2.59062c0,1.20938 0,1.93138 0,2.92813c0,0.6245 0,1.83124 0,2.73125c0,0.60002 0,1.8 0,2.69325c0,0.85274 0,1.85675 0,2.64473c0,0.946 0.01188,1.8371 0,2.593c-0.01563,0.99437 -0.41129,1.7466 -1.01387,2.3795c-0.65495,0.68791 -1.35046,1.25836 -2.00175,1.6145c-0.87096,0.47626 -1.58195,0.75803 -2.35938,1.75c-0.44294,0.5652 -0.83547,1.35718 -1.07813,1.79688c-0.26447,0.47923 -0.84937,1.56961 -1.54688,2.82814c-0.38686,0.698 -0.80423,1.43344 -1.24313,2.20386c-0.45607,0.80058 -0.92883,1.62422 -1.41187,2.46713c-0.49072,0.85632 -0.98837,1.7191 -1.97,3.45399c-0.48479,0.8568 -0.95683,1.70099 -1.41187,2.52675c-0.4399,0.79828 -0.85658,1.56551 -1.24313,2.29726c-0.36203,0.68535 -0.70262,1.31561 -1.22,2.42599c-0.21046,0.45171 -0.37366,0.84726 -0.49274,1.19249c-0.10186,0.29529 -0.21163,1.18883 -0.264,2.14699c-0.04501,0.82356 -0.43124,1.76236 -0.85526,2.40053c-0.6012,0.9048 -0.638,1.75198 -0.638,2.56697c0,0.96614 0,1.88301 0,2.53801c0,0.655 0,1.85204 0,2.864c0,0.916 0.02752,1.60739 -0.054,2.37401c-0.13818,1.29945 -0.36554,2.09492 -0.592,2.95999c-0.11581,0.44238 -0.34904,1.31219 -0.729,2.457c-0.28947,0.87224 -0.60799,1.52571 -0.78413,2.60788c-0.13094,0.80446 -0.12144,1.46989 -0.21786,2.23912c-0.17702,1.4122 -0.29678,1.94682 -0.40875,2.51065c-0.23656,1.19107 -0.3763,1.80429 -0.521,2.42348c-0.43151,1.84665 -0.59341,2.43652 -0.74126,3.01587c-0.28679,1.12381 -0.43364,1.66888 -0.66624,2.74626c-0.11409,0.52841 -0.30848,1.57933 -0.40775,2.62674c-0.09603,1.01315 -0.10635,1.50166 -0.12125,2.41563c-0.01897,1.16423 0.00856,2.04605 -0.03374,2.81137c-0.06801,1.23003 -0.18449,2.05844 -0.24426,2.52176c-0.12749,0.98848 -0.18621,1.50154 -0.39375,2.50624c-0.2879,1.39365 -0.56208,2.17508 -0.81937,2.85625c-0.32719,0.86618 -0.69485,1.7597 -0.75887,2.63701c-0.06647,0.9111 -0.00675,1.78474 -0.00675,2.68176c0,0.75937 0,1.89999 0,2.72803c0,0.79657 0,1.62598 0,2.52399c0,0.78864 0,1.61099 0,2.65701c0,0.90393 0,1.892 0,2.71994c0,0.89999 0.00003,1.80231 0,2.44873c-0.00005,1.24045 0.01105,2.06836 -0.04288,2.89413c-0.06071,0.92978 -0.16758,1.64148 -0.27612,2.40213c-0.1627,1.14017 -0.328,2.14899 -0.38811,2.92612c-0.06616,0.85541 0.23476,1.95819 -0.23489,2.57489c-0.53947,0.7084 -1.47514,0.72656 -2.47987,0.89999c-0.94727,0.16351 -1.88317,0.26324 -2.60938,0.39063c-0.75787,0.13293 -1.84776,0.34357 -2.76849,0.58438c-0.80701,0.21112 -1.82578,0.52313 -2.37325,0.67905c-0.9842,0.28015 -1.38091,0.39508 -2.304,0.702c-1.15174,0.38293 -1.8182,0.63202 -2.546,0.89801c-0.77824,0.28442 -1.59586,0.58835 -2.44576,0.90225c-0.87212,0.32211 -1.75684,0.64972 -2.64825,0.96976c-1.75573,0.63037 -2.60871,0.91949 -3.441,1.19598c-0.81249,0.26993 -1.61042,0.52582 -2.39513,0.77176c-0.77231,0.24197 -1.53646,0.4754 -2.29387,0.70419c-1.50243,0.45395 -2.25254,0.67679 -2.999,0.901c-0.74054,0.2225 -1.47211,0.44269 -2.1915,0.66037c-0.70461,0.21332 -1.39131,0.42172 -2.0565,0.62668c-1.2566,0.38702 -1.84225,0.57138 -2.402,0.75101c-1.06296,0.341 -1.57389,0.50964 -2.57625,0.85251c-0.50232,0.17181 -2.05928,0.7258 -2.59875,0.92148c-0.54128,0.19632 -1.6005,0.5838 -2.106,0.76602c-0.92631,0.33389 -2.31029,0.6813 -3.07438,1.00574c-0.77417,0.3287 -1.47042,0.98029 -2.37362,1.34225c-0.71157,0.28519 -1.2943,0.93826 -1.625,2c-0.17356,0.55719 -0.36606,1.5022 -0.525,2.1315c-0.28395,1.12427 -0.67687,1.92221 -0.88387,2.89398c-0.13882,0.65164 -0.09113,1.84952 -0.09113,2.50052c0,0.71698 -0.00798,1.79816 0,2.724c0.00781,0.90634 0.64506,1.45999 1.328,2.017c0.6078,0.4957 1.22426,1.16074 1.89675,1.83273c0.65951,0.65903 1.08061,1.06201 1.91825,1.9184c0.6018,0.61526 1.26244,1.43097 1.611,1.87198c0.55553,0.70285 1.22166,1.52042 1.93,1.97989c0.71516,0.46396 1.44397,1.00128 2.09463,1.52249c0.52064,0.41705 1.10625,0.8743 1.97137,1.73251c0.61615,0.61124 1.19975,1.30014 1.746,2.043c0.27634,0.37579 1.0251,1.57169 1.425,2.41599c0.3877,0.81851 0.67431,1.61868 0.963,2.32202c0.43357,1.0563 0.85439,1.72348 1.1555,2.5369c0.32184,0.86935 0.62244,1.57642 1.0855,2.68213c0.20001,0.4776 0.6434,1.57825 0.874,2.18399c0.23877,0.62723 0.47298,1.26999 0.68962,1.92151c0.21431,0.64453 0.70724,2.47797 0.80838,3.03751c0.18758,1.03781 0.21016,1.53314 0.36813,2.45062c0.22185,1.28851 0.50323,2.09735 0.84187,2.84738c0.31692,0.7019 1.0215,1.77585 1.212,2.54898c0.17803,0.72247 0.081,1.58127 0.081,2.32877c0,0.83749 0,1.70499 0,2.93124c0,1.00012 0,1.79099 0,2.625c0,0.85938 0,1.92401 0,2.63211c0,0.98889 0,1.82889 0,2.52414c0,1.03275 0,1.96875 0,3.12375c0,0.63937 0,1.30499 0,1.98563c0,0.68439 -0.00014,2.01938 0,3.23438c0.00006,0.53726 -0.00897,1.47852 0.01563,2.28125c0.03221,1.05136 0.14224,2.06061 0.24887,2.74814c0.15471,0.9975 0.34659,1.58142 0.4585,2.7876c0.08079,0.8707 0.02662,1.884 0.027,2.62006c0.0005,0.96295 0.05238,1.73047 0.2645,2.70645c0.15788,0.72644 0.39782,1.82544 0.6635,2.01456c0.54972,0.39114 1.72435,0.80438 3.58762,1.46701c2.75084,0.97824 6.60257,2.24341 11.72138,3.89694c14.75103,4.76529 24.68401,7.88284 36.064,11.47601c12.47311,3.93832 25.68509,8.09207 39.27713,12.34573c13.60696,4.25833 26.87178,8.4007 39.44588,12.27826c21.59164,6.65839 29.99692,9.18533 36.80501,11.17398c5.36897,1.56827 9.48811,2.73105 12.54599,3.48526c2.14143,0.52817 3.56769,0.88187 4.446,0.85275c0.81465,-0.02701 1.05858,-0.24496 1.289,-0.37201c0.22081,-0.12173 0.42557,-0.25513 0.62437,-0.38699c0.1962,-0.13013 0.38785,-0.26602 0.59062,-0.38699c0.41832,-0.24957 0.65541,-0.35141 0.903,-0.44901c0.25594,-0.10086 0.52516,-0.18973 0.80324,-0.27338c0.28395,-0.08542 0.57516,-0.16357 0.87077,-0.23962c0.59731,-0.15369 0.89783,-0.22562 1.196,-0.30099c0.29532,-0.07465 0.58623,-0.14905 0.87073,-0.22501c0.27751,-0.07407 0.54631,-0.14731 0.80325,-0.22501c0.47954,-0.14499 0.69626,-0.22379 0.901,-0.29898c0.19501,-0.07162 0.3806,-0.14407 0.56137,-0.21039c0.17624,-0.06467 0.3503,-0.12775 0.52762,-0.17661c0.36032,-0.09927 0.55359,-0.1261 0.75098,-0.15002c0.20114,-0.02438 0.40591,-0.03885 0.61201,-0.04837c0.20592,-0.00949 0.41048,-0.01315 0.612,-0.01462c0.388,-0.00281 0.57274,0.00201 0.75499,-0.00601c0.18558,-0.00818 0.38034,-0.02832 0.58612,-0.07312c0.2276,-0.04956 0.47945,-0.12692 0.75487,-0.24188c0.67683,-0.28247 1.06479,-0.50708 1.496,-0.746c0.46318,-0.25662 0.94333,-0.53641 1.43657,-0.82462c0.49771,-0.2908 0.98862,-0.58279 1.47046,-0.85837c0.88574,-0.50662 1.28107,-0.71628 1.64502,-0.89401c0.33081,-0.16159 0.63971,-0.29703 0.93149,-0.40387c0.27249,-0.09979 0.53665,-0.17984 0.79651,-0.23511c0.51285,-0.10907 0.78226,-0.12845 1.05701,-0.15701c0.28351,-0.02948 0.57733,-0.05505 0.88086,-0.09225c0.31552,-0.03867 0.64432,-0.08405 0.98212,-0.15976c0.7261,-0.16275 1.10547,-0.30392 1.50702,-0.44998c0.42807,-0.1557 0.88098,-0.33469 1.37024,-0.51526c0.52469,-0.19363 1.08984,-0.3978 1.70776,-0.58273c1.37833,-0.41251 2.16226,-0.57565 2.98599,-0.74701c0.85129,-0.17709 1.71991,-0.33749 2.58749,-0.49838c0.85242,-0.15808 1.67691,-0.30283 2.45251,-0.46463c1.36353,-0.28439 1.92014,-0.44 2.39301,-0.59998c0.40912,-0.13837 0.75467,-0.28561 1.04507,-0.43539c0.25632,-0.13217 0.47403,-0.27307 0.67389,-0.40161c0.37262,-0.23956 0.56204,-0.35193 0.76199,-0.44901c0.20187,-0.09802 0.41159,-0.1839 0.62662,-0.25876c0.21603,-0.07523 0.43643,-0.14056 0.66037,-0.19125c0.44662,-0.10104 0.67355,-0.12677 0.89801,-0.151c0.22232,-0.02399 0.4429,-0.03879 0.66037,-0.04837c0.21356,-0.0094 0.42276,-0.01312 0.62668,-0.01462c0.38898,-0.00278 0.57382,0.00198 0.75699,-0.00601c0.18793,-0.00818 0.38721,-0.02863 0.60074,-0.07312c0.23883,-0.04971 0.50623,-0.1275 0.80325,-0.24188c0.73657,-0.2836 1.16656,-0.50693 1.64398,-0.74594c0.51224,-0.25647 1.04279,-0.53552 1.58395,-0.82468c0.54282,-0.28992 1.07364,-0.5795 1.58398,-0.85837c0.91623,-0.50058 1.30267,-0.71286 1.64499,-0.89499c0.30203,-0.16071 0.57178,-0.30057 0.81787,-0.41852c0.22507,-0.10785 0.43863,-0.20319 0.64914,-0.28351c0.42584,-0.16248 0.66202,-0.22992 0.914,-0.30798c0.2742,-0.08496 0.57553,-0.17627 0.90561,-0.28351c0.36499,-0.11856 0.76807,-0.25424 1.20938,-0.41849c1.02917,-0.38297 1.61279,-0.63052 2.23901,-0.896c0.65683,-0.27844 1.32861,-0.5726 2.00473,-0.87302c0.66986,-0.29764 1.31952,-0.59088 1.93726,-0.87302c1.09491,-0.5 1.54968,-0.71213 1.94699,-0.89801c0.34991,-0.1637 0.66138,-0.31134 0.94388,-0.44772c0.26443,-0.12762 0.51944,-0.25311 0.77524,-0.38025c0.55341,-0.27518 0.86688,-0.43353 1.207,-0.60199c0.36038,-0.17859 0.73718,-0.36343 1.12723,-0.54901c0.39606,-0.18848 0.79459,-0.37537 1.19473,-0.54901c0.77045,-0.33438 1.14035,-0.47177 1.49402,-0.59799c0.33649,-0.12012 0.65958,-0.22531 0.9675,-0.32175c0.29202,-0.09149 0.5705,-0.17294 0.83252,-0.25424c0.48087,-0.14917 0.69879,-0.2244 0.90198,-0.30301c0.19327,-0.07477 0.37552,-0.15393 0.54675,-0.23962c0.16675,-0.08344 0.32718,-0.17313 0.47925,-0.27338c0.30759,-0.20279 0.45328,-0.32529 0.60101,-0.44901c0.14905,-0.12485 0.29376,-0.25507 0.43527,-0.38699c0.13959,-0.1301 0.27322,-0.26004 0.40164,-0.38699c0.23984,-0.23712 0.34775,-0.34741 0.45206,-0.45001c0.10043,-0.09888 0.20007,-0.19492 0.30255,-0.28799c0.10452,-0.09494 0.21536,-0.19119 0.33649,-0.28799c0.26993,-0.21588 0.42923,-0.32898 0.599,-0.44901c0.17719,-0.12524 0.36105,-0.25034 0.54898,-0.37238c0.18616,-0.12094 0.36908,-0.23657 0.54901,-0.33862c0.32263,-0.18301 0.4686,-0.24619 0.60001,-0.30301c0.12161,-0.05258 0.23944,-0.09903 0.35098,-0.15524c0.11453,-0.05774 0.23361,-0.1275 0.35098,-0.22275c0.28595,-0.23199 0.43323,-0.4082 0.60004,-0.599c0.18036,-0.2063 0.36292,-0.43027 0.54898,-0.66263c0.18793,-0.23465 0.37061,-0.46954 0.54901,-0.69638c0.32526,-0.41357 0.46863,-0.58994 0.59796,-0.74799c0.11716,-0.14319 0.2254,-0.27383 0.32175,-0.39938c0.09161,-0.11957 0.17862,-0.23871 0.25427,-0.36563c0.16089,-0.26987 0.229,-0.43103 0.30093,-0.60098c0.07492,-0.17706 0.14465,-0.36142 0.21036,-0.54901c0.06531,-0.18643 0.12521,-0.37027 0.1767,-0.54901c0.09338,-0.32474 0.12341,-0.46881 0.15198,-0.599c0.02618,-0.11954 0.04874,-0.2316 0.07761,-0.33636c0.02826,-0.1022 0.06143,-0.20422 0.11142,-0.30261c0.11142,-0.2193 0.2034,-0.33023 0.29901,-0.45102c0.10132,-0.12787 0.21201,-0.25595 0.32394,-0.38693c0.11203,-0.13101 0.22403,-0.25815 0.32404,-0.38699c0.18152,-0.23383 0.24817,-0.34494 0.298,-0.45102c0.04648,-0.099 0.07791,-0.20023 0.09674,-0.30261c0.01926,-0.10471 0.02646,-0.21664 0.02927,-0.33633c0.00641,-0.27295 0.00198,-0.43002 0.00198,-0.599c0,-0.17801 0,-0.362 0,-0.54901c0,-0.18701 0,-0.371 0,-0.54901c0,-0.32599 0,-1.06403 0,-1.90601c0,-0.84003 0,-1.91998 0,-2.86725c0,-0.64648 0,-1.54877 0,-2.60623c0,-0.8475 0,-1.80954 0,-2.58353c0,-0.92752 0,-1.772 0,-2.57001c0,-0.85715 0,-1.927 0,-2.694c0,-0.76105 0,-1.80054 0,-2.66c0,-0.922 0.03934,-1.84354 0,-2.814c-0.03201,-0.78998 -0.35382,-1.56195 -0.61417,-2.27136c-0.40274,-1.09763 -0.71317,-2.10925 -0.8898,-2.67639c-0.18533,-0.59482 -0.37387,-1.20764 -0.742,-2.44699c-0.17938,-0.60385 -0.50964,-1.7287 -0.77499,-2.69421c-0.22171,-0.80673 -0.49835,-1.77277 -0.63791,-2.754c-0.1106,-0.77783 -0.08258,-1.7821 -0.09445,-2.52118c-0.01376,-0.85403 -0.02826,-1.48087 -0.21164,-2.82983c-0.10205,-0.75064 -0.26862,-1.57428 -0.35623,-2.02374c-0.29898,-1.5332 -0.42038,-2.11185 -0.54077,-2.72025c-0.25049,-1.26575 -0.37381,-1.90552 -0.492,-2.53802c-0.11502,-0.61551 -0.4068,-2.27255 -0.51898,-3.14999c-0.08963,-0.70096 -0.11377,-1.5177 -0.34,-2.48898c-0.17935,-0.77005 -0.43427,-1.75845 -0.49414,-2.76465c-0.0434,-0.72894 -0.02264,-1.44467 -0.043,-2.61499c-0.01471,-0.84467 -0.21255,-1.71307 -0.40613,-2.34912c-0.25568,-0.84021 -0.58218,-1.92065 -0.83325,-2.75412c-0.25787,-0.85605 -0.44473,-1.69711 -0.8855,-2.65213c-0.34106,-0.73901 -1.00458,-1.35205 -1.298,-2.19501c-0.32501,-0.93369 -0.29169,-1.8074 -0.35825,-2.52374c-0.06329,-0.68118 -0.39334,-2.02289 -0.50113,-2.43213c-0.22812,-0.86612 -0.47647,-1.746 -0.84262,-2.97412c-0.20715,-0.69485 -0.50183,-1.55466 -0.66,-2.29599c-0.19144,-0.89734 -0.211,-1.83099 -0.215,-2.82901c-0.00336,-0.83813 0,-1.48438 0,-2.23563c0,-1.38937 0,-1.93512 0,-3.11963c0,-0.61774 0,-1.23849 0,-2.44699c0,-0.56677 0,-1.99377 0,-2.67975c0,-0.91602 -0.21738,-2.05643 0.16687,-2.87726c0.2984,-0.6376 1.32953,-1.14673 2.01315,-1.55475c0.79587,-0.47501 1.22061,-0.72119 2.09375,-1.1925c1.2186,-0.65781 1.9111,-1.00104 2.52625,-1.22949c0.79276,-0.29443 1.84131,-0.44885 2.69299,-0.52802c0.61893,-0.05753 2.00861,-0.25391 2.80795,-0.44098c0.46338,-0.10843 0.98462,-0.25046 2.28598,-0.54001c0.80447,-0.17899 1.73386,-0.37799 4.03806,-0.78c1.39127,-0.24274 2.9245,-0.47833 4.56189,-0.72565c1.70761,-0.25784 3.45349,-0.51038 5.20306,-0.7594c1.71921,-0.24469 3.37509,-0.47455 6.36005,-0.88995c1.27142,-0.17694 2.40158,-0.33313 3.41214,-0.48489c0.91638,-0.1376 1.76099,-0.27396 2.55487,-0.4241c0.77084,-0.14581 1.54129,-0.30197 3.15799,-0.716c0.89642,-0.22958 1.84256,-0.50006 2.83051,-0.78302c1.01608,-0.29102 2.04422,-0.59296 3.07352,-0.89099c1.01523,-0.29395 1.99982,-0.58957 3.84598,-1.07599c0.83032,-0.21878 1.61737,-0.4025 2.37488,-0.58725c0.7515,-0.18329 1.51794,-0.37366 2.31415,-0.60077c0.8548,-0.24384 1.78934,-0.51938 3.93597,-1.31198c1.27036,-0.46906 2.64471,-1.03052 4.11301,-1.64365c1.54587,-0.64554 3.13931,-1.33551 4.76102,-2.05536c1.63538,-0.72589 3.26169,-1.45279 6.37604,-2.92599c1.46588,-0.69342 2.85071,-1.37265 4.15573,-2.02951c1.23077,-0.61948 2.37848,-1.215 3.44025,-1.7865c0.98352,-0.52939 1.88818,-1.01563 3.40402,-1.93399c0.63672,-0.38577 1.18588,-0.74835 1.66046,-1.08224c0.41907,-0.29483 0.77948,-0.57092 1.09354,-0.82578c0.28278,-0.22949 0.53021,-0.45248 0.996,-0.84198c0.22281,-0.18631 0.44818,-0.36154 0.66486,-0.53888c0.21228,-0.17374 0.41812,-0.34677 0.60419,-0.53214c0.18222,-0.18161 0.37146,-0.36215 0.60602,-0.80399c0.11865,-0.2236 0.19086,-0.47314 0.24637,-0.72565c0.05554,-0.25278 0.086,-0.50836 0.10458,-0.7594c0.01804,-0.24283 0.02246,-0.47501 0.02405,-0.88995c0.00064,-0.17712 0,-0.33704 0,-0.48489c0,-0.14111 0,-0.28073 0,-0.4241c0,-0.15237 0,-0.319 0,-0.716c0,-0.23938 0,-0.505 0,-0.79312c0,-0.30688 0,-0.62875 0,-0.96188c0,-0.34064 0.00064,-0.685 0,-1.37c-0.0004,-0.33463 0.00366,-0.66745 -0.01694,-1.00238c-0.04306,-0.70209 -0.14636,-1.49255 -0.60806,-2.87262c-0.18503,-0.55307 -0.42822,-1.13321 -0.98602,-2.35602c-0.28815,-0.63165 -0.59506,-1.25446 -0.90225,-1.86411c-0.29694,-0.58932 -1.09607,-2.12733 -1.56485,-2.90475c-0.39178,-0.64972 -0.75818,-1.21463 -1.65402,-2.10025c-0.48007,-0.47458 -1.05258,-0.89435 -1.85587,-1.6389c-0.8157,-0.75603 -1.29993,-1.31801 -1.75574,-1.88599c-0.44409,-0.55336 -1.21347,-1.63513 -1.56677,-2.13214c-0.50592,-0.7117 -1.20352,-1.62766 -1.80399,-2.28949c-0.40326,-0.44444 -1.02231,-1.06462 -1.77151,-1.81438c-0.65579,-0.65622 -1.41412,-1.41414 -1.87198,-1.87201c-0.65604,-0.65601 -1.40216,-1.40894 -1.819,-1.81099c-0.64551,-0.62265 -1.54288,-1.39642 -2.21503,-1.90401c-0.6355,-0.47986 -1.43112,-1.06105 -2.07672,-1.66139c-0.6716,-0.6245 -1.28885,-1.21515 -1.73163,-1.50162c-1.03177,-0.66754 -1.53195,-0.92502 -2.68652,-1.56488c-0.64133,-0.35542 -1.31479,-0.71745 -2.00812,-1.08113c-0.698,-0.36609 -1.38791,-0.73169 -2.73001,-1.36801c-0.616,-0.29201 -1.19583,-0.56003 -2.27402,-0.976c-0.48859,-0.18849 -1.388,-0.51999 -2.60098,-0.774c-0.71588,-0.14992 -1.70563,-0.21022 -2.58398,-0.312c-1.05374,-0.1221 -1.73856,-0.33456 -2.66602,-0.563c-0.84338,-0.20772 -1.63614,-0.69823 -2.54404,-1.02599c-0.77121,-0.27844 -1.40509,-0.40614 -2.45596,-0.72401c-0.78049,-0.23604 -1.61569,-0.51622 -2.46597,-0.918c-0.44733,-0.21138 -1.79181,-1.07236 -2.23364,-1.43712c-0.4556,-0.3761 -1.33026,-1.21916 -1.75351,-1.66052c-0.41974,-0.4377 -1.2012,-1.31165 -1.92188,-2.10938c-0.62781,-0.6949 -1.17291,-1.28093 -1.85419,-1.97575c-0.65881,-0.67203 -1.24973,-1.24863 -1.88486,-2.10123c-0.41345,-0.55502 -0.84769,-1.15251 -1.57922,-2.08351c-0.52881,-0.67294 -0.9003,-1.40062 -1.04117,-2.21451c-0.17218,-0.99507 -0.39999,-1.88704 -0.89063,-2.75c-0.35565,-0.62564 -0.82745,-1.41406 -1.13998,-2.12399c-0.38159,-0.86684 -0.74979,-1.94107 -0.94614,-2.52751c-0.20273,-0.60553 -0.40115,-1.2226 -0.78149,-2.44698c-0.1817,-0.58508 -0.50275,-1.65295 -0.77936,-2.52751c-0.3165,-1.0007 -0.57153,-1.72983 -0.94965,-2.65277c-0.39868,-0.97319 -0.53561,-1.71236 -0.75238,-2.44925c-0.28152,-0.95703 -0.50256,-1.43854 -0.73312,-2.05063c-0.28217,-0.74901 -1.04184,-2.72177 -1.52786,-3.97099c-0.54379,-1.39783 -1.13333,-2.9034 -1.75494,-4.47638c-0.63336,-1.60277 -1.267,-3.1942 -1.88998,-4.73288c-0.58722,-1.45026 -1.61316,-3.91913 -2.03375,-4.86525c-0.3407,-0.76636 -0.62711,-1.37 -0.86627,-1.83487c-0.1846,-0.3588 -0.34052,-0.62668 -0.46124,-0.83588c-0.09918,-0.17189 -0.26361,-0.50342 -0.33362,-0.71051c-0.07971,-0.23581 -0.14993,-0.50148 -0.21713,-0.78862c-0.07071,-0.30211 -0.13361,-0.61653 -0.19012,-0.93712c-0.05649,-0.32042 -0.19128,-1.51613 -0.26785,-2.272c-0.10623,-1.04895 -0.38879,-1.71399 -0.65903,-2.65601c-0.2092,-0.72926 -0.35696,-1.55119 -0.62997,-2.29387c-0.24338,-0.66203 -0.7825,-1.94351 -1,-2.44902c-0.46481,-1.08038 -0.71005,-1.63278 -0.95398,-2.18199c-0.46628,-1.04979 -0.88202,-1.96599 -1.35004,-2.98749l-0.306,-0.6705l-0.332,-0.964"/> </g> </svg>