 <svg width="640" height="480" xmlns="http://www.w3.org/2000/svg" xmlns:svg="http://www.w3.org/2000/svg"> <!-- Created with SVG-edit - http://svg-edit.googlecode.com/ --> <g> <title>Layer 1</title> <path d="m171.68335,127c0,3.602661 0,4.541672 0,5.21434c0,1.118988 0,1.954987 0,2.847c0,0.923996 0,1.390488 0,2.771988c0,0.882675 0,1.741333 0,2.59201c0,0.427322 -0.003891,1.741348 0.001328,2.658661c0.005356,0.94136 0.00032,1.416931 0.055832,2.363327c0.081421,1.387939 0.223984,2.269135 0.295502,2.700012c0.141693,0.853622 0.328918,1.700928 0.480667,3.019333c0.105148,0.913574 0.119324,1.381165 0.145844,2.3125c0.025925,0.910767 0.020828,2.1875 0.020828,2.950165c0,0.698669 0,1.661667 0,2.570663c0,0.899994 -0.001007,1.800003 0,2.399994c0.001999,1.198669 -0.045349,2.111755 0.255997,2.914673c0.304337,0.810883 1.041443,1.439667 1.468002,1.91066c0.818939,0.904251 1.160217,1.715012 1.244003,2.513336c0.096924,0.923492 0.031998,1.876007 0.031998,2.745331c0,0.863342 -0.09671,1.76387 0.001328,2.716003c0.083664,0.812622 0.798859,1.452606 0.977844,2.300003c0.18605,0.880798 0.020828,1.800003 0.020828,2.699997c0,0.900177 -0.096619,1.691483 0.010666,2.61467c0.111481,0.959305 0.916031,1.469635 0.989334,2.384003c0.06839,0.85318 0.440338,1.491837 1,2.280502c0.473404,0.667114 0.846237,1.416626 1.166672,2.354156c0.241058,0.705307 0.762253,1.482956 0.822662,2.341339c0.065994,0.937744 -0.212387,1.914307 0.231995,2.70433c0.427444,0.759918 0.756683,1.417877 0.77417,2.177338c0.023529,1.021744 -0.108231,1.935074 0.171173,2.776993c0.280609,0.845566 0.78183,1.647842 0.822662,2.341339c0.063049,1.070862 0.010666,1.992004 0.010666,2.804504c0,0.910995 0,1.725327 0,2.620834c0,0.963989 0,1.846664 0,2.721161c0,0.817505 -0.215515,1.968689 0.333328,2.678833c0.401169,0.519073 1.618881,0.577927 2.305008,1.052673c0.661545,0.457748 1.07869,1.236008 1.713501,1.647324c0.901489,0.584106 1.37059,1.188797 2.148163,1.779175c0.738235,0.560516 1.69104,0.82019 2.257172,1.225327c0.875595,0.626587 1.649261,1.047226 2.000168,1.838165c0.297501,0.670547 0.267349,1.779343 0.810654,2.485336c0.473526,0.615311 1.432465,1.162888 2.136505,1.619339c0.787842,0.510788 1.499847,0.82399 2.12883,1.519333c0.481735,0.532562 1.03096,1.198212 1.924179,1.712158c0.754562,0.434174 1.326111,0.807663 2.002487,1.342499c0.937485,0.741302 1.43309,1.369125 1.818665,1.942673c0.633621,0.94252 1.142136,1.511688 1.721344,2.140503c0.519226,0.563705 1.140625,1.498917 1.414658,2.211502c0.353394,0.918976 0.960785,1.403549 1.685333,1.919998c0.78569,0.560028 1.210297,1.197357 2.082672,1.481323c0.789352,0.256943 1.183792,1.065491 1.684006,1.749344c0.448013,0.612488 1.403397,0.976181 2.033325,1.531998c0.765717,0.675629 1.5,0.854004 2.300003,1.301331c0.800003,0.447327 1.678329,0.823273 2.314331,1.204498c0.921799,0.552536 1.697266,0.768631 2.417664,1.095505c0.812881,0.368851 1.493851,0.919662 2.42067,1.147324c0.848862,0.208511 1.728638,0.469986 2.44751,1.152847c0.549408,0.521881 1.221161,1.221161 1.725159,1.725159c0.690674,0.690674 1.234116,1.366348 1.984497,1.870163c0.899033,0.603622 1.701874,0.77739 2.422165,1.104507c0.811661,0.368622 1.582748,0.872971 2.368011,1.225327c0.820435,0.368134 1.422104,1.175568 2.099991,1.617508c0.733917,0.47847 1.536377,0.860443 2.466675,1.190491c0.797302,0.282852 1.811829,0.166672 2.528824,0.166672c0.90451,0 1.839233,-0.052872 2.604507,0.352661c0.846039,0.448334 1.585327,0.646667 2.52533,0.647339c1.007996,0.000732 1.800003,0 2.658661,0c0.863342,0 1.763336,0 2.682678,0c0.833328,0 2.05014,-0.346222 2.666656,0.333344c0.465317,0.512909 0.727554,1.562073 1.423996,1.645325c0.903137,0.107971 1.695343,0.021332 2.517334,0.021332c1.058685,0 2.036011,0.155182 2.738678,-0.170654c0.988037,-0.45813 1.24408,-1.322784 2.08667,-1.844025c0.776978,-0.480652 1.542969,-1.029953 2.246674,-1.374649c0.597382,-0.292618 1.836273,-0.524185 2.632477,-0.610672c0.75174,-0.08165 1.742615,-0.311295 2.318176,-0.801331c0.754486,-0.642365 1.324066,-1.506241 2.002655,-1.91333c0.735962,-0.441498 1.554535,-0.838669 2.366669,-1.118668c0.819214,-0.28244 1.835846,-0.113525 2.622681,-0.177338c1.052155,-0.085327 1.723419,-0.51767 2.377319,-1.156006c0.661194,-0.645447 1.154602,-1.160446 1.727997,-2.076157c0.464417,-0.741669 1.236542,-1.121307 1.862518,-1.85701c0.544373,-0.639801 1.214569,-1.111862 1.842834,-1.474823c0.845642,-0.488556 1.414978,-1.110733 2.261322,-1.400009c0.937561,-0.32045 1.677917,-0.5009 2.085999,-1.325333c0.427032,-0.862732 0.811798,-1.423416 1.348175,-2.352661c0.388245,-0.672653 0.424927,-1.779388 1.057159,-2.290176c0.709747,-0.573395 1.509491,-0.804291 2.036682,-1.457153c0.601746,-0.745163 0.728485,-1.81395 1.315155,-2.242844c0.75946,-0.555206 1.328247,-1.151825 2.005341,-1.652664c0.586823,-0.434082 1.723602,-0.357758 2.585663,-0.713501c0.772827,-0.318924 0.652283,-1.38533 1.057159,-2.233826c0.38623,-0.809433 0.667786,-1.56958 1.508667,-2.1465c0.60379,-0.414261 1.553772,-0.656815 2.164001,-1.185333c0.648682,-0.561829 1.307159,-1.262283 1.995514,-1.425339c0.956299,-0.226532 1.423615,-0.82164 2.004486,-1.563995c0.487457,-0.622971 0.933197,-1.270523 0.979156,-2.145844c0.042542,-0.81041 0.430878,-1.654724 1.095337,-2.390167c0.54248,-0.600449 0.838165,-1.457672 1.510834,-1.925323c0.722839,-0.502518 1.178345,-1.228302 1.610687,-2.074677c0.334717,-0.655304 0.77951,-1.511826 1.131317,-2.209c0.340088,-0.67392 0.555298,-1.708298 0.708679,-2.476334c0.212036,-1.061752 0.617432,-1.77832 1.123993,-2.367996c0.612091,-0.712494 1.476685,-1.235825 1.757507,-2.146667c0.265717,-0.861862 0.366547,-1.750824 0.704498,-2.457169c0.408813,-0.854507 0.350403,-1.647324 0.352661,-2.641495c0.00174,-0.765335 -0.064056,-1.727676 0.085327,-2.570663c0.186707,-1.053528 0.536285,-1.768051 0.748016,-2.697342c0.187958,-0.824844 0.166656,-1.666656 0.166656,-2.584c0,-0.743988 0,-1.779999 0,-2.631989c0,-0.942673 -0.00061,-1.950668 0,-2.742676c0.000671,-0.861328 -0.005829,-1.628265 0.166656,-2.541336c0.149933,-0.793671 0.461334,-1.596375 0.666687,-2.666656c0.177063,-0.922974 0.164398,-1.562164 0.166656,-2.566666c0.001801,-0.800003 0,-1.800003 0,-2.600006c0,-1 -0.056702,-1.809174 0.085327,-2.600006c0.18219,-1.014542 0.698242,-1.71019 0.878662,-2.763992c0.158081,-0.923264 0.036011,-1.835999 0.036011,-2.736008c0,-0.899994 0.127197,-1.678085 0.5,-2.441666c0.376862,-0.771896 0.478119,-1.708542 0.495514,-2.452988c0.024109,-1.033066 0.004486,-1.980011 0.004486,-2.806671c0,-0.898666 0,-1.798676 0,-2.719498c0,-0.800507 0,-1.653839 0,-2.596512c0,-0.85199 0,-1.888 0,-2.631989c0,-0.917343 0,-1.82933 0,-2.750671c0,-0.899994 0,-1.800003 0,-2.70134c0,-0.965332 0,-1.634659 0,-2.399994c0,-0.994171 0,-1.91333 0,-2.877838c0,-0.910156 -0.347992,-1.654739 -0.716003,-2.322159c-0.454437,-0.824142 -0.329041,-1.794449 -0.70932,-2.62001c-0.417999,-0.907455 -0.508911,-1.58992 -0.600006,-2.363998c-0.123596,-1.050232 -0.274261,-2.049866 -0.776001,-2.642654c-0.621643,-0.734436 -1.158844,-1.219635 -1.634674,-1.982666c-0.499115,-0.800339 -1.015625,-1.389481 -1.397339,-2.422676c-0.273651,-0.740692 -0.699066,-1.43782 -1.518494,-1.809494c-0.85498,-0.387802 -1.582764,-0.794533 -1.643677,-1.709c-0.059235,-0.889046 0.149048,-1.896629 -0.171143,-2.64817c-0.332825,-0.781204 -0.828003,-1.563957 -0.833344,-2.435997c-0.00528,-0.863991 0,-1.765335 0,-2.730667c0,-0.833336 0,-1.811836 0,-2.528839c0,-0.904495 0,-1.8685 0,-2.740494l0,-0.859505l0,-0.875168" id="svg_2" stroke-linecap="null" stroke-linejoin="null" stroke-dasharray="null" stroke-width="5" stroke="#000000" fill="none"/> <path d="m171.68335,123c-0.286667,-2.057335 -0.437881,-2.721069 -0.646667,-3.468002c-0.230347,-0.824089 -0.672943,-2.154106 -0.837326,-2.617332c-0.337799,-0.951927 -0.696152,-1.923447 -0.863342,-2.419167c-0.502533,-1.490021 -0.64505,-1.992661 -0.895493,-3.013496c-0.128296,-0.522964 -0.35025,-1.625336 -0.452667,-2.21067c-0.107086,-0.611992 -0.306824,-1.937675 -0.404343,-2.655998c-0.101242,-0.745682 -0.19783,-1.507744 -0.28949,-2.274002c-0.178894,-1.495499 -0.255066,-2.201828 -0.325333,-2.863998c-0.121368,-1.143715 -0.252335,-2.31881 -0.280838,-3.141335c-0.029678,-0.856331 -0.004501,-1.82 -0.004501,-2.683334c0,-0.8955 -0.202164,-1.972527 0.333328,-2.652664c0.525879,-0.667915 1.52861,-0.965317 2.166672,-1.520836c0.700043,-0.609497 1.134537,-1.163918 1.746674,-1.653831c0.883392,-0.707008 1.702011,-1.077614 2.253326,-1.304497c0.810379,-0.333488 1.841919,-0.671181 2.689331,-1.156837c0.840637,-0.481773 1.386459,-1.043381 2.010666,-1.502663c0.772064,-0.568077 1.597885,-0.821091 2.400009,-0.858665c0.998932,-0.046791 1.816177,0.002403 2.799988,-0.286667c0.81665,-0.239952 1.795837,-0.63636 2.600006,-0.695168c0.997559,-0.072952 1.789337,-0.020836 2.514664,-0.020836c0.985336,0 1.973343,0 2.768005,0c1.050659,0 1.685333,0 2.717331,0c0.694672,0 1.666672,0 2.717331,0c0.794662,0 1.782669,0 2.604004,0c0.853333,0 1.794678,-0.004349 2.562668,0c0.941376,0.005333 1.939911,0.184601 2.705338,0.574669c0.801254,0.408333 1.728149,0.251442 2.610657,0.428001c0.848831,0.169815 0.995483,1.227119 1.716003,1.82666c0.588821,0.489952 1.236694,1.085609 1.970673,1.169334c0.922012,0.105171 1.871643,-0.037262 2.68132,0.00267c0.867035,0.042763 1.474716,0.852921 2.233337,0.99733c0.882813,0.168053 1.798676,0.001335 2.762665,0.001335c0.872009,0 1.740585,-0.011055 2.602676,0c0.812698,0.010422 1.527786,0.615036 2.269333,0.963997c0.863205,0.406212 1.849335,0.036003 2.762665,0.036003c0.822159,0 1.662659,0 2.634659,0c0.862167,0 1.6875,0 2.652008,0c0.725327,0 1.714493,0.000069 2.493835,0c0.999329,-0.000084 1.78009,-0.16349 2.692825,-0.574669c0.841125,-0.378914 1.601471,-0.385643 2.436996,-0.477997c0.892838,-0.098686 1.783096,-0.295975 2.619003,-0.522003c0.939911,-0.254143 1.70491,-0.552994 2.356003,-1.141335c0.629608,-0.568924 1.218521,-1.21553 1.716003,-1.715996c0.718384,-0.72271 1.704407,-0.813126 2.374664,-1.178665c0.974396,-0.53141 1.557129,-1.102348 2.473495,-1.33667c0.769577,-0.196785 1.460159,-0.722382 2.153168,-1.136665c0.795532,-0.475571 0.98674,-1.564629 1.719498,-1.895164c0.801636,-0.361603 1.913071,-0.243683 2.480515,0.263161c0.558441,0.498817 1.303162,0.716003 2.165314,0.716003c0.833344,0 1.812012,0 2.585999,0c0.900024,0 1.763336,0 2.747345,0c0.821503,0 1.710663,0 2.700012,0c0.799988,0 1.799988,0 2.599976,0c0.800018,0 1.804504,0 2.657166,0c0.964172,0 1.768188,0 2.590179,0c1.031158,0 1.716675,0 2.551331,0c1.001343,0 1.801331,0 2.801331,0c0.800018,0 1.800354,0 2.641663,0c0.729004,0 1.926331,0 2.609009,0c0.698669,0 2.015991,0 2.830505,0c0.852661,0 1.761658,0 2.718842,0c0.899994,0 1.799988,0 2.599976,0c0.835999,0 1.852692,0 2.547333,0c1.038025,0 1.986206,-0.011482 2.662506,0.004501c0.77594,0.018333 1.832703,0.131157 2.754181,0.42083c0.63858,0.200737 1.642853,0.443817 2.399994,0.599998c0.967438,0.199554 1.629883,0.686859 2.604004,0.892006c0.723419,0.152351 1.963379,0.340752 2.417664,0.796997c0.60611,0.608734 0.941772,1.727707 1.414337,2.413666c0.523712,0.760178 1.19046,1.216194 1.62149,1.972c0.381561,0.669098 1.297516,1.248207 1.611847,2.066666c0.297363,0.774284 0.699493,1.57193 1.141327,2.279999c0.481201,0.771133 0.607788,1.549873 0.858673,2.553337c0.196625,0.786392 0.165985,1.599998 0.166656,2.595497c0.000519,0.747337 0,1.779167 0,2.725838c0,0.678665 0,1.657501 0,2.488495c0,0.958168 0,1.69017 0,2.856834c0,0.8125 0,1.654671 0,2.508003c0,0.940002 0,1.925331 0,2.825333l0,0.800003l0,0.914665l0,0.826996" id="svg_3" stroke-linecap="null" stroke-linejoin="null" stroke-dasharray="null" stroke-width="5" stroke="#000000" fill="none"/> <path d="m174.68335,170c-2.479172,-2 -3.224625,-2.559784 -3.636002,-3.293335c-0.264572,-0.471771 -0.847992,-1.674667 -1.189331,-2.35733c-0.349335,-0.698669 -0.68573,-1.38382 -1.153336,-2.306335c-0.391861,-0.773102 -0.877319,-1.662064 -1.506668,-2.444336c-0.51329,-0.638016 -0.942703,-1.03688 -1.714661,-2.020157c-0.412842,-0.525848 -1.001968,-1.387848 -1.400009,-1.979843c-0.602798,-0.8965 -1.000946,-1.490616 -1.563995,-2.362671c-0.354111,-0.548447 -0.951996,-1.551987 -1.335999,-2.235992c-0.384003,-0.684006 -0.989655,-1.679779 -1.314667,-2.225327c-0.486023,-0.815826 -0.975739,-1.845505 -1.123993,-2.549347c-0.141556,-0.672028 -0.255493,-1.654404 -0.497345,-2.439987c-0.24147,-0.784348 -0.767639,-1.813477 -1.263992,-2.533508c-0.506409,-0.734604 -0.922302,-1.506958 -1.633331,-2.251831c-0.407883,-0.427292 -1.190689,-0.971848 -1.898666,-1.600006c-0.647797,-0.574768 -1.360947,-1.290527 -1.6465,-2.157333c-0.299225,-0.908325 -0.346786,-1.563553 -0.837509,-2.325333c-0.418213,-0.649216 -0.445511,-1.529861 -1.085327,-2.086655c-0.685013,-0.596115 -0.914124,-1.347778 -1.198669,-2.330673c-0.28479,-0.983772 -0.637726,-1.654137 -0.916,-2.615997c-0.218475,-0.755196 -0.494232,-1.514641 -0.800003,-2.400002c-0.325943,-0.943771 -0.209076,-1.807297 -0.450668,-2.650665c-0.252502,-0.881454 -0.712753,-1.827072 -0.797333,-2.622665c-0.076767,-0.722092 0.009598,-1.711853 -0.038666,-2.696007c-0.03569,-0.727768 -0.419434,-1.729279 -0.847992,-2.303993c-0.424179,-0.56884 -0.978073,-1.46212 -1.150665,-2.410667c-0.165878,-0.911697 -0.75676,-1.527946 -0.941513,-2.452667c-0.13649,-0.683167 -0.057159,-1.722 -0.057159,-2.668671c0,-0.853333 0,-1.794662 0,-2.562668c0,-0.94133 0,-1.949333 0,-2.754333c0,-0.829666 0,-1.861664 0,-2.719666c0,-0.641998 0,-1.589996 0,-2.587334c0,-0.798332 -0.118546,-1.727859 0.085327,-2.570663c0.214813,-0.888016 0.764908,-1.692474 0.915009,-2.584c0.119614,-0.710434 0.971207,-1.216675 1.431671,-1.870667c0.650406,-0.923759 0.53923,-1.778877 0.567993,-2.695999c0.02861,-0.912262 0.52179,-1.679588 0.878662,-2.433334c0.404373,-0.854065 0.921509,-1.553749 1.10051,-2.420837c0.194794,-0.94352 -0.06076,-1.69297 0.304825,-2.595161c0.330933,-0.816666 0.614639,-1.549507 0.800003,-2.485336c0.15979,-0.806686 0.454468,-1.61142 1.115997,-2.513336c0.453278,-0.617989 1.320328,-1.210075 1.678665,-1.985497c0.340454,-0.73671 0.467926,-1.562004 0.825836,-2.304337c0.482681,-1.001114 0.858185,-1.824837 1.462173,-2.428833c0.603989,-0.603989 1.430771,-0.973175 2.231995,-1.365334c0.761719,-0.372826 1.76236,-0.590164 2.601334,-0.967999c0.68898,-0.31028 1.498322,-0.678123 2.347336,-0.885998c0.931137,-0.227982 1.49968,-0.700706 2.416672,-1.047169c0.895081,-0.338184 1.553802,-0.49279 2.735992,-0.733498c0.788345,-0.160519 1.53125,-0.503563 2.300003,-0.882668c0.845215,-0.416813 1.737503,-0.249947 2.685333,-0.568001c0.740799,-0.248585 1.710312,-0.635174 2.493835,-0.695168c0.851913,-0.065231 1.716385,-0.010365 2.620834,-0.020832c0.900177,-0.010418 1.603302,-0.543194 2.5,-0.878502c0.850632,-0.318081 1.699997,-0.121498 2.599991,-0.121498c0.936005,0 1.784012,0.004314 2.647339,0c0.900024,-0.004501 1.829559,-0.32058 2.477997,-0.850666c0.530563,-0.433731 1.411804,-1.092041 2.274673,-1.149334c0.89801,-0.059628 1.831039,0.394062 2.614655,-0.085335c0.723511,-0.442619 1.121536,-1.360542 1.802673,-1.629333c1.006073,-0.397018 1.561615,-1.015488 2.343994,-1.259998c0.945679,-0.295547 1.602982,-0.562336 2.338669,-1.223999c0.588409,-0.529194 1.638596,-0.677227 2.279175,-1.322166c0.641678,-0.646042 0.386703,-1.660477 0.541656,-2.458336c0.18544,-0.95483 1.163483,-1.147858 1.804504,-1.456833c1.040497,-0.501518 1.759918,-1.030109 2.053329,-1.885166c0.269577,-0.785587 0.658844,-1.524937 1.121338,-2.199665c0.48587,-0.708832 0.883011,-1.638023 0.964005,-2.315166c0.090988,-0.760696 -0.09285,-1.781155 0.121323,-2.678669c0.212357,-0.889874 0.747955,-1.696823 0.914841,-2.585167c0.14949,-0.795704 0.847092,-1.304569 1.283829,-2.100166c0.355774,-0.648113 0.303543,-1.604794 0.716003,-2.363998c0.37941,-0.698366 1.307999,-0.436058 2.113495,-0.436001c1.186508,0.000084 1.788269,-0.028536 2.686508,0.035999c1.203979,0.086502 1.814331,0.214821 2.741669,0.526501c0.682343,0.229338 1.795395,0.763718 2.626328,1.2055c0.439346,0.233587 1.331238,0.733389 1.781342,0.981333c0.881165,0.48539 2.103912,1.116192 2.836319,1.440834c0.669312,0.296677 1.324387,0.519455 2.514511,1.131332c0.614792,0.316082 1.218826,0.702396 1.856995,1.083c1.006638,0.600349 1.723038,0.998817 2.457504,1.384834c0.721603,0.379253 1.415863,0.725594 2.61467,1.325333c0.728912,0.364662 1.361435,0.697411 2.366165,1.180836c0.742615,0.357307 1.729294,0.468895 2.504333,0.925999c0.727936,0.429325 0.92215,1.429173 1.750824,1.753166c0.874969,0.342094 1.501266,0.852467 2.096664,1.377998c0.638138,0.563263 0.989258,1.422215 1.757172,1.642834c0.901871,0.259106 1.81633,0.004501 2.695496,0.004501c0.900009,0 1.802673,0 2.570679,0c1.034668,0 1.778656,0 2.886322,0c0.721664,0 1.663834,0 2.626999,0c0.690674,0 1.758835,0 2.616165,0c0.785187,0 1.725189,0 2.733185,0c0.755981,0 1.6875,0.025791 2.471161,-0.352665c0.888855,-0.429264 1.695313,-0.636917 2.528839,-0.647335c0.91925,-0.011486 1.823822,0 2.571167,0c0.994171,0 1.759491,0 2.842834,0c0.919312,0 1.599335,0.000561 2.439331,0c0.998657,-0.000668 1.837311,0.013054 2.714661,-0.085335c0.903076,-0.101273 1.784241,-0.354908 2.64151,-0.562c1.031464,-0.249176 1.720642,-0.333439 2.555817,-0.35133c1.001129,-0.021446 1.801331,-0.001335 2.801331,-0.001335c0.800018,0 1.800018,0 2.600006,0c1,0 1.799988,0 2.600006,0c0.995483,0 1.914673,0 2.764008,0c0.935974,0 1.837311,-0.048519 2.736145,0.000168c0.788635,0.042721 1.719971,0.470955 2.50116,0.715832c0.782867,0.245411 1.684357,0.281021 2.684021,0.284c0.914673,0.002728 1.83844,0.194172 2.386658,0.682667c0.692657,0.617222 1.328278,1.323467 1.828003,1.796501c0.489746,0.463581 1.532837,1.265709 2.305328,1.621666c0.738129,0.340122 1.435394,0.766968 2.189331,1.193832c0.851532,0.482109 1.696472,0.753296 2.505341,1.205334c0.80011,0.447132 1.754761,0.735004 2.200012,1.261665c0.693512,0.820305 0.966278,1.608677 1.5,2.354336c0.471161,0.658283 0.952606,1.401157 1.435974,2.058666c0.625732,0.851192 1.379181,1.315029 1.965332,1.624001c0.984955,0.519196 1.777252,0.850082 2.513336,1.401333c0.613464,0.459408 1.296722,1.209965 1.770691,1.685333c0.763947,0.766205 1.29425,1.260414 1.947998,2.229336c0.448914,0.665367 1.244019,1.160194 1.926666,1.521332c0.928589,0.491257 1.516327,0.963219 1.87381,1.711334c0.460876,0.964478 0.177307,1.921959 0.587677,2.752663c0.341156,0.690582 1.278107,1.234673 1.657166,2c0.419403,0.846779 0.881042,1.439316 1.100494,2.420837c0.174713,0.781479 -0.081512,1.659569 0.022186,2.593834c0.111389,1.003426 0.799469,1.538948 0.977814,2.406166c0.19516,0.94886 0.020844,1.797829 0.020844,2.336494c0,1.393333 0,2.208 0,2.621834c0,1.183502 0,2.135002 0,3.114166c0,0.896004 0,1.725334 0,2.264c0,1.396004 0,1.805168 0,2.663506c0,0.878334 0,2.145828 0,2.907166c0,1.009499 0,1.605835 0,2.886665c0,0.664497 0,1.685333 0,2.474663c0,1.044006 0,1.906174 0,2.731506c0,0.963165 0,1.8265 0,2.722c0,0.957161 0,1.857162 0,2.757164c0,0.800003 0.021729,1.655098 -0.283997,2.482666c-0.306854,0.830612 -0.713745,1.679825 -0.716003,2.579834c-0.00174,0.697502 0,1.794502 0,2.628502c0,0.908997 0.002228,1.808998 0,2.709c-0.002258,0.900009 -0.331207,1.634094 -0.716003,2.400002c-0.394867,0.785927 -0.163696,1.708794 -0.398315,2.6045c-0.218048,0.832504 -0.946594,1.55603 -1.317688,2.195496c-0.549103,0.946213 -0.486877,1.746788 -0.572479,2.647331c-0.088318,0.929352 -0.574371,1.725311 -0.828857,2.585999c-0.228882,0.774094 -0.157593,1.650711 -0.166656,2.514008c-0.010681,1.01683 -0.442657,1.752502 -1.149323,2.21666l-0.829346,0.461334l-0.021332,0.776001" id="svg_4" stroke-linecap="null" stroke-linejoin="null" stroke-dasharray="null" stroke-width="5" stroke="#000000" fill="none"/> <path d="m158.68335,152c-1.563995,-0.610672 -1.883453,-1.528168 -2.664001,-2.100006c-0.549805,-0.402802 -1.637726,-0.546066 -2.238663,-1.299988c-0.552002,-0.692535 -1.126511,-1.355865 -1.797333,-1.652679c-0.847656,-0.375046 -1.494873,-1.149826 -2.014664,-1.661987c-0.72673,-0.716064 -1.452011,-1.118668 -2.347839,-1.306168c-0.709503,-0.148499 -1.586258,-0.407379 -2.242828,-0.689011c-1.054291,-0.452225 -1.725677,-0.809494 -2.651505,-1.268494c-0.759689,-0.376633 -1.530075,-0.854111 -2.522339,-1.000839c-0.812271,-0.120102 -2.003876,-0.346359 -2.463669,0.340836c-0.534607,0.799011 -0.057159,1.638336 -0.057159,2.753006c0,0.88533 0,1.699661 0,2.653336c0,0.731995 0,1.463989 0,2.559998c0,0.972 0,1.873337 0,2.838669c0,0.658661 0,1.666656 0,2.528824c0,0.90451 0,1.725845 0,2.637833c0,0.928009 -0.00766,1.718536 0.000168,2.745331c0.00531,0.696075 0.051102,1.612732 0.283829,2.604004c0.188629,0.803436 0.517258,1.531693 0.658844,2.503006c0.146545,1.00531 -0.112808,1.963226 0.223831,2.814331c0.277924,0.702652 0.732681,1.488037 0.858658,2.210663c0.173203,0.993408 0.537369,1.746948 0.853333,2.767838c0.21814,0.704819 0.663132,1.501785 1.320007,2.221497c0.533478,0.584503 0.650543,1.524139 1.258667,2.199997c0.71019,0.789291 1.559097,0.865356 2.255997,1.200012c0.945618,0.454086 1.183624,1.210663 1.322662,2.035995c0.146835,0.871613 0.505554,1.585724 1.164001,2.478668c0.454834,0.616837 1.305496,1.219955 1.716003,2.085327c0.359314,0.757462 0.691986,1.402664 1.384003,2.100006c0.697311,0.702682 1.399841,1.197601 1.701324,1.986664c0.31958,0.836426 0.410309,1.838516 1.165344,2.380005c0.574493,0.412018 1.609787,0.76976 1.847992,1.518661c0.293274,0.922058 0.495483,1.728363 1.03801,2.457504c0.505539,0.679428 0.816635,1.416214 1.113998,2.190491c0.314331,0.818466 1.088699,1.525894 1.833328,2c0.610962,0.388992 0.962326,1.232697 0.989334,1.962677c0.038361,1.036667 0.010666,1.968002 0.010666,2.802658c0,1.001343 -0.015091,1.801468 0.001328,2.802673c0.010162,0.61972 0.153015,1.768356 0.351334,2.551331c0.209061,0.825394 0.435669,1.352097 0.590179,2.585663c0.09964,0.795517 0.053207,1.824844 0.482498,2.447006c0.505066,0.731979 0.827774,1.317261 1.290665,2.097336c0.490036,0.825836 0.458008,1.622864 1.304825,1.938156c0.815811,0.303741 1.143234,1.232452 1.895172,1.808502c0.567841,0.435028 1.776596,0.318329 2.305496,-0.272171c0.559296,-0.624451 0.850983,-1.559265 1.37851,-2.1465c0.666611,-0.742065 1.178024,-1.233368 1.879166,-1.889832c0.669891,-0.627197 1.654099,-0.900024 2.278,-1.620667c0.54985,-0.635117 1.030548,-1.206619 1.244156,-2.098831c0.17952,-0.749832 0.980667,-1.247452 0.998672,-2.122665c0.017548,-0.853149 -0.165298,-1.841446 0.166672,-2.678665c0.278519,-0.702408 0.570099,-1.534561 0.886002,-2.290161c0.344437,-0.823853 0.945068,-1.414322 0.947327,-2.309845c0.002426,-0.963989 0,-1.842834 0,-2.585327l0,-1.052994" id="svg_5" stroke-linecap="null" stroke-linejoin="null" stroke-dasharray="null" stroke-width="5" stroke="#000000" fill="none"/> <path d="m327.68335,145c0,-1.825333 -0.181458,-2.865036 0.057159,-3.695496c0.220886,-0.768799 1.149841,-1.322662 1.585663,-2.004501c0.526672,-0.82399 0.783966,-1.708786 1.357178,-2.300003c0.590668,-0.609207 1.246185,-1.373947 2,-1.833328c0.674347,-0.41095 0.801117,-1.27417 1.352661,-2.056839c0.476685,-0.676453 0.836395,-1.450867 1.533997,-1.824493c0.849579,-0.455017 1.63681,-0.775894 2.397339,-1.200012c0.774475,-0.4319 1.392639,-0.654099 2.152008,-1.049332c0.763092,-0.397171 1.797882,-0.182846 2.663818,-0.035828c0.852356,0.144699 1.232269,1.02507 1.61618,1.714493c0.415833,0.74675 0.283997,1.695999 0.283997,2.606674c0,0.853333 -0.222412,1.914276 0.333344,2.678665c0.388428,0.534225 1.43689,1.134506 1.594666,1.825333c0.224976,0.985199 0.071991,1.764008 0.071991,2.716339c0,1.00116 0,1.719666 0,2.510162c0,1.026505 0,1.906494 0,2.926666c0,0.716995 0,1.657501 0,2.505493c0,0.863342 0,1.901337 0,2.849335c0,0.672012 0,1.416 0,2.523666c0,0.834 0,1.743011 0,2.643005c0,0.91066 0,1.821503 0,2.710663c0,0.989334 0,1.789337 0,2.789337c0,0.789337 0.491608,1.677902 -0.071991,2.553329c-0.479279,0.744431 -1.75827,0.565338 -1.928009,1.446671c-0.166168,0.862808 0.010376,1.704559 0,2.600006c-0.010437,0.900177 -0.451385,1.672867 -0.716003,2.455994c-0.325531,0.963409 -0.257904,1.630356 -0.273315,2.304001c-0.029907,1.306366 -0.010681,2.12117 -0.010681,2.973831c0,1.019501 0,1.887665 0,2.766006c0,0.900162 0,1.661835 0,2.548325c0,1.018509 0,1.872665 0,2.751831c0,0.90451 0,1.766678 0,2.600006c0,0.9785 0,1.79866 0,2.671997c0,0.870499 0,1.807175 0,2.828003c0,0.857162 0.183929,1.717987 0,2.584c-0.17038,0.802231 -1.232819,0.80896 -2.114655,1.199997c-0.739563,0.327957 -1.485352,0.70546 -2.385345,0.716003c-0.921326,0.010788 -1.835236,0.159973 -2.505341,0.352661c-0.746155,0.214554 -1.847046,0.565506 -2.685669,0.642838c-0.906067,0.083542 -1.664093,0.556152 -2.475647,0.83783c-0.799225,0.277405 -1.811829,0.166672 -2.632019,0.166672c-0.958496,0 -1.854004,0 -2.548645,0c-1.016693,0 -1.982178,0.052124 -2.708679,-0.17067c-1.025665,-0.314545 -1.626587,-0.677765 -2.268005,-1.014664c-1.188721,-0.624359 -1.80899,-1.057495 -2.419647,-1.510162l-0.739014,-0.503174l-0.807495,-0.444168" id="svg_6" stroke-linecap="null" stroke-linejoin="null" stroke-dasharray="null" stroke-width="5" stroke="#000000" fill="none"/> <path d="m206.68335,197c1.707993,0 2.76416,0 3.362503,0c0.997498,0 1.670837,0 2.865494,0c0.914673,0 1.750671,0 2.656006,0c0.951996,0 1.717331,0 2.720505,0c0.631485,0 1.816666,0 2.610153,0c0.775513,0 1.814667,0 2.785339,0c0.800003,0 1.636002,0 2.483994,0c0.863342,0 1.890671,0 2.837509,0c0.699326,0 1.678497,0 2.467834,0c1.043991,0 1.914673,0.099258 2.731491,-0.020828c0.987854,-0.145233 1.633301,-0.616898 2.595169,-0.895172c0.755203,-0.218475 1.529861,-0.483765 2.345673,-0.731339c0.94458,-0.286667 1.763245,-0.330551 2.585663,-0.34816c1.030777,-0.022079 1.953476,0.127853 2.931335,-0.22583c0.692963,-0.250641 1.509384,-0.677979 2.231995,-0.804001c0.993759,-0.173309 1.807281,-0.502411 2.47467,-0.776001c0.994492,-0.407684 1.805847,-0.710861 2.630661,-0.91333c0.988388,-0.24263 1.925797,-0.19548 2.662674,-0.728012c0.61853,-0.447006 1.171265,-1.272919 2.021332,-1.536499c0.962952,-0.298584 1.585907,-0.720291 2.484009,-0.935501c0.843231,-0.202057 1.87851,-0.082306 2.501312,-0.510666c0.735748,-0.506058 1.591553,-0.538986 2.368011,-1c0.775848,-0.460663 1.618408,-0.786362 2.246674,-1.149323c0.845642,-0.488556 1.360107,-1.107452 2.046661,-1.450668c0.783905,-0.391861 1.676666,-0.707764 2.591675,-0.917511c0.85675,-0.196381 1.607971,-0.519058 2.278992,-0.773163c0.943573,-0.357315 1.683472,-0.852814 2.082672,-1.46933c0.601227,-0.928543 1.021332,-1.601166 1.810669,-2.203995c0.696747,-0.532135 1.678223,-0.456238 2.422668,-0.944c0.776367,-0.508682 1.256989,-1.225708 1.866669,-1.829178c0.606079,-0.59993 0.727844,-1.392578 1.299988,-2.504166c0.347015,-0.674194 0.950836,-1.245331 1,-0.333328c0.043304,0.803375 0.779572,1.477478 1,2.285339c0.240784,0.882401 0,1.814835 0,2.599991c0,0.950668 0,1.716003 0,2.705673c0,0.838333 0,1.845001 0,2.709c0,0.901337 0.045166,1.868958 -0.010681,2.52533c-0.086456,1.016327 -0.611511,1.658218 -0.867828,2.717331c-0.167755,0.693146 -0.004639,1.45816 -0.125977,2.643005c-0.084595,0.826004 -0.658508,1.366699 -1.291016,2.114334c-0.639404,0.755798 -0.823578,1.479538 -1.279175,2.300003c-0.434204,0.781937 -0.65094,1.675842 -1.244171,2.099991c-0.873199,0.624329 -1.717468,0.755539 -2.413147,1.185333c-0.847351,0.523499 -1.359131,1.2715 -1.68399,2.22934c-0.295532,0.871384 -0.691986,1.487991 -1.384003,2.185333c-0.498077,0.501923 -1.200012,1.199997 -1.900024,1.899994c-0.5,0.5 -1.179932,1.240891 -1.966644,1.800003c-0.625336,0.444412 -1.405121,0.821808 -1.772003,1.825333c-0.242249,0.662628 -0.565979,1.701797 -1.227997,2.174667c-0.627106,0.447906 -1.753204,0.907852 -2.291687,1.5c-0.56192,0.61792 -0.965546,1.313919 -1.741669,1.785339c-0.676361,0.410812 -1.242096,1.304688 -2.001312,1.630661c-0.916443,0.393494 -1.648315,0.477356 -2.314667,0.88533c-0.87262,0.534256 -1.568024,1.197998 -2.370667,1.198669c-0.938675,0.000778 -1.946869,-0.017288 -2.702682,0c-0.911377,0.020844 -1.54216,0.627441 -2.046661,1.149338c-0.755463,0.781509 -1.538513,0.839996 -2.611328,0.850662c-0.919296,0.00914 -1.588669,0 -2.75267,0c-0.789337,0 -1.514664,0 -2.5,0c-0.986664,0 -1.746674,0 -2.666672,0c-0.781494,0 -1.571991,0 -2.690491,0c-0.891006,0 -1.795502,0 -2.490173,0c-1.016663,0 -1.961685,0.006775 -2.985992,0c-0.681046,-0.004501 -1.512192,0.019821 -2.666672,-0.333328c-0.615356,-0.188232 -1.481354,-0.683807 -2.042831,-1.018509c-1.03978,-0.619843 -1.71814,-1.018021 -2.352661,-1.343658c-0.998474,-0.512436 -1.555099,-0.864365 -2.583176,-1.183167c-0.757721,-0.23497 -1.696014,-0.437561 -2.368668,-0.825836c-0.929245,-0.536377 -1.746124,-0.946274 -2.367325,-1.379501c-0.797028,-0.555862 -1.370163,-0.72821 -2.263672,-1.137497c-0.743561,-0.340607 -1.189178,-1.224213 -1.669006,-1.945511c-0.408218,-0.613663 -0.259003,-1.619736 -0.519333,-2.499664c-0.246048,-0.831635 -0.962296,-1.610367 -1.666656,-2.166656c-0.676926,-0.534622 -1.465225,-0.867523 -2.105331,-1.556c-0.564789,-0.607483 -1.01973,-1.165878 -1.345337,-2.096008c-0.258179,-0.737518 -0.535858,-1.726105 -0.716003,-2.472992c-0.215103,-0.89183 -0.942841,-1.398834 -1.004501,-2.337173l-0.420837,-0.679169" id="svg_7" stroke-linecap="null" stroke-linejoin="null" stroke-dasharray="null" stroke-width="5" stroke="#000000" fill="none"/> <path d="m223.68335,135c-1.835999,0.964005 -2.601334,0.999329 -3.604507,1c-0.852661,0.000565 -1.817261,0.025558 -2.599487,-0.010666c-0.943283,-0.043686 -1.691391,-0.674011 -2.505844,-0.932175c-0.771591,-0.244568 -1.842422,-0.005951 -2.611496,-0.499832c-0.738937,-0.474533 -1.102432,-1.214279 -2.157837,-1.515656c-0.790527,-0.225739 -1.656403,-0.43338 -2.320831,-0.757675c-0.896103,-0.437363 -1.865463,-0.247101 -2.661667,-0.341156c-0.966721,-0.114212 -1.750183,-0.378204 -2.528503,-0.590179c-1.035599,-0.282043 -1.787033,-0.471207 -2.609833,-0.927322c-0.782272,-0.43364 -1.534561,-0.819565 -2.399994,-1.258667c-0.675385,-0.342682 -1.215225,-1.105774 -2.100006,-1.166672c-0.897873,-0.061798 -1.670105,-0.020515 -2.552658,-0.352669c-0.706223,-0.265785 -1.710754,-0.629326 -2.546005,-0.647331c-0.967773,-0.020866 -1.471512,-0.30722 -2.134659,-0.833336c-0.678558,-0.538338 -1.781342,-0.166664 -2.666672,-0.166664c-0.757172,0 -1.652878,-0.019073 -2.516006,0c-0.943008,0.020836 -1.113754,0.839615 -1.650665,1.666664c-0.453751,0.698967 -0.869324,1.358665 -1.40799,1.907997l-0.425339,0.782501l-0.004501,0.938339l-0.420837,0.7005" id="svg_8" stroke-linecap="null" stroke-linejoin="null" stroke-dasharray="null" stroke-width="5" stroke="#000000" fill="none"/> <path d="m255.68335,133c2.682678,-0.285339 3.501678,-0.46666 4.230652,-0.801331c1.127502,-0.517639 1.497681,-1.382324 1.93869,-1.998672c0.52829,-0.738312 1.325928,-1.339737 1.878815,-1.842834c0.616119,-0.560623 1.610687,-0.474167 2.035858,-1.158493c0.500153,-0.805038 1.441101,-0.959007 2.206146,-1.251335c0.783752,-0.299484 1.474762,-0.75164 2.227173,-1.116669c0.813965,-0.394897 1.114929,-1.228745 1.778168,-2.069c0.569275,-0.721222 1.170258,-1.303314 1.651825,-2.057167c0.447113,-0.699898 0.989319,-1.47921 1.757172,-1.699997c0.82605,-0.237511 1.73407,-0.307747 2.174347,-1.1045c0.366577,-0.663345 1.028076,-1.253319 1.638489,-1.785332c0.795959,-0.693733 1.147186,-1.551079 1.966675,-1.945335c0.644073,-0.30986 1.568695,-0.56881 2.515991,-1.00267c0.666931,-0.305466 1.421722,-0.853691 2.295502,-1.109497c0.890564,-0.260719 1.871155,-0.057167 2.683655,-0.057167c0.911011,0 1.725342,0 2.62085,0c0.87915,0 1.863007,-0.209267 2.695496,0.004501c0.743195,0.190842 1.19458,1.07737 2.032501,1.759499c0.36731,0.299019 1.224335,0.91156 1.671997,1.236c0.884644,0.641121 1.430634,0.806053 2.488007,1.944c0.522888,0.562737 0.43219,1.666855 1.079987,2.254669c0.630707,0.572319 1.598663,0.967995 2.136505,1.448662l0.859497,0.377998l0.431519,0.679169l0.061646,0.938332" id="svg_9" stroke-linecap="null" stroke-linejoin="null" stroke-dasharray="null" stroke-width="5" stroke="#000000" fill="none"/> <path d="m199.68335,144c0.995499,1.699997 1,2.600006 1,3.563995c0,0.872009 0,1.736008 0,2.636002c0,0.899841 0.277466,1.494904 0.833328,2.133331c0.556366,0.639008 0.742859,1.474075 1.518509,1.714844c0.895187,0.277878 1.594055,0.923233 2.449493,0.951828c0.898163,0.030029 1.762665,0 2.634674,0c0.963989,0 2.112091,0.263474 2.506836,-0.361664c0.513306,-0.812897 -0.032928,-1.909958 0.499832,-2.616669c0.44278,-0.587326 1.521286,-0.993988 1.557327,-1.822998c0.039032,-0.897812 0,-1.762665 0,-2.634674c0,-0.953323 -0.35817,-1.396988 -1.149338,-1.599991c-0.852509,-0.218735 -1.371307,-0.953583 -2.250656,-0.964005c-0.899948,-0.010666 -1.798676,0 -2.766678,0l-0.833328,0l-0.916,0" id="svg_10" stroke-linecap="null" stroke-linejoin="null" stroke-dasharray="null" stroke-width="5" stroke="#000000" fill="none"/> <path d="m283.68335,130c-1.020844,0 -1.978485,0 -2.798676,0c-0.958496,0 -1.854004,0 -2.717316,0c-0.963165,0 -1.877136,-0.202087 -2.682678,0.285339c-0.624329,0.377762 -1.154877,1.15358 -1.67984,1.936325c-0.376404,0.561234 -0.12149,1.593002 -0.12149,2.609009c0,0.873825 0,1.769333 0,2.648499c0,0.877991 -0.167969,1.836929 0.001343,2.719498c0.145142,0.75647 1.296539,0.641983 1.945984,1.153992c0.614624,0.484558 1.357697,0.615616 2.37384,0.647675c0.658966,0.020782 1.370331,0.624893 1.72699,1.294327c0.416412,0.781586 1.515839,0.7099 2.387848,0.705338c0.859528,-0.004501 1.517303,-0.566299 1.559509,-1.351837c0.054321,-1.010712 0.004486,-1.846832 0.004486,-2.814835c0,-0.833328 0,-1.633331 0,-2.666656c0,-0.777344 0,-1.730667 -0.436005,-2.166672l-0.953339,0" id="svg_11" stroke-linecap="null" stroke-linejoin="null" stroke-dasharray="null" stroke-width="5" stroke="#000000" fill="none"/> <path d="m235.68335,176c1.814667,0.964005 2.793182,1.059601 3.541672,1.5c0.746841,0.439438 1.596954,0.494659 2.541,0.5c0.917313,0.005188 1.717331,0 2.617325,0c0.900009,0 1.779175,0.002502 2.736008,0c0.859512,-0.002258 1.458694,-0.475601 1.916656,-1.300003c0.412354,-0.742294 0.824432,-1.392975 1.647339,-1.699997c0.89473,-0.333817 1,-1.20134 1,-2.166672c0,-0.8125 0,-1.723495 0,-2.537827c0,-0.938339 0.574661,-1.331497 1.052673,-1.942841l0.748657,-0.351334l0.898666,-0.001328" id="svg_12" stroke-linecap="null" stroke-linejoin="null" stroke-dasharray="null" stroke-width="5" stroke="#000000" fill="none"/> <path d="m225.68335,164c-0.979172,1.020828 -0.821381,2.017471 -1.085327,2.79866c-0.300552,0.889542 -0.896667,1.590118 -0.914673,2.486679c-0.018341,0.913147 0,1.776001 0,2.575989c0,0.972 0,1.852005 0,2.749344c0,0.889328 0,1.789322 0,2.68483l0.000168,0.925827l0.356995,0.721512l0.841507,0.057159" id="svg_13" stroke-linecap="null" stroke-linejoin="null" stroke-dasharray="null" stroke-width="5" stroke="#000000" fill="none"/> <path d="m256.68335,159c2.59549,0.942841 3.595551,0.637985 4.458344,1.020828c0.789337,0.35025 1.14621,1.146179 1.763,1.858002c0.567169,0.654587 0.6716,1.353989 1.062653,2.23584c0.327942,0.739548 0.953949,1.355621 1.432007,2.054657c0.503113,0.735657 0.283997,1.809006 0.283997,2.709335c0,0.825836 0,1.685333 0,2.690674c0,0.782501 0,1.668991 -0.221344,2.430664l-0.945313,0" id="svg_14" stroke-linecap="null" stroke-linejoin="null" stroke-dasharray="null" stroke-width="5" stroke="#000000" fill="none"/> <path d="m252.68335,231c2.778671,0 3.773376,0.368454 4.5,-0.041672c0.696991,-0.393387 0.613892,-1.780869 1.386658,-1.955658c0.905243,-0.204758 1.553009,-0.430313 2.334839,-0.881165c0.76828,-0.443024 1.778503,-0.121506 2.611847,-0.288177l0.388153,-0.711823" id="svg_15" stroke-linecap="null" stroke-linejoin="null" stroke-dasharray="null" stroke-width="5" stroke="#000000" fill="none"/> <path d="m161.68335,165c-1,0 -1.834442,0.195953 -2.699997,-0.057159c-0.87764,-0.256638 -1.705215,-0.754456 -2.400177,-1.385513c-0.516937,-0.469406 -1.069977,-1.215118 -1.878998,-1.536499c-0.915039,-0.363495 -1.457993,-0.875198 -2.306168,-1.022156c-0.943283,-0.163437 -1.483276,-0.850494 -2.414658,-0.994171c-0.889496,-0.137222 -1.857758,-0.309265 -2.689331,0.006165c-0.729172,0.276581 -0.574234,1.359512 -0.110672,2.010162c0.474472,0.665985 0.615204,1.773117 1.301331,1.976501c0.879715,0.260773 1.409637,0.974838 1.773331,1.602676c0.445969,0.769852 0.426956,1.796692 0.925339,2.399994c0.480713,0.581894 0.556824,1.466476 1.110672,2.097336c0.63118,0.718933 0.613327,1.534256 1.222656,2.402664c0.452866,0.645401 1.538116,0.380188 2.056839,1.205338c0.400085,0.636429 0.657806,1.508484 1.276505,2.127991c0.619186,0.62001 1.119522,1.242645 1.854156,1.645844c0.909653,0.499252 1.682953,0.55928 2.458344,1.020828c0.815155,0.485214 1.722168,0.5 2.406158,0.5c0.940002,0 1.947998,0 2.753006,0c0.882492,0 2.067322,-0.201584 2.361664,0.357162c0.441528,0.83815 0,1.809509 0,2.622009c0,1 -0.394791,1.645554 -0.833328,2.354156c-0.455826,0.736526 0.070877,1.910233 -0.450668,2.582672c-0.485947,0.626541 -0.716003,1.379501 -0.716003,2.250671c0,0.720001 -0.444092,1.890732 0.221497,2.590332c0.628174,0.660248 1.753174,0.242996 2.579834,0.242996c0.91333,0 1.198669,0.647339 1.198669,1.520828c0,0.8685 0,1.836334 -0.001328,2.677841l-0.351334,0.744171" id="svg_16" stroke-linecap="null" stroke-linejoin="null" stroke-dasharray="null" stroke-width="5" stroke="#000000" fill="none"/> <path d="m340.68335,142c0,2.553329 0.002197,3.520828 0,4.399994c-0.002258,0.900024 -0.18866,1.727997 -0.704498,2.300003c-0.655792,0.727203 -1.545166,1.138 -2.247345,1.652664c-0.674164,0.49411 -1.503998,0.490295 -2.286499,1.009003c-0.590118,0.391174 -0.441803,1.585403 -0.983002,2.395508c-0.484283,0.72493 -1.444824,1.051575 -1.757813,1.763657c-0.353973,0.805374 -0.112305,1.911957 -0.936829,2.393845c-0.706238,0.412766 -1.084015,1.085327 -1.084015,1.88533c0,0.842834 0,1.741669 0,2.68399c0,0.690674 -0.292664,2.046158 0.425323,2.480011c0.736725,0.445175 1.783295,-0.088028 2.6745,0.036163c0.801727,0.111725 0.496735,1.370483 1.186829,1.914505c0.694336,0.547363 1.810211,-0.13652 2.544006,0.369324c0.697876,0.481094 1.12262,1.282303 1.164856,2.067841c0.053772,1.000061 0.004486,1.981491 0.004486,2.668991c0,1.092499 0.363708,2.083466 -0.166656,2.8125c-0.477112,0.655838 -1.270294,1.096649 -2.018677,1.156006c-1.049774,0.083267 -1.898682,0.010666 -2.814667,0.010666c-0.799988,0 -1.877594,-0.472595 -2.647339,0.057159c-0.702301,0.483322 -1.206879,0.988068 -1.351318,1.744171c-0.16861,0.882706 0.055817,1.841507 0.714661,2.282669l0.505493,0.794495l0.878326,0.121506" id="svg_17" stroke-linecap="null" stroke-linejoin="null" stroke-dasharray="null" stroke-width="5" stroke="#000000" fill="none"/> <path d="m207.68335,237c0,3.542831 0,4.395493 0,5.401337c0,0.619492 0,1.765335 0,2.564835c0,0.596329 0,1.605835 0,2.776169c0,0.853989 0,1.715988 0,2.134995c0,1.455994 0,2.203003 0,3.087997c0,0.802673 0,1.783997 0,2.70134c0,0.833328 0,1.876175 0,2.59465c0,0.790497 0,1.817169 0,2.717834c0,1.020844 0,1.820831 0,2.62085c0,1.004486 0,1.635986 0,2.82132c0,0.804016 0,1.626007 0,2.657013c0,0.674988 0,1.755005 0,2.510986c0,0.931519 0,1.894684 0,2.585327c0,1.072693 0,1.992004 0,2.825348l0,0.978485l0,0.71701" id="svg_18" stroke-linecap="null" stroke-linejoin="null" stroke-dasharray="null" stroke-width="5" stroke="#000000" fill="none"/> <path d="m303.68335,231c0,2.800003 0,3.600006 0,4.402664c0,0.869339 0,1.930664 0,2.565338c0,1.031998 0,1.726669 0,2.989166c0,0.781494 0,1.490997 0,2.464005c0,0.793488 0,1.809494 0,2.778c0,0.854156 0,1.852829 0,2.476822c0,0.966003 0,2.059509 0,2.761505c0,0.97316 0,1.884003 0,2.583328c0,1.179169 0,1.979172 0,2.979172c0,0.789337 0,1.514679 0,2.5c0,0.984009 -0.000092,1.674652 0,2.742828c0.000092,0.857178 0.2117,1.728912 0.574677,2.357178c0.488556,0.845642 1.130951,1.3526 1.450653,2.082672c0.35376,0.807892 0.402313,1.86908 0.861328,2.463989c0.626221,0.811646 1.501373,0.985016 2.161499,1.500671c0.741882,0.579498 1.121185,1.153992 1.813171,1.752655l0.656006,0.399994" id="svg_19" stroke-linecap="null" stroke-linejoin="null" stroke-dasharray="null" stroke-width="5" stroke="#000000" fill="none"/> <path d="m206.68335,276c3.600006,1.829346 4.499405,1.972382 5.100006,1.990997c1.199631,0.037201 2.111633,0.00177 2.735992,0.045013c1.333878,0.092407 2.051163,0.240448 2.800003,0.399994c0.776672,0.165466 1.564545,0.368561 2.76416,0.663818c0.803802,0.197845 1.619598,0.384735 2.035843,0.464172c0.847305,0.161682 2.184448,0.322388 3.107666,0.383331c0.914185,0.060333 1.361664,0.047577 2.20166,0.136688c1.406326,0.1492 2.203705,0.449982 2.936005,0.631989c0.992233,0.246582 1.823578,0.245331 2.634659,0.368011c1.00705,0.152313 1.640594,0.495361 2.684006,0.749329c0.787613,0.191711 1.600555,0.137238 2.604507,0.171143c0.853806,0.028839 1.81842,0.210693 2.620819,0.420837c0.823685,0.215698 1.852753,0.45639 2.538681,0.549347c0.834167,0.113037 1.823441,0.414612 2.635986,0.672668c0.988113,0.313812 1.630005,0.298615 2.766678,0.519318c0.789642,0.15332 1.60408,0.374969 2.5,0.833344c0.701111,0.358704 1.196182,0.906006 1.990494,1.648163c0.54039,0.504913 1.535583,1.13382 2.132172,1.290497c1.033569,0.271454 1.765961,0.715149 2.621338,1.036011c0.883362,0.33136 1.56662,0.590271 2.56781,0.903992c0.704071,0.220612 1.498444,0.733215 2.342834,1c0.825623,0.260864 1.797394,0.402588 2.431335,0.825836c0.733154,0.489471 1.533051,0.949432 2.414001,1.295502c0.747009,0.293457 1.431763,1.147888 2.128021,0.938324c0.846558,-0.254791 1.369232,-0.913422 2.190643,-1.223663c0.743683,-0.280884 1.715027,-0.81485 2.335999,-1.125336c0.693024,-0.346527 1.825928,-0.902222 2.484009,-1.250977c0.699646,-0.370758 1.430908,-0.746033 2.361328,-1.505005c0.592346,-0.483215 1.056335,-1.062714 1.548004,-1.572021c0.92337,-0.956482 1.457428,-1.317566 2.306183,-1.740479c0.575195,-0.286621 1.783752,-0.834503 2.383667,-1.178009c0.621033,-0.355621 1.245544,-0.759552 2.262146,-1.342834c0.709839,-0.407257 1.440643,-0.783234 2.136017,-1.164001c1.203156,-0.658813 1.819977,-1.09314 2.440979,-1.531494c0.899017,-0.634552 1.518158,-0.919861 2.256348,-1.637848c0.643646,-0.626038 0.969543,-1.173798 1.514679,-1.898651c0.724487,-0.963318 1.271057,-1.507233 2.253326,-1.968018c0.716187,-0.335968 1.507477,-0.523071 2.261322,-1c0.823578,-0.521057 1.360016,-1.189331 1.970673,-1.966644l0.285339,-0.748016l0.91333,-0.08667" id="svg_20" stroke-linecap="null" stroke-linejoin="null" stroke-dasharray="null" stroke-width="5" stroke="#000000" fill="none"/> <path d="m208.68335,262c-0.818832,0 -1.772644,-0.016388 -2.5625,0.020844c-0.926727,0.043701 -1.962341,0.183594 -2.69017,0.34082c-0.751373,0.162292 -1.511658,0.357056 -2.580658,0.804993c-0.692108,0.290009 -1.626022,0.831665 -2.205002,1.180664c-1.042007,0.628113 -1.722549,1.022705 -2.357162,1.348175c-0.99968,0.512695 -1.788208,0.922882 -2.604507,1.137848c-0.777328,0.204712 -1.86972,0.465118 -2.363998,1.017334c-0.689987,0.770874 -1.106186,1.345642 -1.802673,1.982666c-0.598267,0.547211 -0.633072,1.328156 -1,2.166656c-0.321777,0.735321 -0.833328,1.436005 -0.833328,2.30899c0,1.024353 0,1.700836 0,2.476349c0,1.048004 0,1.967987 0,2.727997c0,0.986664 0,1.971985 0,2.697327c0,0.989502 0,1.810181 0,2.47467c0,1.27182 0,1.83551 0,2.716003c0,1.197327 0,1.787994 0,2.64151c0,1.27182 0,1.93631 0,2.957153c0,0.810669 0,1.685333 0,2.68399c0,0.81601 -0.019897,1.632233 0.001328,2.629333c0.017899,0.840515 0.365692,1.755463 0.714676,2.485352c0.365234,0.763824 0.222061,1.963226 0.930664,2.190643c0.799881,0.256714 1.600037,0.003174 2.774826,0.010834c0.814545,0.00531 1.396759,-0.020691 2.578506,0.166504c0.903336,0.143097 1.472488,0.361084 2.314667,0.549347c1.215347,0.271667 2.067184,0.22821 2.928162,0.636658c0.810303,0.384399 1.554565,0.699005 2.241165,1.216675c0.738953,0.557159 1.288544,1.333649 1.995178,1.889008c0.673981,0.529694 1.397522,0.569397 2.57283,0.826996c0.627045,0.137421 1.299026,0.251617 2.447998,0.714661c0.836365,0.337067 1.45816,0.755524 2.505341,0.951843c0.73912,0.13855 1.721542,0.312622 2.322662,0.898834c0.75679,0.738037 1.345032,1.143646 2.158661,1.718658c0.584274,0.412933 1.172745,0.995941 2.197342,1.546661c0.528458,0.284027 1.39798,0.577911 2.394501,1.205322c0.482727,0.303925 1.079956,0.89325 1.921494,1.512024c0.773438,0.568695 1.403503,0.855286 2.398666,1.366669c0.768082,0.394714 1.6026,0.873413 2.190674,1.399994c0.740784,0.66333 1.398056,1.314911 2.210663,1.398651c0.831589,0.085693 1.852661,0.001343 2.547333,0.001343c1.016663,0 1.977249,-0.079376 2.819336,0.166656c0.692535,0.202332 1.439865,0.62442 2.428833,1.133331c0.571564,0.294128 1.518951,0.904968 2.065826,1.335999c0.876755,0.69104 1.58078,1.192261 2.087997,1.502686c0.902771,0.552521 1.703064,0.960907 2.303345,1.508667c0.692612,0.631989 0.416458,1.700531 1.113998,2.186005c0.621628,0.432648 0.831665,-1.036011 0.833328,-1.804016c0.002258,-1.034668 -0.086075,-1.804535 0.166672,-2.695984c0.241776,-0.852722 0.93869,-1.651978 1.243988,-2.180023c0.482925,-0.835266 0.892944,-1.586395 1.425339,-2.367981c0.362656,-0.53241 1.151154,-1.466858 1.759506,-1.980011c0.557068,-0.469879 1.397354,-1.34024 1.77916,-2.056c0.392761,-0.736298 0.934708,-1.618896 1.440002,-2.087982c0.60231,-0.559143 1.048584,-1.506836 1.268005,-2.177338c0.329086,-1.005676 1.019638,-1.581726 1.61734,-2.184021c0.692017,-0.697327 1.029053,-1.492981 1.583984,-2.217316c0.482727,-0.630066 0.583221,-1.404633 1.285339,-2.196014c0.50238,-0.566254 1.801239,-0.459442 2.309174,-1.108154c0.546631,-0.698181 0.503754,-1.562103 1.12149,-2.111847c0.622498,-0.553986 1.18042,-1.310486 1.799988,-1.834656c0.700928,-0.593018 0.949188,-1.427155 1.147339,-2.423004c0.165771,-0.833069 0.525879,-1.605682 1.21933,-2.24234c0.597198,-0.548309 1,-1.170807 1.720001,-1.166656c0.92807,0.005341 1.867462,0.22229 2.113495,1.099823c0.218628,0.779755 0.824158,1.358002 1.061188,2.121521c0.311401,1.002991 0.785339,1.581329 1.290497,2.12149c0.741852,0.793304 1.372894,1.390472 1.848175,2.141174c0.426941,0.674316 0.989441,1.434692 1.44281,2.211487c0.453308,0.776703 0.580688,1.825287 1.003845,2.479156c0.455963,0.704529 1.273315,1.255402 1.85199,1.630676c0.783539,0.508118 1.836243,1.192383 2.47168,1.622833c0.700714,0.47467 1.444397,0.988953 2.210999,1.534515c0.77948,0.554718 1.548492,1.115417 2.28299,1.678497c0.697296,0.534576 1.880646,1.513489 2.320679,1.951172c0.371765,0.369781 0.820526,0.63797 1.108337,1.518311c0.313324,0.958435 -0.060699,1.952026 0.191986,2.690674c0.303162,0.88623 0.608246,1.638672 0.919159,2.551331c0.241302,0.708313 1.414581,0.853058 1.996857,0.363342c0.63147,-0.531067 1.109772,-1.151489 1.598663,-1.901337c0.512238,-0.785614 1.08139,-1.459961 1.899994,-1.814667c0.839264,-0.363647 1.531708,-0.49173 2.199158,-0.757172c1.281067,-0.50943 1.812561,-0.868835 2.479523,-1.453491c0.856598,-0.750885 1.221313,-1.189331 1.82132,-1.789337c0.600006,-0.600006 1.379517,-1.425262 2.041656,-1.979156c0.457458,-0.38266 1.596741,-1.009735 2.259186,-1.268188c0.674316,-0.263123 1.705933,-0.54248 2.434814,-1.073975c0.801056,-0.584137 1.113434,-1.230042 1.921509,-1.935028c0.533264,-0.46524 1.361298,-1.230774 1.741516,-1.795654c0.411072,-0.610748 0.915222,-1.607178 1.434662,-2.447998c0.396851,-0.642395 1.116669,-1.336853 1.934662,-1.698669c0.716888,-0.317108 1.515198,-0.359009 2.559998,-0.786652c0.830627,-0.339996 1.103516,-1.115356 1.838654,-1.848022c0.594391,-0.592407 1.415741,-0.724487 2.333344,-1.208313c0.911743,-0.480743 1.325012,-1.253906 1.710663,-1.718353c0.767914,-0.924866 1.341614,-1.50174 2.132172,-1.87381c0.862305,-0.405853 1.871094,-0.484009 2.299988,-1.070679c0.555206,-0.75946 1.185425,-0.882843 2,-1.352661c0.686859,-0.396179 1.296295,-1.158081 1.357178,-2.042664c0.060089,-0.872772 0,-1.661835 0,-2.54834c0,-1.018494 -0.322174,-1.761871 -1.166656,-2.351837c-0.631744,-0.441345 -1.421814,-0.709686 -2.076172,-1.30899c-0.637268,-0.583679 -0.940125,-1.467316 -1.278015,-2.19101c-0.345917,-0.740967 -0.939941,-1.559845 -1.653809,-2.078674c-0.912079,-0.662903 -1.457458,-1.028076 -2.02536,-1.905334c-0.433716,-0.669983 -0.871552,-1.518921 -1.399994,-2.105316c-0.665649,-0.738617 -1.49353,-1.3461 -2.285339,-1.409332c-0.769379,-0.061462 -1.715973,-0.08667 -2.710144,-0.354004l-0.568512,-0.222015l-1.074341,-0.368164" id="svg_21" stroke-linecap="null" stroke-linejoin="null" stroke-dasharray="null" stroke-width="5" stroke="#000000" fill="none"/> <path d="m185.68335,283c-2.018829,0.942841 -2.857285,0.99353 -3.488007,0.998657c-1.03363,0.008392 -2.158936,0.004333 -2.958664,0.037354c-0.415176,0.017151 -1.721329,0.120667 -2.637329,0.247986c-0.94281,0.131073 -1.41452,0.225891 -2.363327,0.363342c-1.383987,0.20047 -2.265869,0.27066 -2.69101,0.299988c-0.819733,0.056549 -1.608994,0.041046 -3.040329,0.274353c-0.674271,0.109924 -1.332031,0.290863 -2.305328,0.664978c-1.049637,0.403473 -1.76207,0.766205 -2.495178,1.092499c-0.708984,0.315552 -1.6828,0.705109 -2.5065,0.915497c-0.90062,0.230042 -1.746948,0.506409 -2.4935,1.12619c-0.561859,0.466461 -1.253845,1.248077 -1.830658,1.731812c-0.710846,0.59613 -1.444473,1.083496 -2.242004,1.594666c-0.774811,0.496613 -1.530365,0.836487 -2.286499,1.405334c-0.68425,0.514771 -1.220474,1.235413 -1.494995,2.247345c-0.209473,0.772186 0.269913,1.627655 -0.202667,2.553345c-0.392197,0.76825 -0.963333,1.247986 -0.964005,2.203827c-0.000626,0.895508 0,1.75882 0,2.606842c0,0.940491 0,1.802643 -0.020828,2.635986l-0.2005,0.978485l-0.42601,0.71701l-0.341995,0.8685" id="svg_22" stroke-linecap="null" stroke-linejoin="null" stroke-dasharray="null" stroke-width="5" stroke="#000000" fill="none"/> <path d="m335.68335,288c2.600006,-0.009003 3.44577,-0.024475 4.401337,-0.567993c0.656494,-0.373413 1.248169,-0.969543 2.285339,-1.262665c0.835083,-0.235992 1.47995,-0.18222 2.834503,-0.390686c0.730164,-0.112366 1.456268,-0.28714 2.168976,-0.425995c1.264008,-0.246246 2.037354,-0.333252 2.907166,-0.351318c0.80249,-0.016663 1.602692,-0.001343 2.603027,-0.001343c0.841309,0 1.570313,0 2.767639,0c0.682678,0 1.381348,0 2.698669,0c0.819,0 1.724335,0 2.533356,0c0.799988,0 1.799988,0 2.610657,0c0.874664,0 1.872009,0 2.668488,0c0.751495,0 1.885498,-0.259369 2.816345,0.004486c0.777435,0.220367 1.515259,0.729614 2.136505,1.164856c0.695404,0.487183 0.790314,1.584686 1.667816,1.830811c0.779755,0.218719 1.189606,1.070007 1.921021,1.479004c0.77359,0.432587 1.808014,0.569122 1.977814,1.322174c0.19809,0.87854 0.686859,1.621246 0.944183,2.498657c0.253448,0.864197 0.409821,1.647339 1.021149,2.146667l0.036163,0.874664l0.035858,0.853333" id="svg_23" stroke-linecap="null" stroke-linejoin="null" stroke-dasharray="null" stroke-width="5" stroke="#000000" fill="none"/> <path d="m189.68335,148c0.682663,-0.610672 1.535629,-1.116974 2.240005,-1.389328c0.898438,-0.347397 1.915176,-0.575531 2.407333,-1.31517c0.471527,-0.708633 1.104141,-0.862045 1.916656,-1.367508c0.628601,-0.391052 0.551712,-1.757874 1.383331,-1.927994c0.836685,-0.171158 1.439835,-0.314484 2.219345,-0.833328c0.707458,-0.470871 1.5905,-0.166672 2.485992,-0.166672c0.863342,0 1.900665,0 2.78334,0c0.859497,0 1.785492,0 2.663834,0c0.900162,0 1.701492,0 2.536163,0c1.012161,0 1.800842,-0.008438 2.38533,0.425339c0.695999,0.516541 1.607834,0.620499 2.216995,1.2845c0.511353,0.557388 0.565765,1.739441 1.047012,2.488831c0.394302,0.614014 1.429321,0.88533 1.881332,1.634659l0.750656,0.450668l0.525345,0.594666l0.85199,0.174011" id="svg_25" stroke-linecap="null" stroke-linejoin="null" stroke-dasharray="null" stroke-width="5" stroke="#000000" fill="none"/> <path d="m267.68335,138c0,-0.886673 -0.256744,-1.91803 0.221344,-2.757339c0.415955,-0.730255 0.649536,-1.588608 1.346649,-2.073334c0.738922,-0.513809 1.506775,-0.899109 2.293335,-1.143997c0.946014,-0.294525 1.602966,-0.562317 2.338684,-1.223999c0.588379,-0.529175 1.514709,-0.790421 2.410645,-0.801331c0.91037,-0.011093 1.717865,-0.204803 2.528015,-0.574661c0.848511,-0.38736 1.64566,-0.538208 2.425323,-1c0.772797,-0.457733 1.307831,-1.06736 2.145844,-1.368172c0.761841,-0.273468 1.748505,-0.057167 2.647339,-0.057167c0.844147,0 1.809479,0 2.642822,0c0.978333,0 1.833344,0 2.610657,0c0.953339,0 1.825348,0 2.684845,0c0.989838,0 1.936218,-0.243706 2.620483,0.283997c0.632813,0.488037 1.402527,0.944244 2.084015,1.216003c0.974426,0.38858 1.713348,0.584 2,1.5l0,0.800003l0,0.842834" id="svg_26" stroke-linecap="null" stroke-linejoin="null" stroke-dasharray="null" stroke-width="5" stroke="#000000" fill="none"/> <path d="m208.68335,185c1.41066,-0.88266 1.737457,-1.478088 2.321503,-2.421173c0.49791,-0.804001 0.820358,-1.380707 1.678497,-2.245499c0.554321,-0.558624 1.375153,-0.886826 2.238327,-1.280655c0.742996,-0.339005 1.282501,-1.031845 2.161667,-1.063339l0.798676,-0.273331" id="svg_27" stroke-linecap="null" stroke-linejoin="null" stroke-dasharray="null" stroke-width="5" stroke="#000000" fill="none"/> <path d="m279.68335,164c1.169342,1.714661 2.082764,1.824081 2.832001,2.283997c0.72641,0.445908 1.462677,0.768677 2.167999,1.216003c0.705322,0.447327 1.666656,0.666672 2.166656,1.333328l0.720001,0.165344l0.928009,0.011993l0.942505,0.210663" id="svg_28" stroke-linecap="null" stroke-linejoin="null" stroke-dasharray="null" stroke-width="5" stroke="#000000" fill="#ffffaa"/> </g> </svg>