<svg width="640" height="480" xmlns="http://www.w3.org/2000/svg" xmlns:svg="http://www.w3.org/2000/svg"> <!-- Created with SVG-edit - http://svg-edit.googlecode.com/ --> <g> <title>Layer 1</title> <path d="m204,160c0,1.8 0,2.7 0,3.60001c0,0.89999 0,1.79999 0,2.60133c0,0.96533 0,1.81949 0,2.79866c0,0.8 0,1.60001 0,2.60001c0,0.79999 0,1.79866 0,2.564c0,0.952 0,1.72 0,2.672c0,0.76534 0,1.75951 0,2.67867c0,0.96451 0,1.78984 0,2.80667c0,0.67867 0,1.65717 0,2.67867c0,0.75717 0,1.65717 0,2.4045c0,0.9955 0,1.7955 0,2.79533c0,0.77934 -0.17155,1.81529 0.08533,2.59883c0.26831,0.81837 0.94997,1.52065 1.304,2.46268c0.19432,0.51704 0.45354,1.57059 0.58534,2.50267c0.11787,0.8335 0.3429,1.85901 0.672,2.43599c0.59776,1.048 1.20544,1.59665 1.492,2.07201c0.61198,1.01521 0.71289,1.69182 0.8405,2.70717c0.08255,0.65677 0.02779,1.90347 0.6315,2.55283c0.61349,0.65988 1.23244,1.21487 1.49916,1.81984c0.43233,0.98061 1.27702,1.26909 1.83951,2.05882c0.601,0.8438 0.92474,1.41458 1.4025,1.99384c0.64418,0.78104 0.9901,1.68263 1.748,2.35268c0.67932,0.60057 1.02242,1.27931 1.60466,1.94283c0.55968,0.63779 1.16736,1.12132 1.94817,1.60001c0.6834,0.41896 1.60403,0.98529 2.34734,1.7c0.5097,0.4901 1.19469,1.20535 1.8,1.8c0.60539,0.59473 1.52428,1.06319 2.2,1.2c0.98331,0.19908 1.63622,0.77246 2.3045,1.2955c0.80022,0.62628 1.53096,0.68362 2.29683,0.70317c1.00735,0.02573 1.91829,0.02551 3.04117,0.22282c0.66202,0.11633 1.35152,0.25246 2.30417,0.57983c1.01692,0.34946 1.63062,0.83942 2.37483,1.29851c0.67711,0.41769 1.67216,0.78113 2.4785,0.86417c0.79654,0.08202 1.8,0.036 2.59999,0.036c1.00134,0 1.836,0 2.76668,0c0.786,0 1.608,0 2.66666,0c0.93068,0 1.76534,0 2.77118,0c0.63148,0 1.81667,0 2.61015,0c0.77551,0 1.81601,0 2.668,0c0.94269,0 1.63333,0 2.54535,0c0.88266,0 2.00015,0.00136 2.47733,-0.00133c1.05737,-0.00595 1.61591,-0.00848 2.73584,-0.05583c0.54041,-0.02286 1.95926,-0.12799 2.67749,-0.3c0.87567,-0.20972 1.84583,-0.64861 2.634,-0.94284c0.81976,-0.30602 1.88089,-0.69949 2.61267,-1.0045c0.51816,-0.21597 1.4567,-0.5905 2.26801,-0.86217c0.98279,-0.32909 1.52985,-0.48647 2.66666,-0.83333c0.57327,-0.17491 1.14362,-0.32596 2.66666,-0.83333c0.81055,-0.27002 1.46115,-0.51338 2.21085,-0.86217c1.0365,-0.48221 1.66418,-0.8253 2.39316,-1.18983c0.87186,-0.43597 1.535,-0.75809 2.54266,-1.28934c0.63641,-0.33553 1.73334,-0.83408 2.21869,-1.41467c0.59241,-0.70865 0.73141,-1.6302 1.26932,-2.21066c0.67224,-0.72543 1.4006,-1.39807 1.89868,-1.89999c0.69202,-0.69734 1.09995,-1.5461 1.46664,-2.3c0.3714,-0.76361 0.66592,-1.51723 0.84402,-2.39999c0.1904,-0.94377 0.9043,-1.5874 0.98798,-2.40001c0.09219,-0.89526 0.00134,-1.8 0.00134,-2.7c0,-0.91066 0,-1.82133 0,-2.67467c0,-0.94133 0,-1.70934 0,-2.66133c0,-0.76534 0,-1.75951 0,-2.50684c0,-1.02116 0,-1.96167 0,-2.82384c0,-0.83333 0.17862,-1.85081 -0.08533,-2.63199c-0.30057,-0.88954 -0.78015,-1.61121 -0.91916,-2.50134c-0.1279,-0.81898 -0.77081,-1.33714 -1.38486,-2.09999c-0.60013,-0.74554 -0.42929,-1.75349 -0.77731,-2.60001c-0.27591,-0.6711 -0.90781,-1.41026 -1.40802,-2.02533c-0.50412,-0.61987 -0.42337,-1.59428 -0.85065,-2.37466c-0.45038,-0.82257 -0.31842,-1.82492 -0.79602,-2.47867c-0.51071,-0.69907 -0.61496,-1.37863 -1,-2.22134c-0.30579,-0.6693 -0.43063,-1.58051 -0.7995,-2.37917c-0.35614,-0.77107 -0.9769,-1.22531 -0.97916,-2.12083c-0.00226,-0.89999 0,-1.79999 0,-2.7c0,-0.89999 0.04779,-1.80127 0,-2.7c-0.04272,-0.80341 -0.74695,-1.53719 -0.96399,-2.39999c-0.21976,-0.87352 0.1138,-1.81259 -0.03616,-2.69984c-0.14401,-0.85202 -0.94269,-1.25732 -0.99985,-2.20016l0,-0.89999l-0.00015,-0.90001l-0.08517,-0.7" id="svg_1" stroke-width="5" stroke="#000000" fill="none"/> <path d="m202,181c-1,-1 -1.83698,-0.79553 -2.7,-1.05716c-0.88489,-0.26826 -1.31297,-1.17017 -2.05717,-1.58568c-0.82584,-0.46109 -1.67659,-0.23174 -2.60683,-0.79317c-0.72778,-0.43924 -1.22166,-1.15721 -2.036,-1.53867c-0.88557,-0.41483 -1.66183,-0.97267 -2.07918,-1.52533c-0.55859,-0.7397 -0.78432,-1.7195 -1.32216,-2.3c-0.57605,-0.62173 -1.29868,-1.3 -1.89867,-1.89999c-0.60001,-0.60001 -1.39467,-1.22337 -1.864,-1.90001c-0.51521,-0.74278 -0.27084,-1.74548 -0.472,-2.53867c-0.2187,-0.8624 -0.9122,-1.44693 -1.40668,-2.18266c-0.48985,-0.72887 -1.03302,-1.17113 -1.5365,-2.15784c-0.40988,-0.80328 -0.80887,-1.65407 -1.10483,-2.32083c-0.38075,-0.85777 -0.89799,-1.59946 -0.916,-2.5c-0.01799,-0.89981 0,-1.8 0,-2.7c0,-0.75717 0,-1.65266 0,-2.51601c0,-0.96317 0,-1.88399 0,-2.7885c0,-0.86217 0,-1.6955 0,-2.674c0,-0.82016 0,-1.7215 0,-2.62151c0,-0.89999 0,-1.79999 0,-2.7c0,-0.89999 -0.14838,-1.84798 0.17067,-2.58533c0.37433,-0.86513 1.08946,-1.3073 1.496,-2.28134c0.31308,-0.75011 0.20168,-1.60924 0.55482,-2.69049c0.21431,-0.65617 0.87199,-1.4684 1.29933,-2.16367c0.35893,-0.58397 0.94983,-1.38997 1.47917,-1.95834c0.81328,-0.87326 1.48941,-1.32762 1.83333,-2.18749c0.32475,-0.81197 0.46133,-1.85962 0.87651,-2.42883c0.43674,-0.59879 1.35794,-1.30975 1.84349,-1.99384c0.52881,-0.74503 0.83537,-1.54807 1.28,-2.41067c0.36931,-0.71649 0.73811,-1.48357 1.1875,-2.02084c0.81633,-0.97597 1.23755,-1.57045 1.56851,-2.17916c0.53639,-0.98653 0.77895,-1.62672 1.29599,-2.4c0.55479,-0.82973 1.10835,-1.38533 1.63068,-1.91467c0.73158,-0.7414 1.33426,-1.26533 2.24883,-1.807c0.60513,-0.35841 1.33827,-0.7221 2.16299,-1.14001c0.44626,-0.22614 1.91447,-0.95988 2.43884,-1.22099c0.53397,-0.26589 1.61148,-0.79861 2.14667,-1.05601c1.03139,-0.49606 1.98172,-0.93974 2.83467,-1.292c0.77165,-0.31869 1.52669,-0.58782 2.30399,-0.852c1.30968,-0.44511 1.79921,-0.59973 2.81334,-0.94267c0.51411,-0.17385 1.52075,-0.51849 1.99733,-0.69067c1.25471,-0.45329 1.91745,-0.70773 2.91934,-1.1795c0.82552,-0.38873 1.60237,-0.82818 2.218,-1.01917c0.98479,-0.30551 1.86247,-0.31005 2.82233,-0.50667c0.87256,-0.17874 1.565,-0.37474 2.40567,-0.49467c1.002,-0.14294 2.19185,-0.20248 2.83533,-0.22683c0.66319,-0.0251 1.33664,-0.03901 2.01001,-0.0465c1.30661,-0.01453 2.49333,-0.01067 3.5,-0.01067c0.84666,0 1.57333,0 2.21999,0c1.20668,0 2.10667,0 2.70668,0c1.2,0 2.09999,0 2.7,0c1.2,0 1.81151,-0.01579 2.86667,0.04166c0.4218,0.02296 1.41753,0.11765 2.66666,0.29167c0.73897,0.10295 1.54453,0.23425 2.40601,0.381c0.90657,0.15443 1.84457,0.32423 2.802,0.507c0.96661,0.18453 1.93069,0.36887 3.79201,0.77866c0.88162,0.1941 1.72369,0.39587 2.52899,0.6c0.77335,0.19604 1.51373,0.39621 2.22299,0.6c0.68341,0.19636 1.34164,0.39091 2.58133,0.8c0.59244,0.1955 1.16763,0.3997 1.737,0.5955c0.56665,0.19486 1.71725,0.57456 2.31601,0.74734c0.61722,0.17809 1.94562,0.49739 2.66516,0.63567c0.74582,0.14333 1.51193,0.26697 2.28452,0.3855c0.76776,0.11778 1.52307,0.21385 2.93866,0.43467c1.22693,0.19139 2.1994,0.38697 2.95065,0.59067c0.60562,0.16421 1.60934,0.43591 2.42102,0.576c0.64645,0.11157 1.43387,0.25875 2.85367,0.868c0.58383,0.25053 1.18973,0.58373 1.82999,0.939c0.6666,0.36987 1.33847,0.76637 2.01001,1.173c0.6651,0.40273 1.31107,0.7984 3.01984,1.89083c0.48676,0.3112 1.37253,0.89411 1.78598,1.18467c0.83322,0.58556 1.26288,0.90717 2.1875,1.64583c1.07803,0.86122 1.64624,1.3504 2.23468,1.856c0.60095,0.51635 1.20047,1.04453 1.78799,1.581c0.57779,0.5276 1.64844,1.55868 2.12466,2.053c0.44888,0.46597 1.24249,1.34957 1.60266,1.75999c0.66626,0.75921 1.57556,1.75826 1.88333,2.0405c0.87848,0.80565 1.50589,1.25002 2.10001,1.72549c0.90884,0.72735 1.5011,1.25972 2.05835,1.81734c0.53723,0.5376 1.23904,1.31183 1.72733,2.04283c0.42023,0.62914 0.91434,1.65717 1.31433,2.45717c0.29999,0.60001 0.82153,1.59966 1.10001,2.272c0.43402,1.04787 0.59885,1.69501 0.79999,2.368c0.29828,0.99802 0.59076,1.86455 0.98935,2.66267c0.43399,0.86906 0.60022,1.71799 0.61066,2.69733c0.00839,0.78929 -0.14764,1.85509 0.03601,2.58934c0.22058,0.88174 0.82306,1.57281 0.96399,2.45233c0.10291,0.64224 0.27802,1.64264 0.5,2.4375c0.21033,0.7531 0.48199,1.85901 0.5,2.84216c0.01563,0.8532 0,1.79333 0,2.67867c0,0.75717 0,1.65266 0,2.51601c0,0.96317 0,1.88399 0,2.784c0,0.89999 0.19818,1.86058 -0.16666,2.7c-0.29755,0.68456 -1.25952,1.21675 -1.66669,2c-0.38669,0.74385 -0.68225,1.50514 -1.36667,2.2c-0.59543,0.60451 -1.20963,1.18698 -1.71597,1.99867c-0.45993,0.73729 -1.30353,1.06483 -1.884,1.60266c-0.62173,0.57607 -1.3371,1.26649 -1.80002,1.83467c-0.65546,0.80449 -0.92609,1.57854 -1.6955,2.25417c-0.60056,0.52736 -1.27924,0.81769 -2.09384,1.1205c-0.73349,0.27266 -0.99854,1.30055 -1.77731,1.82266c-0.7059,0.47324 -1.44568,0.52333 -2.11868,1.08267c-0.66901,0.55602 -1.15427,0.91182 -1.73999,1.64799c-0.53827,0.67653 -1.19601,1.31467 -1.88934,1.72134l-0.08533,0.91466l-0.00015,0.89984" id="svg_2" stroke-width="5" stroke="#000000" fill="none"/> <path d="m204,165c0,-1.7 0,-2.60001 0,-3.5c0,-0.89999 0,-1.8 0,-2.7c0,-0.90001 -0.10727,-1.817 0.08533,-2.68533c0.17628,-0.79474 0.55556,-1.50774 1.21468,-2.3575c0.45821,-0.59076 1.23955,-1.24982 1.8,-2.07834c0.43146,-0.63782 1.02151,-1.39325 1.7,-1.76151c0.7258,-0.39394 1.31912,-1.22868 2,-1.63199c0.82715,-0.48996 1.62236,-0.97154 2.5,-1.22818c0.86555,-0.25311 1.8,-0.05716 2.7,-0.05716c0.8,0 1.7,-0.05716 2.5,-0.5c0.8,-0.44284 1.60001,-0.5 2.5,-0.5c0.8,0 1.7,0 2.60001,0c0.89999,0 1.79999,0 2.7045,0c1.01683,0 1.6955,0 2.674,0c0.82016,0 1.7215,0 2.62151,0c0.89999,0 1.79999,0 2.7,0c0.89999,0 1.80684,-0.11073 2.7,0c0.89938,0.11151 1.437,0.92947 2.18533,0.98933c0.92644,0.07411 1.91467,0.01067 2.81467,0.01067c0.8,0 1.7,0 2.60001,0c0.89999,0 1.79999,0 2.7,0c0.89999,0 1.80017,0 2.58533,0c0.94,0 1.66101,0.21994 2.70401,-0.036c0.8734,-0.21432 1.62305,-0.84015 2.29599,-1.048c0.95905,-0.29622 1.62489,-0.72574 2.47868,-1.30533c0.73126,-0.49641 1.52295,-0.56476 2.46133,-0.62134c0.69342,-0.04181 1.64523,-0.51949 2.27466,-1.08917c0.69073,-0.6252 1.57199,-0.57118 2.37915,-0.92099c0.81567,-0.35349 1.38168,-0.96117 2.35419,-0.97917c0.75586,-0.01399 1.66666,-0.00009 2.57733,0c0.91064,0.00009 1.82501,-0.13083 2.70398,0.28534c0.6474,0.30652 1.25803,1.16591 2.052,1.71466c0.64145,0.44334 1.43802,0.79338 2.23203,1.2c0.76862,0.39362 1.60342,0.87248 2.19064,1.40001c0.74207,0.66661 1.41068,1.39999 1.91068,1.89999c0.70001,0.7 1.36096,1.24568 1.88934,1.89999c0.60175,0.74516 0.91568,1.64864 1.258,2.3c0.46356,0.88213 0.35266,1.78534 0.35266,2.51067c0,0.98933 0,1.78934 0,2.78934c0,0.8 0,1.60001 0,2.60001l0,0.79999" id="svg_3" stroke-width="5" stroke="#000000" fill="none"/> <path d="m223,175c1.64667,0 2.48399,0 3.34734,0c1.01666,0 1.85266,0 2.75267,0c0.89999,0 1.7,0 2.59999,0c0.90001,0 1.8,0 2.7,0l0.90001,0l0.89999,0" id="svg_4" stroke-width="5" stroke="#000000" fill="none"/> <path d="m256,171c1.79999,0 2.71979,0.1571 3.5,-0.02083c0.96204,-0.21939 1.59387,-0.91829 2.5,-0.97917c0.79819,-0.05363 1.70001,0 2.60001,0l0.89999,-0.02083l0.79999,-0.33183" id="svg_5" stroke-width="5" stroke="#000000" fill="none"/> <path d="m296,176c1.60001,0.57466 2.69519,0.85703 2.97916,1.52083c0.37729,0.88194 0.79565,1.41577 1.01636,2.18367c0.24738,0.86067 0.00449,1.7955 0.00449,2.6955c0,0.90001 0.14877,1.88969 -0.35266,2.54733c-0.51608,0.67686 -1.22202,1.078 -1.64285,1.75717l-0.07648,0.8595l-0.77869,0.42134" id="svg_6" stroke-width="5" stroke="#000000" fill="none"/> <path d="m198,180c-1.16667,1 -1.7448,1.53772 -1.964,2.39999c-0.22197,0.87314 -0.22888,1.91182 -0.83733,2.31467c-0.82144,0.54388 -1.18755,1.14171 -0.588,1.88535c0.52786,0.65472 1.18947,1.19986 1.88933,1.89999c0.59996,0.6002 1.21178,1.29716 1.41733,2.26933c0.15692,0.74219 0.1409,1.60019 0.65201,2.54401c0.37491,0.69232 0.99054,1.16028 1.66899,1.92949c0.63699,0.7222 0.92834,1.5905 1.76167,1.75717l0.8,0l0.89999,0l0.936,0" id="svg_7" stroke-width="5" stroke="#000000" fill="none"/> <path d="m235,227c-1.836,0 -2.60133,0 -3.5955,0c-0.91916,0 -1.88367,0 -2.80449,0c-0.91351,0 -1.65601,0 -2.65201,0c-0.62399,0 -1.59,0 -2.68367,0c-0.86833,0 -1.76224,-0.10701 -2.61166,0.05716c-0.93005,0.17975 -1.515,0.7646 -2.478,0.90685c-0.99782,0.14738 -1.76401,0.036 -2.71634,0.036c-0.79166,0 -1.709,0 -2.45299,0c-1.03467,0 -2.00534,-0.00188 -2.76251,0c-0.90451,0.00226 -1.71298,0.01363 -2.66415,0.2215c-0.81294,0.17766 -1.63544,0.45926 -2.65718,0.87851c-0.69226,0.28406 -1.51364,0.71338 -2.32149,1.09866c-0.79381,0.37859 -1.79668,0.71031 -2.41068,0.76534c-0.87186,0.07814 -1.87199,0.036 -2.6685,0.036c-0.7515,0 -1.90822,-0.13377 -2.72217,0.28534c-0.76173,0.39223 -1.46457,0.99251 -2.146,1.41466c-0.9142,0.56636 -1.67896,1.06245 -2.35266,1.35268c-0.8418,0.36263 -1.67601,0.73181 -2.39984,1.16882c-0.72348,0.4368 -0.54716,1.56996 -0.93616,2.3425c-0.38812,0.77084 -1.32152,1.11598 -1.60684,1.78784c-0.41508,0.97742 -0.28412,1.99834 -0.7825,2.62283c-0.48518,0.60796 -0.57466,1.42532 -0.57466,2.32983c0,0.86217 0.00114,1.73717 0,2.38216c-0.00226,1.26601 0.03433,1.8196 -0.08533,2.62933c-0.18356,1.24214 -0.53998,1.85945 -0.79384,2.88484c-0.15977,0.64536 -0.308,1.49995 -0.78751,2.63249c-0.20366,0.48103 -0.75584,1.55336 -1.06667,2.14668c-0.32744,0.62506 -0.67445,1.27271 -1.0275,1.94247c-0.36032,0.68356 -1.07613,2.07574 -1.41766,2.77753c-0.3398,0.69824 -0.66682,1.39886 -0.9855,2.09998c-0.31766,0.69888 -0.6266,1.39948 -0.9315,2.10001c-0.30443,0.69946 -0.90419,2.10013 -1.50583,3.50269c-0.30301,0.70639 -0.60904,1.41876 -0.91949,2.13898c-0.31488,0.73047 -0.63567,1.47296 -0.96451,2.229c-0.67996,1.56329 -1.03629,2.3714 -1.396,3.19467c-0.36296,0.83072 -0.72267,1.664 -1.077,2.49301l-0.34435,0.819l-0.33032,0.80298l-0.31233,0.78101" id="svg_8" stroke-width="5" stroke="#000000" fill="none"/> <path d="m289,218c1.33334,-0.83333 2.06631,-0.85529 2.97849,-1.22133c0.77402,-0.31061 1.62833,-0.79033 2.44284,-1.20401c0.55414,-0.28143 1.58304,-0.53709 2.328,-0.564c1.10718,-0.03998 1.88531,0.01477 2.73599,-0.29601c0.7467,-0.2728 1.70322,-0.84132 2.336,-1.10399c0.68155,-0.28291 1.82056,-0.4994 2.48853,-0.558c1.07419,-0.09422 1.81363,-0.09564 2.8685,-0.274c0.98215,-0.16606 1.56531,-0.39778 2.655,-0.612c0.70444,-0.13847 1.56216,-0.16441 2.56665,-0.16667c0.80002,-0.00179 1.79984,0 2.57916,0c1.1355,0 2.02124,-0.02536 2.82083,0c0.9014,0.02859 1.56027,0.5452 2.52133,0.87883c0.65503,0.2274 1.64813,0.57262 2.17868,1.12117c0.65546,0.67769 1.53888,0.85287 2.33334,1.16667c0.81543,0.32208 1.40787,1.23466 2.052,1.54799c0.87964,0.42789 1.71805,0.35843 2.48932,1.14667c0.43307,0.44261 1.12979,1.22806 1.79999,1.76401c0.8306,0.66422 1.17877,1.22523 1.70935,1.976c0.57605,0.81512 1.16129,1.35419 1.54666,1.99867c0.56784,0.94966 0.61176,1.88156 1.01218,2.82117c0.2316,0.54347 0.71997,1.33363 1.3905,2.2455c0.50339,0.68452 1.05081,1.49217 1.13065,2.17999c0.09692,0.83511 0.02209,1.84048 0.05685,2.69501c0.02524,0.62054 0.1889,1.98193 0.33633,2.711c0.15164,0.74986 0.33588,1.49783 0.64282,2.58066c0.19412,0.68477 0.509,1.67108 0.75717,2.31934c0.39096,1.02129 0.72733,1.72917 1.0575,2.46201c0.32581,0.72319 0.66953,1.39937 1.01733,2.61333c0.25903,0.90407 0.59882,1.76433 1.18884,2.272c0.79669,0.68549 1.21674,1.16386 1.73181,1.9045c0.55835,0.80289 1.0762,1.40234 1.65186,1.9955c0.78622,0.81013 1.42606,1.43449 1.86749,1.944c0.50952,0.5881 1.37231,1.74014 1.69598,2.19202c0.33908,0.47342 1.03146,1.46439 1.38135,1.96265c0.34479,0.49103 1.31732,1.83469 1.60767,2.21533l0.771,0.94202l0.45068,0.50131" id="svg_9" stroke-width="5" stroke="#000000" fill="none"/> <path d="m245,196c0,1.8 0.01067,2.70006 0,3.60001c-0.01042,0.87935 -0.5415,1.38957 -1.48399,1.39999c-0.8633,0.00954 -1.75883,0 -2.71333,0c-0.09367,0 0.79733,0 1.69733,0c0.8045,0 1.8215,0 2.52083,0c0.97917,0 1.76851,0 2.8125,0c0.79201,0 1.81934,0 2.51401,0c1.01666,0 1.96877,0.168 2.85133,-0.00133c0.75648,-0.14514 0.64198,-1.29655 1.15399,-1.946c0.48456,-0.61462 0.46492,-1.69476 1.16817,-2.03185c0.78371,-0.37566 1.39107,-0.65337 2.12584,-1.04616c0.77289,-0.41316 1.52798,-0.54933 2.46799,-0.88934l0.98517,-0.08549" id="svg_10" stroke-width="5" stroke="#000000" fill="none"/> <path d="m243,209c1.2215,-0.87849 2.10001,-1 3,-1c0.8,0 1.7,0 2.60001,0c0.89999,0 1.79999,0 2.7,0c0.89999,0 1.8,0 2.7,0c0.8,0 1.7,0 2.60001,0c0.89999,0 1.79999,0 2.69998,0c0.90002,0 1.80066,0.03391 2.70001,0c0.75879,-0.02859 1.63892,-0.38748 2.34732,-0.64734c0.99973,-0.36671 1.95383,-0.30954 2.75284,-0.35283c0.78864,-0.04272 1.74829,-0.39517 2.41583,-0.80116c0.88168,-0.53621 1.58832,-1.04878 2.48401,-1.19867c0.8382,-0.14026 1.7991,-0.57843 1.93832,-1.35266c0.13232,-0.73584 -0.93875,0.14522 -1.73965,0.35133c-0.87216,0.22446 -1.509,0.61946 -2.39868,0.916c-0.85764,0.28587 -1.80084,0.04814 -2.59998,0.08533c-0.91766,0.04271 -1.41525,0.9391 -2.30002,1c-0.89786,0.0618 -1.70016,-0.01799 -2.60001,0c-0.90054,0.01801 -1.61032,0.61813 -2.5,0.91467c-0.85764,0.28587 -1.8277,-0.06071 -2.5,0.14249c-0.87527,0.26456 -1.60429,0.83853 -2.50133,0.94417c-0.97267,0.11453 -1.59123,0.51683 -2.63199,0.832c-0.7388,0.22372 -1.66667,0.16667 -2.56667,0.16667c-0.90001,0 -1.8,0 -2.70001,0c-0.89999,0 -1.7,0 -2.59999,0c-0.90001,0 -1.8,0 -2.7,0l-0.90001,0l-0.89999,0l-0.90001,0" id="svg_11" stroke-width="5" stroke="#000000" fill="none"/> <path d="m214,279c-1.41066,0.87201 -1.88533,1.60266 -2.48399,2.39868l-0.51601,0.58047l-0.51601,0.53552l-0.72682,0.72815" id="svg_12" stroke-width="5" stroke="#000000" fill="none"/> </g> </svg>