<svg width="640" height="480" xmlns="http://www.w3.org/2000/svg" xmlns:svg="http://www.w3.org/2000/svg"> <!-- Created with SVG-edit - http://svg-edit.googlecode.com/ --> <g> <title>Layer 1</title> <path d="m211.090881,117.090881c1.699997,0.057167 2.487793,0.569489 3.321671,1.099998c0.694931,0.442116 1.357666,0.718811 2.36499,1.099998c0.556168,0.210464 1.472397,0.508904 2.480011,0.800003c0.714188,0.206329 1.451996,0.386017 2.523499,0.699997c0.980331,0.287262 1.789948,0.624405 2.52449,0.864006c0.940598,0.306816 1.732605,0.398239 2.524002,0.425331c1.11824,0.038284 1.951843,0.024681 2.761337,0.17733c0.862732,0.162689 1.497131,0.346344 2.447998,0.549339c0.994507,0.212311 1.934967,0.237862 2.877335,0.294662c0.693436,0.041794 1.63324,0.596634 2.495834,0.868004c0.792282,0.249245 1.460922,0.794891 2.220505,1.100494c0.874435,0.351807 1.632996,0.020836 2.701157,0.020836c0.857178,0 1.795425,-0.173553 2.557175,0.085335c0.887909,0.301765 1.599457,0.89666 2.5,0.914665c0.899811,0.01799 1.800171,0 2.585327,0c0.950668,0 1.716003,0 2.710175,0c0.74733,0 1.77916,0 2.72583,0c0.853317,0 1.79332,0 2.678665,0c0.878662,0 1.704498,0 2.600006,0c0.899994,0 1.801453,0.047256 2.713501,-0.004501c0.745667,-0.042313 1.738708,-0.278511 2.362488,-0.42083c0.966339,-0.220482 2.055023,-0.495506 2.782349,-0.553833c1.021271,-0.081902 1.831818,-0.078003 2.541656,-0.520836c0.709839,-0.442833 1.537415,-0.324081 2.479156,-0.520836c0.868317,-0.181412 1.446716,-1.070244 2.12085,-1.543167c0.724426,-0.508202 1.795502,-0.383232 2.374664,-0.861328c0.654358,-0.540192 0.189453,-1.881401 1.02533,-2.160339c0.667297,-0.222687 0.989563,1.106323 1,1.985672c0.010681,0.89994 -0.163696,1.857292 0.221344,2.699997c0.305786,0.669296 0.773315,1.499954 0.778656,2.400002c0.005341,0.899986 0,1.800003 0,2.699997c0,0.900009 0,1.800003 0,2.678665c0,0.825836 0,1.721344 0,2.621338c0,0.899994 0,1.800003 0,2.699997c0,0.900009 -0.001892,1.800003 0,2.557175c0.002258,0.895508 0.023468,1.786346 0.425323,2.606827c0.426086,0.869949 0.574677,1.736008 0.574677,2.636002c0,0.800003 0,1.699997 0,2.600006c0,0.899994 -0.135742,1.810333 0,2.695496c0.111969,0.730072 0.971405,1.060211 1,1.904495c0.030457,0.89949 0,1.800003 0,2.600006c0,0.899994 -0.009583,1.800049 0,2.699997c0.010437,0.97934 0.689209,1.158508 1.479156,1.520828c0.730682,0.335144 0.849365,1.577271 1.720856,1.893845c0.849701,0.30867 2.03241,0.519592 2.633331,-0.081345c0.600922,-0.600922 0.375183,-1.576706 1.166656,-2c0.748779,-0.400467 1.399048,-0.914322 2.052673,-1.480667c0.600189,-0.52005 0.956238,-1.208939 1.557983,-1.952667c0.528412,-0.653091 1.510498,-1.013535 2.104004,-1.483994c0.738556,-0.585449 1.070923,-1.357956 1.570679,-2.11467c0.40213,-0.608917 1.236969,-0.946671 1.77182,-1.448669c0.517487,-0.485718 1.466431,0.107742 2.238342,0.594666c0.702454,0.443115 1.479309,0.989273 1.700012,1.757172c0.247375,0.860672 0.004486,1.795502 0.004486,2.695496c0,0.900009 0,1.800003 0,2.700012c0,0.899994 0,1.699997 0,2.614655c0,0.896011 0.002258,1.785339 0,2.685333c-0.002258,0.895523 -0.589081,1.510468 -0.878662,2.264343c-0.317566,0.826797 -0.138855,1.670044 -0.405334,2.649002c-0.233459,0.857666 -0.221893,1.920288 -0.937347,2.565155c-0.597473,0.538528 -0.99646,1.089752 -1.353333,1.721512c-0.475983,0.842606 -0.402039,1.774887 -0.925323,2.399994c-0.499756,0.597031 -1.170074,1.109482 -1.584015,1.801331c-0.475861,0.795334 -1.275848,1.206223 -1.941315,1.773331c-0.597076,0.50882 -1.134613,1.296799 -1.97467,1.425339c-0.795258,0.121689 -1.582062,0.612747 -2.399994,0.97467c-0.783234,0.346573 -1.472015,0.964417 -2.304504,1.02533c-0.893127,0.065353 -1.795502,0 -2.695496,0c-0.899994,0 -1.800018,0 -2.699829,0c-0.874847,0 -1.716309,0.025604 -2.28952,0.861328c-0.414185,0.603851 -0.304718,1.674103 -0.621338,2.528c-0.272064,0.733719 -0.983978,1.221298 -0.989319,2.110672c-0.005402,0.899979 0,1.800003 0,2.699997c0,0.899841 -0.131378,1.719772 -0.574677,2.446671c-0.470795,0.771973 -0.371918,1.7435 -0.777985,2.596161c-0.38562,0.809738 -0.646667,1.557175 -0.647339,2.457169c-0.000671,0.900009 0.070557,1.733368 -0.221344,2.62117c-0.278168,0.846039 -0.768219,1.657806 -0.778656,2.480164c-0.011383,0.89859 -0.167175,1.625732 -0.716003,2.282669c-0.516907,0.618713 -1.0289,1.453705 -1.247986,2.315994c-0.222961,0.877533 -0.202667,1.766678 -0.536011,2.600006c-0.333344,0.833328 -0.319611,1.661209 -0.520844,2.520828c-0.220581,0.942276 -0.829285,1.583466 -0.979156,2.479172c-0.140228,0.838181 -0.81427,1.3311 -1.221344,2.100006c-0.401031,0.757523 -0.770233,1.517792 -1.203979,2.299988c-0.454773,0.820145 -0.376495,1.76059 -0.741333,2.600006c-0.297546,0.684555 -1.030731,1.465759 -1.833344,1.833328c-0.742706,0.340149 -1.711517,0.052078 -2.635986,0.202667c-0.87204,0.142044 -1.50351,0.658997 -2.478668,0.878677c-0.867706,0.195465 -1.685333,0.085327 -2.718689,0.085327c-0.777313,0 -1.666656,0 -2.56665,0c-0.900009,0 -1.800003,0 -2.700012,0c-0.899994,0 -1.738495,0.209442 -2.599991,-0.057159c-0.86618,-0.268036 -1.200607,-1.273758 -1.725342,-1.917511c-0.520264,-0.638275 -0.498795,-1.500824 -0.927322,-2.325333c-0.441483,-0.849411 -1.0448,-1.369659 -1.563339,-1.985336c-0.560486,-0.665482 -0.826279,-1.379547 -1.483994,-2.12532c-0.638397,-0.723877 -0.966263,-1.435349 -1.400009,-2.105347c-0.567886,-0.877213 -1.362549,-1.49086 -2.02533,-1.883987c-0.686478,-0.407166 -1.477386,-0.8526 -1.973328,-1.485336c-0.679306,-0.866669 -0.694672,-1.640366 -1.212006,-2.540009c-0.410492,-0.713852 -0.956635,-1.333588 -1.425339,-1.974655c-0.569519,-0.778976 -1.219543,-1.199402 -1.762665,-2.084c-0.408813,-0.665848 -0.439667,-1.830276 -1.08667,-2.432007c-0.637115,-0.592529 -1.415787,-0.787369 -2.114655,-1.483994c-0.600967,-0.599045 -1.180237,-1.192322 -1.600006,-2.100006c-0.366974,-0.793533 -0.581863,-1.661942 -1.221329,-2.378662c-0.535904,-0.600632 -1.104797,-1.158005 -1.494675,-1.921341c-0.384537,-0.752884 -0.447189,-1.610672 -1,-2.198669c-0.45134,-0.480057 -0.827576,-1.226166 -1.505325,-1.87999c-0.578506,-0.558075 -0.61496,-1.378632 -1,-2.221344c-0.305801,-0.669296 -0.7603,-1.523392 -1.20401,-2.299988c-0.413681,-0.724045 -0.53746,-1.600876 -0.574661,-2.400009c-0.042709,-0.917633 -1.1922,-0.732849 -1.833328,-1.366669c-0.604355,-0.597473 -0.26944,-1.623291 -0.666672,-2.333328c-0.49678,-0.887985 -0.893051,-1.643585 -1.216003,-2.38533c-0.388092,-0.891342 -0.283325,-1.630676 -0.283997,-2.667999c-0.000565,-0.882675 0.138428,-1.91449 -0.283997,-2.64534c-0.451981,-0.781998 -0.354828,-1.602249 -0.751999,-2.365326c-0.395233,-0.759354 -0.963333,-1.237335 -0.964005,-2.136002c-0.000671,-0.900009 0,-1.800003 0,-2.699997c0,-0.900009 0,-1.800003 0,-2.699844c0,-0.900162 0,-1.701492 0,-2.600159c0,-0.900009 0,-1.800003 0,-2.699997c0,-0.900009 0,-1.800003 0,-2.700012c0,-0.899994 -0.126419,-1.67627 -0.574661,-2.5c-0.42984,-0.789917 -0.424744,-1.721329 -0.425339,-2.574661c-0.000671,-0.940002 -0.220596,-1.792023 -0.574661,-2.425339c-0.481506,-0.861267 -0.32988,-1.844528 -0.709335,-2.599991c-0.435577,-0.867203 -0.713745,-1.499985 -0.716003,-2.442841c-0.002213,-0.926498 0.000092,-1.709 0,-2.731827c-0.000092,-0.946671 0.139038,-1.672272 -0.221329,-2.603836c-0.300903,-0.777832 -0.76825,-1.521317 -0.778671,-2.421494c-0.010361,-0.895447 0.080154,-1.82518 -0.000168,-2.700012c-0.083694,-0.911423 -0.800018,-1.552597 -0.979004,-2.399994c-0.18605,-0.880806 -0.020828,-1.800003 -0.020828,-2.699997c0,-0.900002 0,-1.800003 0,-2.600006l0,-0.914665l0,-0.895996" id="svg_3" stroke-linecap="null" stroke-linejoin="null" stroke-dasharray="null" stroke-width="5" stroke="#000000" fill="none"/> <path d="m214.090881,158.090881c-1.699997,0 -2.600006,0 -3.5,0c-0.979172,0 -1.857162,0 -2.699997,0c-0.900009,0 -1.800003,0 -2.600006,0c-0.899994,0 -1.890549,-0.407898 -2.763992,0c-0.615433,0.287415 -0.436005,1.399994 -0.436005,2.300003c0,0.899994 0,1.800003 0,2.699997c0,0.800003 0,1.699997 0,2.600006c0,0.899994 0,1.789322 0,2.685333c0,0.914658 -0.047791,1.815933 0,2.714661c0.042725,0.803406 0.405182,1.557526 0.97467,2.389328c0.455063,0.664688 0.68158,1.300934 1.046158,2.089844c0.356308,0.771011 1.07785,1.209534 1.780502,1.604828c0.81694,0.459595 1.529755,0.959137 2.223999,1.490662c0.643494,0.492676 1.656464,0.101334 2.453842,0.446167c0.713928,0.308746 1.225311,0.976913 2.120834,0.979172c0.899994,0.002258 1.799988,0 2.699997,0l0.899994,0l0.900009,0" id="svg_4" stroke-linecap="null" stroke-linejoin="null" stroke-dasharray="null" stroke-width="5" stroke="#000000" fill="none"/> <path d="m229.090881,151.090881c0.057159,-1.647339 0.92482,-1.614441 1.642838,-2.057159c0.736374,-0.454041 0.789108,-1.637085 1.74649,-1.906845c0.863129,-0.24321 1.859131,0.117538 2.610672,-0.202667c0.781189,-0.33284 1.499817,-0.822906 2.399994,-0.833328c0.895447,-0.010361 1.821503,0 2.700012,0c0.899994,0 1.830383,-0.393005 2.614655,0.085327c0.803528,0.490082 1.284012,1 1.285339,1.914673l0,0.800003l0.085327,0.914658" id="svg_5" stroke-linecap="null" stroke-linejoin="null" stroke-dasharray="null" stroke-width="5" stroke="#000000" fill="none"/> <path d="m255.090881,146.090881c1.799988,0 2.620026,0.002701 3.399994,-0.425339c0.821747,-0.450974 1.346252,-1.017288 1.821503,-1.796158c0.355804,-0.583084 1.187073,-1.166138 1.694489,-1.977173c0.458862,-0.733414 1.284027,-0.801331 2.184021,-0.801331c0.899994,0 1.699982,0 2.600006,0c0.899994,0 1.706238,0.096359 2.352661,0.647339c0.604401,0.515152 0.947327,1.352661 0.947327,2.152664c0,0.899994 -0.363739,1.888306 0.020844,2.679169c0.355011,0.730103 1.015167,1.09549 1.626495,1.573502l0.352661,0.475327" id="svg_6" stroke-linecap="null" stroke-linejoin="null" stroke-dasharray="null" stroke-width="5" stroke="#000000" fill="none"/> <path d="m230.090881,154.090881c1.800003,0 2.699997,0 3.600006,0c0.799988,0 1.699997,0 2.599991,0c0.900009,0 1.899841,0 2.74733,0c0.757172,0 1.439835,-0.314484 2.219345,-0.833328c0.707458,-0.470871 1.633331,-0.166672 2.533325,-0.166672c0.900009,0 1.800003,-0.002258 2.699997,0c0.895523,0.002258 1.582001,0.43544 1.600006,1.300003c0.018738,0.899796 0,1.800003 0,2.699997c0,0.800003 0.469131,1.824997 0,2.642838c-0.352005,0.613663 -1.513,0.215073 -2.399994,0.367828c-0.833145,0.143478 -1.586319,0.901428 -2.300003,0.984833c-0.893936,0.104462 -1.800003,0.004501 -2.699997,0.004501c-0.895508,0 -1.885345,0 -2.700012,0c-0.899994,0 -1.699997,0 -2.599991,0c-0.900009,0 -1.729675,-0.173615 -2.352676,-0.647339c-0.714844,-0.543564 -1.032654,-1.068665 -1.825821,-1.574158l-0.121506,-0.87851" id="svg_7" stroke-linecap="null" stroke-linejoin="null" stroke-dasharray="null" stroke-width="5" stroke="#000000" fill="none"/> <path d="m260.090881,153.090881c0.97467,-1.010666 1.546234,-1.747009 2.389343,-1.964005c0.868408,-0.223495 1.908539,0.123352 2.557983,-0.388657c0.614624,-0.484558 1.352661,-0.647339 2.252686,-0.647339c0.899994,0 1.799988,0 2.599976,0c1.033356,0 1.81073,-0.00946 2.700012,0c0.979309,0.010422 1.494659,0.574615 1.5,1.520828c0.004974,0.87915 0,1.779175 0,2.679169c0,0.900009 0.376801,1.97998 -0.166656,2.633331c-0.573975,0.690033 -1.241333,0.875183 -1.833344,1.645844c-0.46814,0.609406 -1.520844,0.520828 -2.399994,0.520828c-0.899994,0 -1.800018,0 -2.700012,0c-0.899994,0 -1.699982,0 -2.600006,0c-0.899994,0 -1.864441,0.321915 -2.689331,-0.010666c-0.763702,-0.307907 -0.610657,-1.425339 -0.610657,-2.289337l0,-0.899994l0,-0.900009" id="svg_8" stroke-linecap="null" stroke-linejoin="null" stroke-dasharray="null" stroke-width="5" stroke="#000000" fill="none"/> <path d="m249.090881,168.090881c-1,0 -1.743378,0.208557 -2.166672,1c-0.400467,0.748779 -0.680908,1.514343 -0.843994,2.399994c-0.153107,0.831436 -0.878586,1.590454 -0.988007,2.400009c-0.120804,0.893768 -0.687531,1.62236 -0.944168,2.5c-0.253113,0.865555 -0.057159,1.799835 -0.057159,2.647324c0,0.854004 0,1.75267 0,2.652679c0,0.899994 -0.008926,1.805557 0.5,2.399994c0.506363,0.591446 1.204483,0.997742 2.100006,1c0.899994,0.002258 1.83226,0.279953 2.752655,-0.004501c0.717514,-0.221756 1.096695,-1.13385 1.731339,-1.711502c0.646652,-0.588593 1.27507,-1.319931 1.890671,-0.858658c0.623077,0.466873 1.013382,1.389084 1.729828,1.57016c0.965164,0.243927 1.895538,0.009903 2.795502,0.004501c0.889404,-0.005341 1.176117,-0.562027 1.510681,-1.425339c0.272736,-0.703766 0.983978,-1.185287 0.989319,-2.074661c0.00589,-0.979156 0,-1.857162 0,-2.699997c0,-0.900009 0,-1.800003 0,-2.600006c0,-0.899994 0.423706,-1.915924 -0.036011,-2.763992c-0.356598,-0.657837 -1,-1.010666 -1.679993,-1.520004l-0.282654,-0.717331l-0.08667,-0.91333" id="svg_10" stroke-linecap="null" stroke-linejoin="null" stroke-dasharray="null" stroke-width="5" stroke="#000000" fill="none"/> <path stroke="#000000" d="m245.090881,195.566406c1,-0.754898 1.800003,-0.754898 2.699997,-0.754898c0.863998,0 1.820831,0.001663 2.699997,0c0.895523,-0.001709 1.40686,-0.506195 2.120834,-0.739182c0.80722,-0.263428 1.779175,-0.015717 2.679169,-0.015717c0.900009,0 1.800003,0 2.599991,0c1.033356,0 1.810669,0 2.700012,0c0.899994,0 1.799988,0 2.700012,0c0.899994,0 1.800842,-0.028076 2.599976,0c0.917664,0.032242 1.200012,0.754898 1.200012,1.358826c0,0.679398 0,1.35881 0,2.038223c0,0.679413 0.257782,1.560608 -0.425323,1.860077c-0.744385,0.32637 -1.605927,0.281509 -2.374664,0.567688c-0.845245,0.314667 -1.800018,0.214386 -2.700012,0.214386c-0.899994,0 -1.795502,0 -2.666656,0c-0.93335,0 -1.833344,0 -2.633331,0c-0.900009,0 -1.800018,0 -2.700012,0c-0.899994,0 -1.800003,0 -2.699997,0c-0.899841,0 -1.747818,0.021866 -2.601334,0c-0.842957,-0.021576 -1.198669,-0.6633 -1.198669,-1.286728c0,-0.67601 0,-1.355423 0,-2.034836l-0.004501,-0.67601" id="svg_11" stroke-linecap="null" stroke-linejoin="null" stroke-dasharray="null" stroke-width="5" fill="none"/> <path d="m211.090881,114.090881c0,-1.800003 0.057587,-2.64212 0.801331,-3.084c0.699066,-0.415337 1.525192,-0.692879 2.397339,-0.917336c0.800903,-0.206116 1.321976,-0.988243 2.190659,-0.998665c0.943939,-0.011322 2.049805,0.290169 2.538666,-0.435997c0.481888,-0.715813 0.507446,-1.545998 1.372009,-1.564003c0.899796,-0.018738 1.800003,0 2.699997,0c0.800003,0 1.699997,0 2.600006,0c0.899994,0 1.823242,-0.213234 2.789322,0c0.658829,0.145416 1.084381,0.749474 1.906174,1.004501c0.763077,0.236809 1.315125,0.990166 2.18367,0.995499c0.877975,0.005394 1.979706,-0.181595 2.495499,0.435997c0.527878,0.63208 1.009796,1.515442 1.825333,1.562668c0.801773,0.046432 1.413223,-0.787018 1.957169,-1.293335c0.785355,-0.731026 1.590149,-0.698387 2.606827,-0.70533c0.935989,-0.006393 1.680557,-0.311043 2.436005,-0.716003c0.755966,-0.405235 1.61882,-0.700447 2.115997,-1.482666c0.46492,-0.731453 0.756439,-1.298119 1.094666,-2.190666c0.277298,-0.731758 1.208099,-0.995232 1.705338,-1.694664c0.555664,-0.781631 0.283997,-1.716003 0.283997,-2.55883c0,-0.931839 -0.11174,-2.090622 0.610672,-2.346504c0.818726,-0.289993 1.377411,0.803574 2.093826,0.984833c0.868164,0.21965 1.916428,-0.000893 2.320831,0.615166c0.483093,0.735939 1.464859,1.009262 1.917511,1.746506c0.492004,0.801361 0.473663,1.627319 1.057159,2.14283c0.637878,0.56356 1.206421,1.061867 1.878662,1.721336c0.618042,0.606277 1.32135,0.778664 2.221344,0.778664c0.899994,0 1.699982,0 2.600006,0c0.899994,0 1.799988,0 2.699982,0c0.899994,0 1.798676,0 2.684021,0c0.915985,0 1.715973,0 2.615997,0c0.899994,0 1.909271,-0.167282 2.59549,0.35717c0.750244,0.57338 1.212708,1.249626 1.647339,1.995499c0.438385,0.752296 0.057159,1.74733 0.057159,2.647331c0,0.800003 -0.41272,1.823425 0.057159,2.64283c0.39444,0.687843 0.942841,1.35717 0.942841,2.157173l0,0.899994l0,0.900002" id="svg_12" stroke-linecap="null" stroke-linejoin="null" stroke-dasharray="null" stroke-width="5" stroke="#000000" fill="none"/> </g> </svg>