<svg width="640" height="480" xmlns="http://www.w3.org/2000/svg" xmlns:svg="http://www.w3.org/2000/svg"> <!-- Created with SVG-edit - http://svg-edit.googlecode.com/ --> <g> <title>Layer 1</title> <path d="m312,180c-0.01068,1.81467 -0.44034,2.60031 -0.87866,3.44284c-0.3493,0.67142 -0.40274,1.67577 -0.82584,2.30983c-0.49097,0.73573 -0.90454,1.45348 -1.39532,2.44733c-0.29498,0.59734 -0.64886,1.39261 -0.85202,2.409c-0.13171,0.65895 -0.35666,1.73433 -0.758,2.69633c-0.29306,0.70244 -0.6423,1.38921 -1.1235,2.36134c-0.41425,0.83687 -0.68478,1.36746 -1.05066,2.27199c-0.46051,1.13847 -0.60593,1.60242 -0.952,2.61601c-0.18735,0.54866 -0.3801,1.12225 -0.76532,2.336c-0.40439,1.2742 -0.60001,1.93005 -0.79736,2.592c-0.1983,0.66505 -0.39587,1.33054 -0.76532,2.65601c-0.1814,0.65079 -0.35956,1.28973 -0.66934,2.528c-0.29102,1.16327 -0.41452,1.72787 -0.54132,2.28267c-0.25168,1.10109 -0.36639,1.65881 -0.79199,3.38399c-0.15057,0.61037 -0.3165,1.23489 -0.48602,1.87201c-0.17178,0.64555 -0.52286,1.94377 -0.69464,2.58932c-0.16953,0.63712 -0.48929,1.87122 -0.76868,3.03334c-0.1329,0.5528 -0.37958,1.61061 -0.50934,2.11467c-0.25012,0.97157 -0.52237,1.89774 -0.85867,2.76933c-0.32327,0.83784 -0.68564,1.60776 -1.03198,2.31599c-0.4559,0.93225 -0.84772,1.70015 -1.28268,2.56934c-0.40106,0.80147 -0.76212,1.59207 -1.30115,2.38116c-0.50732,0.74268 -0.98965,1.4133 -1.54752,2.07417c-0.49512,0.58655 -0.81308,1.47093 -1.29999,2.24283c-0.44308,0.70244 -1.18167,1.16833 -1.70001,1.75717c-0.57266,0.65056 -0.91464,1.4157 -1.29999,2.24733c-0.40399,0.87186 -0.69766,1.52986 -1.10535,2.39999c-0.40091,0.8557 -0.94733,1.46667 -1.44733,2.3c-0.5,0.83333 -1.0361,1.31224 -1.37866,2.32117c-0.26703,0.78645 -0.75195,1.3819 -1.10049,2.19966c-0.34479,0.80901 -0.02094,1.77917 -0.02084,2.67918c0.00009,0.89999 0.20761,1.77411 0.57468,2.39999c0.45248,0.77151 0.77509,1.70685 1.42532,2.39999c0.47382,0.50507 0.79538,1.37283 1.28534,2.20001c0.40329,0.68085 1.16904,1.36261 1.91467,1.71597c0.85886,0.40704 1.44614,0.8483 2.19998,1.47336c0.65747,0.54514 1.56454,0.83875 2.23599,1.18533c0.81229,0.41931 1.74518,0.39099 2.61136,0.77798c0.66928,0.29901 1.61603,0.47922 2.586,0.814c0.68701,0.23712 1.48743,0.72455 2.33331,1c0.85342,0.27792 1.67224,0.64508 2.45868,0.85867c0.86545,0.23505 1.69171,0.73892 2.62201,0.91751c0.90457,0.17365 1.78415,-0.0459 2.586,0.22382c0.84442,0.28403 1.64932,0.78137 2.37732,0.82266c0.98764,0.05603 1.76849,0.01068 2.76782,0.01068c1.02151,0 1.77869,0 2.67419,0c0.86331,0 1.82648,0 2.74731,0c0.89999,0 1.80002,0 2.70016,0c0.78519,0 1.74332,0.08871 2.41583,-0.08533c1.03375,-0.26755 1.80826,-0.77792 2.48401,-0.91467c0.98346,-0.19901 1.73029,-0.7254 2.65268,-0.94733c0.68307,-0.16437 1.67303,-0.5918 2.51398,-0.88602c0.80215,-0.28064 1.64752,-0.37289 2.45868,-0.74133c0.84085,-0.38193 1.55399,-0.3287 2.62201,-0.42981c0.92935,-0.08798 1.54611,-0.5108 2.586,-0.82886c0.67206,-0.20554 1.70978,-0.14999 2.41733,-0.17734c0.74487,-0.02878 1.90497,-0.3981 2.54666,-0.70532c0.86896,-0.41602 1.65173,-0.89136 2.50717,-1.23132c0.82672,-0.32855 1.49545,-0.54739 2.52884,-0.88602c0.74121,-0.24289 1.52521,-0.70853 2.33331,-1c0.79944,-0.28833 1.79172,-0.42798 2.45868,-0.74133c0.83633,-0.39291 1.76483,-0.37192 2.61749,-0.77798c0.80972,-0.38562 1.5726,-0.5235 2.51434,-0.7045c0.92606,-0.17798 1.57788,-0.62985 2.49017,-0.89017c0.90884,-0.25934 1.55078,-0.55301 2.586,-0.88602c0.77579,-0.24954 1.64362,-0.46805 2.34131,-0.74133c0.93115,-0.36475 1.78363,-0.65927 2.52536,-1.07266c0.76367,-0.42563 1.53607,-0.8186 2.39999,-1.23132c0.85266,-0.40732 1.46512,-0.77631 2.31067,-1.09601c0.88269,-0.33376 1.6109,-0.54463 2.58932,-1.02533c0.78995,-0.38809 1.5307,-0.66818 2.37466,-0.98534c0.80978,-0.30431 1.45743,-0.86893 1.97266,-1.3665c0.77765,-0.75096 1.58865,-1.12805 2.2955,-1.70084c0.73041,-0.59187 1.38986,-1.07294 1.95718,-1.558c0.7467,-0.63844 1.19965,-1.18967 1.89999,-1.88933c0.69968,-0.69901 1.48102,-0.93086 2.14282,-1.55267c0.6041,-0.5676 0.54559,-1.67502 0.32117,-2.54733c-0.22287,-0.86621 -1.03683,-1.34146 -1.564,-2.07199c-0.58765,-0.81435 -0.79437,-1.59665 -1.03598,-2.11334c-0.49759,-1.0641 -1.01416,-1.76779 -1.57468,-2.43999c-0.38586,-0.46272 -1.20377,-1.46298 -1.63202,-2.08534c-0.51233,-0.74455 -0.78812,-1.19266 -1.09866,-1.688c-0.73032,-1.16487 -1.1452,-1.85202 -1.60266,-2.60133c-0.4939,-0.80901 -1.02048,-1.67384 -1.58099,-2.58749c-0.58878,-0.95972 -1.20441,-1.96016 -1.85101,-2.99249c-1.3512,-2.1572 -2.06479,-3.26344 -2.79065,-4.38535c-0.73245,-1.13211 -1.47278,-2.26436 -2.21249,-3.39299c-0.73364,-1.11937 -1.45944,-2.22128 -2.16751,-3.30301c-1.35541,-2.07063 -1.99066,-3.05138 -2.59601,-3.99733c-0.58325,-0.91144 -1.14145,-1.79561 -1.67398,-2.658c-0.51807,-0.83899 -1.01801,-1.6622 -1.49402,-2.478c-0.93317,-1.59926 -1.37112,-2.40327 -1.80267,-3.20399c-0.42847,-0.79497 -0.84299,-1.58914 -1.245,-2.38051c-0.39795,-0.78334 -0.78369,-1.56187 -1.155,-2.33549c-0.72723,-1.51521 -1.06842,-2.26262 -1.39999,-3.00267c-0.3284,-0.73299 -0.64517,-1.46588 -0.94501,-2.20349c-0.30017,-0.73842 -0.59003,-1.48544 -0.85498,-2.2485c-0.54062,-1.55699 -0.76965,-2.37157 -1.00134,-3.19467c-0.23267,-0.82658 -0.44983,-1.65454 -0.66449,-2.4735c-0.21066,-0.80371 -0.40982,-1.58746 -0.61951,-2.3385c-0.38922,-1.3941 -0.59561,-2.01843 -0.80002,-2.59734c-0.19162,-0.54269 -0.3884,-1.04758 -0.58047,-1.52249c-0.18271,-0.45171 -0.36694,-0.88034 -0.53552,-1.2975c-0.32498,-0.80415 -0.46637,-1.20569 -0.60132,-1.60533c-0.13373,-0.39604 -0.25793,-0.79092 -0.384,-1.18051c-0.1246,-0.38507 -0.24612,-0.76602 -0.384,-1.1355c-0.26996,-0.72351 -0.43451,-1.06569 -0.60001,-1.40399c-0.16586,-0.33907 -0.34332,-0.67635 -0.51599,-1.02301c-0.17667,-0.35468 -0.3573,-0.72113 -0.51599,-1.11299c-0.3389,-0.83693 -0.48254,-1.30466 -0.72235,-2.31233c-0.12564,-0.52791 -0.32477,-1.62761 -0.39999,-2.18933c-0.22412,-1.67336 -0.25055,-2.22142 -0.3045,-3.28201c-0.02618,-0.51477 -0.05045,-1.51497 -0.05582,-2.47499c-0.00516,-0.91998 0.00595,-1.80014 -0.01202,-2.64c-0.01712,-0.80022 -0.03369,-1.56602 -0.21066,-2.62517c-0.16586,-0.99263 -0.40735,-1.60056 -0.612,-2.8215c-0.14914,-0.88976 -0.15512,-1.479 -0.16531,-2.31467c-0.01505,-1.23257 -0.00134,-1.91066 -0.00134,-3.10651c0,-0.79349 0,-1.569 0,-2.60815c0,-0.76801 0,-1.72784 0,-2.62334c0,-0.69467 0,-1.71133 0,-2.64734c0,-0.90266 0,-1.67067 0,-2.70982c0,-0.77551 0,-1.8235 0,-2.5285c0,-0.8 0,-1.847 0,-2.795c0,-0.67651 0,-1.452 0,-2.74534c0,-0.696 0,-1.60533 0,-2.60667c0,-0.8355 0,-1.41917 0,-2.61433c0,-0.879 0,-1.686 0,-2.731l0,-0.7175l0,-0.9045l0,-0.86333" id="svg_1" stroke-width="5" stroke="#000000" fill="none"/> <path d="m382,77c1,-1.16666 1.62845,-1.62649 2.10016,-2.32133c0.44849,-0.66062 1.05252,-1.52946 1.72519,-2.05333c0.67703,-0.52728 1.29468,-1.10786 1.79999,-1.83601c0.54568,-0.78632 1.02182,-1.3987 1.58533,-1.98933c0.77579,-0.81314 1.39886,-1.41317 1.85184,-1.84167c0.50461,-0.47735 1.43451,-1.29522 2.19351,-1.929c0.41388,-0.3456 1.30609,-1.0715 1.776,-1.45067c0.48108,-0.38817 1.9679,-1.57879 2.46848,-1.979c0.50342,-0.40246 1.01242,-0.8094 1.53152,-1.221c1.07477,-0.85219 1.63852,-1.29425 2.224,-1.74933c1.24191,-0.96532 1.90784,-1.47256 2.59732,-1.99867c0.70886,-0.5409 1.43362,-1.09162 2.16751,-1.6515c0.73947,-0.56412 1.4798,-1.12909 2.21249,-1.6965c1.43622,-1.11226 2.12384,-1.66061 2.79599,-2.19466c0.65652,-0.52162 1.29691,-1.03293 1.92902,-1.5255c0.61862,-0.48205 1.22687,-0.95164 1.83899,-1.3905c1.19159,-0.85433 1.79819,-1.23604 2.40268,-1.59867c0.59564,-0.35732 1.19589,-0.68803 1.79999,-0.99c0.5961,-0.29797 1.19473,-0.57306 1.79999,-0.81c1.19019,-0.46592 1.79364,-0.65472 3,-0.9545c0.59711,-0.14838 1.19696,-0.27593 2.40002,-0.45267c0.59863,-0.08794 1.7991,-0.21436 2.99866,-0.2795c0.59647,-0.03239 1.19077,-0.05522 2.36533,-0.04c0.57898,0.0075 1.15369,0.00682 2.81433,0.175c0.53619,0.05431 1.57675,0.21621 2.08002,0.32c0.98367,0.20287 2.37784,0.61708 2.82016,0.77983c0.87018,0.32018 1.70352,0.69329 2.517,1.083c0.4046,0.19384 1.6069,0.79092 2.40451,1.2c0.80246,0.41157 1.60364,0.84635 2,1.08083c1.21204,0.71703 2.01248,1.27333 2.43198,1.55067c0.87393,0.57779 1.33365,0.87827 1.82401,1.16533c1.59018,0.93091 2.19861,1.20287 2.81552,1.50317c0.63504,0.30912 1.29105,0.6162 1.96048,0.9315c0.68158,0.32103 1.37711,0.63901 2.76801,1.33067c0.70276,0.34947 1.40182,0.71639 2.10449,1.086c0.70667,0.37172 1.41531,0.74934 2.1315,1.122c0.72012,0.37469 1.44159,0.75753 2.93066,1.45866c0.75085,0.35355 1.5163,0.68507 2.28601,1.014c0.77164,0.32975 1.54785,0.65146 2.32199,0.978c0.77319,0.32613 1.54883,0.64229 3.05869,1.34134c0.74893,0.34675 1.48349,0.71446 2.2095,1.0905c0.72333,0.37466 1.43762,0.76128 2.14648,1.1535c0.70749,0.39146 1.40967,0.79005 2.81067,1.58933c0.70001,0.39936 1.39774,0.79899 2.09549,1.191c0.69293,0.38931 1.38181,0.77077 2.06851,1.137c0.67703,0.36107 1.34216,0.71925 2.66934,1.33866c0.64148,0.29939 1.28101,0.57275 2.552,1.08267c0.63403,0.25437 1.27661,0.49976 1.9245,0.756c0.66013,0.26107 2.02563,0.82314 2.73248,1.13766c0.72522,0.3227 1.45679,0.66572 2.18701,1.029c0.73181,0.36407 1.45193,0.74226 2.151,1.137c0.68494,0.38677 1.96951,1.16821 3.077,1.98833c0.51743,0.38318 0.99179,0.77687 1.43851,1.161c0.83618,0.71905 1.9339,1.71266 2.28232,1.9985c0.64908,0.53249 1.54398,1.17931 2.04984,1.55517c0.96698,0.71848 1.56934,1.28667 2.272,1.96716l0.69867,0.43684" id="svg_2" stroke-width="5" stroke="#000000" fill="none"/> <path d="m326,70c-0.83334,-1.33334 -0.82965,-2.07704 -1.2215,-2.9785c-0.34464,-0.79285 -1.13879,-1.28036 -1.7785,-2.18816c-0.44388,-0.62992 -0.82443,-1.33335 -1.2955,-2.08067c-0.56796,-0.90104 -0.62091,-1.61745 -0.87384,-2.43933c-0.31607,-1.02702 -0.68723,-1.54153 -1.1825,-2.36066c-0.47693,-0.78878 -0.8616,-1.52993 -1.34549,-2.178c-0.74014,-0.99126 -1.35181,-1.4665 -2,-2.01067c-0.69284,-0.58167 -1.0719,-0.85324 -2.13602,-1.764c-0.69116,-0.59154 -1.01892,-0.89931 -1.66666,-1.52083c-0.65775,-0.63111 -1.66473,-1.64777 -2.02167,-2.00017c-0.73605,-0.72668 -1.10928,-1.10143 -1.92499,-1.78167c-0.40738,-0.33971 -1.71072,-1.21623 -2.17468,-1.43267c-0.91458,-0.42664 -1.87589,-0.69342 -2.35333,-0.79667c-0.93646,-0.20251 -2.30325,-0.35711 -3.17267,-0.41083c-0.42703,-0.02639 -1.27795,-0.05074 -2.13666,-0.05583c-1.33713,-0.00793 -2.26416,-0.00134 -2.73068,-0.00134c-0.92398,0 -1.81598,0 -3.04266,0c-0.73734,0 -1.44266,-0.00008 -2.51065,0c-1.17484,0.00008 -2.0419,0.0014 -2.49335,0.01067c-0.92413,0.01898 -1.85959,0.04247 -3.2175,0.211c-0.43991,0.0546 -1.31,0.21016 -2.1825,0.425c-0.91193,0.22455 -1.87259,0.5181 -2.90533,0.836c-0.53448,0.16452 -1.07144,0.33834 -2.14667,0.656c-0.52325,0.15459 -1.98325,0.5467 -2.836,0.69333c-0.78256,0.13456 -1.56482,0.2043 -2.388,0.336c-0.93207,0.14912 -1.99945,0.39809 -2.57333,0.54184c-0.59152,0.14816 -1.78845,0.47383 -2.37866,0.642c-0.57513,0.16388 -2.1268,0.62113 -2.991,0.8955c-0.77966,0.24753 -1.51923,0.49652 -2.65302,0.91933c-0.8371,0.31218 -1.27551,0.482 -2.16666,0.85416c-0.89825,0.37513 -1.34827,0.54833 -2.55783,1.17984c-0.76111,0.39737 -1.50758,0.87828 -1.90083,1.14333c-0.87192,0.58768 -1.87556,1.32144 -2.44817,1.74166c-0.61546,0.45168 -1.26228,0.93229 -1.9305,1.437c-0.68483,0.51726 -1.37401,1.04544 -2.0565,1.581c-0.67349,0.52848 -1.94232,1.55968 -2.52068,2.0535c-0.55086,0.47035 -1.07095,0.9323 -1.5735,1.3815c-0.97853,0.87465 -1.46158,1.31403 -1.96266,1.744c-1.04126,0.89348 -1.61186,1.3407 -2.20132,1.80267c-0.60451,0.47375 -1.22522,0.94912 -1.84801,1.4355c-0.62521,0.48827 -1.24889,0.97538 -1.84801,1.4805c-1.16562,0.98273 -2.19867,1.99076 -2.67599,2.48517c-0.46124,0.47775 -0.8913,0.95226 -1.70534,1.842c-0.38069,0.41609 -1.43594,1.52186 -2.10899,2.1c-0.60851,0.52269 -1.21274,0.94183 -1.995,1.5715c-0.72156,0.58083 -1.32521,1.20316 -2.16667,1.83334c-0.58443,0.43768 -1.23599,0.756 -2.16667,1.16666l-0.795,0.3045l-0.88499,0.3315l-0.64,0.24933" id="svg_4" stroke-width="5" stroke="#000000" fill="none"/> <path d="m411,115c1.70001,0.11433 2.27869,0.72342 2.79999,1.51733c0.48505,0.73867 1.06992,1.30587 1.86166,1.78716c0.78546,0.47747 1.75824,1.01974 2.30002,1.34817c0.57813,0.35045 1.50851,0.90211 2.56067,1.32617c0.74667,0.30093 1.16583,0.41034 2.06833,0.6825c1.03601,0.31242 2.24289,0.67127 2.91699,0.88133c0.72058,0.22455 1.48181,0.46548 2.28302,0.708c0.83344,0.25227 1.6969,0.50507 2.58899,0.744c0.91058,0.24388 2.78506,0.68195 3.74182,0.86217c0.96201,0.1812 1.93457,0.33257 2.91452,0.4605c0.9838,0.12843 1.97409,0.2319 2.96848,0.3165c0.99631,0.08475 2.9953,0.2046 3.99652,0.2445c1.00681,0.04012 2.02594,0.06505 3.06299,0.075c1.06097,0.01018 2.15207,0.00455 3.27899,-0.015c1.1691,-0.02028 3.65717,-0.10114 4.98502,-0.16c1.37619,-0.061 2.78827,-0.13541 4.224,-0.225c1.4483,-0.09037 2.89648,-0.19398 4.332,-0.315c1.41251,-0.11908 4.117,-0.39687 5.38666,-0.55984c1.2157,-0.15605 2.37842,-0.32905 3.492,-0.5145c1.07175,-0.17848 2.10135,-0.37467 3.09601,-0.5685l0.96265,-0.19683" id="svg_5" stroke-width="5" stroke="#000000" fill="none"/> <path d="m257,125c1,1.16666 1.5379,1.74715 2.41068,1.964c0.8848,0.21983 1.64044,0.07544 2.75598,-0.13066c0.79959,-0.14773 1.64484,-0.44149 2.23468,-0.63467c1.20569,-0.39487 1.84045,-0.61208 2.54266,-0.83467c0.79636,-0.25244 1.72372,-0.52711 2.79868,-0.85333c0.59109,-0.17938 1.21368,-0.37363 1.86148,-0.594c0.6763,-0.23008 2.09933,-0.74532 3.5625,-1.41666c0.76215,-0.3497 1.5242,-0.75067 2.2995,-1.1715c0.79416,-0.43106 1.59695,-0.88995 2.4165,-1.3605c0.83679,-0.48043 1.68335,-0.98266 3.45068,-1.968c0.90726,-0.50583 1.84109,-1.00564 2.79898,-1.509c0.98074,-0.51537 1.99182,-1.03432 3.03302,-1.563c1.07147,-0.54404 2.17844,-1.09908 4.50131,-2.26134c1.21957,-0.61021 2.47794,-1.23887 3.771,-1.89c1.32825,-0.66884 2.68848,-1.35779 4.07703,-2.07c1.41882,-0.72774 2.86679,-1.46971 5.81866,-3.04c1.51028,-0.80341 3.02206,-1.62555 4.52249,-2.45399c1.47958,-0.81694 2.91501,-1.62933 4.29749,-2.418l1.3125,-0.76067l1.22751,-0.72466" id="svg_6" stroke-width="5" stroke="#000000" fill="none"/> <path d="m264,313c1.60001,-0.61066 2.30429,-1.30472 2.75717,-1.75717c0.72781,-0.72717 1.23907,-1.27188 1.84415,-1.75882c0.97491,-0.78455 1.70749,-1.14395 2.25467,-1.45334c1.0098,-0.57095 1.81088,-1.04071 2.24133,-1.29199c0.89841,-0.52448 1.35379,-0.79974 2.73602,-1.57202c0.44385,-0.24799 1.31155,-0.7196 2.1875,-1.125c0.43716,-0.20233 1.33987,-0.58215 2.3125,-0.875c1.03564,-0.31183 1.60138,-0.42435 2.8125,-0.66666c0.65439,-0.13092 1.34885,-0.25357 2.0835,-0.384c1.60364,-0.28467 2.47778,-0.4375 3.39465,-0.60001c0.95282,-0.16885 1.93445,-0.34259 2.93851,-0.51599c1.01862,-0.1759 2.04501,-0.35123 3.07349,-0.51599c2.02945,-0.3251 3.02106,-0.46677 3.99869,-0.59735c0.96841,-0.12936 1.93542,-0.24542 2.90698,-0.345c0.98047,-0.10049 1.97739,-0.18872 2.99701,-0.255c2.12689,-0.13824 3.2467,-0.16946 4.39868,-0.20132c1.1777,-0.03256 2.37463,-0.05185 3.5835,-0.06448c1.21381,-0.0127 2.42566,-0.01758 3.62848,-0.0195c2.35068,-0.00375 3.48618,-0.0022 4.59467,0c1.0845,0.00217 2.14804,0.00671 3.19351,0.0195c1.03052,0.0126 2.04922,0.02994 3.0585,0.06448c2.00449,0.06863 3.00418,0.13303 4.004,0.19867c1.00021,0.06567 2,0.14133 3,0.216c1,0.07468 1.99966,0.15231 3,0.216c1.99939,0.12729 2.99988,0.1665 4,0.19867c0.99988,0.03217 1.99997,0.05182 3,0.06448c0.99997,0.01266 2,0.01758 3,0.0195c2,0.00381 3.00049,0.00134 4.004,0.00134c1.00949,0 2.02802,0 3.0585,0c1.0455,0 2.10901,0 3.19351,0c2.24399,0 3.409,0.00079 4.60397,-0.00134c1.22501,-0.00217 2.48004,-0.00702 3.76501,-0.0195c1.31503,-0.01279 2.66013,-0.0307 4.035,-0.06448c2.8403,-0.06976 4.3035,-0.13242 5.78665,-0.20001c1.49353,-0.06805 2.98685,-0.14758 4.47,-0.2355c1.46353,-0.08676 2.89697,-0.17941 4.29001,-0.28049c2.62726,-0.19064 3.84341,-0.29733 5,-0.39734c1.10675,-0.0957 2.17319,-0.19232 3.20999,-0.28049c1.01654,-0.08646 2.02289,-0.17047 3.03,-0.2355c2.05249,-0.13254 3.11673,-0.168 4.20135,-0.20001c1.09637,-0.03235 2.19595,-0.05176 3.28949,-0.06448c1.07846,-0.01257 2.133,-0.01758 3.15451,-0.0195c1.90799,-0.0036 2.77914,-0.00134 3.59732,-0.00134c0.77216,0 1.50534,0 2.20651,0c0.67615,0 1.33432,0 1.98148,0c1.28934,0 1.944,0.00082 2.60669,-0.00134c0.66867,-0.00217 1.34137,-0.00684 2.01599,-0.0195c0.67471,-0.01266 1.34763,-0.02979 2.01599,-0.06448c1.31808,-0.06845 1.96283,-0.1326 2.59866,-0.19867c0.62854,-0.06531 1.24939,-0.14102 1.8645,-0.216c0.6102,-0.07437 1.21582,-0.15216 1.81952,-0.216c1.20035,-0.12692 1.80078,-0.16641 2.39865,-0.19867c0.59348,-0.03204 1.18127,-0.05173 1.76102,-0.06448c0.56961,-0.01254 1.12732,-0.01758 1.67099,-0.0195c1.03732,-0.00366 1.52783,-0.00311 2.00134,0.00131c0.45953,0.0043 0.90826,0.01352 1.34848,0.039c0.43585,0.02524 0.87067,0.06116 1.3035,0.129c0.888,0.13919 1.34042,0.26556 1.80002,0.40002c0.46756,0.13678 0.93396,0.29611 1.39648,0.47098c0.46152,0.1745 0.91391,0.36087 1.3515,0.561c0.84177,0.38498 1.22775,0.59457 1.59866,0.79602c0.35773,0.19431 0.69885,0.39035 1.02902,0.58047c0.3205,0.18454 0.63055,0.36749 0.939,0.53552c0.59866,0.32611 0.90112,0.46643 1.19998,0.59998c0.29254,0.13074 0.58121,0.24973 0.86102,0.3645c0.2695,0.11053 0.52893,0.21259 0.771,0.31952c0.44037,0.19455 0.62973,0.29813 0.80133,0.40134c0.16132,0.09702 0.30884,0.19876 0.44849,0.29999c0.13635,0.09885 0.26773,0.20175 0.4035,0.29999c0.2814,0.20364 0.43781,0.30176 0.60266,0.40002c0.17078,0.10178 0.35013,0.20099 0.53552,0.29999c0.18927,0.10104 0.38367,0.20001 0.97916,0.5c0.59549,0.29999 1.36145,0.6723 2.11465,1.19867c0.7023,0.49081 1.70966,0.38657 2.52817,0.85849c0.68692,0.39606 1.2131,0.95218 1.95718,1.5535c0.65414,0.52866 1.19998,1.18933 1.89999,1.88934c0.60001,0.60001 1.26105,1.14474 1.88934,1.89999c0.5462,0.65659 0.73624,1.63269 1.22131,2.20001c0.63843,0.7467 1.47867,1.32712 1.95334,2c0.51837,0.7348 0.82208,1.53836 1.15201,2.19998c0.42056,0.84338 0.284,1.80002 0.284,2.70001c0,0.89999 0.10706,1.80655 -0.00134,2.70001c-0.11157,0.91962 -0.83286,1.23166 -1.56265,1.82532c-0.64908,0.52802 -0.95157,1.4798 -1.53616,2.07483c-0.65118,0.66278 -1.22116,1.22116 -1.89984,1.89984c-0.51599,0.51599 -1.24734,1.24734 -1.884,1.884c-0.60132,0.60132 -1.13684,1.13684 -1.71732,1.71732c-0.79736,0.79736 -1.37784,1.37784 -1.91336,1.91336c-0.73715,0.73715 -1.29352,1.29681 -2.02817,2.02798c-0.46594,0.46371 -1.2308,1.21988 -1.77448,1.68933c-0.74561,0.64383 -1.47433,1.08133 -2.07819,1.57333c-0.8461,0.68939 -1.40448,1.45599 -1.8045,1.98001c-0.79999,1.048 -1.17844,1.55142 -1.82083,2.19382c-0.6424,0.6424 -1.39621,1.22723 -1.94083,1.62534c-0.87772,0.6416 -1.5267,1.07843 -2.20499,1.56216c-0.72183,0.51477 -1.47446,1.06686 -2.28,1.608c-0.4122,0.27689 -1.71552,1.06717 -2.17484,1.30368c-0.92697,0.47729 -1.40845,0.69009 -2.38919,1.07498c-0.49088,0.19263 -1.98785,0.68512 -2.48932,0.82535c-0.99722,0.27884 -2.00049,0.51947 -2.5,0.64667c-1.00098,0.25491 -2.00391,0.5293 -2.99866,0.85999c-0.4989,0.16583 -1.48212,0.53146 -1.96533,0.72534c-0.95392,0.38269 -1.87134,0.78497 -2.74936,1.18802c-0.84192,0.38647 -1.63626,0.77353 -2.39999,1.116c-1.06027,0.47543 -1.73431,0.73178 -2.38666,0.98532c-0.98453,0.38266 -2.02213,0.81998 -2.75717,1.15268c-0.76431,0.34595 -1.14694,0.53757 -1.94415,0.86331c-1.18921,0.48593 -1.99222,0.73346 -2.77783,0.96317c-0.76181,0.22275 -1.85431,0.52039 -2.53952,0.72086c-1.02316,0.29932 -1.74442,0.51648 -2.98132,0.79999c-0.46246,0.10599 -1.45294,0.29861 -1.96533,0.38934c-1.02161,0.18088 -1.99567,0.33862 -3.24899,0.4895c-0.66519,0.08008 -1.53226,0.12018 -2.61902,0.4545c-0.64838,0.19946 -1.32883,0.52618 -2.052,0.85199c-0.73282,0.33017 -1.78339,0.81976 -2.77866,1.168c-0.61969,0.21683 -1.8338,0.49814 -2.43332,0.56134c-0.85867,0.09052 -1.63879,-0.02686 -2.74133,0.09601c-0.99899,0.11133 -1.65955,0.56528 -2.66135,0.82266c-0.7868,0.20215 -1.61142,0.20953 -2.39999,0.45065c-0.814,0.2489 -1.79587,0.63635 -2.60001,0.69516c-0.99756,0.07294 -1.83023,-0.00946 -2.51434,0.13516c-1.15009,0.2431 -1.80048,0.59436 -2.52731,0.90652c-0.76785,0.32977 -1.9534,0.82693 -2.75833,1.09381c-0.79541,0.2637 -1.19833,0.37076 -2,0.58084c-1.1976,0.31384 -2,0.50449 -2.80002,0.7045c-0.79999,0.19998 -1.59946,0.40222 -2.79984,0.69983c-0.79529,0.19717 -1.57632,0.39392 -2.34299,0.543c-1.08667,0.2113 -2.10852,0.31021 -2.77802,0.33633c-0.68866,0.02686 -1.8125,0.02084 -2.6485,0.02084c-0.892,0 -1.81598,0 -2.2825,0c-1.3815,0 -2.26859,0.01221 -3.15482,-0.02133c-0.9274,-0.0351 -1.42258,-0.05789 -3.06,-0.31201c-0.62103,-0.09637 -1.2717,-0.2327 -1.94852,-0.38098c-0.69791,-0.15289 -1.4072,-0.32138 -2.11951,-0.50702c-1.41779,-0.36951 -2.76675,-0.77417 -3.40131,-0.979c-0.6134,-0.198 -1.21106,-0.39545 -2.36401,-0.84131c-0.57858,-0.22375 -1.16068,-0.46655 -1.75201,-0.729c-1.9216,-0.85284 -2.6069,-1.19943 -3.32397,-1.55267c-0.74432,-0.36667 -1.50949,-0.75598 -2.29202,-1.17001c-0.80484,-0.42584 -1.62991,-0.86511 -3.29865,-1.84c-0.85965,-0.5022 -1.72333,-1.03549 -2.59952,-1.58548c-0.89316,-0.56064 -1.79715,-1.1424 -2.71649,-1.73849c-0.93701,-0.60754 -1.88818,-1.23245 -3.85068,-2.50934c-1.00891,-0.65643 -2.03864,-1.31998 -3.07648,-2.00851c-1.05423,-0.6994 -2.11722,-1.42026 -3.17551,-2.1795c-1.07288,-0.76971 -2.1647,-1.54865 -4.24802,-3.31198c-1.06168,-0.89859 -2.08365,-1.86005 -3.09598,-2.83502c-1.00903,-0.9718 -1.98788,-1.95612 -2.95203,-2.92499c-0.94318,-0.94781 -1.83981,-1.88913 -3.61865,-3.57333c-0.82565,-0.78174 -1.63864,-1.49564 -2.4285,-2.1615c-0.75836,-0.63931 -1.5069,-1.23703 -2.2395,-1.81049c-0.71646,-0.56079 -1.43472,-1.09677 -2.832,-2.19467c-0.70322,-0.55255 -1.40979,-1.12222 -2.09549,-1.74451c-0.70551,-0.64023 -1.40341,-1.34259 -2.06851,-2.1315c-0.70007,-0.83038 -1.42892,-1.73712 -2.66934,-3.95734c-0.68826,-1.23196 -1.29114,-2.59732 -1.87799,-4.02301c-0.5976,-1.45175 -1.12201,-2.93533 -1.62601,-4.401l-0.45798,-1.42966l-0.40601,-1.36768" id="svg_7" stroke-width="5" stroke="#000000" fill="none"/> <path d="m202,60c0,1.836 0,2.60133 0,3.6045c0,0.85267 0,1.81734 0,2.65283c0,0.62534 0.00226,2.07601 -0.00133,2.92c-0.00195,0.45951 -0.01718,1.46857 -0.03467,2.024c-0.01869,0.59358 -0.12776,2.63222 -0.18567,3.4075c-0.06189,0.82874 -0.13795,1.71319 -0.22501,2.6565c-0.09282,1.00571 -0.19868,2.07613 -0.315,3.2145c-0.1236,1.20964 -0.40182,3.85384 -0.56099,5.29433c-0.16864,1.52621 -0.35625,3.14296 -0.588,4.85249c-0.24568,1.81227 -0.53706,3.72925 -0.89401,5.7525c-0.37819,2.14368 -1.34761,6.79088 -1.94499,9.29967c-0.62596,2.6288 -1.32523,5.34705 -2.049,8.1465c-0.74017,2.8629 -1.50388,5.76733 -2.24701,8.7045c-0.7449,2.94418 -2.1404,8.79935 -2.74617,11.68317c-0.59525,2.83372 -1.12294,5.62814 -1.58549,8.379c-0.45345,2.69667 -0.84332,5.347 -1.17149,7.94701c-0.32079,2.5415 -0.80063,7.45982 -0.96518,9.83133c-0.16037,2.31129 -0.26859,4.56827 -0.342,6.771c-0.07166,2.15001 -0.10718,4.25061 -0.12599,6.30301c-0.01839,2.00629 -0.01903,5.88899 -0.01767,7.77c0.00133,1.847 0.00458,3.66603 0.021,5.463c0.01628,1.78104 0.0437,3.55219 0.093,5.319c0.04936,1.76921 0.21112,5.33748 0.32851,7.1465c0.11855,1.82703 0.26337,3.6673 0.41849,5.51849c0.15585,1.8598 0.32446,3.72395 0.49051,5.5905c0.16595,1.86546 0.48549,5.58119 0.62666,7.42599c0.14014,1.83121 0.2666,3.64685 0.3855,5.44351c0.11742,1.77434 0.22589,3.52397 0.3315,5.2455c0.1037,1.69046 0.30247,4.96661 0.40483,6.548c0.10036,1.55061 0.20454,3.0793 0.32101,4.5945c0.11621,1.51181 0.24486,3.02855 0.39299,4.5585c0.15047,1.55408 0.51366,4.76616 0.72833,6.43866c0.21986,1.71289 0.46114,3.45255 0.70801,5.2095c0.24777,1.76337 0.50075,3.52103 0.74399,5.26349c0.2394,1.7149 0.6778,5.01981 0.86234,6.59134c0.17792,1.5152 0.33275,2.98126 0.47101,4.4025c0.13429,1.38046 0.25262,2.72653 0.36299,4.04251c0.10825,1.29068 0.30803,3.8176 0.40918,5.06216c0.10019,1.23276 0.20151,2.45157 0.31049,3.65399c0.10739,1.18491 0.22054,2.34985 0.34651,3.492c0.12344,1.1192 0.40288,3.27701 0.56433,4.31134c0.15739,1.00836 0.33067,1.98959 0.5145,2.94598c0.17995,0.93628 0.37152,1.85135 0.5685,2.74802c0.19376,0.88199 0.59401,2.60437 0.79567,3.44916c0.19969,0.83655 0.40173,1.66501 0.6105,2.4855c0.20757,0.81583 0.42169,1.62634 0.6465,2.43149c0.22455,0.8042 0.70468,2.40607 0.96449,3.20416c0.26018,0.79926 0.53429,1.59344 0.82501,2.37903c0.28932,0.7818 0.59319,1.55219 0.91499,2.30698c0.3183,0.74658 0.9969,2.18524 1.36017,2.87134c0.35823,0.67661 0.73656,1.33347 1.1355,1.97101c0.39749,0.63522 0.81836,1.25571 1.26151,1.86301c0.44618,0.61148 1.40982,1.81299 1.92433,2.40948c0.52411,0.60764 1.07431,1.21423 1.6395,1.83151c0.57845,0.63177 1.17633,1.27448 1.78349,1.93948c0.62355,0.68295 1.90488,2.12479 2.55484,2.89267c0.66483,0.7854 1.32692,1.59494 1.983,2.42252c0.65862,0.83078 1.30328,1.66986 1.929,2.51248c0.61691,0.83078 1.7701,2.46539 2.3035,3.25784c0.51852,0.77032 1.01413,1.53195 1.5195,2.271c0.50169,0.73367 1.01643,1.45969 1.5735,2.16299c0.56688,0.7157 1.85574,2.12473 2.601,2.80869c0.77846,0.71442 1.63919,1.41037 2.5815,2.07898c0.98645,0.69992 2.06384,1.37112 3.22951,2.00702c1.22218,0.66672 3.94965,1.90393 5.453,2.47083c1.5726,0.59299 3.24083,1.13666 4.9935,1.6395c1.81836,0.5217 3.71962,0.99438 5.6955,1.42349c2.03618,0.4422 6.31412,1.19675 8.54399,1.51602c2.27019,0.32504 4.57399,0.60187 6.8925,0.85648c2.31656,0.25439 4.61978,0.47836 6.89252,0.69452c2.22726,0.21182 6.48804,0.60812 8.4935,0.81384c1.92252,0.1972 3.767,0.40051 5.53799,0.62097c1.707,0.21249 3.35367,0.44 4.944,0.69302c1.54568,0.24594 4.51474,0.80649 5.94748,1.129c1.41135,0.31769 2.79623,0.6683 4.15652,1.04999c1.34879,0.37845 2.67941,0.78967 3.99448,1.23001c1.31302,0.43967 3.9165,1.4024 5.21368,1.91965c1.3042,0.52005 2.6062,1.06702 3.91049,1.629c1.31207,0.56534 2.62585,1.14816 3.9465,1.73703c1.3287,0.59247 4.00879,1.79257 5.36349,2.39066c1.3573,0.59924 2.71368,1.19211 4.06201,1.77899c1.33365,0.58047 2.64795,1.14938 3.936,1.707c1.25595,0.5437 3.64816,1.58054 4.77365,2.07117c1.07986,0.47073 2.11713,0.92487 3.117,1.3605c0.96545,0.42065 1.9007,0.82687 2.811,1.21649c0.88702,0.37967 2.61151,1.10321 3.4595,1.44467c0.84402,0.33987 1.69656,0.67105 2.56949,0.9855c0.89407,0.32205 1.82538,0.63385 2.8035,0.93149c1.02582,0.31213 3.27835,0.91367 4.51917,1.20401c1.30844,0.30618 2.68341,0.59702 4.116,0.8685c1.47675,0.27985 2.99557,0.53589 4.548,0.7605c1.57297,0.2276 4.76309,0.58279 6.36334,0.70767c1.59451,0.12442 3.18265,0.21088 4.758,0.29849c1.5593,0.08673 3.09943,0.16675 4.61401,0.28052c1.48816,0.11179 4.36539,0.43115 5.74167,0.6705c1.34122,0.23325 2.63467,0.52051 3.879,0.83698c1.20303,0.30597 2.35144,0.64111 3.44699,0.98102c1.04572,0.32443 2.961,0.96298 3.83151,1.25317c0.81348,0.27115 1.573,0.52432 2.28149,0.7605c0.66049,0.22015 1.276,0.42532 1.84949,0.61649c0.53452,0.17816 1.49841,0.49982 1.93433,0.64465c0.41077,0.13647 0.80124,0.26566 1.17752,0.38553c0.36542,0.11642 0.72607,0.22736 1.08749,0.33148c0.36526,0.10522 1.13196,0.30682 1.54199,0.40433c0.42593,0.10126 0.86646,0.19836 1.31851,0.28952c0.45895,0.09256 0.92343,0.17798 1.3905,0.25348c0.46497,0.07516 1.38113,0.19418 1.827,0.23584c0.43817,0.04092 0.87292,0.06973 1.30649,0.09601c0.43546,0.0264 0.8761,0.04904 1.32449,0.078c0.45963,0.02969 1.42383,0.11127 1.93369,0.16867c0.53149,0.05984 1.08426,0.13181 1.66049,0.20398c0.6001,0.07516 1.22498,0.15268 1.8765,0.22202c0.6778,0.07214 2.11923,0.1911 2.884,0.23117c0.79126,0.04144 1.60693,0.06747 2.44351,0.08548c0.85443,0.01837 1.724,0.02689 2.6055,0.03152c0.8905,0.0047 2.68649,0.00546 3.58649,0.00415c0.89999,-0.00134 1.80008,-0.00467 2.70001,-0.021c0.90009,-0.01633 1.80035,-0.04367 2.69998,-0.09299c0.90042,-0.04935 2.70151,-0.20746 3.60052,-0.32968c0.90512,-0.12305 1.81644,-0.28168 2.73148,-0.492c0.93433,-0.21475 1.88205,-0.48346 2.83951,-0.81601c0.99109,-0.34424 3.03662,-1.23199 4.09235,-1.77682c1.09549,-0.56534 2.19641,-1.19852 3.30148,-1.8765c1.12079,-0.68762 2.2283,-1.41443 3.31952,-2.16449c1.08347,-0.74472 3.15323,-2.25732 4.12967,-3.00919c0.95279,-0.73364 1.87424,-1.47256 2.7735,-2.21698c0.89508,-0.74094 1.77982,-1.49847 2.6655,-2.271c0.89972,-0.78476 2.74731,-2.4321 3.71033,-3.29703c0.98767,-0.88705 1.99069,-1.79282 3.0015,-2.71198c1.01486,-0.92285 2.02405,-1.84653 3.0195,-2.76602c0.97922,-0.90451 2.84961,-2.65683 3.72949,-3.49332c0.84808,-0.80624 1.66428,-1.59052 2.46301,-2.34601c0.77933,-0.73712 1.54755,-1.4556 2.319,-2.14801c0.76459,-0.68625 2.33221,-2.01004 3.147,-2.64999c0.8252,-0.64813 1.67975,-1.28629 2.54999,-1.93799c0.88977,-0.66632 1.80396,-1.34692 2.73001,-2.064c0.95407,-0.73877 2.91745,-2.34351 3.91882,-3.22568c1.02957,-0.90698 2.05606,-1.85867 3.07651,-2.841c1.02527,-0.987 2.02872,-1.99146 3.00449,-3.00299c0.9588,-0.99396 2.74976,-2.94351 3.56918,-3.88434c0.78571,-0.9021 1.52234,-1.78461 2.21698,-2.646c0.67053,-0.83145 1.30453,-1.64825 1.91101,-2.448c0.59076,-0.77902 1.71472,-2.30276 2.25784,-3.04935c0.53549,-0.73611 1.05994,-1.46567 1.56448,-2.19598c0.49908,-0.72241 0.98169,-1.44626 1.43851,-2.17801c0.45386,-0.72699 1.29425,-2.20953 1.67651,-2.97c0.38586,-0.76761 0.75049,-1.56403 1.11298,-2.388c0.37567,-0.85394 0.75195,-1.75201 1.14899,-2.694c0.41895,-0.99402 1.34308,-3.16373 1.86688,-4.34634c0.55463,-1.25217 1.15131,-2.56467 1.78949,-3.93298c0.66528,-1.42645 1.36969,-2.90109 2.11346,-4.41901c0.76678,-1.56482 2.40845,-4.7981 3.27417,-6.46234c0.88354,-1.69846 1.79376,-3.42438 2.69104,-5.19598c0.91217,-1.80103 1.81616,-3.64203 2.67297,-5.53799c0.8689,-1.92276 2.46979,-5.92355 3.16486,-8.01285c0.71246,-2.14154 1.35126,-4.39227 1.92749,-6.76651c0.60712,-2.50143 1.15106,-5.17822 1.65747,-8.04449c0.54205,-3.0683 1.53857,-9.94144 2.02185,-13.776c0.51239,-4.06538 0.99561,-8.32362 1.45801,-12.72749c0.4726,-4.50113 0.91107,-9.05888 1.31403,-13.6275c0.39966,-4.53143 1.078,-13.31145 1.3418,-17.48116c0.25433,-4.01973 0.45642,-7.91457 0.58948,-11.70601c0.13013,-3.70801 0.1983,-7.35728 0.19354,-10.968c-0.0047,-3.59477 -0.20758,-10.82509 -0.40387,-14.49632c-0.19824,-3.7076 -0.46515,-7.43213 -0.78296,-11.15701c-0.31689,-3.71385 -0.68427,-7.39622 -1.08899,-11.03099c-0.39819,-3.57594 -1.27466,-10.47475 -1.74188,-13.76767c-0.45184,-3.18439 -0.92297,-6.25342 -1.41449,-9.20399c-0.4726,-2.83673 -0.96124,-5.55194 -1.46851,-8.14201c-0.48401,-2.47121 -1.48102,-7.02953 -1.99567,-9.11317c-0.48749,-1.97359 -0.9917,-3.83998 -1.5105,-5.6115c-0.49805,-1.70075 -1.01624,-3.33237 -1.54651,-4.9095c-0.51923,-1.5442 -1.60706,-4.55941 -2.16333,-6.05733c-0.55438,-1.49275 -1.11304,-2.96839 -1.65149,-4.4265c-0.52716,-1.4276 -1.03296,-2.81915 -1.4895,-4.1745c-0.43774,-1.29953 -1.15796,-3.72896 -1.40948,-4.8495c-0.23523,-1.04807 -0.40143,-2.04404 -0.513,-2.988c-0.10571,-0.89439 -0.16064,-1.75166 -0.18903,-2.574c-0.02734,-0.79376 -0.02698,-2.32201 -0.02698,-3.067c0,-0.735 0,-1.46 0,-2.175c0,-0.705 0,-1.4 0,-2.085c0,-0.675 0,-1.995 0,-2.64017c0,-0.63617 0,-1.26434 0,-1.8855c0,-0.61517 0,-1.22533 0,-1.8315l0,-0.60316" id="svg_9" stroke-width="5" stroke="#000000" fill="none"/> <path d="m458,67c-15.5,27.83334 -16.28226,29.41972 -16.80801,30.75467c-0.41861,1.06287 -0.68613,1.92237 -0.75449,2.59949c-0.05176,0.51274 0.01288,0.93031 0.19049,1.20451c0.46756,0.72185 1.20651,1.27193 1.716,1.71333c0.5881,0.50953 1.73837,1.37625 2.20132,1.69333c0.49255,0.33736 1.5939,1.00592 2.20535,1.312c0.63223,0.31649 1.29163,0.64658 2.74933,1.056c0.75604,0.21235 1.55362,0.34088 2.37149,0.40649c0.83487,0.06697 1.69354,0.05879 2.56052,-0.0345c0.88501,-0.09523 1.80276,-0.21804 3.56799,-0.87199c0.91681,-0.33965 1.80954,-0.81038 2.65948,-1.3785c0.86783,-0.58006 1.68866,-1.27566 2.4165,-2.0895c0.74759,-0.83593 1.50937,-1.76007 2.42401,-4.032c0.48975,-1.2165 0.76648,-2.57078 0.95401,-3.9735c0.19247,-1.43985 0.25165,-2.92323 0.198,-4.4145c-0.05368,-1.49208 -0.13757,-2.98867 -0.81866,-5.77867c-0.3248,-1.33045 -0.79556,-2.57158 -1.31552,-3.7305c-0.4989,-1.11195 -1.08032,-2.12366 -1.6485,-3.0735l-0.57214,-0.87383l-0.56519,-0.79683" id="svg_10" stroke-width="5" stroke="#000000" fill="none"/> <path d="m281,75c-1.70001,0 -2.66757,-0.07735 -3.39999,0.436c-0.7901,0.55377 -1.33029,1.23557 -1.90451,1.8775c-0.47903,0.53553 -1.03305,1.44309 -1.34818,2.0715c-0.36642,0.73072 -0.70914,1.5951 -0.86331,2.075c-0.51077,1.58974 -0.60709,2.1941 -0.72235,2.8115c-0.24036,1.28737 -0.3204,1.95985 -0.39999,2.642c-0.08047,0.68988 -0.20148,2.08612 -0.2395,2.7865c-0.03796,0.69968 -0.05597,2.10057 -0.01801,2.8c0.03802,0.70078 0.10382,1.40441 0.23853,2.1c0.27322,1.41078 0.52408,2.10731 0.80664,2.79467c0.2861,0.696 0.63654,1.37665 1.05902,2.022c0.42834,0.65427 0.9198,1.28764 1.509,1.842c1.21872,1.14667 1.99594,1.58415 2.79733,1.98666c0.82205,0.41289 1.71313,0.74102 2.65198,0.96301c0.96109,0.22724 1.97479,0.36742 3.01202,0.333c2.16348,-0.07181 3.2764,-0.41661 4.38132,-0.80267c1.13361,-0.39609 2.24765,-0.9266 3.315,-1.57201c1.08078,-0.65353 2.12317,-1.40372 3.04501,-2.292c1.84506,-1.77787 2.54428,-2.88022 3.18799,-3.98133c0.64127,-1.09693 1.16431,-2.25378 1.5795,-3.435c0.41006,-1.16665 0.72723,-2.34787 0.90451,-3.525c0.33945,-2.25407 0.29086,-3.34891 0.20532,-4.38667c-0.0827,-1.00325 -0.26074,-1.96854 -0.52649,-2.88c-0.25931,-0.88937 -0.59149,-1.74053 -1.02151,-2.52c-0.84079,-1.52398 -1.41635,-2.17782 -1.99466,-2.80267c-0.57791,-0.6244 -1.21683,-1.1963 -1.90051,-1.719c-0.69128,-0.52852 -1.43054,-1.01563 -2.21548,-1.449c-1.6131,-0.89062 -2.49734,-1.243 -3.38266,-1.60133c-0.88284,-0.35735 -1.76801,-0.67067 -2.63101,-0.9705l-0.83301,-0.27483l-0.79099,-0.24883l-0.737,-0.22183" id="svg_11" stroke-width="5" stroke="#000000" fill="none"/> <path d="m551,102c0.01068,-1.84666 0.04083,-2.69672 0.28802,-3.688c0.14374,-0.57632 0.508,-1.54166 1.04529,-2.64533c0.20184,-0.41457 0.69305,-1.30256 0.98132,-1.78133c0.63751,-1.05872 1.0174,-1.62681 1.42938,-2.22933c0.91028,-1.33121 1.43866,-2.0462 2.00665,-2.804c0.60468,-0.80678 1.26251,-1.65373 1.97852,-2.5395c0.7597,-0.93987 1.57971,-1.92438 2.47345,-2.9445c1.94403,-2.21901 3.03931,-3.38119 4.18939,-4.57999c1.18207,-1.23212 2.40619,-2.46229 3.67047,-3.663c1.2572,-1.19398 2.51508,-2.34917 3.80548,-3.393c2.41931,-1.95698 3.62225,-2.73376 4.78802,-3.36934c1.08588,-0.59201 2.16241,-1.04272 3.21899,-1.2585c0.99921,-0.20406 2.02216,-0.24529 2.94897,0.0465c1.93536,0.60932 2.78418,1.49102 3.59204,2.41467c0.88556,1.01247 1.66437,2.28916 2.33398,3.76801c0.73462,1.62239 1.35736,3.48492 1.79401,5.568c0.99091,4.72752 1.08093,7.46918 1.20667,10.37199c0.13293,3.06931 0.13812,6.2868 0.10352,9.62251c-0.03558,3.43105 -0.13416,6.93152 -0.21155,10.4775c-0.15558,7.12639 -0.19019,10.66315 -0.18665,14.17867c0.00354,3.50352 0.04462,7.00412 0.10651,10.5105c0.06213,3.52164 0.14819,7.06708 0.24152,10.64549c0.19025,7.29216 0.29846,11.01677 0.39197,14.77068c0.09351,3.75175 0.17877,7.47055 0.24152,11.1255c0.0611,3.55972 0.11084,6.99364 0.10651,10.27049c-0.00793,5.95882 -0.08997,8.58763 -0.20135,10.98401c-0.10162,2.18602 -0.24286,4.17909 -0.42596,5.9955c-0.16785,1.66495 -0.36511,3.19394 -0.60602,4.60049c-0.43719,2.55255 -0.72137,3.71811 -0.99603,4.82666c-0.26154,1.05577 -0.54016,2.05258 -0.83545,2.9895c-0.27997,0.88835 -0.56842,1.72234 -0.88049,2.49451c-0.57098,1.41284 -0.87738,2.04018 -1.22003,2.59999c-0.32825,0.53621 -0.7204,1.02539 -1.21198,1.4055c-0.51508,0.39832 -1.16479,0.72124 -1.93201,0.91051c-1.87177,0.46176 -3.07916,0.41429 -4.40399,0.40266c-1.45935,-0.01282 -3.0387,-0.132 -4.7265,-0.2715l-1.78284,-0.18449l-1.86487,-0.2265l-1.93384,-0.2655" id="svg_12" stroke-width="5" stroke="#000000" fill="none"/> <path d="m211,109c-9.228,-2.85683 -10.14177,-3.18362 -10.83333,-3.4375c-0.75504,-0.27718 -1.78041,-0.50769 -2.47467,-0.58783c-1.19243,-0.13765 -1.94669,-0.25854 -2.78934,-0.4c-0.44435,-0.0746 -1.35535,-0.25132 -2.73599,-0.408c-0.88208,-0.10011 -1.75189,-0.13424 -2.1875,-0.14583c-0.88884,-0.02364 -2.3127,-0.0328 -2.82333,-0.01867c-1.10269,0.03052 -1.70802,0.11208 -2.34334,0.26867c-0.69287,0.17078 -1.44211,0.43108 -2.21249,0.8385c-1.82005,0.96255 -2.76685,1.74821 -3.78267,2.60133c-1.08798,0.91373 -2.17433,1.94673 -3.23401,3.081c-1.08528,1.16168 -2.13687,2.38727 -3.054,3.71101c-1.79851,2.59589 -2.44281,4.00193 -2.98399,5.41199c-0.54599,1.42262 -0.9427,2.94753 -1.21201,4.5645c-0.2858,1.71595 -0.44322,3.5814 -0.49199,5.59949c-0.11084,4.58669 0.05191,7.19597 0.18399,10.00667c0.14098,3.00009 0.33875,6.17101 0.558,9.498c0.22853,3.4677 0.48633,7.05838 0.73801,10.75801c0.52095,7.65805 0.76468,11.58636 0.98933,15.564c0.22675,4.01472 0.43141,8.05688 0.606,12.11549c0.17476,4.06274 0.32684,8.11981 0.42599,12.16051c0.19591,7.98448 0.19542,11.90649 0.216,15.75467c0.02007,3.75217 0.02826,7.38577 0.108,10.8765c0.07599,3.32672 0.16011,6.47232 0.468,9.39149c0.54298,5.14813 1.10149,7.32811 1.82666,9.18268c0.65306,1.67014 1.616,3.01332 2.62199,4.155l1.14601,0.91167l1.29199,0.69167l1.444,0.48166" id="svg_13" stroke-width="5" stroke="#000000" fill="none"/> <polyline id="svg_15" points="155,75 " opacity="0.5" stroke-linecap="round" stroke-width="5" stroke="#000000" fill="none"/> <path d="m386,167c6.33334,13.5 6.8136,14.50661 7.25732,15.43201c0.4093,0.85361 0.78955,1.64325 1.13852,2.38049c0.32697,0.6908 0.63434,1.3446 0.91348,1.97549c0.53427,1.20752 0.76865,1.81378 1.2605,3.0435c0.25739,0.64349 0.52875,1.31673 0.83551,2.02051c0.32724,0.75078 0.68182,1.55734 1.59467,3.31467c0.51727,0.9958 1.12659,2.06923 1.78351,3.26849c0.73138,1.33525 1.52899,2.83566 2.40448,4.5195l0.95352,1.89183l1.03448,2.12283" id="svg_17" stroke-width="5" stroke="#000000" fill="none"/> <path d="m547,100c-1.5,1.52084 -2.09735,2.3229 -2.5,3c-0.49677,0.83528 -1.01709,1.50362 -1.66669,2.16666c-0.47876,0.48869 -1.15674,1.15825 -1.66266,1.94534c-0.14441,0.22468 0.10114,-0.60358 0.44,-1.32267c0.47083,-0.99902 0.81555,-1.62532 1.14648,-2.418c0.42993,-1.02972 0.73022,-1.91463 0.90002,-2.409c0.18097,-0.52693 0.55579,-1.67631 0.74731,-2.29467c0.19916,-0.64294 0.59802,-2.00031 0.79535,-2.71033c0.20142,-0.72463 0.39801,-1.46207 0.58948,-2.208c0.1922,-0.74874 0.38483,-1.49632 0.72534,-2.98134c0.32843,-1.43245 0.46649,-2.12323 0.59735,-2.78799c0.12469,-0.63361 0.3327,-1.79144 0.40533,-2.30667c0.12286,-0.8717 -0.20062,-1.92247 -0.56934,-1.59883c-0.99567,0.874 -1.37573,1.35394 -1.85333,1.8295c-0.51465,0.51247 -1.0553,1.05005 -1.61548,1.596c-1.11639,1.08808 -1.64886,1.60889 -2.64587,2.5c-0.42035,0.37566 -1.23553,1.97945 -2.08533,1.36533c-0.73401,-0.53041 0.22668,-1.26318 0.60266,-2.21467c0.23798,-0.60233 0.52185,-1.29182 1.14935,-2.984c0.37091,-1.00024 0.75708,-2.10049 1.16699,-3.282c0.43292,-1.24778 0.87585,-2.55093 1.32898,-3.894c0.46161,-1.36826 0.92328,-2.74914 1.83734,-5.49067c0.44464,-1.33356 0.87671,-2.62868 1.28705,-3.879c0.39221,-1.19505 0.75934,-2.32787 1.08899,-3.39301c0.30463,-0.98433 0.60059,-1.87591 0.95734,-3.39466c0.13904,-0.59187 0.23621,-1.08273 0.20245,-1.4595c-0.02472,-0.27574 -0.17328,-0.48222 -0.38245,-0.4965c-0.28363,-0.01936 -0.66766,0.15672 -1.65338,0.78933c-0.66199,0.42486 -1.38007,0.97367 -2.17346,1.5735c-0.84821,0.64126 -1.72223,1.32249 -2.6145,2.0145c-0.89008,0.69032 -1.74762,1.37978 -3.37866,2.57867c-0.70801,0.52041 -1.33362,0.96967 -1.9035,1.263c-0.44977,0.23151 -0.87103,0.3667 -1.08453,0.201c-0.22473,-0.17442 -0.25568,-0.68999 0.15466,-2.13067c0.30688,-1.07747 0.84082,-2.31406 1.43555,-3.714c0.64825,-1.52591 1.37158,-3.12181 2.12848,-4.758c0.76013,-1.64317 1.52032,-3.24708 2.93597,-6.19467c0.6131,-1.27659 1.16315,-2.40394 1.62604,-3.3975c0.39764,-0.85352 0.72693,-1.57439 0.94196,-2.1825c0.16821,-0.47564 0.40363,-0.95764 0.09869,-1.25333c-0.14362,-0.13923 -0.47174,-0.03212 -0.80548,0.1005c-0.40607,0.16136 -0.84442,0.41349 -1.31854,0.7035c-0.50665,0.30992 -1.02081,0.65226 -2.04266,1.36267c-0.49084,0.34124 -0.95081,0.67302 -1.38745,0.969c-0.39691,0.26904 -0.75067,0.50401 -1.07251,0.663c-0.25854,0.12773 -0.56171,0.2594 -0.70667,0.03467c-0.1051,-0.16292 0.01758,-0.46846 0.12445,-0.8055c0.12726,-0.40126 0.31061,-0.84135 0.51154,-1.3185c0.21191,-0.50325 0.45093,-1.01122 0.86401,-2.04267c0.1944,-0.48539 0.39484,-0.93579 0.43799,-1.3605c0.06683,-0.65729 -0.86438,-1.14907 -2.10468,-0.80616c-0.90588,0.25046 -1.93774,0.72894 -3.10199,1.299c-1.29321,0.63321 -2.66089,1.38789 -4.07404,2.253c-1.47577,0.90348 -3.00208,1.84074 -5.82397,4.11467c-1.40344,1.13092 -2.69202,2.35861 -3.91199,3.594c-1.18243,1.19738 -2.26477,2.39724 -3.26404,3.558c-0.93481,1.08589 -1.7616,2.11283 -3.15729,3.848c-0.55109,0.68516 -0.995,1.25457 -1.3905,1.6605c-0.2934,0.30114 -0.55392,0.51757 -0.73352,0.4635c-0.17456,-0.05256 -0.27832,-0.36506 -0.37601,-1.29066c-0.07004,-0.66352 -0.08554,-1.44524 -0.11398,-2.313c-0.03046,-0.92957 -0.05145,-1.89537 -0.078,-2.871c-0.02612,-0.9597 -0.03159,-1.87896 -0.14133,-3.48267c-0.04398,-0.64283 -0.10632,-1.1782 -0.19052,-1.614c-0.06879,-0.35609 -0.15158,-0.64128 -0.25348,-0.858c-0.08411,-0.1789 -0.18646,-0.31595 -0.38934,-0.528c-0.09802,-0.10244 -0.20218,-0.20207 -0.29999,-0.3135c-0.10229,-0.11653 -0.20392,-0.24639 -0.30002,-0.3945c-0.10431,-0.16078 -0.21378,-0.34204 -0.39999,-0.792c-0.10828,-0.26162 -0.3085,-0.87931 -0.52084,-1.60417c-0.24088,-0.82235 -0.64252,-2.23018 -0.80066,-2.73817c-0.3288,-1.05616 -0.50168,-1.59167 -0.88916,-2.635c-0.18768,-0.50534 -0.76303,-1.87106 -1.18668,-2.58c-0.3595,-0.60159 -0.79968,-1.33711 -1.43466,-2.05466c-0.54257,-0.61313 -1.34293,-0.27185 -2.28265,0.028c-0.87659,0.27971 -1.5657,0.80913 -2.18985,1.384c-0.56372,0.51922 -1.31638,1.06854 -2.21149,1.41467c-0.82443,0.3188 -1.784,0.28533 -2.68402,0.28533c-0.89999,0 -2.00446,0.38394 -2.67865,-0.2215c-0.61758,-0.5546 -0.76596,-1.47971 -1.12134,-2.2785c-0.35446,-0.79671 -1.09232,-1.4709 -2,-1.5c-0.81592,-0.02616 -1.77692,0.27192 -2.5625,0.54167c-0.60767,0.20866 -1.60657,0.61963 -2.3215,0.94233c-0.74387,0.33576 -1.48712,0.69845 -2.23199,1.032c-1.05725,0.47343 -2.02121,0.85378 -2.60135,1.03733c-1.12991,0.3575 -1.86127,0.44133 -2.78265,0.44667c-0.89999,0.00521 -1.79999,0 -2.70132,0c-0.96533,0 -1.81955,-0.00653 -2.79868,0c-0.80005,0.00533 -1.60999,0.04866 -2.40134,0.284c-0.84714,0.25194 -1.76059,0.59425 -2.54684,0.65433c-0.78833,0.06024 -1.90659,-0.16423 -2.63049,-0.513c-0.81885,-0.39451 -1.74548,-0.39142 -2.42133,-0.92533c-0.56747,-0.4483 -1.48666,-0.5 -2.24667,-0.5c-1.17465,0 -1.97867,0 -2.52798,0c-1.30368,0 -1.97894,0.02453 -3.05869,0c-0.7926,-0.01801 -1.65805,-0.27211 -2.37732,-0.61067c-0.79633,-0.37482 -1.58945,-0.78906 -2.38934,-1.18933c-0.80145,-0.40106 -1.64395,-0.82225 -2.56665,-1.36667c-0.52466,-0.30958 -1.36484,-0.85216 -1.995,-1.18066c-0.98993,-0.51604 -1.72098,-0.79419 -2.51703,-1.006c-0.86832,-0.23104 -1.35043,-0.32256 -2.98798,-0.48c-0.61749,-0.05936 -1.2692,-0.08508 -1.944,-0.1095c-0.69055,-0.025 -2.08801,-0.04796 -2.77869,-0.05267c-0.67465,-0.00459 -1.944,-0.0045 -3.07465,-0.0045c-0.52533,0 -1.53601,0 -2.03735,0c-1.03467,0 -2.16531,0 -3.436,0c-0.67783,0 -1.37466,0 -2.0835,0c-0.71384,0 -1.42566,0 -2.12848,0c-1.98734,0 -2.604,0 -3.21066,0c-1.22336,0 -1.86002,0 -2.52667,0c-0.70667,0 -2.28,0 -3.164,0c-0.948,0 -1.95401,0 -3.01199,0c-1.104,0 -2.24802,0 -3.42603,0c-1.20599,0 -3.67798,-0.00148 -4.9335,0.0005c-1.26849,0.002 -2.55307,0.00726 -3.85648,0.0315c-1.32562,0.02466 -2.67648,0.06646 -4.0545,0.1395c-1.41006,0.07474 -4.33472,0.31755 -5.85202,0.49283c-1.55084,0.17915 -3.12195,0.39612 -4.70547,0.633c-1.58951,0.23777 -3.17249,0.4958 -4.74152,0.759c-1.547,0.25951 -4.53439,0.77745 -5.95898,1.022c-1.37146,0.23543 -2.68707,0.45969 -3.94351,0.675c-1.19455,0.2047 -2.32422,0.39877 -3.3855,0.585c-0.99072,0.17385 -2.7464,0.49552 -3.50751,0.63917c-0.68689,0.12964 -1.30435,0.25012 -1.86301,0.3225c-0.49973,0.06474 -0.9541,0.09879 -1.35898,0.0525c-0.37241,-0.04258 -1.03336,-0.33317 -1.30701,-0.58117c-0.28857,-0.26151 -0.53317,-0.59725 -0.75,-0.966c-0.22391,-0.38081 -0.40939,-0.79365 -0.57001,-1.218c-0.15942,-0.42122 -0.38977,-1.25405 -0.48233,-1.64283c-0.08615,-0.36188 -0.155,-0.70146 -0.297,-0.9765c-0.12994,-0.25172 -0.34042,-0.46057 -0.621,-0.5445c-0.33374,-0.09983 -1.32883,0.05766 -1.97983,0.2695c-0.76535,0.24905 -1.60165,0.59889 -2.50049,0.999c-0.95117,0.4234 -1.92117,0.89098 -2.89651,1.377c-0.96735,0.48203 -2.77975,1.43053 -3.59515,1.86533c-0.74994,0.3999 -1.43326,0.77084 -2.06702,1.083c-0.57205,0.28176 -1.09415,0.52041 -1.58099,0.669c-0.43219,0.1319 -1.21207,0.1775 -1.53949,0.06367c-0.32733,-0.1138 -0.62491,-0.32929 -0.91953,-0.57c-0.31293,-0.25565 -0.62152,-0.55445 -0.97348,-0.84c-0.37186,-0.30171 -1.26096,-0.86284 -1.80035,-1.07467c-0.57962,-0.22763 -1.23187,-0.39334 -1.93948,-0.504c-0.7565,-0.11831 -1.57462,-0.17043 -2.44351,-0.162c-0.9223,0.00895 -2.92319,0.21819 -3.99265,0.40717c-1.10822,0.19582 -2.22748,0.44745 -3.34653,0.7095c-1.10327,0.25836 -2.16806,0.5267 -3.18448,0.7635c-0.94501,0.22016 -2.56116,0.54698 -3.20599,0.59117c-0.53644,0.03676 -0.99344,0.00814 -1.35751,-0.108c-0.3222,-0.10279 -0.59106,-0.28651 -0.8175,-0.504c-0.23462,-0.22536 -0.67526,-0.79838 -0.94867,-1.1005c-0.29553,-0.32658 -0.63672,-0.65905 -1.04849,-0.9555c-0.44244,-0.31852 -0.96616,-0.60175 -1.5705,-0.8115c-0.66159,-0.22963 -2.28143,-0.4528 -3.22818,-0.44117c-1.0275,0.01263 -2.11496,0.12333 -3.23999,0.27c-1.14853,0.14973 -2.29395,0.34321 -3.42001,0.54c-1.08722,0.19 -3.05823,0.55183 -3.91132,0.674c-0.7579,0.10853 -1.435,0.18388 -2.034,0.162c-0.53296,-0.01946 -1.0206,-0.11357 -1.422,-0.324c-0.39648,-0.20786 -1.04248,-0.96257 -1.31802,-1.46333c-0.30243,-0.54959 -0.56128,-1.16995 -0.87598,-1.794c-0.32117,-0.63691 -0.66852,-1.2709 -1.12802,-1.812c-0.45471,-0.53546 -1.69131,-1.29689 -2.45181,-1.42317c-0.82648,-0.13723 -1.74854,-0.06956 -2.7135,0.0885c-1.02423,0.16776 -2.07568,0.45431 -3.14551,0.7905c-1.08917,0.34227 -3.22595,1.14294 -4.2605,1.53867c-0.9975,0.38155 -1.94632,0.7511 -2.862,1.0215c-0.84753,0.25027 -1.64728,0.433 -2.37601,0.4095c-0.66037,-0.0213 -1.78128,-0.62449 -2.13565,-1.19167c-0.39716,-0.63567 -0.62738,-1.44967 -0.84302,-2.3205c-0.22675,-0.91566 -0.39105,-1.86854 -0.60901,-2.8065c-0.21182,-0.91149 -0.7478,-2.54926 -1.19366,-3.149c-0.41531,-0.55862 -0.99936,-0.97782 -1.67999,-1.1685c-0.74869,-0.20975 -1.66187,-0.17511 -2.66998,0.0195c-1.16956,0.22578 -3.94086,1.26448 -5.55884,2.00883c-1.77411,0.81618 -3.62505,1.76845 -5.53651,2.781c-1.94435,1.02997 -3.86334,2.08942 -5.7345,3.123c-1.78349,0.98515 -4.92918,2.71724 -6.23683,3.39684c-1.11969,0.58191 -2.08582,1.05543 -2.91,1.4535c-0.70259,0.33934 -1.31105,0.62214 -1.83,0.8955c-0.46742,0.24622 -1.29799,0.78673 -1.6895,1.115c-0.40501,0.3396 -0.79108,0.71699 -1.16849,1.1055c-0.3736,0.38457 -0.72403,0.77199 -1.0605,1.1415c-0.31552,0.34649 -0.86624,0.94012 -1.10701,1.1605c-0.20415,0.18686 -0.38934,0.33152 -0.5565,0.438c-0.14255,0.09081 -0.27518,0.15387 -0.39449,0.204c-0.10881,0.04572 -0.31841,0.12425 -0.4165,0.19167c-0.12816,0.08807 -0.28394,0.25659 -0.489,0.519c-0.29158,0.37312 -0.65976,0.9068 -1.13701,1.617c-0.61182,0.91044 -2.2728,3.46984 -3.35533,5.157c-1.23238,1.92069 -2.57373,4.02533 -3.993,6.258c-1.46544,2.3053 -2.93953,4.63145 -4.38901,6.924c-1.39316,2.20348 -3.86841,6.13111 -4.88716,7.75733c-0.86237,1.37658 -1.56787,2.5065 -2.1105,3.396c-0.39273,0.64378 -0.8568,1.10847 -0.7065,1.218c0.08032,0.05853 0.67215,-0.90488 1.19034,-1.663c0.64087,-0.93761 1.36555,-2.01207 2.14949,-3.171c0.80974,-1.19707 1.61272,-2.38534 2.3835,-3.513c0.70007,-1.02422 1.7635,-2.57233 2.10234,-2.98684c0.16484,-0.20165 0.21652,-0.16975 0.11549,0.0465c-0.19168,0.41028 -0.51866,0.97086 -0.9285,1.6845c-0.487,0.84799 -1.67511,2.86372 -2.34816,4c-0.70827,1.19574 -1.44069,2.4282 -2.17801,3.6795c-0.73402,1.2457 -1.44905,2.46586 -2.12399,3.6435c-0.63417,1.10651 -1.70143,3.03571 -2.09866,3.82784c-0.33467,0.66738 -0.59355,1.23663 -0.78,1.722c-0.15524,0.40414 -0.25964,0.75314 -0.33,1.056c-0.06227,0.26809 -0.14395,0.7694 -0.20634,1.0245c-0.06779,0.27718 -0.1658,0.58263 -0.30899,0.9195c-0.16618,0.39097 -0.39458,0.83264 -0.687,1.3335c-0.34099,0.58406 -1.27498,1.99474 -1.87317,2.83649c-0.65858,0.92673 -1.3804,1.90053 -2.1465,2.898c-0.77618,1.01062 -1.56084,1.99906 -2.3445,2.934c-0.73822,0.88072 -2.06633,2.34072 -2.645,2.8545c-0.47687,0.42339 -0.9057,0.73189 -1.29449,0.9075c-0.32208,0.14548 -0.62801,0.18 -0.89851,0.1875l-0.25349,-0.0275" id="svg_21" stroke-width="5" stroke="#000000" fill="none"/> <path d="m579,68c1.56403,-0.61066 1.88495,-1.44319 2.35266,-2.3c0.40686,-0.74532 0.65698,-1.41103 0.86865,-2.4645c0.12231,-0.60888 0.37122,-1.66444 0.49469,-2.4395c0.19,-1.19292 0.21729,-1.6033 0.2373,-2.46c0.02222,-0.95174 0.0022,-1.48005 -0.12,-3.336c-0.04803,-0.72981 -0.11731,-1.51478 -0.19049,-2.352c-0.07739,-0.88546 -0.16333,-1.8147 -0.25348,-2.784c-0.09351,-1.00536 -0.19312,-2.04244 -0.38934,-4.19733c-0.10114,-1.11022 -0.20117,-2.24246 -0.29547,-3.399c-0.09644,-1.18213 -0.18768,-2.3924 -0.26855,-3.633c-0.08289,-1.27207 -0.16638,-2.57803 -0.26929,-5.30133c-0.05353,-1.41738 -0.08466,-2.86129 -0.11401,-4.317c-0.0293,-1.45363 -0.05121,-2.89136 -0.078,-4.299c-0.02594,-1.36369 -0.03778,-2.67015 -0.14136,-5.05067c-0.04578,-1.05161 -0.1109,-2.01016 -0.19501,-2.8815c-0.07666,-0.79401 -0.16974,-1.51605 -0.28497,-2.1705c-0.10565,-0.59989 -0.21063,-1.15431 -0.52002,-2.11467c-0.14185,-0.44019 -0.31232,-0.84959 -0.49945,-1.233c-0.18256,-0.37402 -0.3894,-0.72987 -0.61652,-1.071c-0.22925,-0.34438 -0.47882,-0.68605 -1.05066,-1.36267c-0.30402,-0.35972 -0.6355,-0.72048 -0.9765,-1.095c-0.35095,-0.38549 -0.711,-0.78 -1.0755,-1.185l-0.36652,-0.415l-0.36548,-0.425" id="svg_22" stroke-width="5" stroke="#000000" fill="none"/> <path d="m211,60c2.11333,-4.86 2.66205,-5.55651 2.916,-6.48533c0.24507,-0.89637 0.2852,-1.72252 0.60483,-2.5355c0.26392,-0.67126 0.68745,-1.67811 0.92184,-2.3325c0.30516,-0.85197 0.48566,-1.38012 0.69865,-1.98667c0.52451,-1.49363 0.84367,-2.3973 1.20267,-3.40133c0.39223,-1.09702 0.81876,-2.27695 1.28101,-3.5295c0.48695,-1.3195 1.00108,-2.69541 1.55099,-4.1145c1.14433,-2.95307 1.74715,-4.47012 2.43468,-5.99733c0.71307,-1.58394 1.53719,-3.21203 2.556,-4.8465c1.08829,-1.74594 2.38556,-3.55655 3.996,-5.3415c3.67914,-4.07783 6.14897,-6.05568 8.76666,-8.172c2.75165,-2.22462 5.70534,-4.37867 8.71649,-6.549l3.04617,-2.12033l3.02817,-2.04233l2.95717,-1.93633" id="svg_23" stroke-width="5" stroke="#000000" fill="none"/> </g> </svg>