<svg xmlns="http://www.w3.org/2000/svg" xmlns:svg="http://www.w3.org/2000/svg" width="640" height="480"> <!-- Created with SVG-edit - http://svg-edit.googlecode.com/ --> <g> <title>Layer 1</title> <path fill="none" stroke="#000000" stroke-width="5" id="svg_1" d="m249,178c0.166672,-1.833328 0.930664,-2.11235 1.657166,-2.718826c0.592834,-0.494888 0.96138,-0.955612 1.745499,-1.967834c0.428192,-0.552765 0.857101,-1.169739 1.368011,-1.800003c0.852066,-1.051132 1.188461,-1.405792 1.890671,-2.128006c0.713745,-0.7341 1.068542,-1.100357 2.171997,-2.052002c0.667084,-0.575317 1.306549,-1.060883 1.919983,-1.440002c0.548645,-0.339081 1.785065,-0.818497 2.436005,-0.871979c1.007324,-0.082794 1.97467,-0.021332 2.925323,-0.021332c0.885345,0 1.730682,-0.189789 2.557343,0.108002c0.97226,0.35022 1.336823,0.960907 1.869659,1.412827c0.852325,0.722885 1.744781,1.363327 2.36734,1.664841c0.620026,0.300293 1.657928,0.626587 2.834015,0.914169c0.426361,0.104263 1.327148,0.299789 2.27832,0.464157c0.486786,0.084122 1.978149,0.275604 2.47818,0.314499c0.986084,0.076721 1.937897,0.107132 2.828979,0.117004c1.171448,0.012985 1.82132,-0.083221 2.803497,0.040497c0.859741,0.108276 1.519958,0.762894 2.468018,0.953339c0.882904,0.177353 1.618805,0.511154 2.399994,0.843994c0.751526,0.32019 1.766174,0.197708 2.657166,0.519333c0.755615,0.272751 1.538696,0.567688 2.342834,0.626511c0.997559,0.072937 1.799988,0.020828 2.600006,0.020828c1,0 1.799988,0 2.798676,0c0.944153,0 1.844147,0 2.801331,0c0.899994,0 1.938385,0.322525 2.633331,-0.166672c0.714996,-0.503326 1.124725,-1.194199 1.166809,-2.155167c0.03241,-0.740234 0.054443,-1.455734 0.285187,-2.646164c0.133026,-0.68631 0.308868,-1.386139 0.515991,-2.063995c0.368286,-1.205261 0.777435,-2.10527 1.077332,-2.946335c0.303009,-0.849792 0.836639,-0.544266 1.483002,-0.074341c0.807373,0.586975 1.636841,0.627441 2.638336,0.886002c0.776428,0.200439 1.540283,0.19574 2.479156,0.666672c0.744965,0.373657 1.716095,0.606155 2.33551,0.935989c0.901855,0.48027 1.191589,1.289612 1.706177,2.084824c0.536713,0.829437 1.022949,1.454575 1.3125,2.3125c0.284485,0.842911 0.71524,1.503189 1.082642,2.368011c0.389984,0.917938 0.481293,1.645905 0.885345,2.314667c0.538177,0.890747 1.021576,1.652817 1.198669,2.483994c0.209045,0.981201 0.755585,1.528961 0.979156,2.5c0.204468,0.88797 0.249207,1.818512 0.520844,2.5c0.388519,0.974564 0.313049,1.722473 0.536011,2.600006c0.219086,0.862289 0.752991,1.653641 1.185333,2.5c0.334717,0.655304 0.606049,1.520477 0.7995,2.399994c0.186432,0.847565 1.068146,1.430389 1.458313,2.020828c0.583435,0.882919 0.515503,1.689789 0.520844,2.679001c0.004211,0.779327 0,1.779007 0,2.610001c0,0.959503 0,1.710999 0,2.507507c0,0.99733 0,1.871994 0,2.88266c0,0.800003 0,1.800003 0,2.610672c0,0.874664 0,1.873337 0,2.689331c0,0.815994 0,1.813339 0,2.653336c0,0.962662 0,1.730667 0,2.682663c0,0.765335 0,1.759506 0,2.506836c0,1.021164 0,1.957169 0,2.857162c0,0.900177 0,1.685333 0,2.625336c0,1.008011 0,1.764023 0,2.674683c0,0.899979 0,1.799988 0,2.699997c0,0.900177 0,1.685333 0,2.646667c0,0.839996 0,1.839996 0,2.400009c0,0.914993 0,1.919998 0,3.001495c0,0.731003 0,1.442001 0,2.709c0,0.781494 0,1.491013 0,2.464005c0,0.793488 0,1.809494 0,2.768997c0,0.976501 -0.217896,1.904007 0.283997,2.640503c0.474915,0.69693 0.716003,1.370667 0.716003,2.335999c0,0.690659 0,1.605331 0,2.475998c0,1.008011 0,1.70668 0,2.389328c0,1.198669 0,2.182663 0,3.134674c0,0.785995 0,1.608002 0,2.666687c0,0.704987 0,1.679962 0,2.53067c0,0.935944 0,1.835999 0,2.735962c0,0.899994 0,1.699982 0,2.600037c0,0.899963 0,1.799988 0,2.699982c0,0.899963 0.149811,1.812561 -0.000153,2.699829c-0.144012,0.85202 -0.815765,1.367859 -1.442688,2.000153c-0.630249,0.635681 -1.559418,0.97287 -2.182495,1.53598c-0.725128,0.655334 -1.228973,1.214294 -1.621338,1.646698c-0.938507,1.03418 -1.440765,1.681641 -1.967987,2.367981c-0.266907,0.347473 -0.797394,1.029144 -1.451996,2.015991c-0.532562,0.802856 -0.920502,1.460083 -1.249329,2.448029c-0.290619,0.873047 -0.87915,1.539001 -1.063171,2.385345c-0.191376,0.879974 -0.461426,1.758026 -0.736877,2.385345c-0.391968,0.89267 -0.44281,1.952118 -0.783997,2.593811c-0.441742,0.830811 -0.820587,1.697723 -1.350677,2.346191c-0.433716,0.530548 -0.774261,1.695343 -1.5065,2.117493c-0.818298,0.471771 -1.844147,0.057159 -2.809479,0.057159c-0.669342,0 -1.434662,0 -2.43335,0c-0.799988,0 -1.798676,0 -2.742828,0c-0.90451,0 -1.823822,0 -2.657166,0c-0.978485,0 -1.798859,0.018036 -2.700012,0c-0.900543,-0.018005 -1.657867,-0.543793 -2.466644,-0.833344c-0.819366,-0.293335 -1.835052,-0.327759 -2.442352,-0.519318c-0.90799,-0.286407 -2.032379,-0.540619 -2.69632,-0.590179c-0.693695,-0.051788 -1.726746,-0.046814 -2.65152,-0.057312c-0.980804,-0.011139 -1.926331,-0.08786 -2.522308,-0.520691c-0.800598,-0.581451 -1.506744,-0.898376 -2.235504,-1.563171c-0.596069,-0.543762 -0.775696,-1.446991 -1.485352,-2.114655c-0.576324,-0.542236 -1.5,-0.799072 -2.399963,-0.801331c-0.899994,-0.002228 -1.800018,0.000671 -2.699982,0c-0.900024,-0.000671 -1.759583,-0.284973 -2.400024,-0.647339c-0.82077,-0.464417 -1.566742,-0.853302 -2.133331,-1.519318c-0.581573,-0.683624 -0.774628,-1.436005 -1.466644,-2.133331c-0.697327,-0.702698 -1.22644,-1.174591 -1.898682,-1.900024c-0.537872,-0.580444 -0.855713,-1.499054 -1.301331,-2.299988c-0.44455,-0.799042 -0.5,-1.700012 -0.5,-2.600006c0,-0.899994 0.10025,-1.710388 -0.036011,-2.53598c-0.144073,-0.872986 -0.599854,-1.557892 -0.842834,-2.564026c-0.190735,-0.789795 -0.441864,-1.807892 -0.826477,-2.408997c-0.430054,-0.672119 -0.996155,-1.716431 -1.124023,-2.360321c-0.136139,-0.685638 -0.166138,-1.782471 -0.170654,-2.864014c-0.002838,-0.68399 0,-1.6875 0,-2.376495c0,-1.123505 0.003723,-1.960876 -0.010681,-2.862152c-0.007507,-0.469727 -0.019684,-1.439209 -0.155975,-2.928009c-0.045837,-0.500748 -0.185822,-1.496292 -0.269348,-1.989334c-0.165375,-0.976303 -0.361176,-1.926254 -0.563995,-2.843994c-0.194672,-0.88089 -0.397034,-1.718353 -0.563995,-2.520004c-0.157959,-0.758514 -0.326782,-1.824783 -0.410675,-2.853333c-0.059204,-0.726028 -0.099335,-1.534286 -0.191986,-2.460007c-0.107178,-1.070541 -0.183289,-1.64502 -0.354218,-2.833328c-0.086151,-0.599197 -0.161499,-1.193466 -0.479156,-2.833328c-0.093323,-0.481796 -0.294708,-1.33371 -0.563995,-2.388c-0.150208,-0.588104 -0.401215,-1.815842 -0.431519,-2.617004c-0.034363,-0.908386 -0.121826,-1.851059 -0.52533,-2.661667c-0.428345,-0.86055 -1.06723,-1.423645 -1.395142,-2.20134c-0.387512,-0.918991 -0.448639,-1.703934 -1.056,-2.314667c-0.702911,-0.706787 -1.561493,-0.926041 -2.26001,-1.368011c-0.843262,-0.533508 -1.313812,-1.312958 -1.868011,-2.094666c-0.472778,-0.66684 -1.053268,-1.316391 -1.379166,-2.04216c-0.426514,-0.94989 -0.443436,-1.78804 -0.604828,-2.579178c-0.207199,-1.015717 -0.537659,-1.594696 -1.015839,-2.600159c-0.38829,-0.816467 -0.663147,-1.476624 -0.816162,-2.483841c-0.123199,-0.811005 -0.106903,-1.646194 -0.367996,-2.630661c-0.236267,-0.8909 -0.600723,-1.678528 -0.680008,-2.47467c-0.103531,-1.039474 -0.022141,-1.85199 -0.319992,-2.694656c-0.312164,-0.883133 -0.609192,-1.763611 -0.716171,-2.616013c-0.113983,-0.908142 -0.647171,-1.599991 -0.999832,-2.399994c-0.352661,-0.799988 -0.939117,-1.593887 -1,-2.5c-0.053635,-0.798203 0,-1.699997 0,-2.600006c0,-0.899994 0,-1.799988 0,-2.699997c0,-0.899994 0,-1.800171 0,-2.585327c0,-0.940002 0,-1.630692 0,-2.61467c0,-0.983994 0,-1.847351 0,-2.742828c0,-0.957184 0,-1.857193 0,-2.757172c0,-0.800003 0,-1.700012 0,-2.600021l0,-0.899979"/> <path fill="none" stroke="#000000" stroke-width="5" id="svg_2" d="m259,220c-1.700012,0 -2.663849,0.044174 -3.482666,-0.285339c-0.844025,-0.339661 -1.339844,-1.175751 -1.802673,-1.914658c-0.42009,-0.670654 -1.160202,-1.176651 -1.714661,-1.966675c-0.437454,-0.623322 -1.006714,-1.48793 -1.699997,-1.8815c-0.808075,-0.458725 -1.432343,-1.254349 -2.057175,-1.594666c-0.829376,-0.451721 -1.758835,-0.356491 -2.722,-0.357162c-0.920822,-0.000641 -1.836929,-0.167999 -2.719498,0.001328c-0.756485,0.145142 -0.801331,1.198669 -0.801331,2.098679c0,0.899994 0,1.699997 0,2.599991c0,0.900009 -0.289093,1.851974 0.010666,2.689331c0.263748,0.736755 0.978729,1.221344 0.989334,2.110672c0.010727,0.899994 0.461929,1.736389 0.833328,2.5c0.366684,0.753906 0.913696,1.537155 1.130676,2.399994c0.220764,0.877899 0.036011,1.766678 0.036011,2.620819c0,0.979172 -0.056259,1.788284 0.085327,2.579193c0.182404,1.018921 0.573547,1.578186 0.793167,2.599808c0.165146,0.768265 0.121506,1.778671 0.121506,2.800171c0,0.800003 0,1.700012 0,2.600021c0,0.899979 -0.095459,1.844528 0.284012,2.599991c0.435577,0.867188 0.69696,1.500168 0.715988,2.400009c0.020432,0.964447 0.475128,1.600159 1.166672,2.233307c0.598038,0.547562 1.215546,0.955963 2.031998,1.168015c0.800461,0.207855 1.321991,0.988235 2.201324,0.998657c0.904449,0.010712 1.766678,0 2.620834,0c0.979156,0 1.768494,0 2.812531,0c0.755951,0 1.666656,0 2.56665,0l0.899963,0l0.900024,0"/></g></svg>