 <svg width="640" height="480" xmlns="http://www.w3.org/2000/svg" xmlns:svg="http://www.w3.org/2000/svg"> <!-- Created with SVG-edit - http://svg-edit.googlecode.com/ --> <g> <title>Layer 1</title> <path d="m231,214c-0.05716,-1.7 -0.68559,-2.42255 -0.94284,-3.3c-0.2541,-0.86674 -0.22041,-1.86803 -0.4825,-2.52533c-0.40276,-1.0101 -0.56387,-1.76401 -0.57466,-2.67467c-0.01054,-0.88933 -0.72559,-1.37392 -0.98933,-2.11067c-0.29976,-0.83736 -0.01067,-1.78932 -0.01067,-2.68933c0,-0.89999 0,-1.8 0,-2.7c0,-0.8 -0.41272,-1.82343 0.05716,-2.64284c0.39442,-0.68784 0.62106,-1.49506 1.10951,-2.19049c0.50232,-0.71518 0.58801,-1.39966 1.11732,-2.08267c0.48799,-0.62968 1.15834,-1.1958 1.54933,-2.084c0.28951,-0.65764 0.48116,-1.38716 1,-2.16667c0.47087,-0.70746 0.29095,-1.61076 0.74133,-2.43333c0.42729,-0.78038 0.35229,-1.75017 0.85068,-2.37466c0.48518,-0.60796 0.33179,-1.46016 0.57916,-2.32083c0.22072,-0.7679 0.97383,-1.23601 1.42084,-2.11516c0.38936,-0.76578 0.52553,-1.59036 0.57483,-2.56784c0.03622,-0.71834 0.68535,-1.44406 0.94267,-2.3215c0.25343,-0.86417 0.68509,-1.44749 1.03633,-2.22083c0.37248,-0.82011 0.02083,-1.8125 0.02083,-2.48451c0,-0.98932 0,-1.85182 0,-2.74283c0,-0.909 0,-1.65633 0,-2.6505c0,-0.94417 0,-1.84866 0,-2.76801c0,-0.83333 0.03807,-1.81271 0,-2.63199c-0.04271,-0.91898 -0.74338,-1.4099 -1.16667,-2.20134c-0.40047,-0.74878 -0.70935,-1.56783 -1.19049,-2.3c-0.52193,-0.79425 -1.29161,-1.26236 -1.61751,-2.11066c-0.33838,-0.88077 -0.49026,-1.62408 -1.02533,-2.42267c-0.45464,-0.67854 -1.23752,-1.33643 -1.7,-1.92384c-0.54526,-0.69257 -0.85968,-1.62308 -1.24733,-2.48116c-0.33623,-0.74426 -0.89217,-1.27122 -1.40984,-2.06168c-0.52069,-0.79506 -1.24586,-1.17021 -1.5215,-2.0215c-0.2776,-0.85735 -0.31137,-1.89099 -0.64217,-2.6785c-0.2565,-0.61066 -0.79109,-1.59898 -1.07918,-2.23599c-0.41742,-0.923 -0.71907,-1.71411 -0.96399,-2.57468c-0.16685,-0.5863 -0.35448,-1.78911 -0.436,-2.68933c-0.05432,-0.59985 -0.20494,-1.80363 -0.42534,-2.67867c-0.13904,-0.55202 -0.50452,-1.67275 -0.564,-2.436c-0.08099,-1.0394 -0.01067,-1.78983 -0.01067,-2.784c0,-0.76534 0,-1.84417 0,-2.70133c0,-0.9 -0.03954,-1.65823 0.0045,-2.55267c0.04263,-0.86606 0.61269,-1.62547 0.91017,-2.54733c0.27759,-0.86021 0.53026,-1.53892 1.03265,-2.15717c0.57346,-0.7057 0.77913,-1.38574 1.35718,-2.3c0.34479,-0.54533 0.99748,-1.56065 1.54216,-2.14284c0.38647,-0.41309 1.31248,-1.20996 1.83734,-1.59866c0.80475,-0.59599 1.35077,-0.96499 2.3945,-1.57983c0.67763,-0.39918 1.52736,-0.80616 2.31883,-1.2215c0.73759,-0.38706 1.3681,-1.20007 1.93599,-1.8c0.59604,-0.62967 1.26907,-0.80054 2.26668,-1.3c0.79977,-0.40042 1.60614,-0.7887 2.42082,-1.22083c0.66956,-0.35515 1.39415,-0.81086 2.2045,-1.29383c0.81573,-0.48618 1.59554,-0.89842 2.528,-1.124c0.75185,-0.18188 1.59883,-0.55723 2.58,-1.06133c0.66557,-0.34196 1.22464,-0.51436 2.15468,-0.8c1.02873,-0.31596 1.76854,-0.5024 2.53282,-0.7c0.78305,-0.20245 1.98012,-0.49625 2.77916,-0.70133c0.80099,-0.20558 1.60602,-0.41615 2.40002,-0.684c1.20944,-0.408 1.60153,-0.58917 2.37866,-0.94c0.75354,-0.34018 1.44775,-0.6965 2.64932,-1.288c0.70782,-0.34844 1.74353,-0.82167 2.4675,-0.88216c0.90137,-0.07532 1.75784,-0.0045 2.53116,-0.0045c0.9805,0 1.85019,0 2.83585,0c0.51883,0 1.57349,0 2.60416,0c0.95868,0 1.82935,0 2.604,0c0.67068,0 1.86191,-0.08865 2.82935,0.00017c0.91144,0.08368 1.5686,0.72778 2.32132,0.9745c0.88565,0.29031 1.84122,0.43047 2.57333,0.72983c0.8783,0.35912 1.59982,0.92532 2.32666,1.3955c0.66147,0.42788 1.46375,0.97128 2.26801,1.464c0.77081,0.47224 1.63321,0.34219 2.57733,0.60266c0.69174,0.19085 1.42465,0.59788 2.43335,0.78067c0.79398,0.14388 1.79587,0.34414 2.564,0.62733c0.9473,0.34925 1.9848,0.08839 2.66934,0.592c0.65341,0.48069 1.2262,0.90669 2.22,1.11733c0.6348,0.13455 1.29971,0.32859 2.61331,0.54934c0.81989,0.13778 1.55536,0.14912 2.5,0.33333c0.79382,0.15479 1.61646,0.42173 2.66669,0.83334c0.71558,0.28045 1.33557,0.63928 2.36649,0.87867c0.76828,0.1784 1.74316,0.41512 2.55283,0.76866c0.87332,0.38135 1.66571,0.35213 2.64868,0.63667c0.63022,0.18242 1.76151,0.58161 2.55133,0.65884c0.8194,0.08012 1.88107,0.03754 2.59018,0.06167c0.85379,0.02905 1.85498,0.28176 2.62115,0.57017c0.81357,0.30624 1.63467,0.42466 2.53601,0.42533c0.97198,0.00072 1.84335,0.01481 2.57199,-0.01067c0.8378,-0.02929 2.03009,-0.20078 2.6235,-0.342c0.87207,-0.20753 1.93347,-0.51436 2.65182,-0.59016c0.90186,-0.09517 1.87454,-0.0408 2.68866,-0.06783c0.86926,-0.02886 1.76846,-0.1357 2.65952,-0.342c0.87332,-0.2022 1.93588,-0.4936 2.64734,-0.59467c0.85062,-0.12083 1.85461,-0.34382 2.45715,-0.55267c0.99597,-0.34521 1.8085,-0.42426 2.60001,-0.584c1.01498,-0.20485 1.78656,-0.61618 2.60001,-0.79467c0.79034,-0.17342 1.80154,-0.28314 2.61066,-0.54666c0.8764,-0.28543 1.87424,-0.49493 2.71017,-0.57467c0.58337,-0.05564 1.78125,-0.21145 2.37466,-0.35267c0.87207,-0.20753 1.93597,-0.49363 2.8685,-0.622c0.63034,-0.08678 1.64139,-0.30044 2.47198,-0.63599c0.93536,-0.37788 1.72327,-0.6965 2.30566,-0.88934c0.94122,-0.31163 1.97894,-0.60343 2.71552,-0.8c0.76273,-0.20355 1.54727,-0.40029 2.74283,-0.7c0.79861,-0.2002 1.59012,-0.397 2.36401,-0.6c0.7514,-0.1971 1.81784,-0.49009 2.48331,-0.7045c0.98291,-0.31669 1.64218,-0.56797 2.67386,-1.01667c0.73099,-0.31793 1.4491,-0.67917 2.16898,-0.969c1.25247,-0.50426 2.04181,-0.62671 2.70084,-0.758c1.01624,-0.20245 1.78967,-0.59954 2.80902,-0.83051c0.78912,-0.1788 1.80325,-0.27768 2.40448,-0.474c0.85757,-0.28003 1.81573,-0.53575 2.62085,-0.622c0.82098,-0.08795 1.86282,-0.21812 2.54932,-0.46133c0.92371,-0.32726 1.90613,-0.77631 2.46133,-0.95334c0.86197,-0.27484 1.76205,-0.46061 2.65952,-0.558c0.86691,-0.09407 1.94547,-0.19239 2.64734,-0.40533c0.86328,-0.26191 1.85333,-0.59498 2.62115,-0.63667c0.94931,-0.05154 1.836,-0.01067 2.63599,-0.01067c0.90002,0 1.80002,0 2.74167,0c1.00119,0 1.71967,-0.00006 2.51016,0c1.02652,0.00008 1.94232,-0.1208 2.78152,0.16666c0.81268,0.27839 1.5661,0.81533 2.46664,0.83334c0.89984,0.01799 1.80002,0 2.70001,0c0.79999,0 1.8226,-0.4112 2.64282,0.05717c0.81317,0.46433 1.1683,1.06116 1.84119,1.79483c0.55988,0.61047 0.92929,1.42479 1.75882,1.981c0.78168,0.52411 1.51904,0.81522 2.14651,1.567c0.54727,0.65569 0.8446,1.55827 1.258,2.3c0.42563,0.76368 0.77396,1.55887 1.23132,2.39983c0.40652,0.7475 0.99265,1.26538 1.12268,2.10017c0.14261,0.91546 0.8085,1.45409 0.98798,2.4c0.16779,0.88429 0.01068,1.8 0.01068,2.7c0,0.89999 0,1.8 0,2.7c0,0.8 0,1.7 0,2.6c0,0.9 0.00067,1.8 0,2.7c-0.00067,0.89999 -0.30087,1.75082 -0.64734,2.39999c-0.45334,0.84937 -0.35266,1.8 -0.35266,2.7c0,0.9 0,1.8 0,2.7c0,0.9 0,1.65717 0,2.55267c0,0.86333 0,1.84734 0,2.66867c0,0.85333 0,1.79333 0,2.77883c0,0.78516 0,1.72517 0,2.41584c0,1.07333 0,1.98399 0,2.88399c0,0.90001 0,1.8 0,2.70001c0,0.89999 0,1.7 0,2.59999c0,0.90001 0.28906,1.85197 -0.01068,2.68933c-0.26373,0.73674 -0.98398,1.2213 -0.98932,2.11067c-0.0054,0.89998 0.02161,1.81212 -0.42532,2.48534c-0.4939,0.74396 -0.45074,1.45244 -1.01068,2.37866c-0.43976,0.72745 -1.14423,1.22832 -1.564,2.136c-0.36697,0.79353 -0.71664,1.54642 -1.08401,2.3c-0.40662,0.83409 -1.37939,1.04512 -2.11731,1.48666c-0.62741,0.37543 -1.30139,1.17876 -1.77783,1.71333c-0.71878,0.80649 -1.06262,1.64862 -1.72534,2.05267c-0.78812,0.4805 -1.49744,1.1454 -1.99551,1.64732c-0.69202,0.69734 -1.25726,1.49698 -1.29999,2.40001c-0.04251,0.89899 0,1.7 0,2.59999c0,0.90001 -0.00226,1.8 0,2.7c0.00226,0.89552 0.66602,1.40881 0.97916,2.12083c0.34985,0.79553 0.78027,1.42036 1.01636,2.18367c0.26489,0.8564 0.46088,1.67723 0.92047,2.49417c0.39529,0.70265 1.07767,1.20988 1.58401,1.80133c0.50891,0.59444 0.1333,1.57971 0.52084,2.47917c0.3078,0.71434 0.79648,1.2515 1.01517,2.12083c0.21939,0.87212 0.7869,1.56882 0.96399,2.39999c0.20905,0.9812 0.42026,1.68129 1,2.47917c0.46603,0.64137 0.98209,1.18262 1.35266,2.17349c0.26431,0.70677 0.53088,1.61226 0.814,2.51401c0.21194,0.67514 0.73068,1.65623 0.82266,2.42267c0.10608,0.88405 0.7038,1.46503 0.92667,2.26399c0.24539,0.87964 0.23718,1.819 0.58401,2.62584c0.36459,0.84818 0.41144,1.72743 0.92532,2.45949c0.46167,0.65765 0.59552,1.54051 1.14935,2.08667l0.478,0.67917l0.44733,0.7955" id="svg_1" stroke-width="5" stroke="#000000" fill="#ffffff"/> <path transform="rotate(179.4897003173828 208.50262451171875,118.15733337402344) " d="m209,109c0,1.8 0,2.7 0,3.52084c0,0.96716 0,1.76183 0,2.8125c0,0.63599 0,1.6875 0,2.4185c0,1.0815 0.01732,1.76339 -0.02083,2.72733c-0.02441,0.61692 -0.19106,1.82303 -0.40451,2.72083c-0.14302,0.60154 -0.40799,1.8 -0.5175,2.6955l-0.03633,0.58366l-0.0195,0.8355" id="svg_2" stroke-width="5" stroke="#000000" fill="#ffffff"/> <path d="m211,96c1.2215,-0.87867 2.12404,-1.19308 2.7,-1.7045c0.65118,-0.57822 1.27728,-1.17871 2.13333,-1.7955c0.78299,-0.56415 1.2419,-0.86491 1.72534,-1.18667c1.0193,-0.67841 1.54643,-1.0174 2.07733,-1.34666c1.51221,-0.93787 1.99223,-1.19695 2.88133,-1.70534c0.42027,-0.24031 1.24232,-0.67146 2.31599,-1.42799c0.69626,-0.49061 1.3092,-1.03749 1.884,-1.536c0.51054,-0.44279 1.69078,-1.09469 2.239,-1.659c0.67688,-0.69674 1.09964,-1.30676 1.83968,-1.813c0.51521,-0.35246 1.52328,-0.92966 2.16232,-1.3045c1.03003,-0.60416 1.61168,-1.12548 2.44167,-1.49551c0.78499,-0.34996 1.45389,-0.87962 2.25717,-1.32083c0.72232,-0.39674 1.76579,-0.50906 2.47084,-0.72983c0.86267,-0.27012 1.46585,-0.6262 2.35117,-0.99551c0.7075,-0.29514 1.17001,-1.32015 1.81816,-1.8045c0.48773,-0.36446 1.5246,-1.02854 2.241,-1.413c0.78812,-0.42294 1.75006,-0.5943 2.56233,-0.98333c0.6954,-0.33306 1.56252,-0.95248 2.23801,-1.26367c0.78004,-0.35935 1.20724,-0.52612 2.065,-0.91917c1.26942,-0.58168 2.02609,-0.98735 2.70299,-1.37416c0.60281,-0.34447 1.67728,-0.6767 2.436,-1.236c0.65411,-0.48219 1.15305,-0.96145 2.22668,-1.272c0.76233,-0.2205 1.32028,-0.41061 2.30933,-1.03467c0.72675,-0.45855 1.34573,-1.07037 2.08798,-1.512c0.75989,-0.45211 1.59552,-0.77232 2.66669,-1c0.69855,-0.14848 1.53244,-0.14634 2.414,-0.51933c0.95538,-0.40424 1.78656,-0.52567 2.586,-0.814c0.80811,-0.29145 1.60797,-0.71719 2.36667,-1.11733c0.85837,-0.45272 1.57077,-0.73089 2.46164,-1.07317c0.59515,-0.22867 1.75952,-0.74283 2.28653,-0.94283c0.7905,-0.3 1.89859,-0.81656 2.51016,-1.17917c0.82843,-0.49119 1.57291,-0.85773 2.34164,-1.23683c0.84525,-0.41682 1.82523,-0.272 2.60001,-0.70934c0.72614,-0.40987 1.43243,-0.91856 1.85468,-1.46133c0.68747,-0.88369 1.29446,-1.12428 2.064,-1.71467c0.76761,-0.58891 1.45172,-1.20353 1.90668,-1.59867c0.93268,-0.81006 1.45407,-1.20318 2.25381,-1.77917c0.50894,-0.36655 1.56598,-1.1178 2.09952,-1.61016c0.74414,-0.68672 1.36429,-1.47836 1.92133,-1.88984c0.81888,-0.60489 1.39468,-0.99643 1.85266,-1.82083c0.41235,-0.7423 0.61942,-1.50043 0.64734,-2.4c0.0293,-0.94411 0.85638,-1.3518 1,-2.3c0.11981,-0.79098 -0.09866,-1.70848 0.02084,-2.52083c0.14529,-0.98784 0.67416,-1.61867 0.89383,-2.59383c0.19547,-0.86769 0.08533,-1.68533 0.08533,-2.58533c0,-0.9 -0.32538,-1.86586 0.01068,-2.68933c0.31686,-0.77644 0.17538,-1.03453 -0.29602,-1.81067c-0.41083,-0.67637 -1.19995,-1.31509 -1.81467,-1.89983c-0.58633,-0.55774 -1.50983,-0.87203 -0.91467,-1.3255c0.60916,-0.46414 1.31229,-0.57153 2.34802,-0.74133c0.97223,-0.15939 1.6445,-0.33937 2.30417,-0.48067c1.30399,-0.27929 2.04898,-0.35042 2.96249,-0.35267c0.89999,-0.00222 1.84265,0 2.54132,0c0.84451,0 1.58282,0 2.42117,0c0.89835,0 2.27087,-0.00422 3.15085,0.00133c0.84003,0.0053 1.64188,0.01106 2.39999,0.084c1.06873,0.10282 1.72467,0.26869 2.63998,0.48933c1.07962,0.26026 1.80118,0.28642 2.58502,0.478c1.06006,0.25909 1.75922,0.83948 2.53314,1c0.88977,0.18455 1.83017,0.37943 2.52451,0.594c0.72751,0.22483 1.78876,0.66243 2.44684,1.006c0.64264,0.3355 1.54004,0.89555 2.45682,1.32567c0.8652,0.40591 1.42667,0.58093 2.55734,0.9005c0.83279,0.23537 1.40155,0.86601 1.90018,1.473c0.67001,0.81562 1.29218,1.1081 2.24283,1.81483c0.61966,0.46068 1.17392,1.04106 2,1.66667c0.57819,0.43786 1.41589,0.84923 2.116,1.652c0.43311,0.49662 1.0412,1.52243 1.53217,2.11017c0.48135,0.57626 1.0415,1.41312 1.43451,2.20317c0.37619,0.7563 1.02267,1.51999 1.43817,2.243c0.36914,0.64236 0.96213,1.64298 1.3045,2.18367c0.34827,0.55 1.02853,1.59659 1.41299,2.313c0.42294,0.78811 0.58163,1.75623 0.983,2.56166c0.38229,0.76717 0.76791,1.5 0.77866,2.4c0.01062,0.88933 0.2608,2.12315 1.00134,2.13066c0.75143,0.00762 1.32175,-0.85012 2.10281,-1.17233c0.52963,-0.21849 1.56052,-0.63052 2.43317,-0.94233c0.9725,-0.34749 1.48303,-0.51748 2.50919,-0.86333c0.50259,-0.16939 1.89017,-0.62682 2.673,-0.8955c0.67764,-0.23257 1.53827,-0.49759 2.46616,-1.05267c0.63632,-0.38067 1.51434,-0.70225 2.41434,-0.7045c0.94165,-0.00235 1.73361,0.01492 2.69333,-0.01067c0.60034,-0.016 1.2829,-0.05171 2.44949,-0.21083c0.86951,-0.1186 1.77896,-0.29453 2.70901,-0.483c0.46597,-0.09443 1.82758,-0.39088 2.68649,-0.5955c0.82108,-0.19559 1.60257,-0.39079 2.69501,-0.7c0.68164,-0.19293 1.62094,-0.49436 2.20499,-0.64283c1.03351,-0.26273 1.91986,-0.34675 2.94034,-0.35717c0.77396,-0.0079 1.68298,0 2.483,0c0.95984,0 1.77432,0 2.64282,0c1.19568,0 1.80002,0 2.73151,0c0.64932,0 1.68518,0 2.77866,0c0.724,0 1.41602,0 2.61334,0c0.91467,0 1.90265,-0.08591 2.65601,0.08533c0.79916,0.18166 1.51477,0.63087 2.51599,1.11333c0.59668,0.28752 1.60172,0.62576 2.41068,0.78667c0.87665,0.17437 1.87814,0.57995 2.436,0.876c0.60233,0.31965 1.91327,0.98977 2.63733,1.25333c0.73495,0.26753 1.49078,0.47425 2.23199,0.684c1.06268,0.30073 1.72839,0.49651 2.67334,0.80133c0.61035,0.19689 1.81049,0.5966 2.39999,0.8c0.85522,0.29508 1.89932,0.67781 2.564,1c0.77283,0.37461 1.58829,1.0463 2.41333,1.6c0.63535,0.42639 1.36826,0.65723 2.3125,1c0.84534,0.30686 1.38635,0.83347 2.17801,1.3c0.73029,0.43037 1.7402,0.90836 2.36368,1.2c0.6604,0.30891 1.66315,0.7 2.47916,1c0.81601,0.3 1.81946,0.68962 2.47916,1c1.02856,0.48393 1.62085,0.80001 2.42084,1.2c0.80002,0.40001 1.60153,0.79697 2.60001,1.3c0.59192,0.2982 1.23636,0.74686 1.97916,1.47917c0.59454,0.58617 1.40552,0.99345 2.1875,1.52083c0.63892,0.4309 1.39355,0.74194 2.19736,1.4c0.67654,0.55387 1.2616,1.17545 1.93597,1.9045c0.52042,0.56261 0.97668,1.36213 1.40002,2.04284c0.56927,0.91533 1.13281,1.42079 1.69998,2.06333c0.63873,0.72359 1.00528,1.42259 1.39999,2.19067c0.51138,0.99516 0.79996,1.62376 1.36667,2.39867c0.45789,0.62609 1.0737,1.19281 1.66669,2.16666c0.46301,0.7604 0.65665,1.35031 0.96533,2.23467c0.31235,0.8949 0.60132,1.79866 0.80133,2.39867c0.39999,1.2 0.69894,2.10648 0.92084,2.72083c0.23059,0.63844 0.64044,1.64822 0.96317,2.36317c0.33578,0.74387 0.69849,1.48711 1.03198,2.23199c0.47351,1.05757 0.86322,2.04031 1.03735,2.67333c0.32956,1.19813 0.36264,1.81067 0.44666,2.71067c0.08401,0.9 0.21283,1.80198 0.42532,2.7c0.21347,0.90207 0.43933,1.79675 0.51752,2.7c0.0777,0.89784 0.04388,1.50008 0.0585,2.69866c0.01074,0.88065 -0.03653,1.46417 0.28265,2.71467c0.16824,0.65908 0.65091,1.65889 0.71152,2.43934c0.0697,0.8973 0.00443,1.76333 0.00449,2.62199c0.00009,0.94684 -0.03143,1.85105 0.22134,2.8255c0.16162,0.62305 0.55365,1.47523 0.69333,2.48383c0.1123,0.81081 0.06555,1.63223 0.08667,2.63067c0.01852,0.87515 0.21378,1.88749 0.42398,2.48534c0.28235,0.80298 0.54205,1.79876 0.57019,2.6c0.0351,0.9994 0.00449,1.8 0.00449,2.8c0,0.8 0,1.8 0,2.58934c0,1.04399 0,1.836 0,2.69733c0,0.76001 0,1.93468 0,2.73866c0,0.82201 0,1.85318 0,2.53868c0,0.83466 0,1.836 0,2.63599c0,0.99867 0,1.76401 0,2.84283c0,0.85735 0,1.6425 0,2.5825c0,1.008 0,1.76401 0,2.67467c0,0.89999 0,1.8 0,2.7c0,0.90018 0.06674,1.68846 -0.01068,2.62534c-0.08398,1.01653 -0.67526,1.57808 -0.93216,2.47467c-0.24875,0.86821 -0.05716,1.86667 -0.05716,2.54666c0,0.84 0,1.83734 0,2.65334c0,0.81599 0,1.81599 0,2.72533c0,0.94135 0.04456,1.72632 -0.03601,2.51334c-0.11548,1.12785 -0.65656,1.8387 -0.87866,2.74533c-0.16528,0.67474 -0.08533,1.76334 -0.08533,2.68268c0,0.85416 0,1.83333 0,2.62267c0,0.72533 -0.00006,1.8 0,2.62132c0.00009,0.91084 -0.03397,1.8157 0.22134,2.78934c0.16074,0.61301 0.57587,1.38507 0.7215,2.40451c0.12082,0.8457 0.0408,1.81737 0.06784,2.63148c0.02887,0.86928 0.13568,1.76846 0.34198,2.6595c0.20221,0.87334 0.48813,1.93666 0.59467,2.63834c0.11328,0.74619 0.87079,1.45628 1.05133,2.2675c0.19522,0.87721 -0.32678,1.87062 0.02219,2.67784c0.30865,0.71397 0.9769,1.22531 0.97916,2.12083c0.00232,0.92082 -0.03488,1.88918 0.03601,2.64667c0.08658,0.92519 0.3266,1.70337 0.53867,2.528c0.27142,1.05545 0.39529,1.76248 0.42398,2.73866c0.0253,0.86096 0.0014,1.80817 0.00134,2.69733c-0.00009,0.98933 0.05551,1.80348 -0.16666,2.78934c-0.13904,0.617 -0.53799,1.44519 -0.71201,2.42149c-0.14392,0.80742 -0.1391,1.68816 -0.28799,2.57851c-0.15085,0.90208 -0.42563,1.75978 -0.54935,2.31467c-0.27005,1.21118 -0.40466,1.91832 -0.93134,2.73351c-0.4032,0.62404 -0.31644,1.59167 -0.78867,2.36249c-0.49274,0.80428 -0.93103,1.43484 -1.36398,2.10535c-0.55878,0.86539 -1.43878,1.31671 -2.08536,1.65332c-0.8335,0.43393 -1.25336,1.11674 -2.31433,1.58784c-0.72247,0.32079 -1.40799,0.79897 -2.1575,1.18567c-0.83521,0.43091 -1.54321,-0.36433 -2.06815,-0.91484c-0.61407,-0.644 -1.36188,-1.05168 -2.19968,-1.5905c-0.46262,-0.29752 -0.95789,-0.59862 -2.54166,-1.60417c-0.5553,-0.35255 -1.11368,-0.71413 -1.67252,-1.077c-1.099,-0.71362 -1.62631,-1.06082 -2.13666,-1.38933c-1.3544,-0.87184 -2.08405,-1.31032 -2.68018,-1.66968c-0.72748,-0.43854 -1.56519,-0.99574 -2.14398,-1.54399c-0.62378,-0.59087 -1.21667,-1.30768 -1.79102,-2.1015c-0.37848,-0.52312 -0.79205,-1.30637 -1.29916,-2.233c-0.42892,-0.78375 -1.56873,-0.63724 -2.0845,-1.25484c-0.52786,-0.63208 -1.2847,-1.04063 -1.85867,-1.73067c-0.54346,-0.65335 -0.52335,-1.44562 -1.08264,-2.11867c-0.55618,-0.6693 -0.82944,-1.44563 -1.28268,-2.19865c-0.40292,-0.66943 -0.71732,-1.63068 -0.96799,-2.51601l-0.48068,-0.7l-0.37799,-0.864l-0.62201,-0.48868" id="svg_3" stroke-width="5" stroke="#000000" fill="none"/> <path d="m212,96c0,1.8 0.3549,2.79264 -0.036,3.564c-0.35379,0.69812 -1.0811,1.21792 -1.53867,2.036c-0.43198,0.77231 -0.99911,1.34361 -1.45067,2.01067c-0.49879,0.73683 -1.18303,1.40664 -1.61751,2.08933c-0.46596,0.73213 -0.35716,1.7 -0.35716,2.60001c0,0.89999 0,1.8 0,2.7c0,0.75716 -0.05261,1.6634 0.05716,2.4045c0.14978,1.01128 0.57712,1.81696 0.77617,2.76216c0.16367,0.77718 0.12686,1.61876 0.33334,2.66667c0.1418,0.71964 0.5412,1.54788 0.74933,2.56533c0.15494,0.75742 0.46127,1.66533 0.8,2.4c0.39511,0.85697 0.28149,1.80133 0.284,2.70133c0.00226,0.80901 0.15895,1.83553 0.35716,2.51883c0.24403,0.84131 0.45442,1.46628 0.74268,2.5025c0.2029,0.72937 0.4101,1.47263 0.61482,2.59467c0.19298,1.0576 0.24416,1.72618 0.27467,2.67334c0.01962,0.60909 -0.01216,1.8102 0.03149,2.68983c0.04155,0.83694 0.26273,1.83563 0.47917,2.5c0.33266,1.02104 0.4808,1.82028 0.49867,2.62083c0.02242,1.00426 0.00133,1.85716 0.00133,2.82166c0,0.82501 0,1.74001 0,2.74501c0,0.71733 0,1.45866 0,2.20799c0,1.45866 0,2.14 0,2.78934c0,0.9315 0,2.13583 0,2.73149c0,0.86852 0,1.93784 0,2.85783c0,0.76001 0.00232,1.72585 0,2.64667c-0.00226,0.89552 -0.72559,1.47392 -0.98933,2.21068c-0.29976,0.83736 -0.01067,1.78932 -0.01067,2.68933c0,0.89999 0,1.8 0,2.7c0,0.8 0.00073,1.7 0,2.636c-0.00067,0.84933 0.04158,1.59239 -0.22133,2.56383c-0.21622,0.79892 -0.74442,1.77057 -0.77734,2.59883c-0.0336,0.84535 0.91493,1.35564 0.99867,2.20134c0.07462,0.75348 0,1.65266 0,2.51601c0,0.98399 -0.00146,1.96799 0,2.65866c0.00226,1.06366 0.5737,1.63249 0.91467,2.39467c0.32124,0.71808 -0.02902,1.84648 0.36932,2.63066c0.33485,0.65918 0.71375,1.49998 0.716,2.40001c0.00224,0.89999 -0.06439,1.83134 0.2215,2.72166c0.23839,0.7424 0.59741,1.35815 0.9785,2.36366c0.31461,0.83011 0.50325,1.41809 0.89984,2.6145c0.19728,0.59512 0.51486,1.45267 0.73349,2.53349c0.18454,0.91231 0.18852,1.70766 0.59201,2.53067c0.42722,0.87141 0.61591,1.53827 1.01067,2.472c0.33025,0.78111 0.81277,1.54295 1.12799,2.364c0.37566,0.9785 0.39732,1.7798 0.436,2.63333c0.03912,0.86317 0.4604,1.69028 0.94733,2.46217c0.44312,0.70244 1.04007,1.22517 1.05267,2.10449c0.01297,0.90443 0.16667,1.76668 0.5,2.60001c0.33333,0.83333 0.4803,1.64021 0.784,2.48399c0.3172,0.88133 0.54491,1.77417 0.71617,2.61584c0.17229,0.84676 0.78548,1.34221 1.2865,2.10016c0.46791,0.70787 1.42592,1.01157 2.00349,1.5c0.7942,0.67163 1.15114,1.4558 1.76251,1.94734c0.64452,0.51819 1.58333,0.35266 2.60449,0.35266c0.74733,0 1.7415,-0.0016 2.50684,0c1.07433,0.00226 1.80695,0.35599 1.836,0.19733c0.16164,-0.88264 0,-1.79733 0,-2.69733c0,-0.89999 0.13655,-1.85664 -0.284,-2.7c-0.32993,-0.66165 -0.70309,-1.50008 -0.716,-2.40001c-0.01262,-0.87932 -0.75163,-1.34364 -0.9955,-2.10449c-0.28702,-0.89549 -0.86089,-1.34731 -1.0045,-2.2955c-0.11981,-0.79099 -0.33101,-1.45149 -0.83333,-2.16667c-0.48845,-0.69543 -0.16667,-1.63333 -0.16667,-2.53333l-0.05716,-0.94284" id="svg_4" stroke-width="5" stroke="#000000" fill="none"/> <path d="m252,153c1,0 1.59058,-0.38452 2.28667,-0.916c0.72725,-0.55528 1.55226,-0.51392 2.31465,-0.88533c0.99808,-0.48624 1.52139,-0.91194 2.64151,-1.14151c0.8414,-0.17245 1.73941,-0.07443 2.46701,-0.40982c0.80417,-0.37068 1.69873,-0.52124 2.49017,-0.93134c0.86163,-0.44646 1.6026,-0.79556 2.34164,-1.23683c0.79456,-0.47441 1.45477,-0.80075 2.20767,-1.04317c1.09604,-0.35289 1.94171,-0.42793 2.85068,-0.436c0.83203,-0.0074 1.90195,-0.15793 2.452,-0.28534c0.9516,-0.22043 1.62549,-0.33214 2.6835,-0.8145c0.86725,-0.3954 1.66394,-0.88216 2.56448,-0.90016c0.9025,-0.01804 1.67068,0 2.46802,0c0.98132,0 1.89871,-0.01054 2.81067,0c0.90067,0.01042 1.3739,0.70572 2.104,1.02533c0.80804,0.35373 1.58231,0.3739 2.31198,0.67917c1.05942,0.44322 1.73129,1.02994 2.49066,1.4955c0.70618,0.43295 1.70685,0.91597 2.30402,1.18933c1.03156,0.47221 1.59894,0.80267 2.29468,1.32668c0.61588,0.46385 1.45847,0.51053 2.13733,1.16266c0.57999,0.55716 1.25266,1.01509 1.97867,1.40533c0.85477,0.45946 1.52213,0.95546 1.96933,1.51733c0.56982,0.71593 1.39325,0.93942 2.19467,1.59866c0.78452,0.64534 1.23538,1.25554 2.12,1.79868c0.66583,0.4088 1.53503,0.55812 2.31467,0.88533c0.86639,0.36362 1.59067,0.89067 2.20132,1.416l0.61066,0.52533l0.80002,0.40001" id="svg_5" stroke-width="5" stroke="#000000" fill="none"/> <path d="m365,158c1.83334,-0.16667 2.21524,-0.9391 3.10001,-1c0.89786,-0.0618 1.68109,-0.11768 2.5,-0.57466c0.77274,-0.43121 1.34119,-1.00269 2.01065,-1.45067c0.73544,-0.49213 1.59399,-0.84973 2.48935,-0.97484c0.90646,-0.12665 1.46042,-0.65347 2.19998,-1.29533c0.66669,-0.57861 1.62354,-0.63937 2.17917,-1.22533c0.68802,-0.72556 1.0304,-1.31868 1.82083,-1.83633c0.79507,-0.52069 1.27951,-1.24951 2.10001,-1.61751c0.78262,-0.35101 1.72116,-0.63887 2.31467,-1.10933c0.73856,-0.58545 0.96301,-1.48279 1.72134,-1.88c0.76221,-0.39925 1.38553,-0.70935 2.17465,-1.02533c0.80679,-0.32304 1.32596,-0.78545 2.09384,-1.00616c0.86069,-0.24738 1.7955,-0.0045 2.6955,-0.0045c0.89999,0 1.81259,-0.14978 2.69983,0.00017c0.85202,0.144 1.3046,0.84708 2.10019,1.28383c0.6481,0.35577 1.5,0.76868 2.29999,1.216c0.79999,0.44733 1.53125,0.8369 2.29999,1.216c0.84525,0.41682 1.86642,0.2083 2.60001,0.72c0.67538,0.47112 1.20001,1.12799 2.10001,1.564l0.79999,0.35266l0.70001,0.48067l0.79999,0.16534" id="svg_6" stroke-width="5" stroke="#000000" fill="none"/> <path d="m261,153c1.22134,0.87866 1.81152,1.48917 2.436,1.97467c0.74597,0.57993 1.36398,0.82666 2.064,1.52533c0.70001,0.69867 1.3172,1.17355 2.10001,1.52533c0.82022,0.36859 1.46738,1.11227 2.03598,1.57468c0.80536,0.65495 1.55179,0.93085 2.47736,1.31599c0.81522,0.33923 1.29596,0.92267 2.08798,1.36934c0.60638,0.34198 1.4671,1.00107 2.00934,1.35066c1.01144,0.65211 1.55719,1.22232 2.18933,1.65416c0.76477,0.52245 1.80203,0.60991 2.57849,0.93117c0.77066,0.31886 1.64133,0.60905 2.52151,0.7995c0.85056,0.18405 1.65884,0.86218 2.336,0.94318c0.76068,0.09097 1.76401,0.036 2.564,0.036c1,0 1.80002,0 2.79984,0c0.96417,0 1.91913,0.08723 2.80017,0c0.8457,-0.08374 1.22449,-0.85863 2.10001,-1.00017c0.90353,-0.14607 1.69083,-0.49223 2.37915,-0.99983c0.69604,-0.51331 1.30496,-0.99355 2.17352,-1.35716c0.7164,-0.29991 1.46198,-0.84283 2.146,-1.44284l0.60132,-0.59999l0.70001,-0.69984l0.60001,-0.543" id="svg_7" stroke-width="5" stroke="#000000" fill="none"/> <path d="m375,158c1,1 1.61237,1.35661 2.28534,1.916c0.66913,0.5562 1.44415,0.82613 1.91467,1.56799c0.42749,0.67401 0.89789,1.75049 1.5,2.15434c0.80225,0.53812 1.82001,0.33737 2.60898,0.71432c0.68112,0.32542 1.46121,0.56769 2.23267,0.64734c0.86053,0.08885 2.05911,0.28085 2.65836,0.42534c0.90115,0.21727 2.09921,0.46227 2.7045,0.52199c0.93024,0.09178 1.5845,0.11118 2.617,0.274c1.11917,0.17648 1.88635,0.37003 2.67981,0.49467c1.19482,0.18771 1.99377,0.23662 2.77783,0.26317c0.7634,0.02585 1.85419,0.02083 2.53418,0.02083c0.94501,0 1.79999,0 2.79999,0c0.84,0 1.80402,0.0007 2.65601,0c0.79733,-0.00067 1.85019,0.24654 2.66635,-0.22133c0.76376,-0.43784 1.59854,-0.53175 2.2803,-1.06267c0.62659,-0.48795 1.37738,-1.20143 1.07333,-2.10533c-0.24948,-0.7417 -1.14822,-1.12871 -1.70532,-1.69467c-0.66064,-0.67113 -1.13522,-1.25281 -1.70932,-1.89067c-0.52087,-0.57872 -1.25021,-0.94475 -1.97467,-1.46133c-0.78546,-0.56009 -1.24283,-1.26399 -1.57916,-2.064l-0.04169,-0.97917l-0.55383,-0.54616l-0.33865,-0.69067" id="svg_8" stroke-width="5" stroke="#000000" fill="none"/> <path d="m312,206c0,1.8 0.00601,2.70001 0,3.60001c-0.00534,0.80005 -0.44067,1.66782 -0.716,2.37067c-0.30127,0.76901 -0.26471,1.59378 -0.36801,2.51733c-0.11588,1.03596 -0.2637,1.7668 -0.43683,2.51199c-0.17416,0.7496 -0.57513,2.17972 -0.77914,2.84283c-0.19614,0.63754 -0.49982,1.55589 -0.80002,2.45717c-0.2998,0.90005 -0.50119,1.4996 -0.89999,2.7c-0.19928,0.59981 -0.51337,1.49173 -0.71466,2.39999c-0.19794,0.89316 -0.24225,1.80173 -0.33801,2.70001c-0.09616,0.90207 -0.28983,1.7998 -0.46817,2.37917c-0.25931,0.84232 -0.71082,1.82243 -1.04315,2.71016c-0.2995,0.80002 -0.41068,1.61067 -0.52002,2.41068l-0.27316,1l-0.34732,0.79999" id="svg_9" stroke-width="5" stroke="#000000" fill="none"/> <path d="m376,209c1.70001,0.05716 2.4491,0.60735 3.3045,0.94733c0.82672,0.32857 1.71817,0.56975 2.29681,0.854c1.01093,0.49663 1.6709,0.83423 2.73203,1.36534c0.63345,0.31706 1.30945,0.65338 1.97998,1.008c0.63599,0.33635 1.9455,0.95393 2.39734,1.62399c0.48132,0.71379 0.75909,1.58795 1.28934,2.36801c0.42807,0.62979 1.009,1.4839 1.70001,1.8815c0.78989,0.4545 1.21701,1.25388 1.30133,2.15317c0.06433,0.68611 0.42792,1.63791 0.79999,2.39999c0.39163,0.80214 0.79868,1.59866 1.19867,2.39867c0.39999,0.8 0.68356,1.4084 1.20132,2.39999c0.42139,0.80707 0.95486,1.60864 1.45135,2.20001c0.51135,0.60907 1.18066,1.39999 1.59015,1.9955l0.45267,0.74733l0.60449,0.89549l0.70001,0.595" id="svg_10" stroke-width="5" stroke="#000000" fill="none"/> <path stroke="#000000" d="m325,235c0.34927,-0.916 1.51117,-1.10582 2.09885,-1.80133c0.62845,-0.7438 0.86603,-1.53854 1.6243,-2.2195c0.66498,-0.59715 1.64517,-1.39029 2.37161,-1.9375c0.64182,-0.48344 1.74762,-0.92409 2.49915,-1.5625c0.73999,-0.62863 1.57541,-1.16705 2.3475,-1.8685c0.62204,-0.56512 1.70065,-0.5249 2.9165,-0.832c0.85797,-0.21671 1.83716,-0.69057 2.90613,-0.77417c1.10211,-0.08621 2.04776,0.13959 2.88531,0.64284c0.81546,0.48999 1.74017,0.59091 2.59091,1.06866c0.94537,0.53091 1.85892,0.368 3.07806,0.56934l0.99884,0.23549l0.99884,0.2805" id="svg_11" stroke-width="5" fill="none"/> <path d="m360,229c1.22134,-0.87866 1.73788,-1.61021 2.436,-1.964c0.77133,-0.39088 1.76401,-0.036 2.664,-0.036c0.89999,0 1.69998,0 2.60001,0c0.89999,0 1.79999,0 2.69998,0c0.89999,0 1.88113,-0.13733 2.54733,0.35266c0.68423,0.50325 1.51886,0.51202 2.25269,0.93268c0.68655,0.39354 1.31967,1.16187 2.09549,1.66199c0.69806,0.45 1.2764,0.99754 1.72983,1.66335c0.49551,0.72762 1.35611,1.08702 1.922,1.74649c0.59103,0.68877 0.76868,1.44284 1.13669,2.3575l0.74933,0.45201" id="svg_12" stroke-linecap="null" stroke-linejoin="null" stroke-dasharray="null" stroke-width="5" stroke="#000000" fill="none"/> <path stroke="#000000" d="m338,179c0.83334,1.17024 0.87335,1.80736 1.2215,2.61462c0.28918,0.67061 0.79016,1.33142 1.08749,2.10774c0.24222,0.6324 0.49753,1.36053 0.66168,1.75024c0.54648,1.29735 0.79559,1.7536 1.04367,2.22903c0.51819,0.99315 0.80576,1.49872 1.09467,2.01398c0.29245,0.52159 1.19147,2.09789 1.48831,2.6228c0.29446,0.52071 0.58887,1.03372 1.13068,2.04559c0.26129,0.48796 0.53143,0.95607 1.129,2.30728c0.18155,0.41051 0.47842,1.19215 0.72168,1.91847c0.22556,0.67348 0.51001,1.61424 0.82132,2.46687c0.19302,0.52861 0.59555,1.47617 0.89551,2.09326c0.34222,0.70407 0.6759,1.49489 0.7045,2.33611c0.02686,0.78972 0,1.47919 0,2.31357c0,0.67172 0.00388,1.5443 0,2.20021c-0.00534,0.90565 -0.23929,1.73061 -0.5,2.35042c-0.35822,0.85165 -0.48087,1.55167 -0.49866,2.1888c-0.02634,0.94295 -0.05917,1.68042 0.22,2.46352c0.22479,0.63058 0.66336,1.46722 0.74265,2.16599c0.10352,0.91232 0.03601,1.57982 0.07202,2.43526l0.61133,0.42891" id="svg_13" stroke-linecap="null" stroke-linejoin="null" stroke-dasharray="null" stroke-width="5" fill="none"/> <path d="m351,177c0.87866,1.22133 1.48917,1.81151 1.97467,2.436c0.57993,0.74597 0.87372,1.3212 1.52533,2.08482c0.64932,0.76091 1.07104,1.44585 1.33334,2.3125c0.25415,0.83966 0.36688,1.56746 0.88266,2.25067c0.46454,0.61536 0.65469,1.34492 1.16251,2.1375c0.47845,0.74675 -0.20029,1.9164 0.28815,2.61183c0.50232,0.71519 0.83334,1.36667 0.83334,2.26668c0,0.89999 -0.01172,1.70007 0,2.59999c0.01044,0.8002 0.58914,1.61792 0.87851,2.40001c0.31512,0.85173 -0.27145,1.83035 0.20682,2.61465c0.49008,0.80365 0.91467,1.38535 0.91467,2.28534c0,0.8 0,1.7 0,2.60001c0,0.89999 0,1.79999 0,2.7c0,0.89999 0,1.8 0,2.7c0,0.8 0,1.7 0,2.60001c0,0.89999 -0.09546,1.84453 0.284,2.59999c0.43558,0.86722 0.71152,1.5 0.716,2.40001l-0.03601,0.96399l-0.61133,0.48868l-0.35132,0.74866" id="svg_14" stroke-linecap="null" stroke-linejoin="null" stroke-dasharray="null" stroke-width="5" stroke="#000000" fill="none"/> <path d="m288,280c0.81885,-1.10983 1.78104,-1.56656 2.31467,-1.90399c0.65701,-0.41547 1.43079,-0.95261 2.35199,-1.59601c0.5195,-0.36285 1.06967,-0.75156 2.23468,-1.57599c0.59885,-0.42377 1.19714,-0.84827 1.78799,-1.26602c0.57452,-0.40622 1.64258,-1.16006 2.56934,-1.802c0.41202,-0.2854 1.15692,-0.79507 1.82333,-1.24249c1.21591,-0.81638 1.8168,-1.20874 2.39716,-1.61349c0.56693,-0.39539 1.60245,-1.19623 2.06369,-1.59549c0.65091,-0.56345 1.42697,-1.28687 2.24649,-1.75784c0.70209,-0.4035 1.70453,-0.49039 2.61066,-0.65735c0.83307,-0.1535 1.47223,-0.81146 2.25269,-1.28931c0.68362,-0.41855 1.39511,-1.00198 2.146,-1.41467c0.84363,-0.46365 1.58105,-0.76538 2.36798,-1.28534c0.64606,-0.42688 1.42447,-0.76382 2.43335,-0.94733c0.79388,-0.14438 1.82309,-0.28568 2.564,-0.66333c0.84647,-0.43146 1.48407,-1.18256 2.336,-1.3685c0.9111,-0.19885 1.56079,-0.08365 2.552,-0.30618c0.95309,-0.21396 1.61694,-0.35132 2.6835,-0.81433c0.72311,-0.3139 1.5079,-0.37674 2.36465,-0.02167c0.74976,0.31073 1.53049,0.53159 2.41583,0.83734c0.94376,0.32593 1.79053,0.17703 2.68402,0.28534c0.91977,0.11148 1.4541,0.8085 2.39999,0.98798c0.88428,0.16779 1.74356,0.07764 2.42532,0.58536c0.64081,0.4772 1.59387,0.26013 2.47467,0.44617c0.84738,0.17899 1.48734,0.89124 2.25717,0.97467c0.89923,0.09747 1.7045,0.00449 2.66434,0.00449c0.81448,0 1.68298,0 2.87814,0c0.59134,0 1.42892,0.03598 2.55753,-0.00015c0.89236,-0.02856 1.78714,-0.38745 2.54733,-0.64719c0.78375,-0.26779 1.75946,-0.34732 2.71014,-0.35266c0.88535,-0.00497 1.82175,0.40274 2.60001,-0.08533c0.74042,-0.46436 1.30185,-0.80966 2.17068,-1c0.79373,-0.17389 1.60663,-0.7366 2.47867,-0.87866c0.92447,-0.1506 1.836,-0.03601 2.73599,-0.03601c0.89999,0 1.65717,0 2.55716,0c0.74734,0 1.74152,0 2.68567,0c0.89999,0 1.95505,-0.15933 2.60449,0.35266c0.61462,0.48453 1.45065,0.64743 2.05267,1.14734c0.61972,0.51459 1.38705,0.96912 2.16666,1.5c0.66122,0.45026 1.32153,0.78064 2.25452,1.54266c0.54315,0.44363 1.06134,0.95389 1.569,1.452c0.87283,0.85645 1.45245,1.51468 2.33115,2.10535c0.65381,0.43948 1.54065,0.86533 2.17868,1.42084c0.70001,0.6095 1.13831,1.15259 1.71066,1.65381c0.95908,0.8399 1.6001,1.18344 2.18933,1.578c0.81555,0.54614 1.3764,1.10098 2.20001,1.76334c0.77863,0.62619 1.39648,0.96994 2.39999,1.48401c0.59344,0.30402 1.36758,0.66431 2.24734,1.29999c0.65616,0.47412 1.40396,1.02106 1.99933,1.30002c1.15625,0.54175 1.71539,0.69214 2.564,1.03598c0.59424,0.24075 1.79105,0.84503 2.38934,1.18936c0.60172,0.34631 1.79584,1.01697 2.39865,1.29065c0.87466,0.39709 1.48624,0.56604 2.47968,1.20532c0.7084,0.45587 1.24915,1.03717 2.03766,1.79333c0.5025,0.4819 1.36246,1.09808 2.09467,1.48535c0.78223,0.41373 1.6066,0.79861 2.24649,1.15717c0.97476,0.54617 1.5025,0.89615 2.35352,1.45349c0.59244,0.388 1.48547,0.99506 2.08932,1.38483c0.89438,0.5773 1.48376,0.95215 2.39966,1.38284c0.86484,0.40668 1.686,0.66 2.55701,0.90018l0.67136,0.12149l-0.828,0" id="svg_15" stroke-linecap="null" stroke-linejoin="null" stroke-dasharray="null" stroke-width="5" stroke="#000000" fill="none"/> <path d="m303,285c1.79999,0 2.70001,0 3.60001,0c0.84265,0 1.54132,0 2.74133,0c0.80267,0 1.242,0 2.17667,0c1.48199,0 1.98166,0 2.97299,0c0.96735,0 1.43701,0.00006 2.33835,0c1.22766,-0.00009 1.95737,0.01923 2.94931,-0.03601c0.61969,-0.03452 1.82233,-0.24945 2.74219,-0.46399c0.63608,-0.14835 1.64438,-0.34705 2.36716,-0.41599c0.7681,-0.07327 1.59555,-0.09726 2.48401,-0.16803c1.47241,-0.11731 1.99637,-0.19711 3.07864,-0.34131c0.54953,-0.07321 1.64334,-0.22763 2.18134,-0.29068c1.52307,-0.17853 1.99588,-0.20203 2.88535,-0.25867c0.82523,-0.05255 1.60251,-0.06042 2.99866,-0.30933c0.66321,-0.11823 1.30054,-0.34155 2.65067,-0.54935c0.71237,-0.10965 1.44904,-0.12823 2.172,-0.19199c1.33035,-0.11728 2.14804,-0.33896 2.87601,-0.54935c0.94772,-0.2739 1.73715,-0.38724 2.56,-0.41464c1.05817,-0.03525 1.77267,-0.01068 2.67801,-0.01068c0.96899,0 1.79401,0 2.70898,0c1.005,0 1.72369,0 2.47433,0c0.77469,0 1.56534,0.00317 2.76385,-0.00015c0.79565,-0.00223 1.58228,0.01926 2.71481,-0.08517c1.06796,-0.09848 1.72791,-0.26852 2.67468,-0.48935c0.60916,-0.14209 1.81097,-0.35446 2.42133,-0.38931c0.9455,-0.05399 1.95599,-0.03601 3.03299,-0.03601c0.71469,0 1.38934,0 2.49185,0c0.95099,0 1.8645,0 2.7645,0c0.91068,0 1.82132,0 2.5,0c1.11465,0 2.00018,-0.01651 2.79999,0c0.87256,0.01801 1.74258,0.22235 2.46133,0.42532c0.79019,0.22314 1.81656,0.46103 2.75952,0.57468c0.7478,0.09012 1.62296,0.21585 2.62982,0.42532c0.69946,0.14554 1.37411,0.34058 2.57733,0.48935c0.91077,0.11261 1.88666,0.08533 2.772,0.08533c0.79999,0 1.70001,0 2.60001,0l0.89999,0l0.87866,0" id="svg_16" stroke-linecap="null" stroke-linejoin="null" stroke-dasharray="null" stroke-width="5" stroke="#000000" fill="none"/> <path stroke="#000000" transform="rotate(5.192270755767822 324.5801086425784,278.6253662109375) " d="m306.59811,270.80899c10.40036,3.17578 11.55978,3.55551 12.79053,4.10675c0.99704,0.44672 1.91409,0.99518 2.82108,1.54129c0.70844,0.42636 1.9613,1.1311 3.00333,1.59875c1.11139,0.49887 2.38391,0.96948 3.63168,1.47845c0.62762,0.25586 2.41757,1.05643 3.38672,1.64795c0.94263,0.57535 1.68991,1.17795 2.46436,1.72955c1.05795,0.75357 1.76135,1.1825 2.8223,1.70071c1.4194,0.6929 2.36917,1.05939 3.83975,1.45297l1.20425,0.37637" id="svg_17" stroke-linecap="null" stroke-linejoin="null" stroke-dasharray="null" stroke-width="5" fill="none"/> <path d="m336,265c1.79999,0 2.72107,-0.16269 3.5,0.02084c0.95532,0.2251 1.16119,1.23004 1.78534,1.89648c0.56525,0.60358 1.23126,1.14764 1.60001,1.77066c0.59189,1.00003 0.94,1.53735 1.46198,2.35934l0.48602,0.78601l0.405,0.70499l0.39999,0.80002" id="svg_18" stroke-linecap="null" stroke-linejoin="null" stroke-dasharray="null" stroke-width="5" stroke="#000000" fill="none"/> <path d="m355,264c1.39999,0.85068 2.11844,1.50967 2.71466,2.08267c0.68033,0.65384 1.10745,1.24432 1.50684,2.01767c0.39554,0.7659 0.88239,1.4411 1.18918,2.17166c0.35074,0.83524 0.74591,1.73349 1.23749,2.6235c0.3244,0.58734 0.86087,1.39124 1.1825,2.41782c0.19791,0.63162 0.39069,1.66516 0.81668,2.38217l0.34818,0.89017" id="svg_19" stroke-linecap="null" stroke-linejoin="null" stroke-dasharray="null" stroke-width="5" stroke="#000000" fill="none"/> <path d="m375,266c1.38934,0.86133 1.89734,1.82291 1.98932,2.58932c0.10611,0.88403 0.82877,1.40497 1.00934,2.21201c0.19623,0.87698 -0.01056,1.82382 0.42667,2.59866c0.40991,0.72644 0.65616,1.48627 1,2.44669c0.2204,0.61557 0.46133,1.57358 0.54935,2.36798c0.08582,0.77469 0.37799,1.97101 0.74133,2.58267l0.27951,0.90268l0.06165,0.94281" id="svg_20" stroke-linecap="null" stroke-linejoin="null" stroke-dasharray="null" stroke-width="5" stroke="#000000" fill="none"/> <path d="m297,296c1.70001,-0.05716 2.4361,-0.64587 3.32251,-0.94733c0.63586,-0.21625 1.88504,-0.27277 2.30283,-0.33801c0.94449,-0.14749 1.99213,-0.32455 2.54001,-0.41916c0.55612,-0.09604 2.21304,-0.39343 2.74533,-0.49551c1.02209,-0.19601 1.97256,-0.39194 2.41333,-0.5c1.51834,-0.37222 2.09152,-0.61844 3.00534,-0.94281c0.91013,-0.32309 1.83731,-0.35718 2.50665,-0.35718c0.76532,0 1.95334,0 2.67868,0c0.96448,0 1.88531,0 2.79431,0c1.02435,0 1.707,-0.02426 2.51233,0.03601c1.18259,0.08853 1.77872,0.24252 2.65784,0.46399c0.83682,0.21082 1.83191,0.44727 2.67416,0.48932c0.96021,0.04791 1.84668,0.01068 2.60385,0.01068c0.89551,0 1.75882,0 2.72198,0c0.92084,0 1.82083,0.00006 2.72086,0c0.90015,-0.00009 1.69437,-0.06131 2.62534,-0.42532c0.69788,-0.27286 1.65363,-0.56424 2.57465,-0.57468c0.89993,-0.01019 1.80002,0 2.70001,0c0.89999,0 1.70004,0.01114 2.60001,0c0.84183,-0.01044 1.84161,-0.22629 2.57199,-0.42532c0.83548,-0.22769 1.72482,-0.43784 2.61899,-0.51752c0.83499,-0.0744 1.8699,0.30371 2.65167,-0.09317c0.77502,-0.39343 1.27628,-0.95007 2.22668,-0.96533c0.75165,-0.01205 1.56522,-0.01172 2.54666,-0.284c0.93063,-0.25818 1.84451,-0.73163 2.64114,-1.01016c0.55963,-0.19568 1.43707,-0.4678 2.64017,-0.61917c0.57889,-0.07285 1.38834,-0.08307 2.58835,-0.08533c0.91449,-0.00171 1.70102,0.04086 2.65033,-0.01068c0.76782,-0.04169 1.75079,-0.36505 2.50684,-0.63666c0.88614,-0.31833 1.46579,0.21893 2.22916,0.56201c0.62881,0.28259 1.84976,0.06805 2.65335,0.09601c0.82281,0.02863 1.858,0.19498 2.53867,0.41464c0.84109,0.27145 1.83014,0.54221 2.57883,0.57019c1.02048,0.03815 2.00272,-0.06271 2.63184,0.42981c0.62408,0.48859 1.50934,0.57321 2.19998,0.57468c1.06818,0.00226 1.87619,0.30084 2.52536,0.64734c0.84937,0.45334 1.79999,0.35266 2.69998,0.35266c0.89999,0 1.80002,0 2.70001,0c0.89999,0 1.81073,-0.36435 2.54282,0.05716c0.81149,0.46725 1.35718,0.94284 2.15717,0.94284c0.90002,0 1.80002,0 2.70001,0c0.89999,0 1.80899,0 2.83334,0c0.672,0 1.41599,0 2.52365,0c0.83401,0 1.77899,0 2.62701,0c0.86331,0 1.88,0 2.716,0c0.90015,0 1.68533,0 2.63599,0c0.76532,0 1.75949,0 2.67868,0c0.84933,0 1.81384,-0.03943 2.48532,0.5c0.60699,0.48761 1.21506,1.04837 1.83334,1.66666c0.61829,0.61829 0.98056,1.25723 1.452,2.03336c0.41083,0.67636 1.24997,1.29498 1.71466,1.96664c0.54279,0.78455 1.27353,1.2056 1.83334,2c0.48956,0.69467 0,1.66669 -0.83334,1.83334l-0.70801,0.03601" id="svg_21" stroke-linecap="null" stroke-linejoin="null" stroke-dasharray="null" stroke-width="5" stroke="#000000" fill="none"/> <path d="m302,297c-1.2215,0.87851 -2.15347,0.81863 -3,1.16666c-0.67108,0.27591 -1.49985,0.82068 -2.39999,0.83334c-0.89542,0.0126 -1.51093,0.58786 -2.26416,0.87866c-0.80719,0.31161 -1.6153,0.08261 -2.66385,0.54666c-0.81854,0.36224 -1.27948,1.05734 -1.95734,1.48935c-0.77481,0.49377 -1.92859,0.20316 -2.35748,0.78983c-0.55521,0.75946 -0.80881,1.62552 -1.52383,2.12885c-0.69495,0.4892 -1.61441,0.28433 -2.43335,0.74133c-0.77274,0.43121 -1.31207,1.05753 -2.04666,1.45065c-0.77042,0.41229 -1.65128,0.7973 -1.35333,0.80801c0.8486,0.03055 1.56235,-0.8205 2.5,-0.83334c0.86243,-0.01184 1.52274,0.005 2.19916,-0.05716c1.26303,-0.11609 2.00656,-0.40219 2.81284,-0.65884c0.95511,-0.30402 1.83157,-0.21704 2.51334,0.29068c0.64081,0.4772 1.64117,0.11014 2.45383,0.44617c0.74255,0.30704 1.3819,0.94864 2.03818,0.97781c1.03568,0.04602 1.52664,0.85559 2.284,1c0.88278,0.16833 1.8183,-0.00061 2.59866,0.42667c0.8226,0.45038 1.70001,0.57468 2.60001,0.57468c0.79999,0 1.64902,0.00491 2.48532,-0.284c0.73859,-0.25516 1.71054,-0.63635 2.51468,-0.69516c0.99756,-0.07294 1.78934,-0.02084 2.83334,-0.02084c0.86215,0 1.76666,0 2.66666,0c0.89999,0 1.79999,0 2.70001,0c0.90033,0 1.61441,0.01141 2.57065,-0.00134c0.77118,-0.01028 1.63776,-0.05048 2.52917,-0.22c0.89651,-0.1705 1.73224,-0.48105 2.7785,-0.65717c0.87344,-0.14703 1.755,-0.12149 2.61716,-0.12149c0.90451,0 1.8045,0 2.7045,0c0.90451,0 1.76666,0 2.60001,0c0.97849,0 1.93527,0.40338 2.71466,-0.08533c0.74045,-0.46429 1.172,-0.914 2.12134,-0.91467c0.76532,-0.00055 1.75949,0 2.67868,0c0.96448,0 1.78992,-0.01453 2.80698,0.00015c0.72021,0.01041 1.84564,0.16367 2.36368,0.2825c0.83658,0.19193 1.71957,0.44043 2.91333,0.34802c0.59601,-0.04614 1.43399,-0.33539 2.47968,-0.50919c0.87375,-0.14523 1.755,-0.12149 2.61716,-0.12149c0.94049,0 1.78851,-0.00455 2.65182,0c1.01672,0.00534 1.81293,0.36746 2.46701,0.64734c0.91293,0.39063 1.72717,0.34091 2.58835,0.35132c0.89709,0.01083 1.78665,0.00134 2.64017,0.00134c1.03549,0 1.9155,0 2.93564,0c0.71701,0 1.62698,0.08243 2.56317,-0.02084c1.01508,-0.11197 1.72684,-0.41809 2.27966,-0.55383c1.17194,-0.28772 2.0722,-0.34903 2.90668,-0.45065c0.94229,-0.11475 1.71774,-0.4791 2.35602,-0.25732c0.72781,0.2529 1.67316,0.28265 2.57764,0.28265c0.80002,0 1.75986,0 2.57434,0c0.8685,0 1.76401,0 2.65952,0c0.8685,0 1.93784,0 2.64282,0c0.97501,0 1.83633,0 2.78317,0c0.88916,0 1.87833,0 2.65765,0c0.85419,0 1.71634,0.00073 2.65683,0c0.85068,-0.00067 1.62082,0.01962 2.78519,-0.22134c0.80228,-0.16602 1.55582,-0.48279 2.436,-0.65717c0.8815,-0.17462 1.79553,-0.11612 2.65881,-0.12149c0.85873,-0.00534 1.79861,-0.23929 2.50485,-0.5c0.97034,-0.35822 1.78854,-0.38242 2.49384,-0.58401c1.00992,-0.28867 1.78839,-0.88739 2.65198,-0.91599c0.85373,-0.02826 1.83334,0 2.62268,0c1.04401,0 1.85199,0.01385 2.69467,-0.284c0.70648,-0.24973 1.62756,-0.67328 2.51599,-0.716c0.79907,-0.03842 1.72595,0.18146 2.60001,-0.03601c0.87271,-0.21713 1.72131,-0.8425 2.39999,-0.94315l0.97849,-0.021l0.82019,-0.08517l0.80133,-0.48935" id="svg_22" stroke-linecap="null" stroke-linejoin="null" stroke-dasharray="null" stroke-width="5" stroke="#000000" fill="none"/> <path d="m241,228c-0.16667,1.83333 -0.9391,2.21523 -1,3.10001c-0.0618,0.89787 0,1.7 0,2.59999c0,0.90001 0.13165,1.69958 0.57466,2.43333c0.41937,0.6946 0.39934,1.58902 0.41467,2.23734c0.03065,1.29568 0.01067,2.11951 0.01067,2.84399c0,1.20683 0,2.02133 0,2.59601c0,1.18933 0,2.08482 0,2.6685c0,0.83549 0.03181,2.07083 -0.036,2.74615c-0.12093,1.20424 -0.3266,1.72472 -0.53867,2.54935c-0.27142,1.05545 -0.40614,1.97807 -0.42401,2.73866c-0.02267,0.96558 -0.00133,1.88666 -0.00133,2.79117c0,0.86215 0,1.6955 0,2.67398c0,0.82019 -0.41269,1.84494 0.05716,2.66434c0.39442,0.68787 0.94284,1.35718 0.94284,2.15717c0,0.90002 -0.00533,1.80005 0,2.70001c0.00534,0.90005 0.44234,1.61182 0.83333,2.5c0.28951,0.65765 0.48116,1.38715 1,2.16666c0.47089,0.70746 0.26768,1.62427 0.66667,2.33334c0.49435,0.87854 1.21667,1.37717 1.48933,2.11066c0.30281,0.81461 0.5287,1.54825 1.09467,2.10535c0.67113,0.66064 1.30107,1.19186 1.89067,1.70932c0.63776,0.55969 1.21094,1.06342 1.85866,1.74133c0.60406,0.63223 0.97772,1.32312 1.60268,1.80801c0.74979,0.58176 1.42371,0.86899 2.22566,1.32532c0.7774,0.44235 1.76067,0.79697 2.55299,1.10001c0.77667,0.29703 1.62054,0.73557 2.36401,1.164c0.7998,0.46088 1.58621,0.84241 1.90048,1.47766c0.45303,0.91577 0.33176,1.79156 0.6875,2.79169c0.24686,0.69397 1.16418,1.27463 1.548,1.96664c0.45728,0.82449 0.42276,1.65314 1.00134,2.28403c0.63651,0.69406 1.14883,1.20743 1.28534,2.116c0.12137,0.80783 0.63843,1.41644 1.19998,2.28531c0.45898,0.71021 0.95999,1.51901 1.45584,2.12369c0.54764,0.66785 0.97119,1.14368 1.54285,2.03381c0.42029,0.65442 0.79785,1.37918 1.19998,2.10901c0.59686,1.08325 1.00046,1.76178 1.38934,2.41217c0.55603,0.92996 1.05591,1.83054 1.32532,2.43332c0.3815,0.85361 0.616,1.67068 1.18533,2.59283c0.44873,0.72678 0.98117,1.47369 1.40002,2.15717c0.4801,0.78342 1.07144,1.45175 1.62164,2.19583c0.53922,0.72922 0.92215,1.31619 1.36502,1.94485c0.73013,1.0365 1.26672,1.76303 1.54932,2.12665c0.56723,0.72986 1.13312,1.44839 2.06384,2.3425c0.57645,0.55377 1.1897,1.0098 1.74301,1.49103c0.806,0.70102 1.50623,1.49957 1.93631,2.05182c0.42255,0.54257 1.21216,1.58646 1.62534,2.04733c0.6185,0.68991 1.07648,1.14102 2.0795,2.13535c0.53903,0.53433 1.07852,1.0697 1.63202,1.54797c0.7471,0.64557 1.47565,1.12607 2.25098,1.57468c0.92792,0.5369 1.68777,0.96387 2.10001,1.2045c0.87485,0.51068 1.78787,1.04453 2.25168,1.3075c1.35562,0.76862 1.79358,1.00192 2.64532,1.44669c0.82303,0.42978 1.23105,0.63239 2.436,1.23599c0.79703,0.39926 1.57867,0.78934 2.328,1.164c0.70132,0.35068 1.63324,0.80667 2.41068,1.21066c0.71335,0.3707 1.6825,0.9465 2.2095,1.2735c0.7905,0.49051 1.79099,0.87912 2.48932,1.33099c0.76678,0.49615 1.41541,1.2291 2.125,1.54169c0.54865,0.2417 1.74344,0.79025 2.33749,1.13632c0.60626,0.35318 1.19974,0.74774 2.40018,1.54285c0.60422,0.40021 1.21573,0.80795 1.85699,1.19998c1.00192,0.61255 1.72006,1.00528 2.44684,1.37866c0.69479,0.35696 1.88776,0.91287 2.52899,1.11151c1.02209,0.31662 1.68497,0.58798 2.46832,0.82584c0.98508,0.29913 1.86255,0.30194 2.82019,0.50534c0.82132,0.17444 1.37823,0.41 2.57849,0.612c0.90729,0.15268 1.56238,0.15271 2.27151,0.16217c1.22839,0.01642 2.18988,0.0061 2.71799,-0.00452c1.15656,-0.02328 1.78687,-0.0575 2.45267,-0.10532c0.70358,-0.05054 2.22534,-0.21283 3.04382,-0.32867c0.85629,-0.12122 1.74332,-0.26764 2.65802,-0.42902c0.94,-0.16586 1.89899,-0.34756 2.87399,-0.53699c0.98767,-0.19189 2.98215,-0.59024 3.98151,-0.79117c0.99664,-0.20041 1.98767,-0.40118 2.96848,-0.6105c0.97018,-0.20706 1.92538,-0.41956 2.8605,-0.64648c0.9169,-0.22253 2.67401,-0.70145 3.50601,-0.96402c0.80399,-0.25372 1.56931,-0.52078 2.29349,-0.79349c0.68677,-0.25861 1.32611,-0.51913 1.9155,-0.77551c0.54251,-0.23599 1.45865,-0.67239 1.82834,-0.86716c0.32477,-0.17111 0.6095,-0.33435 0.86551,-0.492c0.72678,-0.44754 1.5939,-0.98785 2.388,-1.42267c0.4548,-0.24902 1.45929,-0.78818 1.992,-1.08533c0.54935,-0.30646 1.12424,-0.59891 2.76117,-1.66418c0.54309,-0.35342 1.0668,-0.73227 1.58548,-1.11447c0.51767,-0.38147 1.53262,-1.16714 2.03467,-1.56534c1.00354,-0.79593 1.50079,-1.19901 2.49686,-1.99417c0.49362,-0.39407 0.9826,-0.78497 1.94733,-1.54733c0.47131,-0.37247 1.38977,-1.09146 2.26917,-1.77051c0.42148,-0.32547 1.23029,-0.9389 1.96915,-1.52499c0.992,-0.7869 1.55444,-1.2695 2.04684,-1.72568c0.67166,-0.62228 1.46814,-1.44009 1.8765,-1.836c0.62543,-0.60635 1.55832,-1.40503 2.08084,-1.80133c0.54669,-0.41464 1.43448,-1.0369 2.31467,-1.76532c0.60956,-0.50446 1.19321,-1.05466 1.76401,-1.608c0.55444,-0.53748 1.30737,-1.31131 2.01065,-1.98935c0.44611,-0.43011 1.38367,-1.24707 1.90802,-1.63333c0.78436,-0.57782 1.29343,-0.91599 2.34534,-1.43332c0.84018,-0.41321 1.27579,-1.21405 2.01364,-1.66934c0.54141,-0.33408 1.55838,-0.79996 2.15836,-1.10001c1.00003,-0.50009 1.81812,-0.89255 2.39999,-1.28534c0.82904,-0.55963 1.39114,-1.15536 2.08533,-1.63065c0.96228,-0.65881 1.55496,-0.84891 2.41916,-1.23666c0.90012,-0.40387 1.79846,-0.89279 2.37466,-1.26819c0.57132,-0.37222 1.59967,-1.17917 2.07266,-1.57916c0.7095,-0.60001 1.19971,-1.02682 2.09067,-1.59982c0.64603,-0.4155 1.67712,-0.95306 2.30417,-1.31485c1.00912,-0.58224 1.63602,-1.10599 2.37466,-1.58533c0.66083,-0.42883 1.54099,-0.86465 2.15784,-1.39999c0.75888,-0.6586 1.32083,-1.29999 1.92084,-1.89999c0.70001,-0.70001 1.30002,-1.30002 1.89999,-1.89999c0.70001,-0.70001 1.439,-1.23434 1.664,-2.10001c0.22665,-0.87192 0.38962,-1.62326 0.75201,-2.39999c0.36856,-0.78992 -0.37717,-1.50235 -1.00134,-2.11734c-0.58905,-0.58038 -1.24884,-1.0817 -1.548,-1.91602c-0.30884,-0.8613 -1.26987,-1.48352 -0.88266,-2.08264c0.46463,-0.71896 0.64514,-1.43246 1.14133,-2.05869c0.52698,-0.66507 1.12305,-1.24039 1.74133,-1.85867c0.61829,-0.61829 1.20135,-1.01584 2.13333,-1.17114c0.81747,-0.13623 1.18185,-0.93372 1.75269,-1.63834c0.5918,-0.7305 1.21738,-1.13086 2.04733,-1.57852c0.64764,-0.34933 1.29596,-0.97116 1.98401,-1.49466c0.61359,-0.46683 1.45847,-0.51053 2.13733,-1.16266c0.57999,-0.55716 1.30881,-0.92624 1.97733,-1.40799c0.64203,-0.46265 0.63321,-1.57672 0.96799,-2.54669c0.23712,-0.68701 0.72906,-1.47095 0.83469,-2.36798c0.11453,-0.97266 0.39398,-1.64713 0.79999,-2.31467c0.53622,-0.88168 1.13779,-1.57788 1.19867,-2.48401c0.05362,-0.79819 0,-1.70001 0,-2.60001c0,-0.92084 0.04837,-1.8894 -0.03601,-2.61066c-0.11697,-0.99988 -0.50308,-1.79871 -0.67999,-2.47467c-0.25784,-0.98529 -0.24481,-1.81967 -0.36801,-2.63068c-0.15302,-1.0072 -0.52454,-1.87433 -0.91599,-2.68399c-0.38727,-0.80101 -0.77911,-1.58658 -0.91467,-2.39867c-0.15604,-0.93469 -0.08533,-1.84416 -0.08533,-2.80133c0,-0.90001 -0.17355,-1.83826 0.08533,-2.60001c0.30176,-0.88792 0.89734,-1.59944 0.91467,-2.5c0.01733,-0.89983 -0.24213,-1.65376 -0.64734,-2.39999c-0.4133,-0.76112 -0.27582,-1.73813 -0.70532,-2.60451c-0.30429,-0.61382 -0.57599,-1.53949 -0.73135,-2.29683c-0.20782,-1.01308 -0.64618,-1.78009 -0.83066,-2.79733c-0.13721,-0.75662 0.09308,-1.76942 -0.25198,-2.60133c-0.32532,-0.78436 -0.82291,-1.49982 -0.83334,-2.39999c-0.01041,-0.89995 0,-1.8 0,-2.70018c0,-0.78516 -0.09131,-1.74397 0.08533,-2.41583c0.26663,-1.01418 0.88602,-1.78264 0.91467,-2.68399c0.02863,-0.89972 0.06912,-1.69115 0.35266,-2.45717c0.27887,-0.75337 0.56201,-1.7415 0.64285,-2.68567l0.00449,-0.89999l0,-0.95717" id="svg_23" stroke-linecap="null" stroke-linejoin="null" stroke-dasharray="null" stroke-width="5" stroke="#000000" fill="none"/> <path d="m207,161c0,-1 -0.12317,-1.81541 0.05716,-2.75717c0.17734,-0.92616 0.70834,-1.55949 0.88568,-2.48566c0.18033,-0.94176 0.10495,-1.85844 0.05716,-2.75717c-0.04272,-0.80341 -0.56123,-1.46872 -0.94733,-2.3c-0.40443,-0.87079 -0.88588,-1.33971 -1.75267,-1.75267c-0.83681,-0.39867 -1.24477,-1.81578 -2.17883,-1.60416c-0.91734,0.20784 -0.83885,1.32401 -1.37851,1.9395c-0.42975,0.49014 -1.16742,1.35698 -1.69083,2.01816c-0.53468,0.67545 -1.0323,1.34438 -1.71851,2.19917c-0.64166,0.79932 -1.23987,1.48834 -1.32266,2.244c-0.10049,0.91724 -0.01241,1.98471 -0.02133,2.39999c-0.01933,0.89882 -0.0571,1.86293 -0.15601,2.856c-0.09966,1.0006 -0.25856,1.98935 -0.33333,2.47917c-0.14711,0.9637 -0.33914,2.35361 -0.37849,2.799c-0.07552,0.85475 -0.10965,1.65921 -0.12018,2.74983c-0.00897,0.92896 -0.00133,1.7 -0.00133,2.56934c0,0.99817 0,1.91733 0,2.78799c0,0.948 -0.04611,1.87108 0.05716,2.60933c0.14693,1.05032 0.67648,1.72955 0.89017,2.66701c0.17934,0.78673 0.27042,1.76073 0.47801,2.57433c0.14679,0.57533 0.41649,1.76294 0.52649,2.6685c0.07478,0.61566 0.16948,1.59473 0.49117,2.61717c0.23656,0.75185 0.59694,1.52078 0.77834,1.925c0.3777,0.84163 0.98016,2.17361 1.17734,2.63466c0.394,0.92125 0.76447,1.8217 0.94417,2.25166c0.48814,1.168 0.91869,2.08113 1.21049,2.79901c0.39444,0.97035 0.67624,1.82874 1.09401,2.56799c0.44368,0.78511 0.77893,1.63557 1.21399,2.12534c0.63261,0.71216 1.42732,1.38474 1.93733,2.05867c0.55379,0.73178 0.84795,1.5009 1.40134,2.23067c0.54976,0.72499 1.22134,1.30667 1.77068,1.856c0.79999,0.79999 1.30133,1.30133 1.85066,1.85066c0.58133,0.58133 1.47565,1.48155 2.07866,2.07416c0.59703,0.58672 0.88696,0.88309 1.5,1.41917c1.17305,1.0258 1.76605,1.44719 2.328,1.80267c0.91914,0.58144 1.76886,0.80876 2.75867,1.168c0.56673,0.20569 1.68001,0.71466 2.457,1.01466l0.759,0.3" id="svg_24" stroke-linecap="null" stroke-linejoin="null" stroke-dasharray="null" stroke-width="5" stroke="#000000" fill="none"/> <path d="m470,149c1,-1 1.35663,-1.61234 1.91599,-2.28534c0.55603,-0.66901 0.91183,-1.15427 1.64801,-1.73999c0.67654,-0.53827 1.27567,-1.18311 2.13602,-0.91751c0.86633,0.26744 1.21887,1.25835 1.46664,2.27617c0.16696,0.68591 0.43002,1.48309 0.54935,2.06934c0.24231,1.19038 0.26529,2.11929 0.22232,2.7545c-0.06848,1.01263 -0.29282,2.09966 -0.43832,2.86366c-0.1492,0.78333 -0.34464,1.97809 -0.41599,2.7765c-0.06973,0.78043 -0.08072,1.53366 -0.16803,2.23199c-0.15079,1.20584 -0.45605,1.89445 -0.79465,2.94901c-0.23331,0.72661 -1.06046,1.23689 -1.12134,2.12167c-0.0618,0.89787 -0.10608,1.68811 -0.5,2.39999c-0.49023,0.88597 -0.40619,1.72256 -0.66666,2.66667c-0.19083,0.69173 -0.59787,1.42465 -0.78067,2.43333c-0.14389,0.79396 -0.34415,1.79587 -0.62735,2.564c-0.34924,0.94731 -0.42343,1.836 -0.42532,2.59317c-0.00226,0.90001 0.00433,1.66336 -0.284,2.64282c-0.24036,0.81653 -0.63651,1.79556 -0.69516,2.57918c-0.07462,0.99677 -0.07706,1.71684 -0.52084,2.52083c-0.44189,0.80052 -0.5,1.7 -0.5,2.60001l0,0.89999l0,0.8" id="svg_25" stroke-linecap="null" stroke-linejoin="null" stroke-dasharray="null" stroke-width="5" stroke="#000000" fill="none"/> <path d="m285,331c0,1.79999 0.00241,2.5625 0,3.5c-0.00226,0.87601 -0.00583,1.58417 -0.05716,2.37067c-0.08472,1.29785 -0.22598,2.22168 -0.30002,2.70901c-0.15894,1.04605 -0.25696,1.61047 -0.34732,2.21066c-0.30734,2.04126 -0.39853,2.81677 -0.49417,3.63632c-0.10022,0.85876 -0.19424,1.75299 -0.28049,2.67749c-0.0885,0.94885 -0.17026,1.91788 -0.2355,2.9025c-0.13202,1.99249 -0.16782,2.99307 -0.20001,3.992c-0.03214,0.99673 -0.05179,1.99063 -0.06448,2.9805c-0.01263,0.9848 -0.01758,1.96368 -0.0195,2.93552c-0.00378,1.91867 -0.00134,2.86301 -0.00134,3.79333c0,0.91232 0,1.80267 0,2.66699c0,0.83432 0,1.63467 0,2.397c0,1.39465 0,2.02017 0,2.59866c0,0.53452 0,1.02802 0,1.48349c0,0.4205 0,0.80902 0,1.16852l0,0.64398l0.00134,0.56l0.03467,0.88" id="svg_26" stroke-linecap="null" stroke-linejoin="null" stroke-dasharray="null" stroke-width="5" stroke="#000000" fill="none"/> <path d="m414,329c1,1 1,1.79999 1,2.672c0,0.87115 0,1.61066 0,2.49417c0,1.00049 0,1.72318 0,2.50183c0,0.85068 -0.00061,1.78934 0,2.832c0.00067,1.15601 0.00266,1.77155 0.01068,2.40799c0.00827,0.65454 0.04047,2.0058 0.07465,2.69601c0.06915,1.39664 0.13293,2.0961 0.19867,2.79468c0.06558,0.69711 0.21667,2.08041 0.29068,2.76532c0.07333,0.67877 0.15784,1.3493 0.25867,2.66934c0.09729,1.27353 0.11325,1.88687 0.13065,2.47733c0.03235,1.09848 0.03375,1.599 0.03601,3.18182c0.00104,0.72751 0,1.60751 0,2.50751l0,0.79999" id="svg_27" stroke-linecap="null" stroke-linejoin="null" stroke-dasharray="null" stroke-width="5" stroke="#000000" fill="none"/> <path d="m291,379c3.328,0.96399 4.31583,0.9606 4.97067,1.08533c1.05945,0.20178 1.85095,0.52441 2.43201,0.716c1.19928,0.39545 1.79913,0.62375 2.75449,0.84149c1.00162,0.2283 1.72528,0.27594 2.45749,0.33185c1.0752,0.08209 2.06363,0.14734 2.87552,0.38251c0.73724,0.21356 1.67432,0.64859 2.46249,0.94281c0.81976,0.30603 1.88135,0.69839 2.59915,1c0.71017,0.2984 1.77951,0.70648 2.41617,0.90002c0.6806,0.20691 1.39236,0.36536 2.69867,0.79999c0.83563,0.27802 1.57913,0.6131 2.10135,0.79999c1.19888,0.42905 1.95413,0.6062 2.83331,0.76401c0.49188,0.08829 1.02521,0.1868 2.90652,0.31433c0.7207,0.04886 1.48691,0.06512 2.29349,0.07501c0.84445,0.01038 1.72409,0.00461 2.6355,-0.01501c0.94061,-0.02023 2.89676,-0.10052 3.90585,-0.16c1.0256,-0.06046 2.06305,-0.13519 3.10797,-0.22498c1.04977,-0.09018 2.0993,-0.19461 3.14401,-0.315c1.03796,-0.11963 3.07275,-0.40021 4.0625,-0.55951c0.97427,-0.1568 1.93295,-0.3273 2.8815,-0.4935c0.94043,-0.16479 1.87515,-0.32944 2.80951,-0.47549c0.93365,-0.14594 2.81766,-0.38571 3.77316,-0.46683c0.96194,-0.08167 1.93109,-0.1347 2.90399,-0.17102c0.97446,-0.03638 1.94931,-0.05365 2.922,-0.06299c0.96863,-0.00931 2.88602,-0.008 3.83218,-0.00934c0.94315,-0.00131 1.89038,-0.00485 2.84848,-0.021c0.97623,-0.01645 1.97763,-0.04471 3.0105,-0.09299c1.07248,-0.05014 3.36206,-0.21292 4.58936,-0.32852c1.27542,-0.12015 2.58405,-0.26352 3.91348,-0.41849c1.33826,-0.15601 2.67087,-0.32254 3.9855,-0.49051c1.28403,-0.16406 3.70642,-0.48212 4.82184,-0.6265c1.04727,-0.13556 2.0285,-0.26117 2.94598,-0.375c0.85522,-0.10611 1.65045,-0.2019 2.388,-0.285c0.68115,-0.07675 1.88382,-0.1973 2.41,-0.24033c0.48184,-0.0394 0.92599,-0.06882 1.33801,-0.09601c0.38599,-0.02548 0.75217,-0.04831 1.104,-0.078c0.34421,-0.02905 1.03256,-0.11038 1.38684,-0.16882c0.36447,-0.06012 0.73611,-0.13345 1.11447,-0.21451c0.38535,-0.08255 0.77493,-0.17358 1.16852,-0.26849c0.39709,-0.09576 1.19571,-0.29468 1.59567,-0.39584c0.40137,-0.1015 0.80521,-0.20551 1.21048,-0.32098c0.4111,-0.11716 0.82709,-0.24557 1.24652,-0.39301c0.43002,-0.15115 1.31216,-0.51331 1.76349,-0.72833c0.46082,-0.21954 0.91653,-0.4581 1.362,-0.70801c0.43652,-0.24487 0.85461,-0.48849 1.23599,-0.74399c0.96542,-0.64673 1.62265,-1.38412 2.04468,-1.81067c0.7879,-0.79636 1.49722,-1.20709 2.25751,-1.67383c0.76587,-0.47015 1.1445,-0.66751 2.33649,-1.26617l0.97601,-0.42133" id="svg_28" stroke-linecap="null" stroke-linejoin="null" stroke-dasharray="null" stroke-width="5" stroke="#000000" fill="none"/> <polyline id="svg_29" points="274,371 272.5,372.5 271.7973333333333,373.20266666666663 271.328,373.672 270.4568333333333,374.54333333333335 269.98116666666664,375.0233333333333 269.4375,375.5833333333333 268.8338333333333,376.22333333333336 268.51199999999994,376.5733333333333 267.4785,377.743 267.11466666666666,378.17066666666665 266.364,379.07199999999995 265.97916666666663,379.54166666666663 265.58933333333334,380.02133333333336 265.1955,380.509 264,382 263.5998333333333,382.4998333333333 263.19866666666667,382.9986666666667 262.79549999999995,383.4955 261.97916666666663,384.47916666666663 261.56399999999996,384.964 261.14283333333333,385.44283333333334 260.71466666666663,385.9146666666666 259.3788333333333,387.2783333333333 258.9173333333333,387.71333333333337 258.4518333333333,388.1383333333333 257.5208333333333,388.9583333333333 257.0613333333333,389.3533333333333 256.6098333333333,389.7383333333333 255.33333333333331,390.8333333333333 254.94299999999998,391.17833333333334 254.21433333333334,391.83833333333337 253.54166666666666,392.4583333333333 253.22133333333332,392.75333333333333 252.60266666666666,393.31333333333333 251.40533333333332,394.31199999999995 250.84266666666667,394.74266666666665 250.12866666666665,395.28116666666665 249.55466666666666,395.96000000000004 250.16666666666666,396.5 250.66166666666666,397.067 251.24666666666667,397.79599999999994 251.68666666666664,398.3186666666666 252.42183333333332,399.07866666666666 253.25733333333335,399.7746666666667 253.88266666666667,400.2253333333333 254.572,400.68399999999997 255.33333333333331,401.16666666666663 256.168,401.68399999999997 256.6053333333333,401.95266666666663 257.5,402.5 258.39466666666664,403.0473333333333 258.832,403.31600000000003 260.0575,404.0788333333333 260.7991666666667,404.5518333333333 261.5208333333333,405.0208333333333 261.88666666666666,405.26133333333337 262.6533333333333,405.7693333333333 263.5,406.3333333333333 264.4533333333333,406.96799999999996 264.9625,407.3053333333333 265.4866666666667,407.65066666666667 266.55999999999995,408.34933333333333 267.09916666666663,408.69466666666665 267.6333333333333,409.032 269.157,409.95716666666664 269.6293333333333,410.23066666666665 270.52799999999996,410.73866666666663 270.9583333333333,410.97916666666663 271.791,411.4481666666666 273,412.16666666666663 273.39966666666663,412.42116666666664 274.191,412.9481666666666 274.9583333333333,413.47916666666663 275.68566666666663,413.9901666666666 276.66666666666663,414.66666666666663 277.22799999999995,415.028 277.9375,415.4375 278.8333333333333,415.8333333333333 279.6973333333333,415.9893333333333 280.5,416 281.3805,416 282.10416666666663,416 282.9278333333333,416 284.3333333333333,416 284.847,415.9998333333333 286.02233333333334,415.9955 286.72799999999995,415.9893333333333 287.54166666666663,415.97916666666663 288.4853333333333,415.964 289.581,415.94283333333334 290.85066666666665,415.9146666666666 294,415.8333333333333 295.91366666666664,415.7778333333333 298.0293333333333,415.7093333333333 300.30899999999997,415.6248333333333 302.71466666666663,415.52133333333336 305.2083333333333,415.3958333333333 307.75199999999995,415.24533333333335 310.30766666666665,415.0668333333333 312.83733333333333,414.85733333333326 317.66666666666663,414.3333333333333 319.9003333333333,414.0136666666666 322.01599999999996,413.656 324.03566666666666,413.26233333333334 325.9813333333333,412.83466666666664 327.875,412.375 329.73866666666663,411.8853333333333 331.59433333333334,411.36766666666665 333.464,410.82399999999996 337.3333333333333,409.66666666666663 339.37266666666665,409.0566666666667 341.48799999999994,408.4266666666666 343.67533333333336,407.77666666666664 345.93066666666664,407.1066666666666 348.25,406.41666666666663 350.6293333333333,405.7066666666666 353.06466666666665,404.9766666666667 355.55199999999996,404.2266666666667 360.66666666666663,402.66666666666663 363.28599999999994,401.85716666666667 365.9413333333333,401.03066666666666 368.6286666666666,400.19016666666664 371.34399999999994,399.33866666666665 374.0833333333333,398.47916666666663 376.8426666666667,397.61466666666666 379.618,396.74816666666663 382.40533333333326,395.88266666666664 388,394.16666666666663 390.79766666666666,393.32216666666665 393.5813333333333,392.49066666666664 396.337,391.67516666666666 399.05066666666664,390.8786666666666 401.7083333333333,390.10416666666663 404.29599999999994,389.3546666666667 406.7996666666666,388.6331666666666 409.20533333333333,387.94266666666664 413.66666666666663,386.66666666666663 415.6975,386.08649999999994 417.5933333333333,385.5453333333333 419.3591666666667,385.0421666666667 421,384.576 422.5208333333333,384.1458333333333 423.9266666666666,383.75066666666663 425.22249999999997,383.3895 426.4133333333333,383.0613333333333 428.5,382.5 429.40816666666666,382.26399999999995 430.24533333333335,382.05199999999996 431.03049999999996,381.858 431.7826666666666,381.676 432.5208333333333,381.5 433.26399999999995,381.32399999999996 434.03116666666665,381.14199999999994 434.8413333333333,380.948 436.66666666666663,380.5 437.71366666666665,380.2355 438.8426666666667,379.944 440.03566666666666,379.62850000000003 441.2746666666667,379.292 442.54166666666663,378.9375 443.8186666666666,378.568 445.0876666666666,378.1865 446.3306666666666,377.79599999999994 448.66666666666663,377 449.7268333333333,376.6005 450.70799999999997,376.204 451.61116666666663,375.8135 452.4373333333333,375.432 453.1875,375.0625 453.86266666666666,374.70799999999997 454.4638333333333,374.37149999999997 454.992,374.0559999999999 455.8333333333333,373.5 456.14916666666664,373.26416666666665 456.4,373.05333333333334 456.5908333333333,372.8625 456.7266666666667,372.6866666666666 456.8125,372.5208333333333 456.8533333333333,372.35999999999996 456.85416666666663,372.19916666666666 456.82,372.0333333333333 456.66666666666663,371.66666666666663 456.55649999999997,371.4568333333333 456.42533333333336,371.22799999999995 456.27216666666664,370.9811666666667 456.096,370.71733333333333 455.8958333333333,370.4375 455.67066666666665,370.1426666666667 455.41949999999997,369.83383333333336 455.1413333333333,369.512 454.5,368.8333333333333 454.13616666666667,368.47916666666663 453.7493333333333,368.11999999999995 453.3465,367.7608333333333 452.93466666666666,367.40666666666664 452.5208333333333,367.0625 452.11199999999997,366.73333333333335 451.7151666666667,366.4241666666667 451.3373333333333,366.14 450.66666666666663,365.66666666666663 450.3853333333333,365.4856666666667 450.13599999999997,365.33866666666665 449.91066666666666,365.2196666666667 449.7013333333333,365.12266666666665 449.5,365.04166666666663 449.29866666666663,364.97066666666666 449.08933333333334,364.90366666666665 448.86400000000003,364.83466666666664 448.3333333333333,364.66666666666663 448.01399999999995,364.5573333333333 447.6586666666667,364.432 447.27133333333336,364.29466666666667 446.856,364.14933333333335 446.41666666666663,364 445.95733333333334,363.8506666666666 445.48199999999997,363.70533333333333 444.9946666666666,363.568 444,363.3333333333333 443.50083333333333,363.24316666666664 443.00666666666666,363.172 442.52250000000004,363.1188333333333 442.05333333333334,363.0826666666667 441.60416666666663,363.0625 441.17999999999995,363.0573333333333 440.78583333333336,363.0661666666666 440.4266666666666,363.08799999999997 439.8333333333333,363.16666666666663 439.60733333333326,363.2213333333333 439.42533333333336,363.284 439.28133333333335,363.35266666666666 439.1693333333333,363.42533333333336 439.0833333333333,363.5 439.0173333333333,363.57466666666664 438.9653333333333,363.64733333333334 438.9213333333333,363.71599999999995 438.8333333333333,363.8333333333333 438.7778333333333,363.87850000000003 438.7093333333333,363.9146666666666 438.6248333333333,363.94283333333334 438.52133333333336,363.964 438.3958333333333,363.97916666666663 438.24533333333335,363.9893333333333 438.0668333333333,363.9955 437.85733333333326,363.9986666666667 437.3333333333333,364 437.0145,364 436.66266666666667,364 436.28483333333327,364 435.888,364 435.47916666666663,364 435.0653333333333,364 434.65349999999995,364 434.25066666666663,364 " opacity="0.5" stroke-linecap="round" stroke-linejoin="null" stroke-dasharray="null" stroke-width="5" stroke="#000000" fill="none"/> <path d="m431,364c2.5,0 2.16467,0 1.85733,0c-0.28134,0 -0.53867,0 -0.77399,0c-0.21533,0 -0.41269,0 -0.59402,0c-0.32266,0 -0.4682,-0.00177 -0.60666,0.00266c-0.13458,0.0043 -0.26871,0.01437 -0.4035,0.039c-0.14139,0.02585 -0.29141,0.06628 -0.44849,0.129c-0.37027,0.14786 -0.5744,0.27011 -0.79868,0.39734c-0.23849,0.13531 -0.48267,0.28268 -0.73199,0.43201c-0.24933,0.14932 -0.49265,0.29819 -0.73199,0.43201c-0.43115,0.24106 -0.62482,0.32727 -0.80133,0.40265c-0.16519,0.07053 -0.32806,0.1329 -0.48752,0.207c-0.16739,0.07779 -0.34631,0.17084 -0.5325,0.297c-0.45877,0.31082 -0.71259,0.54449 -0.99866,0.79733c-0.30811,0.27234 -0.62399,0.56534 -0.948,0.86401l-0.32401,0.29868l-0.31799,0.29065l-0.306,0.27469" id="svg_30" stroke-linecap="null" stroke-linejoin="null" stroke-dasharray="null" stroke-width="5" stroke="#000000" fill="none"/> <polyline id="svg_31" points="246,393 244.7785,393.8786666666666 243.89966666666663,394.22166666666664 243.328,394.64666666666665 242.45633333333333,395.3218333333333 241.96766666666667,395.66616666666664 241.375,396.0625 240.66233333333332,396.5188333333333 239.33333333333331,397.3333333333333 238.81416666666667,397.64300000000003 238.26,397.97066666666666 237.67583333333334,398.3143333333333 237.06666666666666,398.672 236.4375,399.04166666666663 235.13916666666665,399.80899999999997 234.48000000000002,400.20266666666663 233.16666666666666,401 232.52166666666668,401.4 231.88666666666666,401.8 231.26166666666666,402.19999999999993 230.64666666666668,402.59999999999997 230.04166666666666,403 229.44666666666666,403.4 228.86166666666668,403.8 228.28666666666666,404.19999999999993 226.62116666666668,405.4001666666666 226.08266666666668,405.80133333333333 225.54816666666665,406.20449999999994 225.01466666666664,406.6106666666667 224.47916666666666,407.0208333333333 223.39016666666663,407.85716666666667 222.83066666666664,408.2853333333333 221.66666666666666,409.16666666666663 221.0585,409.621 220.44133333333332,410.0813333333333 219.82616666666667,410.5436666666667 219.224,411.00399999999996 218.64583333333331,411.4583333333333 218.10266666666666,411.9026666666667 217.1653333333333,412.74533333333335 216.5,413.5 216.2495,414.37449999999995 216.8125,414.6875 217.376,414.736 218.1555,414.7005 219.17199999999997,414.57199999999995 222,414 223.84283333333332,413.5428333333333 225.94266666666664,412.98266666666666 228.2565,412.33649999999994 230.74133333333333,411.6213333333333 233.35416666666666,410.85416666666663 236.05199999999996,410.05199999999996 238.79183333333333,409.2318333333333 241.53066666666666,408.41066666666666 246.83333333333331,406.8333333333333 249.32066666666665,406.10699999999997 251.692,405.42266666666666 253.96133333333333,404.77233333333334 256.1426666666666,404.14799999999997 258.25,403.54166666666663 260.2973333333333,402.94533333333334 262.29866666666663,402.351 264.268,401.75066666666663 268.16666666666663,400.5 270.12216666666666,399.83566666666667 272.09066666666666,399.14533333333327 274.07516666666663,398.433 276.07866666666666,397.70266666666663 278.10416666666663,396.9583333333333 280.1546666666666,396.204 282.23316666666665,395.4436666666666 284.3426666666667,394.6813333333333 288.66666666666663,393.16666666666663 290.8898333333333,392.42116666666664 293.17199999999997,391.68266666666665 295.5321666666666,390.9481666666666 297.9893333333333,390.21466666666663 300.5625,389.47916666666663 303.27066666666667,388.73866666666663 306.13283333333334,387.9901666666666 309.168,387.23066666666665 315.8333333333333,385.66666666666663 319.493,384.85766666666666 323.35066666666665,384.0346666666667 327.3743333333333,383.20366666666666 331.532,382.3706666666667 335.79166666666663,381.54166666666663 340.1213333333333,380.7226666666666 344.48900000000003,379.91966666666667 348.86266666666666,379.1386666666666 357.5,377.66666666666663 361.703,376.9866666666667 365.804,376.34666666666664 369.791,375.74666666666667 373.65199999999993,375.1866666666666 377.375,374.66666666666663 380.948,374.1866666666666 384.359,373.74666666666667 387.596,373.34666666666664 393.5,372.66666666666663 396.1468333333333,372.38599999999997 398.5946666666667,372.1413333333333 400.8545,371.9286666666667 402.9373333333333,371.74399999999997 404.85416666666663,371.5833333333333 406.616,371.44266666666664 408.2338333333333,371.318 409.71866666666665,371.20533333333333 412.3333333333333,371 413.4843333333333,370.8998333333333 414.54133333333334,370.79866666666663 415.5103333333333,370.6954999999999 416.39733333333334,370.58933333333334 417.2083333333333,370.47916666666663 417.9493333333333,370.36400000000003 418.62633333333326,370.2428333333333 419.24533333333335,370.11466666666666 420.3333333333333,369.8333333333333 420.8136666666667,369.6788333333333 421.256,369.5173333333333 421.6623333333333,369.3518333333333 422.0346666666667,369.18533333333335 422.375,369.0208333333333 422.68533333333335,368.86133333333333 422.9676666666667,368.70983333333334 423.224,368.56933333333336 423.66666666666663,368.3333333333333 423.85833333333335,368.24316666666664 424.03999999999996,368.172 424.22166666666664,368.1188333333333 424.4133333333333,368.0826666666667 424.625,368.0625 424.8666666666666,368.0573333333333 425.1483333333333,368.0661666666666 425.48,368.08799999999997 426.3333333333333,368.16666666666663 426.87216666666666,368.2213333333333 427.484,368.284 428.16183333333333,368.35266666666666 428.8986666666666,368.42533333333336 429.6875,368.5 430.52133333333336,368.57466666666664 431.3931666666666,368.64733333333334 432.29599999999994,368.71599999999995 434.16666666666663,368.8333333333333 435.1211666666666,368.8786666666666 436.0826666666667,368.916 437.0481666666667,368.94733333333335 438.0146666666667,368.9746666666666 438.97916666666663,369 439.9386666666667,369.0253333333333 440.89016666666663,369.0526666666666 441.8306666666666,369.08399999999995 443.66666666666663,369.16666666666663 444.5561666666666,369.2213333333333 445.42266666666666,369.284 446.2631666666667,369.35266666666666 447.07466666666664,369.42533333333336 447.85416666666663,369.5 448.59866666666665,369.57466666666664 449.30516666666665,369.64733333333334 449.97066666666666,369.71599999999995 451.16666666666663,369.8333333333333 451.692,369.8786666666666 452.1693333333333,369.916 452.6006666666666,369.94733333333335 452.98799999999994,369.9746666666666 453.3333333333333,370 453.6386666666666,370.0253333333333 453.906,370.0526666666666 454.13733333333334,370.08399999999995 454.5,370.16666666666663 454.6356666666666,370.2213333333333 454.74533333333335,370.284 454.83299999999997,370.35266666666666 454.9026666666667,370.42533333333336 454.9583333333333,370.5 455.00399999999996,370.57466666666664 455.0436666666667,370.64733333333334 455.0813333333333,370.71599999999995 455.16666666666663,370.8333333333333 455.2215,370.87850000000003 455.2853333333333,370.9146666666666 455.35716666666667,370.94283333333334 455.436,370.964 455.5208333333333,370.97916666666663 455.6106666666667,370.9893333333333 455.70449999999994,370.9955 455.80133333333333,370.9986666666667 " opacity="0.5" stroke-linecap="round" stroke-linejoin="null" stroke-dasharray="null" stroke-width="5" stroke="#000000" fill="none"/> <polyline id="svg_32" points="457,371 456,371 456.09999999999997,371 456.19999999999993,371 456.3,371 456.4,371 456.5,371 456.59999999999997,371 456.69999999999993,371 456.8,371 457,371 457.09999999999997,371.0001666666667 457.19999999999993,371.00133333333326 457.3,371.0045 457.4,371.0106666666666 457.5,371.0208333333333 457.59999999999997,371.03599999999994 457.69999999999993,371.0571666666666 457.8,371.0853333333333 458,371.16666666666663 458.09999999999997,371.2215 458.19999999999993,371.2853333333333 458.3,371.35716666666667 458.4,371.436 458.5,371.5208333333333 458.59999999999997,371.6106666666667 458.69999999999993,371.70449999999994 458.8,371.80133333333333 459,372 459.10116666666664,372.1008333333333 459.2093333333333,372.2066666666666 459.3315,372.3225 459.4746666666666,372.45333333333326 459.6458333333333,372.60416666666663 459.852,372.78 460.10016666666667,372.9858333333333 460.39733333333334,373.2266666666667 461.16666666666663,373.8333333333333 461.65066666666667,374.2075 462.19866666666667,374.62666666666667 462.80466666666666,375.0858333333333 463.4626666666666,375.58 464.16666666666663,376.10416666666663 464.91066666666666,376.6533333333333 465.6886666666667,377.22249999999997 466.4946666666666,377.8066666666667 468.16666666666663,379 469.02149999999995,379.5998333333333 469.8853333333333,380.19866666666667 470.75716666666665,380.7955 471.63599999999997,381.3893333333333 472.5208333333333,381.97916666666663 473.41066666666666,382.56399999999996 474.3045,383.14283333333333 475.2013333333333,383.71466666666663 477,384.8333333333333 477.90049999999997,385.37916666666666 478.804,385.91999999999996 479.71349999999995,386.4608333333333 480.63199999999995,387.00666666666666 481.5625,387.5625 482.5079999999999,388.1333333333333 483.4715,388.72416666666663 484.45599999999996,389.34 486.5,390.66666666666663 487.56383333333326,391.3858333333333 488.65066666666667,392.14 489.75350000000003,392.9241666666667 490.8653333333333,393.73333333333335 491.97916666666663,394.5625 493.08799999999997,395.40666666666664 494.1848333333333,396.2608333333333 495.26266666666663,397.11999999999995 497.3333333333333,398.8333333333333 498.31333333333333,399.67833333333334 499.25333333333333,400.5133333333333 500.1533333333333,401.33833333333337 501.0133333333333,402.1533333333333 501.8333333333333,402.9583333333333 502.6133333333333,403.75333333333333 503.3533333333333,404.5383333333333 504.05333333333334,405.31333333333333 505.3333333333333,406.8333333333333 505.9133333333333,407.5775 506.45333333333326,408.3066666666667 506.95333333333326,409.01583333333326 507.4133333333333,409.69999999999993 507.8333333333333,410.35416666666663 508.21333333333337,410.97333333333336 508.55333333333334,411.5525 508.8533333333333,412.08666666666664 509.3333333333333,413 509.5146666666667,413.371 509.664,413.688 509.7893333333333,413.957 509.8986666666666,414.18399999999997 510,414.375 510.10133333333334,414.53599999999994 510.21066666666667,414.673 510.336,414.792 510.66666666666663,415 510.8853333333333,415.0996666666666 511.13599999999997,415.19733333333335 511.41066666666666,415.291 511.7013333333333,415.3786666666666 512,415.4583333333333 512.2986666666666,415.528 512.5893333333333,415.58566666666667 512.864,415.6293333333333 513.3333333333333,415.66666666666663 513.5139999999999,415.657 513.6586666666667,415.6293333333333 513.7713333333334,415.58566666666667 513.856,415.528 513.9166666666666,415.4583333333333 513.9573333333333,415.3786666666666 513.982,415.291 513.9946666666666,415.19733333333335 514,415 513.9996666666666,414.8996666666667 513.9973333333332,414.7973333333333 513.991,414.69100000000003 513.9786666666666,414.57866666666666 513.9583333333333,414.4583333333333 513.928,414.328 513.8856666666666,414.18566666666663 513.8293333333334,414.0293333333333 513.6666666666666,413.66666666666663 513.5573333333333,413.45733333333334 513.432,413.23199999999997 513.2946666666667,412.9946666666666 513.1493333333333,412.7493333333333 513,412.5 512.8506666666666,412.25066666666663 512.7053333333333,412.00533333333334 512.568,411.76800000000003 512.3333333333333,411.3333333333333 512.2428333333332,411.1431666666666 512.1693333333333,410.972 512.1098333333333,410.8188333333333 512.0613333333333,410.68266666666665 512.0208333333333,410.5625 511.9853333333333,410.45733333333334 511.9518333333333,410.3661666666667 511.9173333333333,410.288 511.8333333333333,410.16666666666663 511.77849999999995,410.1211666666666 511.71466666666663,410.0826666666667 511.64283333333333,410.0481666666667 511.56399999999996,410.0146666666667 511.47916666666663,409.97916666666663 511.3893333333333,409.9386666666667 511.2955,409.89016666666663 511.19866666666667,409.8306666666666 511,409.66666666666663 510.8996666666667,409.55649999999997 510.7973333333333,409.42533333333336 510.69100000000003,409.27216666666664 510.57866666666666,409.096 510.4583333333333,408.8958333333333 510.328,408.67066666666665 510.18566666666663,408.41949999999997 510.0293333333333,408.1413333333333 509.66666666666663,407.5 509.4575,407.13616666666667 509.23333333333335,406.7493333333333 508.9991666666666,406.3465 508.76,405.93466666666666 508.5208333333333,405.5208333333333 508.28666666666663,405.11199999999997 508.0625,404.7151666666667 507.8533333333333,404.3373333333333 507.5,403.66666666666663 507.3643333333333,403.38616666666667 507.2546666666666,403.1426666666667 507.167,402.9331666666667 507.09733333333327,402.7546666666666 507.04166666666663,402.60416666666663 506.996,402.47866666666664 506.9563333333333,402.3751666666667 506.9186666666667,402.29066666666665 506.8333333333333,402.16666666666663 506.778,402.12149999999997 506.71066666666667,402.0853333333333 506.6293333333333,402.0571666666666 506.532,402.03599999999994 506.41666666666663,402.0208333333333 506.28133333333335,402.0106666666666 506.124,402.0045 505.94266666666664,402.00133333333326 505.5,402 505.2353333333333,402.0001666666667 504.94266666666664,402.00133333333326 504.624,402.0045 504.28133333333335,402.0106666666666 503.91666666666663,402.0208333333333 503.532,402.03599999999994 503.1293333333333,402.0571666666666 502.71066666666667,402.0853333333333 501.8333333333333,402.16666666666663 501.37766666666664,402.22233333333327 500.90799999999996,402.292 500.4203333333333,402.3796666666666 499.91066666666666,402.4893333333333 499.375,402.625 498.80933333333337,402.79066666666665 498.20966666666664,402.9903333333333 497.57199999999995,403.22799999999995 496.16666666666663,403.8333333333333 495.3931666666666,404.2076666666667 494.57866666666666,404.628 493.73216666666667,405.0903333333333 492.86266666666666,405.5906666666666 491.97916666666663,406.125 491.0906666666666,406.6893333333333 490.20616666666666,407.2796666666666 489.33466666666664,407.89199999999994 487.66666666666663,409.16666666666663 486.86016666666666,409.82033333333334 485.93466666666666,410.476 484.7311666666667,411.12566666666663 483.0906666666666,411.76133333333337 480.85416666666663,412.375 477.86266666666666,412.95866666666666 473.95716666666664,413.5043333333333 468.97866666666664,414.00399999999996 455.16666666666663,414.8333333333333 446.0948333333333,415.14649999999995 435.792,415.3786666666666 424.5771666666667,415.5188333333333 412.7693333333333,415.5559999999999 400.6875,415.47916666666663 388.65066666666667,415.27733333333333 376.97783333333336,414.9395 365.98799999999994,414.45466666666664 347.3333333333333,413 340.2258333333333,412.0138333333333 334.5933333333333,410.8706666666667 330.2708333333333,409.5935 327.0933333333333,408.20533333333333 324.8958333333333,406.72916666666663 323.5133333333333,405.188 322.7808333333333,403.6048333333333 322.5333333333333,402.00266666666664 322.8333333333333,398.8333333333333 323.07866666666666,397.30916666666667 323.316,395.84 323.5473333333333,394.43083333333334 323.77466666666663,393.08666666666664 324,391.8125 324.2253333333333,390.6133333333333 324.45266666666663,389.4941666666667 324.68399999999997,388.46000000000004 325.16666666666663,386.66666666666663 325.421,385.91566666666665 325.6813333333333,385.25866666666667 325.9436666666667,384.68966666666665 326.20399999999995,384.20266666666663 326.4583333333333,383.79166666666663 326.70266666666663,383.4506666666667 326.933,383.17366666666663 327.1453333333333,382.95466666666664 327.5,382.66666666666663 327.63616666666667,382.5863333333333 327.7493333333333,382.544 327.8465,382.53766666666667 327.93466666666666,382.5653333333333 328.0208333333333,382.625 328.11199999999997,382.71466666666663 328.2151666666666,382.83233333333334 328.3373333333333,382.976 328.66666666666663,383.3333333333333 328.88649999999996,383.54299999999995 329.1453333333333,383.7706666666666 329.44216666666665,384.0143333333333 329.77599999999995,384.272 330.1458333333333,384.54166666666663 330.55066666666664,384.8213333333333 330.98949999999996,385.109 331.4613333333333,385.4026666666667 332.5,386 333.06416666666667,386.3 333.6533333333333,386.59999999999997 334.2625,386.9 334.88666666666666,387.19999999999993 335.5208333333333,387.5 336.15999999999997,387.8 336.7991666666667,388.09999999999997 337.4333333333333,388.4 " opacity="0.5" stroke-linecap="round" stroke-linejoin="null" stroke-dasharray="null" stroke-width="5" stroke="#000000" fill="none"/> <path d="m288,150c-1.22134,0.87866 -1.90582,1.38687 -2.42532,1.97467c-0.51511,0.58282 -0.51404,1.56421 -0.92734,2.32533c-0.40521,0.74623 -0.66467,1.50017 -0.64734,2.39999c0.01733,0.90056 0.43268,1.69553 0.91599,2.49867c0.44806,0.74457 1.22238,1.18741 1.884,1.51733c0.84338,0.42056 1.5369,1.09885 2.20001,0.86966c0.8371,-0.28931 0.23367,-1.67705 0.7045,-2.34283c0.50748,-0.71761 1.05533,-1.55914 1.23834,-2.48566c0.16647,-0.8428 0.22382,-1.75717 0.7045,-2.45717l0.311,-0.77917l-0.60568,-0.5735" id="svg_33" stroke-linecap="null" stroke-linejoin="null" stroke-dasharray="null" stroke-width="5" stroke="#000000" fill="none"/> <path d="m389,149c-0.05716,1.7 -0.68491,2.42314 -0.94284,3.3045c-0.24268,0.82928 -0.05716,1.71632 -0.05716,2.6955c0,0.81067 0,1.68533 0,2.68401c0,0.81599 -0.0191,1.6322 0.00134,2.63066c0.01791,0.87517 0.2084,1.8893 0.42398,2.47467c0.38736,1.05183 0.67419,1.67937 1.29068,2.29466c0.35324,0.35257 0.89465,-0.07339 1.784,-0.084c0.89999,-0.01073 1.90341,-0.2805 2.33334,-1c0.46036,-0.77045 0.95441,-1.30644 1.168,-2.19867c0.1795,-0.74982 0.98065,-1.23677 0.99866,-2.10133c0.01874,-0.8998 0,-1.8 0,-2.7c0,-0.8 0.41272,-1.82343 -0.05716,-2.64284c-0.39444,-0.68784 -0.9071,-1.25806 -1.58951,-1.95717c-0.58649,-0.60083 -1.33249,-0.89999 -2.18399,-1.59866l-0.45334,-0.71733l-0.65884,-0.44116" id="svg_34" stroke-linecap="null" stroke-linejoin="null" stroke-dasharray="null" stroke-width="5" stroke="#000000" fill="none"/> </g> </svg>