<svg width="640" height="480" xmlns="http://www.w3.org/2000/svg" xmlns:svg="http://www.w3.org/2000/svg"> <!-- Created with SVG-edit - http://svg-edit.googlecode.com/ --> <g> <title>Layer 1</title> <path d="m183,62c-3.666672,4 -4.18782,4.626625 -4.737335,5.307999c-0.580292,0.719528 -1.176727,1.474396 -1.783493,2.254501c-0.615936,0.791885 -1.229126,1.590401 -1.828506,2.389503c-1.157349,1.543007 -1.689941,2.281601 -2.195999,2.99733c-0.49118,0.694695 -0.96196,1.382278 -1.412994,2.071503c-0.450317,0.688148 -0.892609,1.389977 -1.322998,2.116501c-0.90065,1.520363 -1.342667,2.346558 -1.802673,3.198662c-0.471405,0.873207 -0.94133,1.765335 -1.416,2.664001c-0.47467,0.898666 -0.942703,1.791817 -1.416,2.664001c-0.908493,1.674164 -1.357849,2.451614 -1.794662,3.187996c-0.414749,0.699181 -0.81813,1.352699 -1.206009,1.960503c-0.361679,0.566742 -0.703735,1.086105 -1.026001,1.555496c-0.551224,0.802887 -0.791946,1.125198 -1,1.40667c-0.180695,0.244461 -0.410294,0.413422 -0.686661,0.959999c-0.440292,0.870789 -0.328995,1.696854 -0.657333,2.665337c-0.281662,0.830818 -0.87355,1.605263 -1.375,2.213501c-0.577637,0.700638 -1.044296,1.228722 -1.760162,2.251663c-0.273651,0.391037 -0.837753,1.284126 -1.140671,1.78067c-0.322556,0.528717 -1.013,1.697495 -1.770828,3.020828c-0.411224,0.718086 -0.836884,1.472107 -1.272003,2.2575c-0.447601,0.807907 -0.898285,1.636421 -1.344009,2.482506c-0.448975,0.852249 -0.90036,1.704819 -1.717331,3.426666c-0.398682,0.840263 -0.764587,1.672707 -1.110001,2.487c-0.334457,0.788452 -0.64299,1.55349 -0.929993,2.289001c-0.272842,0.699226 -0.523407,1.361412 -0.960007,2.557327c-0.19165,0.524963 -0.362579,1.003563 -0.514496,1.438499c-0.137299,0.393105 -0.419296,1.054367 -0.652161,2.061501c-0.208435,0.901466 -0.18338,1.854347 -0.166504,2.654671c0.018005,0.853897 0.371674,1.745193 0.715836,2.477325c0.374725,0.797134 0.04808,1.913925 0.369324,2.632004c0.340973,0.762177 0.933533,1.343124 1.267334,2.222c0.267929,0.705429 0.505981,1.872162 1.216675,2.264664c0.705399,0.389587 1.5952,0.619736 2.020004,1.304001c0.582245,0.937851 0.811386,1.578308 1.210663,2.378677c0.496399,0.995041 0.669678,1.602478 1.147324,2.638321c0.344559,0.747223 1.158691,1.200592 1.573502,1.803345c0.655151,0.951996 1.163574,1.541992 1.617844,2.230331c0.318298,0.4823 0.714401,1.691605 0.789322,2.367996c0.074326,0.671143 0.072006,1.860001 0.072006,2.818329c0,0.863007 -0.050583,1.717773 0.001328,2.657669c0.042603,0.771408 0.462982,1.694199 0.714676,2.400009c0.33728,0.945831 0.827179,1.687302 1.162491,2.584c0.318085,0.850632 0.121506,1.699997 0.121506,2.535995c0,1.016663 0,1.711334 0,2.727997c0,0.936005 0,1.838669 0,2.606674c0,0.79866 0,1.814667 0,2.862656c0,0.709503 0.021088,1.562408 -0.001328,2.566666c-0.017868,0.800552 -0.213791,1.802155 -0.424011,2.400009c-0.282349,0.802979 -0.544693,1.79425 -0.573334,2.714661c-0.026749,0.859589 -0.001328,1.806839 -0.001328,2.695999c0,0.989166 0.05751,1.770172 -0.000168,2.76767c-0.042709,0.738678 -0.938934,1.236893 -0.999832,2.121674c-0.061798,0.897873 -0.104492,1.688995 -0.5,2.399994c-0.499222,0.89743 -0.705597,1.828522 -1.020828,2.520828c-0.267166,0.586761 -0.815247,1.557129 -1.122009,2.322006c-0.352081,0.877869 -0.993835,1.53096 -1.300003,2.367004c-0.221512,0.604874 -0.037384,1.665039 -0.057327,2.611496c-0.01799,0.853897 -0.349655,1.761368 -0.647171,2.431335c-0.38446,0.865738 -0.35199,1.763336 -0.352661,2.726501c-0.000565,0.820831 0,1.720825 0,2.621155c0,0.870346 0,1.667679 0,2.649002c0,0.917343 0,1.729843 0,2.734665c0,0.690674 0,1.763336 0,2.682678c0,0.833328 -0.001923,1.811996 0,2.585999c0.002258,0.90451 -0.02211,1.673386 0.285339,2.647324c0.259979,0.823563 0.741547,1.587479 1.103989,2.400009c0.351822,0.788712 0.538696,1.802826 0.636002,2.399994c0.163834,1.005463 0.343964,1.894073 1.074677,2.557343c0.600922,0.545471 1.401245,1.060287 1.733322,2.075989c0.239883,0.733719 0.293213,1.548386 0.814011,2.219345c0.45311,0.583755 0.443176,1.649124 1.203323,1.921997c0.884109,0.317368 1.060654,1.129715 1.149338,2.02533c0.08374,0.845703 0.743698,1.330521 1.361664,1.956329c0.682541,0.691208 1.306747,1.099655 1.813004,1.839676c0.352463,0.515228 0.931107,1.524673 1.325333,2.183167c0.37439,0.625351 1.130676,1.643387 1.710663,2.18483c0.7565,0.706223 1.392441,1.066513 2.132172,1.531494c0.78006,0.490326 1.648209,0.748032 2.300003,1.414337c0.574463,0.587234 0.410828,1.804016 0.898834,2.369339c0.651184,0.754333 1.563324,0.885986 2.2155,1.620667c0.602463,0.67868 1.191711,1.099258 1.9095,1.566833c0.686508,0.447205 1.445557,1.045029 1.854156,1.354172c0.826141,0.625061 1.200851,0.968475 2.625839,1.9245c0.55632,0.37323 1.352982,0.800659 2.186661,1.221313c0.635101,0.320465 1.330399,0.664764 2.052002,1.044006c0.734467,0.386017 1.80278,0.97348 2.448502,1.389343c0.897873,0.578278 1.453262,0.944702 2.195496,1.797333c0.60022,0.689484 1.157394,1.510559 1.856003,1.600006c0.953644,0.122131 1.81311,0.03656 2.798676,0.289307c0.82811,0.212372 1.403137,0.407196 2.394333,1.034515c0.706543,0.447174 1.182541,1.107269 2.168991,1.569c0.869476,0.406982 1.616455,0.511353 2.354004,0.99649c0.83168,0.547058 1.301865,1.199402 2.231995,1.779999c0.624588,0.389862 1.640869,0.652283 2.413345,0.90802c0.907242,0.300354 1.710815,0.369293 2.563995,0.450653c0.590897,0.056366 1.79332,0.249664 2.399994,0.410675c0.950928,0.25235 1.954712,0.568695 2.67067,0.762665c0.721405,0.195435 1.744263,0.481873 2.854172,0.67984c0.698151,0.124512 1.66449,0.122162 2.564499,0.12149c0.905334,-0.000671 1.630936,-0.043152 2.685989,-0.221497c0.744415,-0.125824 1.597443,-0.298798 2.056671,-0.38916c0.962906,-0.189484 2.45723,-0.489014 2.956009,-0.589355c0.990799,-0.19931 1.481293,-0.296204 2.444168,-0.5c1.391647,-0.294525 1.83548,-0.398438 2.686493,-0.59549c0.787628,-0.182373 1.812973,-0.421021 2.814667,-0.620483c0.8517,-0.169617 1.626068,-0.726868 2.255997,-1.282684c0.765717,-0.675659 1.55806,-0.85788 2.100006,-1.506653c0.565491,-0.676971 1.151962,-1.414551 1.75267,-1.942017c0.65126,-0.571869 1.415695,-0.914642 2.24733,-1.299988c0.871857,-0.403992 1.69014,-0.468048 2.414658,-1.136688c0.556488,-0.51358 0.5047,-1.660431 1.08667,-2.346649c0.56398,-0.665009 1.118179,-1.244812 1.634674,-1.96933c0.559998,-0.785553 1.207672,-1.299652 1.563995,-2.100006c0.358002,-0.804138 0.799637,-1.386444 1.399994,-2.314667c0.39888,-0.61673 1.249451,-1.197617 1.574677,-2.035995c0.339783,-0.875916 1.058014,-1.274948 1.625336,-1.76001c0.746704,-0.638443 1.200333,-1.188995 1.899994,-1.889328c0.700333,-0.701004 1.228592,-1.238312 1.700012,-1.983994c0.426514,-0.674622 0.983521,-1.647751 1.435974,-2.141342c0.66037,-0.720398 1.22644,-1.210159 1.768524,-1.893494c0.627045,-0.790466 1.005249,-1.442963 1.384827,-2.131836c0.570282,-1.034943 1.040039,-2.018005 1.325317,-2.577332c0.468201,-0.917999 0.991516,-1.746002 1.385345,-2.272003c0.609619,-0.814224 0.949799,-1.532242 1.5,-2.333328c0.478973,-0.697372 1.191406,-1.310242 1.814667,-2.00267c0.495819,-0.550842 0.957977,-1.359589 1.16449,-2.143173c0.262085,-0.994507 0.765411,-1.747955 1.219513,-2.504822c0.401978,-0.670013 0.75296,-1.62886 0.799988,-2.400009c0.056671,-0.929016 0.41806,-1.719437 0.834686,-2.449326c0.432953,-0.758499 0.322296,-1.92247 0.967987,-2.380005c0.699615,-0.495743 1.581482,-0.76207 2.365326,-1.286667c0.64801,-0.433701 1.431061,-0.807297 2.232025,-1.198669c0.761963,-0.372299 1.75415,-0.608841 2.601318,-0.968002c0.687592,-0.291504 1.388519,-0.746277 2.650177,-1.154831c0.540955,-0.175171 1.140564,-0.337204 1.780487,-0.514496c0.673035,-0.186462 2.087097,-0.56636 2.808014,-0.765335c1.429138,-0.39444 2.118317,-0.595749 2.783997,-0.797333c0.641296,-0.194199 1.255341,-0.380753 2.376007,-0.765335c0.508057,-0.174347 1.789642,-0.626785 2.615479,-1.074326c0.802307,-0.434799 1.664612,-0.746735 2.285828,-1.46701c0.465179,-0.539368 1.127899,-1.208542 2.033356,-1.461334c0.91394,-0.255173 1.765167,-0.439072 2.302338,-1.154831c0.577698,-0.76976 0.509003,-1.686035 0.789642,-2.467834c0.378693,-1.054993 0.510559,-1.760178 1.017334,-2.531998c0.481995,-0.734085 1.351227,-1.468521 1.515686,-2.157837c0.218842,-0.917328 0.041656,-1.854156 0.041656,-2.7715c0,-0.743988 -0.024292,-1.779037 0,-2.546661c0.028595,-0.904022 0.686249,-1.625015 0.942841,-2.50267c0.253448,-0.866852 0.057159,-1.866669 0.057159,-2.52533c0,-1.007996 0,-1.870163 0,-2.716339c0,-1.000992 0,-1.709 0,-2.690323c0,-0.958176 0,-1.934677 0,-2.593338c0,-1.007996 0,-1.800003 0,-2.827332c0,-0.694672 0.10556,-1.758774 -0.283997,-2.547333c-0.42984,-0.870071 -1.058838,-1.412781 -1.594666,-2.0215c-0.623047,-0.707825 -0.572876,-1.594086 -1.146667,-2.342499c-0.484253,-0.631607 -1.453888,-1.009781 -1.97467,-1.436005c-0.825867,-0.675919 -1.473114,-1.195038 -2.084015,-1.716003c-0.671844,-0.572937 -1.557983,-0.678467 -2.320496,-0.931335c-0.979004,-0.324661 -1.846588,-0.300415 -2.795502,-0.795334c-0.643311,-0.335526 -1.141663,-0.978653 -2.197327,-1.388c-0.702484,-0.2724 -1.458984,-0.895538 -2.213318,-1.158661c-0.839783,-0.292923 -1.789337,-0.012009 -2.689331,-0.010666c-0.898682,0.001343 -1.469666,0.474411 -1.725342,1.149338c-0.338654,0.893997 -0.592865,1.569763 -1.016327,2.329834c-0.395294,0.709488 -1.755524,0.646515 -1.958344,1.520828c-0.17157,0.739685 -0.380493,1.64151 -0.647339,2.347336c-0.33548,0.887375 -0.498444,1.828125 -0.788666,2.488663c-0.341125,0.776428 -0.894684,1.749481 -1.127991,2.363998c-0.372009,0.979782 -0.130707,2.19342 -0.797668,2.685669c-0.777588,0.573898 -1.646576,0.246887 -2.752991,0.111664c-0.699158,-0.085449 -1.267548,-0.869843 -1.685333,-1.514664c-0.565704,-0.873123 -0.966156,-1.666077 -1.200012,-2.461838c-0.275421,-0.937241 -0.981995,-1.456268 -1,-2.320831c-0.018768,-0.901138 0,-1.866669 0,-2.52533c0,-1.007996 0,-1.927338 0,-2.827332c0,-0.694672 0,-1.711334 0,-2.647339c0,-0.901337 0,-1.866669 0,-2.52533c0,-1.007996 0,-1.871994 0,-2.938675c0,-0.593994 0,-1.559998 0,-2.18399c0,-1.184998 0,-2.218674 0,-2.877335c0,-1.007996 0.020905,-1.870407 0,-2.774673c-0.020844,-0.900711 -0.60611,-1.561295 -1.221344,-2.107986c-0.830231,-0.737747 -1.179901,-1.344055 -1.589325,-1.968002c-0.425232,-0.648071 -0.773254,-1.385422 -1.876007,-2.269333c-0.518341,-0.415466 -1.164246,-0.648849 -2.47998,-1.221344c-0.717041,-0.311981 -1.441681,-0.650101 -2.136017,-1.007996c-0.64682,-0.333405 -1.776428,-0.824738 -2.22934,-1.486664c-0.53479,-0.781601 -0.362823,-1.601563 -0.552002,-2.570663c-0.189819,-0.972443 -0.497437,-1.955383 -1.085327,-2.482666c-0.653839,-0.586426 -1.744873,-0.557434 -1.830658,-1.385345c-0.092758,-0.895203 0,-1.699997 0,-2.599991c0,-0.900009 0,-1.800003 0,-2.721329c0,-0.912003 0,-1.829346 0,-2.573334c0,-1.034676 0,-1.802673 0,-2.762505c0,-0.8955 0,-1.758835 0,-2.722c0,-0.820839 0,-1.723503 0,-2.491501c0,-1.034668 0,-1.778671 0,-2.886337c0,-0.834 0.07016,-1.693619 -0.285339,-2.625664c-0.260956,-0.684166 -1.166855,-1.243774 -1.661987,-1.874504c-0.559952,-0.713318 -1.038986,-1.554932 -1.75267,-1.638329c-0.893936,-0.104462 -1.800003,-0.004501 -2.699997,-0.004501c-0.900009,0 -1.812805,0.151085 -2.699844,-0.000168c-0.852676,-0.145393 -0.975006,-1.214455 -1.346832,-1.814499c-0.587555,-0.948196 -1.420181,-0.985977 -2.386658,-1.351997c-0.688843,-0.260872 -1.285095,-1.145874 -1.966675,-1.548004c-0.768127,-0.453194 -1.704819,-0.529686 -2.374664,-0.895996c-0.972427,-0.531776 -1.508118,-1.072166 -1.850662,-2.025337c-0.299545,-0.833496 -0.52594,-1.56144 -1.270172,-2.254166c-0.632935,-0.589127 -1.246002,-1.099411 -2.188492,-1.109833c-0.690628,-0.007637 -1.758835,0 -2.616013,0c-0.899994,0 -1.718338,0.04084 -2.671997,0.283997c-0.794067,0.202469 -1.387283,0.405167 -2.394669,0.549339c-1.08049,0.154633 -1.833206,0.152443 -2.580658,0.162163c-1.085922,0.014114 -2.091003,0.004501 -2.710999,0.004501c-0.855011,0 -1.855011,0 -2.695007,0c-1.102997,0 -1.901337,0 -2.898666,0c-0.623993,0 -1.590103,0.014709 -2.68399,-0.000168c-0.764221,-0.010391 -1.76474,-0.163147 -2.626511,-0.352501c-0.65889,-0.144775 -1.330658,-0.330177 -2.59433,-0.526001c-0.757492,-0.117386 -1.584732,-0.139381 -2.428497,-0.557327c-0.988464,-0.489624 -1.612198,-0.882233 -2.363998,-1.128006c-0.908737,-0.297081 -1.917252,-0.40567 -2.450668,-1.005333c-0.617172,-0.693817 -1.008301,-1.542465 -1.557175,-2.240494c-0.57164,-0.72699 -1.051682,-1.452988 -1.453491,-1.903503c-0.741776,-0.831665 -1.769623,-0.83329 -2.546509,-1.508331c-0.558884,-0.485619 -0.568542,-1.673553 -1.044159,-2.209c-0.637924,-0.718163 -1.182999,-1.22979 -1.482666,-2.053337c-0.320297,-0.880211 -0.509811,-1.868095 -1.073166,-2.467834c-0.609741,-0.649124 -1.080948,-1.142258 -1.809509,-1.8815c-0.587906,-0.596535 -1.321243,-0.92659 -1.847992,-1.766663c-0.475311,-0.758057 -1.276657,-1.186264 -1.932663,-1.75267c-0.592392,-0.511475 -1.361679,-0.647331 -2.386002,-0.647331c-0.676498,0 -1.452011,0 -2.5,0c-0.919998,0 -1.792862,0.436546 -2.720001,-0.036003c-0.768494,-0.391693 -1.240738,-1.026367 -1.930664,-1.531998c-0.728149,-0.533646 -1.473511,-1.278084 -2.314667,-1.429329c-0.832932,-0.149765 -1.622238,-0.554932 -2.079834,-1.224335c-0.537689,-0.78656 -0.149078,-1.778793 -0.121506,-2.611671c0.028595,-0.863586 0.541077,-1.647636 1.20134,-2.370667c0.448792,-0.491463 0.974228,-1.291023 1.455826,-2.162994c0.370544,-0.670914 0.732529,-1.397652 1.342834,-2.466339c0.394516,-0.690842 0.823975,-1.368183 1.307999,-2.063999c0.259232,-0.372669 1.190613,-1.603764 1.555664,-2.06633c0.384201,-0.486828 1.19162,-1.490513 1.594666,-1.994667c0.394272,-0.493191 1.146088,-1.39949 1.708344,-2.208336c0.575897,-0.828465 0.755905,-1.632973 0.869324,-2.505333c0.114807,-0.882977 0.363907,-1.609612 0.725677,-2.379833c0.497177,-1.058502 1.074768,-1.714432 1.412994,-2.1735c0.681458,-0.924961 1.075684,-1.74625 1.387833,-2.337166c0.350021,-0.662617 1.095535,-1.777718 1.423004,-2.18c0.711212,-0.87368 1.12291,-1.300861 1.535324,-1.736668c0.818619,-0.865063 1.229797,-1.266205 2.314331,-2.356167c0.585037,-0.587967 1.170563,-0.999187 1.831512,-1.997997c0.467926,-0.707123 0.96167,-1.288681 1.627991,-1.866669c0.729919,-0.633152 0.996735,-1.503223 1.566666,-2.114666c0.613586,-0.658272 1.415176,-1.042149 2.193344,-1.438667c0.730362,-0.372158 1.625626,-1.027489 2.269333,-1.506664c0.62825,-0.46767 1.430191,-1.075838 2.113495,-1.698336c0.681793,-0.62113 1.284302,-1.220776 1.862503,-1.846167c0.520279,-0.562742 1.06337,-1.318398 1.414658,-2.2115c0.324661,-0.825409 0.552887,-1.70503 1.104172,-2.298332c0.698883,-0.752146 1.159409,-1.219749 1.966507,-1.863001c0.513092,-0.408926 1.565506,-0.948099 2.367996,-0.68c1.055038,0.352472 1.572144,1.099783 2.333328,1.557335c0.736099,0.442472 1.681046,0.797329 2.466003,1.1045c0.548065,0.214472 1.391022,0.536734 2.363327,1.178165c0.705521,0.465431 1.336899,1.036747 2.370667,1.349335c0.547684,0.165606 1.486694,0.226826 2.480011,0.501333c0.727478,0.201042 1.456451,0.522963 2.207993,0.816c0.739197,0.288219 2.136459,0.707111 2.789337,0.778666c0.92807,0.101715 1.836197,0.056927 2.722504,0.0765c0.805908,0.017797 1.801178,0.347593 2.365494,0.796833c0.742676,0.591227 1.48941,0.83676 2.605164,1.077168c0.748398,0.161255 1.666702,-0.082006 2.432999,0.178667c0.946457,0.321957 1.585373,1.074795 2.443176,1.332165c0.666275,0.199905 1.383072,0.35043 2.445328,0.489502c0.99321,0.130032 1.653915,0.145023 2.305328,0.290501c1.423172,0.317833 2.161453,0.684589 2.557678,0.830666c0.817535,0.301407 2.12085,0.692066 3.041,0.829334c0.46376,0.069183 1.396118,0.142117 2.307495,0.161667c1.276245,0.027378 2.038116,-0.002472 2.727173,0.019665c0.917206,0.029465 1.977966,0.164291 2.861816,0.510166c0.633301,0.247826 1.619812,0.79108 2.256836,1.079166c0.922974,0.417412 1.736633,0.695267 2.305664,0.983334c0.633179,0.320534 1.642822,1.064831 2.342346,1.756668c0.378571,0.374405 1.119019,1.219971 1.490662,1.666668c0.375763,0.45163 1.460419,1.825317 1.803497,2.271664c0.659027,0.857426 0.977112,1.266102 1.539185,2.075001c0.522491,0.751915 1.144897,1.822506 1.477325,2.485001c0.309937,0.617706 0.714874,1.522606 1.347839,2.240002c0.642181,0.727818 1.296143,0.953423 2.093323,1.900333c0.491119,0.58337 0.919769,1.517689 1.38501,2.021332c0.789734,0.854923 1.434601,1.3009 1.858002,2.100166c0.391907,0.739792 0.85141,1.545479 1.306488,2.1465c0.679291,0.897152 0.960785,1.422588 1.27301,2.232502c0.285461,0.740471 0.264771,1.889759 0.546143,2.816334c0.234802,0.773201 0.9599,1.412926 0.991028,2.056335c0.049438,1.021744 0.232788,1.966682 0.504486,2.648163c0.388672,0.974907 0.493713,1.669197 0.783997,2.767998c0.194946,0.737892 0.355713,1.486443 0.672333,2.422173c0.241669,0.714249 1.102417,1.467484 1.564514,1.80983c0.706848,0.523697 1.689423,1.258377 2.237823,1.73333c0.467133,0.404587 1.447876,1.252541 1.862671,1.604004c0.915283,0.775497 1.399841,1.183098 1.888,1.597336c0.484833,0.411423 1.825958,1.563141 2.204651,1.900833c0.660767,0.589195 1.445282,1.330505 1.880676,1.760498c0.810333,0.800308 1.411224,1.420975 2.090668,2.003998c0.720459,0.618233 1.53009,1.188248 2.053345,1.564003c0.929352,0.667412 1.608185,1.180641 2.261322,1.835999c0.581268,0.583267 0.865448,1.564857 1.567993,1.916c0.787323,0.393517 1.523071,0.785904 2.193665,1.193832c0.730438,0.444336 1.47876,1.005737 1.995514,1.8685c0.413055,0.689613 1.094971,1.03418 1.763672,1.563332c0.87619,0.693336 1.352661,1.235382 1.909821,1.974335c0.51767,0.686615 0.936737,1.631996 1.285339,2.284004c0.453064,0.847389 0.901947,1.510376 1.198669,2.399994c0.286102,0.85778 0.219696,1.711945 0.790649,2.452667c0.418365,0.542763 0.878937,1.649452 1.516174,2.226006c0.699341,0.632729 1.521851,0.854919 1.977173,1.605331c0.405304,0.667992 0.439667,1.830254 1.08667,2.431999c0.636963,0.59243 1.550171,0.853546 1.703979,1.683998c0.164001,0.885498 0.553894,1.603294 0.889191,2.5c0.318085,0.850639 -0.082977,1.736977 0.17865,2.599998c0.26828,0.884895 1.154602,1.31514 1.585663,2c0.538605,0.855751 0.658997,1.776772 0.931854,2.47467c0.363983,0.930969 0.25177,1.863586 0.510651,2.625336c0.301758,0.887917 0.814972,1.60511 0.919159,2.504494c0.100952,0.871468 0.578033,1.667061 0.828857,2.528831c0.245148,0.842331 0.124725,1.706894 0.450653,2.650665c0.244629,0.708298 0.672058,1.628601 0.714661,2.400009c0.05191,0.939896 0.001343,1.949326 0.001343,2.705338c0,0.931488 0,1.894653 0,2.585327c0,1.068161 0,1.925339 0,2.825333c0,0.800003 0,1.757172 0,2.652664c0,0.863342 0,1.711334 0,2.647339c0,0.899994 0,1.800003 0,2.699997c0,0.800003 0,1.699997 0,2.600006c0,0.899994 0.000671,1.799988 0,2.699997c-0.000671,0.899994 -0.300873,1.750824 -0.647339,2.399994c-0.453339,0.84938 -0.076996,1.84729 -0.363342,2.689331c-0.262543,0.772049 -0.930115,1.46199 -0.968475,2.1315c-0.065582,1.14415 0.058899,2.040771 -0.588837,2.679169c-0.502563,0.495346 -1.374664,1.094589 -1.432007,2c-0.056885,0.898041 -0.546783,1.470261 -0.942841,2.157166c-0.471954,0.818542 -0.373718,1.684464 -0.773163,2.442841c-0.415405,0.788681 -0.5289,1.704514 -0.894653,2.374664c-0.531158,0.973251 -1.174896,1.478409 -1.378662,2.425339c-0.189667,0.881332 -0.637695,1.531952 -1.160004,2.035995c-0.782013,0.754669 -0.649445,1.678909 -1.371521,2.34317c-0.643219,0.591736 -1.260315,0.821793 -1.961823,1.788834c-0.343994,0.474197 -0.894226,1.185791 -1.347992,2.261322c-0.314209,0.744736 -0.747253,1.361053 -1.558685,1.945343c-0.664825,0.478745 -0.900635,1.418457 -1.71048,1.903992c-0.729767,0.437531 -1.467041,0.798996 -1.864166,1.557343c-0.401245,0.766251 -0.270996,1.818741 -0.797668,2.263992c-0.820343,0.693527 -1.585663,1 -2.351685,1.5l-0.600006,0.600006l-0.339325,0.842834" id="svg_1" stroke-width="5" stroke="#000000" fill="none"/> <line stroke="#000000" id="svg_2" y2="61" x2="184" y1="73" x1="172" stroke-linecap="null" stroke-linejoin="null" stroke-dasharray="null" stroke-width="5" fill="none"/> <path d="m208,150c3.600006,-2.399994 4.199997,-2.799988 4.800003,-3.199997c0.599991,-0.399994 1.809631,-1.192429 2.41066,-1.632004c0.634338,-0.463943 1.291275,-1.006882 1.956009,-1.667999c0.736191,-0.732178 1.08345,-1.155823 1.833328,-1.979172c0.373398,-0.409988 1.085892,-1.217239 1.833328,-1.854156c0.652435,-0.555969 1.618179,-1.022888 2.309341,-1.461334c0.829132,-0.52597 1.519516,-1.112564 2.207993,-1.169342c0.623734,-0.051437 1.394669,-0.033905 2.835342,-0.036163c0.555328,-0.00087 1.758041,-0.008224 2.397324,-0.02066c0.659378,-0.012817 1.334946,-0.03038 2.022003,-0.064499c1.395325,-0.069275 2.789612,-0.196045 3.476669,-0.267334c0.675613,-0.070099 1.334625,-0.147659 2.589325,-0.294678c0.587326,-0.068817 1.660416,-0.207062 2.583344,-0.265991c1.09819,-0.070114 1.994675,-0.165833 2.745331,0.455002c0.616776,0.510117 1.05275,1.131485 1.796005,1.632996c1.018585,0.687286 1.790024,1.002243 2.321335,1.450668c0.722824,0.610062 0.784439,1.500397 1.549332,2.374664c0.406815,0.464996 1.056,0.789337 2.037003,1.342834l0.962997,0.490494l0.561325,0.282669l0.914673,0.509338" id="svg_4" stroke-linecap="null" stroke-linejoin="null" stroke-dasharray="null" stroke-width="5" stroke="#000000" fill="none"/> <path stroke="#000000" d="m187,219c1.699997,0.995499 2.636414,0.974899 3.485336,1.001328c0.92041,0.028641 1.717117,0.212753 2.493835,0.498672c1.003311,0.369339 1.721527,0.507813 2.785156,0.721329c0.604752,0.121399 1.628922,0.36821 2.35434,0.494675c1.056931,0.18425 1.741562,0.243866 2.814667,0.273331c0.806427,0.022141 1.733337,0.010666 2.802658,0.010666c0.574677,0 1.165344,0 2.362671,0c0.590668,0 2.234665,0 2.714996,0c0.848679,0 1.871674,0 2.853012,0c0.8125,0 1.818665,0 2.543991,0c0.989334,0 1.789337,0 2.789337,0c0.789337,0 1.833328,0 2.58934,0c0.931488,0 1.901321,0 2.514832,0c0.838501,0 1.981491,0 2.915497,0c0.502991,0 1.550995,0 2.084,0c1.563004,0 2.053162,0 2.977493,0c0.856339,0 1.652679,0 2.752167,0c1.005005,0 1.625,-0.001572 2.480011,0c1.22049,0.002258 2.109833,-0.09256 2.701324,0.610672c0.578827,0.688187 0.882355,1.547333 0.964508,2.389328c0.095047,0.974091 0.020828,1.79866 0.020828,2.699997c0,0.900009 0.051605,1.874832 -0.442841,2.621338c-0.492249,0.743195 -1.033447,1.238388 -1.799988,1.916992c-0.721039,0.638321 -1.311569,1.179367 -1.978668,1.640167c-0.729706,0.504059 -1.778534,0.114044 -2.535675,0.121506c-0.913635,0.009003 -1.845917,0.175583 -2.742828,0.666672c-0.778137,0.426056 -1.162155,0.742767 -2,1.354156c-0.426117,0.310944 -1.234131,0.948059 -2.335495,1.714844c-0.585815,0.407852 -1.357254,0.833374 -2.164505,1.431c-0.615494,0.455658 -1.036697,1.194946 -2.11467,1.662659c-0.827133,0.358871 -1.432877,0.616867 -2.17067,1.085342c-0.692184,0.439529 -1.494659,0.085327 -2.547989,0.085327c-0.78801,0 -1.70401,0 -2.1875,0c-0.973007,0 -2.312546,-0.007248 -3.040512,0.001328c-0.897141,0.010574 -1.708252,0.059723 -2.906662,0.282669c-0.685379,0.127502 -1.378677,0.304199 -2.063995,0.432007c-1.191833,0.222275 -2.110626,0.278656 -3.082672,0.283997c-0.985641,0.005402 -1.700348,0.032562 -2.658661,-0.003998c-0.811523,-0.03096 -1.470032,-0.106125 -2.559998,-0.496002c-0.855743,-0.306107 -1.738297,-0.78743 -2.208344,-1.020828c-0.966553,-0.479919 -1.448395,-0.742752 -2.458328,-1.145844c-0.983276,-0.392456 -1.95665,-0.663788 -2.416672,-0.791656c-0.853409,-0.237228 -2.2677,-0.524414 -2.828659,-0.941666c-0.757813,-0.563675 -0.834106,-1.483459 -1.197662,-2.364166c-0.250687,-0.607285 -0.564514,-1.276367 -1.159668,-2.26918c-0.565369,-0.94313 -0.943542,-1.491592 -1.56134,-2.073334c-0.758789,-0.714508 -1.693527,-1.055527 -1.835999,-1.893326c-0.137863,-0.810684 -0.425598,-1.553146 -0.861328,-2.250671c-0.472122,-0.755798 -1.183289,-1.558167 -1.692001,-2.327988c-0.451965,-0.683945 -0.446671,-1.621338 -0.446671,-2.521515c0,-0.785156 -0.035721,-1.725784 0,-2.733154c0.028595,-0.806534 0.801331,-1.166 1.699997,-1.166672c0.900009,-0.000671 2.012756,-0.1185 2.289337,0.610672c0.31543,0.831573 0.010666,1.789322 0.010666,2.689331c0,0.899994 0,1.800003 0,2.699997c0,0.800003 0.142365,1.834122 1.020828,1.979172c0.80191,0.132401 1.712509,0.018982 2.645844,0.020828c0.673325,0.001343 1.468185,-0.000336 2.339996,0.072006c0.915497,0.075958 2.274521,0.362167 2.709335,0.495987c0.863998,0.2659 1.701477,0.606445 2.567993,0.864014c0.875473,0.260239 1.799835,0.412811 2.751999,0.506653c0.484177,0.047714 1.470444,0.087204 2.964005,0.228012c0.500595,0.047195 1.495712,0.18454 1.989334,0.258667c0.975113,0.146454 1.923523,0.305939 2.843994,0.40799c0.877182,0.09726 1.71048,0.126221 2.484009,0.192001c1.351837,0.11496 2.165253,0.323135 2.825333,0.549332c0.974136,0.333832 1.85733,0.425339 2.614502,0.425339c0.895493,0 1.763382,-0.071564 2.660156,0.021332c0.817307,0.084656 1.789917,0.420563 2.654999,0.684006c0.475815,0.144897 1.470978,0.451233 1.978668,0.589325c1.443542,0.392654 2.287537,0.558304 3.019669,0.633331c0.899002,0.092117 1.958664,0.072006 2.929337,0.072006c0.814331,0 1.77066,0 2.541672,0c0.860992,0 1.758163,0 2.647659,0c0.8535,0 1.889008,0 2.768997,0c0.875,0 1.627335,-0.000656 0.741669,0c-0.905334,0.000671 -1.631424,0.040283 -2.685989,0.221664c-0.744812,0.128113 -1.598389,0.315506 -2.056671,0.425003c-0.964981,0.23056 -1.961273,0.507843 -2.951996,0.835999c-0.966675,0.32019 -1.420731,0.500046 -2.276672,0.807495c-1.060425,0.380905 -2.009628,0.632141 -2.694,0.792511c-1.046143,0.245132 -1.771637,0.54068 -2.70134,0.750656c-0.902496,0.203842 -1.839767,0.06868 -2.743988,0.177338c-0.928253,0.111542 -1.610779,0.508926 -2.58934,0.989334c-0.600372,0.294739 -1.385529,0.70253 -2.397339,0.916c-0.722885,0.152512 -1.488617,0.592682 -2.102661,1.250671c-0.507172,0.543472 -1.276047,0.98645 -2.166672,1.666656c-0.673859,0.514664 -1.255493,1.263092 -1.933334,1.730667c-0.751999,0.518723 -1.73349,0.447479 -2.409821,0.431503c-0.77594,-0.018326 -1.834915,-0.124695 -2.775513,-0.431503c-0.734543,-0.239594 -1.547729,-0.564819 -2.519989,-0.8685c-0.694489,-0.216919 -1.420181,-0.386047 -2.361343,-0.862167c-0.846329,-0.428162 -1.489349,-0.994278 -2.166656,-1.666656c-0.637833,-0.633179 -1.083679,-1.468719 -1.167999,-2.368011c-0.064331,-0.686127 -0.464706,-1.632126 -0.646011,-2.26033c-0.346603,-1.200897 -0.341064,-2.017319 -0.351334,-2.768997c-0.013046,-0.95491 -0.001328,-1.869507 -0.001328,-2.654663c0,-0.940002 0,-1.947998 0,-2.810165c0,-0.867004 0,-1.804504 0,-2.662506l0,-0.641998l0,-0.947998" id="svg_5" stroke-linecap="null" stroke-linejoin="null" stroke-dasharray="null" stroke-width="5" fill="none"/> <path transform="rotate(67.36486053466797 207.00929260253906,189.92999267578125) " d="m201,183c1.583328,0.541672 2.127914,0.914352 3.338669,1.483994c0.377014,0.177383 1.200302,0.522797 2.065002,0.863342c1.25914,0.495895 2.027252,0.761002 2.713669,1.027328c0.628067,0.243683 1.754211,0.741516 2.416489,1.282501c0.622879,0.508804 1.221207,1.319504 1.394165,2.153503c0.131912,0.636032 0.096329,1.878128 0.040009,2.436005c-0.092972,0.920883 -0.468002,1.919998 -0.821335,2.633331l-0.433334,0.713333l-0.473328,0.673325l-0.473343,0.593338" id="svg_7" stroke-linecap="null" stroke-linejoin="null" stroke-dasharray="null" stroke-width="5" stroke="#000000" fill="none"/> <path d="m163,132c1.671997,-0.035995 2.54187,-0.224716 3.520828,-0.5c0.530487,-0.14917 1.799301,-0.399857 2.5,-0.520828c0.751968,-0.129822 1.627747,-0.407303 2.619171,-0.829834c0.677628,-0.288803 1.261475,-0.723679 2.488495,-1.035004c0.851974,-0.216171 1.641052,-0.092224 2.546677,0.24733c0.689941,0.258682 1.261551,0.541 2.41066,0.959503c0.933685,0.340057 1.443344,0.507645 2.520844,0.817505c0.552109,0.158768 1.104935,0.337936 2.771332,0.618668c0.53038,0.089355 1.554871,0.184143 2.503326,0.29332c0.443115,0.05101 1.973877,0.351364 2.542664,0.654678c0.737411,0.393234 1.582001,0.989639 2.374664,1.377335c0.682404,0.333771 1.180115,0.80304 2.034668,1.417328c0.780319,0.560928 1.229813,0.858292 2.166672,1.5c0.473236,0.324142 1.393387,0.929428 2.49234,1.735504c0.523865,0.384247 1.215652,1.060501 1.496994,1.864502l0.010666,0.899994" id="svg_9" stroke-linecap="null" stroke-linejoin="null" stroke-dasharray="null" stroke-width="5" stroke="#000000" fill="none"/> <path d="m226,163c1.221497,-0.878662 2.094299,-1.230667 2.707993,-1.646667c0.784256,-0.531616 1.350098,-0.833954 2.333679,-1.395004c0.355576,-0.20282 1.101578,-0.610733 2.136993,-1.379654c0.685684,-0.509201 1.310928,-1.091324 1.973999,-1.626007c0.998703,-0.805344 1.723694,-1.27301 2.091003,-1.486496c1.04538,-0.60759 1.658691,-1.025665 2.703003,-1.294174c0.833572,-0.214325 1.82106,0.117661 2.574158,0.328003c0.794861,0.222 1.791855,0.440079 2.458344,0.479172c1.019287,0.059784 2.000809,-0.016205 2.854156,0.020828c0.830353,0.036041 1.720398,0.425262 2.428009,0.871994c0.532532,0.336197 1.576874,1.122177 2.052002,1.525345c0.651794,0.55307 1.477737,1.403351 2.276001,1.581329c0.869476,0.193863 1.387909,0.716766 1.981339,1.221329c0.581879,0.494751 1.666931,0.839417 2.408478,1.341675c0.568115,0.384796 1.169098,1.213989 1.5,2c0.356354,0.84642 0.629425,1.755371 0.910187,2.647659c0.180298,0.572937 0.453522,1.642609 0.585327,2.574677c0.117859,0.833496 0.336182,1.628448 0.600006,2.471985c0.28833,0.921921 0.387573,1.720337 0.414642,2.574677c0.037689,1.188782 0.010681,1.787994 0.010681,2.668503c0,0.835495 0,1.834167 0,2.674164c0,1.089493 0.29306,2.120316 -0.286652,2.763992c-0.651398,0.723297 -1.33902,0.821396 -2.060669,1.377335c-0.743835,0.573029 -1.636261,0.846085 -2.420685,1.273331c-0.746429,0.406555 -1.406219,1.013916 -2.417664,1.317673c-0.787567,0.236526 -1.614334,0.114334 -2.514328,0.114334c-0.936005,0 -1.789337,0 -2.618668,0c-1.181335,0 -1.933334,0 -2.757339,0c-0.847992,0 -1.671997,0 -2.759323,0c-0.846008,0 -1.675354,0.005676 -2.643845,0c-0.910202,-0.005341 -1.42952,-0.610336 -2.020828,-1.006668c-0.730148,-0.489395 -1.929245,-0.877411 -2.408005,-1.130661c-0.522324,-0.276291 -1.653442,-0.885513 -2.248001,-1.197342c-0.598434,-0.313858 -1.183945,-0.640533 -2.343994,-1.165329c-1.029816,-0.465866 -1.957016,-0.790894 -2.375,-0.916672c-1.057968,-0.318359 -2.299225,-0.117172 -3.00383,-0.805328c-0.496216,-0.484634 -0.550919,-1.54834 -0.83551,-2.140503c-0.48468,-1.00853 -0.85527,-1.693069 -1.485489,-2.59433c-0.376434,-0.538315 -0.946381,-1.203552 -1.778671,-2.0215c-0.598328,-0.588013 -1.611023,-0.82811 -1.99617,-1.48967c-0.528137,-0.907166 -0.285049,-1.592834 -0.567001,-2.552826c-0.200958,-0.684235 -0.583252,-1.672012 -1.106491,-2.460342c-0.455414,-0.686142 -1.399963,-1.484695 -1.285675,-2.214325c0.146286,-0.933899 1.261795,-1.316849 1.939178,-1.604507c0.738373,-0.313568 1.840683,-0.81781 2.452988,-1.179169c0.827576,-0.488403 1.747009,-0.520828 2.470337,-0.520828c1.057007,0 1.791,0 2.613007,0c0.862,0 2.125015,-0.00444 2.887665,0.001328c0.698715,0.00528 1.667648,0.014252 2.570663,0.165344c0.894302,0.149628 1.788849,0.286789 2.5,0.833328c0.731445,0.562134 1.22406,1.289932 1.908997,1.757172c0.802582,0.547501 1.408813,1.052429 1.933838,1.647324c0.673645,0.76329 1.214981,1.537598 1.490494,2.428833c0.259094,0.83815 0.132477,1.730225 0.609344,2.488342c0.484787,0.770706 1.091034,1.330139 1.388,2.362335c0.229324,0.797058 0.190598,1.646378 0.453323,2.629333c0.175629,0.657135 0.594666,1.664993 0.882675,2.519989l0.748001,0.452011l0.085327,0.814667l0,0.899994" id="svg_10" stroke-linecap="null" stroke-linejoin="null" stroke-dasharray="null" stroke-width="5" stroke="#000000" fill="none"/> <path d="m166,159c1.835999,-0.010666 2.616455,-0.034454 3.608994,-0.357162c0.675034,-0.219482 1.721069,-0.653534 2.357666,-0.841507c1.007645,-0.297531 1.662384,-0.487747 2.768845,-0.679825c0.827454,-0.143646 1.826996,-0.121506 2.764496,-0.121506c0.858002,0 1.5,0 2.447998,0c1.001343,0 1.764008,0 2.718674,0c1.043991,0 1.833328,0 2.622665,0c1.043991,0 1.978394,-0.140045 2.810501,0.000168c0.854584,0.143997 1.395538,0.862366 2.197495,0.974503c0.755646,0.105667 1.810944,0.173096 2.681839,0.567001c0.646072,0.292221 1.431625,0.928986 2,1.458328c0.87326,0.813278 1.360321,1.410461 2.1875,2c0.644058,0.45903 1.288208,0.762863 2.033325,1.542831c0.646622,0.676865 0.991882,1.248703 1.400009,1.774506c0.784576,1.010803 1.407639,1.676025 1.799988,2.13533c0.815781,0.954971 1.219315,1.47699 1.728012,2.285995c0.571167,0.908371 0.755188,1.617691 1.093491,2.583008c0.257889,0.73587 0.593811,1.359512 0.9785,2.362335c0.311386,0.811722 0.480972,1.370911 0.899841,2.394333c0.362976,0.886856 0.812057,1.743866 0.89566,2.617157c0.086212,0.900406 0.147919,1.817734 -0.006165,2.704498c-0.144867,0.833786 -0.862335,1.4216 -1.641998,1.900009c-0.683228,0.419235 -1.47699,0.883331 -2.145996,1.5c-0.71785,0.661697 -1.398315,1.157288 -2.301346,1.199997c-0.898987,0.042526 -1.714401,0.010376 -2.675995,-0.001328c-0.849167,-0.01033 -1.563004,-0.040665 -2.890671,-0.165344c-0.518921,-0.048737 -1.635117,-0.185013 -2.213333,-0.258667c-0.578445,-0.073685 -1.694733,-0.224014 -2.213333,-0.290665c-1.593887,-0.204849 -2.298676,-0.112762 -3.327988,-0.305328c-0.947449,-0.177246 -1.60704,-0.705688 -2.224503,-0.999496c-0.739441,-0.351852 -1.168732,-0.550446 -2.761002,-0.957504c-0.609558,-0.155823 -1.259598,-0.268494 -1.930496,-0.375c-1.36937,-0.217377 -2.055893,-0.290665 -2.728012,-0.360001c-1.266937,-0.130692 -2.38913,-0.205215 -2.892502,-0.229507c-0.896027,-0.043243 -1.985168,0.034851 -2.984833,-0.058487c-0.901947,-0.084213 -1.072998,-0.827362 -1.342667,-1.765335c-0.207352,-0.721207 -0.762131,-1.684799 -1.278656,-2.237335c-0.606445,-0.648727 -1.231323,-1.185532 -1.868011,-1.796005c-0.632156,-0.606125 -0.548965,-1.610855 -0.568161,-2.521332c-0.01799,-0.853897 -0.360275,-1.764832 -0.647171,-2.54567c-0.319458,-0.869476 -0.314362,-1.49028 -0.341995,-2.457001c-0.033615,-1.175568 -0.010666,-1.968002 -0.010666,-2.875992c0,-0.900009 0,-1.800003 0,-2.557175l0,-0.895493l0,-0.863342l-0.020828,-0.942322" id="svg_11" stroke-linecap="null" stroke-linejoin="null" stroke-dasharray="null" stroke-width="5" stroke="#000000" fill="none"/> <path d="m174,175c2.398666,-2.398666 2.975021,-2.983353 3.833328,-3.833328c0.549362,-0.544022 1.127014,-1.06282 1.934677,-1.650665c0.724106,-0.527023 1.239792,-0.845779 2.088989,-1.494339c0.733322,-0.560059 1.658356,-1.202759 2.438507,-0.664505c0.689896,0.475967 0.886795,1.428802 1.84317,1.841507c0.564056,0.243408 1.559525,0.474289 2.528,0.634659c0.815186,0.134995 1.72464,0.144226 2.533493,0.167007c0.821381,0.023132 1.978485,0.308456 2.481171,0.569c0.797852,0.413513 1.742981,0.767227 2.210663,1.794662c0.349365,0.767517 0.426575,1.656693 1.149673,2.15683c0.550217,0.380569 1.379562,0.94371 1.958328,1.520844c0.623779,0.622025 1.216599,1.367416 1.778671,2.172989c0.360367,0.516479 1.070496,1.620255 1.199997,2.364014c0.154648,0.888123 0.7108,1.415329 1.342499,1.864166c0.713943,0.507263 1.345505,1.390488 1.657501,2.1465l0.021332,0.91066l0,0.899994l0,0.900009" id="svg_12" stroke-linecap="null" stroke-linejoin="null" stroke-dasharray="null" stroke-width="5" stroke="#000000" fill="none"/> <path d="m290,191c-0.5,1.020828 -0.809998,1.839355 -1.02533,2.625336c-0.238373,0.870102 -0.674866,1.670639 -1.032013,2.146667c-0.673004,0.897049 -1.300964,1.537292 -1.963501,2.227997c-0.337036,0.351364 -1.015961,1.028549 -1.935486,1.956665c-0.513306,0.518082 -1.641541,1.353745 -1.09967,1.971329c0.438568,0.499847 1.651489,0.072006 2.570679,0.072006c0.881317,0 1.985321,0 2.537323,0c0.947998,0 1.895996,0 2.893341,0c0.798309,0 1.707336,0 2.570648,0l0.942352,0.020828" id="svg_13" stroke-linecap="null" stroke-linejoin="null" stroke-dasharray="null" stroke-width="5" stroke="#000000" fill="none"/> <path d="m155,165c-1.520828,1.5 -2.307785,2.126083 -3.041672,2.5c-0.63382,0.322937 -1.652679,0.673615 -2.4375,1.020828c-0.763809,0.337921 -1.539261,0.971115 -2.099487,1.617844c-0.608353,0.702271 -1.378632,1.143692 -1.421341,2.061325c-0.04184,0.899033 -0.091492,1.812546 0.057159,2.557175c0.184616,0.924744 0.56015,1.600891 0.894669,2.490158c0.350449,0.931625 0.868607,1.613525 1.400009,2.042831c0.833633,0.673462 1.952881,0.523941 2.564163,0.993835c0.680374,0.52301 1.084,1.216003 1.731339,1.768677l0.519333,0.780655" id="svg_14" stroke-linecap="null" stroke-linejoin="null" stroke-dasharray="null" stroke-width="5" stroke="#000000" fill="none"/> <path d="m231,268c1.052673,1.700012 1.684906,2.423126 1.942841,3.304504c0.242676,0.829254 -0.01416,1.69812 0.057495,2.674164c0.057281,0.780243 0.610916,1.483704 0.999664,2.125488c0.488693,0.806763 0.769943,1.979279 0.82933,2.431854c0.126266,0.962097 0.153854,1.962555 0.161667,2.453308c0.021378,1.343872 0.009003,2.377502 0.009003,3.132019c0,0.993317 -0.088776,1.890656 0.057159,2.635834c0.185333,0.946411 0.545471,1.591461 0.658844,2.185486c0.21637,1.133698 0.234909,2.067749 0.263168,3.057343c0.014236,0.498566 0.019501,1.463989 0.020828,2.713837l0,0.931488l0,0.679504" id="svg_15" stroke-linecap="null" stroke-linejoin="null" stroke-dasharray="null" stroke-width="5" stroke="#000000" fill="none"/> <path d="m213,281c-1,1 -1,1.757172 -1,2.652679c0,0.863312 -0.017899,1.847534 0.000168,2.668488c0.018005,0.818085 0.574051,1.385193 1.38916,1.689514c0.703781,0.262756 0.93457,1.493439 1.181335,2.043976c0.290329,0.647705 0.640701,1.34668 1.031998,2.063995c0.582443,1.067688 1.176285,2.030914 1.56134,2.598694c0.651947,0.961334 0.96254,1.630463 1.835999,2.115997c0.732758,0.407318 1.608276,0.658539 1.916,1.649323c0.24292,0.782135 0.665543,1.476379 1.417328,1.850677c0.691528,0.344299 1.442734,0.856415 1.898666,1.269318c1.01799,0.921967 1.226776,1.660065 2.07251,2.291992c0.774918,0.579041 1.305893,0.887512 2.157166,1.400024c0.912903,0.549622 1.498016,0.610535 2.384995,0.720001c0.638748,0.078827 2.041489,0.263367 2.800003,0.421326c0.801651,0.166962 1.213715,0.274231 2.520004,0.563995c0.913773,0.202698 1.836868,0.391663 2.291656,0.479156c0.873825,0.168121 2.04129,0.357361 2.965668,0.46817c0.904968,0.108459 1.745911,0.546448 2.576004,0.886017c0.71669,0.293182 1.652664,0.166656 2.516006,0.166656c1.004822,0 1.817886,0.023285 2.734665,-0.010681c0.744934,-0.027588 1.756836,-0.314636 2.546661,-0.705322c0.783234,-0.387421 1.495316,-0.998474 1.902664,-1.635834c0.491196,-0.768524 1.046555,-1.507507 1.721344,-2.048157c0.851974,-0.682587 1.588242,-0.889648 2.327988,-1.200012c0.922821,-0.387177 1.626953,-0.786438 2.133331,-1.370667c0.657074,-0.758087 1.16214,-1.585693 1.636169,-2.138336c0.78595,-0.91629 1.444275,-1.492401 1.782013,-1.781982c0.671326,-0.575592 1.349213,-1.079071 2.199158,-1.775665c0.814972,-0.667938 1.269012,-1.11972 1.982666,-2.101349c0.344482,-0.473846 0.906342,-1.180817 1.347992,-2.262665c0.283386,-0.694122 0.424896,-1.68396 0.87384,-2.259491c0.64624,-0.828461 1.156769,-1.439056 1.379517,-2.227173c0.24826,-0.878479 0.87326,-1.679657 0.915985,-2.582672c0.042511,-0.898987 0.001312,-1.699982 0,-2.53598c-0.001343,-0.850677 0.024323,-1.645569 -0.442841,-2.785004c-0.222656,-0.54306 -0.618958,-1.400513 -1.390503,-2.07901c-0.667664,-0.587158 -1.742004,-0.162445 -2.556,-0.521332c-0.694611,-0.306244 -0.428467,-1.350616 -0.631989,-2.353333c-0.169342,-0.834229 -0.775574,-1.516754 -1.496002,-2.056c-0.786133,-0.588409 -1.917297,-0.431305 -2.482666,-1.069336c-0.582275,-0.657104 -0.757172,-1.441986 -1.32132,-2.135498l-0.853333,-0.332489" id="svg_16" stroke-linecap="null" stroke-linejoin="null" stroke-dasharray="null" stroke-width="5" stroke="#000000" fill="none"/> </g> </svg>