 <svg width="640" height="480" xmlns="http://www.w3.org/2000/svg" xmlns:svg="http://www.w3.org/2000/svg"> <!-- Created with SVG-edit - http://svg-edit.googlecode.com/ --> <g> <title>Layer 1</title> <path d="m256,164c0,3.15201 -0.1429,4.16019 0.07623,4.93333c0.24316,0.85797 1.02017,1.42264 1.20911,2.2809c0.21695,0.98555 0.048,1.88622 0.048,2.5822c0,1.02313 0,1.93513 0,2.87022c0,0.93332 0,1.73334 0,2.66666c0,0.93333 0,1.73332 0,2.54756c0,1.00801 0,1.88623 0,2.58223c0,1.0249 0,1.87378 0,2.84889c0,0.68799 0,1.79909 0,2.68799c0,0.8889 -0.03183,1.78653 0.0762,2.53935c0.15387,1.07204 0.50284,1.85637 0.69,2.394c0.36859,1.05872 0.51654,1.8651 0.55289,2.66667c0.04834,1.06566 -0.04337,1.86687 0.06223,2.61867c0.15491,1.10294 0.77274,1.67746 1.12335,2.58133c0.29477,0.7599 0.16199,1.74756 0.16199,2.75555c0,0.87822 0,1.57422 0,2.59734c0,0.77444 0,1.71378 0,2.64711c0,0.8 0,1.73334 0,2.66667c0,0.79999 -0.04407,1.73439 0.00021,2.66666c0.03815,0.8027 0.56372,1.54111 0.95447,2.26668c0.47278,0.8779 0.37866,1.86667 0.37866,2.66666c0,0.96112 0,1.82225 0,2.70045c0,0.696 0,1.89 0,2.6311c0,0.93512 0,1.86844 0,2.66844c0,0.93332 0,1.86667 0,2.66667c0,0.93332 0,1.86667 0,2.66666c0,0.93332 0,1.86667 0,2.66667c0,0.93332 0,1.86667 0,2.66667c0,0.93332 0,1.86667 0,2.66666c0,0.93332 0,1.86667 0,2.66667c0,0.93335 0,1.86667 0,2.66669c0,0.93332 0,1.86664 0,2.66666c0,0.93332 0,1.86667 0,2.66666c0,0.93335 0,1.86667 0,2.66669c0,0.9333 0,1.86662 0,2.66664c0,0.93332 0,1.86667 0,2.66666c0,0.93335 0,1.86667 0,2.66669c0,0.93332 -0.14594,1.90173 0.11377,2.66672c0.29562,0.8707 0.81226,1.69125 1.25333,2.35199c0.48862,0.73184 1.53644,0.77356 2.05157,1.39557c0.66745,0.80594 1.0585,1.43323 1.69244,2.07465c0.56595,0.57263 1.28372,1.08041 1.52777,1.80557c0.32965,0.97946 0.50497,1.55301 1.13889,2.19443c0.56595,0.57263 1.01407,1.23898 1.58932,1.87735c0.56891,0.63129 1.121,1.08832 1.52179,1.90045c0.35458,0.71851 0.87433,1.49231 1.18134,2.26666c0.32867,0.82901 0.99823,1.35281 1.92978,1.73334c0.93155,0.38043 1.45142,0.79663 1.92978,1.72733c0.39273,0.7641 1.08722,1.21835 1.54999,1.87866c0.51712,0.73785 1.22757,1.04007 1.87668,1.46066c0.98181,0.63617 1.43082,1.23401 1.94312,2.11911c0.45016,0.77777 1.29218,1.18945 1.36533,1.88266c0.10684,1.01251 0.75302,1.51611 1.30133,2.16531c0.49902,0.59082 0.94791,1.24344 1.58932,1.87735c0.57263,0.56595 0.98727,1.13138 1.58734,1.94952c0.48157,0.65662 1.44464,0.78012 2.32379,1.23444c0.72519,0.37485 1.46085,0.97955 2.26666,1.0365c0.931,0.06567 1.86667,0.00177 2.66666,0.00177c0.93335,0 1.86667,0 2.66669,0c0.93332,0 1.86664,0 2.66666,0c0.93332,0 1.86844,0 2.60956,0c0.96912,0 1.88998,0 2.76822,0c0.86111,0 1.8222,0 2.62222,0c0.93332,0 1.86667,0 2.66666,0c0.93335,0 1.86667,0 2.66672,0c0.93335,0 1.86667,0 2.66669,0c0.93332,0 2.05325,0.35382 2.71112,-0.22223c0.58264,-0.51019 0.60376,-1.62668 1.29065,-2.06406c0.87048,-0.55429 1.82495,-0.59116 2.46838,-0.85065c0.93317,-0.37631 1.79187,-0.6196 2.58221,-0.89691c0.98166,-0.34445 1.45444,-0.88339 1.84711,-1.83289c0.37814,-0.91434 0.81238,-1.61749 1.63202,-2.02133c0.81616,-0.4021 1.15744,-1.10858 1.88266,-1.4791c0.76416,-0.39041 1.49063,-0.75668 2.37155,-1.26578c0.7767,-0.44885 0.46591,-1.47577 0.89044,-2.22421c0.3768,-0.66434 1.71347,-0.14163 2.42868,-0.77136c0.67685,-0.59595 0.95361,-1.16608 1.52887,-1.80444c0.56891,-0.63129 1.13602,-1.24991 1.76981,-1.8302c0.64545,-0.59088 1.34027,-0.98434 1.97421,-1.62579c0.56595,-0.57263 1.01407,-1.23895 1.58932,-1.87732c0.56891,-0.63129 1.21478,-1.15115 1.29977,-2.03357c0.07935,-0.82379 0.85995,-1.1481 1.73312,-1.67044c0.56845,-0.34006 1.65103,-0.62091 2.19644,-1.33926c0.54761,-0.72131 0.83411,-1.47012 1.242,-2.32407c0.32532,-0.68103 0.73376,-1.64377 1.31,-2.30023c0.41907,-0.47742 1.29599,-1.34393 1.84201,-1.88992c0.60358,-0.60361 1.27621,-1.27621 1.80954,-1.80957c0.66666,-0.66672 1.20001,-1.19998 2,-2c0.53333,-0.53339 1.20001,-1.19998 1.73334,-1.73337c0.79999,-0.80002 1.48206,-1.23532 1.9111,-2.1333c0.35635,-0.74582 -0.04413,-1.89429 0.51733,-2.50488c0.61041,-0.66388 1.04562,-1.13602 1.50845,-1.89511c0.42899,-0.70361 0.76123,-1.64537 1.1582,-2.39999c0.3801,-0.72244 0.97952,-1.46089 1.03647,-2.26666c0.06567,-0.93103 0.00177,-1.86667 0.00177,-2.66669c0,-0.93332 -0.14813,-1.90248 0.11377,-2.66667c0.30435,-0.88817 0.99124,-1.42404 1.48624,-2.24887c0.43286,-0.72127 0.68735,-1.2916 1.19998,-2.57935c0.27792,-0.69827 0.51328,-1.41887 0.80002,-2.09201c0.49884,-1.17107 0.91238,-1.80225 1.46667,-2.40955c0.6373,-0.69827 1.2001,-1.25427 1.48978,-2.2489c0.26297,-0.9032 0.50995,-1.84337 1.05066,-2.34511c0.55045,-0.51077 1.19797,-1.28958 1.83643,-1.96245c0.60397,-0.63655 1.1207,-1.12489 1.60178,-1.98045c0.40393,-0.71832 0.91653,-1.46431 0.95468,-2.39998c0.03259,-0.79933 -0.00006,-1.74533 0,-2.41911c0.00012,-0.97113 -0.0159,-1.91733 0.048,-2.58c0.11859,-1.22975 0.47421,-1.8959 0.81509,-2.6651c0.42294,-0.95435 0.45633,-1.66885 0.47025,-2.78023c0.01077,-0.86105 0,-1.68889 0,-2.48889c0,-0.93333 0,-1.86667 0,-2.66667c0,-0.93332 0,-1.86665 0,-2.66666c0,-0.93333 0,-1.86667 0,-2.66667c0,-0.93333 0.31723,-1.97972 -0.1138,-2.68622c-0.47708,-0.78198 -1.17584,-1.32484 -1.21353,-2.18289c-0.04462,-1.01614 -0.00601,-1.79155 -0.00601,-2.7309c0,-0.93332 0.11124,-1.74168 -0.01422,-2.66667c-0.11108,-0.81911 -0.80829,-1.38745 -1.1571,-2.26665c-0.30057,-0.75764 -0.09796,-1.73555 -0.16223,-2.66647c-0.05701,-0.82564 -0.79163,-1.32805 -1.36688,-1.96643c-0.56891,-0.63129 -1.27554,-1.14748 -1.29956,-2.03377c-0.02167,-0.79971 0.06406,-1.73555 -0.00021,-2.66644c-0.05701,-0.82564 -1.07272,-1.17726 -1.31891,-2.01445c-0.25766,-0.87624 -0.53619,-1.39185 -1.12534,-2.07466c-0.48929,-0.56709 -0.2222,-1.64444 -0.2222,-2.57777c0,-0.79999 0.04407,-1.73439 -0.00024,-2.66666c-0.03815,-0.8027 -0.56369,-1.54112 -0.95444,-2.26666c-0.47278,-0.8779 -0.37866,-1.86667 -0.37866,-2.66666c0,-0.93333 0,-1.86668 0,-2.66667c0,-0.93333 0,-1.86667 0,-2.66667c0,-0.93332 0,-1.86667 0,-2.66666l0,-0.93333l0,-0.93333l0,-0.8" id="svg_9" stroke-width="5" stroke="#000000" fill="none"/> <path d="m248,174.66667c0.93933,-1.32733 1.98286,-1.18307 2.59645,-1.80356c0.61526,-0.62218 0.97859,-1.21791 1.51555,-1.81778c0.5836,-0.65198 1.21185,-1.27571 1.812,-1.84534c0.50627,-0.48051 1.2868,-0.80241 2.34267,-1.33334c0.7991,-0.40181 1.33334,-0.66666 2.39999,-1.2c0.80002,-0.40001 1.33347,-0.66641 2.13333,-1.06668c1.06509,-0.53299 1.84891,-0.91586 2.32379,-1.20001c1.05093,-0.62883 1.68292,-1.16211 2.09756,-1.9982c0.40424,-0.81508 0.92462,-1.28618 1.51553,-1.93155c0.58029,-0.63379 1.13129,-1.2903 1.84445,-1.76979c0.78366,-0.52687 1.5361,-0.82953 1.9769,-1.63376c0.35776,-0.65277 0.98438,-1.22058 1.82401,-1.60002c0.62433,-0.28215 1.85974,-0.76735 2.53799,-1.2c0.58432,-0.37274 1.50107,-1.07965 2.19443,-1.46667c0.49448,-0.27599 1.552,-0.79999 2.35202,-1.2c0.79999,-0.39998 1.32993,-0.67352 2.39822,-1.19823c0.77158,-0.37897 1.47449,-0.73442 2.48889,-1.00423c0.66455,-0.17677 1.28442,-0.27452 2.58887,-0.65466c0.55618,-0.16209 1.15488,-0.35263 2.44623,-0.77066c0.67215,-0.21759 1.34595,-0.44086 2.01199,-0.662c1.26608,-0.42038 2.39001,-0.79813 2.90378,-0.96132c0.94336,-0.29968 1.80176,-0.57936 3.02869,-0.79332c0.79358,-0.13841 1.58536,-0.18463 2.35199,-0.20802c0.73398,-0.0224 1.75244,-0.01422 2.65244,-0.01422c0.78,0 1.81512,0 2.72711,0c0.93512,0 1.86844,0 2.66846,0c0.93332,0 1.86667,0 2.66666,0c0.93335,0 1.86676,-0.01189 2.66669,0c0.93362,0.0139 1.7348,0.29361 2.448,0.81422c0.7088,0.51741 1.36258,0.90706 2.05154,1.31911c1.0834,0.64792 1.57941,1.09401 2.27911,1.60002c0.77829,0.56284 1.46744,0.95523 2.17599,1.21956c1.10422,0.41193 2.08542,0.03546 2.83578,0.45667c0.7482,0.41998 1.17035,1.24323 2.0762,1.25711c0.79993,0.01227 1.83917,-0.10075 2.38046,0.59555c0.65442,0.84181 0.7486,1.41673 1.43622,2.07112c0.51434,0.48947 1.46014,1.13423 2.16199,1.48622c0.71036,0.35625 1.45596,0.6284 2.17603,0.912c1.33307,0.52504 1.90524,0.81467 2.69644,1.12555c1.02185,0.40149 1.8829,0.55055 2.48221,1.23355c0.46252,0.5271 1.03772,1.51526 1.73334,1.88156c0.90073,0.47429 1.57059,0.95612 2.39999,1.29088c0.90698,0.36609 1.54269,0.84183 2.39978,1.24179c0.68893,0.32149 1.14664,1.04955 1.89468,1.49509c0.71024,0.42302 1.3895,0.87286 2.37222,1.26312c0.6423,0.25508 1.4642,0.67401 2.11377,1.13867c0.77921,0.55739 1.45929,0.97292 2.59732,1.37601c0.69376,0.24574 1.55557,0.66666 2.0889,1.35645l0.39999,0.592" id="svg_10" stroke-width="5" stroke="#000000" fill="none"/> <path d="m274.66666,225.33333c0.86313,-1.40355 1.28488,-2.18906 1.71201,-2.93333c0.41019,-0.71474 0.70508,-1.77054 1.33511,-2.28798c0.78033,-0.6409 1.51135,-0.696 2.13333,-1.29422c0.81271,-0.78166 1.25333,-1.25157 1.94934,-1.94757c0.64801,-0.64798 1.1084,-1.30469 1.93512,-1.82132c0.74133,-0.46329 1.76547,-0.64073 2.40176,-1.19644c0.7027,-0.61374 1.19165,-1.23523 2.0889,-1.85245c0.62482,-0.42981 1.31723,-0.82608 2.22223,-1.1111c0.84198,-0.26521 1.8222,-0.22221 2.62222,-0.22221c0.93332,0 2.08112,-0.38426 2.71109,0.22221c0.53958,0.51947 0.22223,1.64444 0.22223,2.57776l0,0.79999l0.01422,0.91911l0.45001,0.73802" id="svg_11" stroke-width="5" stroke="#000000" fill="none"/> <path d="m326.66666,216c0.048,-2.08533 0.69733,-2.59074 1.60001,-2.66844c0.80484,-0.06927 1.51895,-0.70976 2.39999,-1.10933c0.75281,-0.34142 1.73376,-0.2502 2.66669,-0.22223c0.80106,0.02402 1.59821,0.38045 2.19043,0.93933l0.40601,0.78801l0.44888,0.82733" id="svg_12" stroke-width="5" stroke="#000000" fill="none"/> <line id="svg_1" y2="183.11111" x2="405.33333" y1="184.88889" x1="375.11111" stroke-width="5" stroke="#000000" fill="none"/> <path d="m254.22223,192c-2.48889,0 -3.20001,0 -4.26668,0c-0.71111,0 -1.65114,0.02296 -2.45332,-0.192c-0.80803,-0.21654 -1.87459,-0.69241 -2.53809,-0.98933c-0.74953,-0.3354 -1.56981,-0.72224 -2.45866,-1.144c-0.95059,-0.45103 -1.95268,-0.9326 -3.00267,-1.43201c-1.08807,-0.51752 -3.35289,-1.57986 -4.51762,-2.10844c-1.17007,-0.53101 -2.34119,-1.04944 -3.50667,-1.54399c-1.14275,-0.48491 -2.26019,-0.94073 -3.34666,-1.35201c-1.03523,-0.39188 -2.94266,-1.03072 -3.8006,-1.25688c-0.78293,-0.20639 -1.50681,-0.35506 -2.17065,-0.45601c-0.60349,-0.09178 -1.15634,-0.14223 -1.65868,-0.168c-0.45541,-0.02336 -1.24269,-0.02798 -1.58104,-0.02281c-0.30644,0.00468 -0.58769,0.01436 -0.83733,0.07466c-0.23593,0.05699 -0.47131,0.15109 -0.64534,0.33067c-0.66315,0.68434 -0.91264,1.62228 -1.08266,2.14133c-0.18633,0.56883 -0.36766,1.18982 -0.71112,2.56357c-0.18428,0.73706 -0.5351,2.29561 -0.71082,3.10339c-0.17749,0.81592 -0.34953,1.63225 -0.51466,2.44c-0.16136,0.78929 -0.31252,1.55222 -0.45067,2.28c-0.12958,0.68262 -0.35503,1.87762 -0.48326,2.81866c-0.10056,0.73793 -0.14917,1.6622 -0.1517,2.6169c-0.00206,0.77512 0.00456,1.65059 0.06401,2.58133c0.03029,0.4743 0.19748,1.87245 0.44325,2.71881c0.23497,0.80911 0.56923,1.5593 0.91733,2.28267c0.51747,1.07535 0.87895,1.77615 1.24208,2.45422c0.34834,0.65044 1.04907,1.79044 1.42223,2.24652c0.68004,0.83118 1.43979,1.50716 1.93658,2.05719c0.46802,0.51817 0.7654,1.70963 1.23497,2.33717c0.53728,0.71803 1.27649,1.12614 1.77777,1.78015c0.47243,0.61635 1.66301,0.75349 2.33955,1.28c0.56487,0.43959 1.24445,1.18044 1.77779,1.71378c0.53334,0.53334 1.38968,1.45712 1.95555,1.91853c0.84421,0.68837 1.6265,0.80185 2.31111,1.07526c0.93712,0.37424 1.55177,1.10487 2.48889,1.47911c0.68462,0.27339 1.60387,0.53731 2.31111,1.03822c0.53629,0.37984 1.62648,0.76482 2.31111,1.03822c0.93712,0.37424 1.35947,0.99252 2.31111,1.41273c0.84741,0.37418 1.77238,0.61801 2.33008,0.97185c0.83551,0.53009 1.61574,0.82382 2.51495,0.97659c0.92506,0.15715 1.82132,0.28378 2.528,0.68001c0.70576,0.39571 1.62378,1.16031 2.19852,1.496c0.9016,0.52661 1.51399,0.85023 2.6566,1.20888c0.65657,0.20609 1.42183,0.56693 1.86133,1.23734c0.48346,0.73746 1.33601,1.10886 1.77779,1.77779c0.48886,0.74022 1.41589,0.84341 2.26605,1.3831c0.56015,0.35559 1.4346,0.89616 2.31113,1.19586c0.90338,0.30888 1.37527,0.78281 2.13333,1.22784c0.8446,0.49585 1.81442,0.59152 2.66666,1.13185c0.56036,0.35529 1.42194,0.93512 2.24713,1.19585l0.66547,0.58194" id="svg_2" stroke-width="5" stroke="#000000" fill="none"/> <path d="m376.88889,188.44444c-0.88889,-1.77777 -1.6976,-2.27475 -1.76978,-3.03023c-0.09991,-1.0459 0.27362,-2.04028 0.91794,-2.3031c0.83511,-0.34062 1.64694,-0.69635 2.12234,-1.42459c0.53293,-0.81636 0.50607,-1.77541 0.50726,-2.66431c0.00116,-0.88889 -0.09549,-1.79926 0.10165,-2.48888c0.26828,-0.93851 1.06421,-1.52707 1.46014,-2.4892c0.29263,-0.71111 0.20651,-1.89612 0.21835,-2.46014c0.01926,-0.91779 -0.04019,-1.5807 0.39111,-2.65689c0.37897,-0.94556 0.92511,-1.43816 1.29868,-2.35733c0.32092,-0.78963 0.85297,-1.82425 1.34756,-2.38875c0.5321,-0.6073 1.08939,-1.2137 1.99731,-1.81065c0.69299,-0.45564 1.58603,-0.57976 2.42963,-1.09985c0.57718,-0.35583 1.04523,-0.93959 1.95557,-1.79585c0.52136,-0.49039 1.40726,-1.11273 2.13333,-1.21541c1.05679,-0.14944 1.82822,-0.13361 2.66666,0.25926c0.77631,0.36375 1.24643,0.95413 1.95557,1.65926c0.71313,0.70909 1.25516,1.23392 1.95557,1.95792c0.54175,0.56 1.09241,1.1989 1.59998,1.99112c0.5625,0.87799 0.87115,1.52779 1.24445,2.12386c0.67938,1.08482 1.23651,1.71985 1.7778,2.28029c0.69864,0.72337 1.34756,1.16257 1.83704,2.13571c0.33615,0.66832 0.2963,1.77777 0.2963,2.48888c0,1.06668 0,1.79675 0,2.64059c0,1.0643 0,1.67111 0,2.59912c0,1.12207 0.01508,1.80751 0,2.93806c-0.00949,0.7113 -0.27527,1.79141 -0.62698,2.31111c-0.49503,0.73146 -1.05798,1.59151 -1.13184,2.31111c-0.10867,1.05894 -0.05591,1.93481 -0.77512,2.44386c-0.7489,0.53006 -1.05478,1.27296 -1.77777,1.77777c-0.75229,0.52525 -1.0098,1.34911 -1.79675,1.77777c-0.59534,0.3243 -1.50092,0.72331 -2.2471,1.19586c-0.85077,0.53877 -1.77484,0.63605 -2.22549,1.26192c-0.51376,0.71352 -1.09161,1.50381 -1.59793,1.85393c-0.78354,0.54179 -1.66516,1.21724 -2.0062,1.95557c-0.3981,0.86183 -0.84088,1.56783 -1.18787,2.13333c-0.62369,1.01648 -0.61816,1.83318 -1.1366,2.66904c-0.38306,0.61758 -1.06607,1.21657 -1.83942,1.9911c-0.58856,0.58948 -1.20651,1.20653 -1.51703,1.51704c-0.60681,0.60681 -1.69272,1.65234 -2.0954,2.13333c-0.54025,0.64531 -0.95374,1.6794 -1.10458,2.57896c-0.10376,0.6189 -0.34134,1.79199 -0.67203,2.51999l-0.39465,0.61601l-0.54016,0.90785l-0.17896,0.71111" id="svg_3" stroke-width="5" stroke="#000000" fill="none"/> <path d="m341.33334,158.22223c-2.48889,0 -3.20001,0 -4.3046,0c-0.69867,0 -1.62167,0.01718 -2.40594,-0.00711c-0.94189,-0.02917 -1.48099,-0.06799 -2.67703,-0.29779c-0.67651,-0.12997 -2.17233,-0.57204 -2.99316,-0.87584c-0.87442,-0.32364 -1.77664,-0.70396 -2.70667,-1.10667c-0.95151,-0.41202 -1.90726,-0.84357 -2.86667,-1.26666c-0.94873,-0.41838 -2.78329,-1.19551 -3.6575,-1.52475c-0.83035,-0.31271 -1.62558,-0.58372 -2.38132,-0.81866c-0.70877,-0.22034 -1.37582,-0.40598 -1.99734,-0.56267c-0.57092,-0.14392 -1.56485,-0.35721 -1.9837,-0.43526c-0.36819,-0.06862 -1.07874,0.07207 -1.73392,-0.36504c-0.6507,-0.43411 -0.74112,-1.68214 -1.28949,-2.32059c-0.42773,-0.49799 -1.45349,-0.72797 -2.14548,-1.17926c-0.755,-0.49239 -0.87753,-1.72324 -1.27792,-2.21748c-0.63306,-0.78142 -1.42307,-1.25774 -2.2951,-1.77779c-0.61197,-0.36496 -1.25531,-0.67949 -2.09897,-1.24443c-0.75522,-0.50574 -1.38135,-1.10426 -2.37036,-1.77779c-0.55014,-0.37465 -1.15402,-0.72893 -2.09897,-1.14281c-0.85007,-0.37231 -1.83749,-0.49557 -2.58017,-0.7843c-0.95255,-0.37032 -1.46475,-0.97003 -2.43198,-1.62845c-0.55124,-0.37524 -1.1756,-0.70313 -1.79202,-1.06667c-1.18002,-0.69594 -1.67346,-1.06667 -2.35614,-1.59999c-0.68268,-0.53334 -1.44565,-1.09245 -2.35614,-1.58104c-0.61182,-0.32831 -1.78781,-0.80499 -2.52002,-0.992c-0.80051,-0.20447 -1.69479,-0.60818 -2.23495,-0.98251c-0.87808,-0.60851 -1.64978,-0.71594 -2.66666,-1.1852c-0.56976,-0.26292 -1.16345,-1.05638 -2.13098,-1.32741c-0.76154,-0.21333 -1.13443,0.79607 -1.81805,1.408c-0.60953,0.54562 -1.22797,1.03589 -1.6806,1.99348c-0.26816,0.56732 -0.92227,1.21107 -1.3345,2.13333c-0.30841,0.68999 -0.9263,1.61093 -1.40891,1.96356c-0.83203,0.60796 -1.49506,0.97415 -2.2551,1.80769c-0.50449,0.55327 -0.90726,1.18179 -1.30667,2.12386c-0.34079,0.80382 -0.47183,1.71233 -0.50964,2.63823c-0.03629,0.88892 -0.27713,1.79054 -0.75613,2.48888c-0.49722,0.72491 -0.96405,1.59558 -1.01364,2.31111c-0.07376,1.06415 -0.008,1.77779 -0.008,2.84445c0,0.71111 0.28165,1.89194 -0.1517,2.51495c-0.51724,0.74364 -1.80356,0.50757 -2.47794,0.5443l-0.77658,0.46786l-0.29868,0.76799" id="svg_4" stroke-width="5" stroke="#000000" fill="none"/> <path d="m305.77777,138.66667c-2.48889,0.01895 -3.24109,0.08215 -4.09689,0.63496c-0.62317,0.40254 -1.52246,1.15979 -2.09924,1.49599c-0.61307,0.35735 -1.61765,0.84608 -2.69275,1.1283c-0.70236,0.18436 -1.42462,0.23392 -2.13333,0.34134c-1.42792,0.21645 -2.14581,0.44511 -2.88235,0.74904c-0.8103,0.33435 -1.23331,0.5574 -2.68802,1.28c-0.55099,0.2737 -1.1311,0.5658 -1.74399,0.856c-0.63391,0.30017 -1.96408,0.88226 -2.6572,1.14133c-0.69608,0.26016 -2.11447,0.68253 -2.82755,0.83052c-0.7023,0.14577 -1.39896,0.24527 -2.07733,0.34134c-1.2868,0.18225 -1.89435,0.23894 -2.44623,0.38873c-1.43741,0.39015 -2.13721,0.92418 -2.65512,1.47911c-0.68094,0.72961 -1.32321,1.60675 -2.24445,1.76178c-0.87439,0.14714 -1.67615,0.11763 -2.26605,0.77216l-0.43823,0.80562l-0.72565,0.21364l0.76801,-0.14934" id="svg_5" stroke-width="5" stroke="#000000" fill="none"/> <path d="m300.44446,129.77777c-3.85187,0.29631 -4.7106,0.39294 -5.6723,0.5049c-1.04361,0.12148 -2.14743,0.25226 -3.29068,0.384c-1.16077,0.13376 -2.31769,0.26678 -3.45065,0.38399c-2.10397,0.21765 -3.03909,0.29359 -3.89215,0.3532c-0.7778,0.05435 -1.48843,0.09134 -2.13867,0.11467c-0.59662,0.02141 -1.14722,0.0312 -1.65866,0.03467c-0.9339,0.00632 -1.3699,-0.00368 -1.78964,0.00711c-0.79922,0.02054 -1.57471,0.05553 -2.28265,0.29866c-1.10956,0.38107 -1.78824,0.93922 -2.45422,1.51141c-0.66309,0.5697 -1.52484,1.43823 -2.0163,1.94458c-0.62143,0.64026 -1.1481,1.18236 -1.48267,2.10727c-0.25012,0.6915 -0.60089,1.59763 -1.17926,2.2471l-0.86932,0.55911l-0.76151,0.19704l0.42136,0.01897" id="svg_6" stroke-width="5" stroke="#000000" fill="none"/> <polyline id="svg_7" points="330.66666666666663,152.8888888888889 328.03318518518506,152.88651851851853 327.18518518518505,152.85185185185188 " stroke-linecap="round" stroke-width="5" stroke="#000000" fill="none"/> <path d="m355.55554,170.66667c2.48889,-1.71378 3.20001,-1.7766 4.26669,-1.77779c0.71109,-0.00079 1.77777,0 2.48886,0l1.04773,0.01897l0.8699,0.37451l0.26074,0.62816" id="svg_8" stroke-width="5" stroke="#000000" fill="none"/> <path d="m360.88889,154.66667c-2.46991,0.01895 -3.16455,0.49174 -3.64917,1.1508c-0.52365,0.71214 -1.68417,0.62697 -2.39526,0.62697c-1.06668,0 -1.77777,0 -2.84445,0c-0.71112,0 -1.77777,0 -2.48889,0c-1.06665,0 -1.77777,0 -2.84445,0c-0.71109,0 -1.77777,0 -2.48889,0c-1.06665,0 -1.79672,0 -2.64059,0c-1.06427,0 -1.67108,0 -2.59909,0c-1.12207,0 -1.8075,0.01549 -2.93808,0c-0.69232,-0.00949 -1.56207,-0.39378 -1.82281,-1.08563l-0.34875,-0.86963l-0.53214,-0.67436" id="svg_13" stroke-width="5" stroke="#000000" fill="none"/> <path d="m325.33334,135.11111c-2.48889,0 -3.20001,0 -4.26666,0c-1.06668,0 -1.7778,0 -2.48889,0c-1.06668,0 -1.7778,0 -2.84445,0c-0.71112,0 -1.77777,0 -2.48889,0c-1.06668,0 -1.77777,0 -2.84445,0c-0.71109,0 -1.80637,0.08801 -2.48889,-0.1517c-0.95102,-0.33401 -1.53787,-1.14035 -2.48889,-1.47438c-0.6825,-0.23972 -1.77777,-0.15091 -2.48889,-0.1517c-1.06665,-0.00119 -1.82657,0.04573 -2.66666,-0.39348c-0.76804,-0.40154 -1.57809,-1.17087 -2.3111,-1.3203c-0.6994,-0.14258 -1.7778,-0.064 -2.48889,-0.064c-1.06668,0 -1.77777,0 -2.84445,0c-0.71112,0 -1.79675,0 -2.64059,0c-1.0643,0 -1.67111,0 -2.59912,0c-1.12207,0 -1.80743,-0.00697 -2.58014,0c-1.0502,0.00949 -1.77148,0.47285 -2.22934,1.15082c-0.4285,0.63449 -1.27966,0.66298 -2.2551,1.02074c-0.89813,0.32942 -1.57568,0.55106 -2.392,1.384c-0.60947,0.62189 -0.8251,1.49573 -1.60712,2.13333c-0.49832,0.4063 -1.15369,0.71698 -1.83466,1.06667c-1.05701,0.54279 -1.78183,0.86852 -2.44711,1.28148c-0.97845,0.60736 -1.79248,1.4108 -2.25452,2.01215c-0.46521,0.6055 -0.8399,1.28842 -1.63437,2.09897c-0.53009,0.54082 -1.18887,0.96397 -1.85602,1.408c-0.69342,0.4615 -1.76828,1.22653 -2.46991,1.83437c-0.3605,0.31232 -1.07022,0.98039 -1.7778,1.67851c-0.71469,0.70512 -1.41748,1.41751 -1.76978,1.75941c-0.67761,0.65765 -1.27701,1.30717 -2.20059,1.91229c-0.69373,0.45453 -1.59055,0.57248 -2.42963,1.09985c-0.77605,0.48778 -1.40599,1.28752 -1.95555,1.79585c-0.69138,0.6395 -1.46901,0.92992 -2.31111,1.36148c-0.76529,0.3922 -1.23596,1.15068 -1.77777,1.93422c-0.35011,0.50632 -1.24445,1.30904 -1.95557,1.49629l-1.05066,0.01601" id="svg_14" stroke-width="5" stroke="#000000" fill="none"/> <path d="m270.22223,133.33333c-3.13571,2.74252 -3.64603,3.14261 -4.18402,3.56505c-0.55478,0.43562 -1.12207,0.86755 -2.18903,1.7588c-0.49857,0.41646 -1.4563,1.10185 -2.10934,2.11734c-0.41809,0.65013 -0.31104,1.63696 -0.44354,2.33659c-0.20932,1.10509 -0.7233,1.61377 -1.38754,2.31111c-0.69131,0.72577 -1.33365,1.16611 -1.83469,2.13333c-0.34692,0.66966 -0.38382,1.45831 -0.92325,2.31111c-0.47214,0.74644 -1.05881,1.5914 -1.13187,2.31111c-0.10774,1.06139 -0.01895,1.77777 -0.02132,2.84444l-0.06163,0.71112l-0.32948,0.88829l-0.49541,0.63763" id="svg_15" stroke-width="5" stroke="#000000" fill="none"/> <path d="m336,138.66667c-2.48889,0 -3.20001,0 -4.26666,0c-0.71112,0 -1.77777,0 -2.48889,0c-1.06668,0 -1.80112,0.20178 -2.82547,-0.01897c-0.92615,-0.19958 -1.09167,-1.19643 -2.10254,-1.60948c-0.52026,-0.2126 -1.22119,-0.17537 -1.98398,-0.29866c-1.30969,-0.21167 -2.25626,-0.47781 -2.75201,-0.60683c-1.02155,-0.26585 -1.53546,-0.43886 -3.13599,-0.72533c-0.53091,-0.09503 -1.59952,-0.20221 -2.13336,-0.2323c-1.06592,-0.06009 -1.59998,-0.06 -3.19998,-0.064c-0.53275,-0.00133 -1.58401,0 -2.0954,0c-0.97659,0 -1.86786,0 -2.98401,0c-0.85602,0 -1.82312,0 -2.60297,0l-0.896,0l-0.92801,0" id="svg_16" stroke-width="5" stroke="#000000" fill="none"/> <path d="m288,256c0.92593,1.74075 1.95557,1.77777 2.66666,1.77777c1.06668,0 1.7778,0 2.84445,0c0.71112,0 1.77777,-0.00009 2.48889,0c1.06668,0.00015 1.83661,-0.10565 2.84445,0.39349c0.57797,0.28622 1.19336,1.02115 2.14133,1.28265c0.78101,0.21545 1.80771,0.10162 2.7037,0.10162c0.62103,0 1.79199,0 2.51999,0c0.98816,0 1.87943,0 2.76831,0c0.88889,0 1.77991,0.05414 2.66666,-0.008c0.71552,-0.05014 1.60538,-0.49524 2.37512,-1.07761c0.44501,-0.3367 1.49976,-1.06476 2.13333,-1.38431c0.65616,-0.33093 1.34518,-0.64606 2.7757,-0.93631c0.67218,-0.13638 1.71283,0.00128 2.41748,-0.5428c0.72595,-0.56053 1.07028,-1.3264 1.7858,-1.3763c0.99228,-0.0692 1.89404,0.09924 2.71732,-0.10963c1.01099,-0.25648 1.25378,-1.20221 1.7692,-2.03171c0.35785,-0.57591 1.25809,-1.43512 1.80383,-1.94756c0.52179,-0.48994 1.41693,-1.05713 2.17038,-1.25244c0.64371,-0.16687 1.71323,-0.5027 2.62964,-0.88889c0.61807,-0.26047 1.73068,-0.72073 2.4249,-0.82489c0.7666,-0.11502 2.09903,-0.40808 2.69214,0.32977c0.44144,0.54918 -0.18451,1.55675 -0.67261,2.27289c-0.60168,0.88278 -0.56677,1.7899 -1.28235,2.45097c-0.60092,0.55513 -1.08597,1.17525 -1.77808,1.77777c-0.55765,0.48547 -1.56567,0.6037 -2.27289,1.1046c-0.53632,0.37985 -1.7623,0.57707 -2.37039,1.18518c-0.60809,0.60809 -0.65198,1.68942 -1.2222,2.37036c-0.46878,0.55981 -1.1749,1.27936 -1.74075,1.74075c-0.84421,0.68839 -1.78989,0.60382 -2.45096,1.3194c-0.55515,0.60092 -1.0368,1.22601 -1.9935,1.6806c-0.57672,0.27405 -1.1058,0.82452 -2.07407,1.48148c-0.55078,0.37369 -1.46997,0.87766 -2.09897,1.14282c-1.10376,0.4653 -1.83704,0.49677 -2.58014,0.7843c-0.94305,0.3649 -1.55414,1.10486 -2.49127,1.4791c-0.6846,0.27338 -1.5881,0.56171 -2.34814,1.03824c-0.63815,0.40012 -1.70917,0.76251 -2.31909,0.82489c-0.92487,0.09457 -2.05008,0.064 -2.73541,0.064c-1.13068,0 -1.84177,0 -2.90845,0c-0.71112,0 -1.77777,0 -2.48889,0c-1.06665,0 -1.77777,0 -2.84445,0c-0.71109,0 -1.77777,0 -2.48889,0c-1.06665,0 -1.77777,0 -2.84442,0c-0.71112,0 -1.7778,0 -2.48889,0c-1.06668,0 -1.96533,0.28247 -2.62875,-0.39349c-0.573,-0.58386 -1.17523,-1.08594 -1.77777,-1.77808c-0.48544,-0.55762 -0.61649,-1.55673 -1.10458,-2.27289c-0.60165,-0.88278 -0.85489,-1.59805 -0.88654,-2.3111c-0.04727,-1.06564 -0.00235,-1.77777 -0.00235,-2.84445l0,-0.71112" id="svg_17" stroke-width="5" stroke="#000000" fill="none"/> <path d="m266.66666,275.55554c0,2.63824 0,3.55557 0,4.4729c0,1.0643 0,1.71231 0,2.81601c0,0.71109 0,1.77777 0,2.48889c0,1.06665 0,1.77777 0,2.84442c0,0.71112 0,1.7778 0,2.48889c0,1.06668 0,1.7778 0,2.84445c0,0.71112 0,1.77777 0,2.48889c0,1.06668 0,1.77777 0,2.84445c0,0.71109 0,1.77777 0,2.48889c0,1.06665 0.04095,1.77856 -0.00027,2.84415c-0.03198,0.827 -0.72989,1.32336 -1.27261,1.74963c-0.70419,0.5531 -1.01608,1.47369 -1.85895,1.72208c-0.99686,0.29376 -1.59265,0.52368 -2.20148,0.83228c-0.93134,0.47205 -1.75983,1.00455 -2.4249,1.56296c-0.60873,0.51111 -1.29437,1.25974 -1.86075,1.7778c-0.6012,0.54996 -1.61868,1.24445 -2.2,1.59998c-0.87201,0.53333 -1.39111,0.88889 -2.20799,1.76978l-0.34222,0.74521l-0.7049,0.47021" id="svg_18" stroke-width="5" stroke="#000000" fill="none"/> <path d="m334.22223,280.88889c0,2.48889 0.08875,3.20529 -0.01898,4.26666c-0.07306,0.7197 -0.64914,1.58246 -1.00266,2.19733c-0.52313,0.90985 -0.68307,1.80533 -0.73718,2.73541c-0.03525,0.60602 0.02457,1.6799 -0.08298,2.64297c-0.06155,0.55109 -0.32675,1.56787 -0.56296,2.39734c-0.25894,0.9093 -0.53394,1.84995 -0.6459,2.32443c-0.31775,1.34671 -0.42029,2.17746 -0.46786,2.95438c-0.04529,0.73932 -0.03705,1.81482 -0.03705,2.89749c0,0.76917 0,1.60947 0,2.06519c0,1.5502 0,2.12857 0,2.72827c0,1.23499 0,1.85602 0,2.46994c0,1.728 -0.01254,2.24402 0.008,3.17599c0.01788,0.81158 0.01129,1.88605 0.49927,2.90399c0.3335,0.69568 0.91614,1.21719 1.62607,1.9295c0.53244,0.53421 1.04459,1.08954 1.95557,1.94754c0.52103,0.49072 1.4252,1.02707 2.13333,1.25244c0.89285,0.28415 1.55069,0.83197 2.31113,1.27289c0.85071,0.49326 1.7016,0.50089 2.70459,0.50488c0.58902,0.00235 1.51703,0 2.68799,0c0.73599,0 1.63437,0 2.64532,0c0.58905,0 1.51706,0 2.68802,0c0.728,0 1.53275,0 2.60739,0c0.71112,0 1.77777,0 2.48889,0c1.06668,0 1.77979,0.0582 2.85245,-0.008c0.80862,-0.0499 1.81064,-0.3782 2.39673,-0.61896c0.9328,-0.38318 1.50943,-0.73453 2.59912,-0.99911c0.83011,-0.20157 1.75113,-0.1517 2.61511,-0.1517l-0.52383,0" id="svg_19" stroke-width="5" stroke="#000000" fill="none"/> <path d="m243.55556,296.88889c1.77777,0.92593 1.99525,1.83954 2.55289,2.46994c0.5762,0.6514 1.53177,1.02533 2.24712,1.07761c1.06395,0.07776 1.82307,0.02188 2.66666,0.51291c0.7597,0.4422 1.58507,1.13306 2.31111,1.23584c1.05678,0.1496 1.77779,0.03705 2.84444,0.03705c0.71112,0 1.7778,0 2.48889,0c1.06668,0 1.7778,0 2.84445,0c0.71112,0 1.77777,0 2.48889,0c1.06668,0 1.77777,0 2.84445,0c0.71109,0 1.77777,0 2.48889,0c1.06665,0 1.77777,0 2.84442,0c0.71112,0 1.77808,0 2.52594,0c1.14813,0 1.71466,0 2.66666,0c0.68207,0 1.74075,0 2.82343,0c0.76917,0 1.60947,0.00003 2.06519,0c1.54993,-0.00015 2.12628,0.00195 2.72028,-0.008c1.20612,-0.02023 1.80365,-0.01767 2.92593,-0.14371c0.98807,-0.11096 1.79016,-0.31989 2.68741,-0.73718c0.76563,-0.35608 1.52823,-0.7175 2.44919,-0.82489c0.66312,-0.07733 2.06934,-0.064 2.78757,-0.064c0.76086,0 1.60709,0 2.07553,0c1.65067,0 2.29837,0 2.99231,0c0.73303,0 1.49808,0 2.28799,0c0.80771,0 1.62607,0 2.448,0c1.62607,0 2.41779,0 3.19525,0c0.76682,0 1.52652,0 2.28268,0c0.75613,0 1.51584,0 2.28265,0c1.56918,0 2.37689,0 3.19528,0c0.8219,0 1.64029,0 2.448,0c0.78992,0 2.28799,0 3.62961,0c0.59647,0 1.65067,0 2.11911,0c0.84622,0 2.32535,0 3.03409,0c0.69452,0 1.67853,0 2.55051,0c0.94342,0 1.71909,-0.06305 2.80417,0.01895c0.61975,0.04681 1.6196,0.37372 2.53391,0.73718c0.66632,0.26489 1.34702,0.57242 2.42459,0.80563c0.69653,0.15076 1.71405,0.19989 2.90402,0.216c0.71997,0.00974 1.52295,0.18436 2.11111,0.88889c0.52057,0.62354 1.4931,0.84265 2.07022,0.86993c1.15085,0.05441 2.1228,-0.07269 2.86813,0.17065c0.75983,0.24808 1.47751,0.94894 1.93185,1.27289c1.04007,0.74155 1.65414,1.08212 2.59912,1.496c0.85004,0.37228 1.60486,0.56879 2.336,0.616c1.19235,0.07697 1.96777,0.00784 2.82547,0.03793c0.88712,0.0311 1.76846,0.0415 2.85571,0.37451c0.60162,0.18427 1.22879,0.7341 2.20947,1.16858c0.79123,0.35056 1.55072,0.84586 1.59793,1.64032c0.05258,0.88495 -0.08575,1.81244 -0.6246,2.66428c-0.35471,0.56073 -0.77353,1.49176 -1.19583,2.24713c-0.43985,0.78674 -1.44855,0.81705 -2.26608,1.41806c-0.59271,0.43573 -1.25363,1.42545 -1.60001,1.99527c-0.36533,0.60098 -0.66928,1.2543 -1.42221,2.3988c-0.33725,0.51266 -0.87607,1.16064 -1.7778,2.07407c-0.52594,0.53275 -1.00256,1.12061 -1.95523,1.56207c-0.78519,0.36386 -1.50668,0.84268 -1.89661,1.6972l-0.59259,0.2963l-0.79526,0.62695l-0.24298,0.64594" id="svg_20" stroke-width="5" stroke="#000000" fill="none"/> <path stroke="#000000" d="m247.31981,323.55557c0,8.71902 -0.52533,12.46875 0.17787,14.94687c0.71507,2.52005 6.18698,5.48132 10.61481,8.09619c5.05893,2.98758 5.34799,5.76953 9.57004,8.71902c3.83267,2.67743 10.98074,5.52835 12.38211,8.09631c1.33701,2.45001 0.60019,6.22784 0.60019,8.71902l-0.17789,3.67029" id="svg_21" stroke-width="5" fill="none"/> </g> </svg>