<svg width="640" height="480" xmlns="http://www.w3.org/2000/svg" xmlns:svg="http://www.w3.org/2000/svg"> <!-- Created with SVG-edit - http://svg-edit.googlecode.com/ --> <g> <title>Layer 1</title> <path d="m239.19191,97.131294c-2.488892,0 -3.199997,0 -4.266663,0c-1.066666,0 -1.777786,0 -2.844452,0c-0.768005,0 -1.549332,-0.000351 -2.666672,0c-0.46933,0.000153 -1.525467,0.002434 -2.090652,0.018959c-1.15239,0.033699 -1.7332,-0.015961 -3.242676,0.277336c-0.805939,0.156593 -1.428818,0.499802 -2.312592,0.854515c-0.930603,0.373512 -1.720139,0.493454 -2.596451,0.562965c-0.460663,0.036537 -1.405304,0.058067 -2.794662,0.064003c-0.850967,0.003632 -1.625229,-0.052063 -2.282669,0.063995c-1.166214,0.205872 -1.408463,1.204689 -2.204147,1.612152c-0.708359,0.362747 -2.012283,-0.172523 -2.624298,0.397926c-0.629074,0.586357 -0.65892,1.682961 -1.071396,2.192589c-0.605896,0.748604 -1.37706,1.407494 -1.891556,1.992592c-0.554199,0.630249 -1.092453,1.40863 -1.581039,2.319115c-0.328308,0.611816 -0.690063,1.19796 -0.984009,2.519997c-0.134903,0.606712 0.114655,1.729462 -0.101624,2.488892c-0.204727,0.718826 -1.31395,0.623726 -2.130966,1.14222c-0.549744,0.348885 -1.104279,1.280121 -1.398514,1.981636c-0.30275,0.721817 -1.026962,1.439575 -1.840897,1.955551c-0.580673,0.368103 -1.479889,0.844353 -2.180435,1.438225c-0.710678,0.602463 -1.147095,1.164825 -1.909332,2.193481c-0.295151,0.398308 -0.899063,1.275291 -1.206528,1.738663c-0.623688,0.939911 -0.931534,1.407471 -1.739548,2.76889c-0.246445,0.415222 -0.680481,1.202751 -1.085922,1.91111c-0.367767,0.64254 -1.064774,1.726784 -1.618973,2.357033c-0.514511,0.585114 -1.279327,1.248947 -1.740738,1.814819c-0.68837,0.844208 -0.893906,1.598572 -0.925919,2.666672c-0.021301,0.710785 0,1.777771 0,2.488892c0,1.066666 0.000076,1.815704 0,2.514359c-0.000153,1.29541 -0.00293,2.133499 -0.018967,2.591415c-0.03421,0.977036 -0.036865,1.494293 -0.277344,3.071991c-0.081696,0.535934 -0.328979,1.600418 -0.459839,2.133347c-0.262131,1.06749 -0.438278,1.591599 -0.725342,3.199997c-0.094757,0.530945 -0.202194,1.599518 -0.2323,2.133331c-0.060104,1.065918 -0.059998,1.599991 -0.063995,3.199997c-0.001328,0.53363 0,1.608002 0,2.152298c0,1.11171 0,1.682663 0,2.266068c0,1.842667 0,2.493637 0,3.165939c0,0.695404 0,1.415695 0,2.162659c0,0.775406 0,1.581039 0,3.29007c0,0.905777 0,1.841782 0,2.802673c0,0.980438 0,1.975113 0,2.978668c0,1.007111 0,2.012436 0,3.996445c0,0.968887 0,1.919998 0,2.853333c0,0.915558 0,1.813324 0,2.693329c0,0.862228 0,1.706665 0,3.342224c0,0.791107 0,1.564438 0,2.320007c0,0.737778 0,1.457764 0,2.159988c0,0.684448 0,1.35112 0,2.631119c0,0.613632 0,1.211258 0,1.794662c0,0.570969 0,1.131256 0,1.682663c0,0.544296 0,2.152298 0,2.685638c0,1.066666 0,1.599991 0,2.666656c0,0.53334 -0.001755,2.133347 0.000305,2.666977c0.00415,1.074371 0.004578,1.619308 0.06369,2.730362c0.030396,0.571396 0.048157,1.160004 0.329788,2.996445c0.099548,0.649109 0.237213,1.308685 0.381332,1.981339c0.146774,0.685028 0.307571,1.377899 0.477325,2.077332c0.516373,2.127533 0.701752,2.836868 0.88327,3.547546c0.181732,0.711548 0.368027,1.42337 0.567993,2.133347c0.200623,0.71228 0.410187,1.425476 0.647995,2.133331c0.480118,1.429092 0.769928,2.135162 1.064301,2.842072c0.294678,0.707657 0.604065,1.406876 1.227859,2.782806c0.305618,0.674103 0.618256,1.329529 1.170959,2.612152c0.26355,0.611588 0.512848,1.208908 0.943405,2.384598c0.210983,0.576126 0.412857,1.152908 0.772736,2.327698c0.370605,1.209824 0.536606,1.843613 0.713486,2.486526c0.178696,0.649536 0.531464,1.949844 0.711105,2.58844c0.175934,0.625412 0.323822,1.240845 0.888901,2.877029c0.168365,0.487503 0.522156,1.375717 0.888885,2.17186c0.345108,0.749191 0.893082,1.813202 1.236435,2.518814c0.330872,0.679977 0.668472,1.310959 1.037048,2.458969c0.29364,0.914581 0.473785,1.637817 1.002365,2.386963c0.43335,0.614182 1.013153,1.188232 1.514664,1.82399c0.861694,1.092361 1.14032,1.827713 1.339554,2.498367c0.300949,1.013031 0.679794,1.903107 0.936005,2.528015c0.477234,1.163971 0.696579,1.895172 0.748154,2.703705c0.056946,0.892761 0.044983,1.764923 0.764145,2.274078c0.748932,0.530243 1.030304,1.342468 1.528885,2.180725c0.360718,0.606445 0.936371,1.203308 1.448593,1.991119c0.573654,0.882294 0.915543,1.545898 1.395859,2.12384c0.722504,0.869354 1.366623,1.308197 2.018661,1.749329c0.676437,0.457611 1.753174,1.169952 2.449478,1.751709c0.356461,0.297821 1.046112,0.938873 1.678528,1.634064c0.312592,0.343597 1.135361,1.410583 1.608002,2.11734c0.453995,0.678864 0.826813,1.394409 1.634369,2.200592c0.791595,0.790253 1.436752,1.124786 1.99733,1.431122c1.052856,0.575348 1.726578,1.199921 2.347549,1.664581c0.819855,0.613495 1.581238,0.713898 2.64859,0.756439c0.821503,0.032745 1.37471,0.079468 2.488007,0.296021c0.985291,0.19165 1.528427,0.326782 2.666672,0.629639c0.577621,0.153687 1.166214,0.259155 2.666656,0.851837c0.804276,0.317688 1.38942,0.722473 2.109344,1.142822c0.893799,0.521851 1.687851,0.625458 2.631409,0.634949c0.871948,0.008759 1.518509,0 2.550507,0c1.064301,0 1.775406,0 2.486526,0c1.066666,0 2.13353,-0.010376 2.844437,0.007996c0.711472,0.018372 1.790833,0.09201 2.844147,0.385498c0.713959,0.198914 1.376831,0.517578 2.337494,0.879395c0.817657,0.307953 1.714188,0.486359 2.818359,0.504883c0.711014,0.011932 1.777481,0 2.451859,0c1.019562,0 1.738953,0.000122 2.653931,0c1.015106,-0.000153 1.85318,-0.00293 2.311096,-0.018951c0.97702,-0.03421 2.014648,-0.102356 3.072021,-0.277344c1.074585,-0.177826 1.608063,-0.330292 2.152283,-0.459839c1.111877,-0.264709 1.679779,-0.409424 2.266083,-0.516754c1.833557,-0.335632 2.483826,-0.359131 3.133911,-0.411255c0.651276,-0.052216 1.939026,-0.134247 2.563568,-0.187256c0.605682,-0.051422 2.260712,-0.268127 3.18399,-0.541321c0.424438,-0.12561 1.213898,-0.38736 2.40387,-1.142822c0.518036,-0.328888 1.156219,-0.880402 1.716125,-1.422211c0.904541,-0.875366 1.424622,-1.422211 2.135712,-2.133331c0.541321,-0.541351 1.130707,-1.130646 1.573914,-1.573944c0.775482,-0.775635 1.377716,-1.374878 2.018677,-2.055695c0.340485,-0.361664 1.047729,-1.13385 1.740753,-2c0.725433,-0.906616 1.063385,-1.394012 1.403259,-1.88208c0.675537,-0.970062 1.000183,-1.451355 1.855988,-2.858673c0.263397,-0.433105 0.736603,-1.268982 1.185181,-2.074066c0.223114,-0.400421 0.669434,-1.223938 1.460449,-2.5271c0.286499,-0.471985 0.593292,-0.954529 1.243256,-1.954376c0.335724,-0.516418 0.680939,-1.038391 1.740753,-2.629639c0.355164,-0.533264 0.709015,-1.065704 1.06665,-1.59201c0.707001,-1.040436 1.060028,-1.548828 1.422241,-2.039703c1.047577,-1.419617 1.420197,-1.842896 1.775391,-2.263397c0.691193,-0.818237 1.37381,-1.606537 1.678528,-2.020752c0.912537,-1.240494 1.147827,-1.713791 1.608002,-2.674652c0.235382,-0.491486 0.670013,-1.518188 0.898376,-2.039703c0.231445,-0.528595 1.006897,-2.127563 1.30014,-2.658661c0.295746,-0.535614 0.91864,-1.599243 1.227844,-2.133347c0.308289,-0.532562 0.644806,-1.047699 1.429047,-2.666367c0.254547,-0.525391 0.688385,-1.580139 0.890076,-2.096588c0.390472,-0.999786 0.541901,-1.495926 1.104004,-2.843262c0.34726,-0.832336 0.52951,-1.231003 0.952576,-1.974808c0.421265,-0.740662 1.214539,-1.800217 1.807404,-2.515854c0.304993,-0.368164 0.955017,-1.102859 1.534821,-1.921478c0.592407,-0.836411 1.074738,-1.769669 1.284149,-2.253036c0.416901,-0.962265 0.595764,-1.451477 0.844452,-2.423706c0.343811,-1.34407 0.415985,-2.189041 0.509613,-2.99379c0.093628,-0.804733 0.103973,-1.225281 0.393799,-2.526215c0.20874,-0.936996 0.350586,-1.403366 0.691833,-2.278519c0.31131,-0.798309 1.047729,-1.856018 1.75882,-2.377487c0.711121,-0.521484 1.263611,-1.184387 1.562958,-1.780731c0.32074,-0.638947 0.725494,-2.057129 0.832306,-2.778381c0.109283,-0.737991 0.145996,-1.523163 0.389923,-2.777176c0.180603,-0.928497 0.329681,-1.40799 0.629639,-2.40741c0.15506,-0.516678 0.498108,-1.565521 0.851837,-2.629623c0.177216,-0.533142 0.529022,-1.590851 0.692169,-2.11438c0.317688,-1.019409 0.497498,-1.506866 0.789337,-2.922668c0.175262,-0.850342 0.242249,-1.65564 0.341309,-2.41066c0.095642,-0.728897 0.332733,-1.802216 0.711121,-2.863403c0.254944,-0.714966 0.572235,-1.408722 0.805634,-2.488602c0.150574,-0.696548 0.204742,-1.713913 0.213623,-2.337479c0.018433,-1.294403 0.00238,-2.099258 0.00238,-2.996155c0,-0.888885 0,-1.777771 0,-2.666656c0,-0.888885 0,-1.777786 0,-2.671417c0,-0.834366 0,-2.010071 0,-2.787552c0,-0.433182 0,-1.370667 0,-2.379257c0,-0.522079 0,-2.117035 0,-2.6483c0,-1.050064 0,-1.565323 0,-2.567398c0,-1.405334 0,-1.840897 0,-2.658676c0,-1.093323 0,-1.733322 0,-3.030212c0,-0.804749 0,-1.70163 0,-2.59053c0,-0.891251 0,-1.663986 0,-2.607407c0,-0.863998 0,-1.791992 0,-2.398804c0,-1.29216 0.048645,-2.098343 -0.00238,-2.99379c-0.050873,-0.89296 -0.512177,-1.770935 -0.886505,-2.311111c-0.60849,-0.878067 -0.844818,-1.579987 -0.888885,-2.621628c-0.034668,-0.819626 -0.271301,-1.839279 -0.634979,-2.364136c-0.422546,-0.609802 -1.152954,-1.526474 -1.498383,-2.096893c-0.549652,-0.907669 -0.858124,-1.554596 -1.422211,-2.398819c-0.498779,-0.746445 -1.123962,-1.279633 -1.562073,-2.251846c-0.305298,-0.677505 -0.558685,-1.819321 -0.990814,-2.29216c-0.5867,-0.641953 -1.735016,-0.671204 -2.484161,-1.381912c-0.504822,-0.478943 -0.681488,-1.664993 -1.052429,-2.192596c-0.505585,-0.719101 -0.86554,-1.619476 -1.115265,-2.311111c-0.332977,-0.922134 -0.984589,-1.607285 -1.684143,-2.311111c-0.535706,-0.538986 -1.102417,-1.105774 -2.074066,-1.777786c-0.546814,-0.378189 -1.193054,-0.651031 -1.997345,-1.244438c-0.879456,-0.648857 -1.195953,-1.421684 -1.262207,-2.488594c-0.04187,-0.674072 -0.600403,-1.272987 -1.272614,-1.749626c-0.814575,-0.577606 -0.853333,-1.057266 -1.614807,-1.814522c-0.541321,-0.53833 -2.143097,-1.895836 -3.218658,-2.745773c-1.220551,-0.9645 -2.572113,-1.987488 -4.007996,-3.053337c-1.474243,-1.094307 -2.961578,-2.174149 -4.424011,-3.213333c-1.389343,-0.987236 -3.826111,-2.662399 -4.812744,-3.295998c-0.815948,-0.523987 -1.494446,-0.931381 -2.053345,-1.234665c-0.443665,-0.240753 -0.804352,-0.408974 -1.093323,-0.53067c-0.232849,-0.098061 -0.616455,-0.253189 -0.791412,-0.356148c-0.183258,-0.107849 -0.364502,-0.239532 -0.552002,-0.381332c-0.197144,-0.149086 -0.399597,-0.311798 -0.615997,-0.477333c-0.226807,-0.1735 -0.725372,-0.529465 -1.003265,-0.70282c-0.288574,-0.180023 -0.904449,-0.537537 -1.580719,-0.82518c-0.684998,-0.291359 -1.756714,-0.574669 -2.477936,-0.68148c-0.738007,-0.109299 -1.523315,-0.145302 -2.777191,-0.389931c-0.923859,-0.180244 -1.865784,-0.470688 -2.333313,-0.629631c-0.913971,-0.310722 -2.125366,-0.826996 -2.755859,-1.205032c-0.781525,-0.468582 -1.315399,-1.053162 -2.258972,-1.322968c-0.689606,-0.197189 -1.777771,-0.101624 -2.488892,-0.101624c-1.06665,0 -1.777771,0 -2.844421,0c-0.711121,0 -1.785797,0 -2.590546,0c-1.00296,0 -1.898956,0 -2.519989,0c-1.170959,0 -1.918762,0.071121 -2.805328,-0.101631c-1.032806,-0.201256 -1.598129,-0.52977 -2.528,-0.919998c-0.605606,-0.25415 -1.664078,-0.661728 -2.514969,-0.73719c-0.904495,-0.080215 -1.796738,-0.018959 -2.685623,-0.018959c-0.888901,0 -1.777786,0 -2.666672,0c-0.888885,0 -1.777771,0 -2.666672,0c-0.888885,0 -1.777771,0 -2.666656,0c-0.888596,0 -1.853928,0 -2.785187,0c-0.789337,0 -1.659561,0 -2.612152,0c-0.943405,0 -1.807404,0 -2.424881,0c-0.917343,0 -1.981644,0 -2.825485,0c-0.907852,0 -1.797409,-0.034073 -2.685333,0.000298c-0.827026,0.032013 -1.555267,0.755852 -1.896591,1.481186l-0.789337,0.277328l-0.869934,0.018967l-0.888885,0" id="svg_1" stroke-width="5" stroke="#000000" fill="none"/> <path d="m184.080795,161.131287c2.287415,0 3.131866,0.006363 4.126816,-0.00029c0.589066,-0.003937 1.549332,0.062531 2.688004,-0.296005c0.783554,-0.246719 1.229477,-0.672882 2.171249,-0.976593c1.232773,-0.397552 1.784546,-0.361282 2.35704,-0.41925c1.285782,-0.130203 1.998154,-0.187729 2.750824,-0.280899c0.795303,-0.09845 2.501068,-0.386429 3.404434,-0.591995c0.938644,-0.213593 1.898209,-0.469955 2.877335,-0.744003c0.996033,-0.278763 1.998062,-0.576569 3.005341,-0.871994c1.005157,-0.2948 2.988144,-0.860504 3.957031,-1.114075c0.941681,-0.24646 1.853729,-0.469543 2.725342,-0.685333c0.825562,-0.204391 1.599365,-0.39415 2.309326,-0.58934c0.645782,-0.177551 1.708908,-0.525101 2.103119,-0.718811c0.330444,-0.162369 0.593262,-0.332733 0.778656,-0.514664c0.293793,-0.28833 1.148972,-0.688492 1.782516,-1.381927c0.564316,-0.617661 0.296295,-1.660141 0.296295,-2.481476c0,-0.877335 0,-1.666672 0,-2.65274c0,-0.555267 0,-1.754669 0,-2.384598c0,-0.640594 0,-1.284744 0,-3.168594c0,-0.595551 0,-1.733337 0,-2.275558c0,-1.031097 0,-1.519989 0,-2.87999c0,-0.81778 0,-1.564453 0,-2.551117c0,-1.066666 0.275696,-1.937698 -0.151703,-2.792297c-0.38916,-0.778137 -1.237228,-1.230392 -1.524445,-2.145782c-0.161667,-0.515259 0.271271,0.401352 1.049194,0.509338c1.011078,0.14035 1.712585,0.007996 2.7603,0.007996c0.711105,0 1.79245,0.092407 2.488876,-0.063995c0.924774,-0.207687 1.707092,-0.772308 2.192596,-1.713776c0.34288,-0.664886 0.165878,-1.793823 0.315262,-2.469925c0.204361,-0.924889 1.19455,-1.076149 2.35141,-1.085632c0.772705,-0.006332 1.194656,0 2.074066,0c0.87941,0 2.074081,0 2.99675,0c0.898361,0 1.887665,-0.271683 2.590515,0.101631c0.79071,0.419975 0.877396,1.71508 1.269928,2.201485c0.548416,0.679558 1.590485,0.89962 2.285629,1.346069c0.746414,0.479378 1.009064,1.55928 1.720596,1.665192c1.036453,0.154282 1.758804,0.018951 2.82547,0.018951c0.711121,0 1.777786,0 2.488892,0c1.066666,0 1.777786,0 2.844452,0c0.711105,0 1.777771,0 2.488892,0c1.064285,0 1.853912,0 2.88266,0c0.691864,0 1.739563,0 2.450653,0c1.066681,0 1.777802,0 2.846832,0c0.772736,0 1.716156,0 2.580139,0c0.928009,0 1.534821,0 2.599121,0c0.843842,0 1.931854,0 2.70459,0c0.94339,0 1.799408,0 2.671417,0c0.93866,0 1.925018,0 2.616882,0c1.047699,0 1.75882,0 2.82547,0c0.711121,0 1.777771,-0.000793 2.488892,0c1.064301,0.00119 2.094574,-0.043686 2.424896,0.775116c0.375916,0.931747 0.063995,1.713776 0.063995,2.780441c0,0.711121 -0.047424,1.780563 0.018951,2.507858c0.077637,0.850708 0.487122,1.910049 0.737183,2.53392c0.266785,0.665573 0.581665,1.345062 0.805634,2.424591c0.215118,1.03688 0.199921,1.714035 0.216003,2.904007c0.009735,0.719986 0.151154,1.565247 0.888885,2.074066c0.736633,0.508057 0.884888,1.252441 0.888885,2.303116c0.003632,0.956146 -0.296265,1.883896 0.151703,2.52533c0.517944,0.741653 1.803864,0.504898 2.514984,0.504898c1.066376,0 1.891541,0 2.760284,0c0.832306,0 1.870972,-0.081818 2.573029,0.037033c0.912964,0.154556 1.585846,0.776382 2.234985,1.113785c0.961731,0.499878 1.897949,0.580414 2.519989,0.607986c1.169952,0.051849 1.914978,0.018967 2.906952,0.018967c0.930695,0 1.70343,0 2.561493,0c0.886505,0 1.744598,0 2.855408,0c0.818665,0 1.735992,0 2.667267,0c0.789612,0 1.676147,0 2.565033,0c0.888885,0 1.777771,0 2.682678,0c0.898346,0 1.821014,0 2.598511,0c0.891266,0 1.370667,0 2.379242,0c1.584015,0 2.11615,0 3.152008,0l0.489471,0l0.886536,0" id="svg_2" stroke-width="5" stroke="#000000" fill="none"/> <path d="m182.303024,175.353516c1.009766,-2.130966 1.770889,-2.642502 2.545776,-3.048294c0.91185,-0.477509 1.801865,-0.892746 2.279694,-1.150223c0.910248,-0.490479 1.592743,-0.914749 2.285629,-1.431107c0.728149,-0.542633 1.426926,-1.171249 2.197342,-1.728012c0.386276,-0.27916 1.642456,-0.979874 2.574219,-1.230209c0.472458,-0.126938 1.450562,-0.264877 1.938965,-0.327118c0.962158,-0.122604 2.324905,-0.343277 3.135406,-0.600891c0.754105,-0.239685 1.394943,-0.609192 2.560303,-0.934814c0.87439,-0.244324 1.815994,-0.216003 2.5271,-0.216003c1.066666,0 1.815704,0 2.514374,0c1.29512,0 2.125336,0 2.572449,0c0.931549,0 1.877335,0 2.794662,0c0.858078,0 1.673477,0 2.47467,0c0.815399,0 2.126511,0 3.078812,0c0.495712,0 1.517334,0 2.039703,0c1.591995,0 2.125702,-0.006653 3.199997,0.008011c0.544357,0.007431 1.656403,0.050354 2.226974,0.093628c0.583878,0.044281 2.425446,0.287018 3.065186,0.403259c0.645035,0.117203 1.285522,0.247559 2.52681,0.516739c0.587646,0.127441 2.125824,0.475815 2.917923,0.604446c0.616776,0.100159 1.514664,0.149323 2.58844,0.151703l0.711121,0l1.047699,0" id="svg_3" stroke-width="5" stroke="#000000" fill="none"/> <path d="m310.303009,166.46463c-2.488892,0 -3.199982,0 -4.285614,0c-0.843872,0 -1.910522,0 -2.533936,0c-0.666077,0 -2.069336,0 -2.780426,0c-0.711121,0 -1.422241,0 -2.844452,0c-0.70874,0 -1.403259,0 -2.387268,0c-1.130676,0 -1.853333,0 -2.608002,0c-0.930664,0 -1.7034,0 -2.561493,0c-0.886505,0 -1.744568,0 -2.856567,0c-0.893341,0 -1.786682,-0.000351 -2.920013,0c-0.469635,0.000153 -1.533447,0.00264 -2.109619,0.018967c-1.197418,0.03392 -1.801849,0.06424 -2.394073,0.132736c-1.648499,0.190674 -2.131317,0.328735 -2.993774,0.604446c-0.763367,0.244034 -1.971802,0.778748 -2.712006,0.919998c-0.795807,0.151855 -1.97467,-0.151505 -2.616608,0.253326c-0.775085,0.4888 -1.294495,1.41008 -2.038513,1.562073l-0.872009,0.056" id="svg_4" stroke-width="5" stroke="#000000" fill="none"/> <path d="m230.303024,178.909073c-2.488892,0 -3.200012,0 -4.266678,0c-1.066666,0 -1.777771,0 -2.844437,0c-0.692154,0 -1.684143,0 -2.552887,0c-1.00267,0 -1.713776,0 -2.780441,0c-0.711121,0 -1.777786,0 -2.488892,0c-1.066666,0 -1.777786,0 -2.844452,0c-0.711105,0 -1.777771,0 -2.488892,0c-1.066666,0 -1.777771,0 -2.844437,0c-0.711105,0 -1.777786,0 -2.469925,0c-0.992004,0 -1.860748,0 -2.863403,0c-0.711121,0 -1.777786,0 -2.488892,0c-1.066666,0 -1.777786,0 -2.844452,0c-0.711105,0 -1.777771,0 -2.488892,0c-1.066666,0 -1.777771,0 -2.844437,0c-0.730072,0 -1.574051,-0.013748 -2.635849,0.002365c-0.590393,0.008957 -1.5746,-0.138687 -2.398819,0.502518c-0.637985,0.496323 -1.322235,1.059052 -2.039413,1.272888c-1.02005,0.304138 -0.741501,1.1082 0.140457,1.562378c0.788284,0.405945 1.409897,0.997314 1.555252,1.746658c0.168137,0.866806 0.278046,1.761581 0.801178,2.671417c0.353546,0.614883 0.658386,1.585129 1.115265,2.273483c0.491653,0.740738 1.684143,0.634964 2.395264,0.634964c1.066666,0 1.777771,0 2.844437,0c0.711121,0 1.777786,0 2.488892,0c1.066666,0 1.777786,0 2.844452,0c0.711105,0 1.777771,0 2.488876,0c1.066681,0 1.75882,0 2.750824,0c0.868744,0 1.871399,0 2.58252,0c1.066666,0 1.777771,0 2.844437,0c0.711121,0 1.793762,0.130081 2.469925,-0.018967c0.924927,-0.203888 1.118851,-1.208862 1.841782,-1.713776c0.752319,-0.525436 1.066666,-1.130676 1.415115,-2.000595l0.495407,-0.711121l0.59259,-0.888885l0.251266,-0.692139" id="svg_5" stroke-width="5" stroke="#000000" fill="none"/> <path d="m287.191895,180.686844c-2.488861,0.018967 -3.23645,0.089035 -4.088867,0.626968c-0.746948,0.471375 -1.591431,1.058792 -2.311127,1.131851c-1.061371,0.107727 -1.777771,0.018967 -2.844452,0.018967c-0.71109,0 -1.775391,0 -2.565033,0c-1.028717,0 -1.720581,0 -2.77066,0c-0.772736,0 -1.716156,0 -2.580139,0c-0.617493,0 -1.535583,-0.037598 -2.599121,0.002365c-0.84549,0.031769 -1.739807,0.410004 -2.499847,0.88652c-0.638184,0.400116 -1.70929,0.743195 -2.30014,0.843857c-0.844452,0.14386 -1.75119,0.787582 -2.254242,1.317917c-0.650421,0.685715 -0.526215,0.504898 0.502533,0.504898c0.711121,0 1.777771,0 2.488892,0c1.06665,0 1.777771,0 2.844452,0c0.71109,0 1.777771,0 2.488892,0c1.06665,0 1.777771,0 2.844421,0c0.711121,0 1.862579,-0.272385 2.565033,0.101624c0.766693,0.408203 0.637939,1.625229 1.410095,1.676147c1.000488,0.065979 1.746399,-0.049606 2.576599,0.151703c1.091949,0.264786 1.685883,0.615189 2.35614,0.869934c0.690399,0.26239 1.753479,0.580338 2.806519,0.692139c0.663879,0.07048 1.855988,0.064011 2.583984,0.064011c0.804749,0 1.879425,0 2.590515,0c1.066681,0 1.777802,0 2.836456,0c0.956146,0 1.759705,0 2.504883,0c1.058685,0 1.781677,0.150421 2.828461,-0.008011c0.987427,-0.149445 1.273438,-0.91748 1.252136,-1.94725c-0.01712,-0.827469 -0.805328,-1.244339 -1.481171,-1.896591c-0.476746,-0.460098 -0.794617,-1.402954 -1.720886,-1.479111c-0.87558,-0.071991 -1.834686,-0.00238 -2.638245,-0.00238c-0.917328,0 -1.803833,0 -2.692719,0l-0.888916,0l-0.888885,0" id="svg_6" stroke-width="5" stroke="#000000" fill="none"/> <path d="m232.080795,182.46463c0,2.488892 0,3.555557 0,4.266663c0,0.711105 0,1.777771 0,2.488892c0,1.066666 0,2.133331 0,2.844437c0,1.066666 0,1.777786 0,2.488892c0,1.066666 0,1.777786 0,2.844452c0,0.711105 0.282501,1.965332 -0.393478,2.628738c-0.583862,0.573013 -1.35228,0.989288 -1.384293,1.993484c-0.022659,0.710739 0,1.777771 0,2.488876c0,1.066681 0.282486,1.965347 -0.393494,2.628754c-0.583862,0.572998 -1.352264,0.989288 -1.384293,1.993469c-0.022659,0.710754 0.056015,1.781494 -0.018967,2.488892c-0.076248,0.719376 -0.660477,1.564178 -1.131851,2.311111c-0.537933,0.852417 -0.617462,1.599884 -0.626953,2.664307c-0.007034,0.789597 -0.481659,1.157364 -1.150818,1.526215c-0.768723,0.423737 -0.626968,1.676147 -0.626968,2.387253c0,1.066681 0.137634,1.831345 -0.296295,2.844452c-0.24707,0.576843 -1.056381,1.163452 -1.327408,2.130966c-0.213333,0.761566 0.619522,1.392578 1.623703,1.424591c0.888443,0.02832 1.777786,0 2.666672,0c0.888885,0 1.777771,0 2.666672,0c0.888885,0 2.59259,0.814819 2.59259,0c0,-0.094223 0.445633,0 1.496292,0c0.711105,0 1.777786,0 2.488892,0c1.05867,0 1.803848,0 2.818375,0c0.745178,0 1.803848,0 2.514954,0c1.066666,0 1.777786,0 2.844452,0c0.711105,0 1.777771,0 2.488892,0c1.066666,0 1.777771,0 2.844437,0c0.711105,0 1.602371,0 2.375107,0c1.218674,0 1.815414,0 2.799408,0c0.694534,0 1.758835,0 2.469925,0c1.066681,0 1.777771,0 2.843567,0c1.010651,0 2.077332,0.248016 2.077332,0c0,-1.009796 -1.723022,-0.065308 -2.785187,0.002365c-0.79425,0.050613 -1.064392,1.036774 -1.818085,1.559113c-0.628601,0.435638 -1.352264,-0.557281 -1.384277,-1.561478c-0.022644,-0.710739 0,-1.777786 0,-2.488892c0,-1.066666 0,-1.796738 0,-2.640594c0,-1.06192 0,-1.652145 0,-2.497482c0,-1.152878 0.013733,-2.037125 0,-3.039703c-0.009491,-0.692337 -0.531921,-1.373749 -1.150818,-1.973038c-0.679794,-0.658249 -0.59613,-1.62529 -0.720596,-2.207993c-0.241089,-1.128632 -0.684891,-1.815964 -1.158813,-2.490372c-0.707932,-1.007401 -1.068802,-1.590759 -1.377197,-2.217484c-0.445206,-0.904739 -0.783813,-1.727844 -0.888885,-2.629623c-0.127792,-1.096909 -0.008163,-1.815216 -0.037323,-2.881195c-0.018463,-0.67511 -0.664902,-1.252304 -1.272598,-1.901337c-0.544846,-0.581894 -0.482788,-1.554367 -0.598526,-2.203842c-0.252274,-1.415588 -0.526428,-2.123611 -0.832291,-2.828445c-0.311493,-0.717819 -0.854782,-1.776337 -1.205032,-2.486526c-0.341827,-0.693115 -0.71965,-1.334702 -1.128296,-2.550507c-0.245682,-0.730927 -0.307312,-1.47966 -0.59259,-2.666672c-0.186508,-0.776016 -0.325485,-1.188278 -0.592606,-2.037033c-0.256943,-0.816406 -0.549438,-2.12236 -0.982513,-2.781342c-0.52832,-0.803925 -1.05719,-1.174805 -1.574524,-2.225479l0.044449,-0.745178" id="svg_7" stroke-width="5" stroke="#000000" fill="none"/> <path d="m212.525238,244.686844c2.488892,0 3.199997,0 4.285629,0c0.843857,0 1.905777,0 2.496002,0c0.845337,0 1.928009,0 2.996155,0c0.628143,0 1.398514,0 2.23999,0c0.841492,0 1.950516,0 2.806519,0c0.967117,0 2.036148,0 2.642975,0c0.927994,0 2.053146,0.048584 2.735397,-0.018951c0.780258,-0.07724 1.628174,-0.660492 2.375107,-1.131851c0.852432,-0.537949 1.599884,-0.617477 2.664307,-0.626968c0.789597,-0.007034 1.818375,0 2.510223,0c1.047699,0 1.758804,0 2.82547,0c0.711121,0 1.777786,0 2.488892,0c1.069046,0 1.841782,0 2.785187,0c0.863998,0 1.481491,0 2.398819,0c1.064301,0 1.908142,0 2.993774,0c0.711121,0 1.775406,0 2.565033,0c1.028748,0 1.720612,0 2.77066,0c0.772766,0 1.716156,0 2.588165,0c0.646515,0 1.678528,0 2.742523,0c0.7034,0 1.71405,0 2.337463,0c1.066681,0 1.910522,0 2.998535,0c0.772736,0 1.716125,0 2.572144,0c0.872009,0 2.067078,-0.233276 2.403259,0.393784c0.405731,0.75676 0,1.739548 0,2.628433c0,0.888885 0,1.777786 0,2.666672c0,0.888885 0,1.777771 0,2.666672c0,0.888885 0,1.777771 0,2.664291c0,0.917328 0,1.818375 0,2.677032c0,0.88089 0,1.769775 0,2.658661c0,0.888885 0.00119,1.777802 0,2.666687c-0.00119,0.886505 -0.036926,1.757019 -0.756165,2.266052c-0.748901,0.53006 -1.003113,1.366669 -1.815704,1.777802c-0.719177,0.363861 -1.845581,0.546478 -2.450958,0.801178c-0.622528,0.261932 -1.787811,0.740997 -2.519989,0.928009c-0.800537,0.204468 -1.670715,0.65213 -2.476746,1.115234c-0.910004,0.522827 -1.503448,0.644257 -2.424896,0.719116c-0.914978,0.074341 -1.981628,0.037048 -2.629608,0.037048c-1.103424,0 -1.928589,0 -2.797333,0c-0.832306,0 -1.861938,0 -2.573044,0c-1.067261,0 -1.851852,0 -2.614517,0c-1.017197,0 -1.847412,0 -2.755859,0c-0.470215,0 -1.416,0 -2.76889,0c-0.81778,0 -1.564438,0 -2.551102,0c-1.069046,0 -1.717041,0 -2.82045,0c-0.82518,0 -1.679306,-0.117096 -2.243256,-0.634979c-0.69368,-0.636993 -1.419052,-1.163055 -2.303116,-1.676147c-0.638138,-0.370361 -1.32814,-0.711975 -2.387253,-1.244446c-0.708435,-0.356171 -1.408295,-0.701813 -2.069336,-1.06665c-0.628326,-0.346802 -1.684952,-1.071045 -2.338074,-1.562958c-0.563644,-0.42453 -1.66449,-0.799469 -2.34816,-1.075256c-0.939362,-0.378937 -1.42691,-0.931519 -2.133331,-1.628448c-0.715897,-0.706299 -1.244446,-1.244446 -1.955551,-1.955566c-0.533325,-0.533325 -1.05249,-1.081116 -1.955551,-1.953186c-0.525223,-0.507202 -1.064987,-0.921173 -2.11438,-1.379547c-0.788071,-0.344223 -1.010849,-1.195084 -1.720581,-1.737198c-0.698715,-0.533707 -1.503815,-1.091599 -1.853928,-1.597916c-0.541809,-0.783554 -1.260864,-1.584305 -1.918518,-2.006226c-0.798203,-0.512085 -0.939026,-1.331787 -1.430817,-2.170364c-0.332474,-0.566895 -0.976593,-1.422226 -1.272888,-2.274078l-0.504898,-0.776596l-0.64592,-0.242966l-0.552887,-0.795258" id="svg_8" stroke-width="5" stroke="#000000" fill="none"/> <path d="m224.969681,287.353516c0,2.46994 0,3.461914 0,4.330658c0,0.649475 0,1.713776 0,2.424896c0,1.104584 0,1.803253 0,2.725922c0,0.775116 0,1.64978 0,2.581329c0,0.945801 -0.007538,1.86319 0.00238,2.721191c0.00943,0.815521 0.031036,1.620483 0.149323,2.432007c0.192322,1.31955 0.475693,2.271271 0.604446,2.778076c0.133194,0.524323 0.405472,1.624481 0.516739,2.204437c0.231125,1.204803 0.359283,2.478943 0.403259,3.123566c0.043671,0.640198 0.073029,1.270325 0.093628,2.46991c0.009537,0.555206 0.008011,1.960022 0.008011,2.949341l0,0.895996l0,0.880005" id="svg_10" stroke-linecap="null" stroke-linejoin="null" stroke-dasharray="null" stroke-width="5" stroke="#000000" fill="none"/> <path d="m274.747467,289.131287c0.00238,2.287415 0.058258,3.14563 0.393463,4.127106c0.207092,0.606415 0.542572,1.226959 0.879425,2.275269c0.337708,1.050964 0.413239,1.802185 0.578949,2.597626c0.091278,0.438141 0.344604,1.424255 0.814819,2.555573c0.273193,0.657349 0.6297,1.353973 1.024017,2.106659c0.425415,0.812042 0.901001,1.671631 1.40799,2.58667c0.537109,0.969421 1.115021,1.985443 2.308746,4.195557c0.635803,1.177155 1.275452,2.399872 1.922668,3.650665c0.654144,1.26413 1.300934,2.533813 1.93866,3.794647c0.626251,1.238129 1.230835,2.443573 2.360901,4.70282c0.515533,1.03067 0.994446,1.988098 1.431976,2.872009c0.399109,0.806244 0.7565,1.533813 1.064026,2.18399c0.267456,0.565491 0.518768,1.036255 0.763245,1.75882c0.074463,0.220093 0.10675,0.392395 0.042664,0.440002c-0.061432,0.045654 -0.193817,-0.027618 -0.341339,-0.119995c-0.186493,-0.116791 -0.387451,-0.281372 -0.886505,-0.616302c-0.272095,-0.182617 -0.561615,-0.364319 -1.189941,-0.711121c-0.661041,-0.364838 -1.361481,-0.709351 -2.425171,-1.24472c-0.719421,-0.362091 -1.464722,-0.737396 -2.23468,-1.167999c-1.271057,-0.710846 -1.719177,-0.995209 -2.658661,-1.600006c-0.487427,-0.313782 -0.980225,-0.636353 -1.946075,-1.328583c-0.481262,-0.34491 -1.397339,-1.058685 -2.250671,-1.767426l-0.399994,-0.349915l-0.746674,-0.682068l-0.675537,-0.646515" id="svg_11" stroke-linecap="null" stroke-linejoin="null" stroke-dasharray="null" stroke-width="5" stroke="#000000" fill="none"/> <path d="m203.636353,310.46463c-0.775116,0.775116 -1.414719,1.434631 -2.138077,2.135712c-0.594666,0.576355 -1.075043,1.004059 -2.010071,1.716125c-0.767563,0.584534 -1.214172,0.883331 -1.668747,1.227875c-0.984299,0.746063 -1.497757,1.164917 -2.010071,1.626068c-1.083069,0.974945 -1.600296,1.542664 -2.126221,2.12384c-0.533173,0.589203 -1.050461,1.196716 -1.565338,1.800018c-0.506729,0.59375 -0.989029,1.182098 -1.485321,1.720001c-1.323593,1.434509 -1.755661,1.798828 -2.557632,2.391693c-0.694748,0.51358 -1.382401,0.851501 -2.420151,1.614227c-0.457886,0.336517 -1.049057,0.87262 -1.927109,1.777771c-0.508377,0.524078 -1.087585,1.438385 -1.379562,2.11438c-0.386322,0.89444 -1.175842,1.034149 -2.000595,1.479095c-0.762741,0.411499 -1.207642,0.978424 -2.330063,1.339264c-0.601135,0.193237 -1.619598,0.437683 -2.533936,0.801178c-0.666321,0.264893 -1.348022,0.56778 -2.424881,0.805939c-0.704498,0.155792 -1.782501,0.232544 -2.488892,0.365021c-1.076141,0.201813 -1.79509,0.482178 -2.562958,0.776611c-0.841751,0.322754 -1.287994,0.522614 -2.845932,1.029633c-0.573486,0.186646 -1.170364,0.35553 -2.376297,0.71109l-0.59407,0.177795l-0.576294,0.177765" id="svg_12" stroke-linecap="null" stroke-linejoin="null" stroke-dasharray="null" stroke-width="5" stroke="#000000" fill="none"/> <path d="m278.303009,308.686859c2.640594,0 3.59259,0 4.274689,0c1.058655,0 2.14975,-0.002136 2.94754,0.037018c0.436768,0.021423 1.412506,0.100922 2.555573,0.259277c0.651184,0.09021 1.361359,0.211365 2.138641,0.354645c0.853638,0.157349 1.788025,0.345398 2.810669,0.562683c1.12027,0.238037 2.343903,0.506012 5.124756,1.156738c1.571472,0.367737 3.24765,0.774048 5.013336,1.202667c1.837311,0.446014 3.727295,0.908813 5.65332,1.378662c1.943604,0.474152 3.885895,0.952179 7.703705,1.863129c1.838379,0.438629 3.619385,0.854156 5.335999,1.253326c1.646942,0.382996 3.219818,0.745636 4.712006,1.093323c1.407318,0.327911 2.726501,0.62796 5.06311,1.208893c1.015839,0.252563 1.930206,0.495026 2.752014,0.720001c0.737854,0.201996 1.39624,0.390808 1.983978,0.559998c0.523956,0.150848 0.987671,0.296509 1.782532,0.497772c0.337402,0.085419 0.646301,0.149323 0.930664,0.194672c0.263336,0.042023 0.513519,0.068054 0.754669,0.082672c0.237152,0.014374 0.47644,0.017487 0.981323,0.018951c0.274963,0.000793 0.564209,-0.000183 0.864014,0.007996c0.307037,0.008362 0.617981,0.02356 0.927979,0.056c0.307587,0.032196 0.615601,0.057037 1.17099,0.2323c0.263611,0.083191 0.50766,0.205872 0.743988,0.338684c0.240265,0.13504 0.477783,0.291626 0.727997,0.450653c0.26355,0.167511 0.538147,0.35675 1.194672,0.692139c0.367157,0.187561 0.770874,0.35788 1.194672,0.52536c0.434265,0.1716 0.879395,0.326508 1.322662,0.477325l0.436157,0.140137l0.421906,0.127716" id="svg_13" stroke-linecap="null" stroke-linejoin="null" stroke-dasharray="null" stroke-width="5" stroke="#000000" fill="none"/> <path d="m200.080795,308.686859c2.311111,2.311096 2.844452,2.844421 3.555557,3.555542c0.549332,0.549347 1.194656,1.194672 1.725632,1.725647c0.64473,0.644714 1.423431,1.423401 1.863403,1.855408c0.467804,0.45932 0.964264,0.93985 1.490662,1.434662c0.546707,0.513885 1.110992,1.045166 2.327713,2.095398c0.625916,0.540283 1.280319,1.073395 1.946671,1.623993c0.684769,0.565826 1.390686,1.149109 2.106659,1.768005c0.741974,0.641388 1.516937,1.305542 3.057785,2.830231c0.821381,0.812744 1.63768,1.693054 2.472,2.608002c0.855896,0.938599 1.713837,1.909943 2.584,2.895996c0.878571,0.995575 1.749725,2.006165 3.536591,3.977478c0.882065,0.973114 1.765411,1.915649 2.634659,2.829346c0.842255,0.885315 1.660004,1.727783 2.442673,2.52533c0.736847,0.750824 1.426178,1.444305 2.626373,2.645325c0.498642,0.498993 0.932159,0.933319 1.311996,1.303986c0.326797,0.318909 0.609985,0.589386 0.863998,0.808014c0.218323,0.187897 0.409515,0.356232 0.786957,0.554657c0.172424,0.090668 0.351746,0.149872 0.525345,0.194672c0.165573,0.042725 0.326172,0.067719 0.477325,0.082672c0.139893,0.013855 1.071945,0.120789 1.955856,0.412445c0.708099,0.233643 1.52121,0.50116 2.373337,0.757324c0.415451,0.124878 1.826233,0.51767 2.59407,0.589935c0.959442,0.090302 1.851852,0.037048 2.740738,0.037048c0.888885,0 1.777786,0 2.666672,0l0.888885,0l0.888885,0" id="svg_14" stroke-linecap="null" stroke-linejoin="null" stroke-dasharray="null" stroke-width="5" stroke="#000000" fill="none"/> <path d="m294.303009,315.797974c-1.740723,0.925903 -1.777771,1.955536 -1.777771,2.666656c0,1.06665 0,1.777771 0,2.844452c0,0.71109 0.095459,1.789246 -0.037048,2.488892c-0.20929,1.105072 -0.725708,1.611298 -1.215393,2.133331c-0.85733,0.91394 -1.434113,1.46637 -1.668152,1.981018c-0.563538,1.239136 -0.543976,2.125061 -0.589935,2.572449c-0.095612,0.931 -0.157959,1.883942 -0.341309,2.794678c-0.174286,0.865692 -0.468323,1.670715 -0.725342,2.47467c-0.259827,0.812714 -0.547882,2.124908 -0.606812,2.59079c-0.119415,0.944 -0.151917,1.883453 -0.298676,2.752014c-0.189941,1.124084 -0.424377,1.741333 -0.936279,2.396454c-0.782654,1.001617 -1.403259,1.460144 -1.936615,1.993469c-0.711121,0.71109 -1.244812,1.24408 -1.777771,1.777771c-0.889496,0.890686 -1.4505,1.436981 -1.955566,2.107269c-0.566071,0.751221 -0.866547,1.370209 -1.422211,2.228149c-0.342041,0.528107 -1.227386,1.412659 -1.955566,1.515259c-1.056488,0.148865 -1.813934,0.045746 -2.669037,0.520874c-0.812592,0.451508 -1.707916,1.013702 -2.282654,1.121185c-0.942535,0.17627 -1.634064,0.143707 -2.692749,0.151703c-1.06665,0.008026 -1.781403,0.005157 -2.488892,0.101654c-1.07431,0.146515 -2.125336,0.52533 -2.807404,0.787262l-0.646515,0.261902" id="svg_15" stroke-linecap="null" stroke-linejoin="null" stroke-dasharray="null" stroke-width="5" stroke="#000000" fill="none"/> <path d="m246.303024,354.909058c-2.303116,2.311127 -2.895874,2.781525 -3.340149,3.733948c-0.348419,0.746918 -0.485641,1.562561 -1.00296,2.565338c-0.214401,0.415619 -0.763733,1.332703 -1.064301,1.848877c-0.320541,0.550476 -0.660431,1.133759 -0.99733,1.76001c-0.722305,1.342651 -1.06723,2.076935 -1.41748,2.839691c-0.361038,0.786255 -0.714279,1.601044 -1.066681,2.437347c-0.358765,0.851379 -0.712646,1.719086 -1.066666,2.597321c-0.714218,1.77179 -1.067947,2.660614 -1.41748,3.546082c-0.346146,0.876892 -0.682922,1.742737 -0.99733,2.597321c-0.306534,0.833191 -0.596542,1.644012 -0.837326,2.437347c-0.449356,1.48053 -0.594864,2.179291 -0.70874,2.837311c-0.106369,0.614685 -0.158829,1.192322 -0.194672,1.725342l-0.009186,0.488586l0.05452,0.836761" id="svg_16" stroke-linecap="null" stroke-linejoin="null" stroke-dasharray="null" stroke-width="5" stroke="#000000" fill="none"/> <path d="m256.969696,353.131287c0.888885,1.777771 1.582428,2.301636 1.871399,3.030243c0.358002,0.902618 0.923096,1.653412 1.861938,2.087402c0.6745,0.311798 1.634521,0.464294 2.311096,0.990814c0.56485,0.439575 1.244446,1.18045 1.955566,1.891541c0.533325,0.533325 1.211914,1.279358 1.777771,1.740753c0.844208,0.688385 1.911713,0.712372 2.450958,1.319397c0.543304,0.611603 1.165863,1.094147 1.777771,1.777771c0.545624,0.609558 1.165833,1.094177 1.777771,1.777802c0.545624,0.609528 0.971863,1.339233 1.777496,1.778076l0.197052,0.691833l0.018951,1.045349l0,0.789612" id="svg_18" stroke-linecap="null" stroke-linejoin="null" stroke-dasharray="null" stroke-width="5" stroke="#000000" fill="none"/> </g> </svg>