<svg width="640" height="480" xmlns="http://www.w3.org/2000/svg" xmlns:svg="http://www.w3.org/2000/svg"> <!-- Created with SVG-edit - http://svg-edit.googlecode.com/ --> <g> <title>Layer 1</title> <path d="m214.65021,399.71021c-3.7027,-4.6347 -3.96765,-5.46664 -4.21399,-6.23318c-0.32237,-1.00311 -0.91089,-1.73309 -1.5051,-1.97287c-1.03648,-0.41821 -1.50587,-0.34622 -2.70889,-0.92426c-0.88512,-0.42529 -1.27618,-0.79416 -2.19479,-1.40466c-0.48172,-0.32013 -0.94513,-0.74396 -2.72153,-1.40466c-0.63739,-0.23706 -1.34193,-0.35867 -2.06697,-0.49936c-0.75267,-0.14606 -1.5356,-0.27679 -2.33244,-0.46143c-0.82025,-0.19006 -1.68721,-0.36298 -3.32625,-1.14621c-0.86639,-0.414 -1.69305,-0.97662 -2.50943,-1.58658c-0.83049,-0.62051 -1.62459,-1.30185 -2.39565,-2.00375c-0.76143,-0.69315 -1.48091,-1.39581 -2.82057,-2.73065c-0.61249,-0.61029 -1.18359,-1.18198 -1.70667,-1.72565c-0.48807,-0.50729 -0.93562,-0.98868 -1.32741,-1.46014c-0.36629,-0.44077 -0.72246,-0.85519 -1.17992,-1.73056c-0.21429,-0.41006 -0.36409,-0.83832 -0.59558,-1.68558c-0.22916,-0.83868 -0.22466,-1.30878 -0.80908,-2.52841c-0.42224,-0.88116 -0.78107,-1.2662 -1.40466,-2.10699c-0.31328,-0.42239 -1.00648,-1.21661 -1.595,-2.52838c-0.18344,-0.40887 -0.3938,-1.26062 -0.46704,-2.10699c-0.07274,-0.84058 -0.04495,-2.1077 -0.04495,-2.96875c0,-0.91165 0,-1.39694 0,-2.44763c0,-1.18555 0,-1.83731 0,-2.5228c0,-0.71075 0,-2.17441 0,-2.91046c0,-0.7276 0,-1.43835 0,-2.7756c0,-0.61172 0,-1.72562 0,-2.72153c0,-0.46426 0,-1.34637 0,-2.61618c0,-0.8428 0,-1.68561 0,-2.52841c0,-1.26419 0,-2.10699 0,-2.52838c0,-0.8428 0,-1.68561 0,-2.9498c0,-0.8428 0,-1.68561 0,-2.52841c0,-0.84277 0,-2.1077 0,-2.534c0,-0.88214 0,-1.8317 0,-2.34229c0,-1.72562 0,-2.37808 0,-3.06848c0,-0.72412 0,-1.47772 0,-2.25659c0,-0.79996 0,-1.61676 0,-2.44623c0,-1.67999 0,-2.52347 0,-3.37119c0,-0.85614 0,-1.72495 0,-2.61057c0,-0.90671 0,-1.83871 0,-2.8002c0,-2.02835 0,-3.1008 0,-4.20276c0,-1.1188 0,-2.24185 0,-3.35645c0,-1.09354 0,-2.15335 0,-3.16681c0,-1.83731 -0.0042,-2.63943 0.00562,-3.36557c0.00891,-0.65887 0.02629,-1.25977 0.08217,-1.8078c0.05185,-0.50848 0.12585,-0.98859 0.2718,-1.42856c0.28973,-0.87344 0.56618,-1.28049 0.83719,-1.70245c0.28221,-0.43942 0.60449,-0.87622 0.91022,-1.34637c0.63977,-0.98386 0.97614,-1.51059 1.40466,-2.72153c0.22658,-0.64029 0.36722,-1.33414 0.59558,-2.7756c0.11638,-0.73459 0.20381,-1.47369 0.32869,-2.19971c0.12254,-0.71249 0.44981,-2.06039 0.71075,-2.65973c0.49652,-1.14044 0.85416,-1.62811 1.1743,-2.10983c0.61049,-0.91861 1.01672,-1.29437 1.5957,-2.61618c0.35753,-0.81622 0.49191,-1.69092 0.73323,-2.52838c0.12228,-0.42435 0.69833,-1.69443 1.26419,-2.54736c0.29971,-0.45178 0.65387,-0.89178 1.24173,-1.90753c0.30692,-0.5303 0.81409,-1.71753 0.97414,-2.37741c0.33525,-1.3822 0.37079,-2.12302 0.42421,-2.85989c0.05331,-0.73535 0.07401,-1.46356 0.08217,-2.17441c0.01537,-1.33716 -0.00859,-2.51907 0.04355,-3.04391c0.09265,-0.93265 0.31996,-1.85065 1.36673,-2.50732c0.42252,-0.26508 1.5666,-0.48587 2.18004,-0.59558c0.62831,-0.11237 1.88486,-0.27835 2.44974,-0.46072c1.41516,-0.45688 1.99718,-1.1192 2.21797,-1.84081c0.23001,-0.75171 0.17558,-2.01921 0.17558,-2.862c0,-0.8428 0,-1.68559 0,-2.10699c0,-1.26421 0,-2.11824 0,-3.0397c0,-0.50708 0,-1.6561 0,-2.31488c0,-1.52827 0,-2.4104 0,-3.35995c0,-1.00012 0,-2.03395 0,-3.08464c0,-1.05069 0,-2.08452 0,-3.08464c0,-1.83168 0,-2.63374 0,-3.35995c0,-0.6588 0,-1.25859 0,-1.8078c0,-0.5071 0,-0.98047 0,-1.42854c0,-1.27544 0,-2.11824 0,-2.96104c0,-0.84279 0,-1.26419 0,-2.5284c0,-0.84279 0,-1.68559 0,-2.52838c0,-1.26421 0,-2.10699 0,-2.9498c0,-0.8428 0.00278,-1.68559 0,-2.5284c-0.00282,-0.85405 -0.03275,-1.77667 -0.0878,-2.28258c-0.12538,-1.15237 -0.24538,-1.81396 -0.61453,-3.33607c-0.21504,-0.88669 -0.49286,-1.83777 -0.78381,-2.85077c-0.30455,-1.06029 -0.62584,-2.15196 -0.9355,-3.26794c-0.31123,-1.12166 -0.64058,-2.2321 -1.09003,-4.41628c-0.21159,-1.02827 -0.35526,-2.02122 -0.46143,-2.97086c-0.10115,-0.90475 -0.16083,-1.76952 -0.19595,-2.59161c-0.03331,-0.77931 -0.04213,-1.51701 -0.04495,-2.86551c-0.00128,-0.61172 0,-1.18553 0,-1.72563c0,-0.51059 0,-0.99591 0,-1.46014c0,-0.44739 0.0014,-0.88213 0,-1.73055c-0.0007,-0.42281 -0.01665,-1.30495 -0.08989,-1.7755c-0.16573,-1.06485 -0.36713,-1.66556 -0.62929,-2.31488c-0.62709,-1.55315 -1.13605,-2.4166 -1.67998,-3.35995c-0.58055,-1.00685 -1.2231,-2.03873 -1.90262,-3.08464c-0.68579,-1.05554 -1.38503,-2.09145 -2.09225,-3.08466c-1.31354,-1.8447 -1.93683,-2.63895 -2.51715,-3.35995c-0.53413,-0.66362 -1.04587,-1.26288 -1.536,-1.8078c-0.45976,-0.51115 -0.909,-0.98303 -1.34637,-1.42854c-0.84335,-0.85904 -1.2677,-1.27689 -1.69122,-1.69121c-0.41931,-0.4102 -0.83746,-0.80948 -1.26419,-1.18202c-0.41629,-0.36343 -0.82999,-0.7084 -1.26421,-0.9924c-0.82013,-0.53641 -1.26105,-0.70445 -1.69682,-0.85403c-0.91272,-0.31331 -1.43259,-0.42365 -1.97777,-0.60681c-1.26865,-0.42624 -2.79424,-1.13239 -3.66829,-1.60764c-0.95291,-0.51813 -1.93898,-1.11334 -2.93925,-1.76357c-1.01567,-0.66025 -2.00543,-1.35098 -2.93925,-2.06696c-0.89197,-0.68388 -2.39558,-2.00647 -2.94208,-2.64218c-0.48529,-0.56451 -0.8575,-1.13763 -1.12512,-1.71298c-0.26036,-0.55972 -0.43614,-1.16071 -0.59418,-1.78885c-0.16849,-0.66974 -0.51135,-2.20787 -0.74869,-3.08815c-0.25656,-0.95161 -0.55188,-1.95013 -0.85965,-2.98351c-0.31306,-1.05116 -0.63257,-2.10042 -0.93552,-3.13521c-0.29253,-0.99919 -0.79251,-2.82977 -0.97484,-3.63457c-0.16524,-0.72937 -0.2905,-1.40305 -0.40454,-2.02904c-0.10783,-0.59187 -0.20595,-1.16466 -0.32869,-1.72563c-0.12439,-0.5685 -0.4713,-1.76683 -0.71075,-2.41531c-0.25447,-0.68911 -0.55141,-1.3971 -0.85966,-2.12386c-0.31258,-0.73692 -0.63356,-1.4703 -0.9355,-2.1997c-0.29352,-0.70905 -0.79669,-2.04414 -0.97414,-2.65974c-0.16443,-0.57047 -0.28185,-1.11214 -0.36029,-1.62449c-0.0741,-0.48386 -0.11287,-0.94924 -0.13274,-1.39694c-0.01929,-0.43452 -0.01897,-1.28316 -0.01897,-2.12595c0,-0.8428 0,-1.6856 0,-2.5284c0,-0.8428 0,-1.6856 0,-2.5284c0,-0.8428 0,-1.6856 0,-2.94979c0,-0.8428 0,-1.6856 0,-2.5284c0,-1.2642 -0.03828,-1.68668 0.01897,-2.50944c0.07907,-1.13647 0.16786,-1.98524 1.18343,-2.60916c0.56923,-0.34971 1.37029,-0.33228 2.17442,-0.35397c1.25813,-0.03394 2.10576,0.01672 2.94417,-0.09341c0.8493,-0.11155 1.31252,-0.17539 2.5284,-0.84491c0.88322,-0.48634 1.26013,-0.86513 2.10699,-1.48895c0.4194,-0.30894 1.66779,-1.13759 2.5284,-1.43275c0.41412,-0.14203 1.26237,-0.29985 2.10699,-0.34063c1.26286,-0.06097 2.10699,-0.01897 2.9498,-0.01897c0.84279,0 1.68559,0 2.94978,0c0.8428,0 1.26421,0 2.10701,0c0.84279,0 2.10699,0 2.94978,0c0.8428,0 1.68559,0 2.9498,0c0.8428,0 1.68559,0 2.10699,0c0.8428,0 2.10725,0.01609 2.95541,-0.00562c0.88271,-0.02259 1.83374,-0.13504 2.34227,-0.23528c0.54254,-0.10695 2.37993,-0.68533 3.06288,-0.95587c0.71346,-0.28263 1.43837,-0.59558 2.17441,-0.91022c0.73605,-0.31464 1.45906,-0.63244 2.17442,-0.91022c1.32904,-0.51609 1.94066,-0.72156 3.06287,-0.95587c0.5074,-0.10594 1.45955,-0.21342 2.34229,-0.23528c1.27155,-0.03149 1.70895,0.00645 2.66885,-0.05057c0.55063,-0.03271 1.8539,-0.18443 2.62953,-0.31464c1.8759,-0.31494 2.98438,-0.56916 4.19714,-0.83718c1.29041,-0.28518 2.62953,-0.59557 3.99486,-0.91022c1.36534,-0.31464 2.70377,-0.62815 3.99487,-0.91022c2.32327,-0.50757 3.31702,-0.69369 4.19713,-0.83718c0.77625,-0.12656 1.4657,-0.2159 2.07961,-0.2718c0.54932,-0.05002 1.04916,-0.074 1.51071,-0.08218c0.85954,-0.01524 1.28105,-0.00562 1.70245,-0.00562c0.4214,0 0.8428,0 1.26421,0c0.4214,0 0.84279,0 1.26419,0c0.8428,0 1.26421,0 2.10699,0c0.8428,0 1.68561,0 2.9498,0c0.8428,0 1.68559,0 2.5284,0c0.84279,0 1.68559,0 2.5284,0c0.84279,0 1.68559,0 2.5284,0c1.26419,0 2.10699,0 2.94978,0c0.8428,0 2.10699,0 2.5284,0c0.8428,0 1.68561,0 2.5284,0c1.26421,0 2.10699,0 2.9498,0c0.84279,0 1.68559,0 2.94978,0c0.42142,0 1.26422,0 2.10699,0c0.8428,0 2.10699,0 2.9498,0c0.8428,0 1.68561,0 2.9498,0c0.8428,0 1.26419,0 2.10699,0c0.8428,0 2.10812,0.03358 2.9498,-0.01124c0.84528,-0.04501 1.70886,-0.24498 2.10699,-0.47057c1.36179,-0.77162 1.69736,-1.37444 2.10699,-1.91174c0.43405,-0.56931 0.84082,-1.19248 1.26419,-1.82045c0.8389,-1.24436 1.2012,-1.87781 2.10699,-2.80933c0.39627,-0.40751 1.26288,-0.99171 2.19479,-1.22908c0.47757,-0.12164 1.53598,-0.16869 2.72153,-0.17558c0.65247,-0.00379 1.34338,0.00035 2.06699,-0.03793c0.75433,-0.0399 1.53641,-0.11508 2.33243,-0.26548c0.82153,-0.15521 1.68802,-0.32128 3.32626,-1.10126c0.86697,-0.41277 1.69302,-0.9766 2.50943,-1.58657c0.83051,-0.62051 1.62457,-1.30186 2.39563,-2.00375c0.76141,-0.69314 1.47977,-1.39699 2.82059,-2.73067c0.61337,-0.61008 1.1843,-1.1872 1.74457,-1.70667c0.53021,-0.49158 1.05298,-0.9431 1.5929,-1.32741c0.5256,-0.37412 1.06265,-0.74435 2.28119,-1.17992c0.63956,-0.22861 1.33551,-0.35785 2.048,-0.48039c0.72601,-0.12487 1.46436,-0.21717 2.19968,-0.32869c0.72836,-0.11047 1.45877,-0.17666 2.77563,-0.59558c0.62314,-0.19823 1.21561,-0.45278 2.23621,-1.13497c0.50113,-0.33497 0.96579,-0.71857 1.8317,-1.53951c0.86499,-0.82006 1.27795,-1.25002 2.09366,-2.10138c0.39978,-0.41726 0.80081,-0.82153 1.46365,-1.6856c0.3158,-0.41167 1.01794,-1.67682 1.28317,-2.50943c0.24438,-0.76717 0.19339,-1.70367 1.15533,-2.45676c0.7662,-0.59983 1.63925,-0.48492 2.44339,-0.50638c1.25888,-0.0336 1.68561,-0.00562 2.56775,-0.00562c0.94955,0 1.46014,0 3.18576,0c0.65176,0 1.33725,0 2.048,0c0.72763,0 1.46365,0 2.19971,0c1.43839,0 2.7756,0 3.38736,0c1.11389,0 1.62448,0 2.57404,0c0.88214,0 2.15247,0.01612 2.99475,-0.01896c0.42181,-0.01757 1.28683,-0.05628 2.10699,-0.34063c1.31146,-0.45468 1.69345,-0.82621 2.52838,-1.43276c0.42551,-0.3091 1.2157,-1.01976 2.52841,-1.71931c0.40805,-0.21745 1.25769,-0.50299 2.10699,-0.61454c0.83838,-0.11012 2.10699,-0.08779 2.94977,-0.08779c0.8428,0 1.26422,0 2.10703,0c1.26419,0 2.10699,0 2.94977,0c0.8428,0 1.68561,0 2.9498,0c0.8428,0 1.68561,0 2.10699,0c0.8428,0 2.1077,0 2.96878,0c0.91162,0 1.39691,0 2.4476,0c1.18555,0 1.83731,0 2.5228,0c1.43835,0 2.17441,0 2.91046,0c0.7276,0 1.43839,-0.0095 2.7756,0c1.18564,0.00843 1.7493,-0.03529 2.72153,0.26337c0.48016,0.1475 1.42139,0.75785 2.19479,1.84362c0.47165,0.66214 0.86426,1.5035 1.32111,2.42726c0.50449,1.02008 1.03568,2.14496 1.66241,3.33748c0.67441,1.2832 1.38196,2.67551 3.33746,5.47257c1.06668,1.52573 2.30746,3.02262 3.59665,4.53847c1.30096,1.52968 2.63589,3.01221 3.93799,4.46262c1.25021,1.39261 2.4798,2.66005 4.40503,5.04556c0.78552,0.97334 1.39859,1.85479 1.8457,2.64849c0.38083,0.67601 0.63928,1.29447 0.78381,1.85205c0.12799,0.49374 0.16855,0.96057 0.17981,1.82044c0.00552,0.42207 0,0.84842 0,1.28316c0,0.44738 0,0.91162 0,1.39693c0,0.5106 0,1.05069 0,2.23623c0,0.65176 0,1.33723 0,2.048c0,0.72762 0,1.46366 0,2.19971c0,0.72762 0,1.43837 0,2.77561c0,0.61173 0,1.18554 0,1.72563c0,0.5106 0,0.9959 0,1.46014c0,0.44739 0,0.88213 0,1.73055c0,0.42139 0,0.8428 0,1.26419c0,0.4214 0,0.8428 0,1.2642c0,0.4214 0,0.8428 0,1.6856c0,0.4214 0,0.8428 0,1.2642c0,0.42139 0,0.8428 0,1.2642c0,0.42139 0,0.8428 0,1.68559c0,0.8428 0,1.6856 0,2.5284c0,0.8428 0,2.1084 0,2.98772c0,0.47337 0,1.52969 0,2.12947c0,0.65879 0,2.18707 0,3.06919c0,0.94955 0,1.94968 0,2.98351c0,1.05069 0,2.10138 0,3.13522c0,1.00011 0,2.8318 0,3.63387c0,0.72621 0,1.38499 0,1.98479c0,0.54922 0,1.0563 0,1.52968c0,1.30212 0,1.72353 0,2.56631c0,0.8428 0,1.68561 0,2.9498c0,0.8428 0,1.68559 0,2.5284c0,0.8428 0,1.68559 0,2.54526c0,0.96078 0,1.51071 0,2.12384c0,0.689 0,1.46648 0,3.33749c0,1.11249 0,2.32611 0,3.6156c0,1.34004 0,2.70538 0,4.07071c0,1.34006 0,2.62953 0,4.95566c0,0.9931 0,1.87663 0,2.66745c0,0.71498 0,1.37096 0,1.9848c0,0.58855 0,1.16867 0,2.37106c0,0.65176 0,1.33725 0,2.048c0,0.72762 0,1.46365 0,2.19971c0,0.72762 0,1.43837 0,2.77562c0,0.61172 0,1.18553 0,1.72562c0,0.5106 0,0.99591 0,1.46016c0,0.44739 0,0.88213 0,2.15335c0,0.87932 0,1.85977 0,2.409c0,0.59979 0,1.25858 0,2.78685c0,0.88283 0,1.8373 0,2.85077c0,1.05981 0,2.15335 0,3.26794c0,1.12303 0,2.24185 0,4.41626c0,1.03244 0,2.02272 0,2.97087c0,0.90601 0,1.76988 0,2.5916c0,0.77959 -0.00076,1.51704 0,2.86552c0.00037,0.61102 -0.00183,1.18016 0.01895,1.70667c0.01913,0.48492 0.05173,0.93018 0.13275,1.32741c0.07376,0.36168 0.49014,1.30646 1.35339,1.64134c0.65863,0.25551 1.46353,0.23141 2.70889,0.24091c0.84277,0.00642 1.68558,0 2.10699,0c0.8428,0 2.10699,0 2.9498,0c0.84277,0 1.68558,0 2.52838,0c1.26419,0 2.10699,0 2.9498,0c0.42139,0 1.26419,0 2.52838,0c0.8428,0 1.68561,0 2.52841,0c1.26419,0 2.10699,0 2.9498,0c0.84277,0 1.26419,0 2.52838,0c0.8428,0 1.68561,0 2.52841,0c0.84277,0 2.10699,0 2.94977,0c0.8428,0 1.68561,0 2.10699,0c1.26422,0 2.10699,0 2.9498,0c0.8428,0 2.10699,0 2.9498,0c0.8428,0 1.68561,0 2.52841,0c0.84277,0 1.68558,0 2.52838,0c0.8428,0 1.68561,0 2.9512,0c0.8793,0 1.35269,0 2.409,0c0.59979,0 1.25858,0 2.78687,0c0.88211,0 1.83167,0 2.83179,0c1.03384,0 2.08453,0 3.13522,0c1.03381,0 2.03394,0 3.86563,0c0.80206,0 1.52826,0 2.18704,0c0.59979,0 1.14902,0 1.6561,0c0.47339,0 1.77554,0.0043 2.1962,-0.0007c0.82471,-0.00983 2.02051,-0.01109 2.59091,-0.3589c1.01086,-0.61639 0.17279,-2.48506 1.20239,-2.409c0.54214,0.04005 0,1.54233 0,2.7686c0,0.84279 0,1.26419 0,2.10699c0,0.8428 0,2.10699 0,2.9498c0,0.84279 0,1.68559 0,2.5284c0,1.26419 0,2.10699 0,2.52838c0,0.8428 0,1.68561 0,2.9498c0,0.8428 0,1.68559 0,2.5284c0,1.26419 0,2.10699 0,2.5284c0,0.8428 0,1.68559 0,2.9498c0,0.8484 0,1.73055 0,2.6801c0,0.51059 0,1.05067 0,2.89009c0,0.70023 0,1.45102 0,2.25659c0,0.86456 0,1.79234 0,2.78755c0,1.06685 0.00198,3.4323 -0.0007,4.73512c-0.00284,1.36604 -0.00983,2.7744 -0.04425,4.20346c-0.03442,1.42947 -0.08923,2.83867 -0.19595,4.20346c-0.10196,1.30423 -0.42987,3.64243 -0.6918,4.62695c-0.2359,0.88663 -0.5343,1.66492 -0.85965,2.34509c-0.29736,0.62167 -0.62677,1.16461 -0.93549,1.66241c-0.28705,0.46286 -0.79831,1.31479 -0.97485,1.74249c-0.17163,0.41577 -0.2933,0.84174 -0.40454,1.26419c-0.11069,0.42038 -0.20578,0.845 -0.3287,1.26419c-0.12427,0.42377 -0.46506,1.27301 -0.71216,1.68561c-0.25824,0.43115 -0.57846,0.85284 -0.94815,1.26419c-0.38855,0.43231 -0.83426,0.85281 -1.32739,1.26419c-0.51801,0.43213 -1.7019,1.27167 -2.35843,1.68561c-0.68063,0.42917 -1.3952,0.8446 -2.12387,1.26419c-0.73499,0.42322 -1.47424,0.83908 -2.19971,1.26419c-0.71292,0.41776 -2.05365,1.25607 -2.66043,1.68561c-0.58429,0.4136 -1.13379,0.84073 -1.66873,1.26419c-0.52975,0.41937 -1.05316,0.84683 -1.5929,1.26422c-0.55026,0.42554 -2.39124,1.69339 -3.08182,2.10135c-0.70566,0.41684 -1.43411,0.81192 -2.17444,1.18204c-0.73187,0.36588 -1.45706,0.70569 -2.17441,0.9924c-1.32571,0.52988 -1.9462,0.7016 -2.52277,0.84842c-1.04599,0.26636 -1.55087,0.29996 -2.44763,0.5759c-1.30957,0.40295 -1.71338,0.69833 -2.56631,1.26419c-0.45178,0.29971 -1.38968,0.94797 -1.90753,1.24173c-0.53296,0.30234 -2.3736,0.99249 -3.06287,1.12656c-0.70737,0.1376 -1.43756,0.21835 -2.17444,0.27179c-0.73538,0.05331 -1.46356,0.07449 -2.17441,0.08218c-1.94888,0.02109 -2.5228,0.00562 -3.57349,0.00562c-0.48529,0 -1.39691,0 -2.68008,0c-0.84842,0 -1.73056,0 -2.19479,0c-0.99591,0 -1.53598,0 -3.37329,0c-0.68549,0 -1.39624,0 -2.12384,0c-0.73605,0 -1.47211,0 -2.19971,0c-0.71078,0 -2.65985,-0.00757 -3.23355,0.00562c-1.05115,0.02417 -1.55331,0.0014 -2.44763,0.23529c-1.31921,0.345 -1.71976,0.66931 -2.54736,1.24524c-0.85919,0.59793 -1.23975,0.97165 -2.10699,1.53107c-0.82111,0.52963 -1.67496,0.88632 -2.52838,1.04507c-0.83521,0.15536 -1.68561,0.1489 -2.9498,0.1517c-0.8428,0.00186 -1.26419,0 -2.10699,0c-0.8428,0 -2.10699,0 -2.9498,0c-0.8428,0 -1.68558,-0.00421 -2.9498,0c-0.84277,0.00281 -1.26859,-0.02234 -2.10699,0.0878c-0.84927,0.11157 -2.14597,0.55597 -2.93854,1.12582c-0.41742,0.30011 -1.13202,1.1394 -1.39343,1.66312c-0.27832,0.55756 -0.54086,1.21179 -0.58435,2.74191c-0.02512,0.88342 0.13416,1.8418 0.34134,2.85077c0.21869,1.06509 0.52252,2.15768 0.87228,3.26794c0.35522,1.12762 0.74088,2.25089 1.5957,4.41626c0.40961,1.0376 0.83725,2.02832 1.24524,2.98984c0.39548,0.93198 0.78217,1.83545 1.13147,2.72433c0.34018,0.86569 0.69028,1.70953 1.13495,3.41614c0.21768,0.83545 0.35663,1.67813 0.46146,2.50946c0.10281,0.81519 0.16107,1.61636 0.19592,2.39563c0.03369,0.7533 0.04214,1.47772 0.04495,2.82059c0.00128,0.61313 0,1.19675 0,1.76355c0,0.56256 0,1.13354 0,1.72562c0,0.62579 0,1.29791 0,2.83182c0,0.88211 0,1.83167 0,2.83179c0,1.03384 0,2.08453 0,3.13522c0,1.03381 0,2.03394 0,3.86563c0,0.80206 0,1.52826 0,2.18707c0,0.59976 0,1.14899 0,1.6561c0,0.47336 0,0.92145 0,1.77548c0,0.42139 0,0.8428 0,1.26419c0,0.42142 0,0.8428 0,1.68561c0,1.26419 0,2.10699 0,2.9498c0,0.8428 0,1.26419 0,2.52838c0,0.8428 0,1.68561 0,2.52841c0,0.84277 0,2.10699 0,2.94977c0,0.8428 0,1.68561 0,2.10699c0,1.26492 0,2.12598 0,3.0376c0,0.48532 0,1.53601 0,2.72153c0,0.65176 0,2.048 0,2.77563c0,0.73602 0,1.47208 0,2.19971c0,0.71075 0,2.048 0,3.23914c0,0.55344 0,1.61819 0,2.14633c0,1.09003 0,2.28119 0,2.93295c0,0.68546 0,1.39621 0,2.12384c0,1.47208 0,2.19971 0,2.91046c0,1.33725 0.03333,1.952 -0.0379,3.1008c-0.03497,0.56387 -0.08127,1.14917 -0.44388,2.35141c-0.20584,0.68243 -0.90906,2.21338 -1.38431,3.08743c-0.51813,0.95291 -1.11331,1.939 -1.76355,2.93927c-0.66022,1.01566 -1.35098,2.00546 -2.06696,2.93927c-0.68387,0.89197 -2.00946,2.39206 -2.64008,2.94205c-0.5524,0.48175 -1.08743,0.84555 -1.58023,1.12515c-0.43558,0.24713 -0.84525,0.42188 -1.20099,0.59418c-0.31833,0.15417 -0.84409,0.50143 -1.01349,0.74869c-0.35791,0.52234 -0.66431,1.58609 -1.22415,2.0845c-1.00156,0.89169 -1.68301,0.85495 -2.27768,0.97485c-0.63589,0.1282 -2.00522,0.32013 -2.70538,0.44388c-0.69894,0.1235 -2.03723,0.45959 -2.64145,0.71075c-0.5874,0.24417 -1.66876,0.85965 -2.1969,1.17429c-0.52817,0.31464 -1.59302,0.97577 -2.80933,1.40466c-0.64182,0.22632 -1.34656,0.35962 -2.08594,0.48041c-0.77771,0.12704 -1.6015,0.2204 -2.46518,0.32867c-0.90622,0.11362 -1.86188,0.20502 -3.87686,0.59558c-1.07639,0.20862 -2.17297,0.48529 -3.27429,0.80276c-1.10138,0.3175 -2.17548,0.672 -3.19839,1.06827c-0.97733,0.3786 -1.92007,0.71262 -3.35995,1.64063c-0.59665,0.38455 -1.05408,0.81973 -1.40326,1.24524c-0.31241,0.38071 -0.53314,0.77136 -0.72061,1.13147c-0.17172,0.32983 -0.19485,0.77328 -0.91653,1.32529c-0.50259,0.3844 -1.63943,0.47705 -2.03537,0.49304c-1.24435,0.05029 -2.09024,-0.00882 -2.93082,0.0639c-0.84637,0.07321 -1.72784,0.22946 -2.9505,0.88846c-0.44373,0.23917 -1.30957,0.90247 -1.77267,1.26138c-0.48651,0.37704 -0.96466,0.81848 -2.72156,2.0192c-0.64078,0.43793 -1.33508,0.84644 -2.048,1.26422c-0.72543,0.42511 -1.46469,0.84097 -2.19968,1.26419c-0.72867,0.41959 -1.45554,0.81619 -2.77563,1.68561c-0.62003,0.40836 -1.18799,0.83395 -1.72562,1.24521c-0.51294,0.39236 -0.98248,0.79211 -1.90753,1.46368c-0.42868,0.31122 -1.68857,1.04904 -2.54736,1.26419c-0.83093,0.20816 -1.26355,0.21375 -2.10699,0.23529c-1.2645,0.03229 -2.12598,0.00562 -3.0376,0.00562c-0.48532,0 -1.53598,-0.00064 -2.72153,0c-0.65176,0.00037 -1.33801,-0.01651 -2.77563,0.04495c-0.7366,0.03149 -1.47418,0.09094 -2.19968,0.19592c-0.7132,0.10321 -2.06039,0.43088 -2.65973,0.6918c-1.14044,0.49652 -1.62924,0.85257 -2.57407,1.48895c-0.44968,0.30286 -1.72046,1.11414 -2.15195,1.28036c-0.82614,0.31827 -1.68375,0.45224 -2.52838,0.49301c-1.26285,0.06097 -2.10699,0.01898 -2.9498,0.01898c-0.8428,0 -1.26419,0 -2.52838,0c-0.84842,0 -1.73056,0 -2.68011,0c-0.51059,0 -2.23624,-0.00198 -2.888,0.0007c-0.68546,0.00284 -1.39655,0.0101 -2.12384,0.04425c-0.73648,0.03458 -1.47742,0.07062 -2.19971,0.19595c-2.06845,0.35889 -2.66751,0.6781 -3.24478,0.95587c-0.57343,0.27591 -1.69516,0.92017 -2.29239,1.22485c-0.62057,0.31662 -1.27527,0.67233 -2.83182,1.09003c-0.87158,0.23389 -1.8299,0.3588 -2.83179,0.46143c-1.03229,0.10574 -2.08423,0.16132 -3.13522,0.19595c-1.0336,0.03406 -2.03394,0.04214 -3.86563,0.04495c-0.80276,0.00122 -1.53391,0 -2.20602,0c-0.62579,0 -1.21783,0 -1.78885,0c-0.56256,0 -1.12933,-0.00064 -2.32611,0c-0.65387,0.00037 -1.35422,0.00018 -2.10489,0.01895c-0.80574,0.02017 -1.67085,0.0593 -2.59793,0.13275c-0.99608,0.07895 -2.06766,0.17114 -4.42751,0.55063c-1.30624,0.21005 -2.67009,0.48853 -4.07703,0.78378c-1.43053,0.30023 -2.8586,0.62039 -4.26668,0.93552c-1.36613,0.30573 -2.66415,0.61829 -5.0006,1.09003c-0.99051,0.19998 -1.86972,0.35159 -2.6485,0.46143c-0.68793,0.09702 -1.30162,0.16022 -1.85205,0.19595c-0.49898,0.03241 -0.96077,0.04144 -1.82043,0.04495c-0.4214,0.00174 -0.84305,-0.0007 -1.26421,0.01895c-0.42174,0.01968 -0.84482,0.05664 -1.26419,0.13275c-0.42381,0.07693 -0.86331,0.16122 -1.68561,0.55063c-0.43428,0.20566 -0.84756,0.49014 -1.28316,0.76483c-0.44653,0.28159 -0.90256,0.5704 -1.39693,0.80276c-0.50211,0.23599 -2.24013,0.57959 -2.888,0.49655c-0.69228,-0.08875 -1.41412,-0.31754 -2.12384,-0.67633c-0.75725,-0.38281 -1.50272,-0.9162 -2.19971,-1.58658c-0.74513,-0.71671 -2.08463,-2.59125 -2.65903,-3.72375c-0.60832,-1.19937 -1.12062,-2.51279 -1.58025,-3.88742c-0.46806,-1.39987 -0.86053,-2.8331 -1.20099,-4.26666c-0.33347,-1.40414 -0.83347,-4.07526 -1.01277,-5.30121c-0.16835,-1.15097 -0.29176,-2.24579 -0.40454,-3.29324c-0.10909,-1.01321 -0.20549,-2.00684 -0.32869,-2.98981c-0.12398,-0.98923 -0.4682,-3.03046 -0.71075,-4.10092c-0.25148,-1.1098 -0.55058,-2.23981 -0.85966,-3.38806c-0.31177,-1.1582 -0.63516,-2.31332 -0.9355,-3.4639c-0.29515,-1.13065 -0.7991,-3.30948 -0.97414,-4.3446c-0.16705,-0.98792 -0.2821,-1.93744 -0.36029,-2.84445c-0.0744,-0.86304 -0.1127,-1.68542 -0.13275,-2.46518c-0.01897,-0.73734 -0.01668,-2.08594 -0.01965,-2.69766c-0.00279,-0.57382 -0.00877,-1.11447 -0.04425,-1.62451c-0.03381,-0.48599 -0.09122,-0.95294 -0.19595,-1.39691c-0.10347,-0.43863 -0.44754,-1.29108 -0.6925,-1.70456c-0.25482,-0.43011 -0.56416,-0.84885 -0.9039,-1.26422c-0.34985,-0.42773 -0.73274,-0.84592 -1.13145,-1.26419c-0.40472,-0.42459 -1.24522,-1.26419 -1.66733,-1.68631c-0.4263,-0.4263 -0.86107,-0.86105 -1.30844,-1.30844c-0.46423,-0.46423 -0.94955,-0.94955 -1.46016,-1.46014c-0.5401,-0.5401 -1.72365,-1.7276 -2.3781,-2.37668c-0.68831,-0.68268 -1.40666,-1.38647 -2.16809,-2.07962c-0.77106,-0.7019 -1.56516,-1.38324 -2.39566,-2.00375c-0.81639,-0.60995 -2.49667,-1.61606 -3.35081,-1.96793c-0.8217,-0.3385 -1.646,-0.57281 -2.43991,-0.76483c-0.75436,-0.18246 -1.47209,-0.32028 -2.13649,-0.46143l-0.60541,-0.14539" id="svg_2" stroke-width="5" stroke="#000000" fill="none"/> <path d="m193.58025,231.15054c-4.63539,0 -5.47818,0 -6.32098,0c-0.84279,0 -2.10699,0 -2.9498,0c-0.84279,0 -1.68559,0 -2.52838,0c-0.8428,0 -1.68561,0 -2.5284,0c-0.8428,0 -1.68561,0 -2.9498,0c-0.8428,0 -1.68559,0 -2.5284,0c-1.26419,0 -1.68559,0 -2.5284,0c-0.84279,0 -1.68559,-0.00424 -2.9498,0c-0.83719,0.00281 -1.6657,-0.06657 -2.37668,0.1517c-1.20595,0.37022 -1.56731,1.0304 -1.74951,2.04308c-0.13759,0.76474 -0.0878,2.01921 -0.0878,2.44061c0,0.84279 0,1.68559 0,2.52838c0,1.26421 0,2.11263 0,2.99475c0,0.46425 0,1.46014 0,2.00024c0,1.8373 0,2.52277 0,3.23354c0,0.72762 0,1.46365 0,2.19971c0,0.72762 0,1.43837 0,3.38734c0,0.57381 0,1.6245 0,2.1098c0,0.91162 0,2.19478 0,3.03758c0,0.8428 0,1.68561 0,2.52841c0,1.26419 0,2.10699 0,2.52838c0,0.8428 0,1.68561 0,2.9505c0,0.86105 0,1.77267 0,2.258c0,1.05069 0,2.23624 0,2.888c0,0.68546 0,2.12384 0,2.85989c0,0.73602 0,1.46365 0,2.17441c0,1.33725 0.00111,2.52859 -0.01895,3.08182c-0.01947,0.53687 -0.10768,1.59766 -0.22194,2.12949c-0.37907,1.76431 -0.68533,2.3989 -0.95587,3.08182c-0.28264,0.7135 -0.59558,1.43839 -0.91023,2.17444c-0.31464,0.73605 -0.63243,1.45905 -0.91022,2.17441c-0.51608,1.32904 -0.85446,2.51929 -0.95587,3.06287c-0.1848,0.99051 -0.21342,1.45953 -0.23529,2.34229c-0.03145,1.26944 0.01671,2.117 -0.0934,2.95541c-0.11154,0.8493 -0.59872,2.11603 -0.84421,2.52768c-0.50346,0.8443 -1.16357,1.55249 -1.55496,2.28821c-0.4063,0.76373 0.25681,1.39023 0.89125,1.46014c0.76056,0.0838 2.01711,0.04495 2.85991,0.04495c0.84279,0 1.68559,0 2.94978,0c0.8428,0 1.68561,0 2.10699,0c0.8428,0 2.10699,0 2.9498,0l0.8428,0l0.84279,0l0.8428,0" id="svg_3" stroke-width="5" stroke="#000000" fill="none"/> <path d="m244.14815,189.01062c-4.63539,0 -5.47818,0 -6.32098,0c-0.8428,0 -2.10699,0 -2.9498,0c-0.84279,0 -1.68559,0 -2.5284,0c-0.84279,0 -1.68559,0 -2.52838,0c-0.8428,0 -1.68561,0 -2.9498,0c-0.8428,0 -1.68559,0 -2.5284,0c-1.26421,0 -1.68559,0 -2.5284,0l-0.8428,0l-0.84279,0" id="svg_4" stroke-width="5" stroke="#000000" fill="none"/> <path d="m303.14404,184.79663c4.63538,0 5.47818,0 6.32098,0c0.8428,0 2.10699,0 2.9498,0c0.8428,0 1.68558,0 2.52838,0c0.8428,0 1.68436,0.04749 2.48346,-0.04495c1.07886,-0.1248 1.95438,-0.61203 2.35141,-1.44118c0.28476,-0.59468 0.45383,-1.65649 1.15604,-2.21797c0.83466,-0.66739 1.37424,-0.64261 2.27554,-1.21362c0.54349,-0.34433 1.72238,-1.38878 2.35913,-2.09576c0.70825,-0.78636 1.42059,-1.69212 2.16809,-2.66745c0.78534,-1.0247 1.57681,-2.10289 2.39566,-3.19843c0.82742,-1.10701 2.49908,-3.28281 3.35153,-4.306c0.82791,-0.99376 1.65671,-1.93013 2.48416,-2.8002c0.78995,-0.83064 1.56702,-1.59196 2.33243,-2.26923c0.71332,-0.63118 2.05432,-1.64561 2.67871,-2.00516c0.56305,-0.32422 1.10727,-0.56241 1.62448,-0.7206c0.47992,-0.14679 0.9483,-0.22568 1.39694,-0.26549c0.43387,-0.0385 1.28317,-0.03792 1.70456,-0.03792c0.42139,0 0.8428,0 1.26419,0c0.42142,0 0.8428,0 1.26419,0c0.42142,0 1.26422,0 1.68561,0c0.42139,0 0.8428,0 1.68561,0c0.84277,0 2.10727,0.01685 2.94977,-0.00562c0.84341,-0.02248 1.70279,-0.08583 2.52841,-0.35397c0.86533,-0.28105 1.68561,-0.83719 2.10699,-1.12654l0.8428,-0.62086l0.8428,-0.62086l0.42139,-0.28935" id="svg_5" stroke-width="5" stroke="#000000" fill="none"/> <path d="m239.93416,201.6526c-4.63539,0 -5.47818,0 -6.32098,0c-0.8428,0 -2.10699,0 -2.9498,0c-0.84279,0 -1.68559,0 -2.5284,0c-0.84279,0 -1.67436,-0.00046 -2.7742,0c-0.83789,0.00035 -0.05197,-0.00752 0.46423,0.24089c1.06325,0.51166 1.30685,1.57225 1.57393,2.18074c0.49921,1.13739 1.08009,1.48819 1.73055,1.64066c0.72411,0.16972 1.53949,0.14888 2.7981,0.1517c0.84279,0.00189 1.68559,0 2.5284,0c1.26419,0 2.10699,0 2.94978,0c0.8428,0 1.68559,0 2.5284,0c0.8428,0 1.68559,0 2.5284,0c0.8428,0 2.10699,0 2.9498,0c0.84279,0 1.68559,0 2.10699,0c1.26419,0 2.10699,0 2.9498,0c0.84279,0 2.10699,0 2.93855,0c0.76413,0 1.63643,0 1.39342,0c-0.62929,0 -1.39342,0 -2.64638,0c-0.8428,0 -1.68559,0 -2.5284,0c-1.26421,0 -2.10699,0 -2.5284,0l-0.8428,0l-0.84279,0" id="svg_6" stroke-width="5" stroke="#000000" fill="none"/> <path d="m341.06995,172.15465c4.63611,0 5.49716,0 6.40878,0c0.99591,0 1.53601,0 2.72156,0c0.65176,0 2.04797,0 2.7756,0c0.73605,0 1.47208,0 2.19971,0c0.71075,0 2.048,0 3.23352,0c0.5401,0 1.53601,0 2.44763,0c1.28317,0 1.70316,0 2.87888,0c0.62927,0 0.85333,0 0.24792,0c-0.85828,0 -1.37167,0 -3.19843,0c-0.6904,0 -1.41449,0 -2.16809,0c-0.7789,0 -1.57886,0 -2.39566,0c-0.82947,0 -2.50943,0 -3.35153,0c-0.83789,0 -1.66733,0 -2.48416,0c-0.79996,0 -1.57883,0 -2.33243,0l-0.72412,0" id="svg_7" stroke-width="5" stroke="#000000" fill="none"/> <path d="m273.64609,193.22461c0.93271,4.63539 1.48343,5.48019 1.79236,5.8996c0.62381,0.84686 1.04483,1.20264 1.7193,2.5284c0.41254,0.81091 0.56522,1.68364 0.61456,2.10699c0.0979,0.8399 0.07092,2.10727 0.09338,2.94978c0.02249,0.84341 0.08582,1.7028 0.35397,2.5284c0.28104,0.86534 0.8262,1.69345 1.43277,2.5284c0.30908,0.42548 0.9581,1.24957 1.22485,1.68559c0.75034,1.22643 0.99747,2.10049 1.10901,2.9498c0.11011,0.83841 0.08496,1.26419 0.08777,2.5284c0.00186,0.8428 0,1.68559 0,2.5284c0,1.26419 0,2.12386 0,2.58528c0,1.04929 0,1.66241 0,2.35141c0,0.77748 0,2.6485 0,3.76099c0,1.21362 0,2.50311 0,3.84315c0,1.36534 0,2.73067 0,4.07072c0,1.28947 0.00241,3.6156 -0.0007,4.6087c-0.00278,0.88354 -0.00793,1.67479 -0.04425,2.38933c-0.03336,0.65652 -0.09164,1.27231 -0.19592,1.85837c-0.10373,0.58299 -0.45233,1.78581 -0.6918,2.43428c-0.25446,0.68912 -0.55139,1.39711 -0.85965,2.12386c-0.31259,0.73692 -0.63358,1.47031 -0.93552,2.19971c-0.29352,0.70905 -0.7963,2.04427 -0.97485,2.66185c-0.16922,0.58524 -0.29556,1.16748 -0.40454,1.75723c-0.11322,0.61267 -0.21146,1.27014 -0.32867,1.98477c-0.12979,0.7912 -0.47479,2.66864 -0.71075,3.77997c-0.25797,1.21494 -0.55219,2.50339 -0.85965,3.84314c-0.31342,1.36566 -0.63193,2.73007 -0.93552,4.07071c-0.2919,1.28891 -0.79263,3.61398 -0.97415,4.608c-0.16019,0.87726 -0.27966,1.65503 -0.36029,2.34509c-0.07153,0.61227 -0.11249,1.16278 -0.13272,1.66241c-0.01868,0.46127 -0.01898,1.32111 -0.01898,1.74249c0,0.42142 0,0.8428 0,1.26419c0,0.42142 0,0.8428 0,1.26422c0,0.42139 0,1.26419 0,1.68558c0,0.42142 0,0.8428 0,1.26419c0,0.42142 -0.00424,1.26422 0,2.52841c0.00281,0.83719 -0.01801,1.65259 0.1517,2.37668c0.15247,0.65045 1.03516,1.53314 1.68561,1.68561c0.72412,0.16971 1.53952,0.1489 2.7981,0.1517c0.84277,0.00189 1.68558,0 2.52838,0c1.26419,0 2.11261,0 2.54736,0c0.91162,0 1.90753,0 2.44763,0c1.18552,0 2.52838,0 3.2525,0c0.7536,0 1.53247,0 2.33243,0c0.81683,0 1.64627,-0.0007 3.32626,0c0.84137,0.00037 1.6745,-0.00113 2.49045,0.01895c0.79102,0.01947 1.54953,0.05301 2.26291,0.13275c0.66623,0.07446 1.43848,-0.09308 2.6506,0.78381c0.6713,0.48563 0.86868,1.51996 0.93411,2.09293c0.07544,0.66077 0.08371,1.42712 0.0899,3.29254c0.00369,1.11179 -0.00034,2.32056 0.01895,3.59665c0.01987,1.31418 0.05444,2.63733 0.13275,3.93796c0.07538,1.25177 0.08612,2.44659 0.55063,4.40503c0.18362,0.77417 0.45816,1.40045 0.80276,1.84573c0.29837,0.3855 0.67664,0.64481 1.06824,0.78381c0.38528,0.13678 0.80325,0.16855 1.64066,0.17978c0.42136,0.00565 0.8428,0 1.26419,0c0.8428,0 1.68561,-0.00421 2.9498,0c0.8428,0.00281 1.69073,0.01025 2.52838,0.1517c0.42474,0.07172 1.71036,0.5112 2.51718,1.04507c0.40814,0.27005 1.28677,0.7887 1.63641,1.5311c0.48438,1.0285 -0.53281,1.53082 -1.27682,1.12091c-1.03351,-0.5694 -1.03085,-1.44791 -1.29791,-2.05643c-0.49921,-1.13739 -1.38986,-1.5965 -2.08804,-1.70456c-0.76785,-0.11887 -2.0195,-0.07013 -2.85638,-0.09341c-0.80411,-0.02237 -1.60519,-0.00427 -2.17441,-0.35397c-1.00879,-0.61978 -1.16898,-1.78406 -0.94254,-2.36826c0.42822,-1.1048 1.24176,-1.2753 1.93494,-1.48615c0.77029,-0.23431 2.04187,-0.66599 2.862,-1.20239c0.4342,-0.284 1.26831,-0.98782 1.68558,-1.37094c0.42566,-0.39084 1.68454,-1.64172 2.10699,-2.06134c0.42035,-0.41754 1.25562,-1.22977 1.68561,-1.59851c0.82669,-0.70892 1.2084,-1.10605 2.52698,-1.6828c0.77936,-0.34091 2.28723,0.22375 2.24326,-0.51199c-0.04559,-0.76276 -0.91724,0 -0.04495,0c0.76416,0 2.01712,0 2.85989,0c0.42142,0 1.26422,0 2.10699,0c1.26422,0 2.10699,0 2.9498,0c0.8428,0 2.10699,0 2.9498,0c0.8428,0 1.26419,0 2.10699,0c1.26419,0 2.09576,0 2.85989,0c1.0563,0 0.6026,-0.24207 0.33572,-0.52673c-0.79205,-0.84488 -1.19177,-1.59601 -1.93143,-3.68726c-0.48227,-1.36359 -0.85617,-2.97473 -1.26419,-4.74075c-0.43573,-1.88599 -0.8428,-3.86282 -1.26419,-5.87851c-0.42139,-2.01569 -0.78757,-4.00241 -1.68561,-7.64136c-0.39706,-1.60892 -0.8194,-3.05319 -1.26419,-4.33621c-0.40045,-1.15509 -0.81732,-2.17294 -1.26419,-3.04672c-0.39902,-0.78021 -0.77008,-1.49167 -1.68561,-2.44971c-0.39233,-0.41055 -0.83011,-0.70956 -1.26419,-0.92288c-0.41068,-0.20181 -0.83978,-0.32269 -1.26419,-0.39191c-0.41907,-0.06836 -0.84274,-0.08426 -1.68561,-0.08987c-0.42139,-0.00281 -0.8428,0 -1.26419,0c-0.42142,0 -0.8428,0 -1.26419,0c-0.42142,0 -0.8428,0.0007 -1.68561,0c-0.42068,-0.00037 -0.83746,0.00107 -1.24524,-0.01898c-0.39578,-0.01947 -0.77701,-0.05365 -1.13144,-0.13275c-0.33572,-0.07492 -0.68808,-0.14099 -1.13498,-0.5506c-0.22183,-0.20331 -0.36331,-0.50571 -0.48041,-0.8407c-0.13235,-0.3786 -0.22437,-0.82684 -0.32867,-1.33374c-0.11795,-0.57324 -0.224,-1.22473 -0.59558,-2.74191c-0.21689,-0.88553 -0.4913,-1.83258 -0.78381,-2.83179c-0.30295,-1.03482 -0.62244,-2.08408 -0.93549,-3.13522c-0.30777,-1.03336 -0.62372,-2.02657 -1.09003,-3.86563c-0.20261,-0.79906 -0.35284,-1.52654 -0.46143,-2.18706c-0.09836,-0.59836 -0.16058,-1.14844 -0.19595,-1.6561c-0.03296,-0.47295 -0.03931,-0.92146 -0.04495,-1.7755c-0.00558,-0.84842 -0.03094,-1.73206 -0.0878,-2.19478c-0.12292,-1.00009 -0.23755,-1.54645 -0.61453,-2.72154c-0.21136,-0.65887 -0.78458,-2.06664 -1.09003,-2.82056c-0.31543,-0.77858 -0.6387,-1.57536 -0.93552,-2.39566c-0.29889,-0.82607 -0.79715,-2.5065 -0.97552,-3.35083c-0.17542,-0.83029 -0.30035,-1.65041 -0.44879,-2.4399c-0.14261,-0.75845 -0.28918,-1.48245 -0.52463,-2.13649c-0.22195,-0.61656 -0.9111,-1.64618 -1.40326,-1.98621c-0.50522,-0.34906 -1.11072,-0.61243 -2.4357,-0.84842c-0.68765,-0.12248 -1.39453,-0.14804 -2.09225,-0.16434c-1.3313,-0.03108 -2.51715,-0.01125 -3.05725,-0.01125c-0.99591,0 -1.90753,0.00024 -2.34225,0c-1.26913,-0.0007 -2.11591,0.05444 -2.86765,-0.17558c-0.72156,-0.22079 -1.55978,-1.20836 -1.83517,-2.22357c-0.15808,-0.58279 -0.22321,-1.2292 -0.27182,-1.90262c-0.10056,-1.39291 -0.08496,-2.09224 -0.08777,-3.42387c-0.00128,-0.61313 0,-1.76355 0,-2.32613l0,-0.57098l0,-1.21785l0,-0.67213" id="svg_8" stroke-width="5" stroke="#000000" fill="none"/> <path d="m266.66666,366.22223c0.92593,-1.74075 1.96707,-1.68222 2.66669,-1.81482c1.10513,-0.20947 1.64059,-0.72104 2.13333,-1.31705c0.77908,-0.94235 1.05411,-1.58374 1.42221,-2.16443c0.51599,-0.81393 1.21188,-1.64505 2.13333,-1.79883c0.87689,-0.14633 1.77777,-0.01599 2.66669,-0.01599c0.88889,0 1.85666,0.26114 2.56503,-0.10162c0.79568,-0.40747 1.21237,-1.44269 1.89688,-1.57452c0.83405,-0.16061 1.99734,-0.10162 2.72534,-0.10162c0.80472,0 1.87939,0 2.59052,0c1.06665,0 1.77777,0 2.84445,0c0.71109,0 1.77777,0 2.48886,0c1.06668,0 1.79706,0.18561 2.83646,-0.01602c0.78406,-0.1521 1.12238,-1.24521 1.29749,-2.02725c0.20834,-0.93036 0.87848,-1.47522 1.73273,-1.5123c0.88809,-0.03854 1.7778,0 2.66669,0c0.88889,0 1.82462,0.08878 2.66666,-0.2963c0.77014,-0.35217 1.17322,-1.03497 2.31113,-1.37985c0.6864,-0.20804 1.59998,-0.10043 2.48886,-0.10162c0.89127,-0.00119 1.6846,0.00443 2.88239,-0.39349c0.60132,-0.19977 1.19257,-0.53055 2.12384,-0.87939c1.05011,-0.39337 1.90802,-0.49539 2.81659,-0.50488c0.78458,-0.00818 1.54727,0 2.56415,0c0.82254,0 1.70193,0 2.58136,0c1.19464,0 1.83939,0 2.81598,0c0.92682,0 1.8157,0 2.70459,0c0.88889,0 1.7778,0 2.66669,0c0.88889,0 1.77844,0.03406 2.66635,-0.00031c0.82703,-0.03201 1.33258,-0.77939 1.90134,-1.27258c0.78732,-0.68271 1.51331,-0.48419 2.39645,-0.50253c1.06171,-0.02203 1.90576,-0.00238 2.99139,-0.00238c0.71112,0 1.7778,0 2.48889,0c1.06668,0 1.77777,0 2.84445,0c0.71112,0 1.77777,0 2.48889,0c1.06665,0 1.77777,0 2.84445,0c0.71109,0 1.77777,-0.00079 2.48889,0c1.06427,0.00119 2.09451,-0.04367 2.42487,0.77512c0.37592,0.93176 0.06403,1.73276 0.06403,2.5766c0,1.0643 0,1.67111 0,2.59912c0,1.12207 0.0155,1.8075 0,2.93808c-0.00949,0.69232 -0.37415,1.65286 -1.08563,1.75879c-1.03647,0.1543 -1.75882,0.01898 -2.8255,0.01898c-0.71109,0 -1.78015,0 -2.55289,0c-0.94339,0 -1.8074,0 -2.73541,0c-0.60681,0 -1.67111,0 -2.51495,0c-1.08563,0 -1.79675,0 -2.86578,0c-0.77274,0 -1.71664,-0.02203 -2.58014,0.008c-0.92914,0.03232 -1.57877,0.03177 -2.59912,0.49689c-0.68536,0.31241 -1.55008,1.06921 -2.28503,1.20889c-1.04977,0.19952 -1.79672,0.064 -2.64059,0.064c-1.0643,0 -1.67111,0 -2.59909,0c-1.12238,0 -1.82639,0 -2.73187,0c-1.06665,0 -1.67346,0 -2.60147,0c-1.12238,0 -1.82639,0 -2.73184,0c-1.07379,0 -1.73038,0 -2.48654,0c-0.8699,0 -1.86786,-0.00403 -3.00089,0.00238c-0.61099,0.00345 -1.24734,0.00275 -2.57895,0.06161c-0.68954,0.03049 -1.39175,0.06308 -2.80652,0.2323c-0.71152,0.08511 -1.41516,0.19867 -2.10135,0.33868c-1.31107,0.26752 -1.9165,0.42816 -2.46991,0.61746c-1.37476,0.47025 -2.07031,1.1116 -2.6095,1.66815c-0.6315,0.65186 -1.70813,0.63495 -2.4382,0.63495c-0.84387,0 -1.90817,0 -2.51498,0c-0.92798,0 -2.0527,-0.04153 -2.75436,0.01898c-0.91177,0.07864 -1.68359,0.37369 -2.59793,0.73718c-0.66632,0.26489 -1.34479,0.58298 -2.4249,0.80563c-1.05524,0.21753 -1.77765,0.20453 -2.48886,0.21362c-1.06628,0.01364 -2.11438,0.00238 -2.78046,0.00238c-1.18994,0 -1.91794,0 -2.72266,0c-1.07468,0 -1.7858,0 -2.85245,0c-0.71112,0 -1.7778,-0.00269 -2.48889,0c-1.05872,0.004 -1.80386,0.1517 -2.31113,0.88889c-0.50726,0.73718 -1.25241,0.88489 -2.3111,0.88889c-0.71112,0.00269 -1.77777,0 -2.48889,0c-1.06668,0 -1.77979,-0.0582 -2.85245,0.008c-0.80862,0.0499 -1.81485,0.36728 -2.38074,0.61896c-0.82822,0.36838 -1.57715,1.09995 -0.63348,1.15082c0.71008,0.0383 1.78452,-0.08066 2.48889,0.01898c1.09125,0.15436 1.62042,0.59323 2.3111,1.23346c0.73325,0.67969 1.3161,1.17151 1.80386,1.94757c0.52737,0.83908 0.54105,1.52872 1.09985,2.42963c0.36984,0.59625 0.92459,1.16681 1.45065,1.79199c0.50726,0.60284 1.2049,1.67361 1.53839,2.51495c0.36084,0.91031 0.81021,1.72604 1.75171,2.21158c0.66486,0.34286 1.42221,0.2951 2.48886,0.2963c0.71112,0.00079 1.79675,0 2.41275,0c1.00296,0 1.89896,0 2.82697,0c1.12207,0 1.8074,0 2.58014,0c1.06906,0 1.78015,0 2.84683,0c0.71109,0 1.77777,0 2.48889,0c1.06665,0 1.77777,0 2.84442,0c0.71112,0 1.7778,0 2.48889,0c1.06668,0 1.7778,0 2.84445,0c0.71112,0 1.77777,0 2.48889,0c1.06668,0 1.77777,0 2.8634,0c0.616,0 1.61926,0 2.53394,0c0.66608,0 2.06934,0 2.77808,0c0.69452,0 1.6785,0 2.80859,0c0.68533,0 1.45807,0 2.5271,0c0.71112,0 1.77777,0 2.48889,0c1.08563,0 1.70163,0 2.70459,0c0.896,0 1.82401,0 2.94638,0c0.70398,0 1.37601,0 2.38724,0c0.91467,0 1.58075,0 2.98401,0c0.70874,0 1.40326,0 2.38727,0c1.13007,0 1.8154,0 2.58813,0c1.06906,0 1.78015,0 2.84683,0c0.71109,0 1.80719,0.09039 2.48889,-0.1517c0.95343,-0.33859 1.43439,-0.92166 2.3111,-1.80417c0.54095,-0.54453 1.09845,-1.14575 1.60001,-1.896c0.56198,-0.84061 0.87775,-1.46991 1.14282,-2.09897c0.46521,-1.10397 0.60077,-1.82483 0.6326,-2.73184c0.03741,-1.06601 0.00235,-1.67349 0.00235,-2.60147c0,-1.12207 0,-2.01215 0,-2.93808c0,-0.71112 0,-1.77777 0,-2.48889c0,-1.06668 -0.02319,-1.77802 0,-2.84445c0.01852,-0.85245 0.49731,-1.69415 1.25244,-1.76978c0.87656,-0.08777 1.77121,-0.05618 2.65866,-0.00562c0.89297,0.0509 1.82816,0.44913 2.27408,0.92355c0.72549,0.77185 0.81647,1.78506 1.22223,2.62961c0.36676,0.76334 1.00732,1.17834 1.32977,2.13336c0.28806,0.85312 0.1517,1.77777 0.1517,2.66666c0,0.89127 0,1.664 0,2.60739c0,0.86401 0,1.79202 0,2.39883c0,1.29214 0,2.09689 0,2.99377c0,0.88889 0.00119,1.77777 0,2.66666c-0.00119,0.88654 0.00018,1.8183 -0.77512,2.26608c-0.91718,0.52972 -1.5564,0.65726 -2.2471,1.29749c-0.73325,0.67966 -1.31622,1.17139 -1.80383,1.94754c-0.5177,0.82404 -0.58646,1.76157 -1.47025,2.13333c-0.58185,0.24475 -1.67648,0.50201 -2.28207,0.75616c-0.92984,0.39023 -1.77631,0.80234 -2.73541,0.95761c-0.76523,0.1239 -1.84177,0.06088 -2.55289,0.06403c-0.90491,0.004 -1.80902,0.07599 -2.72592,0.2963c-0.77826,0.18698 -1.6304,0.46112 -2.51733,0.72531c-0.43594,0.12985 -1.96536,0.56631 -2.56949,0.65454c-0.80627,0.11777 -2.02429,0.10162 -2.79941,0.10162c-0.87466,0 -1.336,0 -2.28,0c-1.38931,0 -2.24503,0 -3.04382,0c-0.75616,0 -1.48392,-0.01129 -2.55292,0.00058c-0.71121,0.0079 -1.79688,0.0629 -2.48886,0.30283c-1.10654,0.38364 -1.77948,0.94821 -2.48889,1.47437c-0.35641,0.26434 -1.01102,0.88531 -2.13306,1.34579c-1.00949,0.41428 -1.71362,0.41302 -2.90399,0.43198c-0.72791,0.0116 -1.53275,0 -2.43201,0c-0.77274,0 -1.99121,-0.0145 -2.57214,0.008c-0.87314,0.03378 -1.93484,0.41397 -2.42932,1.01364c-0.5687,0.6897 -1.39853,0.75497 -2.28503,0.75616c-0.88892,0.00119 -1.7778,0 -2.66669,0c-0.88889,0 -1.77777,0 -2.66666,0c-0.88889,0 -1.77777,0 -2.66666,0c-0.88892,0 -1.7778,0 -2.66669,0c-0.88889,0 -1.77777,0 -2.66666,0c-0.89688,0 -1.70163,0 -2.70459,0c-0.896,0 -1.51703,0 -2.68802,0c-0.94339,0 -1.71613,0 -2.60739,0c-0.88889,0 -1.77777,0 -2.66666,0c-0.88892,0 -1.7778,0 -2.66669,0c-0.88889,0 -1.8428,0.14792 -2.48889,-0.20328c-1.05594,-0.57397 -1.24445,-1.328 -1.59998,-1.90399c-0.71109,-1.15201 -1.09662,-1.62823 -1.71381,-2.496c-0.50601,-0.71149 -0.72369,-1.61966 -0.77509,-2.50784c-0.04449,-0.76883 -0.26382,-1.57181 -0.88889,-2.66669c-0.27393,-0.47983 -0.62131,-0.98438 -1.37958,-2.09067c-0.3959,-0.57761 -0.79883,-1.15036 -1.18399,-1.71732c-0.3685,-0.54245 -1.32007,-1.90775 -1.56799,-2.63467c-0.29623,-0.86856 0.46222,-1.49335 1.46487,-1.55734l0.69214,-0.01895" id="svg_9" stroke-width="5" stroke="#000000" fill="none"/> <path d="m279.11221,366.22223c4.01254,0.01895 5.57208,0.37421 5.74545,1.08563c0.25256,1.03632 -0.05017,1.80978 0.67056,2.64798c0.69751,0.81125 1.71719,1.37857 2.53671,2.17096c0.59683,0.57709 1.38565,1.50555 1.77576,2.12387c0.659,1.04462 0.9762,1.99524 2.08331,2.57422l1.05511,0.06161" id="svg_10" stroke-width="5" stroke="#000000" fill="none"/> <path d="m305.77777,369.77777c0,3.08148 -0.02051,3.79279 0.0004,4.97778c0.01254,0.71146 0.021,1.47763 0.52463,2.37c0.41977,0.74377 1.1449,1.28711 2.08237,1.8457l0.71112,0.20267l0.71112,0.07468" id="svg_11" stroke-linecap="null" stroke-linejoin="null" stroke-dasharray="null" stroke-width="5" stroke="#000000" fill="none"/> <path d="m329.48148,355.55557c0,3.08148 0,3.79257 0,4.97775c0,0.71112 0,1.42224 0,2.6106c0,0.75732 0,1.62131 0,2.65482c0,0.78537 0,1.60867 0,2.43198c0,1.15201 0,1.81888 0,2.68286c0,0.75735 0.22968,2.05872 -0.27103,2.75833c-0.55768,0.77921 -1.40088,0.72177 -2.09933,0.84662l-1.02402,0.1991" id="svg_12" stroke-linecap="null" stroke-linejoin="null" stroke-dasharray="null" stroke-width="5" stroke="#000000" fill="none"/> <path d="m194.37036,232.2963c-0.00316,-3.51762 -0.00476,-4.32845 -0.08533,-5.15475c-0.04002,-0.4104 -0.39923,-1.92787 -0.76129,-2.53195c-0.35031,-0.58447 -1.05125,-1.31911 -1.76079,-2.0318c-0.47302,-0.47513 -1.18518,-1.1852 -1.65926,-1.65927c-0.94815,-0.94814 -1.42223,-1.42221 -1.8963,-1.89629c-0.94815,-0.94815 -1.43452,-1.41393 -1.8963,-1.92159c-0.73102,-0.80367 -1.42955,-1.78737 -1.65886,-2.15862c-0.47932,-0.776 -0.91475,-1.60152 -1.28711,-2.43201c-0.17778,-0.39651 -0.67679,-1.81671 -0.76129,-2.43515c-0.12172,-0.89084 -0.06184,-1.87799 -0.0948,-2.64218c-0.03879,-0.8992 -0.09563,-1.41837 -0.39705,-2.57581c-0.17548,-0.67381 -0.76624,-2.19592 -1.1674,-3.05264c-0.43234,-0.92328 -0.92941,-1.87421 -1.45067,-2.84799c-0.5264,-0.9834 -1.06342,-1.9492 -1.57866,-2.89067c-0.48972,-0.89482 -1.33348,-2.48022 -1.64386,-3.15062c-0.26654,-0.5757 -0.46962,-1.08005 -0.608,-1.52177c-0.11833,-0.37772 -0.21048,-0.71152 -0.24651,-1.27684c-0.06111,-0.95889 0.01564,-1.67216 -0.00949,-2.85709c-0.01601,-0.75427 -0.11865,-1.39262 -0.40651,-2.20128c-0.1819,-0.51103 -0.77234,-1.75264 -1.16742,-2.5047c-0.43861,-0.83493 -0.93256,-1.72005 -1.45067,-2.64532c-0.52959,-0.94577 -1.06482,-1.88837 -1.57866,-2.81601c-0.49107,-0.88655 -1.33281,-2.46985 -1.64424,-3.14034c-0.26878,-0.5787 -0.47569,-1.09151 -0.63289,-1.54668c-0.13902,-0.40257 -0.1843,-0.79144 -0.62578,-2.13333c-0.25006,-0.76004 -0.62733,-1.54192 -0.83951,-1.92592c-0.41405,-0.74936 -1.33096,-1.92168 -1.84692,-2.14874c-0.8974,-0.39494 -1.89629,-0.27101 -2.60741,-0.27101c-0.94814,0 -1.92464,0.03714 -2.49678,-0.12642c-0.79851,-0.22827 -1.27274,-0.53375 -1.83308,-0.88495c-1.46693,-0.91937 -2.32681,-1.60681 -3.30272,-2.35457c-1.05505,-0.8084 -2.14914,-1.67505 -3.27112,-2.56c-1.12198,-0.88493 -2.21289,-1.75575 -3.2711,-2.56c-1.85197,-1.4075 -2.62979,-1.93703 -3.29956,-2.35773c-0.55779,-0.35036 -1.03401,-0.61194 -1.42934,-0.81067c-0.31952,-0.16061 -0.58975,-0.26472 -0.78934,-0.384c-0.31158,-0.18622 -0.42049,-0.33031 -0.49303,-0.48987c-0.3367,-0.7406 -0.55232,-1.7224 -1.04573,-2.40514c-0.35881,-0.49649 -1.06438,-1.17389 -1.76039,-1.8967c-0.69798,-0.72485 -1.15594,-1.23987 -1.45738,-1.86113c-0.48184,-0.99309 -0.54126,-1.80989 -0.67635,-2.59279c-0.18509,-1.07274 -0.68063,-2.00682 -1.36218,-2.45453c-0.72836,-0.47845 -0.98067,-1.24823 -1.00504,-2.06696c-0.03065,-1.02986 -0.00316,-1.8157 -0.00316,-2.63901c0,-0.82332 0.03865,-1.9765 -0.01067,-2.94598c-0.0419,-0.82365 -0.35635,-1.81294 -0.82529,-2.50587c-0.33002,-0.48764 -0.98271,-1.13402 -1.33214,-2.13333c-0.24008,-0.6866 -0.20229,-1.8963 -0.20229,-2.60741c0,-0.94815 0,-1.89788 0,-2.70854c0,-0.71427 0,-1.65611 0,-2.90134c0,-0.75615 0,-1.59289 0,-2.496c0,-0.95525 0,-1.94844 0,-2.96533c0,-1.02637 -0.00043,-2.048 0,-4.02015c0.0002,-0.92405 -0.0009,-1.79836 0.01068,-2.62045c0.01082,-0.76766 0.02904,-1.47892 0.07466,-2.12978c0.0414,-0.59051 0.04959,-1.13379 0.30972,-1.96583c0.10345,-0.33091 0.94669,-0.89706 1.58025,-1.58025c0.49025,-0.52865 0.51208,-1.55054 1.07141,-2.44938c0.31358,-0.50394 0.99358,-1.18519 1.69403,-1.8963c0.70044,-0.71111 1.2083,-1.13383 1.69402,-1.89629c0.57867,-0.90838 0.66324,-1.53622 0.9924,-2.23763c0.451,-0.96104 1.25577,-2.19291 1.78291,-2.94202c0.58763,-0.83508 1.24904,-1.71407 1.95911,-2.62045c0.72548,-0.92606 1.46841,-1.83634 2.21512,-2.70577c0.71069,-0.82751 2.01126,-2.22772 2.58093,-2.75082c0.48169,-0.4423 0.91443,-0.78264 1.29422,-1.03822c0.31534,-0.21221 0.59953,-0.35076 0.82489,-0.48356c0.49622,-0.2924 0.79988,-0.98148 1.00346,-1.72326c0.36674,-1.33625 0.5322,-1.72099 0.90863,-2.52128c0.39406,-0.83774 0.83888,-1.6548 1.3369,-2.38934c0.67525,-0.99594 1.17709,-1.53845 1.65926,-2.04366c0.69955,-0.73298 1.42223,-1.43289 1.8963,-1.90696c0.71111,-0.71111 1.41908,-1.42908 1.94963,-1.93896c0.66133,-0.63557 1.08272,-1.0117 1.57234,-1.44751c0.56888,-0.50634 2.00723,-1.75127 2.89383,-2.5043c0.97794,-0.83059 2.02815,-1.712 3.12889,-2.62044c1.11948,-0.92391 2.23967,-1.83531 3.34222,-2.70578c1.04683,-0.82647 2.90723,-2.2273 3.6879,-2.75081c0.65883,-0.4418 1.2309,-0.7834 1.72444,-1.03822c0.41226,-0.21286 0.77339,-0.36267 1.08444,-0.48355c0.27376,-0.10639 0.76912,-0.30473 1.00307,-0.44405c0.25346,-0.15094 0.51793,-0.34888 0.81067,-0.58311c0.33667,-0.26938 1.15074,-0.96858 1.6561,-1.39694c1.24217,-1.05291 1.99861,-1.67709 2.8318,-2.35457c0.886,-0.72041 1.81123,-1.46067 2.75911,-2.20089c0.94214,-0.73573 1.86279,-1.4469 2.75911,-2.09422c1.57237,-1.13556 2.24496,-1.55686 2.83496,-1.88997c0.50562,-0.28547 0.95996,-0.49985 1.3689,-0.65778c0.36601,-0.14135 0.71561,-0.23909 1.04889,-0.33778c0.68066,-0.20156 1.43774,-0.46711 2.2155,-0.84385c0.39484,-0.19126 1.28284,-0.47887 2.23367,-1.57432c0.3752,-0.43225 0.55072,-1.26936 0.576,-2.528c0.01511,-0.75204 0,-1.56128 0,-2.38933c0,-0.80909 -0.03125,-1.90751 0.02528,-2.86973c0.03853,-0.65585 0.15099,-1.39073 0.49936,-2.74331c0.13828,-0.53687 0.31044,-1.09695 0.66054,-2.26924c0.17654,-0.59114 0.38934,-1.16198 0.79013,-2.76543c0.21439,-0.8577 0.33339,-1.59115 0.36978,-2.24711c0.07251,-1.30668 0.01022,-2.06135 0.05057,-2.86973c0.04138,-0.82919 0.07574,-1.67219 0.50014,-2.73422c0.26985,-0.67533 0.75586,-1.28678 1.28001,-1.96978c0.95515,-1.24462 1.32755,-1.73602 1.71219,-2.26805c0.40079,-0.55436 0.80408,-1.12566 1.22311,-1.68889c0.81366,-1.09366 1.17258,-1.63052 1.97531,-2.41975c0.63263,-0.62199 1.57797,-1.09329 2.17915,-1.28869c1.34303,-0.43653 1.73546,-0.56507 2.54262,-0.90469c0.83005,-0.34925 1.61519,-0.75831 2.73383,-1.07417c0.92416,-0.26096 1.53265,-0.27536 2.81601,-0.288c0.75217,-0.00741 1.56128,0 2.38933,0c0.80908,0 1.90538,0 2.81915,0c0.78578,0 1.7446,0 2.69275,0c0.71111,0 1.66629,-0.03998 2.41975,0.04938c0.87131,0.10334 1.90605,0.45545 2.68286,0.79723c0.83305,0.36653 1.25217,0.57531 2.04642,1.05284c1.11871,0.67261 1.73354,1.18203 2.33244,1.6561c0.59892,0.47408 1.57428,1.19477 2.33562,1.66242c0.82487,0.50667 1.27643,0.74597 2.17876,1.31753c0.47034,0.29793 1.42105,0.95882 2.36603,1.72602c0.49413,0.40118 0.99049,0.83349 1.51466,1.26933c0.54401,0.45235 1.11154,0.92119 1.728,1.376c1.31534,0.97043 2.06239,1.42556 2.83496,1.88997c0.7879,0.47363 1.59492,0.92805 2.40001,1.376c0.791,0.44011 1.56361,0.85645 2.29333,1.26933c1.31732,0.74534 1.87454,1.09189 2.36404,1.41906c0.8331,0.55681 1.45209,1.08478 2.01956,1.42222c0.92209,0.5483 1.99081,0.66438 2.58212,0.67635c1.03644,0.02097 1.90421,0.00316 2.43042,0.00316c1.30844,0 2.11911,0 3.05304,0c2.29453,0 3.67645,0 5.19583,0c1.62845,0 3.33749,0 5.09869,0c1.78488,0 3.56503,0 5.31198,0c3.28061,0 4.76483,0 6.14716,0c1.297,0 2.52524,0 3.70135,0c1.14053,0 2.26212,0 3.38132,0c2.2977,0 3.505,0 4.75021,0c1.27368,0 2.56635,0 3.86847,0c1.30212,0 2.59476,0 3.86844,0c2.45255,0 3.61481,0 4.73441,0c1.0817,0 2.13019,0 3.15024,0c0.99634,0 1.97372,0 2.93689,0c1.90262,0 2.84958,0 3.78943,0c0.92563,0 1.82993,0 2.70578,0c0.8403,0 1.63791,0 2.38577,0c1.31793,0 1.87692,0 2.37668,0c0.45236,0 0.86914,0 1.26224,0c0.38123,0 0.76245,0 1.15555,0c0.86914,0 1.36572,0 1.90262,0c0.57007,0 1.16623,0 1.78134,0c0.62695,0 1.25867,0 1.888,0c1.22311,0 1.80423,0 2.36404,0c0.54083,0 1.06509,0 1.5751,0c0.49817,0 0.98688,0 1.46844,0c0.95132,0 1.42618,0 1.90579,0c0.48907,0 0.9924,0 1.51465,0c0.54599,0 1.12039,0 1.728,0c1.33374,0 2.06659,0 2.83496,0c0.79211,0 1.59607,0 2.40002,0c0.79208,0 1.56049,0 2.29333,0c1.31158,0 1.8714,0 2.37668,0c0.46735,0 0.91339,0 1.35468,0c0.45313,0 0.93472,0 1.46133,0c1.2547,0 2.01007,0 2.84128,0c0.88809,0 1.81412,0 2.75909,0c0.94501,0 1.87103,0 2.75912,0c1.58658,0 2.25186,0 2.83182,0c0.50409,0 0.9418,0 1.32266,0c0.33344,0 0.62894,0 0.896,0c0.48672,0 0.72375,0 0.96078,0c0.23703,0 0.47406,0 0.71112,0c0.47406,0 1.42261,0 2.41974,0c0.56021,0 1.89777,-0.01292 2.68286,0.01067c0.82385,0.02475 1.67398,0.02433 2.79861,0.3844c0.69879,0.22373 1.33606,0.66025 2.048,1.13778c0.4035,0.27064 1.89993,1.23719 2.52881,1.59961c0.68256,0.39336 1.41852,0.79524 2.18665,1.21955c0.79236,0.43769 1.59909,0.88285 2.39999,1.34756c0.79514,0.46137 2.30042,1.40142 2.98114,1.88523c0.64966,0.46174 1.2485,0.93112 1.80267,1.39734c0.52731,0.44361 1.01144,0.88467 1.46133,1.312c0.42542,0.40409 1.18399,1.16266 1.86035,1.83901c0.65738,0.65738 1.00266,1.00266 1.77383,1.77383c0.44482,0.44483 1.50043,1.50044 2.12662,2.12662c0.68542,0.68542 1.41827,1.41828 2.18665,2.18666c0.79211,0.79211 1.59607,1.59605 2.40002,2.4c0.79208,0.7921 2.29333,2.29334 2.98151,2.98153c0.64554,0.64554 1.25314,1.25313 1.82758,1.82756c0.54596,0.54597 1.06824,1.06826 1.57153,1.57156c0.48911,0.48909 1.44357,1.44356 1.91803,1.91803c0.47684,0.47684 0.95844,0.95842 1.44711,1.44711c0.49817,0.49818 1.00821,1.0082 1.53244,1.53244l0.54086,0.54084" id="svg_13" stroke-linecap="null" stroke-linejoin="null" stroke-dasharray="null" stroke-width="5" stroke="#000000" fill="none"/> <path d="m436.14813,73.48148c8.2963,20.54321 8.85178,21.87439 9.34558,23.03052c0.4278,1.00157 0.80328,1.86131 1.12357,2.59911c0.2738,0.63072 0.51224,1.16847 0.6969,1.63911c0.30426,0.77547 0.59454,1.74657 0.66052,2.57264c0.07751,0.97067 -0.02142,1.7028 0.11063,2.48099c0.21674,1.27718 0.58688,2.01363 0.75061,2.42054c0.34717,0.86286 0.71503,1.76602 0.86124,2.23803c0.43536,1.4054 0.55237,2.38804 0.61313,2.89185c0.12869,1.06725 0.17755,1.64361 0.25919,2.25027c0.17978,1.33601 0.32101,2.06744 0.47406,2.83497c0.15811,0.79303 0.33374,1.59633 0.51199,2.39999c0.17575,0.79238 0.35489,1.55926 0.51199,2.29333c0.3996,1.8672 0.55853,2.81001 0.62381,3.58321c0.05698,0.67506 0.04938,1.67901 0.04938,2.43436c0,0.83121 0,1.71931 0,2.64534c0,0.94498 0,1.88997 0,2.81599c0,0.88811 0,1.71931 0,2.82034c0,0.66766 0,1.38272 0,2.24001c0,1.75999 0,2.51733 0,3.36237c0,0.92563 0,1.92474 0,2.99022c0,1.12474 0,2.30164 0,3.52356c0,2.55052 0,3.86371 0,5.18637c0,1.31793 0,2.6169 0,3.88268c0,1.21837 0,2.37511 0,3.45599c0,1.87733 0.00241,2.65167 -0.00314,3.33116c-0.00497,0.60843 -0.01624,1.16968 -0.04623,1.70667c-0.03006,0.53766 -0.07928,1.09906 -0.15289,1.70667c-0.17639,1.4559 -0.31912,2.33934 -0.47406,3.31853c-0.16638,1.05148 -0.35141,2.15016 -0.55823,3.2711c-0.20721,1.12305 -0.4184,2.22409 -0.66489,3.27112c-0.4407,1.87206 -0.694,2.64232 -0.94183,3.30588c-0.21771,0.58292 -0.44699,1.08331 -0.66489,1.52177c-0.19666,0.39571 -0.40033,0.74786 -0.55823,1.09511c-0.30563,0.6721 -0.39865,1.04713 -0.47406,1.43486c-0.07739,0.39789 -0.12283,0.80862 -0.15289,1.22311c-0.03,0.41365 -0.04166,0.82326 -0.04623,1.22311c-0.00864,0.75215 -0.00314,1.0963 -0.00314,1.41907c0,0.864 0.03183,2.09975 -0.01068,2.80968c-0.04272,0.71373 -0.35104,1.68123 -0.83594,2.38103c-0.56339,0.8131 -1.08438,1.35593 -1.76041,2.41107c-0.24594,0.38387 -0.70023,1.23825 -0.89917,1.70667c-0.41769,0.98344 -0.62579,1.51515 -0.94696,3.26953c-0.11227,0.6132 -0.16193,1.239 -0.2876,2.45886c-0.05966,0.57921 0.09039,1.18707 -0.39505,2.46913c-0.31876,0.84181 -1.27448,1.16917 -2.21274,1.18518c-0.7359,0.01254 -1.55734,0 -2.89462,0c-0.7854,0 -1.6087,0 -2.43201,0c-1.15201,0 -1.81885,0 -2.68286,0c-0.75732,0 -1.70865,0 -2.6568,0c-0.94815,0 -1.8963,0 -2.60739,0l-0.94894,0.0004l-0.76089,0.02489l-0.93155,0.11023" id="svg_14" stroke-linecap="null" stroke-linejoin="null" stroke-dasharray="null" stroke-width="5" stroke="#000000" fill="none"/> <path d="m210.96295,80.59223c8.2963,1.46816 8.86659,1.58281 9.34874,1.69292c0.84637,0.1933 1.17307,0.28374 1.47911,0.36624c0.54633,0.14726 1.24605,0.33715 1.77779,0.44772c0.28674,0.05962 1.00772,0.18952 1.44749,0.2656c0.50179,0.0868 1.74934,0.2973 2.5047,0.4249c0.83121,0.14041 1.7193,0.29043 2.64532,0.44685c0.94499,0.15963 1.88998,0.31926 2.81601,0.47569c0.88809,0.15002 2.47398,0.41814 3.14035,0.53041c0.58211,0.09807 1.0912,0.18366 1.54666,0.25706c0.40222,0.06482 0.76955,0.12161 1.12,0.17058c0.32944,0.04602 1.01067,0.12804 1.37996,0.16737c0.38286,0.04078 0.78477,0.08025 1.19466,0.12012c0.41344,0.04021 0.83583,0.07788 1.63715,0.16016c0.75977,0.07801 1.41946,0.16233 2.08592,0.24024c0.70493,0.08241 1.54741,0.1656 2.61688,0.24024c0.61833,0.04316 1.30624,0.08075 2.03378,0.11832c0.75157,0.03881 1.52177,0.07354 2.28978,0.10751l0.75377,0.03157" id="svg_15" stroke-linecap="null" stroke-linejoin="null" stroke-dasharray="null" stroke-width="5" stroke="#000000" fill="none"/> <path d="m189.62962,64c7.29758,2.60741 7.8611,2.84225 8.40849,3.08148c1.07487,0.46976 1.6028,0.72111 2.69432,1.18519c1.13969,0.48456 1.74763,0.71182 2.37036,0.95131c0.63672,0.24487 1.93715,0.75047 2.5853,1.03032c0.64932,0.28036 1.30507,0.55221 2.50943,1.25788c0.59492,0.34859 1.16107,0.75685 1.74577,1.17333c0.61319,0.43678 1.26065,0.90955 1.98044,1.38667c0.78342,0.51929 1.64607,1.09217 3.77995,2.18074c1.23842,0.63177 2.61998,1.23533 4.09956,1.84177c1.54489,0.63322 3.15381,1.23695 4.80356,1.79912c1.65234,0.56306 3.29018,1.12457 6.50429,1.88997c1.49683,0.35645 2.9333,0.59832 4.29156,0.77867c1.27487,0.16927 2.47314,0.27074 3.58755,0.33067c1.02779,0.05527 1.96896,0.07111 3.57767,0.07585c0.66528,0.00196 1.24524,0 1.74934,0c0.43773,0 0.81856,0 1.15199,0c0.2955,0 0.56258,0 1.04929,0c0.23743,0 0.47723,0 0.72177,0c0.25166,0 0.5128,0 0.78578,0l0.28722,0l0.3038,0" id="svg_16" stroke-linecap="null" stroke-linejoin="null" stroke-dasharray="null" stroke-width="5" stroke="#000000" fill="none"/> <path d="m239.40756,40.29629c8.32828,2.43669 8.97592,2.65616 9.60774,2.88925c1.2738,0.46992 1.92004,0.73282 2.5914,1.00258c0.70282,0.28241 2.22784,0.90657 3.06659,1.25064c0.89607,0.3676 1.85207,0.76116 2.86867,1.18605c1.08344,0.45283 2.23404,0.9397 3.45294,1.46511c1.29507,0.55824 4.11224,1.80103 5.64175,2.49206c1.6337,0.73809 3.38388,1.542 5.27072,2.4186c2.04733,0.95117 4.26801,1.99441 6.68274,3.13621c2.63116,1.24415 8.60666,4.09208 11.97598,5.70431c3.57358,1.70996 7.28101,3.48837 11.05673,5.29899c3.77576,1.81063 7.48389,3.58804 11.05676,5.299l3.37,1.6113" id="svg_17" stroke-linecap="null" stroke-linejoin="null" stroke-dasharray="null" stroke-width="5" stroke="#000000" fill="none"/> <path d="m374.51852,35.55556c3.65668,3.65669 4.1908,4.19082 4.75336,4.75338c0.58154,0.58154 1.17255,1.17253 1.76358,1.76356c0.58151,0.58152 1.14407,1.1441 2.17441,2.17442c0.45117,0.45116 0.85965,0.85966 1.5676,1.5676c0.59418,0.59417 1.08826,1.13759 2.08908,2.07961c0.61447,0.57835 1.03467,0.896 1.52338,1.27684l0.58823,0.43773l0.70441,0.5041" id="svg_18" stroke-linecap="null" stroke-linejoin="null" stroke-dasharray="null" stroke-width="5" stroke="#000000" fill="none"/> <path d="m412.44443,94.81482c1.04968,3.13205 1.67697,3.92243 2.04169,4.32671c0.7565,0.83857 1.16113,1.23884 1.55496,1.63714c1.08893,1.10126 1.74509,1.72276 2.27991,2.38183c0.53918,0.66444 0.80115,1.04096 1.47198,2.42252c0.25684,0.52895 0.47815,1.1096 0.99713,2.31822c0.26981,0.62835 0.54474,1.26637 0.86401,1.888c0.63644,1.23922 1.00443,1.82615 1.82953,2.90489c0.40961,0.53551 0.85709,1.03878 1.31201,1.53244c0.45456,0.49325 1.87161,1.92098 2.3447,2.39565c0.47189,0.47347 0.94193,0.94426 1.39731,1.42223c0.89615,0.94057 1.32443,1.41181 1.71933,1.89629c1.13559,1.39324 1.41907,1.8963 1.71536,2.37038l0.52145,0.94814l0.22519,0.47408l0.37927,0.94815" id="svg_19" stroke-linecap="null" stroke-linejoin="null" stroke-dasharray="null" stroke-width="5" stroke="#000000" fill="none"/> <path d="m410.07407,170.66667c0.01068,3.08148 -0.02261,3.83493 0.39505,4.74074c0.35416,0.76807 1.01495,1.48289 1.30212,2.09857c0.46664,1.00047 0.55206,1.84149 0.72256,2.74094c0.09225,0.48666 0.30832,1.54475 0.74075,2.66667c0.23605,0.61244 0.54343,1.22878 0.89246,1.84177c0.70532,1.23865 1.11728,1.80635 1.52176,2.34509c0.38312,0.51033 1.48544,1.66519 2.112,2.12267l0.82135,0.33067" id="svg_20" stroke-linecap="null" stroke-linejoin="null" stroke-dasharray="null" stroke-width="5" stroke="#000000" fill="none"/> <path d="m142.22221,120.88889c3.13205,0.52504 3.92659,0.82776 4.74074,1.23457c0.83311,0.41628 1.98235,1.12591 2.31941,1.37284c0.93405,0.68427 1.45332,1.17957 1.94409,1.65926c0.96529,0.94353 1.45872,1.46564 1.98479,2.06696c0.29173,0.33347 1.26012,1.56597 1.6245,2.06341c0.38797,0.52963 1.19467,1.65334 1.60869,2.22025l0.41403,0.55505l0.40929,0.53136l0.3998,0.4958" id="svg_21" stroke-linecap="null" stroke-linejoin="null" stroke-dasharray="null" stroke-width="5" stroke="#000000" fill="none"/> </g> </svg>