 <svg width="640" height="480" xmlns="http://www.w3.org/2000/svg" xmlns:svg="http://www.w3.org/2000/svg"> <!-- Created with SVG-edit - http://svg-edit.googlecode.com/ --> <g> <title>Layer 1</title> <path d="m-560.12506,-429.9375c-0.24945,1.30594 -0.73071,1.84912 -1.61145,2.48755c-0.6983,0.50616 -1.27551,0.86252 -1.86182,1.35321c-1.02386,0.8569 -1.37872,1.22772 -2.09772,2.11798c-0.41071,0.50854 -0.8147,1.10577 -1.2243,1.78455c-0.45221,0.74942 -1.37543,2.56274 -1.84528,3.63412c-0.5033,1.14761 -0.98486,2.36819 -1.41919,3.6391c-0.43665,1.27768 -0.78302,2.56573 -1.08508,3.82135l-0.22443,1.20663" id="svg_1" stroke-width="5" stroke="#000000" fill="none"/> <line id="svg_2" y2="-429.375" x2="-591.62507" y1="-428.25" x1="-528.06257" stroke-width="5" stroke="#000000" fill="none"/> <path d="m-590.32428,-355.96875c-1.08252,1.0509 -1.83551,1.55045 -2.50256,1.85962c-1.06812,0.49506 -1.49335,0.63028 -2.46301,1.03354c-0.54089,0.22495 -1.10712,0.45825 -2.26782,0.95578c-0.5788,0.24811 -1.6842,0.72739 -2.6532,1.19415c-0.84021,0.40472 -1.56927,0.72897 -2.08832,1.11249c-0.98883,0.73065 -0.78662,1.74533 -0.59064,2.47177c0.22656,0.83975 0.44928,1.70618 0.60229,2.5387c0.14642,0.79663 0.30029,1.86102 0.46277,2.67047c0.15686,0.78146 0.43738,1.84363 0.64636,2.69397c0.20929,0.8515 0.52399,1.5741 0.71777,2.58044c0.16602,0.86215 0.073,1.77658 0,2.63336c-0.06702,0.78647 -0.26276,1.88028 -0.28693,2.59216c-0.02594,0.76523 -0.01813,1.76706 -0.01813,2.64709c0,0.76865 0.57343,1.96735 -0.0014,2.77979c-0.41925,0.59253 -1.50635,-0.04291 -2.22662,0.30844c-0.91614,0.44687 -1.43677,1.02518 -1.66461,1.88229c-0.25116,0.94485 -0.2157,1.36725 -0.16705,2.3009c0.05902,1.13309 0.30768,2.45407 0.45728,3.15875c0.15271,0.7193 0.32977,1.43448 0.53204,2.12863c0.19464,0.668 0.22528,1.38834 1.07672,2.72894c0.53455,0.84171 1.52863,0.8259 2.2428,1.37161c0.77289,0.59058 0.93329,1.64835 1.39154,2.30264c0.52893,0.75519 1.44391,1.18738 1.52338,2.00098c0.08179,0.83746 0,1.65543 0,2.31143c0,0.73196 -0.00171,1.94464 0.00146,2.81244c0.0033,0.90323 0.01398,1.83185 0.02557,2.30237c0.03503,1.42249 0.08563,2.37445 0.11768,2.85272c0.06476,0.96573 0.15253,1.94693 0.27716,2.94638c0.12787,1.0257 0.21136,1.54504 0.38232,2.59717c0.08643,0.5318 0.27185,1.60147 0.46143,2.67627c0.18927,1.07297 0.28192,1.60422 0.47461,2.64331c0.09357,0.50458 0.26453,1.47537 0.5697,2.78296c0.18195,0.77957 0.38092,1.50146 0.62366,2.1756c0.36157,1.00403 0.672,1.67288 1.19946,2.66815c0.35156,0.6633 0.91772,1.60309 1.3125,2.18036c0.39185,0.57291 1.07214,1.43069 1.93726,2.31525c0.32196,0.32919 1.04919,1.00189 1.44116,1.35001c0.81653,0.72525 1.2439,1.09082 2.56665,2.1832c0.44104,0.36426 0.88184,0.72375 1.76178,1.42004c0.43188,0.34174 1.28217,0.99875 1.70099,1.30865c1.19214,0.88208 1.94629,1.40067 2.6676,1.85919c0.67139,0.42679 1.61176,0.96988 2.48633,1.37259c0.54016,0.24872 1.34369,0.54675 2.42084,0.92706c0.82727,0.29208 1.38824,0.4736 2.46631,0.92386c0.79559,0.33228 1.56262,0.71667 2.3692,0.99524c0.8111,0.28012 1.67908,0.51291 2.84766,0.36914c0.61658,-0.07587 1.52509,-0.44928 2.12738,-0.71207c1.16473,-0.50821 1.97314,-0.83981 2.69873,-1.18051c0.8717,-0.40933 1.59344,-0.91013 2.10785,-1.28244c0.87256,-0.63156 1.6109,-1.04205 2.42102,-1.68054c0.58838,-0.46375 1.117,-1.34882 1.40942,-1.79556c0.5202,-0.79471 1.25366,-1.67599 1.84875,-2.30328c0.62921,-0.66327 0.97601,-0.97647 1.60364,-1.66165c0.89838,-0.98083 1.38892,-1.64798 1.84082,-2.29727c0.44067,-0.63318 1.08014,-1.58929 1.53418,-2.22311c0.46228,-0.64529 0.94977,-1.29242 1.35925,-2.00476c0.63074,-1.09726 0.92645,-1.92944 1.06061,-2.35913c0.27686,-0.88687 0.48242,-1.84244 0.60748,-2.85904c0.1311,-1.06552 0.14838,-1.61282 0.18457,-2.69604c0.01764,-0.52734 0.02185,-1.52777 0.02655,-2.81259c0.00256,-0.69818 0.01697,-1.62048 0.08087,-2.22223c0.14893,-1.40201 0.25751,-1.79993 0.39355,-2.65781c0.14386,-0.90726 0.32233,-2.31982 0.35931,-2.79428c0.07269,-0.93195 0.10156,-1.81989 0.11102,-2.63123c0.01178,-1.00803 -0.00128,-2.05621 0.00433,-2.89532c0.00574,-0.85544 0.05713,-1.85461 0.16473,-2.69406c0.07928,-0.61874 0.26483,-1.75049 0.48578,-2.5408c0.28467,-1.01801 0.51324,-1.58066 0.80011,-2.41922c0.34503,-1.00854 0.57123,-1.91418 1.17676,-2.42557c0.77942,-0.65829 1.53754,-0.99475 1.97565,-1.49429c0.78802,-0.89853 1.04468,-1.68631 1.25043,-2.78101c0.10822,-0.57581 0.15692,-1.48447 0.10297,-2.39963c-0.05347,-0.90744 -0.20953,-1.77466 -0.37244,-2.57855c-0.18933,-0.93427 -0.35242,-1.85153 -0.61926,-2.76581c-0.28314,-0.97012 -0.5462,-1.52948 -0.83173,-2.34589c-0.34955,-0.99954 -0.80334,-1.70966 -1.56732,-2.20325c-0.78015,-0.50403 -0.96454,-1.27249 -0.97711,-1.93857c-0.0166,-0.87933 0.0033,-1.98068 -0.01514,-2.8302c-0.01996,-0.92084 -0.03143,-1.40411 -0.15344,-2.38992c-0.12543,-1.01315 -0.36987,-2.02994 -0.53314,-2.54068c-0.34186,-1.0694 -0.58337,-1.61676 -0.85938,-2.17499c-0.91956,-1.85995 -1.36963,-2.49533 -1.80231,-3.17676c-0.4469,-0.70383 -0.9184,-1.41263 -1.39587,-2.12769c-0.47717,-0.71469 -0.95514,-1.41754 -1.41003,-2.11343c-0.85968,-1.31522 -1.23248,-1.93646 -1.5791,-2.52408c-0.32697,-0.55429 -0.62421,-1.08478 -0.9198,-1.57855c-0.54767,-0.91476 -1.39661,-2.08325 -1.71869,-2.40543c-0.62732,-0.62759 -1.32324,-1.14236 -2.03894,-1.55292c-1.00616,-0.57718 -1.67188,-0.8486 -2.6496,-1.21622c-0.68402,-0.25717 -1.85913,-0.63876 -2.76123,-0.94061c-0.47742,-0.15976 -1.45142,-0.48831 -1.9339,-0.65561c-0.92615,-0.32114 -2.11591,-0.75537 -2.73407,-1.01108c-0.93079,-0.38504 -1.74481,-0.74789 -2.50427,-0.95828c-0.9165,-0.25388 -1.82825,-0.36328 -2.67413,-0.8457c-0.78815,-0.44952 -1.4826,-0.78568 -2.54242,-0.95605c-0.70514,-0.11337 -1.42627,-0.32224 -2.48907,-0.43875c-0.88855,-0.09741 -1.8396,-0.24289 -2.67255,0.20755c-0.67706,0.36615 -1.1405,1.01749 -1.85693,1.57761c-0.77142,0.60315 -1.60669,1.12939 -2.15515,1.49628c-0.83466,0.55832 -1.64838,1.20502 -2.15515,1.69168c-0.71912,0.69058 -1.38672,1.51938 -2.04761,1.95718c-0.74707,0.49487 -1.64032,0.79785 -2.33301,1.03433l-1.03418,0.28616l-0.70636,0.20145" id="svg_3" stroke-width="5" stroke="#000000" fill="none"/> <path d="m-590.00787,-331.92188c0.91083,-0.07007 1.57788,-0.58575 2.3064,-0.63138c0.96014,-0.06012 1.85352,-0.42392 2.71771,-0.2478c0.77197,0.15732 1.50885,0.57944 2.14777,1.19559l0.54846,0.62143l0.88593,0.01138l0.88593,0" id="svg_4" stroke-width="5" stroke="#000000" fill="none"/> <path d="m-566.59381,-333.1875c0.87244,0.31641 1.78229,0.46259 2.68439,0.31598c0.7901,-0.12839 1.41522,-0.6713 2.21698,-1.29388c0.60071,-0.46649 1.54065,-0.73508 2.43927,-0.92053c0.75458,-0.15573 1.51874,0 2.14819,0.50964l0.5459,0.46658" id="svg_5" stroke-width="5" stroke="#000000" fill="none"/> <path d="m-587.16022,-324.01172c-1.5293,0 -2.46979,-0.1185 -3.24084,0.29831c-0.61804,0.33411 -0.82385,1.32568 -0.55603,2.19583c0.27588,0.89621 1.11517,1.0896 1.84106,1.40189c1.07373,0.46194 1.76685,0.78998 2.6217,0.84866c0.98163,0.06738 1.87463,0.00281 2.77155,0.0014c0.90356,-0.00143 1.85205,-0.06924 2.49286,-0.37503c0.86377,-0.4122 1.93774,-0.36368 2.4895,-0.91c0.64661,-0.64023 0.43933,-1.57275 0.43958,-2.54813c0.00018,-0.87665 -0.15497,-1.8551 -0.91248,-2.20471c-0.828,-0.38217 -1.62567,-0.31583 -2.67767,-0.28983c-0.94617,0.02341 -1.62396,0.16437 -2.55573,0.40948l-0.8783,0.31277l-0.7594,0.40836l-0.77606,0.33942" id="svg_6" stroke-width="5" stroke="#000000" fill="none"/> <path d="m-562.79694,-324.01172c-1.42383,0 -2.38519,-0.27155 -3.15601,0.13797c-0.75201,0.39951 -1.50507,0.98987 -1.85223,1.83731c-0.33154,0.80936 0.42261,1.65237 0.9397,2.26584c0.54095,0.64178 1.54883,1.07886 2.29584,1.13654c0.97412,0.07523 1.80127,0.06039 2.74725,-0.17847c0.83472,-0.21075 1.68597,-0.58319 2.45068,-1.03867c0.75397,-0.44907 1.69977,-0.49753 2.31396,-1.05508c0.68475,-0.62158 0.73431,-1.57217 0.90533,-2.41989c0.15967,-0.79138 0.65228,-1.84171 0.12323,-2.44601c-0.5744,-0.65613 -1.758,-0.45438 -2.59454,-0.31305l-0.7674,0.43961l-0.74841,0.49445" id="svg_7" stroke-width="5" stroke="#000000" fill="none"/> <path d="m-576.71881,-311.98828c0.54297,0.79608 0.63281,1.69193 0.63281,2.62619c0,0.88586 -0.30164,1.62909 -0.92261,2.21021c-0.56989,0.53326 -1.34155,0.79572 -2.16803,1.12134c-0.81909,0.32272 -1.44684,0.69156 -2.07349,1.35126c-0.5802,0.61081 -0.68988,1.43677 -0.841,2.33481c-0.14838,0.88156 0.09888,1.79956 0.57349,2.53784l0.80597,0.38281l0.63098,0.25549" id="svg_8" stroke-width="5" stroke="#000000" fill="none"/> <path d="m-567.85944,-312.30469c-0.28937,1.10236 -0.54791,2.05893 -0.21094,2.90039c0.30634,0.76492 1.06384,1.37222 1.85968,1.64111c0.92749,0.31339 1.81006,0.02121 2.71429,0.07339c0.68481,0.03952 1.05969,0.92755 1.36816,1.93808c0.26611,0.87177 0.16614,1.67813 -0.18945,2.495l-0.60663,0.68088l-0.81128,0.34933l-0.62646,0.41006" id="svg_9" stroke-linecap="null" stroke-linejoin="null" stroke-dasharray="null" stroke-width="5" stroke="#000000" fill="none"/> <path d="m-575.45319,-301.54688c0.91449,1.02463 1.12769,0.82605 0.3717,0.36365l-0.78015,-0.36365" id="svg_10" stroke-linecap="null" stroke-linejoin="null" stroke-dasharray="null" stroke-width="5" stroke="#000000" fill="none"/> <polyline id="svg_12" points="-569.1250363003473,-301.54686914985047 -569.61989569157,-301.23847851474056 -568.793020664463,-300.8516191270584 " stroke-linecap="round" stroke-linejoin="null" stroke-dasharray="null" stroke-width="5" stroke="#000000" fill="none"/> <path d="m-581.78131,-287.625c1.10742,0.31641 1.90326,0.15268 2.83435,0.03845c0.90381,-0.11087 1.78259,-0.0549 2.39313,0.01556c1.04199,0.12027 1.72357,0.35495 2.94635,0.52606c0.78662,0.11008 1.66956,0.16489 2.12915,0.19116c0.92657,0.05298 2.24811,0.08548 3.02155,0.06113c0.99353,-0.03128 1.81488,-0.1102 2.70337,-0.1734c0.85797,-0.061 1.69958,-0.42163 2.60339,-0.60495c0.91608,-0.18582 1.78577,-0.01801 2.67511,-0.24722c0.83954,-0.21637 1.70044,-0.61572 2.58228,-0.74942c0.81726,-0.1239 1.73151,-1.36707 2.46204,-0.82327c0.36578,0.27225 -0.84961,1.32703 -1.39087,1.92538c-0.28583,0.31595 -0.84344,0.95111 -1.78766,1.94229c-0.60303,0.63303 -1.30847,1.17865 -1.88068,1.56985c-0.70239,0.48019 -1.53979,0.99158 -2.45221,1.51532c-0.5979,0.3432 -1.68024,0.88016 -2.35156,1.34875c-0.7171,0.50055 -1.37335,1.02557 -2.09418,1.25592c-0.92804,0.29657 -1.83752,0.86844 -2.50482,1.16293c-0.75604,0.33365 -1.68988,0.76297 -2.5152,0.98587c-0.89087,0.2406 -1.74902,0.26569 -2.53619,0.35501c-0.94312,0.10703 -1.79132,-0.09225 -2.69885,-0.4823c-0.73047,-0.31396 -1.45166,-0.66595 -2.11517,-1.40601c-0.65424,-0.72974 -1.06244,-1.35822 -1.6767,-2.16891c-0.42902,-0.56619 -0.82782,-1.40591 -1.17053,-2.1629l-0.32556,-0.75699l-0.47321,-1.03845l-0.40228,-0.78391" id="svg_13" stroke-linecap="null" stroke-linejoin="null" stroke-dasharray="null" stroke-width="5" stroke="#000000" fill="none"/> <path d="m-600.44928,-341.73047c1.54077,-1.26056 1.97675,-1.61823 2.96411,-2.42239c0.52264,-0.42566 1.0462,-0.85217 1.56006,-1.26437c1.32593,-1.06363 1.90845,-1.56903 2.64691,-2.00473c0.85944,-0.50705 1.53302,-0.80814 2.19879,-1.16354c0.974,-0.51993 1.6615,-0.73685 2.50195,-0.91046c0.75513,-0.15598 1.60907,-0.30591 2.4917,-0.47745c1.24683,-0.24231 1.94684,-0.39636 2.8147,-0.60324c0.72675,-0.17325 1.84656,-0.39612 2.54785,-0.55023c1.05634,-0.23212 1.94739,-0.53018 2.57397,-0.71539c0.91418,-0.27023 1.74487,-0.49677 2.66309,-0.45483c0.98907,0.04517 1.76111,0.22589 2.58197,0.45938c0.96252,0.2738 1.74475,0.63278 2.31439,0.8363c1.17883,0.42117 1.79926,0.57266 2.74512,0.79593c0.64453,0.15216 1.97253,0.46082 2.63422,0.63617c0.64099,0.16986 1.77814,0.51691 2.67847,0.7999c0.60626,0.19055 1.76733,0.42343 2.57611,0.55923c0.79736,0.13388 1.68298,0.39026 2.5022,0.80084c0.78809,0.39499 1.49615,0.68134 2.44012,0.99597c0.73193,0.24396 1.72668,0.53983 2.64447,0.56964c0.93494,0.03036 1.7627,0.19492 2.53162,0.63281c0.81189,0.46237 1.65717,0.73648 2.4234,0.80325c0.87085,0.0759 2.69934,0.42294 2.58948,-0.48642c-0.07404,-0.61264 -1.41351,-0.26556 -2.61902,-0.45013c-0.72198,-0.11053 -1.50134,-0.22748 -2.32135,-0.3479c-0.84344,-0.12387 -1.69373,-0.24722 -2.53485,-0.36212c-1.58435,-0.2164 -2.29974,-0.30261 -2.96368,-0.37799c-0.62109,-0.07053 -1.20874,-0.13293 -2.31946,-0.23206c-0.54016,-0.04822 -2.20819,-0.18057 -2.80646,-0.2305c-0.61969,-0.0517 -1.89355,-0.16666 -2.53278,-0.23434c-0.6319,-0.06693 -1.25671,-0.0928 -2.93335,-0.4021c-0.93762,-0.17297 -1.35345,-0.28885 -2.45654,-0.66064c-0.6936,-0.23376 -1.76099,-0.63669 -2.54303,-0.8735c-0.8045,-0.24362 -1.61499,-0.47632 -2.80511,-0.68069c-0.73175,-0.12564 -1.42706,-0.18228 -2.40198,-0.20523c-0.92004,-0.02167 -1.81494,-0.00821 -2.41663,0.00089c-0.9422,0.01425 -1.96899,0.05786 -2.69611,0.10641c-1.07611,0.07187 -1.74689,0.04572 -2.93219,0.30261c-0.79535,0.17239 -1.68231,0.66458 -2.38525,0.96393c-1.0271,0.43741 -1.57849,0.59848 -2.40808,0.8287c-0.82593,0.22919 -1.90344,0.53168 -2.6499,0.79102c-0.66577,0.23129 -1.74023,0.61963 -2.61926,0.79425l-0.9024,0.00336l-0.86786,-0.0181" id="svg_14" stroke-linecap="null" stroke-linejoin="null" stroke-dasharray="null" stroke-width="5" stroke="#000000" fill="none"/> </g> </svg>