<svg xmlns="http://www.w3.org/2000/svg" xmlns:svg="http://www.w3.org/2000/svg" width="640" height="480"> <!-- Created with SVG-edit - http://svg-edit.googlecode.com/ --><g> <title>Layer 1</title> <ellipse ry="134" rx="78" id="svg_4" cy="222" cx="285" stroke-width="5" stroke="#000000" fill="#FF0000"/> <path d="m252,294c1.7,0.99551 2.44835,1.24203 3.084,1.716c0.76881,0.57327 1.8524,-0.11874 2.63066,0.36932c0.74042,0.46436 1.28534,0.91467 2.08533,0.91467c0.90002,0 1.80002,0 2.70001,0c0.89999,0 1.827,-0.08749 2.66666,0.16666c0.86667,0.26233 1.63721,0.87589 2.3125,1.3125c0.79828,0.51611 1.49179,0.50052 2.52618,0.52533c0.74445,0.01785 1.84952,0.22122 2.57333,0.57019c0.84021,0.40509 1.75656,0.58527 2.42667,0.77798c0.74615,0.21457 1.84567,0.58215 2.68567,0.64285c0.9108,0.06583 1.53564,0.00449 2.51566,0.00449c0.85666,0 1.79333,0 2.73001,0c0.44333,0 1.84549,0.01923 2.58417,-0.02084c0.78598,-0.04263 1.90735,-0.19922 2.89514,-0.33182c0.5361,-0.07196 1.63187,-0.22311 2.16803,-0.29468c1.41559,-0.18893 2.11053,-0.25806 2.87433,-0.35266c1.21051,-0.14993 1.87784,-0.28302 2.64297,-0.42532c0.79755,-0.14835 1.55667,-0.33121 2.76001,-0.48935c0.76505,-0.10052 1.90668,-0.08533 2.63867,-0.08533c0.73199,0 1.828,0 2.70001,0c0.89999,0 1.79999,0 2.59998,0c0.90002,0 1.80002,0 2.70001,0c0.89999,0 1.79999,0 2.70001,0c0.89999,0 1.80084,0.0372 2.59998,0c0.91766,-0.04272 1.41525,-0.93912 2.30002,-1c0.89786,-0.0618 1.8364,0.40274 2.61465,-0.08533c0.74042,-0.46436 0.95566,-1.46133 1.64252,-1.85751c0.81458,-0.46982 1.39227,-0.53088 1.64731,-1.35266c0.23682,-0.76309 1.00082,-1.31509 0.99551,-2.2045c-0.00531,-0.88959 -0.65186,-1.17642 -1.43201,-1.58401c-0.80396,-0.42004 -1.1156,-1.36206 -1.85333,-1.83066c-0.69144,-0.43921 -1.67499,-0.31561 -2.41467,-0.73267c-0.745,-0.42004 -0.85904,-1.08987 -1.336,-1.91666c-0.39761,-0.68921 -1.564,-0.43591 -2.48483,-0.436c-0.80032,-0.00009 -1.65622,0.02759 -2.45831,-0.5c-0.66745,-0.43903 -1.54309,-0.45071 -2.50351,-0.50266c-0.65869,-0.03561 -1.18167,-0.80475 -1.60001,-1.42935c-0.5144,-0.76801 -1.68628,-0.54694 -2.41733,-0.58884c-0.73361,-0.04205 -1.75385,-0.56546 -2.60001,-0.85767c-0.85843,-0.29642 -1.70016,-0.10349 -2.60001,-0.12149c-0.90054,-0.01801 -1.65927,-0.53989 -2.46664,-0.83334c-0.77951,-0.28333 -1.52847,-0.78024 -2.26935,-1.13065c-0.78171,-0.36972 -1.76401,-0.03601 -2.664,-0.03601c-0.89999,0 -1.69998,0 -2.60001,0c-0.89999,0 -1.79999,0 -2.69998,0c-0.89999,0 -1.80002,0 -2.70001,0c-0.89999,0 -1.83035,-0.39297 -2.61465,0.08533c-0.80365,0.49008 -1.38974,0.82599 -2.28534,0.91467c-0.8457,0.08374 -1.21524,0.93912 -2.10001,1c-0.89786,0.0618 -1.6774,0.1243 -2.5,0.57468c-0.78036,0.42728 -1.69998,0.42532 -2.60001,0.42532c-0.89999,0 -1.80084,-0.0372 -2.59998,0c-0.91766,0.04272 -1.46423,0.70108 -2.116,1.284c-0.63809,0.57068 -1.384,0.716 -2.28403,0.716c-0.89999,0 -1.79999,0 -2.59998,0c-0.90002,0 -1.6008,0.20023 -2.28403,0.716c-0.61533,0.46454 -1.616,0.284 -2.51599,0.284c-0.89999,0 -1.79999,0 -2.7,0l-0.89999,0" id="svg_9" stroke-width="5" stroke="#000000" fill="none"/> <path d="m297,223c0,2.58934 0,3.5 0,4.39999c0,0.90001 0,1.8 0,2.70001c0,0.89999 0,1.7 0,2.536c0,0.856 0,1.75467 0,2.392c0,1.2785 0,1.79066 0,2.888c0,0.56317 0,1.6635 0,2.17867c0,1.59734 0,2.34283 0,3.40533c0,0.8625 0,1.52083 0,2.19917c0,1.25833 0,2.06082 0,2.86333c0,0.9375 0,1.68817 0,2.50284c0,0.82266 -0.0498,1.59837 0.00449,3.015c0.0275,0.71739 0.27951,1.68767 0.49551,2.41966c0.216,0.73199 0.48199,1.82751 0.5,2.79999c0.01666,0.89987 0,1.80002 0,2.70001c0,0.79999 0.39337,1.81339 -0.03601,2.564c-0.39508,0.69064 -1.564,0.436 -2.46399,0.436c-0.89999,0 -1.79999,0 -2.70001,0c-0.89999,0 -1.79999,0 -2.59998,0c-0.90002,0 -1.836,0 -2.68402,0c-0.86331,0 -1.75882,0 -2.716,0c-0.89999,0 -1.79999,0 -2.59998,0c-0.90002,0 -1.80002,0 -2.70001,0c-0.89999,0 -1.79999,0 -2.70001,0l-0.89999,0l-0.89999,0l-0.79999,-0.08533" id="svg_10" stroke-width="5" stroke="#000000" fill="none"/> <path d="m241,196c-1.7,0 -2.60005,-0.00957 -3.5,0c-0.97934,0.01042 -1.35165,0.73093 -1.936,1.38933c-0.61523,0.69321 -1.24062,1.17953 -2,1.57468c-0.76711,0.39917 -1.86188,-0.12335 -2.51132,0.38866c-0.61462,0.48456 -1.37508,0.44926 -2.25134,0.64867c-0.80431,0.18303 -0.54776,1.5657 -1.23734,1.96268c-0.74571,0.42929 -1.37048,0.70738 -2.08482,1.01517c-0.89946,0.38754 -2.12567,-0.1637 -2.45834,0.54166c-0.37514,0.79539 -0.02092,1.77917 -0.02083,2.67917c0.00009,0.89984 0.29579,1.52902 1.09984,2.0215c0.61972,0.37958 0.83258,1.54738 1.60466,1.774c0.85927,0.25223 1.85522,-0.30539 2.68483,0.01517c0.79292,0.30638 1.31516,0.98708 2.21068,0.98933c0.89999,0.00226 1.78932,0.01067 2.39999,0.5c0.61067,0.48933 1.50371,0.4274 2.42134,0.51067c0.92145,0.08362 1.58453,0.35631 2.364,0.564c1.04305,0.27791 1.9864,0.35185 2.81332,0.50934c0.81165,0.15459 1.6017,0.52594 2.60117,1.01584c0.58972,0.28906 1.62204,0.80659 2.38951,0.8895c0.90546,0.09781 1.81065,0.01067 2.71066,0.01067c0.89999,0 1.8,0 2.7,0c0.8,0 1.7,0 2.60001,0c0.89999,0 1.79999,0 2.69998,0c0.90002,0 1.80002,0 2.70001,0c0.79999,0 1.48746,-0.18871 2.16666,-0.83333c0.63422,-0.60196 1.45618,-0.9165 1.8125,-1.6875c0.36459,-0.78889 0.59872,-1.17873 1.41019,-1.48984c0.74298,-0.28485 1.15387,-1.19263 1.48917,-2.08934c0.31808,-0.85063 0.12149,-1.7 0.12149,-2.59999c0,-0.90001 0.29761,-1.85509 -0.01068,-2.68933c-0.27582,-0.7464 -1.29306,-0.96378 -1.98932,-1.61067c-0.60327,-0.5605 -1.44022,-0.92087 -2.02084,-1.52083c-0.60638,-0.62659 -1.36359,-1.03993 -2.2175,-1.4265c-0.74399,-0.33681 -1.19714,-1.03467 -2.16165,-1.05267c-0.89984,-0.0168 -1.89789,0.15935 -2.54733,-0.35266c-0.61462,-0.48456 -1.35921,-0.54037 -2.25267,-0.64867c-0.91978,-0.11148 -1.45409,-0.80855 -2.40001,-0.98801c-0.88428,-0.16777 -1.79999,-0.01067 -2.7,-0.01067c-0.89999,0 -1.8,0 -2.7,0c-0.8,0 -1.7,0 -2.60001,0c-0.89999,0 -1.79999,0 -2.7,0c-0.89999,0 -1.8,0 -2.7,0l-0.8,0l-0.89999,0" id="svg_11" stroke-width="5" stroke="#000000" fill="none"/> <path d="m316,197c-1.70001,0 -2.70258,-0.39821 -3.564,0.036c-0.69888,0.35228 -1.23734,0.96333 -2.13602,0.964c-0.89999,0.00067 -1.79999,0 -2.69998,0c-0.89999,0 -1.80002,0 -2.70001,0c-0.89999,0 -1.69998,0 -2.60001,0c-0.89999,0 -1.66843,0.14409 -2.35266,0.64734c-0.6662,0.48999 -1.64734,0.35266 -2.54733,0.35266c-0.89999,0 -1.79999,-0.00067 -2.69998,0c-0.89868,0.00067 -1.37769,0.56679 -2.13602,0.964c-0.76221,0.39925 -1.54599,0.47144 -1.564,1.336c-0.01874,0.8998 0.2225,1.91591 -0.284,2.616c-0.50177,0.69356 -0.82303,1.39055 -0.71466,2.284c0.11157,0.91963 0.85028,1.21088 1.56265,1.82533c0.60931,0.52557 0.57343,1.42778 1.15201,2.05867c0.63651,0.69406 1.03439,1.36398 1.72,1.89067c0.65363,0.50214 1.55139,0.94029 2.36398,1.024c0.89529,0.09222 1.80002,0.00133 2.70001,0.00133c0.89999,0 1.79999,0 2.70001,0c0.89999,0 1.79999,0 2.59998,0c0.90002,0 1.80002,0 2.70001,0c0.89999,0 1.79999,0 2.70001,0c0.89999,0 1.79999,0 2.59998,0c0.90002,0 1.80005,0.0054 2.70001,0c0.8894,-0.00534 1.37717,-0.71667 2.11066,-0.98933c0.81461,-0.30281 0.94839,-0.74791 1.42535,-1.57466c0.39761,-0.68919 1.63596,-0.10789 2.44315,-0.45683c0.71399,-0.30864 1.37509,-1.02313 1.5195,-1.7805c0.16833,-0.88277 0.44254,-1.9243 -0.03467,-2.76266c-0.39359,-0.69148 -1.68732,-0.28935 -2.35333,-0.87201c-0.69781,-0.61049 -0.35205,-1.79063 -0.832,-2.44266c-0.51398,-0.69824 -1.25266,-1.01509 -1.97867,-1.40533c-0.85477,-0.45946 -1.59998,-0.71468 -2.5,-0.716l-0.89999,0l-0.89999,0l-0.89999,0" id="svg_12" stroke-width="5" stroke="#000000" fill="#ffff00"/> <path d="m282,100c0,-1.75716 0,-2.65266 0,-3.516c0,-0.96317 0,-1.7885 0,-2.8055c0,-0.69933 0,-1.6785 0,-2.48917c0,-0.87466 0.00955,-1.88184 -0.02133,-2.47867c-0.03632,-0.70222 -0.12302,-1.54343 -0.42151,-3.117c-0.11627,-0.61303 -0.26169,-1.24926 -0.41849,-1.899c-0.31339,-1.2986 -0.48026,-1.91999 -0.65601,-2.504c-0.436,-1.4487 -0.71832,-2.11449 -1.108,-2.86c-0.52567,-1.00567 -0.86121,-1.66554 -1.20001,-2.432c-0.35193,-0.79617 -0.6362,-1.59116 -1.15314,-2.5125c-0.45435,-0.80979 -1.21851,-1.34345 -2.12152,-1.38617c-0.89899,-0.04253 -1.78647,-0.02566 -2.39999,0.54166c-0.72232,0.66794 -0.95773,1.4852 -1.5,2.29167c-0.465,0.69154 -1.09735,1.48957 -1.5,2.16666c-0.49673,0.83529 -1.02048,1.45673 -1.45633,2.309c-0.33047,0.64622 -0.88928,1.46604 -1.33032,1.94167c-0.70044,0.75538 -1.43085,1.36957 -2.03067,2.07734c-0.61703,0.72807 -0.91473,1.48978 -1.7825,1.67216c-0.79233,0.16653 -1.27859,0.89303 -2.06683,1.1665c-0.85547,0.29678 -1.66669,0.83334 -2.33334,1.33334c-0.66666,0.5 -1.33243,0.9069 -2.10132,1.3c-0.80966,0.41396 -1.62709,0.80576 -2.42752,1.18583c-0.50934,0.24185 -1.80441,0.84768 -2.60599,1.221c-0.89041,0.4147 -1.84935,0.86025 -2.85451,1.3305c-1.03186,0.48273 -2.06891,0.97008 -3.0885,1.4565c-0.98439,0.46964 -2.75719,1.33617 -3.5085,1.7205c-0.67253,0.34402 -1.27774,0.66648 -1.839,0.963c-0.53275,0.28146 -1.05388,0.55626 -1.58699,0.819c-0.55484,0.27345 -1.81906,0.84167 -2.55833,1.14617c-0.79927,0.32922 -1.64966,0.66097 -2.532,0.9975c-0.89632,0.34185 -1.79414,0.6748 -2.67601,0.9975c-0.84882,0.31059 -2.38771,0.86333 -3.049,1.09784c-0.58675,0.20807 -1.10553,0.39005 -1.563,0.546c-0.40059,0.13655 -0.74594,0.27151 -1.328,0.42933c-1.07817,0.29233 -0.84479,0.68725 -0.06667,0.204c0.73207,-0.45464 0.9426,-1.46321 1.56134,-2.16533c0.44321,-0.50293 1.14108,-1.4768 1.63733,-2.06667c0.57542,-0.68399 1.42433,-0.75429 1.94534,-0.93733c1.02415,-0.35982 1.80281,-0.80149 2.64133,-1.26617c0.4258,-0.23596 1.23808,-0.73013 2.33566,-1.336c0.85947,-0.47443 1.59137,-0.85727 2.58534,-1.02133c0.77515,-0.12794 1.89236,-0.35305 2.403,0.5835c0.46022,0.84407 -0.37163,1.74073 -1.10934,2.20934c-0.6913,0.43912 -1.92378,0.63915 -1.27866,1.04933c0.72958,0.46388 1.78313,-0.23061 2.32117,-0.72566c0.75548,-0.69511 1.25151,-1.28252 1.92949,-1.75433c0.95384,-0.66379 1.53619,-0.82944 2.30351,-1.1795c1.0591,-0.48317 1.58513,-0.87901 2.31915,-1.3605c1.10703,-0.72616 1.59384,-0.99838 2.11118,-1.2975c1.09579,-0.63358 1.66138,-0.93853 2.22067,-1.23133c0.53815,-0.28172 1.94283,-0.95687 2.6955,-1.2c0.97914,-0.31629 1.69191,-0.44004 2.97,-0.87917c0.517,-0.17764 1.05704,-0.39309 2.19333,-0.836c0.57352,-0.22354 1.12164,-0.48504 2.66666,-1c0.79953,-0.26649 1.44916,-0.44418 2.42667,-0.496c0.99628,-0.05283 2.01633,-0.05304 2.42136,0.67867c0.42834,0.77384 0.4259,1.56362 0.63266,2.312c0.29016,1.05029 0.35608,1.79678 0.40533,2.611c0.03369,0.55686 0.11386,2.061 0.16882,3.04034c0.06372,1.13534 0.13654,2.42262 0.21451,3.85799c0.08578,1.57928 0.17636,3.29858 0.26849,5.154c0.09866,1.98724 0.29697,6.34194 0.39566,8.69801c0.10269,2.45193 0.20285,4.97606 0.31052,7.548c0.10867,2.59606 0.22061,5.19223 0.3465,7.764c0.12357,2.52423 0.39975,7.3327 0.56448,9.5715c0.15579,2.1172 0.32773,4.10826 0.52502,5.96849c0.18356,1.73076 0.38336,3.32655 0.61499,4.7805c0.20996,1.31799 0.67999,3.51915 0.9595,4.38867c0.24023,0.74734 0.50439,1.36894 0.79349,1.8615c0.24576,0.41873 0.51053,0.7437 0.77551,0.97951c0.22949,0.20422 0.67416,0.45355 0.867,0.53867c0.17157,0.07571 0.33142,0.13152 0.48148,0.16049c0.13937,0.02692 0.27658,0.03166 0.40952,0.01651c0.13538,-0.01543 0.42062,-0.09494 0.57367,-0.15685c0.16876,-0.06827 0.3511,-0.16551 0.53549,-0.30899c0.2135,-0.16614 0.43503,-0.39487 0.6615,-0.687c0.26483,-0.34161 0.82324,-1.27654 1.12399,-1.87434c0.33633,-0.66847 0.67255,-1.41426 1.01852,-2.22c0.36536,-0.85085 0.72778,-1.74516 1.09048,-2.67c0.36935,-0.94182 1.08508,-2.84869 1.42618,-3.79483c0.33621,-0.93257 0.65747,-1.85365 0.95398,-2.7645c0.29068,-0.8929 0.5585,-1.77216 0.79202,-2.6385c0.2276,-0.84447 0.58853,-2.48346 0.71115,-3.27483c0.11832,-0.76355 0.19662,-1.50189 0.2355,-2.20801c0.03683,-0.66879 0.03885,-1.29936 0.0015,-1.884c-0.03439,-0.53825 -0.18823,-1.45753 -0.315,-1.82283c-0.11154,-0.32141 -0.25385,-0.59128 -0.41849,-0.80251c-0.14822,-0.19019 -0.31812,-0.33563 -0.49051,-0.44249c-0.16046,-0.09946 -0.48053,-0.22083 -0.62698,-0.26266c-0.13766,-0.03932 -0.27255,-0.0674 -0.40652,-0.08551c-0.1351,-0.01826 -0.27594,-0.02693 -0.4245,-0.03149c-0.15945,-0.0049 -0.5235,-0.00406 -0.73364,-0.00467c-0.23117,-0.00068 -0.48438,-0.00274 -0.7605,-0.0105c-0.30023,-0.00844 -0.62549,-0.02285 -0.9765,-0.0465c-0.37836,-0.02549 -1.21985,-0.10674 -1.68384,-0.16433c-0.49072,-0.06091 -1.00296,-0.1338 -1.53302,-0.2145c-0.54462,-0.08292 -1.09888,-0.17338 -1.659,-0.2685c-0.56253,-0.09554 -1.67734,-0.29362 -2.22198,-0.39584c-0.53537,-0.10048 -1.0618,-0.20074 -1.57501,-0.321c-1.00375,-0.23521 -1.51434,-0.32005 -2.88,-0.912c-0.90326,-0.39152 -1.32242,-0.66608 -2.14581,-1.22916c-0.41696,-0.28515 -1.23041,-0.91286 -2.02084,-1.60416c-0.80865,-0.70724 -1.20572,-1.08079 -1.95834,-1.875c-0.37717,-0.39802 -1.10449,-1.22168 -1.70831,-2.125c-0.59946,-0.89678 -0.83282,-1.388 -1.33334,-2.35417c-0.25311,-0.48857 -0.74844,-1.49184 -1.33334,-2.47916c-0.29956,-0.50567 -0.97195,-1.49429 -1.32799,-1.97867c-0.35501,-0.48299 -1.08527,-1.41136 -1.45601,-1.85066c-1.0462,-1.23966 -1.38443,-1.60577 -2.02533,-2.26667c-0.56577,-0.58343 -1.45782,-1.5475 -2.18533,-1.796c-0.83148,-0.28401 -2.05444,-0.50238 -2.58667,0.17733c-0.56642,0.72338 -0.12711,1.84438 -0.78983,2.3575c-0.6964,0.5392 -1.56915,0.88846 -1.93834,1.70901c-0.38634,0.85868 -1.24594,1.79979 -0.85716,2.4815c0.34988,0.61351 1.70615,-0.27028 2.384,-0.54934c0.92175,-0.37947 1.58783,-0.28841 2.80133,-0.56933c0.5562,-0.12875 1.41777,-0.42347 2.31467,-0.71467c0.966,-0.31364 1.81149,-0.54581 2.34,-0.672c0.61638,-0.14717 1.33771,-0.31033 3.16,-0.66134c1.12411,-0.21653 2.40268,-0.4427 3.8385,-0.672c1.5921,-0.25426 3.3475,-0.50636 5.2695,-0.744c2.08698,-0.25804 4.3443,-0.528 9.392,-0.91733c2.78333,-0.21468 5.7207,-0.37205 8.77951,-0.501c3.15054,-0.13282 6.36609,-0.22337 9.61649,-0.26701c3.25598,-0.04372 6.49094,-0.08548 12.77066,0.10133c2.99457,0.08909 5.86972,0.25451 8.6145,0.471c2.6113,0.20596 5.07635,0.46169 7.3815,0.777c2.14789,0.2938 4.14227,0.55213 7.504,1.41867c1.41504,0.36475 2.64023,0.79876 3.66751,1.299c0.91208,0.44415 1.6799,0.95461 2.27249,1.533c0.55219,0.53896 1.03149,1.13953 1.56,2.50133c0.27304,0.70355 0.42682,1.48019 0.51151,2.2935c0.08908,0.85573 0.08069,1.77163 -0.0195,2.7345c-0.1069,1.02728 -0.27322,2.12965 -0.992,4.472c-0.39752,1.29545 -0.92935,2.62526 -1.5195,3.9885c-0.60544,1.39856 -1.27609,2.79111 -1.99649,4.1595c-0.71286,1.35405 -1.41577,2.68063 -2.98401,5.01866c-0.71738,1.06952 -1.45978,2.02032 -2.1915,2.8725c-0.68164,0.79384 -1.35947,1.49387 -2.02048,2.10751c-0.61108,0.56729 -1.19318,1.07242 -2.28802,1.85333c-0.47244,0.33698 -0.91833,0.6129 -1.32898,0.843c-0.36859,0.20653 -0.70993,0.37183 -1.02301,0.50099c-0.28,0.11552 -0.53604,0.207 -0.98132,0.32266c-0.18915,0.04913 -0.36075,0.084 -0.5145,0.10501c-0.13574,0.01854 -0.25681,0.02606 -0.36151,0.015c-0.09186,-0.0097 -0.18295,-0.02245 -0.29068,-0.12001c-0.05313,-0.04813 -0.08664,-0.12379 -0.1095,-0.213c-0.02771,-0.1082 -0.03882,-0.24519 -0.04648,-0.411c-0.00922,-0.19954 -0.00989,-0.43733 -0.01068,-1.04266c-0.00049,-0.37434 -0.00006,-0.79469 -0.00449,-1.257c-0.00479,-0.50035 -0.01382,-1.03474 -0.03152,-1.599c-0.01852,-0.59042 -0.03622,-1.20357 -0.13065,-2.47734c-0.04861,-0.6557 -0.11572,-1.3222 -0.20401,-1.9995c-0.09021,-0.69212 -0.20374,-1.39807 -0.34799,-2.1165c-0.14819,-0.73805 -0.30804,-1.49835 -0.78134,-3.05066c-0.24805,-0.81354 -0.54559,-1.63043 -0.858,-2.44951c-0.31161,-0.81696 -0.63837,-1.61453 -0.966,-2.3865c-0.31451,-0.74099 -0.62054,-1.43755 -1.17599,-2.664c-0.23407,-0.51682 -0.44318,-0.96971 -0.62851,-1.3665c-0.16278,-0.3485 -0.30832,-0.65465 -0.43948,-0.9255c-0.11789,-0.24345 -0.22781,-0.46542 -0.43201,-0.87466c-0.09973,-0.19988 -0.19928,-0.39836 -0.2955,-0.5955c-0.09445,-0.19353 -0.18506,-0.38303 -0.26849,-0.5685c-0.08017,-0.17823 -0.15945,-0.34753 -0.26935,-0.66933c-0.04913,-0.14387 -0.08414,-0.28075 -0.1095,-0.4095c-0.02377,-0.12067 -0.03818,-0.23618 -0.04648,-0.3465c-0.008,-0.10605 -0.01016,-0.20934 -0.01068,-0.41067c-0.00024,-0.09983 -0.00027,-0.19874 0.00449,-0.2955c0.00464,-0.09393 0.01276,-0.18439 0.03152,-0.2685c0.01776,-0.07966 0.03366,-0.16307 0.13065,-0.26933c0.04788,-0.05247 0.1163,-0.08503 0.186,-0.114c0.07169,-0.0298 0.14777,-0.05145 0.22202,-0.078c0.07309,-0.02614 0.15341,-0.04373 0.25867,-0.14133c0.05209,-0.04831 0.08539,-0.11721 0.1095,-0.19051c0.02551,-0.07752 0.03842,-0.16345 0.04648,-0.25349c0.00839,-0.09367 0.01016,-0.19066 0.01068,-0.38934c0.00027,-0.09983 0.22556,-0.30769 -0.16666,-0.83334c-0.52264,-0.70047 -0.56827,-1.54205 -1.11868,-2.08266c-0.62064,-0.6096 -1.43527,-0.82277 -1.66199,-1.73666c-0.21045,-0.84837 -0.51227,-1.73489 -0.93933,-2.402c-0.44858,-0.70072 -0.93802,-1.62802 -1.32401,-2.26933c-0.37964,-0.63077 -1.19339,-1.63199 -1.63202,-2.05334c-0.49988,-0.48018 -1.11652,-1.08651 -1.82397,-1.956c-0.43073,-0.52937 -0.87759,-1.14514 -1.371,-1.8105c-0.52795,-0.71196 -1.08203,-1.46441 -1.677,-2.2335c-0.61224,-0.7914 -1.22568,-1.60942 -2.61868,-3.12267c-0.69196,-0.75169 -1.42682,-1.45126 -2.172,-2.124c-0.73764,-0.66593 -1.491,-1.29713 -2.24399,-1.908c-0.74176,-0.60176 -1.48495,-1.17575 -2.91733,-2.30134c-0.6911,-0.54309 -1.35922,-1.077 -2.01001,-1.5915c-0.62924,-0.49747 -1.23679,-0.97524 -1.82999,-1.4205c-0.56699,-0.42557 -1.10141,-0.84155 -2.16,-1.488c-0.48175,-0.29418 -0.95459,-0.53293 -1.40552,-0.7335c-0.4202,-0.1869 -0.81924,-0.34306 -1.19849,-0.4545c-1.21686,-0.35759 -2.04196,-0.46099 -2.69601,-0.47733c-1.03836,-0.02595 -1.82217,-0.12672 -2.89099,0.2205c-0.72675,0.23609 -1.27386,0.76092 -2.12766,1.32083c-0.71942,0.4718 -1.51514,0.95658 -1.91336,1.20667c-0.76624,0.48122 -1.97598,1.27042 -2.60132,1.7715c-0.64731,0.51868 -1.48529,1.24303 -1.83466,1.53117c-0.75626,0.6237 -1.53317,1.2661 -1.89752,1.59c-0.94815,0.84287 -1.57431,1.66213 -1.98898,2.45783c-0.41235,0.79128 0.02991,0.23397 0.742,-0.07899c0.80536,-0.35396 1.78549,-0.37097 2.27914,-0.82217c0.73038,-0.66756 1.51633,-1.12699 2.37466,-1.188c0.93771,-0.06666 1.72888,-0.90234 2.54001,-0.64133c0.7467,0.24027 0.28534,1.63067 0.28534,2.43067c0,0.836 -0.2468,1.91755 0.08533,2.63066c0.38297,0.8223 0.44925,1.55027 1,2.284c0.4624,0.61603 1.34363,0.65604 2.13617,1.16383c0.74673,0.47844 1.7785,0.1215 2.57849,0.1215c0.90002,0 1.79523,-0.00073 2.86667,-0.33334c0.67783,-0.21041 1.43851,-0.51871 2.23203,-0.852c0.76913,-0.32304 1.71674,-0.79234 2.41064,-1.18933c0.65906,-0.37705 1.51923,-0.80421 2.31067,-1.108c0.90143,-0.346 1.3764,-0.50754 2.31668,-0.8075c1.22546,-0.39095 2.08136,-0.64447 2.85516,-0.70083c0.97363,-0.07091 1.70825,-0.02477 2.87482,-0.009c0.77106,0.01042 1.328,0.61062 1.33334,1.5c0.0054,0.89999 0,1.70533 0,2.42867c0,1.05667 0,1.782 0,2.57133c0,0.78934 0,2.11467 0,3c0,0.636 0.00613,1.83613 -0.01068,2.60133c-0.01752,0.79754 0.05356,1.59109 -0.27197,2.756c-0.2225,0.79632 0.31241,1.29533 0.98267,1.0855c0.88242,-0.27624 1.47009,-1.17987 2.05716,-1.64283c0.69415,-0.54743 1.47632,-0.90355 2.24283,-1.46667c0.66135,-0.48585 1.18161,-0.96598 1.91449,-1.52367c0.44995,-0.3424 1.58246,-1.14752 2.27884,-1.61633c0.76999,-0.51836 1.61215,-1.06398 2.52002,-1.62c0.94864,-0.58101 1.94022,-1.15852 2.96997,-1.71c1.03699,-0.55535 3.14282,-1.5481 4.19418,-1.9555c1.02249,-0.39622 2.0343,-0.72691 3.02249,-1.0065c0.95047,-0.26892 1.87131,-0.48581 2.7525,-0.66451c0.83234,-0.16879 2.34665,-0.41009 3.01782,-0.4935c0.6116,-0.07601 1.16818,-0.12941 1.67102,-0.15c0.45004,-0.01843 0.85205,-0.01351 1.203,0.03001c0.30804,0.03819 0.86768,0.13003 1.11432,0.45133c0.4942,0.6438 0.33865,1.28399 0.34134,2.67867c0.00079,0.40916 0,1.2675 0,2.14584c0,1.26749 0,2.03816 0,2.79283c0,0.80267 0,1.71733 0,2.808c0,0.62867 0,2.034 0,2.79467c0,0.78867 0,1.59733 0,2.418c0,0.82466 0,2.45399 0,3.2435c0,0.76649 0,1.507 0,2.2185c0,0.6795 0,1.324 0,2.496c0,0.99599 -0.12378,2.15061 0.03601,2.904c0.181,0.85329 1.26398,0.92533 2.164,0.92533c0.90048,0 1.67148,0.00505 2.564,-0.00017c0.91202,-0.00533 1.57724,0.07298 2.73599,-0.1665c0.86572,-0.17892 1.46249,-0.54132 2.70667,-0.71184c0.41107,-0.05634 1.31982,-0.09329 2.26666,-0.11083c0.90656,-0.01679 2.01935,-0.01072 2.75732,-0.01067c1.09052,0.00008 2.16785,-0.29385 2.65503,0.35717c0.57169,0.76398 0.11432,1.80949 0.11432,2.66367c0,0.97916 0.00177,1.77917 0,2.57917c-0.00226,1.01349 -0.0087,1.7113 -0.16666,2.89999c-0.1001,0.75316 -0.2583,1.5654 -0.40802,2.388c-0.14099,0.77473 -0.34521,1.72269 -0.40448,2.59117c-0.06952,1.01868 -0.02084,1.87883 -0.02084,2.52083c0,0.948 -0.37396,2.39565 0.28534,2.91467c0.64362,0.50668 1.98868,-0.36803 2.59317,0.30682c0.59225,0.66119 0.09845,1.5602 -0.04517,2.61183c-0.10764,0.78806 -0.25879,1.69333 -0.33334,2.16667c-0.14755,0.93663 -0.34467,2.16528 -0.44733,3.04567c-0.08768,0.75192 -0.21896,2.12105 -0.27402,2.60483c-0.06223,0.54688 -0.20575,1.80132 -0.27866,2.49533c-0.07654,0.72864 -0.15295,1.4852 -0.216,2.2635c-0.12881,1.58978 -0.16632,2.38966 -0.19867,3.18401c-0.03192,0.78403 -0.05164,1.55328 -0.06448,2.30249c-0.01242,0.72414 -0.01834,1.41833 -0.02084,3.27084c-0.0007,0.52533 0.07498,1.43945 -0.03601,2.472c-0.10837,1.00827 -0.88025,1.51564 -0.96399,2.36133c-0.07883,0.79611 0,1.75717 0,2.67517c0,0.67949 0,1.9915 0,2.41049c0,0.93401 0,1.95601 0,2.485c0,1.06401 0,2.09601 0,3.06401c0,0.93599 0,1.407 0,2.38499c0,0.519 0,2.26599 0,2.91899c0,0.681 0,1.384 0,2.10301c0,0.72899 -0.00024,1.46199 0,3.625c0.00009,0.68933 -0.00153,1.35468 0.00449,1.99199c0.01108,1.17473 -0.01978,1.70819 0.08084,2.62668c0.13275,1.21194 0.91553,1.75185 1.71466,1.71466c0.91766,-0.04271 1.17294,-1.00046 1.20001,-1.8c0.02859,-0.84428 0.79059,-1.31258 1.19867,-2.05333c0.47168,-0.85617 0.69876,-1.80441 0.78049,-2.62584c0.09924,-0.99745 -0.03485,-1.74911 0.021,-1.42099c0.14484,0.85106 1.34305,1.26016 1.91583,0.61082c0.52005,-0.58955 0.36703,-1.76289 0.50934,-2.38666c0.22049,-0.96635 0.46039,-2.05911 0.57468,-2.84483c0.08954,-0.61572 0.28409,-1.82207 0.436,-2.63383c0.08414,-0.44965 0.26974,-1.42027 0.36533,-1.936c0.30209,-1.62978 0.41074,-2.18968 0.56668,-3.32401c0.07748,-0.56346 0.17319,-1.12276 0.17599,-2.21599c0.00266,-1.03694 -0.1571,-2.00734 -0.44135,-2.86534c-0.26111,-0.78812 -0.54074,-1.49792 -1.21732,-2.44667c-0.52219,-0.73225 -1.60706,-1.04941 -1.82819,-1.76717c-0.23831,-0.77354 -0.08505,-1.80444 0.22684,-2.77817c0.18723,-0.5845 0.49005,-1.27583 0.63068,-2.48666c0.08432,-0.7261 0.0787,-1.55463 0.08398,-2.48399c0.00589,-1.04132 0.01141,-1.60683 -0.01215,-2.83534c-0.01279,-0.66747 -0.04175,-1.37314 -0.09451,-2.118c-0.05582,-0.78792 -0.11804,-1.62297 -0.392,-3.42133c-0.14862,-0.97562 -0.34741,-1.98648 -0.58051,-3.02101c-0.2374,-1.05363 -0.50949,-2.10817 -0.82349,-3.14699c-0.30994,-1.02533 -0.60648,-2.03606 -1.42935,-3.832c-0.37997,-0.82933 -0.8161,-1.57396 -1.26749,-2.244c-0.42331,-0.62834 -0.86597,-1.18378 -1.3125,-1.668c-0.41299,-0.44789 -0.8093,-0.85004 -1.58667,-1.42134c-0.32596,-0.23955 -0.63553,-0.42615 -0.9285,-0.552c-0.72147,-0.30992 -1.75681,-0.55362 -2.5715,-0.7605c-0.98615,-0.2504 -1.78198,-0.03766 -2.51468,0.1965c-0.97641,0.31206 -1.75513,0.7021 -2.62399,0.82133c-0.81595,0.11197 -0.86133,-1.03867 -0.86133,-1.85217c0,-0.74249 0,-1.74117 0,-2.38382c0,-1.05901 0.00565,-2.13603 -0.00134,-2.82401c-0.01077,-1.06212 -0.05075,-1.86035 -0.08398,-2.304c-0.11859,-1.58312 -0.198,-2.19811 -0.28534,-2.847c-0.09106,-0.67654 -0.17834,-1.3769 -0.50534,-2.77866c-0.16418,-0.70389 -0.60748,-2.05613 -0.88834,-2.68417c-0.27438,-0.61354 -0.57254,-1.20381 -1.27731,-2.26067c-0.34009,-0.50997 -0.69507,-0.99292 -1.79169,-2.27083c-0.33902,-0.39506 -0.9884,-1.12244 -1.625,-1.72917c-0.56564,-0.53912 -1.59671,-1.32253 -2.34833,-1.49616c-0.80182,-0.18523 -1.85999,-0.108 -2.73065,-0.108c-0.47784,0 -1.48352,0 -1.99734,0c-1.01468,0 -2.40045,0.01066 -3.18033,-0.0045c-0.94534,-0.01838 -2.01703,-0.03583 -2.28101,-0.79683c-0.29453,-0.84904 -0.004,-1.83467 -0.004,-2.68401c0,-0.91917 0.02841,-1.9225 -0.04166,-2.598c-0.08951,-0.86301 -0.39529,-2.0058 -0.53433,-2.46733c-0.32315,-1.0728 -0.54453,-1.68013 -0.78934,-2.344c-0.26746,-0.72531 -0.56586,-1.51331 -1.30133,-3.272c-0.41235,-0.98603 -0.86975,-2.02685 -1.36652,-3.111c-0.51501,-1.12399 -1.06186,-2.26859 -1.64551,-3.417c-0.58734,-1.15569 -1.16873,-2.31384 -2.48798,-4.472c-0.63431,-1.03767 -1.30334,-2.01003 -1.99051,-2.9205c-0.66422,-0.88007 -1.34821,-1.69801 -2.0535,-2.4435c-0.67923,-0.71794 -1.34564,-1.40937 -2.78934,-2.46933c-0.6806,-0.4997 -1.39621,-0.90738 -2.11801,-1.2615c-0.71606,-0.3513 -1.46121,-0.64593 -2.22598,-0.9105c-0.78064,-0.27007 -1.59576,-0.51099 -3.32266,-0.99467c-0.91885,-0.25735 -1.87604,-0.51965 -2.871,-0.777c-1.02637,-0.26548 -2.08527,-0.52413 -3.177,-0.759c-1.11563,-0.24001 -2.25507,-0.4874 -4.61868,-0.79733c-1.20673,-0.15823 -2.43527,-0.25488 -3.67648,-0.324c-1.25089,-0.06965 -2.51093,-0.10166 -3.77551,-0.108c-1.26648,-0.00635 -2.53256,0.00457 -5.048,0.09866c-1.24432,0.04655 -2.47226,0.11426 -3.67798,0.19051c-1.17828,0.07452 -2.32236,0.15965 -3.42603,0.25349c-1.05832,0.08999 -2.0654,0.17804 -3.896,0.38934c-0.81616,0.09421 -1.56442,0.19564 -2.2485,0.2955c-0.62387,0.09107 -1.18924,0.18224 -1.69949,0.2685c-0.45871,0.07755 -0.86731,0.15462 -1.55199,0.26933c-0.28024,0.04695 -0.52406,0.0823 -0.73351,0.114c-0.17854,0.02702 -0.3298,0.04897 -0.4545,0.078c-0.10426,0.02427 -0.20151,0.04133 -0.312,0.14133c-0.05276,0.04776 -0.08571,0.11851 -0.10951,0.195c-0.02603,0.08364 -0.03859,0.17981 -0.04649,0.285c-0.00864,0.11484 -0.00955,0.24 -0.01067,0.52c-0.00063,0.1555 0.00398,0.32459 -0.0135,0.5085c-0.06496,0.68296 -0.47966,1.99425 -0.65117,2.41134c-0.39568,0.96226 -0.65254,1.49017 -0.91866,2.05933c-0.28313,0.60555 -0.59406,1.24051 -1.58334,3.35416c-0.35675,0.76221 -0.71548,1.54629 -1.077,2.34c-0.36116,0.79296 -0.71487,1.57658 -1.05901,2.34c-0.33052,0.73324 -0.64067,1.42757 -1.19733,2.65334c-0.2345,0.51638 -0.45206,0.96373 -0.91667,2c-0.30008,0.6693 -0.73337,2.18243 -0.00867,2.12c0.83798,-0.07219 1.45305,-0.8073 2.12534,-1.0105c0.87527,-0.26456 1.62508,-0.82114 2.46667,-1.1095c0.83849,-0.28728 1.24434,-1.29965 2,-1.66667c0.68124,-0.33089 0.83713,1.03468 0.83333,1.71867c-0.00534,0.96138 -0.04979,1.80911 -0.28534,2.80134c-0.20483,0.86285 -0.42853,1.47229 -0.71466,2.48c-0.20541,0.72345 -0.40509,1.51975 -0.564,2.424c-0.08755,0.49821 -0.2748,2.24232 -0.3145,2.91583c-0.04196,0.71185 -0.0674,1.45226 -0.08551,2.2095c-0.01825,0.76309 -0.02759,1.52132 -0.03149,2.2635c-0.01064,2.02048 -0.0045,2.59084 -0.0045,3.5595c0,0.75266 0,1.79433 0,1.261c0,-0.90017 0.06676,-1.68847 -0.01067,-2.62534c-0.084,-1.01654 -0.41489,-1.85744 -1.38933,-2.13866c-0.8654,-0.24976 -1.92593,-0.24757 -2.52,0.252c-0.61432,0.51659 -0.948,1.27579 -1.79201,1.952c-0.6104,0.48904 -1.20921,0.95596 -2.23199,1.50667c-0.7243,0.39 -1.94238,0.92609 -1.68533,1.68533c0.19641,0.58014 0.23503,-0.42627 -0.37067,0.068c-0.62239,0.50789 -0.9359,1.24659 -1.16933,1.90134c-0.22775,0.63879 -0.935,1.90894 -1.25734,2.432c-0.35568,0.57716 -0.75549,1.19865 -1.17751,1.875c-0.45148,0.72356 -0.92929,1.49367 -1.4025,2.325c-1.01704,1.78671 -1.49951,2.7694 -1.98933,3.78133c-0.4973,1.0274 -0.9745,2.06821 -1.4415,3.10201c-0.45695,1.01157 -0.88768,1.99283 -1.3065,2.922c-0.75005,1.66402 -1.08691,2.3696 -1.39732,2.99066c-0.27443,0.54906 -0.52724,1.02647 -0.7545,1.4415c-0.19833,0.36218 -0.38098,0.67177 -0.52951,0.9465c-0.34264,0.63377 -0.48393,1.71419 -1.27916,1.72101c-0.90825,0.00778 -1.60622,-1.08441 -2.4955,-0.93567c-0.85378,0.14281 -1.30893,1.03432 -1.60001,1.59999c-0.5206,1.01172 -0.84885,1.77254 -1.08533,2.42401c-0.46141,1.27112 -0.59911,1.79362 -0.77184,2.33665c-0.36177,1.13728 -0.54233,1.71397 -0.74733,2.27335c-0.56496,1.54155 -0.96759,2.35114 -1.37418,2.97266c-0.47806,0.73076 -1.37357,1.57764 -0.99983,2.49051c0.27534,0.67255 1.43091,1.17848 2.25768,0.87933c0.62199,-0.22505 0.90334,-1.23927 1.14516,-1.71268c0.3094,-0.60568 1.20668,-2.26779 1.8105,-3.35117c0.68787,-1.23415 1.4502,-2.58066 2.2545,-4.01399c0.83273,-1.48398 1.67308,-2.98656 2.48849,-4.48201c0.78844,-1.44598 2.16873,-4.07965 2.707,-5.21799c0.47218,-0.99858 0.85309,-1.88667 1.1445,-2.67601c0.25385,-0.68758 0.43994,-1.30106 0.56851,-1.84799c0.11415,-0.48563 0.2394,-1.34358 0.28049,-1.73367c0.03868,-0.36729 0.06477,-0.71115 0.07501,-1.029c0.00932,-0.28956 0.00713,-0.54991 -0.015,-0.777c-0.01894,-0.19435 -0.08815,-0.48592 -0.16034,-0.5505c-0.05708,-0.05106 -0.39145,0.12177 -0.83533,0.8155c-0.47589,0.74377 -0.99953,1.79221 -1.30968,2.39301c-0.33267,0.64445 -0.67659,1.32838 -1.02899,2.043c-0.3623,0.7347 -0.72916,1.48228 -1.43733,2.99466c-0.34871,0.74467 -0.68645,1.48825 -1.01851,2.23651c-0.33597,0.75706 -0.67128,1.53337 -1.00949,2.33549c-0.35088,0.83217 -0.71333,1.70319 -1.472,3.59467c-0.41206,1.02734 -0.83664,2.10674 -1.2675,3.22951c-0.44255,1.1532 -0.88371,2.33105 -1.3125,3.52649c-0.42955,1.19759 -0.8605,2.38745 -1.58667,4.744c-0.34822,1.13005 -0.64839,2.23016 -0.91949,3.28799c-0.2579,1.00632 -0.48108,1.96095 -0.6765,2.856c-0.18057,0.82706 -0.33652,1.58266 -0.57068,2.856c-0.09302,0.50581 -0.16556,0.93005 -0.21449,1.28101c-0.03958,0.28387 -0.06471,0.51062 -0.06151,0.687c0.00244,0.13461 0.00938,0.25012 0.10934,0.36533c0.04619,0.05324 0.62103,-0.16322 0.78065,-1.26649c0.09637,-0.66614 0.08496,-1.44397 0.21935,-2.73351c0.04747,-0.45547 0.18599,-1.386 0.33333,-2.33333c0.14734,-0.94733 0.24579,-1.41278 0.37849,-2.77817c0.08301,-0.85406 0.10753,-1.65921 0.117,-2.403c0.01625,-1.27557 0.0045,-2.03616 0.0045,-2.83083c0,-0.96718 -0.06694,-1.83156 -0.57466,-2.51334c-0.47722,-0.64081 -0.42534,-1.51634 -0.42534,-2.51733c0,-0.70801 -0.02124,-1.45224 0.00133,-2.49733c0.01787,-0.82721 0.07846,-1.44055 0.22017,-2.83084c0.06143,-0.60274 0.13284,-1.25534 0.21451,-1.9425c0.16884,-1.4207 0.2619,-2.12347 0.36533,-2.79999c0.18678,-1.22188 0.39458,-2.19667 0.588,-2.98801c0.17221,-0.70461 0.35878,-1.41219 0.4895,-2.70534c0.05177,-0.51216 0.10184,-1.6203 0.142,-2.19333c0.07973,-1.13735 0.03795,-1.70596 0.42184,-3.0925c0.20493,-0.74014 0.81142,-1.49889 1.224,-2.4075c0.34241,-0.75407 0.28879,-1.53441 -0.16667,-2.47916c-0.40503,-0.84014 -0.39301,-1.72726 -0.50034,-2.62083c-0.08591,-0.71529 -0.98941,-1.14658 -1.66634,-1.9c-0.55266,-0.61512 -1.22482,-0.7802 -1.3335,0.10017c-0.09676,0.78382 -0.37276,1.57977 -0.6465,2.3265c-0.25037,0.68296 -0.67833,2.10438 -0.84399,2.708c-0.18771,0.68397 -0.38985,1.4622 -0.61351,2.3445c-0.25256,0.99631 -0.53035,2.11933 -0.8385,3.3795c-0.7272,2.97388 -1.1468,4.70493 -1.59067,6.58533c-0.4731,2.00423 -0.95741,4.11235 -1.42499,6.306c-0.47937,2.24901 -0.94681,4.5354 -1.33501,6.84599c-0.7663,4.56107 -1.00218,6.79353 -1.19066,8.972c-0.18394,2.12621 -0.29033,4.2088 -0.32851,6.24451c-0.03732,1.98988 -0.01717,3.93752 0.07651,5.83949c0.18146,3.68443 0.38525,5.46193 0.592,7.192c0.20071,1.67967 0.43806,3.29703 0.7065,4.84351c0.25623,1.4762 0.52951,2.87064 0.84151,4.1685c0.55775,2.32019 0.88211,3.31161 1.19333,4.20132c0.28148,0.8047 0.57172,1.51898 0.86099,2.151c0.26106,0.57037 0.52281,1.07317 0.77101,1.52101c0.42953,0.77504 0.62897,1.10516 0.79866,1.41333c0.15451,0.28059 0.29143,0.53761 0.4095,0.774c0.10707,0.21439 0.20065,0.41086 0.27451,0.59399c0.12892,0.3197 0.1683,0.46722 0.20399,0.60266c0.03284,0.1246 0.05742,0.24031 0.084,0.345c0.0242,0.09529 0.04507,0.18365 0.084,0.255c0.06979,0.12791 0.13474,0.17012 0.2,0.2c0.06645,0.03043 0.14117,0.045 0.216,0.045c0.07483,0 0.15099,-0.01166 0.216,-0.045c0.12636,-0.0648 0.16742,-0.13249 0.19867,-0.2c0.03366,-0.07269 0.05228,-0.15958 0.0645,-0.255c0.0134,-0.10463 0.01762,-0.21997 0.0195,-0.345c0.00421,-0.27997 0.00133,-0.435 0.00133,-0.59999c0,-0.175 0,-0.36 0,-0.55501c0,-0.205 0,-0.42 0,-0.64499c0,-0.48001 -0.00076,-0.73534 0.00133,-1.00267c0.0022,-0.28136 0.00674,-0.89479 0.05583,-1.58667c0.08696,-1.22581 0.15804,-1.68851 0.2955,-2.673c0.14105,-1.01022 0.22519,-1.5025 0.36334,-2.42833c0.16634,-1.11476 0.27357,-2.03918 0.284,-3.10666c0.00674,-0.69064 -0.14265,-1.77081 0.00017,-2.61584c0.14401,-0.85202 0.97124,-1.26054 0.99983,-2.2215c0.02019,-0.67836 -0.10641,-1.67378 0.08533,-2.56267c0.17339,-0.80385 0.62436,-1.56476 0.79317,-2.53717c0.13651,-0.78632 0.11925,-1.569 0.12151,-2.60815c0.00211,-0.97067 -0.06082,-1.77513 0.036,-2.67867c0.11424,-1.06624 0.31242,-1.65674 0.48483,-2.31284c0.26701,-1.01616 0.58797,-1.93307 0.8685,-2.71783c0.33611,-0.94022 0.54781,-1.94388 0.58984,-2.76134c0.04193,-0.81516 0.18268,-1.83591 -0.01517,-2.61734c-0.21837,-0.86249 -1.01263,-0.0937 -0.25951,0.11284c0.89885,0.24651 1.83115,-0.19078 2.43417,-0.60617c0.85278,-0.58743 1.09081,-1.45972 1.52583,-2.15366c0.38628,-0.61617 0.88667,-1.28622 1.44899,-1.992c0.86922,-1.09099 1.19322,-1.41812 1.8,-2.1225c0.65576,-0.76123 1.00017,-1.19423 1.358,-1.674c0.39075,-0.52391 1.23561,-1.77608 1.69267,-2.5195c0.49693,-0.80827 1.00603,-1.68976 1.52249,-2.63701c0.54228,-0.99461 1.08267,-2.04346 1.6125,-3.14099c0.54378,-1.12642 1.57784,-3.47887 2.0575,-4.69135c0.48038,-1.21426 0.92584,-2.4346 1.35001,-3.64499c0.41574,-1.18634 0.80164,-2.34615 1.17,-3.46501c0.35156,-1.06782 0.98724,-3.01593 1.28,-3.87566c0.26749,-0.78552 0.5186,-1.49783 0.75,-2.142c0.20874,-0.58112 0.4005,-1.10116 0.57001,-1.566c0.15042,-0.41251 0.39337,-1.09694 0.48033,-1.37866c0.07526,-0.24378 0.13225,-0.45655 0.17099,-0.642c0.03343,-0.16005 0.05605,-0.30093 0.063,-0.426c0.03987,-0.71695 0.009,-1.618 0.009,-2.518c0,-0.9 0.16669,-1.83595 -0.08533,-2.60001c-0.26941,-0.81679 -0.94839,-1.51974 -1.304,-2.45066c-0.28049,-0.73426 -0.0946,-1.81838 -0.69467,-2.46133c-0.65515,-0.70198 -1.67606,-0.22643 -2.31599,0.56267c-0.44447,0.54808 -1.07664,1.10726 -1.912,1.57333c-0.69911,0.39005 -1.59351,0.99513 -2.104,1.34383c-0.53758,0.3672 -1.08719,0.74854 -2.168,1.526c-0.51352,0.36939 -1.79269,1.31561 -2.409,1.8045c-0.55263,0.43839 -1.13322,0.93177 -2.34033,1.90166c-0.53719,0.43162 -1.15179,0.91492 -1.83301,1.452c-0.74277,0.58562 -1.5423,1.21428 -2.39099,1.884c-0.89333,0.70493 -1.82663,1.43938 -3.776,2.99734c-1.00969,0.80696 -2.02768,1.62809 -3.045,2.45399c-1.00935,0.81944 -1.99792,1.62782 -2.955,2.41801c-0.91954,0.7592 -1.79311,1.47777 -3.33334,2.79466c-0.66345,0.56725 -1.24815,1.08087 -1.758,1.5435c-0.44716,0.40576 -0.82922,0.76509 -1.146,1.0845c-0.26799,0.27023 -0.50108,0.49059 -0.76266,0.87199c-0.08856,0.12914 -0.15179,0.24185 -0.12451,0.3015c0.01788,0.03909 0.25609,-0.00493 0.95784,-0.8015c0.60173,-0.68303 0.88445,-1.16278 1.22934,-1.66933c0.3792,-0.5569 0.77818,-1.17245 1.19849,-1.84351c0.45062,-0.71947 1.40875,-2.31862 1.91484,-3.19434c0.52872,-0.91488 1.06575,-1.86796 1.608,-2.8515c0.55247,-1.0021 1.10201,-2.0209 1.644,-3.0495c0.54066,-1.02608 1.57556,-3.05675 2.062,-4.048c0.47346,-0.96481 0.92209,-1.90602 1.35001,-2.8185c0.41202,-0.87856 0.80052,-1.72376 1.17,-2.53049c0.35049,-0.76528 0.98834,-2.16228 1.28017,-2.78667c0.26962,-0.57689 0.52142,-1.10577 0.7605,-1.5855c0.21753,-0.43649 0.42073,-0.82792 0.6165,-1.1715c0.17409,-0.30552 0.48814,-0.79426 0.645,-0.96533c0.25555,-0.27872 0.99953,-0.53364 1.79317,-0.77383c0.80092,-0.2424 1.4128,-0.49611 2.39467,-1.04533c0.73621,-0.4118 1.4895,-0.94041 2.31599,-1.488c0.43556,-0.28858 1.84802,-1.18319 2.36,-1.47816c0.52267,-0.30115 1.05386,-0.60484 2.15733,-1.138c0.54512,-0.26339 1.6179,-0.75049 2.66667,-1.0625c0.94629,-0.28152 1.39883,-0.42395 2.56799,-0.396c0.62517,0.01495 1.645,0.58345 1.75999,1.41334c0.13202,0.95274 0.00526,1.88267 0.00534,2.78716c0.00009,1.01667 -0.40044,1.98041 0.35716,2.58117c0.7446,0.59045 1.67699,0.44542 2.44284,0.83034c0.75601,0.37997 1.42667,0.28333 2.40683,0.284c0.86101,0.00059 1.814,0 2.787,0c0.4715,0 1.72249,0.0251 2.75816,-0.02133c0.73036,-0.03275 1.61197,-0.14053 2.748,-0.312c0.69531,-0.10495 1.47693,-0.23764 2.34149,-0.39899c0.94754,-0.17684 1.97263,-0.38541 3.0705,-0.633c1.17328,-0.2646 2.41992,-0.55001 5.08801,-1.30133c1.43173,-0.40318 2.89999,-0.86385 4.39801,-1.3395c1.51266,-0.48031 3.01831,-0.97407 4.50598,-1.4565c1.45102,-0.47054 2.84259,-0.94292 5.42935,-1.70399c1.14703,-0.33748 2.20163,-0.61384 3.16348,-0.8385c0.86649,-0.20238 1.64737,-0.35886 2.34451,-0.46951c0.61218,-0.09717 1.14688,-0.18312 1.992,-0.19199c0.31644,-0.00333 0.5751,0.02255 0.771,0.08549c0.159,0.05109 0.28079,0.13535 0.35699,0.2385c0.0751,0.10169 0.11102,0.23188 0.20532,0.50933c0.05283,0.15537 0.11652,0.31827 0.19052,0.486c0.0766,0.17366 0.1965,0.55959 0.74298,1.326c0.48755,0.68379 1.22116,1.34265 1.72519,1.84666c0.69067,0.69065 1.17999,1.44245 1.97333,1.888c0.82349,0.46249 1.82642,0.27486 2.60132,0.712c0.72653,0.40986 1.57074,0.56501 2.37335,0.576c0.81015,0.0111 1.80246,0.06433 2.97015,0.22033c0.43219,0.05774 1.36118,0.22152 1.86066,0.32c1.07785,0.21251 1.65579,0.33933 2.89584,0.625c1.35077,0.31117 2.04929,0.48483 2.75467,0.65867c0.70395,0.17349 1.39767,0.34805 2.073,0.522c0.64996,0.16743 2.36823,0.61804 3.27301,0.8955c0.73602,0.2257 1.71411,0.37978 2.23682,1.08417c0.45462,0.61263 0.48975,1.67461 0.73584,2.59033c0.14636,0.54465 0.31308,1.1434 0.72,2.49066c0.22617,0.74884 0.47159,1.54411 1.04001,3.25867c0.30496,0.91985 0.63272,1.86783 0.9765,2.835c0.34818,0.97952 0.70676,1.95827 1.0755,2.925c0.36234,0.94993 0.7117,1.87533 1.448,3.57333c0.33578,0.77439 0.67279,1.48628 1.005,2.13901c0.30832,0.60576 0.61264,1.15707 0.91498,1.653c0.27829,0.4565 0.53745,0.87645 1.08002,1.54132c0.23547,0.28854 0.65347,0.81308 1.31998,1.188c0.90527,0.50925 1.84723,0.50816 2.64667,0.47867c0.8476,-0.03127 1.6011,-0.24467 2.85101,-0.66434c0.55203,-0.18533 1.16202,-0.40454 1.83301,-0.633c0.72363,-0.24637 1.4971,-0.50359 2.319,-0.759c0.86075,-0.26749 2.69516,-0.7843 3.66083,-1.022c0.98502,-0.24246 1.98862,-0.46498 3.0015,-0.67499c1.01282,-0.20999 2.02209,-0.4032 3.0195,-0.58501c0.97726,-0.17813 2.84827,-0.49641 3.72784,-0.64c0.83511,-0.13634 1.62256,-0.26065 2.358,-0.375c0.67923,-0.10561 1.29868,-0.19977 1.85397,-0.285c0.48737,-0.0748 1.24445,-0.29442 1.50351,-0.23833c0.49719,0.10765 0.30869,0.81328 0.19333,2.313c-0.05383,0.69986 -0.06784,1.48792 -0.08548,2.349c-0.01892,0.92291 -0.02689,1.89598 -0.03152,2.907c-0.00476,1.037 -0.00449,3.14099 -0.00449,4.18517c0,1.02916 0,2.03833 0,3.02249c0,0.95418 0,1.87334 0,2.7525c0,0.83417 0,2.3475 0,3.01767c0,0.61116 0,1.16434 0,1.66051c0,0.44016 0.01114,0.82552 0,1.15649c-0.02859,0.84895 -0.80133,0.5135 -1.70001,0.51283c-0.89999,-0.00067 -1.99524,-0.11162 -2.28931,0.61067c-0.33444,0.82147 -0.22314,1.60945 -0.67734,2.88933c-0.21133,0.59555 -0.47079,1.26262 -0.7485,1.99651c-0.29697,0.78477 -0.60846,1.60664 -0.91949,2.45549c-0.31467,0.85881 -0.63696,1.71146 -1.16534,3.38133c-0.24573,0.77661 -0.4491,1.51703 -0.62399,2.2155c-0.16336,0.65236 -0.29916,1.26237 -0.40802,1.82851c-0.19006,0.98854 -0.73694,2.46429 -0.42133,3.13333c0.34866,0.73909 1.39926,0.34402 2.03735,-0.22667c0.65176,-0.58293 0.91599,-1.384 0.91599,-2.284c0,-0.8 0,-1.62933 0,-0.8c0,0.90001 -0.04733,1.80141 0,2.60001c0.05411,0.9128 0.48877,1.70741 1.05801,2.558c0.4335,0.64775 0.93512,1.25282 1.44199,2.142c0.43765,0.76773 0.40631,1.791 0.5,1.791c0.89099,0 0,-1.71233 0,-2.62433c0,-0.91734 0.12979,-1.66968 -0.00134,-2.69467c-0.11145,-0.87123 -0.97006,-0.61629 -0.99866,0.228c-0.03046,0.89949 0,1.8 0,2.60001c0,0.95717 0.29327,1.9411 -0.08533,2.63066c-0.43948,0.8004 -1.61469,0.56934 -2.51468,0.56934l-0.89999,0" id="svg_14" stroke-width="5" stroke="#000000" fill="none"/> <path d="m209,212c0,-1.7 0.01913,-2.6002 0,-3.5c-0.02084,-0.97984 -0.7798,-1.23563 -1.43201,-1.584c-0.92561,-0.49442 -1.56799,-0.916 -2.368,-0.916c-0.89999,0 -1.80002,0.00533 -2.7,0c-0.90004,-0.00534 -1.60721,-0.45294 -2.5,-0.83333c-0.75154,-0.32021 -1.81339,-0.56007 -2.564,-0.13068c-0.69064,0.3951 -0.436,1.56401 -0.436,2.464c0,0.89999 0,1.8 0,2.7c0,0.90001 0,1.8 0,2.60001c0,0.89999 0,1.8 0,2.7c0,0.89999 0,1.8 0,2.7c0,0.90001 -0.0372,1.80087 0,2.60001c0.04271,0.91763 0.91626,1.35429 1,2.2c0.07883,0.79611 -0.41122,1.82257 0.05716,2.64284c0.46432,0.81317 0.94217,1.24384 0.94284,2.1825c0.00072,1.008 0.16151,1.68839 0.716,2.25867c0.65645,0.67514 1.50891,0.65973 2.16266,1.13733c0.69908,0.51071 1.32133,0.77867 2.22134,0.77867l0.89999,0l0.87866,0.22133" id="svg_15" stroke-width="5" stroke="#000000" fill="none"/> <path d="m363,210c0,-1.7 0,-2.60001 0,-3.5c0,-0.89999 0,-1.8 0,-2.7c0,-0.90001 -0.0639,-1.80255 0,-2.60001c0.08359,-1.04333 0.76358,-1.51114 1.35266,-2.14732c0.53299,-0.57559 1.16803,-1.04225 2.14734,-1.05267c0.89993,-0.00957 1.85971,-0.08476 2.47467,0.42534c0.59927,0.49709 1.01871,1.20236 1.45065,1.97466c0.45758,0.81808 1.11758,1.42114 1.49066,2.168c0.33044,0.66147 0.78336,1.45795 1.28403,2.28401c0.37012,0.61066 0.58026,1.31259 1.29999,2.14799c0.58414,0.67801 0.93344,1.27264 1.21466,2.23334c0.27664,0.94505 0.44406,1.93651 0.71066,2.592c0.28232,0.69414 0.23743,1.83864 0.59552,2.65384c0.31284,0.71216 0.97382,1.16745 0.97916,2.17349c0.00369,0.69466 0,1.71133 0,2.64734c0,0.89999 0,1.8 0,2.7c0,0.8 -0.33063,1.50293 -0.83334,2.33333c-0.36395,0.6012 0.09763,1.75557 -0.388,2.5455c-0.45355,0.73775 -0.61771,1.32072 -0.78,2.2345c-0.1488,0.83788 -0.8924,1.36067 -1.28265,2.08667c-0.45947,0.8548 -1.13364,1.35442 -1.59451,2.0215c-0.50403,0.72954 -0.42203,1.60025 -1.22131,1.77867c-0.84335,0.18826 -1.33563,0.98183 -2.20016,0.99983c-0.89984,0.01874 -1.92493,0.25627 -2.57867,-0.22133c-0.6991,-0.51071 -1.32135,-0.77867 -2.22134,-0.77867c-0.89999,0 -1.69998,0.08533 -2.46399,0.61067l-0.41068,0.78932" id="svg_16" stroke-width="5" stroke="#000000" fill="none"/> <path d="m249,204c0,1.8 0.31448,2.38716 0.83333,3.16667c0.47087,0.70746 0.56367,2.1008 1.08134,1.54799c0.62692,-0.66948 -0.35663,-1.50024 -1.11334,-2c-0.60892,-0.40215 -0.79419,-1.53035 -1.60266,-1.71333c-0.8765,-0.19838 -1.81828,0.00063 -2.59866,-0.42667c-0.82257,-0.45038 -2.09799,-1.06769 -2.47833,-0.35333c-0.35669,0.66992 1.13519,0.61591 1.97833,1c0.78001,0.35535 1.73381,0.75992 1.89549,1.48317c0.20503,0.91718 -0.65294,1.59148 -1.21666,2.174c-0.04962,0.05128 0.64851,-0.83263 0.13583,-1.59315c-0.45033,-0.66805 -1.90945,-0.82309 -1.69318,-0.40685c0.40892,0.78697 1.7785,0.12151 2.57851,0.12151l0.91466,0.08533l0.28401,0.716" id="svg_17" stroke-width="5" stroke="#000000" fill="none"/> <path d="m310,205c-0.87866,1.22133 -1.38223,1.78931 -2.19867,2.00133c-0.80045,0.20787 -1.32199,0.98825 -2.20132,0.99867c-0.89093,0.01056 -0.89099,0 0,0c0.89999,0 1.79999,0 2.69998,0c0.991,0 0.99084,0.01663 0.10001,0c-0.96451,-0.01801 -1.45267,-0.64734 -2.20132,-0.99867l-0.84149,-0.05849l-0.19052,-0.77617" id="svg_18" stroke-width="5" stroke="#000000" fill="none"/> <path d="m300,187c1.79999,0 2.70001,0 3.60001,0c0.89999,0 1.79999,0 2.69998,0c0.90002,0 1.80002,0 2.70001,0c0.79999,0 1.38544,-0.21243 1.03601,0.436c-0.45279,0.84024 -0.55667,1.55357 -1.436,1.564c-0.89993,0.01067 -1.80002,0 -2.70001,0c-0.89999,0 -1.70016,0.01874 -2.60001,0c-0.86453,-0.01801 -1.3515,-0.81915 -2.10132,-0.99867c-0.89221,-0.21361 -1.41391,-0.94043 -2.29868,-1.00133c-0.89786,-0.0618 -1.70016,0.01874 -2.60001,0c-0.86453,-0.01801 -1.24561,-0.85637 -0.29999,-1c0.79092,-0.12013 1.70001,0 2.60001,0c0.89999,0 1.71783,-0.02853 2.45599,0.08533c1.00659,0.15527 1.64398,0.34038 2.70035,0.61917c1.07983,0.28499 1.75598,0.49756 2.39697,0.68483c0.88367,0.25818 1.92154,0.5302 2.82584,0.58984c1.01883,0.0672 1.8103,0.00827 2.53552,0.02083c1.03912,0.01801 1.47961,0.8181 2.28665,0.99867c0.87698,0.19623 1.89822,-0.38472 2.67783,0.02216c0.68863,0.35939 -0.28049,0.9785 -1.17917,0.97917c-0.89999,0.00067 -1.79999,0 -2.69998,0c-0.909,0 -1.57089,0.01743 -2.61884,-0.0045c-0.8389,-0.01755 -1.47409,-0.04761 -2.50217,-0.217c-1.08936,-0.17949 -1.79318,-0.35399 -2.42435,-0.57983c-1.20889,-0.43259 -1.67987,-0.96834 -2.45465,-1.588c-0.74744,-0.59779 -1.70001,-0.61067 -2.60001,-0.61067c-0.52802,0 0.39999,0 1.29999,0c0.90002,0 1.80002,0 2.70001,0c0.79999,0 1.70001,0 2.60001,0c0.81067,0 1.72131,0 2.57465,0c0.94,0 2.05026,-0.25627 2.70401,0.22133c0.6991,0.51071 1.32135,0.77867 2.22134,0.77867c0.89999,0 1.65717,0 2.55716,0c0.94415,0 1.94284,0 2.74283,0c1,0 1.80002,0 2.79984,0c0.77933,0 1.63391,-0.02597 2.49567,0c0.94861,0.02859 1.15021,0.91626 0.3045,1c-0.79608,0.07883 -1.63599,0 -2.65268,0l-0.69464,0" id="svg_19" stroke-width="5" stroke="#000000" fill="none"/> <path d="m261,184c-1.70001,0 -2.60934,-0.11163 -3.52084,0.02083c-0.99063,0.14397 -1.71042,0.61678 -2.64583,0.8125c-0.77676,0.16252 -1.60796,0.16133 -2.66666,0.16667c-0.71399,0.0036 -1.61934,0 -2.58784,0c-0.79349,0 -1.569,0 -2.60815,0c-0.97067,0 -1.77068,0 -2.67067,0c-0.90001,0 -1.8,0 -2.7,0c-0.90451,0 -1.76668,0 -2.60001,0c-0.9785,0 -1.79866,0 -2.75717,0c-0.89549,0 -1.75883,0 -2.60683,0c-0.927,0 -0.79645,0.20378 0.064,-0.05716c0.88487,-0.26834 1.30804,-1.16612 2,-1.58568c0.85345,-0.51747 1.784,-0.35716 2.64734,-0.35716c0.89549,0 1.85266,0 2.75284,0c0.78516,0 1.72516,0 2.73315,0c0.79201,0 1.65067,-0.00212 2.51401,0c0.91351,0.00226 1.79414,0.07642 2.63866,0.2215c0.74406,0.12782 1.59753,0.29834 2.53201,0.483c0.48744,0.09631 1.98135,0.39603 2.478,0.49417c0.97173,0.19202 1.89412,0.37637 2.74799,0.51599c1.08929,0.17812 1.95352,0.22076 2.64252,0.33801c1.02097,0.17374 2.07004,0.70807 1.80951,0.946c-0.66165,0.60422 -1.79602,0.00133 -2.69601,0.00133c-0.91068,0 -1.82132,0 -2.67467,0c-0.94267,0 -1.79474,0.00946 -2.59599,-0.00133c-0.77119,-0.01039 -1.63972,-0.04211 -2.828,-0.28267c-0.59526,-0.12051 -1.4334,-0.41838 -2.47968,-0.5945c-0.87344,-0.14703 -1.90057,-0.09554 -2.72032,-0.12151c-0.90269,-0.02859 -1.51167,-0.61813 -2.40134,-0.91467c-0.85765,-0.28587 -1.80087,-0.12253 -2.60001,-0.08533c-0.91763,0.04271 -1.2,1 -1.2,1.8l0,0.89999l0,0.90001" id="svg_20" stroke-width="5" stroke="#000000" fill="none"/> </g> </svg>