<svg width="640" height="480" xmlns="http://www.w3.org/2000/svg" xmlns:svg="http://www..w3.org/2000/svg"> <!-- Created with SVG-edit - http://svg-edit.googlecode.com/ --> <g> <title>Layer 1</title> <path d="m255,165c0.285339,-0.916 1.044556,-1.31105 1.799988,-1.716003c0.755981,-0.405243 1.510345,-0.902145 2.400024,-1.198669c0.857971,-0.28595 1.614319,-0.085327 2.569336,-0.085327c0.751495,0 1.547974,0 2.782471,0c0.709503,0 1.781525,0 2.418854,0c1.070984,0 1.838318,0 3.029327,0c0.79599,0 1.567993,0 2.291992,0c1.208008,0 2.004791,-0.091705 2.90802,0.001328c0.812592,0.083694 1.527954,0.75676 2.452667,0.941513c0.683136,0.13649 1.758759,-0.048416 2.547333,0.341156c0.870056,0.42984 1.499054,0.770386 2.299988,1.216003c0.799042,0.44455 1.700012,0.5 2.600006,0.5c0.899994,0 1.670105,0.020493 2.552673,0.352661c0.706207,0.265793 1.710815,0.629333 2.647308,0.647339c0.899872,0.017303 1.800018,0 2.700012,0c0.799988,0 1.700012,0 2.600006,0c0.899994,0 1.708984,0 2.733337,0c0.690002,0 1.559998,0 2.23999,0c1.169006,0 2.02301,0 2.88501,0c0.821991,0 1.875,0 2.819,0c0.687988,0 1.737,0 2.543976,0c1.17868,0 1.776001,0 2.637024,0c0.770996,0 1.869659,0 2.841644,0c0.901337,0 1.585358,0 2.52536,0c1.007996,0 1.799988,0 2.827332,0c0.694641,0 1.74115,-0.225494 2.647308,0.009003c0.881195,0.228027 1.138123,1.085083 1.866669,1.824326c0.587921,0.596558 1.394958,0.882492 1.8125,1.6875c0.465912,0.8983 0.6315,1.689835 1.020844,2.479172c0.389343,0.789337 0.834503,1.489563 0.979156,2.479172c0.133209,0.911377 0.020844,1.820831 0.020844,2.720825c0,0.900009 0,1.800003 0,2.557175c0,0.895493 -0.000671,1.758835 0,2.742828c0.000671,0.985336 -0.041565,1.728394 0.221344,2.699829c0.216217,0.79892 0.690369,1.622391 0.77417,2.495667c0.078857,0.821564 0.004486,1.788498 0.004486,2.65184c0,0.895493 -0.035767,1.853378 0.000153,2.752991c0.028595,0.715714 0.283844,1.667679 0.499847,2.399673c0.216003,0.731995 0.481995,1.827454 0.5,2.702667c0.015808,0.767838 -0.013885,1.812592 0.036011,2.618668c0.036041,0.582306 0.242523,1.778687 0.463989,2.657837c0.210815,0.836823 0.447266,1.831909 0.489319,2.674164c0.047913,0.960205 0.010681,1.846664 0.010681,2.646667c0,0.899994 0,1.800003 0,2.699997c0,0.899994 0,1.800003 0,2.703995c0,0.667511 0,1.560165 0,2.482666c0,0.67334 0.016357,1.98027 -0.004486,2.799011c-0.01767,0.693481 -0.209595,1.716797 -0.495514,2.4935c-0.369171,1.002823 -0.320038,1.741562 -0.536011,2.620834c-0.21344,0.868896 -0.652802,1.730423 -0.443146,2.399994c0.311371,0.99437 0.476898,1.752655 0.479156,2.657166c0.00235,0.944168 0,1.938339 0,2.685669c0,0.899994 0,1.857162 0,2.757172c0,0.899994 0.010864,1.700058 0,2.599991c-0.010437,0.862686 -0.161469,1.801147 -0.352661,2.658005c-0.143463,0.642883 -0.412781,1.581451 -0.562012,2.591339c-0.11203,0.758072 -0.077087,1.717392 -0.089813,2.770325c-0.009918,0.822113 -0.00824,1.252655 -0.080841,2.115005c-0.103149,1.225403 -0.328735,2.289215 -0.52533,2.90799c-0.350647,1.103714 -0.720917,1.78096 -1.032166,2.595673c-0.340088,0.890198 -0.155029,1.82399 -0.523834,2.661667c-0.321075,0.729248 -1.166351,1.309967 -1.64801,1.825348c-0.631897,0.676147 -1.147919,1.536652 -1.185333,2.47464c-0.035919,0.900635 -0.134827,1.611603 -0.705322,2.352692c-0.555695,0.721832 -1.148987,1.457977 -1.29483,2.447327c-0.102844,0.697601 -0.693359,1.497528 -0.91452,2.384003c-0.168152,0.674011 0.007233,1.785858 -0.251984,2.682648c-0.197601,0.683655 -0.653198,1.336761 -1.222687,2.197357c-0.544617,0.823029 -1.219055,1.374786 -1.574646,2.071991c-0.392975,0.770508 -0.303864,1.77948 -0.837341,2.363983c-0.656891,0.719696 -0.912048,1.624237 -1.641327,2.078674c-0.738037,0.4599 -1.534241,0.750885 -2.167999,1.146667c-0.75058,0.468719 -1.605957,0.782684 -2.489166,0.974823c-0.846832,0.184204 -1.393738,0.882355 -2.208191,0.963837c-0.802094,0.080231 -1.991638,0.036011 -2.582977,0.036011c-0.837006,0 -1.966003,0 -2.800018,0c-0.850647,0 -1.851837,0 -2.570313,0c-0.790497,0 -1.817841,0 -2.801178,0c-0.561676,0 -1.604156,0 -2.472168,0c-0.955994,0 -1.928009,0 -2.397491,0c-1.234497,0 -2.298492,0 -3.234497,0c-0.658691,0 -1.666687,0 -2.528839,0c-0.90451,0 -1.825348,0 -2.789825,0c-0.725342,0 -1.714508,0.000061 -2.493835,0c-0.999329,-0.000092 -1.797241,-0.12677 -2.541687,-0.5c-0.936798,-0.469666 -1.856689,-0.241974 -2.417816,-0.957336c-0.558655,-0.71225 -0.410522,-1.850403 -0.880188,-2.480164c-0.601227,-0.806152 -1.434967,-0.949524 -2.175812,-1.106171c-1.03952,-0.219788 -1.636078,-0.729279 -2.405334,-1.345673c-0.746582,-0.598206 -1.411987,-1.099213 -2.036011,-1.585327c-0.742157,-0.578125 -1.311127,-1.057648 -1.64801,-1.825317c-0.334442,-0.762115 -0.677612,-1.73764 -0.977325,-2.338684c-0.444458,-0.891357 -1.426819,-0.804169 -2.181488,-1.575653c-0.579803,-0.592712 -0.835754,-1.496887 -1.257172,-2.264832c-0.476166,-0.867706 -1.098053,-1.473022 -1.378662,-2.342346c-0.218018,-0.675476 -0.234314,-1.698914 -0.557343,-2.467834c-0.314545,-0.748749 -1.155334,-1.477783 -1.478668,-2.410675c-0.263458,-0.760162 -0.12793,-1.674286 -0.306671,-2.564331c-0.12146,-0.604721 -0.368134,-1.628906 -0.494659,-2.354324c-0.184326,-1.056778 -0.256836,-2.077469 -0.309326,-2.778671c-0.056702,-0.757477 -0.192017,-2.067062 -0.26001,-2.553329c-0.142029,-1.015915 -0.217896,-1.531876 -0.419159,-2.534164c-0.27179,-1.35347 -0.486298,-2.076447 -0.774658,-2.931839c-0.229279,-0.68013 -0.484497,-1.677658 -0.516357,-2.426163c-0.043884,-1.031006 -0.228912,-1.977234 -0.504486,-2.657166c-0.337128,-0.831802 -0.487305,-1.695572 -0.5,-2.600006c-0.01265,-0.900146 -0.543182,-1.603302 -0.878494,-2.5c-0.318085,-0.850632 -0.021759,-1.710312 -0.157501,-2.535995c-0.14415,-0.876877 -0.60257,-1.670456 -0.797333,-2.863998c-0.121597,-0.745209 -0.138382,-1.56514 -0.156006,-2.388c-0.016586,-0.774551 -0.010666,-1.725998 -0.010666,-2.669327c0,-0.963501 0,-1.764008 0,-2.61734c0,-0.940002 0,-1.925339 0,-2.825333c0,-0.800003 0,-1.699997 0,-2.600006c0,-0.899994 0,-1.799988 0,-2.699997c0,-0.899994 0,-1.800323 0,-2.514328c0,-0.955002 0,-1.706497 0,-2.503006c0,-1.229996 0,-1.90799 0,-2.849335c0,-0.790497 0,-1.643997 0,-2.833328c0,-0.899994 0,-1.5 0,-2.399994c0,-1.197342 0,-1.778671 0,-2.585678c0,-1.199997 0,-2.114655 0,-2.828659c0,-0.956329 0,-1.727341 0,-2.588333c0,-1.197342 -0.000061,-1.797333 0,-2.697342c0.000092,-1.200333 -0.013687,-1.809753 0.035995,-2.771988c0.036118,-0.699478 0.179077,-1.872192 0.321167,-2.746841c0.075439,-0.464401 0.253448,-1.438507 0.347336,-1.947327c0.295319,-1.60054 0.397736,-2.154099 0.591003,-3.268509c0.095001,-0.547791 0.270615,-1.595657 0.347336,-2.084c0.195923,-1.247162 0.338043,-2.322052 0.355835,-3.045334c0.025742,-1.045502 -0.002014,-1.821335 0.001328,-2.869324c0.002258,-0.705017 0.085327,-1.680008 0.425323,-2.53067l0.453339,-0.736008" id="svg_2" stroke-width="5" stroke="#000000" fill="none"></path> <path d="m251,198c-0.166672,-1.833328 -1.032684,-2.12561 -1.600006,-2.610672c-0.746704,-0.638443 -1.312408,-1.097977 -1.879166,-1.910156c-0.511978,-0.733673 -0.384155,-1.714569 -0.806168,-2.593842c-0.309937,-0.645752 -1.194794,-1.277847 -1.429321,-1.94133c-0.339523,-0.960526 -0.243118,-1.6427 -0.338013,-2.700333c-0.096786,-1.078674 -0.213318,-1.764511 -0.468155,-2.743668c-0.170776,-0.656158 -0.482178,-1.665833 -0.679169,-2.384003c-0.20311,-0.740494 -0.386597,-1.4944 -0.800003,-2.949326c-0.193726,-0.681824 -0.382263,-1.326218 -0.699997,-2.205002c-0.37886,-1.047836 -0.742172,-1.694489 -1.014664,-2.475006c-0.330063,-0.945435 -0.18988,-1.931198 -0.569336,-2.686661c-0.435577,-0.867203 -0.614899,-1.610474 -0.751999,-2.436005c-0.144745,-0.871582 -0.726288,-1.68129 -0.906845,-2.606827c-0.16449,-0.843185 -0.057159,-1.757172 -0.057159,-2.557175c0,-0.899994 -0.167328,-1.819641 0.020828,-2.699997c0.181381,-0.848663 1.068481,-1.427124 1.543167,-2.100006c0.518356,-0.734802 0.844879,-1.527298 1.269333,-2.399994c0.366684,-0.753922 0.728119,-1.468613 1.113998,-2.300003c0.404755,-0.872025 0.785919,-1.577911 1.552673,-2.179169c0.648407,-0.508453 1.446121,-0.874527 2,-1.520828c0.524185,-0.611649 0.926819,-1.408813 1.600006,-2.100006c0.493362,-0.506561 1.192596,-1.207474 1.899994,-1.899994c0.494873,-0.484467 1.380264,-0.985397 2,-1.5c0.602051,-0.499908 1.56958,-0.38855 2.300003,-0.857162c0.799911,-0.513199 1.254272,-1.315109 2.121323,-1.617508c0.880035,-0.306931 1.581635,-0.386169 2.328003,-0.599991c1.104767,-0.316483 1.960266,-0.47937 2.750671,-0.925339c0.57019,-0.321701 1.171204,-0.783035 1.824005,-1.223999c1.167542,-0.788666 1.80899,-1.124619 2.64267,-1.35733c1.042389,-0.29097 1.567108,-0.452927 2.436005,-0.634674c1.188416,-0.248581 1.807617,-0.209732 2.697327,-0.393829c1.219818,-0.252411 1.809052,-0.599869 2.44165,-0.910995c0.672729,-0.330872 1.78418,-0.835922 2.625,-1.092499c0.866302,-0.264343 1.745117,-0.448257 2.170837,-0.525009c1.493073,-0.269196 2.089996,-0.328079 3.049011,-0.357162c1.015717,-0.030807 1.661285,0.021332 2.946838,-0.171173c0.638519,-0.095612 1.321167,-0.254562 2.015991,-0.444c1.325287,-0.361328 2.154572,-0.665344 2.865326,-1.02533c0.972321,-0.492462 1.457214,-0.873047 2.326996,-1.34317c0.610199,-0.329819 1.617462,-0.725067 2.339691,-0.850159c1.068787,-0.185104 1.751953,-0.143524 2.854309,-0.170837c0.868805,-0.02153 1.741119,-0.301636 2.438995,-0.574493c0.930969,-0.363998 1.825348,-0.425339 2.625336,-0.425339c0.900024,0 1.800079,-0.010666 2.700012,0c0.900177,0.010666 1.625519,0.639847 2.171997,1.149338c0.776794,0.724213 1.598389,0.805893 2.437012,0.84166c0.890228,0.037964 1.795502,0.009003 2.411835,0.009003c0.964478,0 2.000244,-0.008408 2.722809,0.004501c1.059326,0.018921 1.750977,-0.082687 2.884857,0.34816c0.930359,0.353516 1.551025,0.641846 2.415314,0.869171c0.789398,0.207611 1.458862,0.456985 2.285522,0.750168c1.005676,0.356659 2.187958,0.794739 2.824982,1.028839c0.65097,0.239243 1.30368,0.479248 1.946991,0.712494c0.620697,0.225052 2.22406,0.813339 3.001343,1.03067c0.914398,0.255676 1.801453,0.174286 2.701843,0.260498c0.873291,0.083603 1.726166,0.466553 2.528839,0.995499c0.695831,0.458542 1.333313,1 2.166656,1.5c0.833344,0.5 1.436005,1.060013 2.200012,1.416c0.861511,0.401398 1.464905,0.826279 2.210663,1.483994c0.723846,0.638397 1.391937,1.042786 2.105316,1.314667c0.93869,0.357742 1.833984,0.603577 2.283997,1.172012c0.56778,0.717194 0.865509,1.484665 1.5,2.360657c0.474884,0.655624 1.047882,1.381546 1.342834,2.100006c0.406158,0.989319 0.751404,1.787231 1.190521,2.652664c0.342682,0.675385 1.070984,1.09465 1.556,1.871994c0.423401,0.678558 0.545013,1.734253 0.635986,2.363998c0.171753,1.189133 0.398468,1.993362 0.585327,2.538681c0.365631,1.067078 0.727783,1.746353 1.032166,2.56366c0.375122,1.007187 0.302826,1.963394 0.358521,2.863007c0.042572,0.687805 0.470032,1.606369 0.714661,2.314667c0.325928,0.943771 0.283997,1.883987 0.283997,2.783997c0,0.899994 0,1.800003 0,2.699997c0,0.800003 0,1.636002 0,2.652664c0,0.694672 0,1.711334 0,2.647339c0,0.899994 0,1.800003 0,2.699997c0,0.800003 -0.370636,1.42897 -0.87851,2.221497c-0.478516,0.746719 -0.241394,1.558365 -0.696167,2.37851c-0.433746,0.782196 -0.654266,1.663879 -1.311981,2.199997c-0.710968,0.579529 -1.541229,0.880615 -2.227997,1.68399c-0.544556,0.637024 -1.040497,1.456177 -1.449341,2.105347c-0.479218,0.76091 -1.063995,1.398575 -1.461334,2.021332c-0.478607,0.750092 -1.193451,1.400101 -1.617493,2.089325c-0.505341,0.821396 -0.296539,1.838882 -0.709839,2.600006c-0.405212,0.746231 -0.639923,1.479904 -1.004517,2.352661c-0.299377,0.716644 -1.046265,1.535507 -1.357483,2.231339c-0.397583,0.888931 -0.135803,1.971558 -0.32135,2.705338c-0.220459,0.871857 -0.921265,1.607635 -0.963989,2.510666c-0.042511,0.898987 -0.013153,1.750443 -0.520844,2.399994c-0.600616,0.768448 -1.279144,1.300003 -1.87915,1.899994l-0.700012,0.699844l-0.600006,0.542999l-0.799988,0.357162" id="svg_3" stroke-width="5" stroke="#000000" fill="none"></path> <path d="m329,217c1.799988,0 2.64212,-0.057571 3.084015,-0.801331c0.415344,-0.699051 0.763672,-1.71579 1.35199,-2.17334c0.742615,-0.577545 1.018646,-1.325577 1.785492,-1.903824c0.70813,-0.533966 1.778503,-0.121506 2.578491,-0.121506c0.835999,0 1.684021,0 2.547333,0c1.016693,0 2.029419,-0.183456 2.752502,0.221497c0.737366,0.412949 0.729675,1.398514 0.921021,2.278503c0.184021,0.846313 0.918274,1.593887 0.979156,2.5c0.053619,0.798203 0,1.699997 0,2.600006c0,0.899994 0,1.799988 0,2.699997c0,0.901337 0,1.866669 0,2.699997c0,0.833328 0.414825,1.819458 -0.057159,2.642838c-0.394348,0.687897 -1.059937,1.139084 -1.517517,1.957169c-0.431946,0.772293 -0.976166,1.340103 -1.725311,1.752655c-0.838562,0.461792 -1.490479,0.991547 -1.921509,1.747345c-0.381561,0.669083 -1.113159,1.399567 -1.87851,1.778656c-0.846771,0.419418 -1.599213,0.533524 -2.37915,1.121338c-0.654266,0.493103 -1.138977,1.310318 -1.435516,2.199997c-0.285889,0.857651 0.082825,1.836441 -0.170654,2.600006c-0.256348,0.772171 -0.857513,1.5 -0.914673,2.401337l0,0.965332l0,0.833328" id="svg_4" stroke-width="5" stroke="#000000" fill="none"></path> <path d="m253,197c-1.020828,0.979172 -1.9785,1 -2.79866,1c-0.901337,0 -1.801346,0 -2.70134,0c-0.899994,0 -1.800003,0 -2.699997,0c-0.900009,0 -1.845444,-0.193802 -2.600006,0.085327c-0.869598,0.321686 -1.174667,1.304001 -1.699997,1.914673c-0.52533,0.610672 -1.120926,1.30954 -1.414673,2.20134c-0.303177,0.920456 -0.107224,1.624237 -0.085327,2.631989c0.018005,0.828583 0.20813,1.713623 0.436005,2.428009c0.253708,0.795364 0.633926,1.831299 1.063995,2.696991c0.280701,0.565018 0.890823,1.414505 1.600006,2.141678c0.493698,0.506226 1.284775,1.141983 1.778656,1.999832c0.424484,0.73732 1.22261,0.852371 2.121338,0.900162c0.803406,0.042725 1.552353,0.481293 1.947327,1.300003c0.417526,0.865448 0.904495,1.468613 1.048172,2.399994c0.137222,0.889496 0.006744,1.800003 0.004501,2.699997c-0.002258,0.904526 -0.166672,1.766678 -0.5,2.600006c-0.333328,0.833328 -0.495499,1.695496 -0.5,2.600006l-0.020828,0.899994l-0.331833,0.800003" id="svg_5" stroke-width="5" stroke="#000000" fill="none"></path> <path d="m271,190c0.285339,-0.914673 1.101288,-0.952209 2,-1c0.803375,-0.042725 1.516388,-0.902084 2.399994,-0.953339c0.953278,-0.055298 1.471161,0.728622 2.436005,0.928009c0.75708,0.156448 1.751617,0.398773 2.506836,0.672668c0.895874,0.324905 1.823822,0.519333 2.657166,0.852661l0.833344,0.333328l0.755981,0.156006l0.910675,0.010666" id="svg_6" stroke-width="5" stroke="#000000" fill="none"></path> <path d="m304,191c1.757172,-0.057159 2.64212,-0.378922 3.347321,-0.647339c0.901276,-0.343048 1.592133,-0.488281 2.638,-1.016663c0.736755,-0.372208 1.514008,-0.837189 1.913361,-1.059998c0.764038,-0.426285 1.934723,-1.133759 2.783325,-1.262497c0.907715,-0.137711 1.748749,-0.075958 2.639313,0.207825c0.699036,0.222748 1.652985,0.690338 2.477356,0.777344c0.898254,0.094788 1.701324,0.522156 2.401337,1.199997l0.599976,0.515991" id="svg_7" stroke-width="5" stroke="#000000" fill="none"></path> <path d="m287,228c1.700012,0.995499 2.600006,1 3.5,1c0.899994,0 1.799988,0 2.700012,0c0.899994,0 1.799988,0 2.599976,0c0.900024,0 1.800018,0 2.700012,0c0.899994,0 1.799988,0 2.701324,0c0.965332,0 1.798676,0 2.632019,0c0.862152,0 1.786377,-0.002121 2.56665,0.425339c0.824066,0.451447 1.7659,0.743271 2.436005,1c0.764465,0.292877 1.758148,0.542175 2.506836,0.57016c1.031128,0.038528 2.075439,-0.338821 2.759827,0.040497c0.51535,0.285629 -0.18277,1.353943 -1.102661,1.797333c-0.647278,0.311996 -1.600006,0.166672 -2.5,0.166672c-0.899994,0 -1.799988,-0.000092 -2.700012,0c-0.899994,0.000092 -1.751953,0.245499 -2.5,0.647339c-0.779968,0.418976 -1.783997,0.352661 -2.47464,0.352661c-1.068176,0 -1.925507,0 -2.710693,0c-0.940002,0 -1.947998,0 -2.703979,0c-0.910675,0 -1.810669,0 -2.710663,0c-0.900024,0 -1.800018,0 -2.700012,0c-0.799988,0 -1.700012,0 -2.600006,0c-0.899994,0 -1.799988,0 -2.699982,0c-0.900024,0 -1.800171,0 -2.585358,0c-0.940002,0 -1.948059,0.00885 -2.703979,0c-0.890015,-0.010422 -1.405975,-0.610626 -1.410675,-1.520828c-0.004974,-0.961823 0.027954,-1.791107 0.574677,-2.493835c0.50882,-0.654037 1.449738,-0.618851 2.182495,-1.206833c0.686066,-0.550507 0.898407,-1.576309 1.742828,-1.757675c0.880157,-0.189041 1.822388,-0.218903 2.698669,-0.019501c0.804321,0.183029 0.984802,1.375443 0.579834,2.098511c-0.412964,0.73735 -1.421326,0.952835 -1.947845,1.616165l-0.851501,0.263168" id="svg_8" stroke-width="5" stroke="#000000" fill="none"></path> <path d="m276,194c1.585663,-1 0.700012,-1 -0.200012,-1l-0.899994,0l-0.899994,0l-0.799988,0" id="svg_9" stroke-width="5" stroke="#000000" fill="none"></path> <path d="m312,192c2.589325,1.02533 3.410675,1.436005 4.166656,2l0.658691,0.389328l0.690643,0.325333" id="svg_10" stroke-linecap="null" stroke-linejoin="null" stroke-dasharray="null" stroke-width="5" stroke="#000000" fill="none"></path> <path d="m291,208c-1,0 -1.780426,-0.004913 -2.652679,0.357162c-0.717285,0.29776 -1.603302,0.928589 -2.145996,1.442841c-0.719238,0.681564 -1.303314,1.297684 -1.915985,1.914658c-0.640259,0.64476 -1.182495,1.443329 -1.264496,2.285339c-0.094879,0.974106 0.001617,1.809921 0.840485,2.389328c0.602509,0.416138 1.686401,0.549286 2.459991,1.053345c0.543304,0.354004 1.105957,1.192413 2.053345,1.485321c0.907196,0.280487 1.646179,0.072006 2.825165,0.072006c0.779327,0 1.648254,-0.116501 2.552826,0.057159c0.930298,0.178589 1.563995,0.708344 2.490173,0.885681c0.941772,0.180328 1.891205,0.203659 2.557159,-0.028168c0.885681,-0.308319 1.673615,-0.748993 2.5,-1.271835c0.565186,-0.357574 1.16568,-1.260437 2.021332,-1.521332c0.82309,-0.250961 2.145264,0.047302 2.217346,-0.55751c0.105164,-0.882339 -0.975708,-1.49292 -1.723999,-1.553329c-0.925079,-0.074677 -1.704224,-0.39035 -1.981323,-1.177338c-0.294373,-0.836029 -0.933167,-1.5905 -1.666687,-2l-0.333313,-0.833328l-0.444,-0.636002" id="svg_11" stroke-linecap="null" stroke-linejoin="null" stroke-dasharray="null" stroke-width="5" stroke="#000000" fill="none"></path> <path d="m257,261c-1.052673,1.700012 -1.533524,2.528839 -2.166672,3.166656c-0.497681,0.501343 -1.140167,1.09491 -1.690659,1.52002c-0.986557,0.761871 -1.807495,1.26947 -2.240005,1.538666c-0.894211,0.556549 -1.353195,0.832245 -2.735992,1.608002c-0.443176,0.248627 -1.308197,0.708252 -2.125,1.166656c-0.396576,0.222565 -1.181122,0.647614 -2.220169,1.421326c-0.682297,0.508057 -1.297745,1.082001 -1.917007,1.626007c-0.900253,0.790863 -1.49733,1.272003 -2.08316,1.705994c-0.800934,0.593323 -1.697357,1.203156 -2.279663,1.72583c-0.664627,0.596558 -1.18399,1.176514 -2.084503,1.62085c-0.698242,0.344513 -1.5159,0.582733 -2.535507,0.999817c-0.679779,0.278076 -1.574493,0.31955 -2.474991,0.925507c-0.661758,0.445313 -1.150101,1.029266 -1.946671,1.47467c-0.803436,0.449249 -1.666672,0.666656 -2.5,1c-0.833328,0.333344 -1.432602,0.741974 -2.166672,1.333344c-0.698914,0.56308 -1.360657,0.798218 -1.82933,1.577332c-0.468353,0.778564 -1.077377,1.222961 -1.727997,1.763977c-0.93454,0.77713 -1.175049,1.480042 -1.712006,2.225342c-0.56398,0.782837 -1.311188,1.256592 -1.859497,1.899994c-0.642136,0.75351 -0.788498,1.5 -1.27916,2.300018l-0.389343,0.799988l-0.035995,0.90451" id="svg_12" stroke-linecap="null" stroke-linejoin="null" stroke-dasharray="null" stroke-width="5" stroke="#000000" fill="none"></path> <path d="m324,259c1.757172,0.057159 2.661835,0.347321 3.40451,0.704498c0.801819,0.38562 1.471466,0.735626 2.047485,1.03949c0.74707,0.394073 1.715424,0.921265 2.29834,1.24234c0.646515,0.35611 1.347412,0.747711 2.091003,1.179016c0.785889,0.455841 1.601135,0.943237 2.432983,1.46698c0.853607,0.537445 2.563904,1.694305 3.403503,2.309509c0.836426,0.612854 1.647247,1.240692 2.443512,1.855499c0.77475,0.598206 1.518982,1.178741 2.245483,1.711487c0.685852,0.50293 1.957428,1.341797 2.546844,1.641022c0.534546,0.271393 1.044983,0.470337 1.520996,0.619507c0.437195,0.136993 0.8573,0.200562 1.589325,0.391998c0.942719,0.246521 1.718842,0.669556 2.309845,1.190491c0.818176,0.721191 1.64621,1.077606 2.30899,1.700836c0.603882,0.567841 0.367249,1.608337 1.0625,2.251831c0.54538,0.504791 1.14682,1.357941 1.342834,2.042816c0.259491,0.906677 1.137207,1.378632 1.751831,1.822021c0.742798,0.535828 1.039734,1.321991 1.589355,2.205322c0.479675,0.770905 0.60022,1.625183 0.610657,2.603821c0.008728,0.820129 0.034698,1.733826 0.425323,2.421509c0.463196,0.81543 0.540771,1.700653 0.574677,2.600006c0.028595,0.758789 0.352661,1.652679 0.647339,2.347321l0.31665,1.016693l0.036011,0.935974l0,0.901337" id="svg_13" stroke-linecap="null" stroke-linejoin="null" stroke-dasharray="null" stroke-width="5" stroke="#000000" fill="none"></path> <path d="m250,270c2.335999,0.569336 3.104095,0.854584 3.898666,1.185333c0.392059,0.163208 1.720627,0.784058 2.357346,1.167999c0.851593,0.513489 1.564575,0.674896 2.515991,0.932007c0.796265,0.215179 1.391144,0.429718 2.749176,0.814667c0.725403,0.205627 1.460419,0.391541 2.168976,0.600006c0.980011,0.28833 1.813751,0.575989 2.524506,0.935974c0.972321,0.492462 1.743866,1.012512 2.285339,1.384857c0.825134,0.567413 1.59021,1.16568 2.253326,1.768494c0.595917,0.541748 1.225311,1.189362 1.872009,1.835999c0.696136,0.696045 1.192291,1.220764 1.779175,1.721985c0.772003,0.659302 1.682678,0.994537 2.352661,1.752502c0.600464,0.679321 1.094055,1.236969 1.668152,1.874847c0.520874,0.578735 1.250183,0.944794 1.97467,1.461334c0.785614,0.56012 1.256622,1.311157 1.899994,1.859497c0.753357,0.64209 1.45816,0.981903 1.866669,1.704498c0.378143,0.668884 1.32373,1.189209 2.007996,1.600006c0.811768,0.487305 1.43219,1.027344 2.308014,1.600006c0.643066,0.420471 1.156525,1.179688 1.874512,1.747314c0.711975,0.562866 1.596863,0.514343 2.285645,1.105347c0.659485,0.565887 0.793976,1.616882 1.670685,1.890167c0.710846,0.221588 1.74115,0.057159 2.728149,0.057159c0.714691,0 1.791687,0 2.473022,0c0.964478,0 1.884003,0 2.785156,0c0.889496,0 1.743073,0.012085 2.778503,-0.000153c0.880188,-0.010406 1.835541,-0.053497 2.400818,-0.541504c0.754944,-0.651764 1.066193,-1.532928 1.392334,-1.977173c0.849274,-1.15683 1.171631,-1.457611 1.815186,-2.121185c0.662933,-0.683533 0.983643,-1.030975 1.97998,-1.859985c0.788116,-0.655762 1.612732,-0.918701 2.223511,-1.799988c0.493164,-0.711548 1.056641,-1.171356 1.752655,-1.752686c0.603699,-0.504211 0.674255,-1.454651 1.071503,-2.314331c0.314545,-0.680695 0.678223,-1.398529 1.285675,-2.466339c0.389526,-0.684723 0.773956,-1.328369 1.200012,-1.884003c0.755402,-0.985138 1.392761,-1.472351 2.142822,-1.973663c0.767761,-0.513153 1.106171,-1.29538 1.766998,-1.951813c0.579041,-0.575195 1.598236,-0.819702 1.904846,-1.5065c0.364746,-0.817017 1.306183,-1.185852 1.985321,-1.850677c0.494873,-0.484467 0.786926,-1.446655 1.436005,-1.97467c0.729797,-0.593658 1.288727,-1.067871 1.64801,-1.825317c0.410492,-0.865387 1.115997,-1.398682 1.715973,-1.914673l0.957184,-0.338013l0.890991,-0.304504l0.641998,-0.347321" id="svg_14" stroke-linecap="null" stroke-linejoin="null" stroke-dasharray="null" stroke-width="5" stroke="#000000" fill="none"></path> </g> </svg>