<svg width="640" height="480" xmlns="http://www.w3.org/2000/svg" xmlns:svg="http://www.w3.org/2000/svg"> <!-- Created with SVG-edit - http://svg-edit.googlecode.com/ --> <g> <title>Layer 1</title> <path d="m176.09088,209.09088c-6.66667,-52.5 -7.03362,-55.57306 -7.31866,-58.12933c-0.23296,-2.08917 -0.40659,-3.76508 -0.53551,-5.07899c-0.09846,-1.00348 -0.1568,-1.75046 -0.22049,-2.289c-0.07935,-0.67096 -0.13646,-0.89919 -0.20934,-1.07733c-0.06039,-0.14767 -0.13583,-0.26112 -0.216,-0.34201c-0.07014,-0.07077 -0.16043,-0.10231 -0.216,-0.16199c-0.4408,-0.47331 -0.56799,-1.40401 -0.93134,-2.2115l-0.35266,-0.87651l0.036,-0.83333" id="svg_1" stroke-width="5" stroke="#000000" fill="none"/> <path d="m166.09088,142.09088c1.83333,-0.16667 2.04897,-1.12669 2.64667,-1.564c0.73647,-0.53882 1.65094,-0.44508 2.68666,-0.76933c0.64696,-0.20253 1.32465,-0.52559 2.052,-0.81601c0.72874,-0.29099 2.13084,-0.69835 2.81067,-0.78932c0.69922,-0.09357 1.46024,-0.12985 2.76834,-0.28267c0.49098,-0.05736 1.53281,-0.20534 2.07733,-0.27867c1.11429,-0.15005 1.67476,-0.24086 3.3365,-0.37849c0.53323,-0.04416 1.56441,-0.08881 2.05933,-0.10068c0.94353,-0.02263 2.22922,-0.02727 2.99316,-0.0195c1.04863,0.01067 1.72104,0.02678 2.73601,0.16534c0.71909,0.09818 1.81642,0.3396 2.5235,0.53783c0.98236,0.27539 1.78995,0.6199 2.52449,0.8595c0.9406,0.30681 1.73964,0.36768 2.56001,0.46133c1.06116,0.12114 1.78101,0.30183 2.62082,0.67917c1.02277,0.45953 1.61893,0.81012 2.28984,1.0955c0.98836,0.42041 1.78522,0.70869 2.54533,0.91466c1.07611,0.29158 1.82402,0.59369 2.48534,1.00134c0.76988,0.47458 1.63666,0.63666 2.27333,1.27333c0.58533,0.58533 1.36333,1.01067 2.23199,1.01067c0.864,0 1.96358,0.52159 2.65717,0c0.59564,-0.44794 0.75656,-1.15921 1.28818,-1.83333c0.502,-0.63658 0.61726,-1.4565 1.11732,-2.08267c0.49324,-0.61763 0.79832,-1.48712 1.54933,-1.91733c0.69705,-0.39931 1.41173,-0.85172 2.2765,-1.16217c0.71748,-0.25757 1.90327,-0.13422 2.48567,-0.36166c0.76764,-0.2998 1.54997,-1.11237 2.4045,-1.47617c0.82332,-0.35051 1.66682,-0.15573 2.41066,-0.17117c0.88837,-0.01843 1.89981,-0.20847 2.69067,-0.57016c0.76492,-0.34984 1.62102,-0.39934 2.26933,-0.41467c1.29568,-0.03065 2.11501,-0.01067 3.02034,-0.01067c1.00899,0 1.80899,0 2.80882,0c0.77934,0 1.6335,0 2.4615,0c0.88133,0 1.83867,0 2.57066,0c1.08534,0 2.13441,-0.20641 2.71085,0.35266c0.52527,0.50945 1.22511,0.60034 2.08249,0.64734c0.77951,0.04272 1.51076,0.74814 2.364,0.964c0.93456,0.23643 1.832,0.036 2.696,0.036c0.92535,0 2.00333,-0.42047 2.63068,0.08533c0.70322,0.56697 0.284,1.748 0.284,2.56201c0,0.92732 0,1.778 0,2.68599c0,0.81601 -0.19885,1.66542 -0.64734,2.37117c-0.46231,0.72746 -0.34311,1.74063 -0.43799,2.43683c-0.16388,1.20259 -0.34149,1.98108 -0.41467,2.40034c-0.15039,0.86147 -0.34958,2.12344 -0.41467,2.88632c-0.086,1.0079 -0.08466,1.884 -0.08533,2.88667c-0.00046,0.66451 0,1.68533 0,2.48534c0,0.8 -0.05872,1.80669 0.05716,2.59999c0.14825,1.01494 0.5535,1.8 0.94284,2.60001c0.38934,0.8 0.72739,1.59706 0.95184,2.5955c0.16751,0.74525 0.6004,1.54222 1.23349,1.99384c0.90738,0.64726 1.46252,1.06512 2.13617,1.95349c0.3475,0.45825 0.87811,1.25079 1.27982,1.77451c0.77765,1.01382 1.39514,1.66527 1.79868,2.07816c0.79312,0.81148 1.41507,1.4015 2,2.06168c0.61621,0.69548 1.20721,1.50255 1.62085,2.0845c0.43921,0.61794 1.1463,1.62465 1.66315,2.345c0.26892,0.37482 0.82623,1.14827 1.36334,1.97499c0.27393,0.42163 1.03543,1.75743 1.26868,2.22101c0.46686,0.9279 0.6619,1.40782 1.13666,2.3075c0.68262,1.29355 0.95639,1.67584 1.49551,2.39999c0.51944,0.69774 1.1041,1.31938 1.71848,2.37651c0.40359,0.69444 0.67609,1.45148 0.87601,2.20799c0.19427,0.7352 0.36038,1.80164 0.42133,2.76801c0.05283,0.83743 0.03601,1.888 0.03601,2.73999c0,0.95334 -0.03058,1.71928 0.00449,2.71735c0.02814,0.80122 0.28665,1.79745 0.49551,2.39999c0.34521,0.99596 0.48077,1.79945 0.49866,2.60001c0.02231,0.99976 -0.03882,1.8009 0.004,2.80133c0.0358,0.83676 0.31042,1.77524 0.70267,2.55133c0.2804,0.55479 0.81415,1.3327 1.12534,2.362c0.25867,0.85558 0.37955,1.88924 0.66934,2.66451c0.32104,0.85886 0.49466,1.68211 0.5,2.564c0.00449,0.73949 0,1.623 0,2.6235c0,0.71733 0,1.83333 0,2.58066c0,1.086 0,1.798 0,2.662c0,0.549 0,1.20801 0,2.00101c0,0.95099 0,3.42299 0,4.98099c0,1.746 0,3.638 0,5.634c0,2.058 0,4.136 0,6.192c0,1.992 0.00058,5.616 -0.00015,7.17368c-0.00067,1.38367 -0.00168,2.60936 -0.01053,3.69301c-0.00781,0.95767 -0.0202,1.80548 -0.04648,2.55899c-0.02356,0.67584 -0.10333,1.85767 -0.16434,2.39233c-0.05798,0.50803 -0.13071,0.98953 -0.21451,1.44598c-0.08008,0.43622 -0.17133,0.85147 -0.26849,1.24802c-0.09363,0.38211 -0.29431,1.10434 -0.39532,1.44867c-0.09769,0.33301 -0.19492,0.65158 -0.28952,0.95398c-0.08911,0.28488 -0.17426,0.54947 -0.25348,0.79202c-0.07147,0.21878 -0.19012,0.57611 -0.23584,0.71167c-0.03702,0.10974 -0.06683,0.19809 -0.09601,0.267c-0.02383,0.0563 -0.10953,0.17847 -0.63599,0.70798c-0.68509,0.68909 -1.15973,1.53073 -1.47336,2.18933c-0.39896,0.8378 -1.31543,1.18201 -2.22498,1.20001c-1.02414,0.02026 -1.78433,0.00827 -2.58685,0.125c-0.53946,0.07846 -1.18729,0.20786 -1.95749,0.38699c-1.98624,0.46198 -3.21039,0.81284 -4.57599,1.19202c-1.47147,0.40857 -3.01184,0.84863 -4.59152,1.29599c-1.58432,0.44867 -3.13864,0.89264 -4.63651,1.29599c-2.67186,0.71945 -3.7968,0.98676 -4.78265,1.19202c-0.86125,0.17932 -1.62518,0.30789 -2.31,0.38699c-0.62218,0.07184 -1.20647,0.10553 -1.77,0.117c-1.14645,0.02335 -1.76517,0.008 -2.41466,0.008c-0.67151,0 -1.356,0 -2.04451,0c-0.6835,0 -1.353,0 -1.9995,0c-1.188,0 -1.714,0.00095 -2.196,-0.00134c-0.444,-0.00211 -0.85609,-0.00644 -1.242,-0.0195c-0.3661,-0.01239 -0.71857,-0.03012 -1.062,-0.06448c-0.68936,-0.06894 -1.04358,-0.13229 -1.40666,-0.20132c-0.37265,-0.07086 -1.1416,-0.23434 -1.91917,-0.47501c-1.2058,-0.3732 -2.00032,-0.70743 -2.77417,-1.07434c-0.75699,-0.35892 -1.47281,-0.7323 -2.37866,-1.36417c-0.55153,-0.3847 -1.28981,-1.03992 -1.81067,-1.48517c-0.869,-0.74286 -1.53902,-1.271 -2.25282,-1.81467c-0.36308,-0.27652 -1.09271,-0.82132 -2.1575,-1.57849c-0.65767,-0.46765 -1.2923,-0.88403 -2.13501,-1.52017c-0.77681,-0.5864 -1.46555,-1.19763 -1.87599,-1.63733c-0.84219,-0.90222 -1.21185,-1.44711 -1.81067,-2.26401c-0.40079,-0.54675 -1.19582,-1.58228 -1.60001,-2.04733c-0.5939,-0.68335 -1.01933,-1.12149 -1.79999,-2.13666c-0.41032,-0.53357 -0.98317,-1.37646 -1.60001,-2.14935c-0.57996,-0.72668 -1.02272,-1.1347 -1.51466,-1.85065c-0.66109,-0.96213 -0.86603,-1.54581 -1.18083,-2.42052c-0.42732,-1.18736 -0.59766,-1.79338 -0.90451,-2.6595c-0.19565,-0.55222 -0.69196,-1.78262 -1,-2.42532c-0.48752,-1.01717 -0.81068,-1.63199 -1.15717,-2.325c-0.56421,-1.12848 -0.89935,-1.79362 -1.24283,-2.5065c-0.3513,-0.72911 -0.84041,-1.80962 -1.11467,-2.49251c-0.25597,-0.63737 -0.55566,-1.53514 -0.9855,-2.56532c-0.29347,-0.70335 -0.63969,-1.38429 -1.22133,-2.34267c-0.32607,-0.53728 -0.87611,-1.36301 -1.27983,-1.89467c-0.77283,-1.01776 -1.20432,-1.43408 -1.7415,-2.0795c-0.65585,-0.78801 -1.20648,-1.57497 -1.49049,-2.60451c-0.21045,-0.76289 -0.29297,-1.73854 -0.92834,-2.04817c-0.85291,-0.41563 -1.66748,-0.67999 -2.43832,-1.27316c-0.62102,-0.47787 -1.17224,-1.06285 -2,-1.65733c-0.77559,-0.55701 -1.43097,-0.86629 -2.19867,-1.50667c-0.60648,-0.50589 -1.15178,-1.09071 -1.84866,-2.11467c-0.39899,-0.58624 -0.90042,-1.41595 -1.40533,-1.9955c-0.67024,-0.76932 -1.34776,-1.3632 -1.84734,-1.92532c-0.69818,-0.7856 -1.15834,-1.48518 -1.5,-2c-0.5248,-0.79076 -1.14615,-1.776 -1.45833,-2.4375c-0.47104,-0.99812 -0.52745,-1.71275 -0.76317,-2.58417c-0.25677,-0.94923 -0.5816,-1.60269 -1.25768,-2.41583c-0.51151,-0.61522 -0.54166,-1.54167 -1.1315,-2.03101l-0.8685,-0.01067l-0.94617,0" id="svg_2" stroke-width="5" stroke="#000000" fill="none"/> <path d="m184.09088,174.09088c0.87849,0 1.716,0 2.57466,0c0.92534,0 1.85068,0 2.70934,0c0.93733,0 1.80133,0 2.71468,0c0.87982,0 1.71733,0 2.57599,0l0.92534,0l0.5,-0.42534l0.35266,-0.57916" id="svg_3" stroke-width="5" stroke="#000000" fill="none"/> <path d="m217.09088,169.09088c1.64734,0 2.57466,0 3.42534,0c0.92732,0 1.79599,0 2.74133,0c0.83333,0 1.74933,0 2.53783,0c0.89551,0 1.7955,0 2.68483,0c0.96333,0 1.832,0 2.77734,0c0.85416,0 1.87958,0.43755 2.54933,0c0.5918,-0.38661 0.98079,-0.90582 1.284,-1.42534c0.41646,-0.71355 0.87134,-1.51372 1.64734,-1.57466c0.92447,-0.0726 1.85266,0 2.70532,0c0.93134,0 1.81401,0 2.7045,0c0.88568,0 1.77617,0 2.59018,0c0.92732,0 1.89847,-0.27122 2.70532,0.0045c0.77141,0.26363 1.25797,0.99016 2.14734,0.9955c0.89998,0.0054 1.82169,-0.1949 2.69867,0.00133c0.80704,0.18057 1.23683,0.98067 2.19066,0.99867c0.89452,0.01688 1.77733,0 2.66783,0l0.88568,0l0.05716,0.83333l0,0.81401" id="svg_4" stroke-width="5" stroke="#000000" fill="none"/> <path d="m193.09088,185.09088c0.97917,1 1.57509,1.17278 2.08533,1.716c0.57678,0.61407 1.41914,0.78116 1.916,1.56799c0.42787,0.67758 1.55383,0.33421 1.99867,0.93733c0.49612,0.67265 0.21495,1.71777 1.08533,1.77867c0.92308,0.06459 1.27678,-0.46954 1.95067,-1c0.69043,-0.54349 0.94966,-0.91612 1.68001,-1c0.85304,-0.09798 1.21074,-0.57303 1.70934,-1c0.51213,-0.43855 0.57466,-1.284 0.57466,-2.16667c0,-0.86932 0,-1.748 0,-2.66666c0,-0.81401 -0.57466,-1.16667 -1.42534,-1.16667c-0.92732,0 -1.85866,0 -2.74133,0c-0.86932,0 -1.79221,-0.28156 -2.66666,0c-0.69388,0.22342 -0.6519,1.46851 -1.22383,2c-0.6754,0.62764 -0.94284,0.87849 -1.44284,1.5l-0.5,0.72133" id="svg_5" stroke-width="5" stroke="#000000" fill="none"/> <path d="m240.09088,172.09088c-0.98933,2.58934 -0.71091,3.55197 -1.01067,4.38933c-0.26375,0.73676 -1.14821,1.12874 -1.70534,1.69467c-0.66055,0.67101 -1.39276,0.72084 -2.284,1.08267c-0.67229,0.27293 -1.56142,0.64983 -2.284,1.11732c-0.74963,0.485 -0.93184,1.26518 -1.54933,1.88268c-0.61749,0.61749 -1.46576,0.8938 -1.88268,1.54933c-0.44749,0.7036 -0.43605,1.72189 -0.284,2.63666c0.11218,0.67487 1.08533,0.64734 2.01067,0.64734c0.868,0 1.70534,0 2.60001,0c0.88933,0 1.77866,0 2.74649,0c0.84151,0 1.72684,0 2.6535,0c0.86783,0 1.70534,0 2.63667,0c0.85266,0 1.778,0.00009 2.70532,0c0.86867,-0.00009 1.56934,-0.35417 1.64734,-1.284c0.06737,-0.80304 0.66646,-1.35568 1,-2.216c0.30142,-0.77747 0.97141,-1.44125 1,-2.216c0.03436,-0.93069 0.17053,-2.00859 -0.42534,-2.284c-0.84175,-0.38907 -1.79599,0 -2.65999,0c-0.92534,0 -1.82935,0 -2.63068,0l-0.93134,0l-0.35266,-0.5l0,-0.92534" id="svg_6" stroke-width="5" stroke="#000000" fill="none"/> <path d="m216.09088,205.09088c-2.23833,4.12849 -2.63808,4.82492 -2.9955,5.64284c-0.35748,0.81808 -1.35097,0.74434 -1.98367,1.37799c-0.63269,0.63362 -0.02083,1.69518 -0.02083,2.62651c0,0.85266 0,1.778 0,2.70532c0,0.86867 0,1.81401 0,2.66817c0,0.89384 0,1.69518 0,2.62651c0,0.85266 -0.15205,1.79056 0,2.70532c0.11218,0.67487 0.58575,1.17134 1.284,1.56201c0.63602,0.35585 0.88268,-0.91467 1.752,-0.91467c0.90685,0 1.79733,0 2.61134,0c0.92732,0 1.83015,0.30214 2.70532,-0.0045c0.75385,-0.26413 1.07741,-0.90201 2,-0.9955c0.82666,-0.08376 1.3291,-0.85617 2.222,-1c0.83984,-0.13528 1.1819,-0.52934 1.70934,-1c0.55916,-0.49898 0.80133,-1 1.7205,-1c0.87399,0 1.16971,-0.6205 1.9955,-0.91467c0.73959,-0.26347 1.41066,0.97267 2,1.41467c0.58934,0.442 1.45296,1.3132 2.284,1.5c0.86119,0.19357 1.752,0 2.65884,0c0.89049,0 1.59644,-0.11253 2.05716,-0.87849c0.41115,-0.68353 1.23306,-0.97963 2.08533,-1.12151c0.86472,-0.14395 0.42714,-1.35065 0.95067,-2c0.54674,-0.67813 0.58276,-1.27809 1.18533,-1.87849c0.57072,-0.56866 0.77867,-1.117 0.77867,-2c0,-0.83751 0,-1.69617 0,-2.62151c0,-0.92534 -0.00133,-1.784 -0.42534,-2.464l-0.57466,-0.38866l0,-0.93134l-0.22133,-0.716" id="svg_7" stroke-width="5" stroke="#000000" fill="none"/> <line id="svg_8" y2="242.09088" x2="254.09088" y1="246.09088" x1="222.09088" stroke-linecap="null" stroke-linejoin="null" stroke-dasharray="null" stroke-width="5" stroke="#000000" fill="none"/> <path d="m222.09088,253.09088c1,0 1.56615,0.41737 2.284,0.91467c0.71004,0.4919 1.60133,0.52798 2.41734,0.93599c0.59732,0.29866 1.68387,0.73418 2.37866,1.23201c0.68439,0.49036 1.45027,0.85843 2.31999,1.34265c0.72859,0.40564 1.73822,0.25244 2.43333,0.74133c0.71429,0.50241 1.33334,0.83334 2.21935,0.83334c0.91133,0 1.90236,-0.44727 2.66333,0c0.56706,0.33328 1.07529,0.64838 1.85866,1c0.61136,0.27441 1.07266,0.99774 2,1c0.85068,0.00204 1.78282,0.0914 2.64667,0c0.79189,-0.0838 1.12941,-0.35757 1.77417,-1c0.62234,-0.62009 0.73013,-0.99533 1.0045,-1.57468c0.3656,-0.772 1,-1.44617 1,-2.34c0,-0.80133 0,-1.79517 0,-2.43716c0,-1.10649 0,-2.00082 0,-2.86949c0,-0.94534 0.30316,-1.57683 1.16667,-1.77867c0.7791,-0.1821 0.31856,-1.46851 0.89049,-2c0.6754,-0.62764 1.16417,-0.88533 1.36818,-1.70134l0.14932,-0.59732" id="svg_9" stroke-linecap="null" stroke-linejoin="null" stroke-dasharray="null" stroke-width="5" stroke="#000000" fill="none"/> <path d="m226.09088,248.09088c0.284,0.91467 1.16667,1 2.036,1c0.90685,0 1.01637,0.85631 1.94318,1c0.8887,0.13779 1.75313,-0.2261 2.6875,0c0.74969,0.18143 1.33499,0.94095 2.24933,1c0.80287,0.05185 1.0871,0.97141 1.96249,1c0.83707,0.02734 1.69617,0 2.62151,0c0.92534,0 1.784,0 2.72133,0c0.83583,0 1.75784,0 2.65717,0l0.83751,0l0.85866,0l0.92534,0" id="svg_10" stroke-linecap="null" stroke-linejoin="null" stroke-dasharray="null" stroke-width="5" stroke="#000000" fill="none"/> <path d="m168.09088,139.09088c-1.64734,0 -2.58549,0.13528 -3.42534,0c-0.8929,-0.14383 -1.4494,-0.9095 -2.289,-1.0045c-0.69223,-0.07832 -1.68164,-0.28667 -2.44966,-0.57016c-0.94876,-0.35022 -1.73622,-0.46825 -2.672,-0.86134c-0.57964,-0.2435 -1.5769,-0.73785 -2.328,-1.164c-0.83125,-0.47163 -1.42799,-0.99731 -2.136,-1.7c-0.50189,-0.49811 -1.37329,-1.11592 -1.64284,-2.0045c-0.25082,-0.82686 -0.05716,-1.71632 -0.05716,-2.6955c0,-0.78934 -0.15344,-1.85657 0.036,-2.58933c0.22626,-0.87521 1.06288,-1.5118 1.664,-2.11066c0.59888,-0.59663 1.39337,-1.23785 2.18533,-1.29867c0.93724,-0.07198 1.66168,-0.22398 2.70401,0.03467c0.86351,0.21427 1.52849,0.64545 2.35799,0.9685c0.78993,0.30764 1.33801,0.9955 2.25134,0.9955c0.86267,0 1.7843,-0.27863 2.632,0.284c0.70561,0.46832 1.30768,1.10207 1.96933,1.43201c0.84335,0.42054 1.84283,0.284 2.7,0.284c0.936,0 1.79556,0.01069 2.66933,0c0.8517,-0.01042 1.78259,-0.26965 2.52617,-0.64733c0.80022,-0.40644 1.64131,-0.53981 2.44318,-0.92734c0.85828,-0.41479 1.09395,-1.28446 1.68799,-1.59467c1.19505,-0.62406 1.60278,-0.93539 2.07867,-1.25066c1.0602,-0.70235 1.61409,-1.08213 2.17867,-1.45334c0.55579,-0.36543 2.07309,-1.31239 2.50867,-1.51933c1.01761,-0.48347 1.59766,-0.55325 2.82866,-0.82883c0.53514,-0.1198 1.36308,-0.36365 2.412,-0.7785c0.72566,-0.28701 1.42929,-0.63341 2.5,-1.16666c0.63409,-0.3158 1.31165,-0.64923 1.98001,-1.008c1.19582,-0.64191 1.79828,-1.10865 2.48749,-1.52084c0.93668,-0.56019 1.71339,-0.80689 2.25101,-0.94733c1.24982,-0.32647 1.92719,-0.34675 2.94817,-0.35717c0.79996,-0.00816 1.60001,0 2.5955,0c0.91916,0 1.93553,-0.08559 2.709,0.35717c0.63457,0.36325 1.32626,1.00197 2.09999,1.28566c0.96921,0.35536 1.81497,0.30109 2.7955,0.57867c0.82187,0.23267 1.39076,0.59902 2.40001,1.07401c0.59476,0.27991 1.60408,0.55843 2.37917,0.7045c1.00604,0.18958 1.60896,0.66917 2.50616,1.19867c0.69942,0.41277 1.71049,0.72169 2.51466,0.78049c0.99756,0.07295 1.78934,0.02084 2.51466,0.02084c1.07468,0 1.88533,0 2.78534,0c0.89999,0 1.80684,0.11076 2.7,0c0.89922,-0.11152 1.36165,-0.76128 2.09984,-1.2215c0.71716,-0.44711 0.95869,-1.41154 1.70149,-1.8625c0.70435,-0.42762 1.31779,-1.22736 1.99867,-1.63067c0.82715,-0.48994 1.68433,-0.78006 2.36667,-1.452c0.55354,-0.5451 1.42122,-0.72885 2.13333,-1.19051c0.79747,-0.51699 1.29436,-1.33277 2.18533,-1.5575c0.70702,-0.17832 1.71466,-0.08533 2.51466,-0.08533c1,0 1.81067,0 2.68533,0c0.99733,0 1.79384,0 2.54533,0c1.108,0 2.09067,-0.00006 2.76933,0c0.97867,0.00008 1.90228,0.03833 2.65268,0.35717c0.71478,0.30371 1.81906,0.75494 2.26199,1.55883c0.38669,0.70179 0.58005,1.56831 1.25198,2.25066c0.5451,0.55355 1.42337,1.14124 1.83334,1.8905c0.40829,0.74624 0.79977,1.22032 1.284,1.85883c0.51855,0.68378 1.44159,0.95792 1.70532,1.69466c0.29977,0.83736 0.01068,1.78934 0.01068,2.68484c0,0.92583 0,1.87116 0,2.72533c0,0.89383 0,1.69517 0,2.6265c0,0.92733 -0.49686,1.47608 -0.96399,2.31667c-0.43359,0.78026 -1.02032,1.03072 -1.61069,1.61066c-0.6524,0.64088 -1.30383,1.30383 -2.07266,1.42534l-0.92734,0l-0.42532,0.42534" id="svg_11" stroke-linecap="null" stroke-linejoin="null" stroke-dasharray="null" stroke-width="5" stroke="#000000" fill="none"/> <path d="m174.09088,196.09088c-3.328,-0.42534 -4.09389,-0.93912 -5,-1c-0.91527,-0.06151 -1.70984,0 -2.51733,0c-1.07201,0 -1.88266,0 -2.78267,0c-0.89999,0 -1.8,0 -2.7,0c-0.8,0 -1.937,-0.39752 -2.64734,0c-0.58838,0.32925 -0.64784,1.47508 -0.34816,2.35266c0.26346,0.77147 0.98483,1.222 0.9955,2.14734c0.01067,0.92534 0.54457,1.44044 1.16667,2.33333c0.38094,0.54674 0.65457,1.29051 0.972,2.04001c0.29819,0.70407 0.73994,1.8553 1.14532,2.69466c0.35333,0.73158 0.7784,1.72809 1.43201,2.14801c0.77095,0.4953 1.21312,1.07932 1.85199,1.56934c0.66563,0.51056 1.28625,1.15665 1.716,1.91466c0.36465,0.64317 0.76868,1.5 1.216,2.3c0.44733,0.8 0.81104,1.54456 1.216,2.3c0.40523,0.75595 0.64024,1.73006 1.48534,2.116c0.90723,0.41431 1.60428,0.56155 2.31467,0.8c1.05002,0.35246 1.96317,0.284 2.92667,0.284c0.70667,0 1.724,0 2.61449,0c0.94284,0 1.75217,-0.12505 2.58568,0c0.95705,0.14359 1.60052,0.82036 2.52383,1c0.86969,0.1692 1.83333,0 2.66666,0l0.81401,0" id="svg_12" stroke-linecap="null" stroke-linejoin="null" stroke-dasharray="null" stroke-width="5" stroke="#000000" fill="none"/> <path d="m264.09088,175.09088c4.5,-1.66667 5.51944,-1.98665 6.65866,-2.336c1.22641,-0.37608 2.51089,-0.76463 3.8205,-1.164c1.30505,-0.39798 2.57544,-0.78374 3.77551,-1.164c2.08176,-0.65964 2.90369,-0.94514 3.58533,-1.19333c0.56476,-0.20563 1.0264,-0.38875 1.41,-0.5385c0.32309,-0.12613 0.60321,-0.2406 0.87,-0.31351c0.54071,-0.14778 0.86429,-0.18481 1.59518,-0.23351c0.80469,-0.0536 1.63132,-0.0549 2.78482,-0.05716c0.64401,-0.00125 1.4375,0 2.5,0c0.78934,0 1.83334,0 2.6955,0c0.82535,0 1.78851,-0.00217 2.65182,0c0.89551,0.00226 1.96957,0.02966 2.48602,0.83333c0.41547,0.64655 1.0209,1.21063 1.16531,1.968c0.16833,0.88277 0.00134,1.79868 0.00134,2.69867c0,0.88933 0,1.85716 0,2.69867c0,0.968 -0.57114,1.37245 -1,2.02266c-0.47498,0.72014 0,1.66534 0,2.604c0,1.008 0,1.8 0,2.66c0,0.72533 0,1.71449 0,2.67867c0,0.95067 0,1.836 0,2.71449c0,0.826 0,1.72151 0,2.62151c0,0.89999 0.2074,1.81906 -0.00015,2.72133c-0.18091,0.78651 -0.79178,1.22693 -0.99985,2.13133c-0.15848,0.6889 -1.29907,0.70781 -1.716,1.36334c-0.44751,0.7036 -0.86884,1.24016 -1.27332,1.85866c-0.4722,0.72205 -0.74445,1.58539 -1.17734,2.42534c-0.36774,0.7135 -1.12289,1.27849 -1.74933,1.916c-0.58929,0.5997 -0.84421,1.50206 -1.36801,2.08533c-0.53543,0.59622 -0.71735,1.28267 -1.14133,1.96268l-0.57468,0.38866l0,0.86867l0,0.864" id="svg_13" stroke-linecap="null" stroke-linejoin="null" stroke-dasharray="null" stroke-width="5" stroke="#000000" fill="none"/> <path d="m234.09088,265.09088c1.64734,0 2.57466,0 3.42534,0c0.92732,0 1.79599,0 2.74133,0c0.83333,0 1.74933,0 2.595,0c0.89099,0 1.75433,0 2.60233,0c0.94051,0 1.95717,0 2.61517,0c1.04166,0 1.9355,0 2.73683,0c0.93134,0 1.85866,0 2.70934,0c0.92732,0 1.79599,0 2.74132,0l0.85419,0" id="svg_14" stroke-linecap="null" stroke-linejoin="null" stroke-dasharray="null" stroke-width="5" stroke="#000000" fill="none"/> <path d="m222.09088,269.09088c-3.16667,3.33334 -3.97789,4.1991 -4.896,5.17999c-1.00223,1.07077 -2.06508,2.20691 -3.1665,3.38251c-1.11591,1.19107 -2.22322,2.37271 -3.3015,3.51749c-1.9673,2.08859 -2.81908,2.98486 -3.58133,3.77869c-0.67696,0.70499 -1.28136,1.32666 -1.8255,1.87048c-0.48416,0.48389 -0.92215,0.91226 -1.33051,1.28552c-0.72353,0.66138 -1.07552,0.94427 -1.412,1.21597c-0.32359,0.26126 -0.64073,0.50711 -0.94499,0.7485c-0.29572,0.23462 -0.58516,0.4631 -0.85501,0.70352c-0.5304,0.47256 -0.76976,0.73434 -0.99866,1.00131c-0.22679,0.2645 -0.44121,0.53418 -0.6255,0.81601c-0.52106,0.79684 -0.89561,1.81415 -1.07716,2.68933c-0.20949,1.00992 -0.48534,1.78983 -0.81866,2.64401l-0.16217,0.80499" id="svg_15" stroke-linecap="null" stroke-linejoin="null" stroke-dasharray="null" stroke-width="5" stroke="#000000" fill="none"/> <path d="m219.09088,275.09088c5.66667,9.5 7.04985,10.59134 8.64667,11.64001c1.68765,1.10834 3.49094,2.15625 5.3325,3.17249c1.8187,1.00363 3.59923,1.92648 5.28749,2.76749c2.89026,1.43976 4.03624,1.96838 4.97334,2.39603c0.75185,0.34311 1.3492,0.603 1.82249,0.77399c0.36121,0.13049 0.64642,0.21024 0.8775,0.23401c0.39159,0.04025 0.60283,0.01599 0.82933,0.01599c0.24049,0 0.492,0 0.7515,0c0.26451,0 0.53101,0 0.79651,0c0.51599,0 0.76132,0 0.99866,0c0.23134,0 0.45868,0 0.68401,0c0.68401,0 1.68401,0 2.5,0c0.81599,0 2.03833,0 2.83833,0c0.90901,0 1.82832,0 2.64082,0c0.9595,0 1.72534,0 2.62085,0c0.89999,0 1.83337,0.07056 2.72116,-0.22134c0.84604,-0.27817 1.78036,-0.39215 2.51218,-0.94531c0.64676,-0.48886 1.15201,-1.03915 1.814,-1.48068c0.76764,-0.51199 1.46255,-0.88281 2.26733,-1.26733c0.72711,-0.34741 1.34296,-0.45654 1.91867,-1.08533c0.51257,-0.55984 0.94965,-1.11377 1.73065,-1.57468c0.7717,-0.45541 1.03214,-0.81354 1.52133,-1.42532c0.54852,-0.68594 1.25357,-1.02148 1.63068,-1.71466c0.4328,-0.79559 0.69067,-1.31531 1.27332,-1.86002c0.49536,-0.4631 1.00842,-1.07266 1.01068,-1.94617c0.00247,-0.95831 -0.17917,-1.94485 0.284,-2.4805c0.52414,-0.60614 0.716,-1.332 0.716,-2.14798l0,-0.936" id="svg_16" stroke-linecap="null" stroke-linejoin="null" stroke-dasharray="null" stroke-width="5" stroke="#000000" fill="none"/> <path d="m281.09088,266.09088c1,0.64734 1.65433,0.86075 2.35266,1.35266c0.73648,0.5188 0.80212,1.56363 1.68335,1.64734c0.90277,0.08575 1.58701,0.11755 2.02115,0.64734c0.54691,0.66736 1.42035,0.85529 2.22684,1.354c0.68927,0.42624 1.25412,0.83313 2.116,1.00934c0.94485,0.19318 1.35727,0.83762 2.12085,1.48932c0.76093,0.64941 1.51019,0.95157 2.3125,1.5c0.67426,0.46091 1.26666,1.10001 1.86667,1.70001c0.69998,0.69998 1.31982,1.28314 1.892,1.97733c0.2934,0.35599 0.65598,0.85867 1.13699,1.509l0.60699,0.83234" id="svg_17" stroke-linecap="null" stroke-linejoin="null" stroke-dasharray="null" stroke-width="5" stroke="#000000" fill="none"/> </g> </svg>