<svg width="640" height="480.00000000000006" xmlns="http://www.w3.org/2000/svg" xmlns:svg="http://www.w3.org/2000/svg"> <!-- Created with SVG-edit - http://svg-edit.googlecode.com/ --> <g> <title>Layer 1</title> <path fill="none" stroke="#000000" stroke-width="2" id="svg_6" d="m-76.21684,-243.06444"/> <g id="svg_37"> <path fill="none" stroke="#000000" stroke-width="2" id="svg_3" d="m347.88406,33.59192c-4.90356,1.4149 -7.49304,4.00818 -10.99347,5.77843c-3.57251,1.80666 -6.40048,3.51455 -9.6347,5.56143c-3.45245,2.18482 -6.54343,3.57869 -9.95618,5.13988c-3.5979,1.64579 -7.15488,2.80207 -10.18823,4.56822c-3.42145,1.99214 -6.56177,4.44841 -10.12799,6.23857c-3.45651,1.73504 -5.60382,5.03398 -8.97525,6.67269c-3.42728,1.66599 -5.77252,4.46696 -9.41678,6.66502c-3.28494,1.98138 -6.02805,4.50586 -9.20551,6.97018c-2.97748,2.30914 -5.54117,5.20184 -8.6395,7.37493c-3.22281,2.2603 -5.25839,5.35263 -8.02734,7.99313c-2.46066,2.34641 -4.30151,5.34035 -6.87671,8.34781c-2.49371,2.91206 -3.26257,6.77338 -5.07397,9.90421c-1.74489,3.01576 -3.10698,6.54439 -4.22823,10.0752c-1.10002,3.46394 -1.39488,7.22672 -2.82074,10.8652c-1.34634,3.43567 -1.49153,7.49979 -1.40753,11.46059c0.08061,3.80267 1.64461,7.28378 2.47626,11.59135c0.75584,3.91443 -0.32024,7.96938 0.34259,11.75429c0.62857,3.58963 2.02496,7.17253 2.73822,10.69246c0.77075,3.80371 2.1806,7.22084 2.89941,10.81372c0.75052,3.75163 -0.35548,7.89955 0.99413,11.40756c1.43185,3.72211 1.82475,7.55191 1.82475,11.64876c0,3.96832 0.67792,8.21927 1.40938,5.73285c1.16211,-3.95047 -1.00418,-8.40842 -4.79195,-7.56583c-3.51878,0.78275 -6.12654,3.75635 -8.29312,6.95746c-2.0361,3.00827 -2.41754,7.02913 -2.4185,11.01805c-0.00095,3.93079 -0.86702,7.28925 -2.41861,10.44109c-1.78406,3.62425 -3.39592,6.90263 -4.22826,10.0269c-1.02078,3.832 -1.81602,7.39554 -3.33743,10.91351c-1.56021,3.60736 -3.39252,7.03638 -4.10985,10.80518c-0.7341,3.85596 -0.62767,7.94263 0,11.99704c0.57149,3.69171 2.86545,7.17993 4.90355,9.90424c2.19438,2.93347 3.97571,6.07767 7.78119,7.31021l1.46811,3.27197l3.16034,2.03116l3.59309,1.29968"/> <path fill="none" stroke="#000000" stroke-width="2" id="svg_5" d="m244.9967,214.69746c1.72141,8.77263 2.77844,12.66644 2.81882,16.64473c0.03943,3.89174 -0.50281,7.79401 0,11.88881c0.45961,3.74356 1.40945,7.74176 1.40945,11.59831c0,4.1846 -0.36963,7.99152 0,11.98312c0.35382,3.82248 1.40941,7.59329 1.40941,11.69632c0,3.82028 1.38399,7.48373 1.40941,11.46075c0.02608,4.10303 0.50842,7.65033 1.95807,10.98514c1.37936,3.173 0.86079,7.12537 0.86079,11.16776c0,3.89615 0,7.98413 0,11.94577c0,3.96201 -0.40988,7.67981 0.40018,11.94931c0.67427,3.55386 1.09337,7.39511 2.69856,10.94925c1.57169,3.47989 3.82108,6.4007 5.35773,10.12897c1.36905,3.32175 2.25159,6.74951 5.14816,9.42563c2.9122,2.69058 4.65729,6.27518 7.13245,9.18845c2.50452,2.94757 3.57791,6.54126 6.44391,9.05527c2.84506,2.49567 5.02527,5.57346 7.63788,8.2019c2.45316,2.46786 4.88062,5.50235 7.48425,7.94482c2.85434,2.67773 4.12943,5.92484 6.99066,8.19125c2.9155,2.30917 4.90796,5.22656 7.04709,8.48935c2.14987,3.27902 3.65771,6.78305 6.74692,8.83295c3.35037,2.22305 7.00046,3.03909 10.43674,4.98569c3.18683,1.80542 6.28,3.8508 9.20807,5.84076c3.34183,2.2709 6.36905,3.86102 10.05338,5.74158c3.29358,1.68097 5.76398,5.73596 9.39667,6.54587c3.99023,0.88977 8.0336,0.02951 11.98007,0.02951c3.89557,0 7.75174,0 11.83908,0c4.06659,0 8.22974,0.60846 11.5722,-0.81308c3.39084,-1.44193 6.95126,-2.01672 11.06067,-2.01672c3.86407,0 7.7363,-0.59442 10.91116,-1.41489c3.82858,-0.98911 6.51501,-2.70776 9.30219,-5.25586c2.78268,-2.54376 6.5759,-3.8399 8.74033,-6.34613c2.42194,-2.8045 4.97934,-4.33826 8.05237,-6.51044c3.11435,-2.20117 5.56967,-4.40988 9.28149,-5.94693c3.46603,-1.43533 6.1492,-4.69537 9.41284,-6.89645c2.99747,-2.02133 5.50308,-4.81689 8.07028,-7.23972c2.53488,-2.3924 6.30963,-4.30347 7.74365,-7.08276c1.58163,-3.06558 2.32523,-7.04935 5.3576,-9.90231c2.63217,-2.47644 4.67862,-5.38358 6.76706,-8.32706c2.41916,-3.40936 3.98654,-7.22278 6.34042,-9.99194c2.40686,-2.83115 4.52951,-5.54001 6.61795,-8.14572c2.44122,-3.04578 2.76495,-6.88171 2.82526,-10.7467c0.06375,-4.10269 0.96091,-7.7598 1.40936,-11.74353c0.43494,-3.86353 1.38348,-7.64041 1.40942,-11.64554c0.02545,-3.91849 1.40945,-7.62741 1.40945,-11.55872c0,-3.83405 0,-7.99152 0,-11.81693c0,-3.94308 0,-8.15552 0,-12.08069c0,-3.8851 0,-7.85645 0,-11.92926c0,-3.93134 1.00534,-7.58658 1.90637,-11.37097c0.92813,-3.89804 1.85623,-7.90851 2.31546,-11.70941c0.48291,-3.99643 0.00632,-7.99611 0.00632,-11.97862c0,-3.90691 0,-7.84998 0,-11.88503c0,-3.96164 0,-8.0177 0,-11.99065c0,-3.85597 0,-7.6701 0,-11.33794c0,-4.26169 0,-8.50638 0,-12.32646c0,-4.05225 0.12067,-8.01581 0,-12.05701c-0.11743,-3.93665 0.39401,-8.07445 -1.42444,-11.55653c-1.74658,-3.34467 -7.17844,-2.30109 -10.53116,-4.49944c-3.07608,-2.01698 -2.13858,-6.97633 -2.13858,-11.06433c0,-3.97676 0,-7.97429 0,-11.90016c0,-3.97679 0,-7.9234 0,-11.88504c0,-4.10329 0,-7.87317 0,-11.32481c0,-4.36912 0,-8.60437 0,-12.42531c0,-3.61008 0,-8.10489 0,-11.93497c0,-4.09782 -1.10379,-7.6087 -3.27286,-10.69572c-1.99329,-2.83659 -4.52963,-6.56936 -5.99542,-9.35069c-1.64081,-3.11311 -3.32257,-6.47071 -6.6062,-11.06911c-2.1037,-2.94604 -4.3797,-5.46304 -6.47342,-7.65741c-3.69095,-3.86829 -7.2092,-5.99514 -10.75073,-7.60365c-3.74039,-1.69875 -6.89511,-4.19922 -10.08945,-5.83287c-3.21158,-1.6425 -7.6218,-2.06623 -11.6445,-2.88068c-3.75833,-0.76093 -7.31778,-2.22291 -10.73459,-3.73932c-3.69876,-1.64157 -7.23169,-2.62657 -11.78903,-2.82978c-4.19385,-0.18697 -7.51987,-0.50248 -11.67184,-1.17907c-3.94864,-0.64344 -7.98669,-0.23581 -11.88611,-0.23581c-4.05792,0 -7.97473,0.68288 -11.91043,-0.05092c-3.80453,-0.70933 -7.18277,-2.49501 -10.90707,-3.38068c-3.94876,-0.93916 -7.8335,-0.81307 -11.88419,-0.81307c-4.07791,0 -7.86273,0 -11.85977,0l-3.84485,-0.6018"/> <path fill="none" stroke="#000000" stroke-width="2" id="svg_7" d="m246.40611,252.89941c-1.40941,4.92261 -1.32323,8.75177 -2.86951,12.11716c-1.51953,3.30682 -5.04524,5.99713 -5.58699,9.53711c-0.60425,3.94827 3.52353,5.936 6.81221,8.05838l2.06705,3.25415"/> <path fill="none" stroke="#000000" stroke-width="2" id="svg_8" d="m229.49315,308.08002c3.05374,2.82977 4.82758,6.21048 8.03998,7.99042l3.6581,1.83298l2.89946,1.49567l3.97105,0"/> <path fill="none" stroke="#000000" stroke-width="2" id="svg_9" d="m511.37631,213.28259c3.13089,-1.5564 5.17392,-4.53017 7.04709,-7.07443c2.08331,-2.82967 6.48572,-3.50558 9.16125,-5.68906c2.92297,-2.3853 5.82428,-4.00856 9.58392,-4.71408c3.84674,-0.72192 5.21497,1.63089 5.21497,5.59253c0,4.08047 0,8.06491 0,12.02655c0,3.82201 0,7.78188 0,11.66896c0,4.05132 0,8.28098 0,11.95967c0,4.29175 -0.30017,7.86012 0,11.84915c0.30054,3.99576 2.10986,7.20078 2.81879,11.07196c0.68805,3.7572 1.875,8.24887 -0.01508,11.87003c-1.74518,3.34372 -5.84399,4.62988 -9.23633,6.55939c-3.19324,1.81613 -6.91229,2.38846 -9.18939,5.22192c-2.27148,2.82648 -4.3916,6.06812 -7.06934,9.03244c-2.39331,2.64893 -4.79236,5.51816 -7.1413,8.34793l-1.40945,3.77307l-1.79855,3.12943"/> <path fill="none" stroke="#000000" stroke-width="2" id="svg_10" d="m514.19525,238.75055c1.33508,1.92021 4.19879,4.27414 4.22815,8.06491l0,4.05226l0,4.01263l-0.61456,3.64287"/> <path fill="none" stroke="#000000" stroke-width="2" id="svg_12" d="m290.09805,214.69746c4.03275,-2.79387 7.34,-4.19104 10.42963,-6.27637c3.29626,-2.22485 5.38635,-5.95132 9.30219,-6.45761c3.79474,-0.49075 7.75177,0 11.77869,0c4.00668,0 7.95316,0 11.75848,0l3.97076,0l3.49921,0.61696"/> <path fill="none" stroke="#000000" stroke-width="2" id="svg_13" d="m290.09805,213.28259c3.32217,3.3288 6.60349,5.06657 9.94012,7.14893c3.14111,1.96051 7.55344,0.55652 11.48291,1.3423c3.60687,0.72121 7.13733,2.11632 10.99353,2.82788c3.74268,0.69064 7.75177,0 11.82394,0c3.96143,0 7.50562,-1.01302 9.59909,-4.40875l2.1348,-3.27502l1.81161,-3.63533l1.38007,-3.50774"/> <path fill="none" stroke="#000000" stroke-width="2" id="svg_14" d="m314.05807,200.5486c-1.40939,4.97476 -1.90015,9.39012 -0.4971,12.8022c1.43823,3.4978 5.28912,4.17642 9.37637,4.17642c3.94617,0 7.7518,0 11.75864,-0.0808l0.50339,-3.7393l0,-4.05225"/> <path fill="none" stroke="#000000" stroke-width="2" id="svg_15" d="m392.98541,197.7188c6.16943,-1.82042 9.71802,-2.9339 13.4252,-5.01241c3.32452,-1.86414 6.96988,-4.59962 10.81668,-3.47498c3.52774,1.03125 5.56943,4.52208 9.18188,5.65764c3.82095,1.20102 7.21442,2.82974 10.50302,4.00885l3.99335,0.4716l3.52353,1.17908l3.52353,0.70744"/> <path fill="none" stroke="#000000" stroke-width="2" id="svg_16" d="m392.98541,201.96349c4.64462,3.33508 6.84601,5.77156 10.35544,7.15535c3.72186,1.46754 5.99814,5.38652 9.37653,6.82173c3.26932,1.38881 7.78101,0.17177 11.69797,0.17177c3.94641,0 8.03372,0 11.74893,-0.25461l1.89307,-3.31207l1.35236,-3.86992l1.49585,-3.46431"/> <path fill="none" stroke="#000000" stroke-width="2" id="svg_17" d="m422.58316,187.81462c-5.22116,0.08093 -8.7114,1.9572 -11.04047,5.1879c-2.22977,3.09317 -2.15204,7.29605 -1.64429,11.22479c0.45999,3.5592 2.81882,6.22548 6.76514,6.22548c3.94647,0 8.29745,0.59402 11.52148,-1.379c3.15759,-1.93234 2.85461,-6.40288 2.85461,-10.18721l-1.29111,-3.87679"/> <path fill="none" stroke="#000000" stroke-width="2" stroke-dasharray="null" stroke-linejoin="null" stroke-linecap="null" id="svg_18" d="m390.1666,172.25084c3.66452,0.60185 7.66696,-0.24806 10.57062,-2.82976c2.83569,-2.52124 6.36884,-3.43419 9.30219,-5.9729c2.96481,-2.5661 5.83612,-4.88481 9.60654,-5.34621c3.8949,-0.4767 7.89951,0 11.84641,0l3.9165,0l3.27737,1.36397"/> <path fill="none" stroke="#000000" stroke-width="2" stroke-dasharray="null" stroke-linejoin="null" stroke-linecap="null" id="svg_21" d="m350.70294,179.32527c-3.24173,-3.24788 -6.30212,-5.29037 -10.14786,-6.06128c-3.59424,-0.72058 -6.27917,-3.53162 -9.91107,-3.84099c-4.30859,-0.36714 -8.27008,-0.00192 -12.07587,-0.00192c-4.10794,0 -8.01102,0 -11.98001,0c-4.08728,0 -8.0336,0 -11.83911,0l-3.94629,0l-3.94006,0.50534l-0.99289,3.70355"/> <path fill="none" stroke="#000000" stroke-width="2" stroke-dasharray="null" stroke-linejoin="null" stroke-linecap="null" id="svg_22" d="m423.99258,152.44243c6.21646,0 10.10269,0 13.93063,0l4.11172,0l3.7742,0.70743l3.97568,0.70744"/> <path fill="none" stroke="#000000" stroke-width="2" stroke-dasharray="null" stroke-linejoin="null" stroke-linecap="null" id="svg_23" d="m371.84418,217.52722c0,5.25592 -0.34314,9.24725 0.40018,13.1378c0.69424,3.63313 0.33228,7.68756 1.50623,11.33983c1.18213,3.67723 2.32184,7.35733 2.32184,11.15688l0,4.12389l0,4.10312l-0.1203,3.84097"/> <path fill="none" stroke="#000000" stroke-width="2" stroke-dasharray="null" stroke-linejoin="null" stroke-linecap="null" id="svg_24" d="m390.1666,217.52722c-1.40942,3.96178 -1.40942,7.92343 -1.40942,11.99709c0,3.91031 -0.04245,8.05469 0.59946,11.58247c0.75992,4.17699 0.80997,8.11403 2.18997,11.11465l0.02939,3.93219l1.39432,3.26947l0.0152,3.87207"/> <path fill="none" stroke="#000000" stroke-width="2" stroke-dasharray="null" stroke-linejoin="null" stroke-linecap="null" id="svg_25" d="m370.43475,261.38873c-5.35397,0.12079 -9.33875,0.41705 -12.64899,2.03174c-3.27286,1.59634 -6.44788,4.6333 -7.08282,8.15359c-0.70352,3.90024 1.35898,7.20654 4.77686,8.20819c3.70776,1.08685 7.32715,2.17172 10.86768,2.8298c3.85077,0.71588 7.81607,-0.70203 11.74881,0.01511c3.94086,0.71866 7.38855,4.11929 11.08362,2.81464c3.04169,-1.0737 4.64658,-5.73923 8.31744,-6.95364c3.71933,-1.2305 8.29639,0.66635 11.14645,-1.11752c3.27994,-2.05301 3.95419,-6.77911 4.07153,-10.24869c0.146,-4.31586 0.00189,-8.32715 -1.83044,-11.31824l-3.30939,-1.90755l-3.86356,-0.9816"/> <path fill="none" stroke="#000000" stroke-width="2" stroke-dasharray="null" stroke-linejoin="null" stroke-linecap="null" id="svg_26" d="m321.10516,342.03729c4.93298,-1.38541 8.75461,-1.93921 12.65448,-2.65781c3.70486,-0.68265 7,-2.2793 10.47501,-3.00174c3.90881,-0.81241 8.35931,0.6496 11.70001,-1.41296c3.05756,-1.88788 6.09619,-3.52371 9.42618,-4.24658c3.98871,-0.86575 7.40894,-1.37436 11.65118,-1.41489c3.86719,-0.03683 7.75369,0 11.71579,0c3.97757,0 8.13458,-0.38104 11.30466,1.6507c3.21848,2.06284 6.70236,2.91696 10.31873,4.32202c3.66672,1.42462 7.43994,1.91479 11.10431,2.91849l3.66452,1.13376l2.93915,2.30533l3.81104,1.21677"/> <path fill="none" stroke="#000000" stroke-width="2" stroke-dasharray="null" stroke-linejoin="null" stroke-linecap="null" id="svg_27" d="m325.33344,342.03729c0.73407,4.95212 2.76688,8.33868 4.22827,11.96759c1.36115,3.38043 4.13309,5.9614 5.58691,9.85757c1.38086,3.70096 3.10898,6.8476 6.1037,8.79718c3.49387,2.27448 7.59134,2.14331 11.34955,2.83603c4.0144,0.73993 7.93668,0.4989 11.85291,0.4989c3.99173,0 8.16208,-0.83926 12.03403,0.00644c3.31119,0.72327 7.19443,1.40845 11.10513,1.40845c4.01782,0 7.71655,-0.99744 10.85812,-2.97086c3.07837,-1.93402 6.18344,-3.82434 8.74594,-6.6503c2.61679,-2.88602 4.67221,-6.17429 6.2533,-9.45032c1.53897,-3.18869 4.43381,-5.45325 5.3038,-9.10724l1.01563,-3.37323l2.53049,-2.52408l2.55197,-2.74689"/> <path fill="none" stroke="#000000" stroke-width="2" stroke-dasharray="null" stroke-linejoin="null" stroke-linecap="null" id="svg_29" d="m326.74283,343.45218c0,4.08252 1.23694,7.51715 3.4942,10.61166c2.24518,3.07816 6.07962,4.0675 9.3522,6.65002c3.14929,2.48532 6.37253,3.89352 9.89215,5.47845c3.15173,1.41925 7.30264,2.99286 10.84128,4.1427c3.42209,1.11221 7.29324,1.41492 11.24149,1.41492c3.94452,0 7.89084,0.00024 11.97174,0c3.95282,0 6.82767,-1.80463 8.95239,-4.31918c2.41141,-2.85339 4.90891,-4.67685 6.86887,-7.70737c2.18765,-3.38275 4.88852,-5.8009 6.31302,-9.51007l0.91229,-3.50693l2.32928,-3.17328"/> <path fill="none" stroke="#000000" stroke-width="2" stroke-dasharray="null" stroke-linejoin="null" stroke-linecap="null" id="svg_30" d="m332.85016,342.74475c0,-5.25766 2.58395,-7.07443 6.55759,-7.07443c4.01303,0 8.03998,0 11.90582,0c4.08728,0 7.89273,0 11.83905,0l3.94647,0.50546"/> <path fill="none" stroke="#000000" stroke-width="2" stroke-dasharray="null" stroke-linejoin="null" stroke-linecap="null" id="svg_31" d="m406.23535,345.95404c4.04324,-0.59692 9.96692,-0.68411 8.91898,-2.38763c-2.077,-3.37631 -7.50964,-1.15479 -11.41299,-1.75659c-3.90189,-0.60156 -7.92404,-0.03412 -11.87537,-0.03412c-3.94415,0 -7.91562,0 -11.91263,0c-3.95746,0 -7.8653,0 -11.89194,0c-3.93857,0 -7.81378,0 -11.83157,0c-3.95847,0 -7.9375,-0.32849 -11.75006,0.25397c-3.95364,0.60373 -12.0495,-1.68576 -11.49881,2.13364c0.30325,2.10309 6.22424,0.39261 10.0289,-0.69641c3.686,-1.05502 7.62634,-1.27527 11.16656,-2.86362c3.05267,-1.36954 6.43304,-2.83099 10.13034,-3.94196c3.67499,-1.10428 7.57834,-0.85468 11.62238,-0.85468c3.85535,0 7.92935,0 11.87372,0l3.80548,0.58176l3.56119,1.20892"/> <line fill="none" stroke="#000000" stroke-width="2" stroke-dasharray="null" stroke-linejoin="null" stroke-linecap="null" x1="339.64048" y1="351.92308" x2="346.18105" y2="357.89214" id="svg_32"/> <path fill="none" stroke="#000000" stroke-width="2" stroke-dasharray="null" stroke-linejoin="null" stroke-linecap="null" id="svg_33" d="m341.42429,351.3262c1.48648,1.77826 5.29904,2.05869 9.21582,2.51971c4.02231,0.47339 7.93814,1.54877 11.89233,1.06171c3.66199,-0.45102 7.41431,-1.19382 11.3345,-1.19382c4.08521,0 7.98993,0 11.72949,0l4.24948,0l3.78168,0"/> <path fill="none" stroke="#000000" stroke-width="2" stroke-dasharray="null" stroke-linejoin="null" stroke-linecap="null" id="svg_34" d="m363.93607,86.65005c-5.34952,-1.85881 -8.65826,-3.34221 -12.35022,-4.58801c-3.72662,-1.25753 -7.39874,-1.0228 -12.07724,-1.07399c-3.6936,-0.04039 -8.04352,-0.40805 -11.19943,-0.9408c-4.17404,-0.70458 -7.89063,-0.69995 -11.82849,-0.96017c-4.8772,-0.3222 -7.57901,-2.6869 -11.70096,-3.67751c-2.44925,-0.58858 1.49179,-0.0786 5.41812,-0.0786c3.93881,0 7.73642,0 11.76892,0c3.44525,0 7.66,0 11.00128,0c5.18158,0 8.2999,0 12.60672,0c4.07922,0 8.17114,0 6.85577,0c-3.92413,0 -8.26639,0 -11.74924,0c-4.01901,0 -8.37888,0 -11.63678,0c-3.92941,0 -7.85703,0 -12.40466,0c-3.75101,0 -5.64679,1.18343 -7.27957,4.71629c-1.55536,3.3654 -6.5083,5.06864 -7.06268,8.76608c-0.24036,1.60267 5.90274,-0.15845 6.72449,2.44521c1.18854,3.76591 -3.98001,6.17237 -5.89227,9.81988c-1.73294,3.30534 -5.73663,4.16904 -9.66458,5.34075c-4.19357,1.25098 -7.728,2.07674 -11.90948,2.76128c-3.97217,0.65025 -7.01797,1.9138 -10.91019,1.99432c-3.40857,0.07054 -8.35031,0 -11.08463,0c-4.93294,0 -8.09282,0 -12.30615,0c-4.77159,0 -8.05898,0 -12.60414,0c-3.54869,0 -7.74115,0 -7.52188,0c3.94632,0 8.61429,-0.90779 11.05479,1.51176c2.69313,2.67013 1.87653,7.35775 1.72385,11.36427c-0.15672,4.1116 -3.66884,7.95984 -1.8792,11.64867c1.3636,2.81067 6.38725,1.94397 10.50359,1.88652c3.86015,-0.05389 3.64452,-4.26814 5.96146,-7.42815c2.19083,-2.98795 5.73813,-4.6901 6.98605,-8.56794c1.31998,-4.10191 3.06177,-7.67912 5.34076,-10.79208c2.35516,-3.21705 4.82843,-6.30898 7.72516,-8.67831c2.90085,-2.37263 7.09073,-1.98286 11.14471,-2.28938c3.16385,-0.23923 6.4805,-3.36021 9.92328,-5.36395c3.09872,-1.80341 7.8801,-1.5575 11.35553,-2.36375c3.98453,-0.92427 8.0116,-2.30533 10.84808,-5.41307c2.24991,-2.46515 -2.10815,-3.10123 -6.18576,-4.12677c-3.74988,-0.94312 -6.31033,-4.33582 -3.50793,-7.02449c2.95041,-2.83059 7.15598,-2.97851 10.67151,-4.39803c3.47839,-1.40451 7.14847,-3.64423 9.32089,-6.77856c2.30215,-3.3212 1.99454,-7.32132 1.99454,-11.2914c0,-3.93406 -3.68777,-7.117 -2.81137,-9.80992c1.28015,-3.9331 8.13583,0 11.54193,0c5.05038,0 7.95691,0 11.31442,0c3.65829,0 7.46677,0 13.13461,0c3.57547,0 6.91043,0 9.94476,0c5.89578,0 9.41623,0 13.56549,0c3.82166,0 7.83008,0 11.55087,0c4.14847,0 8.32938,-0.08637 10.96973,0.13578c5.68555,0.47832 8.298,1.14729 12.35278,2.16832c2.68695,0.67662 7.57996,2.13203 11.53088,3.66482c3.745,1.45297 7.27097,3.65868 7.77994,7.61402c0.48639,3.77985 3.35373,6.04153 6.53812,8.11201c3.44373,2.23901 5.4762,5.79996 9.39615,6.52419c4.19751,0.77554 8.84879,0.83763 10.33569,4.79489c1.34033,3.56725 0.03912,7.6794 0.03912,11.63351c0,2.96053 0,8.05701 0,11.38543c0,4.94025 -0.05069,4.81808 0.00839,1.0744c0.05325,-3.37672 0.53854,-8.0484 1.07144,-11.62723c0.70959,-4.76556 1.44498,-6.70666 2.99173,-2.71911c1.35242,3.48605 2.30145,6.60075 3.82043,10.77446c1.40289,3.8545 2.84479,7.76019 3.41086,11.12667c0.75253,4.47543 0.42767,7.84724 1.80402,12.08387c0.78528,2.41681 1.96368,-1.91095 2.29773,-5.964c0.19772,-2.40031 0.50006,-7.58334 0.6214,-10.21223c0.11774,-2.55274 4.05267,-13.33756 -0.33792,-13.37167c-4.00003,-0.03113 0.08878,7.44247 -1.4736,11.46497c-1.46082,3.76089 -5.66989,2.44018 -9.71219,0.56566c-2.40723,-1.1163 -7.34964,-3.94183 -9.65665,-5.71263c-3.58282,-2.75008 -5.85818,-5.01626 -9.12735,-8.96696c-2.33139,-2.81735 -4.4751,-5.91227 -6.65817,-8.98168c-1.07648,-1.51341 -5.18146,-7.18333 -7.18085,-9.68694c-1.90094,-2.38041 -5.68808,-6.71704 -7.5744,-8.7309c-2.64822,-2.82704 -5.68915,-7.84327 -8.98035,-8.42886c-4.10318,-0.73008 -7.2128,2.65086 -10.32309,5.03575c-3.04587,2.33536 -5.89929,5.93578 -7.4368,8.40118c-2.49344,3.99847 -5.80652,6.07209 -10.22794,6.14004c-3.15677,0.04845 -6.99066,0.00041 -9.92233,0c-4.95822,-0.00067 -8.57162,0.04258 -12.27597,-0.1572c-3.67499,-0.1983 -8.89148,-0.8633 -13.21191,-2.5125c-2.62366,-1.00153 -5.90778,-3.14159 -10.14963,-4.77074c-3.62805,-1.39346 -7.66327,-3.58648 -11.5986,-3.87621c-3.61331,-0.26598 -2.78104,4.41335 -2.03702,8.48686c0.79877,4.37363 4.90698,9.07312 1.56598,11.94794c-1.77426,1.52679 -6.02344,-2.13829 -7.86694,-2.55085c-2.31952,-0.5191 -8.72961,-1.5602 -12.909,-2.1189c-4.72537,-0.63171 -9.86539,-1.23503 -15.27252,-1.82237c-5.52731,-0.60032 -11.03787,-1.14796 -16.38858,-1.61864c-5.04285,-0.44366 -13.64737,-1.05556 -16.95914,-1.14101c-2.64993,-0.06836 -4.72473,-0.04557 -6.26624,0.18398c-1.12167,0.16689 -2.00485,0.48129 -2.64691,3.62481c-0.853,4.17658 -2.49704,7.38327 -3.21631,11.32143c-0.7576,4.14803 -0.53371,8.0997 -0.53371,12.14906c0,3.83349 0.95187,7.87304 0,11.67623c-0.88617,3.54065 0.55876,4.56796 4.80394,4.56796l3.65259,0l3.79758,0"/> </g> </g> </svg>