<svg width="640" height="480" xmlns="http://www.w3.org/2000/svg" xmlns:svg="http://www.w3.org/2000/svg"> <!-- Created with SVG-edit - http://svg-edit.googlecode.com/ --> <g> <title>Layer 1</title> <ellipse fill="#fcd464" stroke-width="5" cx="291.99275" cy="205.42223" id="svg_4" rx="75.82156" ry="126.00004" transform="rotate(-1.1527307033538818 291.99276733398386,205.4222259521462) " stroke="#bf5f00"/> <ellipse fill="#ffffff" stroke="#000000" stroke-width="5" stroke-dasharray="null" stroke-linejoin="null" stroke-linecap="null" cx="294.71606" cy="271.80248" id="svg_9" rx="35.55556" ry="12.44444"/> <ellipse fill="#ffffff" stroke="#000000" stroke-width="5" stroke-dasharray="null" stroke-linejoin="null" stroke-linecap="null" cx="250.27162" cy="161.58025" id="svg_10" rx="14.22222" ry="10.66667"/> <ellipse fill="#ffffff" stroke="#000000" stroke-width="5" stroke-dasharray="null" stroke-linejoin="null" stroke-linecap="null" cx="310.71606" cy="150.91359" id="svg_11" rx="16" ry="14.22222"/> <path fill="none" stroke="#bf5f00" stroke-width="5" stroke-dasharray="null" stroke-linejoin="null" stroke-linecap="null" id="svg_16" d="m237.82718,97.58025c-2.46992,0.01897 -3.36305,0.38612 -3.59259,1.03703c-0.29369,0.8328 -0.54262,1.63526 -0.97511,2.61097c-0.24257,0.54726 -0.50838,1.11478 -1.09511,2.26134c-0.29071,0.56808 -0.55042,1.13341 -1.41008,2.50961c-0.44948,0.71957 -0.90755,1.27187 -1.45807,2.03675c-0.55418,0.76997 -0.89165,1.38953 -1.32089,2.02578c-0.46799,0.69368 -1.39856,1.75024 -1.77927,2.096c-0.79681,0.72372 -1.24359,1.04347 -2.08148,1.71407c-0.77371,0.61925 -1.96875,1.32108 -2.07645,2.09541c-0.08098,0.58226 0.78264,0.16045 1.51704,-0.41006c1.00615,-0.78164 1.41321,-1.06574 2.29213,-1.66638c0.45915,-0.31376 0.92581,-0.63009 1.87733,-1.22785c0.9119,-0.57288 1.77727,-1.05563 2.55289,-1.5265c0.71736,-0.43552 1.40608,-0.85086 2.1781,-1.68267c0.5085,-0.54791 0.82474,-1.22023 1.45807,-1.97245c0.65096,-0.77316 1.52286,-1.08247 2.1357,-1.90104c0.43452,-0.58039 0.72511,-1.41973 1.13068,-2.304c0.21281,-0.46401 0.93146,-1.85192 1.21806,-2.2797c0.55849,-0.83356 1.1705,-1.56386 1.45334,-1.91111c0.52043,-0.63893 1.34087,-1.6857 1.49333,-2.61689c0.15562,-0.95046 0.03793,-1.82637 0.03793,-2.44386c0,-0.91733 0.33455,-2.0815 -0.10164,-2.91259c-0.41275,-0.78638 -1.34613,-0.84348 -2.3683,-0.62399c-0.9269,0.19902 -1.1088,1.00988 -1.53838,1.70903c-0.65382,1.06412 -1.05905,1.42213 -1.83467,2.29214c-0.41351,0.46383 -0.84732,0.92638 -1.26666,1.40533c-1.2036,1.37469 -1.54524,1.81211 -2.11734,2.66668c-0.27367,0.40879 -0.76323,1.25685 -1.23111,2.16444c-0.51437,0.99783 -0.77913,1.55385 -1.07378,2.1357c-0.30974,0.61166 -0.98286,1.90607 -1.3511,2.57896c-0.37834,0.69133 -0.76413,1.40009 -1.63556,2.80652c-0.4436,0.71597 -0.91351,1.41943 -1.39734,2.10934c-0.47865,0.68253 -0.9662,1.34047 -1.46133,1.96532c-0.4782,0.60347 -0.93564,1.18465 -1.88205,2.14756c-0.42363,0.43102 -0.85481,0.78958 -1.61659,1.44592c-0.66948,0.57682 -1.34607,1.09843 -1.80356,2.18578c-0.33478,0.79567 -0.39615,1.73846 -0.45778,2.20889c-0.12387,0.9454 -0.37265,2.2968 -0.57689,3.10844c-0.18025,0.71629 -0.38719,1.81979 0.49156,2.29837c0.59813,0.32576 1.46027,0.28548 2.15465,0c1.1869,-0.48796 1.39815,-1.29813 1.71141,-2.05511c0.1846,-0.44603 0.97536,-2.08775 1.37511,-2.72858c0.43614,-0.6992 0.93875,-1.4213 1.46935,-2.17333c0.54607,-0.77396 1.11023,-1.55027 1.66132,-2.33334c0.54161,-0.76958 1.52841,-2.24677 1.9366,-2.94814c0.38536,-0.66213 0.72136,-1.31503 1.02667,-1.96c0.30206,-0.63811 0.58177,-1.29142 0.86665,-1.96001c0.29588,-0.69436 0.94312,-2.20161 1.31853,-3.02429c0.39479,-0.86513 0.81412,-1.75203 1.23999,-2.65067c0.4245,-0.89573 0.84361,-1.77205 1.24002,-2.61866c0.37386,-0.79848 1.00661,-2.19996 1.24149,-2.78282c0.20277,-0.50321 0.36194,-0.94939 0.49333,-1.34933c0.12018,-0.36581 0.30443,-1.07206 0.74666,-2.21867c0.18285,-0.47407 0.66571,-1.52708 0.93866,-2.09067c0.27986,-0.57781 0.55888,-1.16129 1.16621,-2.26133c0.54651,-0.98992 1.06522,-1.76928 1.48624,-2.4083c0.51358,-0.77948 0.96408,-1.80585 1.048,-2.4c0.13028,-0.92252 0.02663,-2.10448 0.11763,-2.82696c0.10326,-0.81976 0.79201,-1.49622 1.43941,-2.03822c0.65874,-0.5515 0.00154,-1.00413 -0.71466,-1.04858c-0.85573,-0.05313 -2.22224,-0.04086 -2.65779,-0.03645c-0.81789,0.00826 -1.9473,0.02753 -2.55112,0.30281c-1.18202,0.5389 -1.6089,1.32127 -1.90222,1.69659c-0.33269,0.42569 -1.12305,1.4716 -2.2222,2.74075c-0.65327,0.75431 -1.39972,1.55132 -2.19467,2.40533c-0.83345,0.89537 -1.69792,1.81348 -2.56267,2.75734c-0.86505,0.94416 -1.73576,1.86171 -3.24266,3.72623c-0.69368,0.85828 -1.30125,1.70345 -1.84535,2.52266c-0.51735,0.77898 -0.97739,1.54693 -1.39734,2.29868c-0.40712,0.72878 -0.77997,1.45415 -1.49808,2.88237c-0.35738,0.71078 -0.71274,1.42619 -1.08266,2.14133c-0.37434,0.72369 -0.76344,1.45448 -1.17867,2.18932c-0.42497,0.75208 -0.86372,1.52471 -1.88684,3.07674c-0.53748,0.81535 -1.12024,1.62608 -1.71199,2.44c-0.58875,0.80978 -1.17758,1.59653 -1.74399,2.36c-0.53932,0.72693 -1.06216,1.39393 -1.87733,2.6074c-0.33104,0.49279 -0.59067,0.93013 -0.77867,1.32c-0.16122,0.33432 -0.27057,0.64007 -0.33067,0.92001c-0.05516,0.25708 -0.07137,0.50956 -0.07584,1.01926c-0.00241,0.27465 0.00237,0.56177 0.008,0.856l0.01096,0.29601l0.04504,0.57599"/> <path fill="none" stroke-width="5" stroke-dasharray="null" stroke-linejoin="null" stroke-linecap="null" id="svg_17" d="m317.82718,70.91359c2.48889,0.01896 3.25369,0.06386 4.0889,0.63496c0.57635,0.39412 1.40817,1.33585 1.97452,1.85392c0.6012,0.54995 1.34036,1.07254 2.19998,1.60001c0.586,0.35957 1.54004,0.76649 2.10223,1.60237c0.46832,0.69628 0.55899,1.73241 0.81302,2.27792c0.42578,0.91431 0.86145,1.56572 1.8584,2.1049c0.72842,0.39394 1.64886,0.48946 2.11108,0.55556c0.94235,0.13474 2.34637,0.28684 3.1843,0.54666c0.78015,0.2419 1.50696,0.55724 1.98401,1.06667c0.87671,0.93625 0.91116,1.68705 1.04297,2.35378c0.27716,1.40191 0.44864,2.12734 0.76801,2.80652c0.32129,0.68327 0.72534,1.34676 1.55527,2.11437c0.56116,0.519 1.24896,0.91828 1.92532,1.376c1.06781,0.72263 1.77768,1.28632 2.44296,1.90696c0.32571,0.30387 1.00537,0.85732 1.73984,2.05007c0.40146,0.65195 0.66098,1.53492 1.44357,2.16919c0.48166,0.39036 1.3736,0.83779 2.2471,1.1283c0.90903,0.30231 1.89346,0.55851 2.03705,1.25925c0.22318,1.08911 0.03702,1.97511 0.03702,2.5926c0,0.91734 0,1.98164 0,2.82549c0,0.90784 0.03409,1.79742 -0.00027,2.68533c-0.03198,0.82703 -0.63828,1.54251 -1.35379,1.5923c-0.99255,0.06907 -1.89096,0.008 -2.81897,0.008c-0.86395,0 -1.82632,0 -2.49832,0c-1.01126,0 -1.92593,0 -2.59201,0c-1.40326,0 -2.11624,0.02345 -2.82547,-0.03793c-0.71414,-0.06179 -1.4707,-0.17052 -2.48865,-0.74992c-0.74506,-0.4241 -1.41254,-1.07753 -2.03195,-1.81866c-0.31995,-0.38276 -1.13693,-1.69558 -1.37927,-2.16978c-0.50555,-0.98926 -0.746,-1.52309 -1.02875,-2.06222c-0.29541,-0.56329 -1.41666,-2.35449 -1.89661,-2.9772c-0.50339,-0.65311 -1.0596,-1.30372 -1.63998,-1.96265c-0.58997,-0.66975 -1.19769,-1.33154 -1.80002,-1.99467c-0.59476,-0.65482 -1.72693,-1.92491 -2.23645,-2.54549c-0.49298,-0.60043 -0.95639,-1.20557 -1.38928,-1.82666c-0.43661,-0.6264 -0.85498,-1.28671 -1.26135,-1.98666c-0.42612,-0.73399 -1.28226,-2.38425 -1.72977,-3.30786c-0.47012,-0.97024 -0.93701,-1.97742 -1.41071,-2.99466c-0.47034,-1.01003 -0.92639,-1.99595 -1.37866,-2.93066c-0.42276,-0.87374 -1.18686,-2.3485 -1.54132,-2.90105c-0.2955,-0.46069 -0.5769,-0.82365 -0.85602,-1.08266c-0.2377,-0.2206 -0.48404,-0.37523 -0.728,-0.47467c-0.72702,-0.2963 -1.93063,-0.24844 -2.28,-0.976c-0.26315,-0.54801 0.71521,-0.70148 1.50757,-0.60919c0.90384,0.10529 1.84122,0.38152 2.65955,0.86993c0.82227,0.49075 1.19855,0.8265 1.8222,1.58963c0.96497,1.18072 1.16129,1.68726 1.608,2.65067c0.22736,0.49033 0.6192,1.51619 0.80475,2.0397c0.18665,0.52658 0.71466,2.12639 0.89926,2.65393c0.36282,1.0368 0.51251,1.55756 0.98816,2.46815c0.65405,1.25215 0.9678,1.58817 1.608,2.14133c0.64218,0.55489 1.42682,0.98428 2.67554,1.736c0.45505,0.27393 0.94498,0.55029 1.92001,1.28474c0.53616,0.40386 1.07852,0.87906 1.62665,1.424c0.59085,0.58744 1.79962,2.02248 2.4166,2.87347c0.65445,0.90269 1.29254,1.8736 1.92535,2.88c0.63779,1.01434 1.2464,2.036 1.82932,3.04c0.55945,0.96353 1.54141,2.71997 1.9606,3.47704c0.37488,0.67701 0.7088,1.28603 1.02667,1.82668c0.29001,0.49323 0.57126,0.94305 0.86667,1.34666c0.2858,0.39046 0.94058,1.11314 1.31851,1.46223c0.39233,0.36238 0.81482,0.71111 1.23999,1.06667c0.4252,0.35556 0.89359,0.65852 1.61185,1.42222c0.94272,1.00235 1.23871,1.76598 1.48001,2.45185c0.22626,0.6431 0.79962,1.80278 1.29895,2.25452c0.52829,0.47791 1.48874,1.07935 2.25543,1.90903c0.50732,0.54901 0.85092,1.19917 1.27466,1.72267c0.81848,1.01115 1.59818,0.81635 1.31525,-0.31318c-0.11734,-0.46844 -0.62244,-1.52874 -0.92206,-2.1286c-0.32095,-0.64254 -0.67935,-1.31139 -1.07733,-1.99466c-0.82947,-1.42407 -1.29755,-2.12687 -1.77066,-2.83734c-0.47916,-0.71951 -0.97809,-1.43944 -1.48535,-2.168c-0.51431,-0.7387 -1.04126,-1.48431 -1.56534,-2.248c-1.07175,-1.56173 -1.60019,-2.37297 -2.12857,-3.19526c-0.53058,-0.82571 -1.0513,-1.65614 -1.56534,-2.48266c-0.50757,-0.81615 -1.00116,-1.62013 -1.48535,-2.40269c-0.92029,-1.4873 -1.35529,-2.1825 -1.7825,-2.84444c-0.41379,-0.64114 -0.82687,-1.26221 -1.25064,-1.86401c-0.42255,-0.60001 -0.86053,-1.19626 -1.33069,-1.78399c-0.9845,-1.23079 -1.54959,-1.84975 -2.13333,-2.49363c-0.60199,-0.66409 -1.23004,-1.33466 -1.86932,-2.01867c-0.64783,-0.69318 -1.30432,-1.38885 -1.94931,-2.09866c-1.28241,-1.41129 -1.88666,-2.1275 -2.47467,-2.82312c-0.56216,-0.66502 -1.08261,-1.29417 -1.57602,-1.856c-0.43878,-0.49963 -0.80176,-0.94939 -1.17599,-1.216c-0.45438,-0.3237 -0.66602,-0.20731 -0.71112,-0.00474c-0.06516,0.29256 -0.01749,0.69704 0.24179,1.65926c0.14944,0.55459 0.29211,1.15668 1.1431,2.7443c0.26743,0.49892 0.91962,1.38268 1.28,1.78014c0.72006,0.79414 1.12851,1.15849 2.45245,2.20741c0.45874,0.36346 0.94083,0.70592 1.88089,1.42222c0.46329,0.35301 1.37,1.03131 2.11111,1.77778c0.68225,0.68716 0.96158,1.07555 1.48148,1.88889c0.56833,0.88908 0.82861,1.41259 1.48148,2.55556c0.37024,0.64822 0.77213,1.33727 1.19467,2.05866c0.43549,0.7435 0.87973,1.49671 1.32266,2.25067c0.43646,0.74294 0.86334,1.46187 1.63083,2.80177c0.3407,0.59481 0.64496,1.1424 1.17569,2.10015c0.23181,0.4183 0.7908,1.50425 1.37305,2.30637c0.53235,0.73341 1.00256,1.16599 1.54727,1.60949c0.99246,0.80801 1.83301,1.36428 2.25659,1.67348c0.84473,0.6166 1.31699,0.84618 2.23999,1.792c0.65103,0.66711 0.86603,1.57382 1.664,2.02905c0.91998,0.52482 1.50143,0.72252 2.2471,1.19584c0.85114,0.54028 1.87,0.73478 2.15704,1.62964c0.2601,0.81087 -0.35437,0.72467 -0.67792,0.09955c-0.43768,-0.84565 -0.70712,-1.33211 -1.0477,-1.82518c-0.74799,-1.08284 -1.22943,-1.61637 -2.32834,-2.64682c-0.5733,-0.53762 -1.1947,-1.04348 -1.82935,-1.544c-0.63599,-0.50161 -1.28116,-0.98388 -2.55524,-1.90104c-0.61371,-0.44178 -1.23392,-0.87336 -1.84268,-1.35733c-0.64587,-0.51346 -1.3201,-1.10949 -2.01865,-1.82133c-0.7869,-0.8019 -1.65421,-1.74543 -3.54608,-4.22874c-1.14417,-1.50187 -2.3266,-3.2148 -3.59201,-5.05067c-1.32571,-1.92336 -2.66595,-3.91319 -4.02399,-5.91467c-1.34476,-1.98191 -2.62527,-3.92766 -5.12476,-7.40504c-1.09662,-1.52567 -2.13293,-2.87794 -3.10666,-4.07999c-0.88818,-1.09647 -1.73685,-2.07571 -2.54666,-2.96c-0.75818,-0.8279 -1.50208,-1.59125 -2.93927,-3.03408c-0.70868,-0.71146 -1.4137,-1.41415 -2.10934,-2.10133c-0.67688,-0.66864 -1.33191,-1.30941 -1.96533,-1.90934c-0.59525,-0.56375 -1.13733,-1.09756 -2.14755,-1.91526c-0.40982,-0.33172 -0.77939,-0.58912 -1.10931,-0.77066c-0.2739,-0.15069 -0.51703,-0.24811 -0.72534,-0.27466c-0.17172,-0.0219 -0.34351,-0.01347 -0.53571,0.15643c-0.09488,0.08389 -0.15201,0.21796 -0.17065,0.37067c-0.02234,0.1827 0.01184,0.40984 0.08536,0.67466c0.08911,0.32116 0.22705,0.69905 0.67792,1.62133c0.28076,0.57432 0.63208,1.20592 1.02402,1.904c0.42795,0.76225 0.90085,1.57811 1.40799,2.44801c0.53693,0.92096 1.10712,1.88531 2.30875,3.9443c0.63156,1.08218 1.27414,2.19187 1.92267,3.32c0.6528,1.13556 1.30115,2.27168 1.93866,3.39999c0.62646,1.10874 1.23682,2.18897 2.36087,4.24297c0.52039,0.95092 1.00543,1.86315 1.48801,2.73333c0.47043,0.8483 0.94626,1.68038 1.45599,2.49334c0.51776,0.82579 1.05893,1.67527 2.38934,3.36592c0.72577,0.92229 1.54907,1.85203 2.41333,2.82667c0.90149,1.01662 1.84973,2.05886 2.81335,3.14668c0.98907,1.11655 2.01657,2.24548 3.9585,4.69333c0.98779,1.24515 1.92493,2.53821 2.84534,3.83734c0.91187,1.28703 1.78491,2.56965 2.63733,3.82132c0.82523,1.21175 1.59265,2.39152 3.10992,4.48949c0.68253,0.94371 1.34979,1.79892 1.99734,2.58133c0.61163,0.73906 1.21954,1.42361 1.82132,2.06934c0.58771,0.63062 1.18591,1.23898 2.40353,2.46043c0.62912,0.63107 1.27185,1.27156 1.91467,1.92267c0.64194,0.65022 1.27356,1.29666 1.88266,1.93866c0.59021,0.6221 1.16254,1.21309 2.1286,2.3609c0.42795,0.50841 0.79504,0.99544 1.12537,1.448c0.30478,0.41762 0.5759,0.81305 0.83731,1.17601c0.24597,0.34152 0.46756,0.68024 1.00027,1.22783c0.26294,0.27032 0.55991,0.50587 0.86401,0.72801c0.30283,0.22118 0.61636,0.42192 0.92801,0.61603c0.30588,0.19046 0.61349,0.36182 1.17096,0.73006c0.2619,0.17299 0.50519,0.35513 0.74399,0.53333c0.23764,0.17737 0.47592,0.35881 0.728,0.53334c0.26169,0.18118 0.5376,0.37427 1.19467,0.71112c0.36691,0.1881 0.77087,0.35785 1.19467,0.52533c0.4343,0.17163 0.87811,0.33031 1.32266,0.47734c0.43494,0.14386 0.85425,0.28235 1.6308,0.47882c0.33655,0.08513 0.64151,0.15337 0.91467,0.15465c0.24271,0.00114 0.47324,-0.05635 0.64267,-0.19734c0.18457,-0.15361 0.34915,-0.40923 0.51675,-1.14252c0.11038,-0.48294 0.15048,-1.06905 0.13867,-1.74133c-0.01346,-0.76738 -0.11093,-1.63437 -0.30936,-2.58931c-0.22165,-1.06673 -0.50943,-2.25644 -1.60709,-4.85454c-0.6311,-1.49373 -1.44974,-3.03517 -2.33069,-4.64267c-0.91061,-1.66167 -1.88577,-3.32374 -2.87466,-4.97867c-0.97388,-1.62977 -1.94736,-3.18969 -3.68356,-6.08236c-0.76282,-1.2709 -1.44452,-2.43806 -2.03998,-3.528c-0.55347,-1.01308 -1.04758,-1.98428 -1.48001,-2.936c-0.42368,-0.93245 -0.82489,-1.8784 -1.51703,-3.90636c-0.37347,-1.09428 -0.71512,-2.25835 -1.09866,-3.45599c-0.3938,-1.22968 -0.8063,-2.47794 -1.29068,-3.71201c-0.48523,-1.23624 -0.94449,-2.49854 -2.35141,-4.68385c-0.689,-1.07019 -1.52643,-2.02105 -2.39734,-2.91201c-0.86252,-0.88237 -1.78149,-1.68805 -2.70132,-2.46399c-0.90372,-0.76236 -1.83273,-1.45518 -3.49393,-2.9203c-0.78763,-0.69466 -1.50455,-1.40665 -2.168,-2.10934c-0.63284,-0.67025 -1.20721,-1.33102 -1.73599,-1.96532c-0.49554,-0.59444 -0.93628,-1.16293 -1.72565,-2.14755c-0.33719,-0.42061 -0.64606,-0.79691 -0.94666,-1.12534c-0.28061,-0.30656 -0.56552,-0.58574 -0.86667,-0.83733c-0.30637,-0.25595 -0.64185,-0.50906 -1.44592,-1.0003c-0.46344,-0.28313 -0.97452,-0.56348 -1.51733,-0.832c-0.55002,-0.2721 -1.10596,-0.51939 -1.66135,-0.704c-0.52228,-0.17361 -1.03912,-0.41267 -1.85837,-0.24178c-0.33899,0.07072 -0.6095,0.33267 -0.73865,0.65868c-0.14755,0.37247 -0.14407,0.86423 -0.05069,1.41067c0.1087,0.63615 0.31168,1.3623 1.08563,2.9677c0.45459,0.94297 1.05676,1.93642 1.74936,3.01067c0.76151,1.18111 1.64743,2.44154 2.64532,3.79466c1.08597,1.47255 2.28812,3.05296 5.08679,6.528c1.55688,1.93311 3.22916,3.94333 4.95734,6.02399c1.75861,2.11728 3.52713,4.23282 5.26132,6.32801c1.6832,2.03348 3.30905,3.95647 6.07767,7.49984c1.17313,1.50143 2.16608,2.85141 2.99728,4.056c0.72205,1.0463 1.31247,1.97318 1.78134,2.792c0.40158,0.70131 0.72595,1.31467 1.14725,2.33719c0.1709,0.4147 0.29544,0.78812 0.39737,1.11733c0.08963,0.28963 0.15707,0.54964 0.22131,0.78133c0.0585,0.21095 0.10086,0.41425 0.2702,0.76801c0.08743,0.18266 0.20584,0.35711 0.33868,0.52532c0.13504,0.17097 0.28665,0.33122 0.45065,0.47734c0.16269,0.14494 0.3273,0.28873 0.69217,0.47881c0.17252,0.08989 0.35104,0.15094 0.52533,0.17868c0.16547,0.02634 0.33075,0.02115 0.47733,-0.02934c0.14578,-0.05023 0.30511,-0.13484 0.47882,-0.44562c0.10312,-0.18446 0.15195,-0.42767 0.17065,-0.70132c0.02136,-0.31249 -0.00879,-0.67143 -0.08533,-1.06934c-0.08652,-0.44975 -0.21118,-0.95506 -0.67792,-2.08118c-0.27209,-0.65651 -0.62524,-1.34567 -1.01602,-2.07467c-0.41241,-0.76939 -0.86746,-1.55819 -1.35199,-2.36266c-0.49493,-0.82172 -1.00348,-1.6491 -2.07645,-3.26637c-0.52914,-0.79758 -1.07675,-1.58759 -1.664,-2.37601c-0.61185,-0.82143 -1.28888,-1.66959 -2.048,-2.55199c-0.82352,-0.95728 -1.74365,-1.98917 -3.9917,-4.25719c-1.29617,-1.30769 -2.72769,-2.67213 -4.22934,-4.10133c-1.54184,-1.46748 -3.10507,-2.93453 -4.64532,-4.38934c-1.49261,-1.40984 -2.92688,-2.72845 -5.34756,-5.13895c-0.99188,-0.98772 -1.81537,-1.86205 -2.49597,-2.63201c-0.58395,-0.66063 -1.06427,-1.25324 -1.47202,-1.78399c-0.36694,-0.47765 -0.68097,-0.94397 -1.36533,-1.80624c-0.36353,-0.45799 -0.76309,-0.91473 -1.18668,-1.35732c-0.41806,-0.43684 -0.83923,-0.8414 -1.26666,-1.18134c-0.38879,-0.30923 -0.74097,-0.69057 -1.39853,-0.72059c-0.24585,-0.01122 -0.46039,0.18616 -0.57599,0.43999c-0.13861,0.30437 -0.18048,0.70747 -0.19199,1.16c-0.01285,0.50504 0.0134,1.05788 0.17538,2.25185c0.086,0.6339 0.20874,1.29047 0.37866,1.97066c0.18015,0.7212 0.41904,1.48028 0.73068,2.27467c0.33661,0.85809 0.72827,1.78372 1.85364,3.75466c0.63684,1.11538 1.39185,2.25963 2.20267,3.43999c0.83395,1.21404 1.71341,2.41933 2.61865,3.60001c0.88934,1.15999 1.75177,2.28286 3.47498,4.21925c0.75943,0.85336 1.50241,1.59805 2.19998,2.29066c0.6655,0.66076 1.32635,1.2943 1.96002,1.95467c0.64963,0.67701 1.3385,1.38897 2.65482,3.16206c0.75436,1.01615 1.4888,2.16516 2.24533,3.38133c0.77985,1.25365 1.53781,2.5415 2.27731,3.82934c0.72171,1.25685 1.3992,2.46696 2.58844,4.64118c0.50125,0.9164 0.93533,1.72252 1.31201,2.42934c0.32953,0.61832 0.61508,1.16264 0.86398,1.64532c0.22269,0.43176 0.42239,0.82703 0.78699,1.55496c0.17801,0.35544 0.35556,0.71112 0.53333,1.06668c0.17776,0.35555 0.35553,0.71111 0.53333,1.06667c0.1778,0.35556 0.35568,0.71104 0.71112,1.42221c0.17755,0.35524 0.35428,0.70819 0.52533,1.05867c0.16791,0.34406 0.32898,0.68095 0.47733,1.01067c0.14255,0.31686 0.28308,0.61798 0.47882,1.18993c0.08746,0.25555 0.14835,0.49745 0.20267,0.72c0.04984,0.20416 0.08939,0.3923 0.13867,0.56001c0.04477,0.15227 0.07608,0.30695 0.25125,0.49779c0.08514,0.09273 0.20569,0.1512 0.33069,0.18666c0.12689,0.036 0.26282,0.0446 0.39465,0.02666c0.13071,-0.01778 0.27411,-0.04233 0.45984,-0.21332c0.09314,-0.08575 0.1524,-0.2153 0.17868,-0.36267c0.03049,-0.17105 0.01587,-0.37967 -0.02933,-0.61867c-0.05334,-0.28201 -0.14175,-0.60852 -0.44565,-1.38905c-0.18466,-0.47435 -0.41885,-0.98984 -0.67731,-1.54932c-0.27704,-0.59973 -0.58041,-1.22917 -0.90134,-1.88533c-0.33209,-0.679 -0.67758,-1.37263 -1.38431,-2.78758c-0.35541,-0.71149 -0.71219,-1.42406 -1.06668,-2.14133c-0.3566,-0.72154 -0.7132,-1.45027 -1.06665,-2.18933c-0.3577,-0.74776 -0.71954,-1.50613 -1.42221,-3.07674c-0.3605,-0.80578 -0.71075,-1.62837 -1.08267,-2.448c-0.37241,-0.8207 -0.75558,-1.63329 -1.17868,-2.416c-0.41751,-0.77237 -0.81802,-1.55196 -1.88681,-2.83971c-0.51785,-0.62395 -1.11343,-1.15774 -1.72,-1.64265c-0.59119,-0.47262 -1.20108,-0.8835 -1.79999,-1.25867c-0.57175,-0.35815 -1.13297,-0.66135 -2.10965,-1.24683c-0.42203,-0.25299 -0.7941,-0.49665 -1.12534,-0.728c-0.30386,-0.21222 -0.57861,-0.41985 -0.83731,-0.616c-0.24857,-0.18845 -0.48575,-0.38276 -1.00034,-0.73006c-0.27087,-0.18286 -0.55927,-0.35532 -0.85599,-0.51734c-0.29361,-0.16032 -0.58557,-0.30434 -0.87201,-0.42133c-0.26682,-0.10897 -0.51401,-0.23626 -0.93866,-0.24651c-0.16122,-0.00389 -0.30194,0.05421 -0.38135,0.152c-0.08221,0.10125 -0.1116,0.25517 -0.10934,0.42399c0.00259,0.19411 0.03888,0.41477 0.1944,0.90549c0.08835,0.27879 0.20932,0.57098 0.33069,0.88799c0.12994,0.33956 0.26752,0.70275 0.39462,1.096c0.13513,0.41798 0.28101,0.86418 0.45987,1.86785c0.09781,0.54874 0.15213,1.14038 0.22665,1.76801c0.07944,0.66898 0.16809,1.38236 0.30667,2.13599c0.14798,0.80468 0.30566,1.67268 0.94815,3.50341c0.35638,1.01548 0.82968,2.05841 1.36267,3.13333c0.55447,1.11826 1.17859,2.24553 1.85867,3.37334c0.69049,1.14508 1.40158,2.29411 3.00089,4.4563c0.78674,1.06364 1.61389,2.06378 2.43198,3.024c0.78931,0.92642 1.56653,1.79214 2.30405,2.60799c0.68842,0.76155 1.34702,1.43933 2.37509,2.66432c0.41168,0.49051 0.73315,0.92627 0.98132,1.304c0.20569,0.3131 0.35406,0.5838 0.46933,0.808c0.09415,0.18312 0.14313,0.3566 0.32712,0.55466c0.08609,0.09267 0.20889,0.15196 0.33865,0.20267c0.13818,0.054 0.29117,0.09296 0.45068,0.13867c0.16702,0.04788 0.34738,0.08546 0.69214,0.25127c0.1825,0.08777 0.35712,0.2058 0.52533,0.33865c0.17096,0.13504 0.33121,0.28667 0.47733,0.45067c0.14496,0.16269 0.28836,0.3275 0.47882,0.69215c0.0903,0.17291 0.15048,0.354 0.19467,0.53334c0.04346,0.17642 0.07172,0.35497 0.08267,0.53333c0.05447,0.88742 0.01895,1.60001 0.01895,2.66667c0,0.71111 0,1.77808 0,2.52592c0,1.14815 0,1.71704 0,2.70369c0,0.74666 0,2 0,2.45422c0,0.98311 0,1.52266 0,2.72444c0,0.67288 0,1.40088 0,3.04355c0,0.92238 0,1.90341 0,2.93066c0,1.06105 0,2.14342 0,3.23468c0,1.08769 -0.00034,2.15941 0,4.20503c0.00015,0.95171 -0.00058,1.85364 0.008,2.70934c0.00815,0.81306 0.02289,1.5872 0.056,2.32533c0.03171,0.70665 0.05875,1.38788 0.2323,2.66904c0.08334,0.61508 0.20264,1.20781 0.33069,1.77867c0.12344,0.55034 0.25992,1.07372 0.39465,1.57066c0.12732,0.46956 0.30682,0.89516 0.60443,2.32533c0.16354,0.78592 0.16434,0.34372 0.08771,-0.58549c-0.06912,-0.83849 -0.21738,-1.83281 -0.44324,-2.95586c-0.11981,-0.59572 -0.25974,-1.19913 -0.41867,-1.8c-0.31073,-1.17467 -0.42911,-1.74834 -1.02963,-3.12296c-0.31937,-0.73099 -0.74243,-1.30298 -1.24445,-2.18816c-0.56958,-1.00429 -0.716,-1.42258 -1.06668,-2.28267c-0.3606,-0.88448 -0.66788,-1.76636 -1.24414,-2.85629c-0.32404,-0.61288 -0.75452,-1.10681 -1.09305,-1.97452c-0.38611,-0.98969 -0.42337,-1.84302 -0.47021,-2.72356c-0.04675,-0.87866 -0.03702,-2.07408 -0.03702,-2.7117c0,-0.84387 0,-0.13748 0,0.67851c0,1.10695 0,1.8483 0,2.68564c0,1.12534 0,2.11615 0,2.68265c0,0.60919 0,1.25749 0,1.94133c0,1.46014 0,3.01985 0,3.82756c0,0.81837 0,1.64029 0,2.45866c0,0.80771 0,1.59763 0,2.36267c0,0.73303 0,2.07466 0,2.67081c0,1.04652 0,1.92238 0,2.65602c0,1.1523 0,1.70192 0,0.78487c0,-0.50516 0,-1.77333 0,-2.51851c0,-0.80742 0,-1.66815 0,-2.57332c0,-1.90817 0,-2.89395 0,-3.89215c0,-1.00534 0,-2.01245 0,-3.01602c0,-0.99466 0,-1.9751 0,-2.93599c0,-1.84177 0,-2.71408 0,-3.55794c0,-0.82251 0,-1.63081 0,-2.43199c0,-0.80118 0,-1.60948 0,-2.43201c0,-1.71614 0,-2.62132 0,-3.55318c0,-0.94963 0,-1.90816 0,-2.86667c0,-0.94963 0,-1.88148 0,-2.78667c0,-1.69481 0,-2.46844 0,-3.19052c0,-0.67229 0,-1.2966 0,-1.87466c0,-0.53363 0,-1.0246 0,-1.47467c0,-0.78459 0,-1.12326 0,-1.4317c0,-0.28355 0,-1.03822 0,-2.29451c0,-0.58905 0.00186,-1.51704 0,-2.12386c-0.00403,-1.30017 0.005,-1.99149 -0.2963,-2.93452c-0.2702,-0.84576 -1.03412,-1.68767 -1.3298,-0.92444c-0.15146,0.39098 -0.11862,1.47989 -0.13272,2.10962c-0.01529,0.68289 -0.01837,1.41037 -0.01898,2.96297c-0.00031,0.80948 -0.00021,1.64038 0.01602,2.496c0.01678,0.88426 0.04895,1.80086 0.112,2.752c0.06573,0.9915 0.13895,2.02937 0.46457,4.23349c0.17487,1.18379 0.41293,2.40675 0.66135,3.66666c0.25403,1.28828 0.52728,2.5919 0.78937,3.90669c0.26178,1.3134 0.54337,2.6129 0.91971,5.16739c0.18018,1.22305 0.29974,2.40977 0.38928,3.54933c0.08539,1.08636 0.13553,2.11711 0.16534,3.08533c0.02774,0.90028 0.03555,1.72801 0.03793,3.14311c0.00098,0.57748 0,1.0643 0,1.45866c0,0.30016 0,0.5043 0,0.61067c0,0.00682 0.00018,-0.08771 0,-0.58784c-0.00015,-0.4068 -0.00027,-0.90788 -0.008,-1.49068c-0.00864,-0.65218 -0.02448,-1.36136 -0.056,-2.11467c-0.03287,-0.78569 -0.06094,-1.59312 -0.2323,-3.20947c-0.08408,-0.7932 -0.20456,-1.56984 -0.33069,-2.336c-0.12518,-0.76038 -0.26392,-1.5155 -0.39465,-2.272c-0.13123,-0.75934 -0.27673,-1.52335 -0.45984,-3.09569c-0.09399,-0.80717 -0.1507,-1.6331 -0.21069,-2.472c-0.06088,-0.85118 -0.11594,-1.71376 -0.19464,-2.58401c-0.07947,-0.87856 -0.14551,-1.76944 -0.48358,-3.53658c-0.17096,-0.89369 -0.41058,-1.77963 -0.66132,-2.66667c-0.25177,-0.89079 -0.52713,-1.77679 -0.78934,-2.66667c-0.26163,-0.88792 -0.54797,-1.76773 -0.91971,-3.55554c-0.18378,-0.88391 -0.30035,-1.77225 -0.40533,-2.65068c-0.10352,-0.86623 -0.18246,-1.72023 -0.27731,-2.55466c-0.09253,-0.81418 -0.15012,-1.61513 -0.50253,-3.09097c-0.16718,-0.70016 -0.40341,-1.35553 -0.66934,-1.96533c-0.25406,-0.5826 -0.54068,-1.11624 -0.84534,-1.59734c-0.28476,-0.44968 -0.56012,-0.86455 -1.15198,-1.47438c-0.24585,-0.25331 -0.48727,-0.45285 -0.92444,-0.71584c-0.83456,-0.50201 -1.14966,-0.94667 -1.14966,-0.29866c0,0.66608 0,1.50281 0,3.04651c0,0.58252 0,1.19348 0,1.82935c0,1.33214 0,2.02133 0,2.72118c0,1.41747 0,2.12917 0,2.84445c0,0.72237 0,1.4554 0,2.20267c0,0.76503 0,1.55141 0,2.36266c0,1.71141 0,2.61691 0,3.55084c0,0.95525 0,1.92473 0,2.90132c0,0.97658 0,1.94608 0,2.90134c0,1.83942 0,2.71111 0,3.55081c0,0.81125 0,1.59764 0,2.36267c0,0.74724 0,1.4803 0,2.20267c0,1.42696 0,2.13777 0,2.84682c0,0.70547 0,1.40562 0,2.09866c0,0.68414 0,1.35764 0,2.01866c0,1.27762 0,2.48416 0,3.05629c0,1.07318 0,1.57066 0,2.47853c0,1.42459 0,2.18726 0,3.15021c0,0.88887 -0.81543,2.59317 0,2.59317c0.71112,0 0,-1.42693 0,-2.31345c0,-1.00032 0,-2.05748 0,-3.12416c0,-0.53334 0,-1.59999 0,-2.13333c0,-1.06668 -0.00415,-2.13336 0.00238,-3.21658c0.00345,-0.57275 0.01331,-1.18291 0.03467,-1.84267c0.02338,-0.7222 0.05893,-1.51915 0.11465,-2.40266c0.1312,-2.07971 0.23712,-3.29292 0.35794,-4.60565c0.12778,-1.38835 0.2757,-2.82651 0.45334,-4.28798c0.17792,-1.46362 0.36636,-2.90434 0.61334,-4.28801c0.45255,-2.53529 0.75354,-3.62766 1.05954,-4.60327c0.27719,-0.88373 0.58057,-1.66808 0.88266,-2.36798c0.27484,-0.63675 0.55957,-1.20221 0.80267,-1.728c0.43149,-0.93324 0.59036,-1.37061 0.70874,-1.78726c0.10971,-0.38617 0.18198,-0.74803 0.22934,-1.07733c0.04199,-0.29198 0.06192,-0.54622 0.06934,-0.75734c0.00983,-0.27957 0.01074,-0.20671 0.10635,0.40474c0.17154,1.09718 0.40338,2.07994 0.53336,2.63467c0.13773,0.58781 0.44861,1.82986 0.61746,2.46992c0.17007,0.6447 0.52469,1.91486 0.87854,3.1283c0.17181,0.58913 0.35397,1.16701 0.64948,2.3277c0.14767,0.58006 0.32101,1.16333 0.55911,3.01541c0.08289,0.6447 0.11987,1.30756 0.15198,1.98134c0.03259,0.6839 0.05215,1.37712 0.06165,2.78281c0.00961,1.41983 0.00238,2.13008 0.00238,2.83496c0,0.69423 0,1.37245 0,2.65956c0,0.59822 0,1.1591 0,2.56741c0,1.064 -0.00006,1.73479 0,2.49095c0.00015,1.50726 -0.00012,2.12862 0.008,2.78905c0.00839,0.68358 0.00702,1.37546 0.09363,2.71286c0.03998,0.61676 -0.08359,2.55135 0.65451,2.72803c0.61005,0.14601 0.81375,-1.55202 0.87228,-2.112c0.0643,-0.61519 0.14734,-1.95482 0.1944,-2.64534c0.0466,-0.68369 0.02069,-1.35822 0.34842,-3.03261c0.08899,-0.45444 0.38071,-1.2666 0.62817,-2.12294c0.13937,-0.48224 0.47162,-2.41202 0.54013,-3.27408c0.07767,-0.9774 0.12073,-2.0668 0.15201,-3.25868c0.03378,-1.28752 0.04785,-2.66426 0.056,-4.12265c0.00861,-1.53302 0.00806,-4.79466 0.00806,-6.50726c0,-1.74815 0,-3.51407 0,-5.28c0,-1.74817 0,-3.46074 0,-5.12c0,-1.58815 0,-4.48001 0,-5.75111c0,-1.14667 0,-2.1689 0,-3.06667c0,-0.77333 0,-1.42223 0,-1.94667c0,-0.39999 -0.02728,-0.85406 0.00024,-0.85423c0.09158,-0.00052 0.00635,0.29695 0.01865,0.61067c0.01636,0.41698 0.04196,0.93175 0.08267,1.53867c0.04657,0.69447 0.19,2.32318 0.29214,3.24475c0.10855,0.97952 0.23694,2.00117 0.38135,3.05066c0.14651,1.0649 0.30557,2.12939 0.47733,3.17867c0.16739,1.02243 0.51819,2.92419 0.70343,3.77809c0.17319,0.7982 0.35718,1.54889 0.55197,2.26399c0.18991,0.69707 0.39731,1.38298 0.61603,2.07201c0.22449,0.70715 0.72852,2.21584 1.00269,3.0406c0.28766,0.86528 0.58344,1.7587 0.87732,2.66933c0.29459,0.91278 0.58041,1.81674 0.84534,2.70134c0.25403,0.84822 0.67587,2.39578 0.83054,3.07347c0.13858,0.60727 0.24179,1.15364 0.34131,1.63733c0.08804,0.42767 0.16568,0.80589 0.27734,1.12532c0.09882,0.28267 0.39304,0.72549 0.5997,0.87022c0.21161,0.14816 0.46463,0.24388 0.72534,0.32266c0.26334,0.07959 0.53156,0.13258 0.78937,0.19467c0.24469,0.05894 0.66974,0.19794 0.82217,0.30786c0.13928,0.10042 0.24243,0.22968 0.32266,0.36266c0.07803,0.12932 0.75958,1.18988 1.38193,0.71585c0.63165,-0.48111 0.48007,-1.5827 0.49689,-2.30075c0.02917,-1.245 0.00803,-2.17215 0.00803,-2.66666c0,-1.06013 0,-1.62933 0,-2.22696c0,-1.98132 0.0014,-2.70934 -0.00238,-3.46756c-0.00391,-0.78313 -0.0123,-1.58588 -0.03464,-2.40266c-0.02264,-0.82591 -0.05298,-1.6559 -0.11469,-2.48267c-0.12164,-1.63031 -0.23169,-2.42218 -0.36032,-3.2c-0.12805,-0.77432 -0.28967,-1.54594 -0.48798,-2.31735c-0.20209,-0.78615 -0.4407,-1.58559 -0.72803,-2.39734c-0.61072,-1.72531 -1.00708,-2.62204 -1.41745,-3.54843c-0.41977,-0.94751 -0.86752,-1.8951 -1.33606,-2.832c-0.46317,-0.92624 -0.93121,-1.82407 -1.41599,-2.672c-0.89398,-1.56381 -1.34525,-2.23175 -1.76831,-2.83734c-0.38763,-0.55495 -0.76294,-1.04744 -1.112,-1.49066c-0.31726,-0.40285 -0.6171,-0.75786 -0.87198,-1.09067c-0.43497,-0.56801 -0.76031,-1.34019 -1.10696,-1.92001c-0.58731,-0.98231 -1.18127,-1.23844 -1.95319,-1.79674c-0.94199,-0.68134 -1.01706,-1.46508 -1.80859,-2.1926c-0.50131,-0.46078 -1.65927,-0.2963 -2.37039,-0.2963c-1.06696,0 -1.81479,0 -2.96292,0c-0.56418,0 -1.48151,0 -2.3988,0c-1.0643,0 -1.90814,0 -2.81601,0c-0.71112,0 -1.77777,0 -2.48889,0c-1.06696,0 -1.81482,0.00484 -2.96295,0c-0.5618,-0.00237 -1.52695,0.11874 -2.24713,-0.30341c-0.86469,-0.50686 -0.83197,-1.52357 -1.15909,-2.24237c-0.44843,-0.9854 -1.64679,-0.87973 -2.32297,-1.02874c-0.9252,-0.20389 -1.20505,-1.29692 -2.09778,-1.60711c-0.7659,-0.26612 -1.39142,-0.12487 -2.50519,-0.152c-0.89056,-0.02169 -1.85059,-0.24831 -2.5271,-0.77481c-0.56488,-0.4396 -1.27811,-1.14977 -1.91855,-1.89156c-0.44305,-0.51323 -0.7157,-1.48515 -1.12119,-2.13334c-0.63937,-1.02214 -1.35001,-1.19865 -2.10638,-1.77779c-0.86316,-0.66087 -1.11237,-1.55807 -1.84653,-2.01479c-0.58728,-0.36539 -1.65015,0.02605 -2.53094,-0.69009c-0.6178,-0.50229 -0.43201,-1.74193 -0.43201,-2.51466c0,-0.94341 0.06949,-1.80788 -0.064,-2.67141c-0.14774,-0.95564 -1.07327,-1.26344 -1.56207,-2.03852c-0.40482,-0.64192 0.13077,-1.75991 -0.35498,-2.41333c-0.56216,-0.75617 -1.61108,-0.61327 -2.4942,-0.63259c-1.05933,-0.02317 -2.1015,0.14892 -2.53424,-0.63734c-0.38373,-0.6972 0.16278,-2.00332 -0.39792,-2.62429c-0.53723,-0.59499 -1.4213,-0.92715 -1.47913,-1.72089c-0.07599,-1.04279 -0.26486,-1.96221 -1.08798,-2.112c-0.85577,-0.15574 -1.94785,0.12247 -2.36829,-0.65392c-0.37897,-0.69981 0.19363,-2.03271 -0.39795,-2.6243c-0.59158,-0.59159 -1.65924,-0.296 -2.54813,-0.2963c-0.88861,-0.00029 -1.88364,-0.0153 -2.27319,-0.78696c-0.33582,-0.66519 -0.17224,-1.90845 -0.84268,-2.57333c-0.69998,-0.69418 -1.05383,-1.12514 -1.1514,-2.15052c-0.0791,-0.83121 -0.7818,-1.4054 -1.51169,-1.55526c-0.78503,-0.16119 -1.87216,-0.514 -2.02728,-1.29749c-0.20413,-1.03093 -0.07513,-2.00304 -0.94193,-2.26608c-0.81589,-0.2476 -1.62305,-0.04424 -2.40118,0.06459c-1.12323,0.15709 -2.09946,0.40224 -2.64267,0.53333c-0.56619,0.13663 -1.72119,0.43806 -2.28265,0.61749c-1.53671,0.49107 -1.97665,0.64756 -2.97125,1.25542c-0.60199,0.3679 -1.15619,0.85091 -2.18637,1.62044c-0.40472,0.30235 -1.31992,0.9829 -1.81213,1.39023c-0.52991,0.43848 -1.08768,0.9258 -1.64532,1.49066c-1.23947,1.25541 -1.84552,2.02475 -2.4794,2.83497c-0.659,0.84235 -1.30637,1.72914 -1.94934,2.63734c-0.64417,0.9099 -1.26651,1.82172 -1.86932,2.71732c-1.13541,1.68691 -1.64716,2.4631 -2.12622,3.18578c-0.44531,0.67174 -0.85599,1.29488 -1.22668,1.87466c-0.34021,0.5321 -0.64832,1.01976 -0.90665,1.47467c-0.44104,0.77662 -0.6015,1.11703 -0.7135,1.42696c-0.18295,0.50629 -0.04535,1.54684 0.62015,1.69096c1.00726,0.21814 1.77777,0.03946 2.92593,0.03706c0.56415,-0.00119 1.49731,0.05309 2.3988,-0.15171c1.09424,-0.2486 1.72708,-0.75788 2.2803,-1.2729c0.74344,-0.6921 1.38669,-1.32679 2.00888,-1.80088c0.37323,-0.28439 1.30942,-0.92667 2.50192,-1.69778c0.66461,-0.42978 1.36261,-0.87156 2.06934,-1.33601c0.71075,-0.46711 1.4129,-0.93069 2.06934,-1.41599c1.20816,-0.8932 1.70035,-1.34222 2.12622,-1.77541c0.39432,-0.4011 1.04324,-1.2052 1.56296,-2.02074c0.25876,-0.40605 1.03174,-1.72382 1.32416,-2.18668c0.60019,-0.94999 0.91071,-1.42054 1.53482,-2.32446c0.29672,-0.42973 1.09927,-1.56007 1.59201,-2.11732c0.58969,-0.66689 1.55878,-1.15105 2.19791,-1.4557c0.83554,-0.39826 0.7941,-1.26254 0.94193,-2.31111c0.10266,-0.72815 0.75943,-1.43829 1.49631,-1.95554c0.52304,-0.36716 1.62473,-0.97958 1.91525,-1.77779c0.36743,-1.00951 0.23453,-1.91571 -0.32712,-2.33719c-0.8927,-0.66991 -1.819,-0.46535 -2.60977,-0.3603c-0.76361,0.10145 -1.86456,0.85892 -2.15228,1.49808c-0.3707,0.82346 -0.48724,1.3723 -0.71585,1.96267c-0.55777,1.44038 -0.96826,2.27568 -1.42697,3.19527c-0.49774,0.9978 -1.05362,2.05099 -1.64001,3.16c-0.6106,1.15474 -1.24771,2.34045 -1.87994,3.56c-1.28082,2.47051 -1.88602,3.71814 -2.47705,4.95645c-0.58221,1.21982 -1.13834,2.42226 -1.67999,3.59467c-0.52499,1.13633 -1.02448,2.23365 -1.52002,3.27467c-0.91223,1.91637 -1.35526,2.76709 -1.77539,3.55318c-0.39026,0.73021 -0.76645,1.40044 -1.112,2.024c-0.32047,0.57825 -0.62344,1.11196 -0.87201,1.624c-0.44702,0.92086 -0.59592,1.36483 -0.71585,1.792c-0.11627,0.41409 -0.19696,0.83117 -0.26401,1.25066c-0.06821,0.42679 -0.11905,0.86983 -0.18399,1.33067c-0.14148,1.00381 -0.24246,1.55251 -0.35791,2.12386c-0.11795,0.58366 -0.24817,1.16459 -0.384,1.73066c-0.12979,0.54087 -0.25598,1.04285 -0.384,1.49067c-0.19934,0.69722 -0.20413,1.07858 -0.35083,1.05244c-0.56033,-0.09982 0.13779,-1.84019 0.2406,-2.4071c0.11472,-0.63262 0.25452,-1.32266 0.43735,-2.05866c0.19467,-0.78369 0.43021,-1.60289 0.72531,-2.44267c0.30649,-0.87212 1.09271,-2.64365 1.57986,-3.52534c0.5033,-0.91092 1.08279,-1.82658 1.69598,-2.77866c0.64407,-1.00008 1.33865,-2.04383 2.04797,-3.16267c0.75125,-1.18495 2.31628,-3.82798 3.112,-5.30637c0.83337,-1.54839 1.65225,-3.16883 2.47739,-4.82401c0.83005,-1.66513 1.63947,-3.32719 2.44531,-4.95199c0.78003,-1.57279 2.25888,-4.46175 2.96326,-5.73038c0.65231,-1.17487 1.293,-2.25507 1.90402,-3.272c0.58496,-0.97354 1.16339,-1.91373 1.71198,-2.856c0.55133,-0.94694 1.62781,-2.96236 2.14874,-4.06756c0.5415,-1.14892 1.05856,-2.34539 1.56268,-3.56533c0.50455,-1.22099 0.98068,-2.43753 1.43463,-3.62933c0.43719,-1.14782 1.21335,-3.26037 1.54877,-4.19644c0.3067,-0.85602 0.58298,-1.64415 0.81863,-2.37867c0.21957,-0.68434 0.41,-1.33453 0.56268,-1.96267c0.1481,-0.6094 0.36307,-1.83364 0.43494,-2.46459c0.07288,-0.63968 0.11951,-1.28446 0.15201,-1.92533c0.03198,-0.62969 0.04758,-1.24203 0.056,-1.82934c0.00803,-0.55523 0.00803,-1.54133 0.00803,-1.95911c0,-0.36444 0,-0.67555 0,-0.93333c0,-0.20445 0,-0.35556 0,-0.45334c0,-0.04444 0.00159,0.0267 -0.00092,0.14371c-0.00375,0.17933 -0.01825,0.43015 -0.056,0.76c-0.04807,0.42001 -0.12842,0.93754 -0.24799,1.56c-0.1423,0.74083 -0.57693,2.60185 -0.87646,3.73422c-0.33255,1.25722 -0.7168,2.61178 -1.14395,4.04267c-0.4454,1.4919 -0.92328,3.01783 -1.43204,4.55466c-0.50821,1.53521 -1.56516,4.49488 -2.1087,5.87734c-0.51889,1.31965 -1.04382,2.56326 -1.56268,3.73333c-0.49014,1.10536 -0.97263,2.13523 -1.43466,3.09333c-0.4295,0.89067 -1.20987,2.45374 -1.54932,3.13008c-0.30771,0.61311 -0.58859,1.17038 -0.85602,1.67466c-0.24661,0.46508 -0.48514,0.8946 -0.72803,1.29066c-0.23383,0.38136 -0.74103,1.10098 -1.01868,1.45481c-0.28412,0.36208 -0.58582,0.72305 -0.87732,1.104c-0.29706,0.38821 -0.58844,0.79364 -0.84534,1.23201c-0.26276,0.44835 -0.68719,1.45108 -0.82993,2.00562c-0.14719,0.57184 -0.23929,1.16915 -0.30399,1.77335c-0.06445,0.60191 -0.09512,1.19687 -0.112,1.77332c-0.01608,0.54951 -0.01602,1.53333 -0.01602,1.952c0,0.37067 0,0.69866 0,0.98934c0,0.25866 0,0.49065 0,0.70132c0,0.19466 0,0.55733 0,0.7351c0,0.17778 0,0.35556 0,0.53334c0,0.17778 0,0.35556 0,0.53333c0,0.17778 -0.00089,0.53333 0.00031,0.71082c0.00119,0.1757 -0.1279,0.38441 0.06369,0.82518c0.35196,0.80978 1.36908,0.87648 2.26312,0.75111c0.66037,-0.09261 1.82864,-0.85545 2.19348,-1.15733c0.84848,-0.70207 1.28168,-1.13961 1.73868,-1.59645c0.47476,-0.47459 1.43112,-1.48306 2.33331,-2.55555c0.44339,-0.52708 0.85971,-1.06364 1.26135,-1.60001c0.39716,-0.53038 1.15112,-1.59875 1.51584,-2.13332c0.36301,-0.5321 1.07565,-1.59935 1.78815,-2.67141c0.36169,-0.54425 0.72867,-1.09924 1.10135,-1.66933c0.38348,-0.58663 0.77777,-1.19453 1.18134,-1.82935c0.86014,-1.35303 1.30838,-2.08376 1.77777,-2.8397c0.48291,-0.77769 0.97583,-1.57121 1.48532,-2.368c0.51208,-0.80085 1.02762,-1.59741 1.56534,-2.368c1.04501,-1.49751 1.59143,-2.18309 2.13098,-2.84208c0.52731,-0.64407 1.06442,-1.26064 1.59998,-1.86401c0.53116,-0.5984 1.06995,-1.18639 1.60001,-1.78399c1.07336,-1.21012 1.6033,-1.84306 2.1286,-2.48889c0.52597,-0.64663 1.03702,-1.29864 1.53067,-1.94933c0.48288,-0.63649 0.94321,-1.25996 1.3707,-1.86934c0.78806,-1.12332 1.11734,-1.64445 1.41983,-2.12148c0.27399,-0.43213 0.38666,-1.73935 1.21597,-1.83466c0.56583,-0.06503 0.43979,1.30611 0.21573,2.52918c-0.08362,0.4564 -0.33661,1.4219 -0.47882,1.93896c-0.30606,1.11294 -0.4812,1.70829 -0.64948,2.33719c-0.36151,1.35128 -0.53329,2.08064 -0.70877,2.83733c-0.18015,0.77692 -0.35553,1.56918 -0.53333,2.368c-0.17776,0.79882 -0.35153,1.59146 -0.53333,2.368c-0.34784,1.48568 -0.50696,2.18555 -0.90488,3.46519c-0.1871,0.60168 -0.37,1.18787 -0.89838,2.22694c-0.25714,0.50565 -0.89294,1.44915 -1.6954,2.27705c-0.40735,0.42028 -1.30106,1.18167 -1.7446,1.55497c-0.43588,0.36684 -1.65723,1.41812 -2.27557,2.15229c-0.29071,0.34517 -0.78101,1.0563 -1.17627,1.77778c-0.57648,1.05225 -0.88766,1.78237 -1.26047,2.45096c-0.51004,0.91471 -1.28711,1.67909 -1.91852,2.17127c-0.68192,0.53155 -0.15366,2.27182 -0.92355,2.24237c-0.64932,-0.02484 -0.00546,-1.30934 -0.00235,-2.53867c0.00238,-0.93631 0.00739,-1.45374 0.0379,-2.01482c0.07031,-1.29308 0.15366,-2.0415 0.2655,-2.86814c0.2619,-1.93575 0.47824,-3.04964 0.70874,-4.25244c0.24387,-1.27254 0.51575,-2.59154 0.80264,-3.93867c0.28909,-1.35748 0.58566,-2.70345 0.88269,-4.01866c0.55649,-2.46402 0.8157,-3.5778 1.06903,-4.61749c0.23999,-0.98516 0.48361,-1.92982 0.75195,-2.84533c0.26743,-0.91214 0.56265,-1.83151 0.91205,-2.76534c0.75775,-2.02545 1.25494,-3.11398 1.77066,-4.26192c0.53241,-1.18521 1.09122,-2.3782 1.65067,-3.56534c0.54755,-1.16189 1.08182,-2.27377 1.57068,-3.32533c0.84552,-1.81876 1.16449,-2.56011 1.41748,-3.19052c0.21118,-0.52621 0.37027,-0.96851 0.49332,-1.336c0.10162,-0.30351 0.17319,-0.56149 0.25333,-0.776c0.14096,-0.37731 0.24509,-0.55323 0.36267,-0.72059c0.11609,-0.16525 0.24417,-0.31389 0.384,-0.42933c0.12674,-0.10463 0.25916,-0.19789 0.384,-0.18934c0.22226,0.01523 0.30548,0.18704 0.35083,0.35319c0.11514,0.42179 0.15253,1.28094 -0.24002,2.35526c-0.19666,0.53821 -0.58374,1.10317 -0.95999,1.88267c-0.23145,0.4795 -0.7262,1.70712 -0.99527,2.47052c-0.29816,0.8459 -0.59616,1.76433 -0.91464,2.728c-0.328,0.99249 -0.65884,1.99602 -1.01068,2.984c-0.3429,0.96283 -1.04282,2.71964 -1.41483,3.47081c-0.34512,0.69688 -0.71896,1.33391 -1.10397,1.93867c-0.38428,0.60362 -0.80365,1.20487 -1.23203,1.84266c-0.45831,0.6824 -1.46463,2.26966 -2.00531,3.21334c-0.58365,1.01867 -1.16977,2.10831 -1.75467,3.24267c-0.5921,1.14832 -1.16003,2.30021 -1.69067,3.43466c-0.50726,1.08443 -1.35107,3.04602 -1.66046,3.88859c-0.27228,0.74155 -0.4801,1.41072 -0.64532,2.016c-0.1506,0.55172 -0.26767,1.07202 -0.38931,1.568c-0.12018,0.49011 -0.41223,1.50733 -0.6163,2.05393c-0.21732,0.58207 -0.4751,1.18146 -0.76266,1.792c-0.29419,0.62459 -0.61389,1.24601 -0.95468,1.856c-0.33728,0.60368 -1.04233,1.73384 -1.40564,2.24297c-0.3436,0.4815 -0.68674,0.91694 -1.02933,1.29599c-0.31143,0.34457 -0.50583,0.87989 -1.15674,1.01452c-0.79901,0.16526 -0.90131,-0.75503 -0.79526,-1.60474c0.06696,-0.53653 0.36639,-1.81519 0.5683,-2.55822c0.21942,-0.80743 0.4769,-1.66217 0.76266,-2.55467c0.29599,-0.92449 0.61575,-1.86499 0.95468,-2.81066c0.33902,-0.94591 1.04587,-2.78062 1.40622,-3.65126c0.35092,-0.84787 0.71109,-1.67408 1.06665,-2.49334c0.35556,-0.81926 0.71576,-1.64547 1.06668,-2.49332c0.36035,-0.87064 1.07391,-2.7308 1.42221,-3.73689c0.36313,-1.04897 0.71558,-2.14438 1.06668,-3.27733c0.36014,-1.16215 0.71323,-2.35315 1.06665,-3.56533c0.35773,-1.22693 1.06573,-3.7096 1.42224,-4.9526c0.35461,-1.23641 0.70712,-2.45925 1.06665,-3.65866c0.35168,-1.17332 0.70349,-2.31125 1.06668,-3.40267c0.34827,-1.0466 1.05545,-2.95941 1.42163,-3.80859c0.34103,-0.79093 0.68945,-1.51191 1.02933,-2.17067c0.31369,-0.60802 0.62064,-1.15695 0.90134,-1.65867c0.25507,-0.45589 0.68512,-1.23909 0.83792,-1.58104c0.13556,-0.30335 0.23642,-0.58213 0.30399,-0.83733c0.06091,-0.22996 0.09506,-0.44514 0.112,-0.64533c0.01596,-0.1887 0.01602,-0.54933 0.01602,-0.72711c0,-0.17778 0,-0.35556 0,-0.53334c0,-0.35555 0.7598,-2.07356 0,-2.18548c-0.65881,-0.09704 -0.4194,1.24447 -1.18106,2.47733c-0.32346,0.52358 -0.71194,1.06651 -1.12531,1.64001c-0.43033,0.59702 -0.88324,1.19957 -1.34933,1.8c-0.46313,0.59661 -1.81854,2.23894 -2.2489,2.74163c-0.43362,0.5065 -0.88611,1.0323 -1.35468,1.608c-0.51318,0.63052 -1.07275,1.34339 -1.67465,2.16799c-1.46002,2.0002 -2.28384,3.24389 -3.18814,4.61038c-0.96692,1.46111 -1.95801,3.00112 -2.95203,4.592c-0.99951,1.59965 -1.97366,3.18743 -2.87198,4.752c-1.64172,2.85936 -2.28494,4.14292 -2.83261,5.30963c-0.49258,1.04937 -0.89423,2.01486 -1.22131,2.90134c-0.29761,0.80655 -0.53503,1.55932 -0.74133,2.26133c-0.37949,1.2914 -0.54401,1.90805 -0.72534,2.49837c-0.17435,0.56757 -0.34964,1.10671 -0.53333,1.61066c-0.17227,0.47256 -0.3399,0.90947 -0.53336,1.29066c-0.32944,0.64917 -0.52478,0.88501 -0.71109,1.07616c-0.17032,0.17473 -0.35556,0.31287 -0.53336,0.44798c-0.17776,0.13512 -0.36743,0.26907 -0.53333,0.44801c-0.38504,0.41537 -0.53796,0.72864 -0.70874,1.05717c-0.17731,0.34107 -0.33514,0.6893 -0.49866,1.01334c-0.1474,0.29211 -0.36597,0.83926 -0.70966,0.5917c-0.51178,-0.36864 -0.15002,-1.59187 -0.13333,-2.1763c0.01819,-0.63466 0.20575,-2.71278 0.31079,-3.42341c0.10593,-0.71642 0.23749,-1.43836 0.38135,-2.17067c0.14697,-0.74801 0.31052,-1.51229 0.47736,-2.29866c0.17212,-0.81127 0.52939,-2.52188 0.70282,-3.42933c0.17993,-0.94143 0.35397,-1.91901 0.51468,-2.93334c0.16605,-1.0479 0.31857,-2.13235 0.45065,-3.25333c0.13602,-1.15461 0.34641,-3.57286 0.41925,-4.83378c0.07425,-1.2849 0.12372,-2.58483 0.17065,-3.888c0.04669,-1.29594 0.08563,-2.5744 0.13867,-3.824c0.05139,-1.21085 0.19177,-3.47308 0.29987,-4.5037c0.10123,-0.96528 0.22702,-1.86531 0.36264,-2.704c0.12674,-0.78381 0.26462,-1.51247 0.39465,-2.192c0.12128,-0.63364 0.33585,-1.77523 0.41098,-2.29067c0.069,-0.47311 0.11731,-0.90105 0.15201,-1.27733c0.02942,-0.3189 0.04593,-0.57595 0.056,-0.76533c0.00623,-0.11642 0.00803,-0.10934 0.00803,0.02399c0,0.22223 0,0.53334 0,0.93334c0,1.06666 0,1.73333 0,2.48889c0,1.77778 0.00131,2.79822 -0.00238,3.89689c-0.00394,1.16622 -0.01254,2.3894 -0.03467,3.65866c-0.0228,1.30497 -0.05353,2.63513 -0.11465,3.97867c-0.12241,2.6891 -0.23303,4.0139 -0.35794,5.32385c-0.12405,1.30107 -0.27573,2.59435 -0.45334,3.88267c-0.17795,1.29071 -0.37982,2.5845 -0.61331,3.88267c-0.47485,2.64007 -0.77017,3.97796 -1.05957,5.33333c-0.2919,1.36702 -0.59445,2.73925 -0.88266,4.11734c-0.28781,1.37629 -0.57101,2.74762 -0.80267,4.11733c-0.45526,2.69169 -0.59317,4.01981 -0.70874,5.32148c-0.11285,1.27093 -0.18359,2.50988 -0.22934,3.70933c-0.04401,1.15439 -0.06241,2.25952 -0.06934,3.30934c-0.01263,1.91284 -0.00302,2.76711 -0.00711,3.55555c-0.00375,0.72802 -0.01111,1.40107 -0.03467,2.024c-0.02188,0.57888 -0.0506,1.1198 -0.11465,1.624c-0.11877,0.9352 -0.23486,1.3693 -0.35318,1.78726c-0.11539,0.40758 -0.24985,0.79929 -0.384,1.18133c-0.13138,0.37411 -0.26944,0.73769 -0.384,1.10133c-0.22336,0.70901 -0.29477,1.06683 -0.35318,1.41512c-0.05569,0.33214 -0.09082,0.64446 -0.11465,0.928c-0.02081,0.24749 -0.03046,0.45269 -0.03467,0.60799c-0.0036,0.13272 -0.00238,0.09778 -0.00238,-0.00473c0,-0.16652 0,-0.39348 0,-0.67733c0,-0.33719 0,-0.72416 0,-1.15734c0,-0.99081 0,-1.54133 0,-2.12385c0,-0.61097 0,-1.24681 0,-1.904c0,-0.67497 0,-1.36415 0,-2.06401c0,-1.41748 0,-2.13007 0,-2.85155c0,-0.73927 0,-1.50518 0,-2.30666c0,-0.84593 0,-1.74519 0,-2.70667c0,-2.1452 0.00272,-3.34283 -0.00473,-4.61511c-0.00778,-1.33277 -0.02466,-2.71195 -0.06934,-4.12267c-0.04526,-1.42904 -0.10486,-2.86296 -0.22934,-4.28267c-0.24191,-2.75892 -0.465,-4.06215 -0.70639,-5.29541c-0.22678,-1.1585 -0.48416,-2.21924 -0.76797,-3.16266c-0.24948,-0.82929 -0.46704,-1.53984 -0.76801,-2.04267c-0.35449,-0.59227 -0.60919,-0.56286 -0.70639,-0.36266c-0.15402,0.31718 -0.18677,0.81211 -0.22931,1.40533c-0.04941,0.68925 -0.06259,1.45833 -0.06934,2.28534c-0.01431,1.75164 -0.00476,2.64 -0.00476,3.52473c0,0.87763 0,1.74461 0,2.59734c0,0.83496 0,1.64859 0,2.43733c0,1.48859 0,2.18281 0,2.84682c0,0.63911 0,1.25866 0,1.86399c0,0.59645 0,1.18933 0,1.78401c0,1.21599 0,1.84592 0,2.48652c0,0.64414 0,1.28473 0,1.91466c0,0.61215 0,1.1994 0,1.75466c0,0.98608 0,1.40386 0,1.76831c0,0.3111 -0.20444,0.77333 0,0.77333c0.0575,0 0,-0.81482 0,-1.50341c0,-1.23733 0.00171,-2.16184 -0.008,-2.65067c-0.02048,-1.03132 -0.03207,-1.57542 -0.14371,-2.71111c-0.11911,-1.21166 -0.22913,-1.84232 -0.36029,-2.48652c-0.27298,-1.34055 -0.47629,-2.02238 -0.70163,-2.7117c-0.23016,-0.70415 -0.47363,-1.42477 -1.15674,-2.82549c-0.35205,-0.72187 -0.76971,-1.42933 -1.21066,-2.14133c-0.45026,-0.72701 -0.93509,-1.45287 -1.43466,-2.18935c-0.509,-0.75037 -1.04352,-1.50316 -2.0954,-3.07674c-0.53821,-0.80516 -1.069,-1.63025 -1.59201,-2.472c-0.5271,-0.84833 -1.04318,-1.70999 -1.54401,-2.584c-0.50125,-0.87476 -0.99945,-1.75069 -1.90103,-3.53659c-0.44574,-0.88293 -0.85779,-1.76866 -1.25336,-2.64267c-0.38657,-0.85406 -0.74844,-1.6899 -1.09332,-2.49867c-0.33063,-0.77527 -0.63467,-1.51693 -1.20889,-2.85866c-0.25571,-0.59746 -0.49817,-1.14577 -0.728,-1.65067c-0.21359,-0.46926 -0.41882,-0.90551 -0.61603,-1.31466c-0.18747,-0.38905 -0.37119,-0.76137 -0.73004,-1.47912c-0.17761,-0.35519 -0.50085,-1.07625 -0.92593,-1.7037c-0.59384,-0.87657 -1.38303,-1.62533 -2.26221,-1.68593c-0.83972,-0.05787 -0.83398,0.8629 -0.48593,1.47911c0.47992,0.84966 0.78174,1.35814 1.04297,1.96267c0.60849,1.40821 0.82758,2.26855 1.05954,3.19052c0.24646,0.97964 0.46246,2.01665 0.68268,3.09067c0.22546,1.0996 0.43829,2.21685 0.68268,3.33066c0.48111,2.19266 0.76807,3.23977 1.06665,4.25245c0.29074,0.98614 0.60266,1.93799 0.91733,2.86133c0.30652,0.89944 0.62064,1.77016 0.91736,2.62134c0.57022,1.63583 0.82571,2.42764 1.06427,3.2c0.23129,0.74887 0.44379,1.47659 0.64801,2.17867c0.19638,0.67512 0.37958,1.32359 0.56799,1.93867c0.34869,1.13828 0.53143,1.65414 0.71585,2.14281c0.17899,0.47429 0.37003,0.9372 0.56802,1.40001c0.20258,0.47353 0.42136,0.96243 0.64798,1.48c0.50287,1.14845 0.77435,1.79546 1.06192,2.47467c0.29376,0.69382 0.58548,1.38403 0.88269,2.04533c0.27905,0.62098 -0.02017,1.97221 1.2222,2.25925c0.53561,0.12376 0.56342,-1.04501 0.5766,-1.52859c0.04721,-1.73009 0.01602,-2.36147 0.01602,-3.00829c0,-1.33453 0,-2.01866 0,-2.7117c0,-0.70015 0.00061,-1.40563 0,-2.82549c-0.00034,-0.71141 0.01431,-1.42516 -0.03793,-2.86341c-0.02649,-0.7296 -0.07864,-1.46848 -0.16534,-2.216c-0.08847,-0.76263 -0.37677,-2.33112 -0.58398,-3.13599c-0.2121,-0.82386 -0.46774,-1.65028 -0.74402,-2.47734c-0.27664,-0.82812 -0.57352,-1.64357 -0.87198,-2.44533c-0.29184,-0.78401 -0.8577,-2.26871 -1.11438,-2.96385c-0.24573,-0.66549 -0.47809,-1.31066 -0.70401,-1.94134c-0.22327,-0.62324 -0.44339,-1.24761 -0.672,-1.87733c-0.72891,-2.00792 -1.00873,-2.7333 -1.30014,-3.48444c-0.29761,-0.76711 -0.60364,-1.5373 -0.91733,-2.29867c-0.30743,-0.74617 -0.60925,-1.46504 -0.91736,-2.13867c-0.54953,-1.20146 -0.79846,-1.70741 -1.28412,-2.50666c-0.53467,-0.87992 -1.03674,-1.65797 -1.31705,-2.46578c-0.01685,-0.04846 0.05063,0.70617 0.25925,2c0.09164,0.56843 0.20926,1.19785 0.34668,1.88c0.14673,0.7283 0.31372,1.49188 0.50665,2.28c0.19803,0.80901 0.39688,1.63313 0.92444,3.24741c0.26035,0.79662 0.55981,1.57088 0.86401,2.336c0.30267,0.76141 0.61963,1.51497 0.92801,2.272c0.30908,0.75883 0.63495,1.51668 1.17096,3.0957c0.27277,0.80355 0.50668,1.62965 0.73596,2.464c0.23062,0.83915 0.44708,1.68471 0.67203,2.528c0.22424,0.84085 0.43036,1.68286 0.96237,3.30429c0.26117,0.79598 0.55804,1.569 0.87997,2.32c0.31824,0.74244 0.66489,1.46344 1.04001,2.16c0.3717,0.69021 0.75189,1.37186 1.63556,2.63111c0.43765,0.62366 0.91101,1.21178 1.38931,1.77866c0.46765,0.55426 0.94058,1.07637 1.40533,1.57067c0.44388,0.4721 0.86981,0.91272 1.98785,2.02548c0.57413,0.57139 1.55322,1.58303 1.98727,1.13659c0.47647,-0.49009 0.33975,-1.77099 0.54993,-2.76385c0.12115,-0.57234 0.25528,-1.19151 0.384,-1.85867c0.13699,-0.70999 0.27411,-1.46252 0.38397,-2.25866c0.23474,-1.7009 0.29709,-2.61104 0.35321,-3.55793c0.05859,-0.98857 0.09256,-2.02419 0.11465,-3.10933c0.02316,-1.13828 0.03131,-2.33363 0.03467,-3.58933c0.00723,-2.70695 0.00238,-4.16148 0.00238,-5.66756c0,-1.53807 0,-3.08859 0,-4.632c0,-1.51674 0,-2.98726 0,-4.392c0,-2.53392 0.00348,-3.63054 -0.00476,-4.62222c-0.00754,-0.90641 -0.02338,-1.74747 -0.06934,-2.54133c-0.04446,-0.76832 -0.1124,-1.53066 -0.22931,-2.30134c-0.25299,-1.66752 -0.47754,-2.58451 -0.70639,-3.55792c-0.23788,-1.01186 -0.50034,-2.03909 -0.76804,-3.06667c-0.26334,-1.01093 -0.52646,-1.98449 -0.76794,-2.90667c-0.42181,-1.61065 -0.58289,-2.27027 -0.70639,-2.83496c-0.10443,-0.4773 -0.18082,-0.88096 -0.22934,-1.22133c-0.04071,-0.28561 -0.06232,-0.5296 -0.06931,-0.74134c-0.01224,-0.3696 -0.00476,-0.54518 -0.00476,-0.70637c0,-0.13274 0.03314,-0.256 0,-0.256c-0.03793,0 0,0.16119 0,0.384c0,0.80119 -0.00226,1.40269 0.00476,2.1286c0.008,0.83263 0.02567,1.75437 0.06931,2.74666c0.04602,1.04631 0.10669,2.1297 0.22934,3.22667c0.24442,2.18621 0.4671,3.23611 0.71585,4.26192c0.24905,1.02724 0.55841,2.05617 0.90668,3.104c0.36243,1.0905 0.77933,2.22449 1.22665,3.424c0.98917,2.65248 1.54715,4.12106 2.12149,5.67704c0.5961,1.61496 1.19952,3.26784 1.79999,4.936c0.59659,1.65748 1.17654,3.28259 1.72,4.856c0.99503,2.88086 1.40823,4.15538 1.77069,5.31437c0.32794,1.04865 0.60889,2.00111 0.84265,2.86666c0.21118,0.78207 0.38828,1.49413 0.52264,2.14668c0.23605,1.14606 0.30194,1.66504 0.36502,2.14756c0.05878,0.44968 0.10269,0.87011 0.14935,1.26133c0.04352,0.36491 0.08136,0.70699 0.14932,1.02132c0.12466,0.57655 0.23386,0.8346 0.36029,1.06905c0.12302,0.22811 0.27533,0.43534 0.45334,0.61333c0.17801,0.178 0.3826,0.33535 0.61334,0.45333c0.48218,0.24654 0.7706,0.30248 1.05954,0.35556c0.29266,0.05376 0.59012,0.08013 0.88269,0.07999c0.28369,-0.00013 0.55695,-0.01688 0.80264,-0.07999c0.42908,-0.11023 0.61774,-0.21349 0.70401,-0.36978c0.3288,-0.59569 0.09854,-1.44173 0,-1.96267c-0.25919,-1.37035 -0.47614,-2.22536 -0.70636,-3.19052c-0.25183,-1.05566 -0.53177,-2.18175 -0.83734,-3.35999c-0.31534,-1.21587 -0.6441,-2.44994 -0.99734,-3.68c-0.68896,-2.39913 -1.05624,-3.52701 -1.41983,-4.61511c-0.35538,-1.06359 -0.72522,-2.10815 -1.10135,-3.14933c-0.37997,-1.05188 -0.77798,-2.12242 -1.18134,-3.22933c-0.86053,-2.36149 -1.31064,-3.64111 -1.77777,-4.98252c-0.48523,-1.39339 -0.9791,-2.83256 -1.48532,-4.30667c-0.51538,-1.5007 -1.03494,-3.02018 -1.56534,-4.54667c-1.05896,-3.04778 -1.59348,-4.54976 -2.13333,-6.03259c-0.53455,-1.46828 -1.07635,-2.91824 -1.63467,-4.34666c-0.55347,-1.41603 -1.11691,-2.81505 -1.71466,-4.18667c-1.18304,-2.7147 -1.82993,-4.02921 -2.4794,-5.30963c-0.62796,-1.23801 -1.25409,-2.40221 -1.88,-3.46666c-0.57245,-0.97354 -1.09189,-1.84054 -1.63998,-2.50667c-0.78323,-0.95184 -1.17673,-1.1553 -1.41986,-1.07141c-0.23923,0.08254 -0.3743,0.43523 -0.45865,0.83734c-0.10074,0.48024 -0.12512,1.03795 -0.13867,1.63733c-0.02826,1.25127 -0.00949,1.86785 -0.00949,2.48415c0,0.63407 0,1.3037 0,2.02667c0,0.79407 0,1.67703 0,2.66666c0,2.37037 0,3.77897 0,5.31911c0,1.64326 0,3.36119 0,5.12533c0,1.78193 0,3.55319 0,5.28534c0,3.23319 -0.00336,4.68476 0.00476,6.02785c0.00757,1.25069 0.02319,2.42526 0.06934,3.53867c0.04434,1.06977 0.10818,2.11248 0.22931,3.13867c0.24655,2.08903 0.47263,3.16673 0.70639,4.25955c0.23325,1.09039 0.49316,2.15006 0.76801,3.15734c0.25677,0.94108 0.50183,1.79259 0.76797,2.51733c0.38568,1.05034 0.54031,1.37854 0.70639,1.42222c0.099,0.02605 0.18826,-0.15377 0.22934,-0.384c0.05286,-0.29617 0.06247,-0.64701 0.06931,-1.024c0.01364,-0.75367 0.00769,-1.09458 0,-1.41748c-0.00772,-0.32306 -0.02768,-0.66427 -0.06931,-1.04c-0.04767,-0.43037 -0.12326,-0.93141 -0.22934,-1.52c-0.2739,-1.51987 -0.48111,-2.47317 -0.70874,-3.5437c-0.2468,-1.16064 -0.51587,-2.38297 -0.80267,-3.64c-0.28915,-1.26742 -0.58011,-2.51763 -0.88266,-3.72c-0.54675,-2.17274 -0.81171,-3.08902 -1.06192,-3.89215c-0.2207,-0.70835 -0.43619,-1.32776 -0.64801,-1.86933c-0.18954,-0.48459 -0.38019,-0.91645 -0.56799,-1.30934c-0.34976,-0.73166 -0.53235,-1.08307 -0.71112,-1.42459c-0.16925,-0.32332 -0.32828,-0.61879 -0.49866,-0.85867c-0.14218,-0.2002 -0.28052,-0.39466 -0.41867,-0.37866c-0.26089,0.03021 -0.30447,0.3841 -0.35318,0.71585c-0.06165,0.41976 -0.07953,0.92911 -0.08002,1.51467c-0.00055,0.65665 0.02527,1.37784 0.08002,2.15466c0.11975,1.69892 0.23206,2.60463 0.35791,3.54371c0.13043,0.97333 0.29077,1.97643 0.48801,3.00533c0.20309,1.05955 0.43701,2.14463 0.728,3.24533c0.60376,2.28374 1.00378,3.44 1.41748,4.60801c0.41647,1.17583 0.86609,2.3383 1.336,3.48c0.46182,1.12201 0.93286,2.20661 1.41602,3.24c0.89673,1.91792 1.34814,2.76471 1.76828,3.55081c0.39029,0.73021 0.76645,1.40044 1.112,2.024c0.3205,0.57825 0.62344,1.11196 0.87201,1.624c0.44702,0.92087 0.5946,1.3633 0.71347,1.77779c0.10916,0.38064 0.18115,0.7315 0.22934,1.04266c0.04108,0.26506 0.06088,0.48161 0.06937,0.64267c0.00708,0.13499 0.00519,0.09715 0,-0.02607c-0.0094,-0.2229 -0.03064,-0.55962 -0.06937,-1.02401c-0.05057,-0.6071 -0.1239,-1.37065 -0.22934,-2.304c-0.27542,-2.43834 -0.47925,-3.96129 -0.71347,-5.66755c-0.2554,-1.86064 -0.54422,-3.84364 -0.87201,-5.91734c-0.33804,-2.13851 -0.69702,-4.31021 -1.112,-6.47733c-0.81079,-4.23426 -1.28925,-6.22987 -1.76828,-8.13748c-0.45847,-1.82568 -0.93774,-3.55788 -1.41602,-5.2c-0.4537,-1.5578 -0.90775,-3.02244 -1.336,-4.4c-0.77386,-2.48928 -1.11597,-3.59918 -1.41748,-4.62222c-0.27484,-0.93259 -0.51517,-1.77756 -0.728,-2.53334c-0.18768,-0.66647 -0.34476,-1.24568 -0.48801,-1.73333c-0.20944,-0.71298 -0.26074,-0.9559 -0.35556,-1.05719c-0.03046,-0.03254 -0.06104,0.06677 -0.04532,0.272c0.02536,0.33105 0.09521,0.7925 0.19467,1.392c0.27332,1.64734 0.48087,2.69873 0.70398,3.88741c0.24384,1.29903 0.50562,2.68269 0.76801,4.128c0.26865,1.47972 0.53607,2.96929 0.76801,4.448c0.4404,2.80772 0.58261,4.10181 0.71585,5.31674c0.12613,1.15015 0.23123,2.2508 0.36801,3.30933c0.13367,1.03458 0.28177,2.05998 0.52798,3.06934c0.51166,2.09754 0.95587,3.16848 1.41986,4.27141c0.47729,1.13454 1.01627,2.26631 1.57065,3.39999c0.55261,1.13004 1.12091,2.2328 1.65067,3.32c0.99524,2.04254 1.40512,2.99681 1.76593,3.88741c0.32953,0.81343 0.60168,1.55273 0.84268,2.2c0.20468,0.54975 0.33704,1.01398 0.52267,1.32c0.18106,0.29845 0.31375,0.20856 0.36264,0.00948c0.0737,-0.30006 0.0932,-0.70372 0.11469,-1.18134c0.02426,-0.5393 0.03128,-1.12531 0.03467,-1.74133c0.00693,-1.25865 0.00235,-1.87496 0.00235,-2.49125c0,-0.63408 0,-1.3037 0,-2.02667c0,-0.79407 0,-1.67704 0,-2.66666c0,-2.37038 0.00391,-3.779 -0.00711,-5.31912c-0.01175,-1.6433 -0.03683,-3.36163 -0.10397,-5.12533c-0.06784,-1.78248 -0.15326,-3.55718 -0.34402,-5.28534c-0.35794,-3.24246 -0.69571,-4.69131 -1.05954,-6.01837c-0.33884,-1.23598 -0.7395,-2.36408 -1.15201,-3.4c-0.38498,-0.96686 -0.79504,-1.8478 -1.15201,-2.68c-0.64258,-1.49809 -0.8826,-2.19405 -1.05954,-2.85629c-0.16522,-0.61842 -0.27441,-1.20735 -0.34399,-1.76c-0.06476,-0.51434 -0.09354,-0.99536 -0.10397,-1.44001c-0.0184,-0.78203 -0.00711,-1.11911 -0.00711,-1.41511c0,-0.24977 0,-0.448 0,-0.58933c0,-0.07911 0,-0.09067 0,-0.02933c0,0.36266 -0.0051,0.67311 0.01184,1.06666c0.02026,0.47241 0.06744,1.01938 0.17334,1.62934c0.11768,0.67787 0.28693,1.41867 0.5733,2.18933c0.6434,1.73125 1.19858,2.61441 1.77304,3.5603c0.61539,1.01324 1.31412,2.06905 2.02402,3.21333c0.75311,1.214 1.5433,2.50653 2.26401,3.93333c1.5647,3.09787 2.19565,4.87719 2.82547,6.72237c0.64316,1.88419 1.20761,3.80498 1.72534,5.71467c0.50348,1.85707 0.94202,3.64128 1.32535,5.31467c0.65656,2.86624 0.88013,4.01223 1.07614,4.96593c0.16229,0.78974 0.29031,1.44251 0.41333,1.97866c0.10318,0.44976 0.2012,0.83867 0.33331,1.17867c0.26642,0.68557 0.48517,1.04762 0.71347,1.43881c0.2384,0.40844 0.49603,0.81277 0.76804,1.19733c0.25937,0.36676 0.50336,0.70554 0.76801,0.95734c0.38943,0.37052 0.59879,0.41866 0.70636,0.33186c0.1405,-0.1134 0.18851,-0.40364 0.22934,-0.77068c0.05331,-0.47928 0.06277,-1.0826 0.06934,-1.81065c0.01672,-1.85593 0.00729,-2.99054 0,-4.24771c-0.00787,-1.36031 -0.02509,-2.80436 -0.06934,-4.312c-0.04556,-1.55256 -0.10568,-3.13114 -0.22934,-4.71199c-0.24304,-3.10678 -0.46786,-4.592 -0.71112,-6.03497c-0.23938,-1.41998 -0.52817,-2.82002 -0.83731,-4.216c-0.31183,-1.40822 -0.65707,-2.83343 -0.99734,-4.296c-0.71481,-3.07241 -1.06647,-4.70567 -1.4151,-6.39052c-0.35486,-1.71485 -0.69632,-3.4438 -1.03201,-5.16533c-0.33035,-1.69418 -0.6442,-3.34327 -0.952,-4.92534c-0.56232,-2.8903 -0.82031,-4.16173 -1.0643,-5.30963c-0.21863,-1.02862 -0.42145,-1.93784 -0.61334,-2.728c-0.1644,-0.67695 -0.30447,-1.24282 -0.45334,-1.688c-0.19339,-0.57831 -0.29874,-0.73772 -0.35318,-0.70874c-0.09482,0.05047 -0.06299,0.31797 -0.04532,0.656c0.02423,0.46357 0.09171,1.05478 0.19467,1.776c0.26514,1.85686 0.47739,2.98895 0.70874,4.24534c0.25064,1.36117 0.53152,2.80498 0.83731,4.31199c0.31512,1.55318 0.64545,3.13116 0.99734,4.712c0.69144,3.10618 1.05539,4.58987 1.41986,6.02548c0.35452,1.39638 0.71997,2.75421 1.10132,4.07734c0.37494,1.30087 0.76364,2.57993 1.18134,3.83733c0.83182,2.50407 1.30386,3.74147 1.77304,4.98015c0.46771,1.23481 0.94662,2.45537 1.41599,3.664c0.46219,1.19019 0.91925,2.35572 1.33603,3.504c0.79575,2.19231 1.12241,3.24526 1.41748,4.25719c0.2811,0.96398 0.52121,1.88515 0.728,2.75733c0.19339,0.81569 0.35559,1.57621 0.48798,2.27733c0.22699,1.20208 0.29959,1.7029 0.36032,2.14045c0.05319,0.38328 0.09125,0.72266 0.11465,1.02666c0.0213,0.27681 0.03128,0.53627 0.03467,0.78667c0.0069,0.50959 0.00238,0.7831 0.00238,1.06194c0,0.27171 0,0.52385 0,0.744c0,0.1757 -0.04947,0.34399 0,0.34399c0.15881,0 0,-0.38815 0,-0.71348c0,-0.41068 0,-0.896 0,-1.44534c0,-0.60266 0,-1.248 0,-1.92533c0,-1.408 0,-2.1197 0,-2.83496c0,-0.72237 0,-1.45541 0,-2.20267c0,-0.76504 0,-1.55141 0,-2.36267c0,-1.7114 0,-2.61689 0,-3.55081c0,-0.95526 0,-1.92474 0,-2.90133c0,-0.9766 0,-1.94608 0,-2.90134c0,-1.8394 0,-2.71111 0,-3.55081c0,-0.81126 0,-1.59763 0,-2.36267c0,-0.74726 0,-1.48029 0,-2.20266c0,-1.42697 0,-2.13719 0,-2.84208c0,-0.69422 0,-1.37244 0,-2.02933c0,-0.63023 0,-1.22845 0,-1.78933c0,-0.98845 0,-1.40504 0,-1.76119c0,-0.28859 0,-0.50252 0,-0.63467c0,-0.04326 0,0.00948 0,0.16534c0,0.64948 0,1.15763 0,1.79911c0,0.7837 0,1.71852 0,2.81333c0,1.2637 0,2.70519 0,4.33334c0,3.85185 0,6.08326 0,8.47644c0,2.50341 0,5.06548 0,7.63466c0,2.52474 0,4.95349 0,7.23467c0,3.91348 0,5.4557 0,6.72237c0,1.01778 0,1.81333 0,2.41333c0,0.43112 0,0.72 0,0.89334c0,0.10666 -0.00012,0.0847 0.00473,0.00237c0.00986,-0.16779 0.03183,-0.44576 0.06934,-0.85867c0.05206,-0.57321 0.12677,-1.33121 0.22934,-2.29866c0.28253,-2.66501 0.48251,-4.39897 0.70874,-6.37156c0.24829,-2.16491 0.51785,-4.4754 0.80267,-6.88533c0.29114,-2.46355 0.58585,-4.93424 0.88266,-7.36534c0.55688,-4.56119 0.81836,-6.60697 1.05954,-8.48592c0.22113,-1.72281 0.42758,-3.29944 0.61334,-4.74133c0.16971,-1.31723 0.32593,-2.52019 0.45334,-3.62134c0.22369,-1.93305 0.29861,-2.78805 0.35791,-3.57689c0.05469,-0.72766 0.09146,-1.40074 0.11469,-2.024c0.02155,-0.57854 0.03122,-1.1182 0.03467,-1.624c0.00638,-0.93153 0.00235,-1.36711 0.00235,-1.78489c0,-0.4 0,-0.78222 0,-1.14666c0,-0.34667 0,-0.67556 0,-0.98667c0,-0.56889 0,-0.82578 0,-1.05956c0,-0.20533 0,-0.37688 0,-0.50933c0,-0.088 0,-0.12622 0,-0.10933c0,0.22044 0,0.43259 0,0.70874c0,0.33303 0,0.71585 0,1.14133c0,0.46104 0,0.95052 0,1.46134c0,1.05718 0,1.592 0,2.1357c0,0.56148 0,1.14963 0,1.77333c0,0.66815 0,1.38963 0,2.17333c0,1.78963 0,2.80978 0,3.90638c0,1.16059 0,2.37274 0,3.62399c0,1.27793 0,2.57008 0,3.86401c0,2.5434 0,3.76918 0,4.95407c0,1.13867 0,2.22578 0,3.256c0,0.968 0,1.86844 0,2.696c0,1.41511 0,1.99378 0,2.48889c0,0.41689 0,0.76089 0,1.03733c0,0.21423 0,0.37156 0,0.47734c0,0.07822 0,0.05837 0,-0.00949c0,-0.12829 0,-0.32948 0,-0.61599c0,-0.3843 0,-0.87882 0,-1.496c0,-1.65215 0.00125,-2.70638 -0.00235,-3.89926c-0.00397,-1.31023 -0.0126,-2.7165 -0.03467,-4.19733c-0.02286,-1.53429 -0.05289,-3.10086 -0.11469,-4.67734c-0.12155,-3.10143 -0.23361,-4.58466 -0.35318,-6.00888c-0.11429,-1.36157 -0.24664,-2.65296 -0.384,-3.86934c-0.12842,-1.13738 -0.26144,-2.18851 -0.384,-3.14933c-0.20773,-1.62855 -0.2915,-2.28771 -0.35318,-2.85156c-0.05231,-0.47798 -0.09042,-0.88157 -0.11465,-1.22133c-0.02039,-0.28607 -0.03119,-0.52973 -0.03467,-0.74133c-0.0061,-0.36974 -0.00085,-0.5473 -0.00476,-0.72297c-0.00378,-0.17219 -0.01144,-0.33962 -0.03467,-0.49866c-0.02209,-0.1516 -0.05042,-0.29746 -0.11465,-0.41867c-0.11975,-0.22599 -0.23593,-0.31255 -0.35791,-0.33185c-0.13187,-0.02087 -0.30011,0.06261 -0.45334,0.232c-0.21011,0.23231 -0.41354,0.60741 -0.61334,1.112c-0.56207,1.41974 -0.78186,2.41361 -1.05954,3.53422c-0.30463,1.22947 -0.59622,2.5445 -0.88269,3.90933c-0.28961,1.38007 -0.56082,2.74697 -0.80261,4.06934c-0.43384,2.37254 -0.58676,3.37209 -0.70877,4.24296c-0.10583,0.75537 -0.18164,1.41218 -0.22931,1.984c-0.04169,0.49972 -0.06241,0.94331 -0.06937,1.344c-0.0126,0.72998 -0.00034,1.08576 -0.01187,1.44119c-0.01157,0.35577 -0.03693,0.7133 -0.10394,1.06666c-0.06796,0.35825 -0.16791,0.72319 -0.34402,1.06667c-0.38004,0.74122 -0.71729,1.0744 -1.05954,1.42222c-0.35803,0.36383 -0.75378,0.71111 -1.15201,1.06667c-0.39822,0.35555 -0.80002,0.697 -1.15201,1.06666c-0.6532,0.68599 -0.88348,1.05771 -1.05954,1.41986c-0.1665,0.34248 -0.27527,0.69183 -0.34399,1.032c-0.06595,0.32644 -0.09366,0.64622 -0.104,0.952c-0.0192,0.56624 -0.009,0.82344 -0.00476,1.05718c0.00372,0.20538 0.00595,0.37879 0.03467,0.50934c0.01978,0.08989 0.07288,0.14164 0.11469,0.10933c0.20862,-0.16117 0.2446,-0.43239 0.36029,-0.71348c0.14133,-0.34334 0.2991,-0.74983 0.48801,-1.21067c0.21146,-0.51585 0.44781,-1.08328 0.728,-1.69067c0.62488,-1.35457 1.01224,-2.07708 1.41986,-2.84207c0.43015,-0.80725 0.89355,-1.65091 1.37067,-2.54133c0.49957,-0.93234 1.01962,-1.90794 1.53064,-2.94134c1.08557,-2.19529 1.60342,-3.38423 2.12625,-4.61511c0.53638,-1.26271 1.05685,-2.56211 1.56531,-3.888c0.51331,-1.33842 1.01065,-2.68971 1.48535,-4.048c0.93906,-2.68686 1.36005,-4.01463 1.77539,-5.30963c0.40234,-1.25437 0.77988,-2.46119 1.14667,-3.60533c0.34448,-1.07449 0.66025,-2.07123 0.98666,-2.96533c0.54352,-1.48863 0.8121,-2.04979 1.06668,-2.496c0.21039,-0.36878 0.42004,-0.65276 0.61334,-0.872c0.16345,-0.18539 0.33105,-0.32264 0.45331,-0.472c0.23615,-0.28853 0.30212,-0.49756 0.35794,-0.72059c0.05917,-0.23643 0.09177,-0.48552 0.11465,-0.73334c0.022,-0.23819 0.03101,-0.45921 0.03467,-0.65333c0.00513,-0.27255 0.01749,-0.35082 0.00238,-0.35082c-0.02756,0 0,0.09245 0,0.18934c0,0.12355 0,0.26844 0,0.42933c0,0.34845 0,0.52859 0,0.72296c0,0.22282 0,0.4883 0,0.81067c0,0.39348 0,0.87229 0,1.45066c0,1.5123 0.00595,2.47121 -0.01184,3.56504c-0.01987,1.22209 -0.06546,2.56594 -0.17334,4.02134c-0.116,1.56477 -0.28064,3.23263 -0.57333,4.98133c-0.63196,3.77577 -1.18814,5.75275 -1.76593,7.7843c-0.58926,2.0719 -1.25104,4.14037 -1.92001,6.19733c-0.65854,2.0248 -1.32816,3.98344 -1.91995,5.87733c-1.07675,3.44563 -1.46384,4.98243 -1.77066,6.38578c-0.27875,1.27461 -0.47833,2.44519 -0.64267,3.51467c-0.15039,0.97864 -0.25589,1.88394 -0.40268,2.71467c-0.26752,1.51386 -0.48056,2.20638 -0.71823,2.86103c-0.22989,0.6332 -0.49719,1.22799 -0.76797,1.79466c-0.26041,0.54498 -0.53271,1.05589 -0.76801,1.55467c-0.43362,0.91924 -0.58899,1.3591 -0.70639,1.78014c-0.11075,0.39719 -0.18323,0.78115 -0.22931,1.14668c-0.04361,0.34581 -0.06241,0.67542 -0.06937,0.98666c-0.01263,0.56878 -0.00476,0.82549 -0.00476,1.05719c0,0.1997 0,0.36031 0,0.47467c0,0.06104 0,0.06163 0,-0.00534c0,-0.36503 -0.00305,-0.67503 0.00711,-1.06666c0.01218,-0.46652 0.03995,-1.00128 0.104,-1.59467c0.0701,-0.64896 0.16827,-1.34734 0.34402,-2.07468c0.37918,-1.56917 0.71231,-2.36999 1.06665,-3.19289c0.36877,-0.85639 0.79849,-1.72583 1.25601,-2.62133c0.47385,-0.92744 0.98419,-1.8755 1.496,-2.86133c1.06927,-2.05958 1.59723,-3.14462 2.12146,-4.25245c0.52707,-1.11381 1.03592,-2.22941 1.53067,-3.33067c0.48178,-1.07241 0.93719,-2.10798 1.37067,-3.09066c0.77698,-1.76142 1.11209,-2.52053 1.42697,-3.19763c0.28525,-0.6134 0.55643,-1.17037 0.832,-1.67467c0.26062,-0.47692 0.53107,-0.92894 0.832,-1.35466c0.62555,-0.88497 1.01926,-1.32318 1.42459,-1.792c0.42477,-0.49131 0.87653,-0.99393 1.336,-1.52c0.47214,-0.54056 0.95444,-1.09387 1.41599,-1.68c0.93887,-1.19227 1.36185,-1.83323 1.76831,-2.48178c0.40366,-0.64406 0.77441,-1.29671 1.112,-1.94933c0.32831,-0.63473 0.62561,-1.2579 0.87201,-1.86934c0.45139,-1.12012 0.59381,-1.64456 0.71585,-2.13096c0.11386,-0.45375 0.19489,-0.88602 0.26398,-1.296c0.06592,-0.39125 0.11536,-0.77048 0.18402,-1.136c0.13498,-0.71869 0.24002,-1.07266 0.35791,-1.41985c0.11572,-0.34088 0.24597,-0.66373 0.384,-0.96267c0.12787,-0.27697 0.25098,-0.52425 0.384,-0.72267c0.19324,-0.28823 0.29105,-0.36727 0.35318,-0.34844c0.06409,0.01942 0.09442,0.14117 0.11469,0.29333c0.0271,0.20345 0.03137,0.46219 0.03467,0.77334c0.00827,0.78218 0.00476,1.25395 -0.00238,1.78251c-0.00793,0.58909 -0.02673,1.24243 -0.06934,1.96267c-0.04684,0.79215 -0.1156,1.65961 -0.22934,2.60267c-0.25836,2.14201 -0.4761,3.33592 -0.70874,4.59851c-0.2417,1.31174 -0.513,2.64664 -0.80267,3.984c-0.28638,1.32221 -0.57852,2.6051 -0.88266,3.824c-0.54407,2.1805 -0.81335,3.09551 -1.05954,3.89926c-0.2168,0.70777 -0.42487,1.32565 -0.61334,1.86933c-0.1673,0.48263 -0.328,0.91176 -0.45334,1.30934c-0.22797,0.72324 -0.29736,1.08237 -0.36267,1.43644c-0.06442,0.34937 -0.11569,0.69553 -0.18399,1.032c-0.06693,0.32967 -0.13684,0.65479 -0.26401,0.952c-0.25064,0.58577 -0.47339,0.83603 -0.70874,1.05719c-0.23248,0.21846 -0.49374,0.39614 -0.76801,0.50933c-0.25851,0.1067 -0.53262,0.1764 -0.76797,0.10934c-0.4538,-0.12931 -0.60052,-0.42564 -0.70639,-0.72534c-0.12848,-0.36364 -0.18695,-0.83099 -0.22934,-1.384c-0.04974,-0.64888 -0.06268,-1.40262 -0.06931,-2.264c-0.0159,-2.06928 -0.00476,-3.28326 -0.00476,-4.59852c0,-1.39348 0,-2.84207 0,-4.32266c0,-1.48948 0,-2.96474 0,-4.40267c0,-2.67141 0,-3.86489 0,-4.96592c0,-1.02282 0,-1.98163 0,-2.89067c0,-0.87348 0,-1.72563 0,-2.57067c0,-1.72563 0.00153,-2.62904 -0.00235,-3.54844c-0.00385,-0.91586 -0.01108,-1.80873 -0.03467,-2.65867c-0.02185,-0.78801 -0.03732,-1.4968 -0.11469,-2.09867c-0.10706,-0.83295 -0.23291,-1.07333 -0.35556,-1.06429c-0.14871,0.01096 -0.27753,0.2556 -0.41867,0.53333c-0.17169,0.33787 -0.32761,0.74031 -0.49866,1.17333c-0.35547,0.89985 -0.52844,1.33838 -0.71112,1.76119c-0.18063,0.41809 -0.37024,0.83289 -0.56799,1.25067c-0.20282,0.42847 -0.41922,0.86978 -0.64798,1.33066c-0.49817,1.00366 -0.77643,1.55254 -1.0643,2.13571c-0.30124,0.61028 -0.61017,1.24524 -0.91733,1.904c-0.314,0.67337 -0.62662,1.3603 -0.91736,2.064c-0.58255,1.41001 -0.82703,2.12607 -1.06427,2.83259c-0.2326,0.69265 -0.44327,1.37244 -0.64801,2.02933l-0.19586,0.63022l-0.18872,0.59823l-0.18341,0.56088" stroke="#bf5f00"/> <path fill="none" stroke="#0009bc" stroke-width="5" stroke-dasharray="null" stroke-linejoin="null" stroke-linecap="null" id="svg_18" d="m195.16051,140.24692c0,2.48889 -0.05602,3.55927 0.01897,4.26666c0.07626,0.71938 0.65971,1.56467 1.13185,2.31111c0.53943,0.85281 0.55615,1.65469 1.02075,2.48889c0.43216,0.77596 1.03023,1.24504 1.73955,1.95557c0.53288,0.53377 1.39923,1.44699 1.96356,1.94756c0.56737,0.50325 1.5291,0.97151 2.38875,1.16681c0.58615,0.13318 1.5596,0.25061 2.10457,1.09778c0.46336,0.72026 0.46835,1.77766 1.08563,2.50401c0.61403,0.72249 1.5228,1.24063 2.33659,0.41956c0.46315,-0.46729 0.36853,-1.45355 0.39407,-1.94221c0.05681,-1.08704 0.03793,-2.28978 0.03793,-2.92001c0,-1.29242 0,-1.944 0,-2.592c0,-0.63911 -0.00134,-1.86932 0,-3c0.00119,-1.00978 -0.00752,-1.48859 0.03702,-2.44444c0.04794,-1.02846 0.1024,-1.5961 0.25926,-2.88889c0.09041,-0.74518 0.20712,-1.54608 0.33867,-2.38934c0.13617,-0.87291 0.28619,-1.75966 0.45065,-2.64531c0.16214,-0.87318 0.31404,-1.72206 0.69215,-3.26164c0.16682,-0.67923 0.34215,-1.29163 0.53334,-1.83734c0.33243,-0.94887 0.66693,-1.73067 1.24445,-2.60709c0.49657,-0.75357 1.06679,-1.3439 1.77777,-2.07407c0.69228,-0.71099 1.24954,-1.19399 1.62845,-2.13333c0.27577,-0.68367 0.45831,-1.67629 1.07526,-2.27407c0.76077,-0.73713 1.77173,-1.07388 2.33334,-0.33334c0.42119,0.55542 0.28682,1.51455 0.2963,2.66666c0.00618,0.75198 0.00029,1.53601 0,2.17126c-0.0006,1.26311 -0.02098,2.3739 -0.07585,3.01512c-0.06021,0.70366 -0.16335,1.47049 -0.33066,2.29599c-0.18208,0.89841 -0.76216,2.89398 -1.168,3.98814c-0.4323,1.16547 -0.94147,2.36731 -1.48801,3.60268c-0.55908,1.26373 -1.15039,2.52995 -1.744,3.79466c-0.58684,1.25023 -1.71652,3.64861 -2.22755,4.77927c-0.4843,1.07153 -0.92886,2.0882 -1.33333,3.04799c-0.37747,0.89575 -0.71577,1.73093 -1.01334,2.50401c-0.27092,0.70386 -0.6971,1.91078 -0.85452,2.41066c-0.136,0.43187 -0.23978,0.8067 -0.34132,1.12267c-0.08638,0.26878 -0.16644,0.49858 -0.27734,0.67467c-0.09967,0.15825 -0.4014,0.38084 -0.5997,0.45126c-0.21907,0.0778 -0.4677,0.11809 -0.9908,0.2157c-0.7691,0.14349 -1.67087,0.61682 -1.77304,1.42459c-0.11125,0.87952 -0.34172,1.85208 0.05214,2.80415c0.22845,0.55225 1.47241,0.4792 2.24948,0.24652c0.89987,-0.26945 1.38205,-0.44383 2.73068,-1.216c0.44727,-0.2561 1.2659,-0.86594 1.63556,-1.20889c0.73723,-0.68399 1.38924,-1.4691 1.92,-2.34665c0.54509,-0.90132 0.74576,-1.41252 0.98134,-1.92c0.49435,-1.06497 0.74452,-1.63174 1.03822,-2.20445c0.62572,-1.22009 1.01308,-1.84396 1.42459,-2.48651c0.42621,-0.66554 0.88747,-1.33719 1.37067,-2.01866c0.49333,-0.69579 1.00679,-1.39452 1.53064,-2.09868c1.05832,-1.42255 1.60028,-2.12906 2.1286,-2.85629c0.53848,-0.74118 1.07837,-1.51428 1.59999,-2.34132c0.5457,-0.86522 1.09175,-1.79695 1.60002,-2.82132c1.12273,-2.26283 1.61325,-3.5791 2.12859,-4.96594c0.53654,-1.44388 1.04282,-2.94336 1.53067,-4.472c0.48878,-1.53156 0.94728,-3.05557 1.37067,-4.55199c0.79594,-2.81322 1.11861,-4.10751 1.42459,-5.31437c0.28584,-1.12743 0.54413,-2.18399 0.79733,-3.17067c0.23767,-0.92617 0.46201,-1.7987 0.71735,-2.61067c0.47491,-1.51019 0.76588,-2.19852 1.06667,-2.8397c0.28157,-0.60017 0.57324,-1.13715 0.88266,-1.58667c0.26918,-0.39104 0.51138,-0.74335 0.80267,-0.86666c0.3902,-0.16517 0.60799,0.07994 0.70399,0.36266c0.12822,0.37759 0.15869,0.891 0.16,1.504c0.00153,0.71964 -0.0542,1.54371 -0.16,2.464c-0.2453,2.13346 -0.47029,3.32825 -0.70874,4.60089c-0.25113,1.34026 -0.54265,2.73048 -0.87199,4.15733c-0.33653,1.45802 -0.70023,2.9304 -1.112,4.39733c-0.81654,2.90885 -1.29424,4.30555 -1.76593,5.66517c-0.45776,1.31947 -0.92664,2.58229 -1.38133,3.78935c-0.43196,1.14667 -0.85248,2.22081 -1.22134,3.22931c-0.64563,1.76521 -0.88089,2.52484 -1.06667,3.20239c-0.164,0.59813 -0.28328,1.13231 -0.37866,1.60532c-0.08435,0.41833 -0.14197,0.79382 -0.21866,1.12535c-0.13474,0.58257 -0.24162,0.83992 -0.36031,1.07852c-0.11511,0.23143 -0.24918,0.44461 -0.384,0.64798c-0.13074,0.19719 -0.26744,0.38104 -0.38399,0.56799c-0.21918,0.35155 -0.29207,0.53444 -0.35794,0.71112c-0.06384,0.17123 -0.1154,0.34123 -0.18399,0.49866c-0.06676,0.15321 -0.14297,0.30531 -0.26401,0.41867c-0.26265,0.246 -0.48387,0.29886 -0.70874,0.35794c-0.2422,0.06363 -0.50308,0.10112 -0.76799,0.14934c-0.76974,0.14012 -1.54239,0.65358 -1.92474,1.42459c-0.43544,0.87807 -1.25606,1.21857 -1.47911,0.44324c-0.22675,-0.78812 -0.11893,-1.3492 -0.13274,-1.97214c-0.01585,-0.71518 -0.01778,-1.52652 -0.01897,-3.45126c-0.00069,-1.11702 0,-2.32297 0,-3.60001c0,-1.33037 0,-2.69629 0,-4.07999c0,-1.38371 -0.00032,-2.74963 0,-5.35704c0.00015,-1.21008 -0.00056,-2.35617 0.008,-3.44534c0.00818,-1.03943 0.02313,-2.03633 0.056,-2.99733c0.03191,-0.93295 0.06245,-1.84637 0.2323,-3.63141c0.08461,-0.88927 0.20392,-1.77132 0.33066,-2.64265c0.1246,-0.85669 0.26106,-1.69081 0.39467,-2.49867c0.12836,-0.77614 0.2648,-1.51264 0.45985,-2.85867c0.08627,-0.59531 0.14903,-1.14209 0.19467,-1.64265c0.04169,-0.45713 0.06763,-0.87573 0.08266,-1.25867c0.01376,-0.35072 0.01778,-0.67319 0.01897,-1.24682c0.00053,-0.25748 0,-0.49541 0,-0.71201c0,-0.19348 -0.00792,-0.38498 -0.03702,-0.36208c-0.86813,0.68351 -0.47032,1.65103 -0.75703,2.33985c-0.35274,0.84739 -0.57803,1.33437 -1.28,3.17867c-0.28224,0.74156 -0.56543,1.54502 -0.864,2.38933c-0.3083,0.87183 -0.61685,1.75906 -0.92801,2.64533c-0.30632,0.87252 -0.59576,1.72023 -1.17096,3.26164c-0.25323,0.67856 -0.49644,1.29102 -0.72801,1.84531c-0.21201,0.50751 -0.41081,0.97389 -0.80475,1.79675c-0.52887,1.10475 -0.90071,1.80444 -1.23346,2.50195c-0.31645,0.66327 -0.66789,1.26369 -0.93394,2.35614c-0.20212,0.82996 -0.15169,1.93184 -0.15169,2.70459c0,0.94341 0,1.80742 0,2.4249c0,0.91733 0,1.98163 0,2.82549c0,1.08562 -0.06531,1.79889 0.00237,2.86102c0.05061,0.79425 0.80098,1.47284 1.42223,1.27052c0.98044,-0.31929 1.51123,-1.1707 1.92711,-1.87733c0.5363,-0.91122 0.77986,-1.49651 1.0643,-2.12622c0.30493,-0.67506 0.60991,-1.39249 0.91733,-2.13867c0.31367,-0.76137 0.6208,-1.53116 0.91734,-2.29866c0.57054,-1.47664 0.81149,-2.17706 1.30815,-3.46045c0.23206,-0.59969 0.44177,-1.18526 0.99199,-2.22696c0.26625,-0.50406 0.90097,-1.44913 1.70341,-2.27704c0.40735,-0.42026 0.85529,-0.80208 1.74458,-1.55496c0.4348,-0.36812 1.6451,-1.42812 1.96889,-1.79674c0.60419,-0.68782 1.08116,-1.40026 1.38133,-2.13333c0.42595,-1.04025 0.56706,-2.13195 0.61394,-2.84444c0.04672,-0.71017 0.03703,-1.77778 0.03703,-2.82045c0,-0.624 0,-1.60977 0,-0.73512c0,0.74905 0.00575,1.44772 -0.00029,2.74342c-0.00395,0.84565 -0.00624,1.31528 -0.06372,2.33629c-0.03093,0.54946 -0.22385,2.32909 -0.33066,2.95941c-0.11096,0.65459 -0.25349,1.33369 -0.43733,2.03734c-0.19371,0.74141 -0.4339,1.51643 -0.72534,2.32533c-0.30994,0.86029 -1.10016,2.71368 -1.57837,3.71112c-0.50037,1.04375 -1.04471,2.10143 -1.60268,3.16533c-0.55435,1.05699 -1.10794,2.08304 -1.63466,3.06934c-0.49484,0.92662 -1.33849,2.53758 -1.65216,3.20119c-0.2659,0.56253 -0.47203,1.04689 -0.62666,1.46399c-0.13179,0.35551 -0.22678,0.67036 -0.30666,0.95201c-0.07408,0.26123 -0.33008,1.04915 -0.68652,1.98488c-0.27022,0.70935 -0.56975,1.48274 -0.80562,2.79941c-0.08311,0.464 -0.16348,1.42889 -0.19705,2.40593c-0.01665,0.48457 -0.01897,1.88208 -0.01897,2.73541c0,0.78221 0,1.49333 0,2.70222c0,0.728 0,1.53273 0,2.60741c0,0.71112 0,1.77777 0,2.48888c0,1.06668 0.09668,1.78294 -0.008,2.83647c-0.07503,0.75519 -1.02303,1.15181 -1.5683,0.64325c-0.90523,-0.84431 -1.07304,-1.422 -1.36978,-1.95468c-0.32765,-0.58815 -0.65465,-1.24721 -0.98399,-1.97066c-0.35336,-0.7762 -0.71838,-1.60999 -1.40326,-3.46547c-0.36815,-0.99742 -0.71271,-2.04196 -1.05867,-3.10933c-0.34859,-1.07547 -0.6824,-2.14984 -1.01067,-3.20535c-0.31824,-1.0233 -0.60872,-2.00539 -1.18993,-3.7594c-0.25146,-0.75885 -0.49423,-1.43303 -0.72,-2.032c-0.20129,-0.53395 -0.3907,-1.0052 -0.56001,-1.42401c-0.15073,-0.37288 -0.33597,-0.69002 -0.57808,-1.54222c-0.22844,-0.80414 -0.21599,-0.81659 -0.21599,0.25749c0,0.56888 0,1.55556 0,2.30223c0,1.25333 0,1.70694 0,2.67467c0,1.06012 0,1.62932 0,2.22696c0,0.62785 0,2.70874 0,3.4628c0,0.77185 0,1.55261 0,2.33334c0,0.77185 0,1.52591 0,2.25333c0,1.33926 0,2.48889 0,3.00592c0,0.96298 0,1.89038 0,2.36296c0,1.55734 0,2.13571 0,2.73541c0,1.23495 0,1.856 0,2.46992c0,1.728 0,2.24266 0,3.144c0,0.952 0,0.90222 0,0.24089c0,-0.93155 0,-1.48534 0,-3.43466c0,-0.72859 0,-1.49097 0,-2.28534c0,-0.82458 0,-1.67763 0,-2.55733c0,-0.9046 0,-1.83231 0,-3.74994c0,-0.98547 0,-1.98163 0,-2.98132c0,-0.99615 0,-1.98163 0,-2.94934c0,-0.94281 0,-1.85362 0,-3.55081c0,-0.77512 0,-1.50755 0,-2.20799c0,-0.67911 0,-1.34755 0,-2.01601c0,-0.67911 0,-1.37956 0,-2.88712c0,-0.82666 0,-1.70667 0,-2.64c0,-0.98666 0,-2.02666 0,-3.12c0,-1.14668 0,-2.34666 0,-4.90666c0,-1.35675 0,-2.74727 0,-4.15201c0,-1.39941 0,-2.77393 0,-4.104c0,-1.26608 -0.00037,-2.44859 0,-4.48474c0.00015,-0.82104 -0.00119,-1.51945 0.00801,-2.11467c0.00789,-0.51176 0.02251,-0.95989 0.056,-1.36266c0.03148,-0.37894 0.07651,-0.7535 0.2323,-1.55972c0.09093,-0.47063 0.2076,-0.98212 0.33867,-1.52534c0.13663,-0.56618 0.28621,-1.14267 0.45064,-1.71732c0.16217,-0.5667 0.31149,-1.11967 0.69215,-2.09068c0.16592,-0.42322 0.34563,-0.79265 0.53334,-1.10934c0.16899,-0.2851 0.34703,-0.528 0.53333,-0.72533c0.1703,-0.1804 1.29791,-0.63728 1.95555,-1.02726c0.79623,-0.47214 1.26149,-1.35619 1.664,-1.976c0.44116,-0.6793 0.9234,-1.40077 1.50993,-2.09303c0.6033,-0.71205 1.28069,-1.37038 1.63408,-1.67852c1.03377,-0.90137 1.76012,-1.38803 2.48088,-1.81541c0.70204,-0.41627 1.42517,-0.76692 2.48859,-1.30874c0.70538,-0.35941 1.4117,-0.71003 2.03201,-1.168c0.91386,-0.67469 1.3824,-1.29034 1.85333,-1.91793c0.49654,-0.66171 1.008,-1.38942 1.68533,-2.06934c0.7388,-0.74158 1.18401,-1.06199 2.03703,-1.74074c0.41501,-0.33021 1.28722,-0.85759 2.056,-1.77718c0.55455,-0.66336 0.6998,-1.4838 1.04149,-2.77986c0.10564,-0.40067 0.35582,-1.24986 0.69185,-2.08148c0.31531,-0.78035 1.0477,-1.83941 1.58104,-2.28741c0.53333,-0.44799 1.25557,-1.51199 1.59999,-2.2874c0.18376,-0.4137 0.48703,-1.2886 1.06667,-2.45333c0.32753,-0.65815 0.91475,-1.36829 1.27052,-2.01009c0.5452,-0.98351 0.50569,-1.23969 0.40562,-0.57275c-0.16595,1.10603 -0.40388,2.09018 -0.53334,2.65067c-0.13828,0.59866 -0.28883,1.22897 -0.61749,2.56356c-0.17102,0.6945 -0.52368,2.10975 -0.70398,2.82162c-0.18233,0.71983 -0.37271,1.45473 -0.58932,2.208c-0.22581,0.78522 -0.48204,1.60534 -0.78134,2.464c-0.31883,0.91465 -1.10976,2.91526 -1.58636,4.01096c-0.50197,1.15401 -1.04546,2.33435 -1.60268,3.528c-0.55511,1.18917 -1.10811,2.3485 -1.63466,3.464c-0.49501,1.04868 -1.33838,2.86871 -1.65186,3.61185c-0.2637,0.62514 -0.4669,1.15305 -0.608,1.59734c-0.11563,0.36413 -0.18874,0.66948 -0.224,0.92532c-0.02982,0.21632 -0.04968,0.59032 -0.03111,0.76563c0.05675,0.53581 0.89653,0.12772 1.53511,-0.58636c0.42261,-0.4726 0.89899,-1.03719 1.464,-1.66399c0.63625,-0.70583 1.35394,-1.48394 2.18401,-2.304c1.89749,-1.87462 3.04283,-2.85234 4.25955,-3.91348c1.29691,-1.13107 2.68158,-2.31657 4.112,-3.59734c1.49977,-1.34286 3.0546,-2.76033 4.592,-4.31734c3.2478,-3.28922 4.80319,-5.15965 6.36919,-7.08028c1.58043,-1.93837 3.0956,-3.92134 4.55733,-5.89867c1.42273,-1.9246 2.7547,-3.79729 3.99734,-5.57867c2.19995,-3.15365 3.10666,-4.49656 3.90637,-5.66993c0.69638,-1.02176 1.29562,-1.90802 1.79999,-2.67733c0.4314,-0.65803 0.79538,-1.22186 1.08002,-1.71733c0.45499,-0.79195 0.60562,-1.13627 0.72769,-1.44119c0.10587,-0.26445 0.18002,-0.49656 0.22934,-0.69333c0.03989,-0.15911 0.06073,-0.28415 0.06934,-0.37333c0.00684,-0.07094 0.00507,-0.05331 0.00235,0c-0.00455,0.08895 -0.01462,0.21356 -0.03467,0.37333c-0.02457,0.19587 -0.05972,0.42763 -0.11465,0.69333c-0.13284,0.64254 -0.23773,1.01547 -0.36267,1.42697c-0.13882,0.45748 -0.3114,0.95998 -0.52264,1.50933c-0.2337,0.60772 -0.51038,1.27148 -0.84265,1.98934c-0.76425,1.651 -1.24976,2.56633 -1.77542,3.54132c-0.5531,1.02586 -1.14935,2.07755 -1.78931,3.13601c-0.64709,1.07027 -1.31329,2.12954 -2.02936,3.13599c-1.37387,1.93105 -2.11349,2.76772 -2.83731,3.55081c-0.69904,0.75626 -1.41779,1.45541 -2.13333,2.12801c-0.70676,0.66426 -1.4288,1.30495 -2.13336,1.96799c-1.43575,1.35112 -2.13773,2.08862 -2.84445,2.84682c-0.71558,0.76768 -1.41998,1.55462 -2.13333,2.33333c-0.70891,0.77388 -1.40732,1.54079 -2.13333,2.25334c-1.39423,1.36838 -2.12151,1.94888 -2.83496,2.47703c-0.67876,0.50247 -1.34833,0.93732 -1.99466,1.30667c-0.59656,0.3409 -1.15486,0.6264 -1.67467,0.82667c-0.83098,0.32013 -1.16733,0.38665 -1.41748,0.34844c-0.19646,-0.03002 -0.3461,-0.18418 -0.38934,-0.39733c-0.05684,-0.28021 -0.00063,-0.65851 0.09067,-1.11733c0.24348,-1.22377 0.47137,-1.97799 0.69928,-2.82548c0.24652,-0.91673 0.5162,-1.88053 0.80264,-2.872c0.28952,-1.00204 0.5822,-1.99364 0.88269,-2.952c0.55034,-1.75533 0.81282,-2.51144 1.0643,-3.18578c0.2269,-0.60842 0.45084,-1.15381 0.68265,-1.63998c0.21455,-0.44997 0.43765,-0.86359 0.68268,-1.24001c0.4803,-0.73791 0.77345,-1.08155 1.06665,-1.43171c0.29585,-0.35332 0.60458,-0.6966 0.91734,-1.032c0.30832,-0.33065 0.61638,-0.64761 0.91733,-0.952c0.56213,-0.56855 0.82292,-0.82362 1.06192,-1.06667c0.22316,-0.22694 0.42952,-0.4407 0.61334,-0.64799c0.1716,-0.1935 0.32849,-0.37872 0.45332,-0.56801c0.22942,-0.34783 0.2991,-0.53318 0.35793,-0.70874c0.05525,-0.16487 0.09077,-0.32182 0.11467,-0.464c0.02075,-0.12343 0.03047,-0.22627 0.03467,-0.30399c0.0036,-0.06631 0.007,-0.04624 -0.01186,0.00947c-0.15677,0.46329 -0.58382,1.00846 -0.896,1.36536c-0.83698,0.95681 -1.44821,1.50079 -2.12859,2.12858c-0.75099,0.69296 -1.57478,1.42601 -2.44267,2.208c-0.9052,0.81561 -1.83853,1.65246 -2.76266,2.528c-1.84729,1.75015 -2.70682,2.64999 -3.53423,3.53423c-0.80028,0.85524 -1.5493,1.69352 -2.25867,2.49333c-0.66772,0.75287 -1.2787,1.46191 -1.85867,2.09333c-0.98009,1.06698 -1.40369,1.46577 -1.78014,1.78014c-0.31596,0.26385 -0.5986,0.46072 -0.84268,0.60799c-0.20227,0.12206 -0.38332,0.2008 -0.52266,0.28801c-0.22751,0.14235 -0.50427,0.81699 -0.47734,0.56385c0.08636,-0.81151 0.35341,-2.06363 0.47261,-2.58104c0.12941,-0.56181 0.44809,-1.79084 0.64,-2.44622c0.19904,-0.67982 0.40474,-1.38035 0.92444,-2.78756c0.26418,-0.7153 0.56129,-1.42448 0.87199,-2.13333c0.3127,-0.71342 0.64365,-1.4236 0.98401,-2.13334c0.34169,-0.7125 0.6931,-1.42292 1.40326,-2.84444c0.35573,-0.71207 0.71416,-1.42905 1.09067,-2.14933c0.38432,-0.73521 0.79105,-1.48444 1.23466,-2.24533c0.46103,-0.79073 0.94788,-1.61554 2.11911,-3.30904c0.63245,-0.91447 1.32834,-1.83519 2.04265,-2.77067c0.71739,-0.9395 1.4393,-1.85859 2.13867,-2.75466c0.6683,-0.85624 1.31345,-1.64408 2.33719,-3.06726c0.41151,-0.57207 0.73245,-1.07192 0.98132,-1.49867c0.20503,-0.35157 0.35321,-0.6489 0.46933,-0.89067c0.09341,-0.1945 0.59071,-0.62611 1.28326,-1.06518c0.77611,-0.49206 1.21857,-1.32946 1.592,-1.848c0.67938,-0.9434 1.44643,-1.34404 2.13335,-1.65926c0.94496,-0.43364 1.33333,-0.87665 1.80324,-1.41037c0.95349,-1.08295 1.2952,-1.57861 1.69778,-2.09067c0.42764,-0.54394 1.33231,-1.68836 1.80624,-2.26133c0.47012,-0.56836 0.91986,-1.1342 1.8631,-2.09067c0.4245,-0.43046 1.25143,-1.13884 2.03705,-1.7037c0.36908,-0.26539 1.13321,-0.71022 2.17065,-1.53541c0.74283,-0.59086 1.10416,-0.95329 1.84149,-1.77185c0.40372,-0.44822 0.81714,-0.94413 1.65451,-2.10015c0.4624,-0.63834 0.91492,-1.32505 1.38132,-2.01867c0.4628,-0.6883 0.90201,-1.36101 1.34933,-1.97066c0.76514,-1.04277 1.81866,-1.87331 2.11438,-1.32741c0.38477,0.71029 0.17999,1.31722 0.19202,3.24267c0.00455,0.72827 0,1.48859 0,2.27733c0,0.81363 0,1.64859 0,2.50133c0,0.86696 0,1.74459 0,3.51763c0,0.88829 0,1.77304 0,2.65067c0,0.86695 0,1.7197 0,2.55466c0,0.81363 0,1.60237 0,3.09096c0,0.69393 0,1.35586 0,1.98934c0,0.60859 0,1.19585 0,1.76533c0,1.09985 0,2.17126 0,3.23792c0,0.53334 0,1.60001 0,2.13334c0,1.06666 0,2.13333 0,3.19526c0,0.52206 0,1.53067 0,2.46815c0,1.21067 -0.29453,2.39585 0,2.39585c0.81332,0 0,-1.59259 0,-2.47852c0,-0.46075 -0.01089,-1.80965 0.008,-2.64267c0.01825,-0.80507 0.04984,-1.61697 0.2883,-2.87881c0.17639,-0.93348 0.33762,-1.41964 0.59259,-2.48148c0.13644,-0.56831 0.31705,-1.15841 0.59259,-3.14815c0.10046,-0.72549 0.15125,-1.48583 0.19467,-2.26934c0.04446,-0.80231 0.06815,-1.61948 0.08264,-2.44533c0.01456,-0.82928 0.01779,-1.65689 0.01898,-3.28533c0.00058,-0.792 0,-1.57156 0,-2.344c0,-0.77067 0,-1.54489 0,-2.328c0,-0.79734 0,-1.61423 0,-3.328c0,-0.90489 0,-1.83467 0,-2.77867c0,-0.94756 0,-1.888 0,-2.81066c0,-0.89423 0,-1.74934 0,-3.29956c0,-0.67674 0,-1.28948 0,-1.84533c0,-0.50608 0,-0.96949 0,-1.79675c0,-1.09866 0.18253,-2.28385 0,-2.28385c-0.4234,0 0,1.61867 0,2.35141c0,0.79674 0,1.63792 0,2.504c0,0.87141 0,2.552 0,3.32681c0,0.73038 0,1.42519 0,2.09334c0,0.65037 0,1.29185 0,2.5837c0,1.36296 0,2.09096 0,2.84919c0,0.78311 0,1.58578 0,2.40266c0,0.82578 0,1.65511 0,2.48267c0,1.62844 0,2.41896 0,3.18815c0,0.74429 0,1.46015 0,2.144c0,1.25748 0,1.824 0,3.23348c0,0.69867 0,1.69067 0,2.60355c0,0.71112 -0.42548,2.19615 0,2.19615c0.92206,0 0,-1.61066 0,-2.848c0,-0.45422 0,-1.43733 0,-1.97689c0,-1.20178 0,-1.87466 0,-2.60266c0,-1.64267 0,-2.56474 0,-3.54371c0,-1.02163 0,-2.0717 0,-3.136c0,-1.0643 0,-2.11437 0,-3.136c0,-1.90104 0.00333,-2.75618 -0.00476,-3.55082c-0.00757,-0.74493 -0.02359,-1.45124 -0.06931,-2.128c-0.04462,-0.66025 -0.11047,-1.31513 -0.22934,-1.968c-0.25,-1.37305 -0.47443,-2.09603 -0.71112,-2.84918c-0.24536,-0.78071 -0.52802,-1.57214 -0.83734,-2.368c-0.31168,-0.80187 -0.6424,-1.59531 -0.99731,-2.368c-0.68597,-1.4934 -1.05487,-2.18012 -1.41275,-2.83022c-0.3382,-0.61436 -0.67188,-1.1795 -0.99734,-1.69067c-0.29614,-0.46514 -0.50922,-0.93477 -0.83731,-1.21067c-0.75943,-0.63858 -0.98322,0.36011 -0.99854,1.02104c-0.01984,0.85614 -0.01599,3.22666 -0.01599,4.76563c0,1.74163 0,3.6397 0,5.648c0,2.07229 0,4.16237 0,6.224c0,1.98696 -0.00104,5.552 0.00031,7.04948c0.00116,1.30904 0.00296,2.45458 0.01865,3.46133c0.01392,0.89312 0.03745,1.69761 0.08267,2.43734c0.04288,0.70151 0.18866,2.08616 0.29214,2.81244c0.10727,0.75291 0.23535,1.5193 0.38135,2.288c0.14505,0.76378 0.30331,1.50927 0.47733,2.224c0.16531,0.67903 0.51361,1.87633 0.70313,2.37067c0.16751,0.43695 0.34369,0.81229 0.53336,1.12266c0.16751,0.2741 0.3465,0.49988 0.53333,0.67467c0.16995,0.159 0.52942,0.38004 0.71112,0.45007c0.1745,0.06726 0.35583,0.10715 0.53333,0.096c0.17947,-0.01127 0.36441,-0.07601 0.53333,-0.192c0.18893,-0.12972 0.54385,-0.56988 0.71082,-0.86874c0.18774,-0.33607 0.3569,-0.72787 0.51468,-1.16266c0.16949,-0.46708 0.34625,-0.96854 0.57837,-2.08119c0.24966,-1.19672 0.30246,-1.83454 0.35556,-2.48652c0.11124,-1.36599 0.11841,-2.08792 0.13272,-2.83496c0.01486,-0.77534 0.01779,-1.58104 0.01898,-3.29008c0.00064,-0.90607 0,-1.84414 0,-2.81066c0,-0.99141 0,-2.00415 0,-3.03467c0,-1.04474 0,-2.10015 0,-4.22874c0,-1.06548 0,-2.12385 0,-3.168c0,-1.02281 0,-2.01718 0,-2.976c0,-0.91615 0,-1.78252 0,-3.33748c0,-0.67585 0,-1.28237 0,-1.82133c0,-0.47319 0,-0.88237 0,-1.22934c0,-0.28651 -0.22009,-0.74975 0.048,-0.77985c0.85251,-0.09569 0.55341,1.27707 0.86221,1.88444c0.84482,1.66154 1.44757,2.70522 2.12384,3.88978c0.73969,1.29565 1.53995,2.66714 2.37335,4.09334c0.84955,1.45381 1.70386,2.90486 2.53333,4.33333c1.54654,2.66331 2.22214,3.85606 2.82547,4.9517c0.54941,0.99768 1.03622,1.91148 1.45602,2.752c0.38071,0.76227 0.71338,1.46086 0.97598,2.112c0.45844,1.13673 0.60092,1.66116 0.72296,2.14756c0.11386,0.45375 0.19495,0.88601 0.26401,1.296c0.06592,0.39124 0.11533,0.77049 0.18399,1.136c0.13501,0.71869 0.23932,1.07333 0.36029,1.42222c0.1203,0.34695 0.26059,0.68146 0.41867,0.99733c0.15274,0.30521 0.31351,0.59121 0.49869,0.83734c0.33081,0.43969 0.58148,0.50127 1.35583,1.04059c0.74619,0.5197 1.3909,1.23867 2.03705,1.00711c0.89026,-0.31904 1.50107,-0.76988 2.2551,-1.60504c0.50992,-0.56478 0.90445,-1.2601 1.17334,-2.02666c0.43045,-1.22709 0.4996,-2.17951 0.54935,-2.67467c0.10641,-1.05894 0.13644,-1.62951 0.18726,-2.22696c0.05341,-0.62805 0.29602,-2.70932 0.41125,-3.46282c0.11813,-0.77246 0.25052,-1.55271 0.384,-2.33333c0.13199,-0.77197 0.2662,-1.52522 0.384,-2.25333c0.21646,-1.33801 0.31161,-1.93474 0.40326,-3.02193c0.08594,-1.01946 0.08701,-1.5386 0.09363,-2.07763c0.02298,-1.86921 0.008,-2.61215 0.008,-3.40296c0,-0.8157 0,-1.63319 0,-2.42934c0,-0.7517 1.41476,-2.79298 0,-2.85185c-0.44559,-0.01854 -0.05762,0.89648 -0.10162,1.44356c-0.17004,2.11412 -0.28854,2.93703 -0.40326,3.80207c-0.11862,0.89439 -0.25064,1.80395 -0.384,2.71734c-0.13211,0.90468 -0.26566,1.78732 -0.384,2.63733c-0.21536,1.54692 -0.2934,2.22413 -0.35318,2.83733c-0.05417,0.55547 -0.10071,1.06137 -0.13275,1.95319c-0.02792,0.77715 -0.00272,1.85341 -0.02695,2.54874c-0.03329,0.95573 -0.16568,2.13028 -0.95499,2.43081c-1.04071,0.39625 -1.67526,0.07408 -2.59259,0.07408c-0.91733,0 -2.03278,0.16181 -2.62961,-0.11111c-1.09973,-0.5029 -1.29852,-1.40335 -1.63705,-2.21423c-0.18729,-0.44859 -0.53549,-1.43125 -0.71112,-1.94844c-0.54028,-1.59094 -0.71091,-2.12947 -0.89688,-2.66756c-0.37933,-1.09752 -0.58234,-1.65868 -0.80475,-2.22696c-0.70587,-1.80348 -1.00058,-2.42627 -1.29214,-3.06993c-0.29736,-0.65651 -0.60681,-1.31792 -0.91733,-1.98399c-0.31052,-0.66608 -0.6236,-1.32584 -0.91733,-1.984c-0.83978,-1.88175 -1.06949,-2.48931 -1.29214,-3.08593c-0.22058,-0.59099 -0.62103,-1.79315 -0.80475,-2.41422c-0.1886,-0.6376 -0.54431,-1.99661 -0.71912,-2.72474c-0.18085,-0.75334 -0.35556,-1.52593 -0.53333,-2.30667c-0.17776,-0.78074 -0.35248,-1.55333 -0.53333,-2.30666c-0.1748,-0.72813 -0.70404,-2.66533 -0.88654,-3.21156c-0.32687,-0.97835 -0.67761,-1.81111 -0.91733,-2.58133c-0.33054,-1.06205 -0.42545,-1.77531 -0.47021,-2.45896c-0.06226,-0.9506 0.94904,-3 -0.03705,-3c-0.55554,0 -0.00024,1.59289 0,2.66666c0.00015,0.66608 0.00015,1.4175 0.008,2.25067c0.00858,0.91143 0.02484,1.8976 0.056,2.95467c0.03314,1.12488 0.06836,2.31465 0.2323,4.86874c0.08722,1.35862 0.2056,2.75723 0.33868,4.184c0.13467,1.44377 0.28619,2.89061 0.45065,4.328c0.16214,1.41713 0.32373,2.80151 0.69214,5.41392c0.17075,1.2108 0.35095,2.35455 0.53336,3.43734c0.17337,1.02919 0.35181,2.00783 0.53333,2.94133c0.17416,0.89582 0.34897,1.75789 0.71112,3.39911c0.17459,0.79123 0.35223,1.56051 0.53333,2.304c0.17456,0.71664 0.35028,1.40118 0.53333,2.048c0.17282,0.61062 0.32736,1.18629 0.71112,2.16652c0.16571,0.42329 0.34561,0.79265 0.53336,1.10934c0.16901,0.2851 0.34705,0.528 0.53333,0.72533c0.17032,0.1804 0.34253,0.34044 0.71112,0.5357c0.17239,0.09133 0.354,0.15049 0.53333,0.19467c0.17645,0.04348 0.35474,0.07776 0.71112,0.09363c1.06564,0.04744 1.77777,0.008 2.84445,0.008c0.71112,0 1.84097,0.05472 2.37509,-0.32c0.51044,-0.35812 1.22745,-1.64552 1.5123,-2.22342c0.32077,-0.65074 0.64496,-1.38693 0.98666,-2.19732c0.36984,-0.87717 0.75006,-1.82504 1.14667,-2.83734c0.86069,-2.19683 1.30838,-3.38088 1.77542,-4.61511c0.48529,-1.28248 0.98215,-2.61335 1.48532,-3.992c0.51849,-1.42073 1.0444,-2.88415 1.56534,-4.392c1.07843,-3.12167 1.60263,-4.74004 2.12387,-6.37867c0.52231,-1.64198 1.02451,-3.27835 1.496,-4.896c0.45987,-1.5777 0.89044,-3.10544 1.25598,-4.576c0.66501,-2.67548 0.88687,-3.87241 1.06665,-4.96118c0.16211,-0.98153 0.27249,-1.86457 0.34399,-2.648c0.06244,-0.68404 0.09308,-1.27332 0.104,-1.768c0.01575,-0.71335 0.00711,-0.9366 0.00711,-1.07615c0,-0.06134 0,-0.04978 0,0.02933c0,0.14134 0,0.33956 0,0.58934c0,0.63289 0,1.00563 0,1.41037c0,0.43318 0,0.89125 0,1.37066c0,0.49719 0,1.0086 0,1.53067c0,1.06193 0,1.59467 0,2.12385c0,0.52208 0,1.03349 0,1.53067c0,0.47941 0,0.93748 0,1.37066c0,0.77749 0,1.11585 0,1.42223l0,0.27792l0,0.25304l0,0.2317"/> <path fill="none" stroke="#0009bc" stroke-width="5" stroke-dasharray="null" stroke-linejoin="null" stroke-linecap="null" id="svg_19" d="m307.16052,143.80247c0,2.48889 0,3.55557 0,4.26666c0,1.06667 -0.14044,1.87616 0.03702,1.91852c0.93314,0.22273 1.39767,-0.72653 2.26608,-0.85985c0.98709,-0.15154 1.36984,-1.25946 0.61749,-1.66815c-0.69934,-0.3799 -1.66815,-0.09363 -2.6243,0.19467l-0.2883,0.75288"/> <path fill="none" stroke="#bab300" stroke-width="5" stroke-dasharray="null" stroke-linejoin="null" stroke-linecap="null" id="svg_20" d="m244.93829,161.58026c2.48888,0 3.2,0 4.26666,0c0.71111,0 1.77777,0 2.48889,0c1.06667,0 1.77776,0 2.80652,0c0.14162,0 -0.85098,0 -1.56207,0c-1.06668,0 -1.77779,0 -2.84416,-0.00031l-0.82518,-0.06372l-0.68147,-0.56296l-0.24297,-0.64592"/> <path fill="none" stroke-width="5" stroke-dasharray="null" stroke-linejoin="null" stroke-linecap="null" id="svg_21" d="m262.71606,268.24692c0.63495,2.3031 1.18497,3.07251 2.13571,3.40387c0.74036,0.25806 1.71613,0.1517 2.58813,0.1517c0.64648,0 1.67853,0 2.74252,0c0.7034,0 1.71408,0 2.33746,0c1.07138,0 2.03851,0 3.23318,0c0.77274,0 1.19464,0 2.07407,0c0.87939,0 2.0741,0 2.99673,0c0.89838,0 1.80325,0 2.51437,0c1.06668,0 1.77777,0 2.84445,0c0.71109,0 1.77777,0 2.48889,0c1.06665,0 1.77777,0 2.84442,0c0.71112,0 1.78015,0 2.55289,0c0.94342,0 1.80743,0 2.73541,0c0.60681,0 1.89899,0 2.51498,0c1.08563,0 1.79672,0 2.8634,0c0.71109,0 1.77777,0 2.48889,0c1.06665,0 1.77777,0 2.84442,0c0.71112,0 1.7778,0 2.48889,0c1.06906,0 1.8418,0 2.78519,0c0.86401,0 1.79202,0 2.39883,0c1.29211,0 1.90811,0 2.99374,0l0.71109,0l1.06668,0l0.71112,0" stroke="#bab300"/> <path fill="none" stroke="#bab300" stroke-width="5" stroke-dasharray="null" stroke-linejoin="null" stroke-linecap="null" id="svg_22" d="m276.93829,282.46915c0,-3.98727 0,-4.79199 0,-5.6889c0,-0.88889 0,-1.77777 0,-2.66666c0,-0.88889 0,-1.77777 0,-2.66666c0,-0.88889 0,-1.7778 0,-2.66669c0,-0.88889 0,-1.77777 0,-2.66904c0,-0.77274 -0.00031,-1.99081 -0.008,-2.57214l-0.056,-0.87198"/> <path fill="none" stroke="#bab300" stroke-width="5" stroke-dasharray="null" stroke-linejoin="null" stroke-linecap="null" id="svg_25" d="m289.38272,282.46915c0,-3.98727 0,-4.79199 0,-5.6889c0,-0.88889 0,-1.77777 0,-2.66666c0,-0.88889 0,-1.77777 0,-2.66666c0,-0.88889 0,-1.7778 0,-2.66669c0,-0.88889 0,-1.77777 0,-2.66904c0,-0.77274 0,-1.99109 0,-2.58014c0,-0.92801 0,-1.53482 0,-2.82697l0,-0.80475l0,-0.89688l0,-0.88892"/> <path fill="none" stroke="#0000b7" stroke-width="5" stroke-dasharray="null" stroke-linejoin="null" stroke-linecap="null" id="svg_28" d="m244.93829,163.35803c2.48888,0 3.2,0 4.26666,0c0.71111,0 2.00357,0.31775 2.62845,-0.39378c0.47469,-0.54051 0.21599,-1.73955 0.21599,-2.45067c0,-1.06903 0.00441,-1.84178 0,-2.78517c-0.004,-0.85603 0.21918,-1.84854 -0.2963,-2.66667c-0.43481,-0.69009 -1.65927,-0.59259 -2.37036,-0.59259l-1.06668,0l-0.71112,0"/> </g> </svg>