<svg width="640" height="480" xmlns="http://www.w3.org/2000/svg" xmlns:svg="http://www.w3.org/2000/svg"> <!-- Created with SVG-edit - http://svg-edit.googlecode.com/ --> <g> <title>Layer 1</title> <path d="m392.00003,298.5c0,-1.63101 -0.13425,-2.40948 -0.625,-3.125c-0.47824,-0.69727 -0.85367,-1.49298 -1.306,-2.14401c-0.53674,-0.77252 -0.85922,-1.53976 -1.388,-2.21198c-0.48703,-0.61914 -1.38602,-0.82687 -2.056,-1.39401c-0.6109,-0.51715 -1.26248,-1.11227 -1.6395,-1.85001c-0.39575,-0.77441 -1.07092,-1.23685 -1.7605,-1.80338c-0.64529,-0.53015 -0.90808,-1.47906 -1.43301,-2.17163c-0.56662,-0.74756 -0.7258,-1.5043 -1.10599,-2.336c-0.37134,-0.81232 -0.68549,-1.35199 -0.686,-2.31299c-0.00052,-0.97601 0,-1.80099 0,-2.70099c0,-0.90002 0.24521,-1.82022 -0.21301,-2.63702c-0.36325,-0.64755 -0.53699,-1.41299 -0.53699,-2.388c0,-0.82498 0,-1.72498 0,-2.625c0,-0.82498 0,-1.79999 0,-2.70099c0,-0.84 0,-1.6095 0,-2.62064c0,-0.82837 0,-1.80344 0,-2.70337c0,-0.82498 0,-1.72507 0,-2.625c0,-0.89999 0,-1.80005 0,-2.70003c0,-0.825 0.12949,-1.68022 0.4855,-2.47499c0.35406,-0.79039 0.13849,-1.80983 0.2655,-2.625c0.13385,-0.85892 0.70236,-1.58765 0.74799,-2.487c0.04483,-0.8835 -0.00055,-1.86301 0.00101,-2.688c0.00168,-0.89661 0.64093,-1.46825 0.75,-2.325c0.10419,-0.81841 0.51242,-1.5784 0.73438,-2.47501c0.1983,-0.80096 -0.18201,-1.77557 0.14063,-2.625c0.32007,-0.84265 0.33194,-1.70532 0.62836,-2.47162c0.28738,-0.7429 0.74664,-1.42938 0.74664,-2.26938c0,-0.89601 0,-1.78062 0,-2.759c0,-0.82501 0,-1.72502 0,-2.625c0,-0.82501 0,-1.72502 0,-2.70001c0,-0.825 -0.23309,-1.547 -0.625,-2.29999c-0.39664,-0.76213 -0.125,-1.75 -0.125,-2.57501c0,-0.90001 0.07947,-1.87894 -0.00101,-2.70099c-0.0834,-0.85197 -0.60699,-1.58417 -0.741,-2.541c-0.11554,-0.82498 -0.008,-1.808 -0.008,-2.70799c0,-0.82501 0,-1.72501 0,-2.625c0,-0.82501 -0.00436,-1.80002 0,-2.70001c0.004,-0.82503 0.21332,-1.75281 0.76898,-2.448c0.53671,-0.67145 0.879,-1.38062 1.46201,-2.11899c0.47217,-0.59802 1.1488,-1.16191 1.508,-1.854c0.41708,-0.80362 1.00305,-1.409 1.784,-1.896c0.75726,-0.47224 1.60513,-0.82681 2.35202,-1.20799c0.7532,-0.3844 1.37817,-1.10089 2.02499,-1.649c0.70374,-0.59633 1.64999,-0.601 2.47501,-0.601c0.89999,0 1.875,0 2.69998,0c0.90002,0 1.89349,-0.34868 2.65714,0.04289c0.75989,0.38962 1.08438,1.23581 1.89288,1.58211c0.75934,0.32524 1.5311,0.87918 2.19998,1.44986c0.72318,0.617 1.0235,1.26791 1.59113,1.99301c0.51379,0.65631 1.51242,0.80478 2.3089,1.19661c0.78296,0.38518 1.50223,0.98781 2.32498,1.20851c0.86966,0.23325 1.78165,-0.19853 2.70001,0.15201c0.67999,0.25955 1.57382,0.45685 2.11075,0.05377c0.89426,-0.6714 1.46991,-1.07327 2.26425,-1.55377c0.85071,-0.51459 1.6243,-1.00087 2.21698,-1.48601c0.78207,-0.64015 1.63751,-0.81712 2.194,-1.48999c0.64478,-0.77963 1.10132,-1.35162 1.89615,-1.87062c0.71634,-0.46774 1.51074,-0.83246 2.21786,-1.42738c0.64737,-0.54462 1.47592,-0.85068 2.22501,-1.351c0.60611,-0.40483 1.43011,-0.94438 2.25,-1.5c0.60336,-0.40892 1.461,-0.899 2.19986,-1.40901c0.67514,-0.46599 1.42514,-0.84099 2.25012,-0.84099c0.90002,0 1.80054,-0.02928 2.625,0c0.90173,0.032 1.64163,0.56384 2.41077,0.78952c0.88467,0.25957 1.69931,0.37889 2.5285,0.9355c0.75647,0.50777 1.47235,1.09874 2.26074,1.48799c0.79477,0.39243 1.37692,0.91385 1.78101,1.737c0.36252,0.73845 0.74866,1.60013 1.10849,2.325c0.388,0.78159 0.8945,1.51103 1.2475,2.32501c0.33475,0.7717 0.20483,1.78102 0.21301,2.67299c0.00781,0.85211 0.58435,1.63373 0.74661,2.502c0.15155,0.81096 0.33502,1.71326 0.62839,2.47501c0.32654,0.84793 0.29236,1.66907 0.66199,2.313c0.42996,0.74904 0.1897,1.73729 0.21301,2.63699c0.02145,0.82584 0.61658,1.5486 0.75,2.54999c0.10898,0.8179 0,1.74101 0,2.5105c0,0.9315 0.33621,2.01048 -0.21399,2.67651c-0.58292,0.70563 -1.27249,1.11269 -1.28601,2.013c-0.01236,0.82491 0.13806,1.81081 -0.00101,2.7c-0.13382,0.85567 -0.72754,1.57417 -0.74899,2.40001c-0.02338,0.89969 0,1.8 0,2.7c0,0.89999 0,1.8 0,2.64063c0,0.84889 -0.00156,1.84326 0,2.68437c0.00168,0.90001 0.50232,1.65221 0.72299,2.47501c0.23325,0.86966 0.22202,1.60597 0.758,2.27699c0.55542,0.69537 0.7905,1.53717 1.20001,2.373c0.37857,0.77261 1.02713,1.31784 1.069,2.175c0.04395,0.89995 0.30981,1.75516 0.875,2.5c0.48251,0.63591 0.54852,1.35597 0.633,2.244c0.08325,0.87523 0.69638,1.70221 0.742,2.53099c0.04947,0.89865 0,1.8 0,2.625c0,0.97501 0,1.875 0,2.70001c0,0.89999 0,1.79999 0,2.625c0,0.97501 0.16733,1.8938 -0.008,2.69998c-0.19186,0.88232 -0.73419,1.57489 -0.742,2.427c-0.00818,0.89197 0.12131,1.90115 -0.21301,2.673c-0.35242,0.81366 -0.33072,1.68033 -0.564,2.55002c-0.22067,0.82275 -0.65182,1.578 -0.72299,2.39993c-0.0853,0.98535 -0.57782,1.73822 -0.75101,2.55005c-0.18069,0.84702 -0.72754,1.57425 -0.74899,2.47501c-0.02142,0.89975 -0.19373,1.65744 -0.53702,2.47501c-0.35806,0.85272 -0.21298,1.77499 -0.21298,2.66049c0,0.84888 -0.12949,1.71973 -0.4855,2.5145c-0.354,0.79037 -0.2645,1.80002 -0.2645,2.625c0,0.89999 -0.07605,1.7756 -0.431,2.55002c-0.36804,0.80298 -0.319,1.64999 -0.319,2.625c0,0.89999 0.0105,1.73346 -0.375,2.54999c-0.358,0.75827 -0.89386,1.47263 -1.08212,2.3645c-0.20554,0.97385 0.08185,1.8783 -0.25589,2.66049c-0.3515,0.81406 -0.17844,1.73929 -0.564,2.52301c-0.37634,0.76505 -0.51672,1.40732 -0.75,2.27701c-0.22067,0.82281 -0.49576,1.63181 -0.84799,2.54999c-0.26071,0.67957 -0.6398,1.56696 -1,2.25c-0.39111,0.74173 -0.74673,1.10031 -1.548,1.52701c-0.64597,0.34399 -1.21454,1.17523 -2.00906,1.69461c-0.71655,0.46838 -1.3631,1.04144 -1.91791,1.60239c-0.66864,0.67609 -1.29501,1.08624 -2.17502,1.17599c-0.89481,0.09128 -1.40317,0.53128 -2.25,0.79288c-0.83206,0.25702 -1.57498,0.7066 -2.55002,0.70712c-0.89996,0.00046 -1.75534,-0.20624 -2.625,0.02701c-0.82275,0.22067 -1.57498,0.72128 -2.54999,0.72299c-0.875,0.00153 -1.63101,0 -2.625,0c-0.8645,0 -1.75,0 -2.70001,0c-0.82498,0 -1.72501,0 -2.625,0c-0.82498,0 -1.79999,0 -2.69998,0c-0.82498,0 -1.72501,0 -2.625,0c-0.82498,0 -1.55463,-0.48846 -2.25339,-0.74661c-0.83075,-0.30688 -1.69891,-0.03134 -2.50775,-0.48889c-0.7822,-0.4425 -1.59662,-0.70599 -2.28888,-1.34662c-0.59955,-0.55484 -0.92004,-1.49857 -1.57498,-2.06686c-0.69647,-0.60446 -1.24771,-1.056 -1.74063,-1.72601c-0.55579,-0.75549 -1.49387,-1.10684 -1.92233,-1.72601c-0.50449,-0.72885 -0.97922,-1.51257 -1.45599,-2.10693c-0.53946,-0.67258 -1.1062,-1.41678 -1.70599,-2.017c-0.67426,-0.67474 -1.09875,-1.38669 -1.48801,-2.17505c-0.39243,-0.79477 -0.74731,-1.64987 -1.55487,-2.05713c-0.7532,-0.37976 -1.56339,-0.4613 -2.20313,-0.83237c-0.83539,-0.48447 -1.27899,-1.33551 -2.104,-1.46051l-0.89661,-0.00674l-0.4855,-0.52557" id="svg_1" stroke-width="5" stroke="#000000" fill="none"/> <path d="m450.50003,234c0,-1.575 0,-2.47501 0,-3.3c0,-0.927 -0.00049,-1.819 0,-2.68387c0.00052,-0.91612 0.45776,-1.65672 0.70712,-2.49113c0.25797,-0.8633 -0.24329,-1.90645 0.20886,-2.68399c0.37451,-0.64403 0.67184,-1.33263 1.409,-1.75699c0.77774,-0.44774 1.35892,-1.14134 2.17502,-1.334c0.87592,-0.20677 1.73053,-0.06076 2.612,0.00102c0.89441,0.06264 1.138,0.974 1.138,1.799c0,0.89999 -0.21698,1.88797 0.21298,2.63699c0.36966,0.64394 0.53702,1.41301 0.53702,2.38811c0,0.91588 0,1.68538 0,2.61688c0,0.83298 0,1.808 0,2.70798c0,0.82501 0,1.72502 0,2.625c0,0.82501 0,1.8 0,2.70001c0,0.825 -0.32367,1.8315 0.125,2.64999c0.3837,0.69998 0.95313,1.13928 1.34799,1.952c0.35605,0.73283 0.40228,1.62512 0.65201,2.548c0.23087,0.8532 0.56049,1.5397 0.87399,2.226c0.35855,0.78494 1.05826,1.16238 1.45813,1.91687c0.42514,0.80214 0.93793,1.45836 0.78488,2.28214c-0.16611,0.8941 -0.92224,1.47305 -1.642,2.09901c-0.63834,0.5551 -1.57501,0.601 -2.47501,0.601l-0.85199,0l-0.89203,0l-0.86487,0" id="svg_2" stroke-width="5" stroke="#000000" fill="none"/> <path d="m379.25003,234c-0.91602,-1.575 -1.27737,-2.29124 -1.66602,-3.075c-0.39868,-0.80399 -1.03897,-1.32272 -1.70898,-1.81563c-0.75549,-0.5558 -1.08148,-1.42093 -1.444,-2.15938c-0.40408,-0.82315 -0.97012,-1.54649 -1.71338,-1.91049c-0.77103,-0.37762 -1.44559,-0.80255 -2.24261,-1.27165c-0.74728,-0.43982 -1.77319,-0.55721 -2.62402,-0.26685c-0.70853,0.24178 -0.60098,1.349 -0.60098,2.24898c0,0.89998 0,1.79999 0,2.625c0,0.89998 -0.11887,1.93144 0.2645,2.58548c0.37668,0.64268 0.4855,1.53952 0.4855,2.44052c0,0.84001 -0.09335,1.61383 0,2.62062c0.08334,0.89891 0.746,1.43634 0.75,2.25336c0.00476,0.97499 0,1.875 0,2.70001c0,0.89999 0,1.79999 0,2.625c0,0.97499 0,1.875 0,2.7c0,0.89999 0,1.8 0,2.70001c0,0.901 -0.27188,1.80899 0.064,2.573c0.38098,0.86659 1.21457,1.16261 2.10007,1.177c0.94028,0.01529 1.62213,0.48549 2.41098,0.75l0.89664,0.00337l0.56787,0.48212l0.86047,0.26451" id="svg_3" stroke-width="5" stroke="#000000" fill="none"/> <path d="m394.25003,231c0,-0.89999 0,-1.72501 0,-2.625c0,-0.89999 0.23288,-1.54364 0.97162,-1.87837c0.72552,-0.32875 1.42838,-0.74663 2.32837,-0.74663c0.82501,0 1.72501,0 2.70001,0c0.82498,0 1.72501,0 2.625,0c0.82498,0 1.81235,0.11815 1.875,0.97501c0.06564,0.8976 -0.03275,1.7256 0,2.625c0.03201,0.87973 0.19873,1.68205 0.60098,2.57399c0.38507,0.85385 1.04901,1.476 1.72415,2.15088l0.58887,0.46112l0.836,0.19838" id="svg_4" stroke-width="5" stroke="#000000" fill="none"/> <path d="m427.25003,231c0,-1.575 0,-2.47501 0,-3.3c0,-0.89999 -0.19473,-1.87563 0.21298,-2.63699c0.37604,-0.70221 0.54166,-1.45926 1.138,-2.16301c0.5481,-0.64682 1.37555,-1.1037 2.07202,-1.66899c0.66681,-0.5412 1.37698,-0.73099 2.27698,-0.73099c0.82501,0 1.80002,0 2.70001,0c0.82501,0 1.74063,-0.00006 2.58951,0c0.99423,0.00006 1.71762,0.26787 1.79175,1.10939l0.71875,0.39063l0.76099,0.431" id="svg_5" stroke-width="5" stroke="#000000" fill="none"/> <path d="m395.00003,240.75c0,-1.575 0.12061,-2.3951 0.4855,-3.08238c0.39691,-0.7476 0.18604,-1.95398 0.86548,-2.16661c0.92953,-0.29089 2.03665,-0.16916 2.35614,0.53137c0.39523,0.86658 -0.10483,1.80498 -0.61612,2.5425c-0.46527,0.67114 -1.366,0.67514 -2.19101,0.67514l-0.97488,0.00012l-0.64386,0.37488" id="svg_6" stroke-width="5" stroke="#000000" fill="none"/> <path d="m429.50003,234.75c1.27499,-1.27499 1.94199,-2.04555 2.7395,-2.20712c0.97546,-0.19762 1.83548,-0.04288 2.7355,-0.04288c0.89999,0 2.42099,0.69601 2.42099,0c0,-0.84601 -1.746,0 -2.72113,0l-0.91586,0l-0.7695,0l-0.93152,0" id="svg_7" stroke-width="5" stroke="#000000" fill="none"/> <path d="m412.25003,232.5c0.96298,0.89999 1.37399,1.67787 1.7645,2.47501c0.38312,0.78207 0.42511,1.57703 0.4855,2.47499c0.06265,0.9313 0.74219,1.44052 0.75,2.325c0.00729,0.82498 0,1.8 0,2.70001c0,0.83299 -0.16205,1.80353 0.125,2.64999c0.26752,0.78889 0.62448,1.539 0.625,2.375c0.00061,1.02299 0,1.875 0,2.77499c0,0.82501 0,1.8 0,2.70001c0,0.825 0,1.72499 0,2.625c0,0.89999 0,1.79999 0,2.69998c0,0.84064 -0.00006,1.68951 0,2.6839c0.00006,0.84113 0.08698,1.88904 0.89999,2.20212c0.84198,0.32425 1.75308,-0.08316 2.711,0.07199c0.83337,0.13498 0.88901,1.117 0.88901,2.017c0,0.82501 0,1.80002 0,2.70001c0,0.82498 -0.12891,2.6171 0.70712,2.28613c0.38434,-0.15216 0.04288,-1.23615 0.04288,-2.15176c0,-0.85226 0,-1.85938 0,-2.59375c0,-0.94775 0,-1.81561 0,-2.71564c0,-0.86786 0.14923,-1.96304 -0.52899,-2.46762c-0.71695,-0.53339 -0.76474,-1.16269 -0.99802,-2.03238c-0.22067,-0.82281 -0.72131,-1.57498 -0.72299,-2.39999c-0.00198,-0.97499 0,-1.875 0,-2.7c0,-0.927 0,-1.819 0,-2.68388c0,-0.91611 0,-1.81612 0,-2.64113c0,-0.89998 0,-1.789 0,-2.625c0,-0.93213 0,-1.875 0,-2.70001c0,-0.90001 0,-1.875 0,-2.7l0,-0.90001" id="svg_8" stroke-width="5" stroke="#000000" fill="none"/> <path d="m407.75003,286.5c0.965,-0.89999 1.68207,-1.41852 2.354,-1.95001c0.66547,-0.5264 0.97098,-1.58456 1.771,-1.78436c0.87329,-0.21811 1.875,-0.01563 2.69998,-0.01563c0.90002,0 1.58844,0.26242 2.34113,0.65887c0.72021,0.37933 1.70889,0.09113 2.60889,0.09113c0.82501,0 1.79999,0.00436 2.70001,0c0.82501,-0.004 1.4845,-0.48972 2.04398,-1.173c0.54547,-0.66617 1.04285,-1.33624 1.62003,-1.95801c0.67496,-0.72708 1.26886,-1.22614 1.97998,-1.66898c0.85876,-0.53479 1.46265,-1.09238 2.45599,-1.20001c0.82022,-0.08887 1.72568,-0.03436 2.625,0c0.83783,0.03201 1.14667,0.84039 1.53552,1.58237c0.3851,0.73477 0.74603,1.45712 1.3335,2.14862c0.46735,0.55008 1.04758,1.26761 1.181,2.26901c0.10895,0.81778 0.19144,1.74899 -0.01563,2.625c-0.19131,0.80936 -0.25623,1.7706 -0.79837,2.41101c-0.55774,0.65881 -1.57892,0.66409 -2.41101,0.92111c-0.84683,0.2616 -1.46371,0.65439 -2.25,1.05737c-0.77499,0.39722 -1.43655,0.7515 -2.19113,1.14438c-0.78815,0.41034 -1.73819,0.06403 -2.57336,0.35562c-0.90265,0.31516 -1.7605,0.4855 -2.66049,0.4855c-0.82498,0 -1.72501,0 -2.625,0c-0.82498,0 -1.80014,0 -2.71625,0c-0.69376,0 -1.77075,0 -2.56274,0c-0.96896,0 -1.82095,0 -2.60397,0c-1.0386,0 -2.05121,-0.22452 -2.75098,0.16602c-0.69485,0.38779 -1.38461,0.52643 -1.966,-0.16602c-0.54825,-0.65298 -1.125,-1.14063 -1.556,-1.95001l-0.311,-0.75l-0.008,-0.89999" id="svg_9" stroke-width="5" stroke="#000000" fill="none"/> <path d="m411.50003,284.25c0.97101,0.78949 1.5,1.5 1.7645,2.21051l0.4845,0.6405l0.00101,0.89899l0.00101,0.89899" id="svg_10" stroke-width="5" stroke="#000000" fill="none"/> <path d="m422.75003,283.5c0.2645,1.46051 0.74661,2.02838 0.75,3l0.00101,0.89899l0.42999,0.62003" id="svg_11" stroke-width="5" stroke="#000000" fill="none"/> <path d="m408.50003,285c-0.00101,0.89899 -0.58707,1.46927 -0.75,2.25c-0.18387,0.88101 0,1.80801 0,2.61301l0,1.01199" id="svg_12" stroke-width="5" stroke="#000000" fill="none"/> <path d="m429.50003,281.25c0.60098,1.35001 1.32346,1.84833 1.85938,2.625c0.51648,0.74854 0.39063,1.64999 0.39063,2.625l0,0.89999" id="svg_13" stroke-width="5" stroke="#000000" fill="none"/> <path d="m381.50003,227.25c-0.16602,-1.575 -0.57483,-2.36108 -0.96301,-3.14999c-0.39221,-0.79712 -0.49045,-1.60208 -0.55261,-2.47501c-0.06265,-0.87958 -0.59961,-1.61282 -0.73337,-2.47501c-0.14948,-0.96347 -0.00101,-1.79999 -0.00101,-2.7c0,-0.89999 0.21921,-1.77925 -0.125,-2.70001c-0.31564,-0.8443 -0.625,-1.57501 -0.625,-2.47502c0,-0.825 0,-1.72499 0,-2.625c0,-0.89998 0,-1.80098 0,-2.64098c0,-0.89601 0,-1.78062 0,-2.759c0,-0.82501 0.08865,-1.6546 0.53699,-2.31299c0.479,-0.70346 0.78735,-1.54832 1.17599,-2.33699c0.39194,-0.79538 0.53702,-1.65001 0.53702,-2.55c0,-0.825 -0.15393,-1.84665 0.16599,-2.625c0.34119,-0.83008 0.54306,-1.58427 0.70901,-2.55c0.11151,-0.64893 0.42377,-1.59563 0.561,-2.58301c0.11966,-0.86107 -0.29514,-1.85017 0.07962,-2.65137c0.36044,-0.7706 0.73438,-1.36563 0.73438,-2.26564c0,-0.89998 0,-1.72502 0,-2.70001c0,-0.90001 0,-1.72501 0,-2.65201c0,-0.892 0,-1.75687 0,-2.67299c0,-0.82837 0,-1.71301 0,-2.72499c0,-0.875 0,-1.70001 0,-2.60002c0,-0.89998 0,-1.72499 0,-2.625c0,-0.97499 0,-1.79999 0,-2.7c0,-0.89999 0.33487,-1.51784 0.72299,-2.27699c0.39816,-0.77878 0.48206,-1.62593 1.15201,-2.29799c0.59738,-0.59926 1.42477,-0.94992 2.17499,-1.45201c0.68893,-0.46106 1.40787,-0.86156 2.25,-1.18901c0.79211,-0.308 0.86301,-1.32085 1.677,-1.89899c0.76538,-0.54361 1.62109,-0.77101 2.414,-1.02101c0.67545,-0.21295 1.86014,0.05537 2.61276,-0.10686c0.89722,-0.19342 1.6962,-0.70314 2.52124,-0.70712c0.97501,-0.00473 1.875,0 2.70001,0c0.89999,0 1.72849,0.06677 2.28949,0.71048c0.5228,0.5999 1.39139,1.07936 1.71762,1.80339c0.38849,0.8622 1.24426,1.19725 1.64288,1.98613c0.37631,0.74475 0.31644,1.74898 0.10938,2.625c-0.19128,0.80937 -0.65387,1.54535 -1.00226,2.3645c-0.39459,0.92781 -0.78857,1.63759 -1.35712,2.3855c-0.48309,0.63548 -0.62506,1.39998 -0.625,2.22499c0.00006,0.97502 0.16476,1.84807 0.82498,2.47487c0.63153,0.59955 1.5351,0.73849 2.194,1.10612c0.6965,0.38863 1.63202,0.319 2.47202,0.319c0.896,0 1.82349,0 2.63599,0l1.02289,0l0.72311,0l0.98639,0" id="svg_14" stroke-width="5" stroke="#000000" fill="none"/> <path d="m404.00003,153.75c1.57498,0 2.47501,0 3.29999,0c0.89999,0 1.76788,0 2.70001,0c0.93213,0 1.79999,0 2.64063,0c0.84888,0 1.84323,0 2.68436,0c0.90677,0 1.83212,0 2.56564,0c0.98438,0 1.8606,-0.06465 2.75937,0.166c0.77048,0.19772 1.64722,0.55104 2.48599,0.58299c0.96231,0.03667 1.7933,-0.14537 2.745,0.028c0.92841,0.16913 1.34189,1.04477 1.84601,1.57701c0.6539,0.69037 1.77594,0.76254 2.50739,1.021c0.85516,0.30215 1.681,0.57242 2.34067,1.2c0.69159,0.65802 1.14743,1.25932 1.90201,1.875c0.71729,0.58527 1.35919,0.97911 2.215,1.47301c0.72168,0.41647 1.42166,0.88838 2.18301,1.43637c0.68634,0.494 1.46405,0.82065 2.18298,1.44063c0.65225,0.56253 1.44397,0.95016 1.97815,1.72499c0.45175,0.65533 1.13803,1.32025 1.46387,2.11563c0.33737,0.82373 0.84219,1.67494 1.23212,2.38101c0.4126,0.74715 0.59317,1.60619 1.01788,2.47838c0.35794,0.73509 0.6069,1.61975 1.0145,2.47499c0.37543,0.78772 0.95676,1.41536 1.2085,2.325c0.22015,0.79553 0.15649,1.68022 0.51251,2.47499c0.35406,0.79039 0.26086,1.80003 0.2645,2.625c0.004,0.90805 0.2832,1.69011 0.53699,2.55101c0.25958,0.88057 0.20914,1.79901 0.21301,2.67201c0.004,0.90001 0.51242,1.60541 0.73438,2.502c0.1983,0.80095 -0.09641,1.7417 0.07962,2.539c0.19232,0.87099 0.66455,1.77074 0.686,2.69899c0.01788,0.77379 0,1.73601 0,2.63701c0,0.89998 -0.0065,1.80612 0.319,2.558c0.35147,0.81189 0.29468,1.59541 0.47388,2.5065c0.19159,0.97403 0.52869,1.78766 0.71048,2.66052c0.16193,0.77747 0.62158,1.58574 0.76227,2.41562c0.14786,0.87216 0.56378,1.74666 0.79736,2.52237c0.26178,0.86937 0.638,1.73361 0.68362,2.59413c0.04514,0.85106 0.06738,1.77887 0.72638,2.31987l0.02701,0.873l0,0.825" id="svg_15" stroke-width="5" stroke="#000000" fill="none"/> <path d="m414.50003,173.25c-1.57513,0.91612 -2.16144,1.35512 -3,1.875c-0.73166,0.4536 -1.51199,0.85912 -1.98212,1.69287c-0.40829,0.72409 -0.79187,1.53957 -1.01688,2.28313c-0.25403,0.8394 -0.00101,1.845 -0.00101,2.63699c0,0.91576 0,1.88701 0,2.76201c0,0.89999 -0.12384,1.87103 0.327,2.55c0.5202,0.78342 1.41943,1.20833 2.11099,1.5c0.73233,0.30887 1.61386,0.90564 2.37802,1.181c0.81021,0.29195 1.76111,0.5083 2.74286,0.67787c0.6698,0.11569 1.74011,0.09113 2.44824,0.09113c1.0145,0 2.05859,0.13235 2.52887,-0.601c0.49881,-0.77794 0.35614,-1.74553 0.96402,-2.399c0.57794,-0.62128 1.22784,-1.20992 1.48099,-2.119c0.23727,-0.85202 0.61108,-1.73381 0.98199,-2.532c0.35098,-0.75545 0.45618,-1.53496 0.75195,-2.399c0.26898,-0.78554 0.91251,-1.48782 1.41605,-2.09999c0.72626,-0.88295 1.05383,-1.50365 1.51901,-2.399c0.36932,-0.71106 0.8931,-1.48067 1.57495,-2.17601c0.59424,-0.60588 1.16861,-1.15961 2.04065,-1.64998c0.71875,-0.40416 1.4263,-0.88559 2.41647,-1.08212c0.85193,-0.16907 1.69675,0.34381 2.29623,0.9355c0.65085,0.64238 1.28726,1.28726 1.72263,1.72264c0.7457,0.74564 1.40842,1.21695 2.06406,2.07199c0.55301,0.72122 0.39658,1.59387 0.48502,2.60201c0.06424,0.73242 1.09271,1.16589 1.44598,1.925c0.36307,0.78014 0.4772,1.77925 0.81961,2.34062c0.60278,0.98839 1.00742,1.68236 1.33334,2.30838l0.45099,0.88498l0.599,0.789" id="svg_16" stroke-width="5" stroke="#000000" fill="none"/> <path d="m416.00003,154.5c-1.27499,1.27499 -1.91904,1.91127 -2.5,2.625c-0.51898,0.6376 -0.87961,1.14941 -1.48801,1.89999c-0.73584,0.90782 -1.24295,1.465 -1.77499,1.92299c-0.91354,0.78642 -1.76791,0.97122 -2.29501,1.888c-0.45331,0.78845 -0.06882,1.78865 -0.58261,2.539c-0.47324,0.69116 -1.04099,1.364 -1.10837,2.26198c-0.06628,0.88324 -0.60703,1.60803 -0.74765,2.43089c-0.15704,0.91899 -0.27774,1.73723 -0.75336,2.68213c-0.33606,0.6676 -0.23764,1.54779 -0.76901,2.407c-0.45706,0.73907 -0.73099,1.39302 -0.758,2.26602l-0.659,0.541l-0.064,0.911l0,0.825" id="svg_17" stroke-width="5" stroke="#000000" fill="none"/> <path d="m394.25003,156.75c-0.16602,1.575 -0.60895,2.34035 -0.875,3.125c-0.28122,0.82939 -0.70407,1.69034 -0.94101,2.342c-0.29959,0.82402 -0.68344,1.9082 -1.013,2.80702c-0.18481,0.504 -0.38467,1.04239 -0.814,2.224c-0.23254,0.64003 -0.47659,1.31174 -0.98199,2.752c-0.26776,0.76309 -0.53781,1.54973 -0.81113,2.35124c-0.2757,0.80849 -0.54868,1.61736 -0.81787,2.41875c-0.26407,0.7861 -0.51892,1.55002 -0.996,2.98001c-0.21786,0.65303 -0.41977,1.26512 -0.61765,1.836c-0.36084,1.04106 -0.70724,1.96283 -0.89435,2.37999c-0.52289,1.16577 -0.92691,1.85316 -1.54202,2.737c-0.35635,0.51202 -1.08188,1.39337 -1.63199,2.19699l-0.064,0.908" id="svg_18" stroke-width="5" stroke="#000000" fill="none"/> <path d="m428.75003,160.5c-0.39063,1.5 -0.94437,2.30511 -1.5,3.125c-0.40891,0.60336 -0.91489,1.4521 -1.414,2.10201c-0.59225,0.77116 -1.00119,1.37074 -1.461,2.27299c-0.33597,0.65926 -0.63489,1.56473 -1.116,2.30887c-0.45923,0.71028 -1.17053,1.41876 -1.61838,2.19113c-0.50839,0.87675 -0.76395,1.52562 -1.26563,2.375c-0.46997,0.79568 -0.90643,1.33844 -1.29602,2.27437c-0.39569,0.95055 -0.62369,1.61572 -0.94098,2.37064c-0.40839,0.97166 -0.39484,1.83514 -0.80414,2.71388c-0.40671,0.87317 -1.10892,1.334 -1.55887,2.00899l-0.375,0.70813l-0.44205,0.89099l-0.36694,0.89189" id="svg_19" stroke-width="5" stroke="#000000" fill="none"/> <path d="m439.25003,171.75c0,1.57512 0,2.49112 0,3.30338c0,0.89325 -0.26947,1.94945 0.25,2.69662c0.43362,0.6237 1.23438,1.12459 1.25,2.02499c0.01691,0.97485 0,1.8 0,2.70337c0,0.88461 0,1.65863 0,2.62062l0,0.815l0,0.96701" id="svg_20" stroke-width="5" stroke="#000000" fill="none"/> <path d="m394,303c0.01068,1.84668 0.05161,2.694 0.284,3.68268c0.18881,0.80334 0.51608,1.53192 0.65884,2.50748c0.14163,0.96786 0.00662,1.81116 0.05731,2.78833c0.04269,0.82349 0.68604,1.44388 0.94269,2.3215c0.25311,0.8656 0.05716,1.80002 0.05716,2.70001c0,0.79999 0,1.70001 0,2.60001c0,0.89999 0,1.79999 0,2.69998c0,0.90002 0,1.80002 0,2.70001c0,0.88535 0,1.82535 0,2.51599c0,1.07333 0.21661,1.91269 -0.009,2.784c-0.22809,0.88095 -1.37155,1.11197 -1.82034,1.90002c-0.45334,0.79602 -0.39124,1.76666 -0.74533,2.39999c-0.48151,0.86124 -0.33957,1.72803 -0.64667,2.72131c-0.21671,0.70093 -0.612,1.51202 -0.77417,2.37418l-0.00449,0.90451l-0.02084,0.87915l-0.58981,0.51016" id="svg_21" stroke-width="5" stroke="#000000" fill="none"/> <path d="m450,300c-1,1.02084 -1.27435,1.94952 -1.64734,2.6955c-0.38919,0.77838 -0.31842,1.73465 -0.51932,2.63785c-0.15231,0.68484 -0.46121,1.44028 -0.66669,2.5c-0.17688,0.91223 -0.16599,1.67999 -0.16666,2.64581c-0.00064,0.92084 0,1.82083 0,2.72086c0,0.89999 0,1.79999 0,2.59998c0,0.90002 0,1.80002 0,2.70001c0,0.89999 0,1.79999 0,2.70001c0,0.89999 0,1.79999 0,2.59998c0,0.90002 -0.00522,1.80002 0,2.70001c0.00534,0.92139 0.15994,1.83524 0.35266,2.50534c0.21457,0.74615 0.39578,1.88986 0.70001,2.68567c0.33377,0.87308 1.04962,1.40671 1.64734,2.009c0.69202,0.69733 1.03583,1.45895 1.46658,2.29999c0.3403,0.66434 1.13333,1.29999 1.83334,2c0.5,0.5 1.13232,1.30252 1.75717,1.64282c0.82941,0.45172 1.75882,0.35583 2.70117,0.37802l0.59433,0.6265l0.74866,0.35132" id="svg_22" stroke-width="5" stroke="#000000" fill="none"/> <path d="m390,338c0.87866,1.2215 1.2803,2.06223 1.64734,2.70001c0.44983,0.78162 0.79211,1.62396 1.35266,2.29999c0.42957,0.51804 0.92148,1.51929 1.22168,2.3215c0.26953,0.72028 0.92087,1.69916 1.431,2.2695c0.49924,0.55817 1.47888,0.93829 2.18066,1.57565c0.6478,0.58835 1.33286,0.9895 1.86667,1.595c0.58267,0.66095 0.91534,1.50015 1.63333,2.23834c0.62604,0.64365 1.17029,0.97424 1.89865,1.51468c0.80136,0.5946 1.46014,1.17969 2.06799,1.78531c0.70129,0.69873 1.28104,1.31964 1.90134,1.90002c0.6644,0.62161 1.46262,1.08096 2.146,1.5c0.78079,0.4787 1.38361,1.1777 2.15268,1.77908c0.64999,0.50827 1.60001,0.74234 2.20001,1.22534l0.69998,0.68484" id="svg_23" stroke-width="5" stroke="#000000" fill="none"/> <path d="m457,340c-1.38934,0.86133 -1.75528,1.85757 -2.02533,2.58932c-0.31296,0.84808 -0.80435,1.65103 -1.14401,2.29602c-0.43564,0.82721 -1.14532,1.46143 -1.944,1.94531c-0.73499,0.44528 -1.16696,1.23157 -1.534,1.86935c-0.44983,0.78162 -0.77518,1.63916 -1.3735,2.29999c-0.48062,0.53082 -1.31656,1.17453 -1.8125,2c-0.49469,0.82339 -1.20013,1.12466 -1.76666,1.61066c-0.74805,0.64172 -1.21332,1.26614 -1.7045,2.04651c-0.46542,0.73947 -0.9935,1.56403 -1.53149,2.13217c-0.54556,0.57611 -1.33252,1.24402 -2.14316,1.66901c-0.82623,0.43317 -1.68359,0.64197 -2.02084,1.54166c-0.30786,0.82126 -1.15427,0.81671 -2,1.16666c-0.78464,0.32468 -1.56644,0.77719 -2.3215,1.27618c-0.55325,0.36563 -1.27982,1.07449 -2.07849,1.67181l-0.60001,0.3645" id="svg_24" stroke-width="5" stroke="#000000" fill="none"/> <path d="m390,335c0,1.79999 0.03671,2.63684 -0.00134,3.48267c-0.04279,0.95074 -0.72922,1.36185 -1.388,1.95334c-0.69046,0.61993 -0.90036,1.62091 -1.258,2.26401c-0.4744,0.85312 -0.87454,1.64825 -1.26999,2.50266c-0.33951,0.73355 -0.64584,1.5704 -1.10352,2.31824c-0.32663,0.53363 -0.95746,1.55762 -1.34317,2.23242c-0.43445,0.76013 -1.03656,1.61017 -1.63599,2.24667c-0.56454,0.59949 -0.86246,1.49789 -1.44266,2.10001c-0.60068,0.62335 -1.28339,1.18387 -1.91,1.84732c-0.54315,0.57504 -0.99545,1.36972 -1.534,1.93802c-0.58301,0.61523 -1.15732,1.12347 -1.62933,1.80133c-0.66339,0.95276 -0.86746,1.82489 -1.28268,2.45868c-0.5798,0.88501 -1.65454,0.74271 -2.40265,1.13998c-0.75671,0.40192 -1.42914,1.05865 -2.146,1.35748c-0.87698,0.36557 -1.81934,0.52383 -2.65268,0.85718c-0.83334,0.33334 -1.38162,0.81155 -2.16666,1.33334c-0.70776,0.47043 -1.59058,0.16666 -2.48602,0.16666c-0.86331,0 -1.80566,0.02084 -2.33664,0.61066l0.03098,0.88934" id="svg_25" stroke-width="5" stroke="#000000" fill="none"/> <path d="m455,338c1,-1 1.67844,-0.71478 2.284,-0.08401c0.54999,0.57288 1.35822,1.0307 1.66333,1.78934c0.27591,0.68604 0.83624,1.28571 1.70535,1.65186c0.7157,0.30154 1.59195,0.7355 2.06067,1.44281c0.54517,0.82269 1.23541,1.11749 1.85065,1.81067c0.58438,0.65848 1.00977,1.33301 1.46133,2c0.49878,0.73688 0.99609,1.59128 1.67468,2.03223c0.79233,0.51477 1.15161,1.08804 1.73599,1.74652c0.61523,0.69318 1.37445,1.1012 2,1.58533c0.74579,0.57718 1.60089,0.76224 2.36398,1.10928c0.85428,0.38858 1.63913,0.65564 2.49551,0.92047c0.76331,0.23608 1.25531,0.93567 2.00449,1.34824c0.83871,0.46182 1.66519,0.87064 2.30002,1.22202c0.87994,0.48706 1.72131,0.42532 2.57465,0.42532c0.94,0 1.92535,0 2.82535,0c0.79999,0 1.70001,0 2.60001,0l0.89999,0" id="svg_26" stroke-width="5" stroke="#000000" fill="none"/> <path d="m382,354c0,1.70001 0,2.70001 0,3.60001c0,0.89999 -0.13657,1.75662 0.284,2.60001c0.32993,0.66162 0.76868,1.5 1.216,2.29999c0.44733,0.79999 0.69305,1.62405 1.2045,2.20001c0.65021,0.73227 0.97806,1.67969 1.58084,2.21597c0.64993,0.57822 1.17615,1.03918 1.76733,1.72684c0.5665,0.65894 1.46817,0.85718 2.26865,1.23584l0.85333,0.14667l0.94,0.25867l0.68402,0.43207" id="svg_27" stroke-width="5" stroke="#000000" fill="none"/> <path d="m467,346c0,1.82535 0.01089,2.8334 0,3.6955c-0.01044,0.82553 -0.30182,1.78128 -0.57468,2.47916c-0.36401,0.93097 -0.04138,2.02982 -0.64682,2.70401c-0.5546,0.61758 -1.48032,0.80249 -1.7785,1.64218c-0.27789,0.78253 -0.52875,1.69678 -1.19867,2.30981c-0.67252,0.61542 -0.63766,1.42664 -1.02267,2.26935c-0.30579,0.66931 -0.80399,1.5 -1.20398,2.29999l-0.48935,0.80002" id="svg_28" stroke-width="5" stroke="#000000" fill="none"/> </g> </svg>