<svg width="640" height="480" xmlns="http://www.w3.org/2000/svg" xmlns:svg="http://www.w3.org/2000/svg"> <!-- Created with SVG-edit - http://svg-edit.googlecode.com/ --> <g> <title>Layer 1</title> <path d="m274,241c-1.5,-1.5 -2.19812,-2.20189 -2.70001,-2.7c-0.70801,-0.70268 -1.47903,-1.28058 -2.11465,-1.7c-0.86975,-0.57394 -1.45108,-1.09911 -2.01868,-1.76668c-0.58139,-0.68376 -0.89459,-1.50194 -1.14133,-2.25467c-0.29028,-0.88562 -0.3992,-1.84587 -0.72983,-2.51616c-0.41891,-0.8493 -1.16681,-1.4277 -1.29684,-2.2625c-0.14261,-0.91547 -0.79941,-1.45363 -0.97781,-2.32083c-0.19412,-0.94363 -0.02084,-1.82651 -0.02084,-2.722c0,-0.95851 0,-1.92384 0,-2.5825c0,-1.008 0,-1.87016 0,-2.6955c0,-0.96451 0,-1.68983 0,-2.679c0,-0.96417 -0.00049,-1.91751 0,-2.61c0.00067,-0.9595 -0.03372,-1.71732 0.08533,-2.50751c0.18701,-1.24127 0.51538,-1.87688 1.01468,-2.88249c0.29416,-0.59244 0.70853,-1.30898 1.28934,-2.16417c0.49652,-0.73106 0.61066,-1.636 0.61066,-2.436c0,-0.89999 -0.00195,-1.81961 0.42532,-2.59999c0.45038,-0.82257 0.57468,-1.70001 0.57468,-2.60001c0,-0.8 -0.01019,-1.70006 0,-2.60001c0.01044,-0.92101 0.23474,-1.7159 0.57468,-2.57466c0.31641,-0.79932 0.42307,-1.63515 0.42532,-2.59334c0.00171,-0.73199 0,-1.89867 0,-2.69032c0,-0.94167 0,-1.84167 0,-2.74167c0,-0.90018 0,-1.68533 0,-2.62534c0,-0.69067 0,-1.76401 0,-2.58533c0,-0.91068 0,-1.76401 0,-2.70401c0,-0.9855 0,-1.77066 0,-2.71066c0,-0.69067 0,-1.76401 0,-2.60667c0,-1.06799 0,-1.62 0,-2.56799c0,-0.642 0,-1.944 0,-2.79601c0,-0.90399 0.16519,-1.8232 -0.02084,-2.70399c-0.17899,-0.8474 -0.86996,-1.49025 -0.97781,-2.3c-0.12662,-0.95056 -0.38342,-1.84091 -0.64868,-2.54733c-0.33301,-0.8868 -0.35266,-1.81934 -0.35266,-2.65266c0,-0.9785 0.40338,-1.93524 -0.08533,-2.71466c-0.46429,-0.74046 -0.89081,-1.28569 -0.91467,-2.08534c-0.02859,-0.95845 -0.32028,-1.87238 -0.7045,-2.54733c-0.45206,-0.79416 -1.02304,-1.3811 -1.24283,-2.30983c-0.17383,-0.73444 -0.34415,-1.73871 -0.62735,-2.50684c-0.34924,-0.94731 -0.42532,-1.936 -0.42532,-2.836c0,-0.8 0,-1.7 0,-2.52083c0,-0.96317 0,-1.82651 0,-2.722c0,-0.95717 -0.04779,-1.85844 0,-2.75717c0.04272,-0.80341 0.51556,-1.50514 1.20001,-2.2c0.49622,-0.50375 1.28458,-1.14479 1.71732,-2.00134c0.3287,-0.65063 0.78021,-1.46289 1.43451,-2.146c0.6153,-0.6424 1.27307,-1.25324 1.74817,-1.974c0.43356,-0.65773 0.90268,-1.75887 1.5,-2.232c0.70874,-0.5614 1.5072,-0.89962 2.39999,-1.28c0.75153,-0.32019 1.6196,-0.16473 2.39999,-0.592c0.82257,-0.45038 1.70035,-0.57467 2.57068,-0.57467c0.79733,0 1.77866,0 2.69598,0c0.8125,0 1.82001,0 2.58002,0c0.91998,0 1.70599,0 2.52798,0c1.05869,0 1.97867,0 2.73868,0c0.96582,0 1.88666,0 2.79565,0c1.02435,0 1.71921,-0.06837 2.51233,0.108c1.21252,0.26965 1.78973,0.72895 2.36801,1.17867c0.58771,0.45705 1.09204,0.99035 2.12399,1.74267c0.62598,0.45634 1.4743,1.04171 2.18668,1.44983c0.93521,0.53578 1.72784,0.47368 2.69983,0.74217c0.79776,0.22037 1.62241,0.69028 2.49567,0.77416c0.80084,0.07692 1.7045,0.0045 2.60449,0.0045c0.90134,0 1.86667,0.00007 2.70001,0c0.97867,-0.00008 1.76584,-0.01966 2.65268,-0.35267c0.70639,-0.26525 1.60443,-0.5694 2.31665,-0.73133c1.0405,-0.23656 1.87866,-0.33062 2.66635,-1.01583c0.6832,-0.59431 1.39706,-1.02627 2.00031,-1.54684c0.72818,-0.62839 1.18164,-1.19942 1.76852,-1.70067c0.77197,-0.65932 1.68262,-0.99462 2.35266,-1.75249c0.60049,-0.67921 1.41043,-0.68626 2.24283,-1.06683c0.69879,-0.3195 1.04584,-1.19605 1.58334,-1.85417c0.50934,-0.62362 1.39288,-1.19613 2.12732,-1.57466c0.78012,-0.40208 1.59457,-0.71485 2.62268,-1.23784c0.75031,-0.38167 1.32843,-0.85609 2.1875,-1.16666c0.94434,-0.3414 1.61865,-0.69499 2.59381,-0.91467c0.86771,-0.19547 1.63174,-0.06536 2.552,0.08133c0.6713,0.10701 1.43921,0.24972 2.23203,0.444c1.44382,0.35382 2.2182,0.63888 2.84048,1.1465c0.62836,0.51259 1.28165,1.26369 1.66534,1.64734c0.79529,0.7952 1.32339,1.44994 2.11017,2.02483c0.79523,0.58108 1.9675,0.24358 2.42816,0.92783c0.53,0.78727 0.05716,1.80949 0.05716,2.66367c0,0.97916 0,1.76849 0,2.49383c0,0.98534 0,1.96934 0,2.83267c0,0.8955 0,1.854 0,2.53799c0,0.94 0,1.948 0,2.74001c0,1.02733 0,1.722 0,2.75999c0,0.948 0,1.62001 0,2.60933c0,0.86234 0,1.80267 0,2.64134c0,1.01666 0,1.71133 0,2.728c0,0.94051 0.00006,1.80267 0,2.636c-0.00009,0.9785 -0.09534,1.79285 -0.5,2.5c-0.45416,0.79364 -0.3504,1.71254 -0.50015,2.59984c-0.14401,0.8533 -0.92935,1.33759 -0.98917,2.12149c-0.07446,0.97589 0.00018,1.77873 -0.01068,2.77867c-0.01044,0.9585 -0.49191,1.52315 -0.91467,2.28534c-0.44556,0.80333 -0.13312,1.81593 -0.08533,2.71466c0.04272,0.80341 0.54181,1.4803 1.19867,2.2c0.53348,0.58452 0.8031,1.52991 1.23734,2.21066c0.50723,0.7952 0.94153,1.44691 1.44934,2.19067c0.56174,0.82278 1.20395,1.29985 1.78131,2.23199c0.43826,0.70753 0.66592,1.50839 1.30533,2.052c0.75885,0.64514 1.53256,1.10829 2.02267,1.46201c1.04453,0.75385 1.64401,1.18654 2.30084,1.95717c0.46463,0.54514 0.58484,1.54254 0.78851,2.2115c0.30252,0.99362 1.2551,1.37473 1.89066,1.90933c0.64935,0.5462 1.08481,1.21054 1.82666,1.65866c0.70529,0.42604 1.51001,1.03513 1.91333,1.716c0.48996,0.82715 0.72955,1.59232 1.38516,2.3c0.54996,0.59363 0.82779,1.4453 1.18552,2.38399c0.27188,0.71341 0.83041,1.48279 1.31467,2.14134c0.62054,0.84392 0.96298,1.57358 1.49982,2.35316c0.43512,0.63187 0.81842,1.44936 1.12152,2.34283c0.23569,0.69475 0.71164,1.65105 0.77417,2.43134c0.0726,0.90614 0.0224,1.71655 0.22583,2.6685c0.17123,0.80119 0.42612,1.56897 0.69464,2.60815c0.25079,0.97064 0.75412,1.61504 0.96252,2.51334c0.16116,0.6947 0.12073,1.68933 0.12149,2.64301c0.00073,0.91451 0.06134,1.70869 0.42532,2.63966c0.27286,0.69791 0.56424,1.65366 0.57468,2.57466c0.01022,0.90445 0,1.76668 0,2.62083c0,0.97917 0,1.78984 0,2.43634c0,1.22549 0,2.022 0,2.7735c0,0.955 0,1.96933 0,2.86951c0,0.78516 0,1.72516 0,2.41583c0,1.07333 0.07944,2.03369 -0.35718,2.7885c-0.36612,0.63293 -1.0062,1.31839 -1.35748,2.2115c-0.32468,0.82541 -0.67407,1.62138 -1.11868,2.48399c-0.36932,0.71649 -0.71927,1.49927 -1.35199,2.17467c-0.63171,0.67432 -1.30496,1.28513 -1.73199,2.02533c-0.45059,0.78105 -1.24274,1.23083 -1.74933,2.13333c-0.34457,0.61385 -0.009,1.53674 -0.62,2.41335c-0.41879,0.60085 -1.33939,0.99159 -2.06067,1.54799c-0.74026,0.57104 -1.42261,1.06168 -1.87436,1.80534c-0.41907,0.68988 -1.27518,1.08261 -1.98898,1.536c-0.80289,0.50996 -1.37473,1.04066 -2.02533,1.53867c-0.90536,0.69302 -1.7128,1.06677 -2.50269,1.41467c-0.92871,0.40903 -1.61563,0.78244 -2.26132,1.41066c-0.62668,0.60973 -1.09735,1.32291 -1.5,2c-0.49673,0.83528 -0.97937,1.5367 -1.8215,2.10001c-0.66965,0.44794 -1.68661,0.88452 -2.2695,1.2c-0.70499,0.38155 -1.32639,1.26009 -2.01965,1.72533c-0.7348,0.4931 -1.63687,0.77174 -2.38934,1.14133c-0.6962,0.34195 -1.49042,1.02249 -2.17465,1.43335c-0.81165,0.48737 -1.44656,1.01334 -1.92535,1.72116c-0.5369,0.79376 -1.14001,1.42679 -1.89999,1.84549c-0.67935,0.37427 -1.49039,1.02252 -2.17465,1.43335c-0.81161,0.48727 -1.39267,1.02322 -2.12985,1.69998c-0.56458,0.51831 -1.32483,1.04675 -2.04282,1.34283c-0.97934,0.40387 -1.60538,0.98489 -2.358,1.3045c-0.90759,0.38541 -1.44897,0.96893 -2.29468,1.05267c-0.79608,0.07883 -1.71152,-0.11459 -2.63599,0.03601c-0.87204,0.14206 -1.505,0.65268 -2.48001,0.87866c-0.75262,0.17444 -1.70935,0.08533 -2.71735,0.08533c-0.79199,0 -1.81934,-0.0036 -2.51398,0c-1.02737,0.00534 -1.97119,0.2283 -2.65268,0.5c-0.97455,0.38852 -1.6955,0.49774 -2.63599,0.5c-0.84802,0.00201 -1.71133,0 -2.61136,0c-0.91931,0 -1.75745,0.09592 -2.73166,-0.00067c-0.72891,-0.07227 -1.52875,-0.65704 -2.07565,-1.138c-0.65207,-0.57346 -1.33862,-1.23495 -1.70169,-1.565c-1.06906,-0.9718 -1.74557,-1.5365 -2.38632,-2.00299c-0.56604,-0.41211 -1.73505,-0.99847 -2.436,-1.30801c-0.86212,-0.38071 -1.31235,-0.95303 -1.90665,-1.75333c-0.54074,-0.72815 -0.85614,-1.2894 -1.71451,-2.08899c-0.55212,-0.51431 -1.30838,-0.94971 -2.16418,-1.53235c-0.73056,-0.49738 -1.58975,-0.85278 -2.336,-1.258c-0.76111,-0.41327 -1.73749,-0.27142 -2.50131,-0.63666c-0.72989,-0.349 -1.66406,-0.54214 -2.63202,-0.88268c-0.7121,-0.25052 -1.46854,-0.97029 -2.16666,-1.3125c-0.81305,-0.39854 -1.72247,-0.33383 -2.60001,-0.55682c-0.8623,-0.21912 -1.55896,-0.69986 -2.39999,-1.13068c-0.66434,-0.3403 -1.3075,-1.12592 -2,-1.83333c-0.48447,-0.49487 -0.97467,-1.38933 -1.5,-2c-0.52533,-0.61067 -0.90076,-1.45981 -1.66666,-2c-0.62527,-0.44101 -1.48785,-0.42143 -2.38669,-1.02533c-0.62415,-0.41934 -1.06479,-1.28499 -1.36133,-2.17467c-0.28589,-0.85765 -0.08533,-1.8 -0.08533,-2.60001l0,-0.95717l-0.00449,-0.89549l-0.05267,-0.69467" id="svg_1" stroke-width="5" stroke="#000000" fill="none"/> <path d="m352,161c0,-1.7 0.03033,-2.60275 0.42532,-3.41066c0.44678,-0.91383 0.44684,-1.59752 0.57483,-2.56767c0.12128,-0.91914 0.80695,-1.35661 1.22134,-2.12184c0.38831,-0.71704 0.96381,-1.39255 1.37851,-2.07449c0.58096,-0.95535 1.05917,-1.46912 1.72116,-2.368c0.51178,-0.69492 0.88492,-1.17104 1.34549,-2.12401c0.41019,-0.84866 1.09225,-1.30063 1.73334,-1.76933c0.77878,-0.56938 1.25293,-1.37151 2.20001,-1.55333c0.88391,-0.16969 1.79999,-0.01132 2.69998,-0.01067c0.90002,0.00067 1.84738,0.02847 2.34283,0.7045c0.52191,0.71213 0.24954,1.79353 0.41434,2.64284c0.17963,0.92572 0.6409,1.72267 1.05267,2.35266c0.46249,0.70761 1.5528,0.9787 1.84851,1.82083c0.31897,0.90842 0.15717,1.73274 0.61633,2.52983c0.44888,0.77927 0.20505,1.4971 0.46133,2.53868c0.21487,0.87325 0.84351,1.62201 1.048,2.29599c0.29037,0.95697 0.64078,1.62819 0.91599,2.61467c0.22867,0.81966 0.58228,1.52049 0.83334,2.66667c0.1709,0.78018 0.13565,1.35767 0.25067,2.23466c0.15768,1.2023 0.35223,1.7744 0.56332,2.58434c0.31168,1.19589 0.35266,2.11433 0.35266,3.01433c0,0.672 0.0394,1.76895 -0.02084,2.47917c-0.08716,1.0275 -0.64853,1.62796 -1.06317,2.32216c-0.47525,0.7957 -1.34042,1.11618 -2.11865,1.48267c-0.79721,0.37541 -1.56345,0.66226 -2.54666,0.70534c-0.9165,0.04015 -1.70901,0.01067 -2.65067,0.01067c-0.89999,0 -1.80002,0 -2.70001,0.00017l-0.89999,0.1665l-0.70001,0.48067" id="svg_2" stroke-width="5" stroke="#000000" fill="none"/> <path d="m359,163c0,-1.7 -0.00958,-2.60005 0,-3.5c0.01044,-0.97934 0.40366,-1.69298 1.08401,-2.216c0.61127,-0.46989 1.616,-0.284 2.55197,-0.284c0.84802,0 1.71133,-0.00081 2.72803,0c0.83466,0.00067 1.60739,0.35571 1.63599,1.20267c0.02591,0.76756 0,1.80267 0,2.54666c0,1.108 0,1.90134 0,2.7935l0,0.71851l0,0.7905" id="svg_3" stroke-width="5" stroke="#000000" fill="none"/> <path d="m267,179c-1.70001,0 -2.68478,0.09744 -3.41068,-0.45734c-0.55627,-0.42514 -1.07333,-1.31067 -1.58932,-2.04266c-0.51599,-0.73199 -1.09705,-1.54523 -1.6955,-2.19099c-0.58762,-0.63408 -1.14392,-1.26115 -1.50317,-2.07701c-0.31592,-0.71742 -0.45624,-1.4799 -0.776,-2.56c-0.26242,-0.8864 -1.1875,-1.24278 -1.85867,-1.83867c-0.60631,-0.53828 -1.26666,-0.83333 -2.16666,-0.83333c-0.8,0 -1.70612,0.0898 -2.084,0.80133c-0.40686,0.7661 -0.7796,1.69534 -0.85884,2.55667c-0.05891,0.64032 0.02011,1.59309 -0.05849,2.586c-0.08434,1.06554 -0.6964,1.65262 -0.91335,2.54266c-0.18085,0.74194 -0.08533,1.68001 -0.08533,2.466c0,0.82201 0,1.88066 0,2.80066c0,0.76001 0,1.7675 0,2.78934c0,0.70801 0,1.452 0,2.64301c0,0.91434 0,1.81433 0,2.5715c0,0.89549 0,1.75883 0,2.74283c0,0.82133 -0.08598,1.67873 0.00133,2.61467c0.08366,0.89674 0.66115,1.48767 1.19734,2.36932c0.40601,0.66757 0.55013,1.69623 0.968,2.51601c0.32599,0.6395 1.24359,1.07445 1.85866,1.57466c0.61987,0.50412 1.57468,0.42534 2.47467,0.42534c0.89999,0 1.79999,0 2.70001,0c0.89999,0 1.79999,0 2.59998,0c0.90002,0 1.80002,0 2.70001,0c0.89999,0 1.8045,0 2.66666,0l0.936,0l0.09335,0" id="svg_4" stroke-width="5" stroke="#000000" fill="none"/> <path d="m262,187c-1.83334,-0.16667 -2.2117,-0.97173 -2.57468,-1.60001c-0.48856,-0.84566 -0.86664,-1.5558 -1.478,-2.04733c-0.6445,-0.51819 -1.80084,-0.3078 -1.94598,0.44867c-0.16933,0.88257 -0.00134,1.83467 -0.00134,2.68266c0,0.86334 0.01068,1.88 0.28534,2.71468l0.51599,0.51599" id="svg_5" stroke-width="5" stroke="#000000" fill="none"/> <path d="m283,167c0.03601,-2.58934 0.44229,-3.38979 0.91867,-4.2c0.34857,-0.5928 1.13269,-1.12646 1.84134,-1.364c1.08191,-0.36264 1.61847,-0.7477 2.40665,-1.26933c0.70871,-0.46902 1.59052,-0.16667 2.48602,-0.16667c0.86331,0 1.82648,0 2.74731,0c0.909,0 1.93335,0 2.60535,0c0.74399,0 1.85184,-0.00221 2.74283,0c0.90451,0.00226 1.59915,0.05716 2.61584,0.42534l0.73581,0.45332l0.81616,0.40533l0.43668,0.66333" id="svg_6" stroke-width="5" stroke="#000000" fill="none"/> <path d="m323,157c0.05716,-1.7 0.56198,-2.46837 0.94733,-3.3c0.40399,-0.87186 0.88593,-1.47166 1.04819,-2.39999c0.15512,-0.88747 0.42212,-1.75714 0.97647,-2.10001c0.97464,-0.60283 1.76752,-0.8 2.69467,-1.03333c0.78458,-0.19745 1.53662,-0.70985 2.43335,-1.04517c0.85065,-0.31808 1.69998,-0.12151 2.60001,-0.12151c0.89999,0 1.80643,-0.09793 2.71066,0.01067c0.92804,0.11145 1.55542,0.59262 2.56781,0.86783c0.70105,0.19057 1.66434,0.17867 2.02017,0.92284l0.0585,0.84151" id="svg_7" stroke-width="5" stroke="#000000" fill="none"/> <path d="m289,171c1.79999,0 2.70004,0.00584 3.60001,0c0.82138,-0.00534 1.73517,-0.16014 2.40533,-0.35266c0.99216,-0.28503 1.84567,-0.58211 2.68567,-0.64284c0.90665,-0.06554 1.89465,-0.0045 1.20898,-0.0045c-0.89999,0 -1.69998,0 -2.60001,0c-0.89999,0 -1.79999,0 -2.69998,0c-0.90451,0 -1.76666,0 -2.60001,0l-0.97849,0l-0.82019,0l-0.91599,-0.08533" id="svg_8" stroke-width="5" stroke="#000000" fill="none"/> <path d="m330,156c1.79999,0 2.63599,0 3.48401,0c0.86331,0 1.83871,-0.06218 1.49515,0.02083c-0.97495,0.23553 -1.60529,0.80757 -2.27466,1.33633c-0.74097,0.58533 -1.14734,1.45456 -1.08316,1.64284c0.29025,0.85139 1.86267,0 2.55331,0c1.06818,0 1.92535,0 2.82535,0l0.79999,0" id="svg_9" stroke-width="5" stroke="#000000" fill="none"/> <path d="m307,160c1.47916,1.5 1.84943,2.37656 2.436,2.98534c0.6665,0.69173 1.25372,1.16185 1.47867,2.12933c0.20142,0.86632 -0.11063,1.71977 0.14249,2.58533c0.25665,0.87764 0.91425,1.59865 0.94284,2.5c0.02853,0.89955 0,1.8 0,2.60001c0,0.89999 0,1.8 0,2.72083c0,0.96317 0,1.65384 0,2.722c0,0.85718 0,1.75717 0,2.55717c0,0.89999 0,1.8 0,2.7c0,0.89999 -0.00006,1.8 0,2.7c0.00009,0.90001 0.04916,1.92642 0.64667,2.364c0.73181,0.53593 1.59375,0.55821 2.40149,1.08334c0.62289,0.40497 1.55185,0.35266 2.45184,0.35266c0.89999,0 2.14651,-0.18449 2.47916,0.52083c0.37512,0.79539 -0.2338,2.04808 0.45685,2.44318c0.75061,0.42938 1.76401,0.036 2.664,0.036c0.89999,0 1.64517,0.46684 1.89999,0.37866c0.83035,-0.28732 -0.00067,-1.77866 0,-2.67867c0.00067,-0.89867 0.35571,-1.6714 1.20001,-1.7c0.89948,-0.03047 1.79999,0 2.59998,0c0.90002,0 1.80002,0 2.70001,0c0.95834,0 0.45749,0.18575 -0.29999,-0.08533c-0.90112,-0.32246 -1.40527,-1.10947 -2,-1.71468c-0.60541,-0.61609 -1.20798,-1.5298 -1.5,-2.20084c-0.30847,-0.70888 -0.92087,-1.49884 -1.53336,-2.16583c-0.59143,-0.64404 -0.91647,-1.45619 -1.6875,-1.8125c-0.78891,-0.36456 -1.35306,-0.74641 -2.08981,-1.01016c-0.83737,-0.29976 -2.09116,0.11427 -2.3685,-0.55234c-0.36206,-0.87027 0.03003,-1.84886 -0.3735,-2.70116c-0.38379,-0.81061 -0.64667,-1.55717 -0.64734,-2.45717c-0.00067,-0.90001 -0.08948,-1.71738 -0.57468,-2.32533c-0.49838,-0.6245 -0.42532,-1.57468 -0.42532,-2.47467c0,-0.89999 0,-1.8 0,-2.7c0,-0.90001 0,-1.8 0,-2.60001l-0.05716,-0.95717" id="svg_10" stroke-width="5" stroke="#000000" fill="none"/> <path d="m313,210c1.79999,0 2.70001,0 3.60001,0c0.89999,0 1.79999,0 2.69998,0c0.90002,0 1.80002,0 2.70001,0c0.79999,0 1.70001,0 2.60001,0c0.89999,0 1.79999,0 2.69098,0c0,0 -1.07629,-0.06808 -1.25497,-0.86133c-0.21371,-0.9489 -0.1871,-1.85324 0.39999,-2.528c0.60861,-0.69949 1.664,-0.61067 2.564,-0.61067c0.79999,0 1.75717,0 2.65268,0c0.86331,0 1.71133,0 2.64731,0c0.90002,0 1.80017,0.00446 2.58536,0c0.94003,-0.00534 1.95108,-0.16078 2.59381,-0.5c0.82483,-0.43532 1.72086,-0.5 2.62085,-0.5c0.89999,0 1.73846,-0.20946 2.60001,0.05716c0.86615,0.26804 1.19119,1.26361 1.46664,2.10951c0.27792,0.85342 0.745,1.65555 0.82886,2.52882c0.0769,0.80083 0.0065,1.7045 0.00449,2.60451c-0.00226,0.9955 -0.36801,1.54919 -1.29999,1.7045c-0.81747,0.13622 -1.43915,0.78812 -1.72534,1.6315c-0.28461,0.83871 -0.66483,1.66963 -1.36401,2.30266c-0.56339,0.51007 -0.42615,1.70784 -1.1315,2.04051c-0.79538,0.37512 -1.77914,0.02083 -2.67917,0.02083c-0.89999,0 -1.80084,-0.03719 -2.59998,0c-0.91766,0.04271 -1.35269,0.91495 -2.08667,0.99867c-0.93265,0.10638 -1.94675,-0.00983 -2.80884,0.00133c-0.80472,0.01042 -1.62244,0.58914 -2.40451,0.87849c-0.85175,0.31512 -1.70041,0.09425 -2.60001,0.12151c-0.94412,0.02859 -1.35181,0.85638 -2.29999,1c-0.79095,0.11981 -1.7265,-0.18375 -2.60001,0.036c-0.86282,0.21706 -1.59662,0.92128 -2.39999,0.964c-0.79886,0.04248 -1.68158,0.00433 -2.54266,-0.2215c-0.97025,-0.25446 -1.71667,-0.52916 -2.48666,-0.97717c-0.79974,-0.4653 -1.64941,-0.79713 -2.45468,-1.36932c-0.54858,-0.3898 -2.06317,-0.76669 -2.01599,-1.59868c0.04568,-0.80548 1.77872,-0.3011 2.37851,-1.05482c0.55225,-0.69395 0.12149,-1.7785 0.12149,-2.53568l0,-0.89549l0,-0.86334l0,-0.98399" id="svg_11" stroke-width="5" stroke="#000000" fill="none"/> <path d="m315,212c-1.71466,1.084 -1.99866,1.80133 -2.05716,2.7l-0.44284,0.8l-0.44284,0.8l-0.05716,0.89999" id="svg_12" stroke-width="5" stroke="#000000" fill="none"/> <path d="m336,208c1.71466,1.084 2.08401,1.80133 2.61066,2.564l0.77869,0.41068l0.61066,0.54616" id="svg_13" stroke-width="5" stroke="#000000" fill="none"/> <path d="m319,211c0.87851,1.2215 1.00015,2.09984 1.284,2.916l0.65884,0.44116l0.05716,0.94284l0.00134,0.89867" id="svg_14" stroke-width="5" stroke="#000000" fill="none"/> <polyline id="svg_15" points="331,212 331,213.79999999999998 331,214.7 " stroke-linecap="round" stroke-width="5" stroke="#000000" fill="none"/> <path d="m267,172c-2.01468,-1.60001 -2.52188,-2.34828 -2.91733,-3.20267c-0.33951,-0.73354 -0.64587,-1.57039 -1.10352,-2.31816c-0.32663,-0.53371 -0.97952,-1.54573 -1.33249,-2.2325c-0.38443,-0.74797 -0.58136,-1.79698 -1.08951,-2.56818c-0.49921,-0.7576 -1.12344,-1.24548 -1.6705,-2.07716c-0.48514,-0.73755 -0.82169,-1.57428 -0.88531,-2.48534c-0.05417,-0.7758 -0.01184,-1.58684 -0.22284,-2.537c-0.17599,-0.79253 -0.5358,-1.76067 -1.16785,-2.48166c-0.57278,-0.65341 -1.08716,-1.32846 -1.48932,-2.19734c-0.30641,-0.66202 -0.77626,-1.46512 -1.09601,-2.31065c-0.33374,-0.88254 -0.49846,-1.61864 -1.02533,-2.42267c-0.44077,-0.67264 -0.85651,-1.50604 -1.284,-2.36801c-0.35944,-0.72476 -0.6768,-1.45035 -0.71468,-2.31467c-0.04218,-0.96249 -0.48845,-1.72627 -0.83466,-2.65067c-0.23993,-0.64063 -0.31178,-1.8405 -0.51933,-2.42883c-0.26726,-0.75757 -0.60869,-1.77927 -0.64751,-2.72566c-0.03354,-0.8176 -0.67197,-1.45711 -0.979,-2.19966c-0.33603,-0.81268 -0.02083,-1.77917 -0.02083,-2.67917c0,-0.9 0,-1.8 0,-2.60001c0,-0.89999 0,-1.8 0,-2.7c0,-0.9 0,-1.8 0,-2.70133c0,-0.96533 0,-1.79867 0,-2.632c0,-0.86217 0,-1.76666 0,-2.6875c0,-0.96317 0,-1.65383 0,-2.722c0,-0.85716 0,-1.75716 0,-2.55717c0,-0.89999 0,-1.8 0,-2.7c0,-0.9 -0.13655,-1.85664 0.284,-2.7c0.32993,-0.66165 0.53003,-1.52686 0.752,-2.4c0.21921,-0.86229 0.70673,-1.71863 1.24934,-2.31734c0.65118,-0.7185 1.21225,-1.14013 1.59999,-1.68533c0.72516,-1.01968 1.20978,-1.64302 2.09317,-2.1545c0.66965,-0.38773 1.51231,-0.77335 2.12151,-1.34267c0.59125,-0.55254 1.5506,-0.92217 1.87466,-1.75084c0.34219,-0.87497 0.99542,-1.36389 1.62534,-1.724c0.8642,-0.49403 1.63638,-0.88727 2.39999,-1.25867c0.75391,-0.36667 1.49112,-0.73101 2.3215,-1.26666c0.67703,-0.43671 1.67477,-0.90764 2.27399,-1.1955c0.74283,-0.35686 1.76794,-0.68649 2.60452,-0.7045c0.89978,-0.01936 1.80038,0.02537 2.59998,0c0.9014,-0.02859 1.73279,-0.59986 2.70001,-0.83334c0.84137,-0.20309 1.50601,-0.1149 2.448,-0.25066c1.00681,-0.1451 1.61768,-0.61465 2.53601,-0.83067c0.84406,-0.19854 1.77994,-0.02317 2.84933,-0.252c0.6915,-0.14796 1.48828,-0.44308 2.06934,-0.63467c1.19928,-0.39543 1.79913,-0.62374 2.75449,-0.8415c1.00162,-0.2283 1.72321,-0.29102 2.80118,-0.33633c0.67426,-0.02834 1.80035,0.14151 2.60965,-0.05684c0.89218,-0.21866 1.62952,-0.9201 2.31735,-0.96266c0.9382,-0.05806 1.9769,0.17014 2.81015,-0.0585c0.78485,-0.21537 1.63431,-0.7999 2.31885,-0.89017c0.80377,-0.10599 1.98828,-0.20663 2.58566,-0.33666c0.90439,-0.19686 1.79468,-0.46475 2.69998,-0.59467c0.89597,-0.12858 1.8053,-0.13818 2.70001,-0.28799c0.89771,-0.15031 1.71765,-0.44894 2.66666,-0.66667c0.78461,-0.18002 1.74384,-0.03396 2.63333,-0.17117c0.9314,-0.14368 1.46863,-0.84732 2.40002,-0.991c0.8895,-0.13721 1.75333,-0.0045 2.52664,-0.0045c0.98001,0 1.83667,0 2.77335,0c0.47333,0 1.38,0 2.77734,0c0.681,0 1.72266,0 2.59415,0c0.69101,0 1.44202,0 2.62851,0c0.79733,0 1.57867,0 2.328,0c1.33865,0 2.15317,-0.00209 3.00583,0c0.918,0.00225 1.64261,0.05936 2.68051,0.35717c0.81305,0.23329 1.38751,0.44666 2.58298,0.8415c0.58096,0.19188 1.36929,0.53221 2.43201,0.716c0.96017,0.16605 1.69644,0.30357 2.13733,1.08533c0.39142,0.69405 1.14331,1.33302 1.65869,1.81467c0.67615,0.63189 1.58588,1.0761 2.508,1.51867c0.70349,0.33764 1.21112,0.70404 2.06934,1.26933c0.89978,0.59268 1.49689,0.97478 2.28931,1.56133c0.45984,0.34036 1.10617,1.29847 1.75101,1.93616c0.52026,0.51448 1.58395,1.03578 2.15701,1.566c0.63144,0.58426 1.02652,1.08813 1.60001,1.9765c0.4198,0.6503 0.7854,1.36594 1.19998,2.05199c0.77298,1.27912 1.20361,1.78922 1.76401,2.52c0.35587,0.46406 0.96152,1.46312 1.31516,2.2645c0.32968,0.74709 0.832,1.70317 1.22086,2.269c0.61334,0.89249 0.8356,1.64336 1.24731,2.49017c0.38385,0.78951 1.01297,1.3157 1.27402,2.08317c0.24243,0.71271 0.63602,1.67473 0.75333,2.49983c0.09818,0.69043 0.24442,1.82211 0.37799,2.493c0.1449,0.72782 0.32635,1.49015 0.48068,2.68567c0.10245,0.79356 0.15259,1.93737 0.16217,2.6285c0.01535,1.1069 0.00449,1.9395 0.00449,2.89233c0,0.80067 0,1.68983 0,2.67933c0,0.82067 0,1.48517 0,2.48517c0,0.8355 0,1.716 0,2.916c0,0.60934 0.00095,1.55583 0,2.56534c-0.00067,0.71866 0.00079,1.46979 -0.03601,2.24399c-0.0376,0.79132 -0.17648,1.99068 -0.31665,2.78484c-0.13861,0.78526 -0.3392,1.54086 -0.52585,2.98267c-0.08459,0.65337 -0.07452,1.5401 -0.12164,2.67867c-0.03223,0.77843 -0.42902,1.5128 -1.22134,2.02167c-0.74609,0.47917 -1.38715,0.62932 -2.13568,1.06435c-0.73038,0.42447 -1.79709,-0.12611 -2.64282,0.22383c-0.78464,0.32466 -1.5,0.8125 -2.38934,0.84399l-0.63599,0.564l-0.62201,0.47801" id="svg_16" stroke-width="5" stroke="#000000" fill="none"/> <path d="m301,80c-1.70001,0 -2.60001,0 -3.5,0c-0.89999,0 -1.8045,0 -2.82132,0c-0.67868,0 -1.65717,0 -2.47736,0c-0.90134,0 -1.80133,0 -2.72217,0c-0.96317,0 -1.65381,0 -2.72198,0c-0.85718,0 -1.75757,0.02537 -2.55716,0c-0.9014,-0.02859 -1.67169,-0.62919 -2.52133,-0.8785c-0.82568,-0.24229 -1.79468,-0.1215 -2.56268,-0.1215c-0.94135,0 -1.94934,0 -2.81149,0c-0.8045,0 -1.7045,0 -2.60449,0c-0.90002,0 -2.15277,-0.33107 -2.61469,0.28533c-0.5509,0.73513 -0.40854,1.99426 0.13617,2.59334c0.63437,0.69769 1.4873,0.74837 2.37851,1.14666c0.71643,0.32018 1.35559,0.8821 2.172,1.45867c0.50171,0.35433 1.37631,0.90197 2.39465,1.34933c0.70206,0.30842 1.43442,0.50874 2.10001,0.756c1.26355,0.46938 1.71362,1.22648 2.53467,1.40933c0.8772,0.19537 1.79868,0.00134 2.71951,0.00134c0.80048,0 1.65381,0 2.59381,0c0.98535,0 1.88535,0 2.68533,0c0.90002,0 1.80002,0 2.70001,0c0.91068,0 1.82132,0 2.5,0c1.11465,0 2,0.00057 2.81433,0c0.95367,-0.00067 1.69666,0.05658 2.41766,-0.08533c1.12592,-0.22161 1.92697,-0.65053 2.76801,-1.08133c0.66434,-0.34029 1.30377,-1.12958 1.79999,-1.63334c0.68445,-0.69485 1.17151,-1.49863 1.20001,-2.39999c0.02844,-0.89938 -0.34293,-1.63751 -0.94733,-2.15267c-0.64642,-0.55096 -1.45267,-0.64733 -2.35266,-0.64733c-0.90002,0 -1.80002,0 -2.70001,0c-0.79999,0 -1.70001,0 -2.60001,0c-0.89999,0 -1.79999,-0.00133 -2.69998,0c-0.90268,0.00134 -1.68683,0.13982 -2.46936,0.56934c-0.76852,0.42184 -1.27142,0.80094 -2.30914,1.40916c-0.67853,0.39769 -1.52005,0.82043 -2.3215,1.2215c-0.7999,0.40027 -1.62094,0.76245 -2.39999,1.22134c-0.61801,0.36403 -1.41425,1.11011 -2.01068,1.85067c-0.43576,0.54108 -0.87466,1.13066 -1.6105,2.02766l-0.52701,0.59133l-0.53098,0.56734l-0.51102,0.52733" id="svg_17" stroke-width="5" stroke="#000000" fill="none"/> <path d="m336,84c-1.76801,2.96667 -2.2489,3.64131 -2.5,3.97916c-0.49121,0.66091 -1.34134,1.76997 -1.828,2.31284c-0.65158,0.72684 -1.31784,1.26527 -1.9675,2.008c-0.58118,0.66445 -0.80685,1.48978 -1.22534,2.2625c-0.5014,0.92579 -0.68176,1.4931 -1,2.5c-0.23727,0.7507 -0.33881,1.15118 -0.80048,2.3375c-0.31403,0.80695 -0.68863,1.59576 -1.026,2.4c-0.50085,1.19389 -0.76602,1.99599 -1.00601,2.768l-0.20001,0.724l-0.16,0.652" id="svg_18" stroke-width="5" stroke="#000000" fill="none"/> <path d="m351,88c-1.47916,1.5 -1.79538,2.37284 -2.28534,3.2c-0.40332,0.68088 -1.15485,1.228 -1.52899,1.72867c-0.76822,1.02805 -1.19138,1.78178 -1.43634,2.17267c-0.49939,0.79687 -0.95953,1.57737 -1.60651,2.513c-0.46603,0.67395 -1.03717,1.34237 -1.62683,2.15366c-0.52655,0.72445 -0.86331,1.22667 -1.62933,2.26267l-0.44,0.584" id="svg_19" stroke-width="5" stroke="#000000" fill="none"/> <path d="m362,112c-0.87851,1.2215 -0.82428,2.15118 -1.16666,3c-0.3013,0.74696 -0.95447,1.53432 -1.22269,2.25066c-0.2756,0.73609 -0.54379,1.77688 -0.60931,2.54667c-0.08154,0.95815 -0.38394,1.84338 -0.64868,2.55c-0.33386,0.89105 -0.35199,1.62199 -0.35266,2.658c-0.00049,0.744 0,1.85184 0,2.60934l-0.00449,1.03799l-0.05267,0.69467" id="svg_20" stroke-width="5" stroke="#000000" fill="none"/> <path d="m310,85c-0.01068,1.84666 -0.05161,2.69399 -0.284,3.68266c-0.18884,0.80338 -0.43951,1.54623 -0.66333,2.50751c-0.22696,0.97475 -0.54739,1.60978 -0.88602,2.64317c-0.24289,0.74121 -0.65048,1.57304 -0.96799,2.22266c-0.47089,0.96341 -0.60648,1.61535 -0.84149,2.586c-0.20685,0.85422 -0.26889,1.79999 -0.36786,2.77934c-0.09302,0.92056 -0.35025,1.58158 -0.564,2.328c-0.31628,1.10455 -0.42212,1.90808 -0.64667,2.79333c-0.18115,0.71418 -0.42599,1.452 -0.72598,2.652l-0.13669,0.77334" id="svg_21" stroke-width="5" stroke="#000000" fill="none"/> <path d="m288,87c-1.05267,1.75716 -1.37994,2.64171 -1.64734,3.34734c-0.33969,0.89644 -0.49411,1.71897 -0.922,2.70467c-0.27432,0.63197 -0.59677,1.2826 -0.948,1.896c-0.68851,1.20246 -1.16187,1.75513 -1.79617,2.361c-0.54437,0.51997 -1.4545,1.229 -2.04449,1.70534c-0.64642,0.52189 -1.34244,1.04188 -2.142,1.98566c-0.48111,0.56788 -0.79199,1.17867 -1.18649,1.98566l-0.51218,1.04367l-0.44415,0.66167" id="svg_22" stroke-width="5" stroke="#000000" fill="none"/> <path d="m268,88c-1,1 -1.14142,1.77132 -1.5,2.54166c-0.45163,0.97021 -0.47766,1.70855 -0.49551,2.453c-0.0249,1.03838 -0.03885,1.87229 -0.22598,2.76933c-0.19131,0.91714 -0.31946,1.58541 -0.7785,2.736c-0.25735,0.64507 -0.76245,1.52629 -1.05267,2.2c-0.36261,0.8418 -0.77826,1.65261 -1.23132,2.5c-0.3486,0.65201 -0.7327,1.49294 -1.15866,2.34283c-0.37021,0.73869 -0.70667,1.2425 -1.224,2.2905l-0.26135,0.92l-0.06934,0.76" id="svg_23" stroke-width="5" stroke="#000000" fill="none"/> <path d="m252,102c0,1.836 0,2.60133 0,3.6c0,0.8 0,1.80134 0,2.636c0,0.93066 0,1.71217 0,2.75417l0,0.86684l0,0.94033l0,0.90266" id="svg_24" stroke-width="5" stroke="#000000" fill="none"/> <path d="m280,256c0,1.79999 0,2.70001 0,3.5625c0,0.9375 0,1.7955 0,2.4375c0,0.948 0,1.948 0,2.858c0,0.90649 0,1.85001 0,2.57401c0,0.772 0,1.96783 0,2.76349c0,0.78366 0,1.54733 0,2.63785c0,1.00049 0,1.60416 0,2.83331c0,0.79169 0.00342,1.64233 0,2.66669c-0.00226,0.672 0.11179,1.45111 -0.22134,2.52383c-0.24789,0.79822 -0.67798,1.63086 -0.80399,2.35349c-0.17322,0.99341 -0.54602,1.74429 -0.85333,2.76801c-0.22809,0.7598 -0.50235,1.66266 -0.76868,2.36865c-0.33633,0.89163 -0.41794,1.62704 -0.70532,2.65802c-0.2085,0.74789 -0.43851,1.67084 -0.67267,2.60931c-0.21957,0.88004 -0.51154,1.57462 -0.89066,2.49869c-0.33514,0.81693 -0.97296,1.29425 -1.60486,1.9075c-0.62646,0.60797 -1.07916,1.16449 -1.67783,2.09381l-0.44415,0.58084l-0.35718,0.8045" id="svg_25" stroke-width="5" stroke="#000000" fill="none"/> <path d="m368,241c0.28534,2.05467 0.51505,3.04318 0.7045,3.75633c0.28674,1.07936 0.50055,1.75513 0.77466,2.702c0.16757,0.57889 0.33673,1.63239 0.54169,2.52084c0.23996,1.04027 0.70139,1.62862 1.2005,2.32883c0.38751,0.54364 0.99017,1.55008 1.37415,2.3455c0.39581,0.81992 0.55313,1.24164 0.91919,2.00916c0.57602,1.20773 1.10831,1.86423 1.78531,2.64633c0.42181,0.4873 0.89114,1.46478 1.22086,2.21185c0.35364,0.80136 0.78366,1.57001 1.29382,2.23248c0.59689,0.77512 1.08279,1.63437 1.35199,2.41333c0.24341,0.70441 0.59552,1.35193 1.15466,2.47617c0.33167,0.66687 0.68646,1.37439 1.026,2.10901c0.49747,1.07629 0.78683,1.75269 1.11102,2.68567c0.27264,0.78458 0.34415,1.80481 0.763,2.66251c0.32291,0.66122 0.60605,1.52048 0.7995,2.39999c0.18643,0.84756 1.04825,1.44193 1.45831,2c0.60834,0.82791 0.75583,1.75476 1.2825,2.20001c0.82031,0.69351 1.64145,0.92349 2.35168,1.5c0.65881,0.53476 0.8927,1.56491 1.68799,1.79865c0.86932,0.25549 1.49866,0.70667 1.99866,1.43335l0.70001,0.56799l0.70001,0.56799l0.5,0.72668" id="svg_26" stroke-width="5" stroke="#000000" fill="none"/> <path d="m279,280c1,1 1.09427,1.79477 1.5,2.5c0.4621,0.80319 0.82272,1.83932 1.20532,2.50534c0.2868,0.49927 0.75708,1.2131 1.23334,2.32266c0.37061,0.86343 0.82474,1.39319 1.36133,2.33817c0.33853,0.59619 0.70889,1.66446 0.89868,2.30051c0.20007,0.67059 0.4595,1.66766 0.68018,2.76932c0.15265,0.76196 0.44363,1.7688 0.69315,2.32001c0.29782,0.65796 0.66943,1.38507 1.116,2.14801c0.70877,1.21091 0.98566,1.60526 1.55869,2.396c0.58679,0.80972 0.89816,1.21426 1.91998,2.39999c0.34866,0.4046 1.07669,1.19128 1.43735,1.57867c0.69809,0.74985 1.36124,1.43387 1.896,2.08798c0.65344,0.79926 1.07425,1.50876 1.5,2.33334c0.40598,0.78629 0.80841,1.50888 1.38934,2.36401c0.49658,0.73093 0.95486,1.42645 1.71066,1.85748c0.6691,0.38156 1.23465,1.27808 2,1.65717c0.84677,0.4194 1.60001,0.76868 2.39999,1.10049l0.88934,0.03152l0.61066,0.48932" id="svg_27" stroke-width="5" stroke="#000000" fill="none"/> <path d="m380,271c-0.00449,2.00534 0.11179,2.78445 -0.22134,3.85718c-0.24789,0.79822 -0.67825,1.63641 -0.82031,2.22617c-0.18799,0.78046 -0.61334,1.78519 -1.01636,2.57465c-0.43237,0.84698 -0.68823,1.25494 -1.09,2.09c-0.51666,1.07388 -0.67444,1.9548 -0.93332,2.7627c-0.32196,1.00476 -0.73178,1.84879 -1.14017,2.58932c-0.37195,0.6745 -1.22406,1.27664 -1.7785,2.06665c-0.43747,0.62332 -0.76083,1.32181 -1.60001,1.84802c-0.77823,0.48801 -1.56665,1.15198 -2.05267,1.638c-0.52197,0.52197 -1.4151,1.25253 -1.90067,1.93665c-0.52881,0.74503 -0.75626,1.59436 -1.24799,2.29602c-0.52521,0.74942 -0.84622,1.49887 -1.39999,2.23065c-0.51001,0.67392 -1.27374,1.37888 -1.81952,1.884c-0.57001,0.52756 -1.37897,1.11285 -2.14316,1.58932c-0.81567,0.50858 -1.53149,1.0535 -2.336,1.38983l-0.89999,0.02084l-0.89999,0" id="svg_28" stroke-width="5" stroke="#000000" fill="none"/> <path d="m267,300c0.57468,1.60001 0.91296,2.40372 1.00449,3.30899c0.10434,1.03186 0.35645,1.69394 0.57019,2.44034c0.31622,1.10422 0.41193,1.84937 0.85065,2.65067c0.45181,0.82516 0.63611,1.57672 0.86002,2.36935c0.21408,0.75787 0.46884,1.56824 0.91599,2.54398c0.39401,0.8598 0.95135,1.53748 1.62402,2.06134c0.67706,0.52728 1.41818,1.28513 1.79999,1.836c0.6893,0.99448 1.05066,1.38306 1.58533,2.06134c0.81882,1.03876 1.1991,1.68781 1.56799,2.36801c0.36163,0.66678 0.6647,1.30124 1.116,2.49298c0.28217,0.74509 0.80484,1.5293 1.29068,2.04166c0.77695,0.81937 1.33517,1.56061 2.21466,1.78934c0.8717,0.22672 1.8573,-0.12766 2.70001,0.25735c0.66931,0.30579 1.49997,0.77081 2.39999,0.77866c0.80447,0.00702 1.82007,0.22443 2.5,0.5c0.83182,0.33713 1.6955,0.49551 2.60001,0.5l0.87915,-0.02084" id="svg_29" stroke-width="5" stroke="#000000" fill="none"/> <path d="m393,289c-2.24283,3.18567 -2.79834,3.79767 -3.5,4.5c-0.69968,0.70035 -1.20001,1.20001 -1.91068,1.91068c-0.47467,0.47467 -1.242,1.242 -1.76398,1.76398c-0.80383,0.80383 -1.3045,1.3045 -2.02667,2.02667c-0.55585,0.55585 -1.28268,1.28268 -1.79868,1.79868c-0.51599,0.51599 -1.24283,1.24283 -2,2c-0.5,0.5 -1.20267,1.19736 -1.79999,1.79999c-0.60269,0.60803 -1.18057,1.37906 -1.60001,2.01468c-0.57394,0.86975 -1.39011,1.15182 -2.25269,1.547c-0.72873,0.33386 -1.34583,0.94547 -1.84732,1.65918c-0.40015,0.56946 -1.15268,1.57016 -1.67465,2.10715l-0.80383,0.629l-0.71701,0.23401" id="svg_30" stroke-width="5" stroke="#000000" fill="none"/> <path d="m268,300c-2.59549,0.70984 -3.16928,1.17996 -3.97849,1.97849c-0.50397,0.49734 -1.22153,1.22153 -1.8215,1.8215c-0.60001,0.60001 -1.28384,1.3186 -1.90802,1.87201c-0.77206,0.68451 -1.33975,1.10031 -1.96799,1.56799c-0.64371,0.47919 -1.22592,0.99109 -2.26801,1.50534c-0.8213,0.4053 -1.62305,0.83331 -2.112,1.31201c-0.71487,0.69986 -1.30171,1.3056 -1.96483,1.94266c-0.67352,0.64706 -0.96564,1.00723 -2.20851,1.94266c-0.48163,0.36249 -1.36031,0.80063 -2.172,0.97467c-0.82817,0.17758 -1.78059,0.38586 -2.55583,0.797c-0.57585,0.30539 -1.44409,0.88846 -2.34267,1.4855c-0.59561,0.39575 -1.45949,0.97165 -2.01483,1.31485c-0.99049,0.61212 -1.61456,1.02271 -2.66383,1.36398c-0.70163,0.22821 -1.49318,0.75055 -2.34283,0.99985c-0.82568,0.24228 -1.92223,-0.11606 -2.59467,0.40549c-0.62654,0.48593 -1.48132,0.58957 -2.06934,1.15201c-0.5826,0.55725 -1.2,1.12799 -2.12666,1.47867l-0.34633,0.08533" id="svg_31" stroke-width="5" stroke="#000000" fill="none"/> <path d="m389,285c2.16501,0.15686 2.69711,0.70486 3.6608,1.14969c0.78714,0.36334 1.42917,1.00558 2.24371,1.67395c0.71939,0.59033 1.29587,1.24515 1.77133,1.88245c0.58661,0.78619 1.35931,1.38281 2.23114,1.85858c0.78491,0.42834 1.49496,1.01004 1.96423,1.62814c0.56427,0.74332 1.26205,1.50888 2.06339,1.892c0.86911,0.41556 1.81448,0.78491 2.83575,1.13071c1.08398,0.36707 1.94571,0.45038 2.7334,0.83331c1.0553,0.51303 1.92209,1.16824 2.73969,1.49466c0.87802,0.35056 2.07629,0.54224 2.96033,0.57056c1.06201,0.034 2.14456,0.34229 2.85107,0.61349c1.00333,0.38513 2.07703,0.32605 3.21442,0.33194c1.08743,0.00562 1.96552,0.36996 2.84146,0.67392c1.05261,0.36523 2.30038,0.2673 3.23566,0.2673c1.01556,0 1.8721,0 3.27658,0c0.94476,0 2.12543,0 3.04575,0l1.0087,0l1.01813,0" id="svg_32" stroke-width="5" stroke="#000000" fill="none"/> </g> </svg>